<?xml version="1.0" encoding="UTF-8"?>
<svg xmlns="http://www.w3.org/2000/svg" xmlns:xlink="http://www.w3.org/1999/xlink" width="810pt" height="809.999993pt" viewBox="0 0 810 809.999993" version="1.2">
<defs>
<clipPath id="clip1">
  <path d="M 178 502.414062 L 631 502.414062 L 631 809.96875 L 178 809.96875 Z M 178 502.414062 "/>
</clipPath>
</defs>
<g id="surface1">
<g clip-path="url(#clip1)" clip-rule="nonzero">
<path style=" stroke:none;fill-rule:nonzero;fill:rgb(31.759644%,67.83905%,89.7995%);fill-opacity:1;" d="M 244.609375 809.960938 C 249.609375 764.234375 256.089844 722.214844 264.5 691.882812 C 278.351562 731.789062 284.558594 772.257812 286.3125 809.960938 L 523.410156 809.960938 C 525.148438 772.257812 531.363281 731.789062 545.214844 691.882812 C 553.617188 722.214844 560.105469 764.234375 565.105469 809.960938 L 630.960938 809.960938 C 623.757812 705.183594 612.632812 600.308594 595.765625 569.609375 C 572.363281 527.003906 549.984375 555.074219 515.4375 537.449219 C 515.4375 497.4375 475.25 502.945312 475.25 502.945312 L 334.464844 502.945312 C 334.464844 502.945312 294.277344 497.4375 294.277344 537.449219 C 259.730469 555.074219 237.351562 527.003906 213.949219 569.609375 C 197.082031 600.308594 185.957031 705.183594 178.753906 809.960938 L 244.609375 809.960938 "/>
</g>
<path style=" stroke:none;fill-rule:nonzero;fill:rgb(69.018555%,49.01886%,40.388489%);fill-opacity:1;" d="M 632.734375 276.402344 L 632.734375 316.617188 C 643.835938 316.617188 652.839844 307.617188 652.839844 296.507812 C 652.839844 285.402344 643.835938 276.402344 632.734375 276.402344 "/>
<path style=" stroke:none;fill-rule:nonzero;fill:rgb(13.729858%,12.159729%,12.548828%);fill-opacity:1;" d="M 607.792969 371.773438 C 600.71875 383.496094 599.289062 397.019531 602.625 409.25 C 590.238281 412 578.957031 419.574219 571.894531 431.296875 C 558.1875 454.023438 565.496094 483.550781 588.21875 497.257812 C 610.9375 510.960938 640.460938 503.648438 654.167969 480.929688 C 655.96875 477.933594 657.394531 474.824219 658.472656 471.640625 C 660.484375 473.78125 662.703125 475.757812 665.339844 477.351562 C 680.957031 486.769531 701.261719 481.75 710.679688 466.128906 C 720.097656 450.507812 715.078125 430.203125 699.457031 420.773438 C 697.09375 419.359375 694.621094 418.371094 692.109375 417.597656 C 702.894531 395.480469 695.207031 368.402344 673.734375 355.453125 C 651.019531 341.746094 621.492188 349.054688 607.792969 371.773438 "/>
<path style=" stroke:none;fill-rule:nonzero;fill:rgb(13.729858%,12.159729%,12.548828%);fill-opacity:1;" d="M 201.917969 371.773438 C 208.988281 383.496094 210.425781 397.019531 207.089844 409.25 C 219.46875 412 230.75 419.574219 237.820312 431.296875 C 251.523438 454.023438 244.21875 483.550781 221.492188 497.257812 C 198.777344 510.960938 169.25 503.648438 155.546875 480.929688 C 153.738281 477.933594 152.320312 474.824219 151.234375 471.640625 C 149.222656 473.78125 147.011719 475.757812 144.375 477.351562 C 128.757812 486.769531 108.460938 481.75 99.035156 466.128906 C 89.613281 450.507812 94.636719 430.203125 110.253906 420.773438 C 112.613281 419.359375 115.085938 418.371094 117.605469 417.597656 C 106.824219 395.480469 114.503906 368.402344 135.972656 355.453125 C 158.695312 341.746094 188.222656 349.054688 201.917969 371.773438 "/>
<path style=" stroke:none;fill-rule:nonzero;fill:rgb(53.729248%,29.40979%,12.939453%);fill-opacity:1;" d="M 677.050781 297.601562 C 677.050781 263.738281 650.714844 236.042969 617.410156 233.855469 C 614.878906 205.195312 609.914062 162.410156 604.503906 150.65625 C 592.167969 123.824219 570.503906 102.1875 545.992188 86.214844 C 504.046875 58.882812 453.746094 47.097656 404.855469 47.0625 C 355.960938 47.097656 305.667969 58.882812 263.722656 86.214844 C 239.210938 102.1875 217.546875 123.824219 205.207031 150.65625 C 199.800781 162.410156 194.828125 205.195312 192.296875 233.855469 C 158.996094 236.042969 132.664062 263.738281 132.664062 297.601562 C 132.664062 331.808594 159.546875 359.730469 193.328125 361.414062 C 196.960938 392.410156 204.835938 422.691406 223.066406 447.027344 C 263.925781 501.605469 336.820312 536.523438 404.855469 536.5625 C 472.894531 536.523438 545.796875 501.605469 586.648438 447.027344 C 604.878906 422.691406 612.753906 392.410156 616.378906 361.414062 C 650.167969 359.730469 677.050781 331.808594 677.050781 297.601562 "/>
<path style=" stroke:none;fill-rule:nonzero;fill:rgb(69.018555%,49.01886%,40.388489%);fill-opacity:1;" d="M 630.152344 277.730469 L 630.152344 317.941406 C 641.253906 317.941406 650.253906 308.933594 650.253906 297.832031 C 650.253906 286.730469 641.253906 277.730469 630.152344 277.730469 "/>
<path style=" stroke:none;fill-rule:nonzero;fill:rgb(69.018555%,49.01886%,40.388489%);fill-opacity:1;" d="M 179.5625 277.730469 L 179.5625 317.941406 C 168.460938 317.941406 159.453125 308.933594 159.453125 297.832031 C 159.453125 286.730469 168.460938 277.730469 179.5625 277.730469 "/>
<path style=" stroke:none;fill-rule:nonzero;fill:rgb(69.018555%,49.01886%,40.388489%);fill-opacity:1;" d="M 404.855469 482.167969 C 435.679688 482.167969 460.667969 457.179688 460.667969 426.359375 L 349.046875 426.359375 C 349.046875 457.179688 374.035156 482.167969 404.855469 482.167969 "/>
<path style=" stroke:none;fill-rule:nonzero;fill:rgb(13.729858%,12.159729%,12.548828%);fill-opacity:1;" d="M 569.328125 276.578125 C 557.699219 264.984375 541.117188 256.703125 522.644531 253.25 C 504.179688 249.800781 485.734375 251.546875 470.699219 258.167969 C 467.359375 259.640625 465.921875 262.382812 466.960938 265.320312 C 468.027344 268.34375 471.503906 270.890625 475.613281 271.65625 C 478.179688 272.140625 480.785156 271.878906 482.921875 270.941406 C 493.671875 266.207031 506.835938 264.949219 520 267.410156 C 533.171875 269.867188 545.003906 275.785156 553.316406 284.085938 C 554.976562 285.734375 557.3125 286.910156 559.878906 287.394531 C 563.988281 288.160156 568.15625 287.042969 570.230469 284.601562 C 572.265625 282.238281 571.914062 279.160156 569.328125 276.578125 "/>
<path style=" stroke:none;fill-rule:nonzero;fill:rgb(13.729858%,12.159729%,12.548828%);fill-opacity:1;" d="M 240.386719 276.578125 C 252.015625 264.984375 268.59375 256.703125 287.0625 253.25 C 305.535156 249.800781 323.980469 251.546875 339.007812 258.167969 C 342.355469 259.640625 343.785156 262.382812 342.753906 265.320312 C 341.6875 268.34375 338.210938 270.890625 334.101562 271.65625 C 331.53125 272.140625 328.929688 271.878906 326.785156 270.941406 C 316.039062 266.207031 302.871094 264.949219 289.707031 267.410156 C 276.542969 269.867188 264.710938 275.785156 256.390625 284.085938 C 254.738281 285.734375 252.402344 286.910156 249.835938 287.394531 C 245.726562 288.160156 241.558594 287.042969 239.476562 284.601562 C 237.449219 282.238281 237.800781 279.160156 240.386719 276.578125 "/>
<path style=" stroke:none;fill-rule:nonzero;fill:rgb(13.729858%,12.159729%,12.548828%);fill-opacity:1;" d="M 552.550781 300.132812 C 552.570312 308.824219 544.890625 310.492188 541.175781 310.792969 C 535.402344 301.808594 525.339844 295.847656 513.863281 295.847656 C 495.933594 295.847656 481.394531 310.386719 481.394531 328.328125 C 481.394531 346.265625 495.933594 360.8125 513.863281 360.8125 C 531.804688 360.8125 546.34375 346.265625 546.34375 328.328125 C 546.34375 325.496094 545.945312 322.753906 545.265625 320.136719 C 559.527344 313.382812 552.886719 300.042969 552.550781 300.132812 "/>
<path style=" stroke:none;fill-rule:nonzero;fill:rgb(13.729858%,12.159729%,12.548828%);fill-opacity:1;" d="M 257.164062 300.132812 C 257.136719 308.824219 264.820312 310.492188 268.53125 310.792969 C 274.3125 301.808594 284.367188 295.847656 295.84375 295.847656 C 313.78125 295.847656 328.320312 310.386719 328.320312 328.328125 C 328.320312 346.265625 313.78125 360.8125 295.84375 360.8125 C 277.910156 360.8125 263.371094 346.265625 263.371094 328.328125 C 263.371094 325.496094 263.769531 322.753906 264.449219 320.136719 C 250.179688 313.382812 256.828125 300.042969 257.164062 300.132812 "/>
<path style=" stroke:none;fill-rule:nonzero;fill:rgb(13.729858%,12.159729%,12.548828%);fill-opacity:1;" d="M 624.957031 335.113281 C 625.082031 335.113281 624.957031 299.015625 624.957031 299.015625 L 624.871094 182.484375 C 624.5625 182.472656 625.179688 182.449219 624.871094 182.4375 C 624.863281 180.765625 624.878906 179.097656 624.871094 177.433594 C 624.753906 155.71875 625.582031 133.765625 618.292969 112.988281 C 606.996094 80.824219 581.359375 55.664062 552.839844 38.113281 C 509.496094 11.453125 457.519531 -0.0351562 406.996094 -0.0585938 C 356.472656 -0.0351562 304.496094 11.453125 261.152344 38.113281 C 232.625 55.664062 206.996094 80.824219 195.699219 112.988281 C 188.40625 133.765625 189.316406 155.71875 189.199219 177.433594 C 189.191406 179.097656 189.203125 180.765625 189.199219 182.441406 C 188.917969 182.449219 189.484375 182.476562 189.199219 182.484375 L 189.238281 333.449219 C 188.539062 338.269531 188.453125 345.246094 189.246094 355.074219 C 194.199219 416.484375 240.351562 393.792969 245.691406 388.445312 C 221.964844 397.574219 215.660156 372.945312 214.046875 356.449219 L 221.445312 254.511719 C 221.445312 254.511719 241.019531 255.460938 248.136719 240.75 C 257.039062 250.957031 281.949219 293.671875 319.324219 288.335938 C 303.304688 265.195312 290.847656 219.757812 299.75 201.121094 C 299.75 201.121094 442.117188 277.652344 538.214844 247.402344 C 557.472656 238.96875 576.515625 254.394531 587.273438 269.179688 C 603.699219 291.742188 594.421875 316.53125 600.4375 342.917969 C 600.4375 342.917969 603.003906 401.800781 568.300781 388.445312 C 573.640625 393.792969 619.792969 416.484375 624.746094 355.074219 C 625.453125 346.328125 625.460938 339.832031 624.957031 335.113281 "/>
<path style=" stroke:none;fill-rule:nonzero;fill:rgb(31.759644%,67.83905%,89.7995%);fill-opacity:1;" d="M 189.164062 245.605469 C 189.164062 245.605469 252.5625 110.738281 406.953125 110.738281 C 561.34375 110.738281 624.828125 240.539062 624.828125 240.539062 C 624.828125 240.539062 593.460938 63.097656 406.953125 63.097656 C 220.457031 63.097656 189.164062 245.605469 189.164062 245.605469 "/>
</g>
</svg>
