<?xml version="1.0" encoding="UTF-8"?>
<svg xmlns="http://www.w3.org/2000/svg" xmlns:xlink="http://www.w3.org/1999/xlink" width="810pt" height="809.999993pt" viewBox="0 0 810 809.999993" version="1.2">
<defs>
<clipPath id="clip1">
  <path d="M 97.707031 388 L 170 388 L 170 461 L 97.707031 461 Z M 97.707031 388 "/>
</clipPath>
<clipPath id="clip2">
  <path d="M 119 20 L 711.628906 20 L 711.628906 616 L 119 616 Z M 119 20 "/>
</clipPath>
</defs>
<g id="surface1">
<path style=" stroke:none;fill-rule:nonzero;fill:rgb(98.039246%,72.549438%,51.759338%);fill-opacity:1;" d="M 426.011719 657.808594 L 388.207031 687.980469 L 349.589844 657.808594 L 349.589844 602.351562 L 426.011719 602.351562 L 426.011719 657.808594 "/>
<path style=" stroke:none;fill-rule:nonzero;fill:rgb(13.729858%,12.159729%,12.548828%);fill-opacity:1;" d="M 426.011719 657.808594 L 423.492188 654.65625 L 388.179688 682.835938 L 353.617188 655.84375 L 353.617188 606.390625 L 421.976562 606.390625 L 421.976562 657.808594 L 426.011719 657.808594 L 423.492188 654.65625 L 426.011719 657.808594 L 430.039062 657.808594 L 430.039062 602.351562 C 430.039062 601.289062 429.609375 600.25 428.863281 599.496094 C 428.109375 598.75 427.070312 598.316406 426.011719 598.316406 L 349.589844 598.316406 C 348.527344 598.316406 347.492188 598.75 346.738281 599.496094 C 345.984375 600.25 345.550781 601.289062 345.550781 602.351562 L 345.550781 657.808594 C 345.550781 659.050781 346.132812 660.230469 347.109375 660.992188 L 385.726562 691.15625 C 387.195312 692.3125 389.265625 692.292969 390.71875 691.132812 L 428.523438 660.96875 C 429.476562 660.207031 430.039062 659.035156 430.039062 657.808594 L 426.011719 657.808594 "/>
<path style=" stroke:none;fill-rule:nonzero;fill:rgb(98.039246%,72.549438%,51.759338%);fill-opacity:1;" d="M 651.917969 347.351562 C 651.917969 493.382812 533.675781 611.757812 387.800781 611.757812 C 241.921875 611.757812 123.675781 493.382812 123.675781 347.351562 L 123.675781 289.144531 C 123.675781 143.113281 241.921875 24.738281 387.800781 24.738281 C 533.675781 24.738281 651.917969 143.113281 651.917969 289.144531 L 651.917969 347.351562 "/>
<path style=" stroke:none;fill-rule:nonzero;fill:rgb(13.729858%,12.159729%,12.548828%);fill-opacity:1;" d="M 651.917969 347.351562 L 647.890625 347.351562 C 647.890625 419.265625 618.785156 484.332031 571.714844 531.460938 C 524.636719 578.582031 459.640625 607.71875 387.800781 607.71875 C 315.960938 607.71875 250.964844 578.582031 203.886719 531.460938 C 156.816406 484.332031 127.710938 419.265625 127.710938 347.351562 L 127.710938 289.144531 C 127.710938 217.230469 156.816406 152.164062 203.886719 105.035156 C 250.964844 57.914062 315.960938 28.777344 387.800781 28.777344 C 459.640625 28.777344 524.636719 57.914062 571.714844 105.035156 C 618.785156 152.164062 647.890625 217.230469 647.890625 289.144531 L 647.890625 347.351562 L 655.953125 347.351562 L 655.953125 289.144531 C 655.945312 140.882812 535.90625 20.707031 387.800781 20.707031 C 239.695312 20.707031 119.648438 140.882812 119.648438 289.144531 L 119.648438 347.351562 C 119.648438 495.613281 239.695312 615.789062 387.800781 615.789062 C 535.90625 615.789062 655.945312 495.613281 655.953125 347.351562 L 651.917969 347.351562 "/>
<path style=" stroke:none;fill-rule:nonzero;fill:rgb(36.859131%,13.328552%,12.548828%);fill-opacity:1;" d="M 536.371094 424.667969 C 536.371094 438.472656 525.199219 449.648438 511.410156 449.648438 C 497.636719 449.648438 486.457031 438.472656 486.457031 424.667969 C 486.457031 410.878906 497.636719 399.699219 511.410156 399.699219 C 525.199219 399.699219 536.371094 410.878906 536.371094 424.667969 "/>
<path style=" stroke:none;fill-rule:nonzero;fill:rgb(13.729858%,12.159729%,12.548828%);fill-opacity:1;" d="M 536.371094 424.667969 L 532.335938 424.667969 C 532.335938 430.46875 530.003906 435.675781 526.210938 439.476562 C 522.40625 443.277344 517.203125 445.605469 511.410156 445.613281 C 505.625 445.605469 500.414062 443.277344 496.617188 439.476562 C 492.820312 435.675781 490.492188 430.46875 490.492188 424.667969 C 490.492188 418.878906 492.820312 413.667969 496.617188 409.859375 C 500.421875 406.070312 505.625 403.730469 511.410156 403.730469 C 517.203125 403.730469 522.40625 406.070312 526.210938 409.867188 C 530.003906 413.667969 532.335938 418.878906 532.335938 424.667969 L 540.398438 424.667969 C 540.398438 408.648438 527.421875 395.664062 511.410156 395.65625 C 495.40625 395.664062 482.429688 408.648438 482.429688 424.667969 C 482.429688 440.703125 495.40625 453.679688 511.410156 453.679688 C 527.421875 453.679688 540.398438 440.703125 540.398438 424.667969 L 536.371094 424.667969 "/>
<path style=" stroke:none;fill-rule:nonzero;fill:rgb(36.859131%,13.328552%,12.548828%);fill-opacity:1;" d="M 289.132812 424.667969 C 289.132812 438.472656 277.964844 449.648438 264.183594 449.648438 C 250.398438 449.648438 239.230469 438.472656 239.230469 424.667969 C 239.230469 410.878906 250.398438 399.699219 264.183594 399.699219 C 277.964844 399.699219 289.132812 410.878906 289.132812 424.667969 "/>
<path style=" stroke:none;fill-rule:nonzero;fill:rgb(13.729858%,12.159729%,12.548828%);fill-opacity:1;" d="M 289.132812 424.667969 L 285.097656 424.667969 C 285.097656 430.46875 282.761719 435.675781 278.972656 439.476562 C 275.171875 443.277344 269.964844 445.605469 264.183594 445.613281 C 258.390625 445.605469 253.183594 443.277344 249.390625 439.476562 C 245.59375 435.675781 243.257812 430.46875 243.257812 424.667969 C 243.257812 418.878906 245.59375 413.667969 249.390625 409.867188 C 253.183594 406.070312 258.390625 403.730469 264.183594 403.730469 C 269.964844 403.730469 275.171875 406.070312 278.972656 409.859375 C 282.761719 413.667969 285.097656 418.878906 285.097656 424.667969 L 293.160156 424.667969 C 293.160156 408.648438 280.191406 395.664062 264.183594 395.65625 C 248.171875 395.664062 235.203125 408.648438 235.195312 424.667969 C 235.203125 440.703125 248.179688 453.679688 264.183594 453.679688 C 280.183594 453.679688 293.160156 440.703125 293.160156 424.667969 L 289.132812 424.667969 "/>
<path style=" stroke:none;fill-rule:nonzero;fill:rgb(13.729858%,12.159729%,12.548828%);fill-opacity:1;" d="M 500.941406 365.933594 L 500.660156 364.753906 L 500.933594 365.933594 L 500.941406 365.933594 L 500.660156 364.753906 L 500.933594 365.933594 C 501.019531 365.917969 505.714844 364.835938 512.6875 364.835938 C 518.074219 364.835938 524.816406 365.484375 531.855469 367.699219 C 538.898438 369.929688 546.230469 373.707031 552.976562 380.027344 C 554.59375 381.554688 557.144531 381.472656 558.671875 379.84375 C 560.195312 378.21875 560.113281 375.664062 558.488281 374.136719 C 550.773438 366.894531 542.289062 362.53125 534.28125 360.007812 C 526.261719 357.480469 518.710938 356.765625 512.6875 356.765625 C 504.640625 356.765625 499.292969 358.035156 499.070312 358.085938 C 496.90625 358.597656 495.574219 360.773438 496.085938 362.945312 C 496.601562 365.113281 498.78125 366.445312 500.941406 365.933594 "/>
<path style=" stroke:none;fill-rule:nonzero;fill:rgb(13.729858%,12.159729%,12.548828%);fill-opacity:1;" d="M 276.519531 358.085938 C 276.304688 358.035156 270.953125 356.765625 262.914062 356.765625 C 256.890625 356.765625 249.332031 357.480469 241.316406 360.007812 C 233.3125 362.53125 224.828125 366.894531 217.109375 374.136719 C 215.496094 375.664062 215.414062 378.21875 216.929688 379.84375 C 218.453125 381.472656 221.007812 381.554688 222.628906 380.027344 C 229.367188 373.707031 236.703125 369.929688 243.746094 367.699219 C 250.78125 365.484375 257.519531 364.835938 262.914062 364.835938 C 266.511719 364.835938 269.503906 365.121094 271.566406 365.402344 C 272.59375 365.542969 273.398438 365.683594 273.925781 365.785156 C 274.191406 365.832031 274.382812 365.875 274.507812 365.898438 L 274.640625 365.933594 L 274.664062 365.933594 L 274.9375 364.753906 L 274.65625 365.933594 L 274.664062 365.933594 L 274.9375 364.753906 L 274.65625 365.933594 C 276.820312 366.445312 279 365.113281 279.511719 362.945312 C 280.027344 360.773438 278.691406 358.597656 276.519531 358.085938 "/>
<path style=" stroke:none;fill-rule:nonzero;fill:rgb(98.039246%,72.549438%,51.759338%);fill-opacity:1;" d="M 609.902344 424.667969 C 609.902344 407.03125 624.179688 392.738281 641.796875 392.738281 C 659.417969 392.738281 673.703125 407.03125 673.703125 424.667969 C 673.703125 442.304688 659.417969 456.605469 641.796875 456.605469 C 624.179688 456.605469 609.902344 442.304688 609.902344 424.667969 "/>
<path style=" stroke:none;fill-rule:nonzero;fill:rgb(13.729858%,12.159729%,12.548828%);fill-opacity:1;" d="M 609.902344 424.667969 L 613.929688 424.667969 C 613.929688 416.953125 617.042969 410 622.089844 404.941406 C 627.148438 399.886719 634.089844 396.769531 641.796875 396.769531 C 649.503906 396.769531 656.449219 399.886719 661.511719 404.941406 C 666.558594 410 669.667969 416.953125 669.675781 424.667969 C 669.667969 432.382812 666.558594 439.335938 661.511719 444.394531 C 656.449219 449.457031 649.503906 452.566406 641.796875 452.566406 C 634.089844 452.566406 627.148438 449.457031 622.089844 444.394531 C 617.042969 439.335938 613.929688 432.382812 613.929688 424.667969 L 605.867188 424.667969 C 605.875 444.535156 621.949219 460.640625 641.796875 460.640625 C 661.644531 460.640625 677.730469 444.535156 677.738281 424.667969 C 677.730469 404.800781 661.644531 388.707031 641.796875 388.695312 C 621.949219 388.707031 605.875 404.800781 605.867188 424.667969 L 609.902344 424.667969 "/>
<path style=" stroke:none;fill-rule:nonzero;fill:rgb(98.039246%,72.549438%,51.759338%);fill-opacity:1;" d="M 101.894531 424.667969 C 101.894531 407.03125 116.183594 392.738281 133.800781 392.738281 C 151.417969 392.738281 165.699219 407.03125 165.699219 424.667969 C 165.699219 442.304688 151.417969 456.605469 133.800781 456.605469 C 116.183594 456.605469 101.894531 442.304688 101.894531 424.667969 "/>
<g clip-path="url(#clip1)" clip-rule="nonzero">
<path style=" stroke:none;fill-rule:nonzero;fill:rgb(13.729858%,12.159729%,12.548828%);fill-opacity:1;" d="M 101.894531 424.667969 L 105.933594 424.667969 C 105.933594 416.953125 109.039062 410 114.09375 404.941406 C 119.148438 399.886719 126.09375 396.769531 133.800781 396.769531 C 141.507812 396.769531 148.453125 399.886719 153.507812 404.941406 C 158.554688 410 161.664062 416.953125 161.671875 424.667969 C 161.664062 432.382812 158.554688 439.335938 153.507812 444.394531 C 148.453125 449.457031 141.507812 452.566406 133.800781 452.566406 C 126.09375 452.566406 119.148438 449.457031 114.09375 444.394531 C 109.039062 439.335938 105.933594 432.382812 105.933594 424.667969 L 97.867188 424.667969 C 97.867188 444.535156 113.953125 460.640625 133.800781 460.640625 C 153.648438 460.640625 169.726562 444.535156 169.734375 424.667969 C 169.726562 404.808594 153.648438 388.707031 133.800781 388.695312 C 113.953125 388.707031 97.867188 404.808594 97.867188 424.667969 L 101.894531 424.667969 "/>
</g>
<path style=" stroke:none;fill-rule:nonzero;fill:rgb(13.729858%,12.159729%,12.548828%);fill-opacity:1;" d="M 400.710938 462.515625 C 400.703125 466.089844 399.269531 469.300781 396.933594 471.648438 C 394.578125 473.996094 391.378906 475.429688 387.800781 475.429688 C 384.21875 475.429688 381.019531 473.996094 378.667969 471.648438 C 376.320312 469.300781 374.886719 466.089844 374.886719 462.515625 C 374.886719 460.28125 373.082031 458.472656 370.859375 458.472656 C 368.632812 458.472656 366.824219 460.28125 366.824219 462.515625 C 366.824219 474.101562 376.214844 483.503906 387.800781 483.503906 C 399.386719 483.503906 408.765625 474.101562 408.773438 462.515625 C 408.773438 460.28125 406.96875 458.472656 404.738281 458.472656 C 402.519531 458.472656 400.710938 460.28125 400.710938 462.515625 "/>
<path style=" stroke:none;fill-rule:nonzero;fill:rgb(31.759644%,67.83905%,89.7995%);fill-opacity:1;" d="M 536.046875 806.074219 C 536.046875 806.074219 536.046875 746.011719 536.046875 725.992188 C 536.046875 691.089844 426.011719 657.808594 426.011719 657.808594 L 389.175781 687.199219 L 352.339844 657.808594 C 352.339844 657.808594 242.296875 691.089844 242.296875 725.992188 L 242.296875 806.074219 L 536.046875 806.074219 "/>
<path style=" stroke:none;fill-rule:nonzero;fill:rgb(13.729858%,12.159729%,12.548828%);fill-opacity:1;" d="M 536.046875 806.074219 L 540.082031 806.074219 C 540.082031 806.074219 540.082031 746.011719 540.082031 725.992188 C 540.074219 720.535156 537.9375 715.398438 534.605469 710.703125 C 528.753906 702.480469 519.167969 695.148438 508.0625 688.402344 C 491.414062 678.332031 471.257812 669.769531 455.207031 663.664062 C 439.164062 657.574219 427.238281 653.96875 427.171875 653.949219 C 425.910156 653.570312 424.527344 653.835938 423.492188 654.65625 L 389.175781 682.039062 L 354.859375 654.65625 C 353.824219 653.835938 352.4375 653.570312 351.179688 653.949219 C 351.078125 653.984375 323.449219 662.328125 295.640625 675.148438 C 281.71875 681.566406 267.753906 689.082031 257.023438 697.429688 C 251.652344 701.609375 247.078125 706 243.738281 710.703125 C 240.414062 715.398438 238.277344 720.535156 238.269531 725.992188 L 238.269531 806.074219 C 238.269531 807.132812 238.699219 808.171875 239.445312 808.925781 C 240.199219 809.671875 241.234375 810.105469 242.296875 810.105469 L 536.046875 810.105469 C 537.109375 810.105469 538.152344 809.671875 538.898438 808.925781 C 539.652344 808.171875 540.082031 807.132812 540.082031 806.074219 L 536.046875 806.074219 L 536.046875 802.03125 L 246.332031 802.03125 L 246.332031 725.992188 C 246.324219 722.714844 247.625 719.179688 250.316406 715.375 C 254.992188 708.71875 263.832031 701.710938 274.457031 695.3125 C 290.386719 685.664062 310.214844 677.203125 326.003906 671.214844 C 333.902344 668.21875 340.796875 665.820312 345.703125 664.1875 C 348.15625 663.367188 350.117188 662.734375 351.460938 662.3125 C 352.132812 662.105469 352.644531 661.941406 352.996094 661.832031 C 353.34375 661.722656 353.507812 661.675781 353.507812 661.675781 L 352.339844 657.808594 L 349.828125 660.96875 L 386.65625 690.359375 C 388.121094 691.53125 390.21875 691.53125 391.6875 690.359375 L 428.523438 660.96875 L 426.011719 657.808594 L 424.84375 661.675781 C 424.84375 661.675781 424.933594 661.707031 425.140625 661.765625 C 428.265625 662.726562 455.578125 671.265625 481.890625 683.667969 C 495.035156 689.855469 507.929688 697.03125 517.292969 704.523438 C 521.984375 708.253906 525.761719 712.070312 528.28125 715.730469 C 530.800781 719.40625 532.019531 722.816406 532.019531 725.992188 C 532.019531 746.011719 532.019531 806.074219 532.019531 806.074219 L 536.046875 806.074219 L 536.046875 802.03125 L 536.046875 806.074219 "/>
<path style=" stroke:none;fill-rule:nonzero;fill:rgb(64.709473%,32.548523%,25.489807%);fill-opacity:1;" d="M 620.027344 301.257812 C 620.027344 301.257812 636.660156 489.558594 486.457031 489.558594 C 423.484375 489.558594 398.472656 489.558594 389.183594 489.558594 C 388.472656 489.558594 387.558594 489.558594 386.414062 489.558594 C 377.132812 489.558594 352.109375 489.558594 289.140625 489.558594 C 163.070312 489.558594 154.542969 356.921875 155.050781 314.300781 C 180.464844 315.027344 219.828125 319.0625 265.035156 333.976562 C 343.730469 359.933594 503.71875 342.414062 614.128906 273.757812 C 615.675781 282.535156 618.828125 294.429688 620.027344 301.257812 Z M 707.214844 180.785156 C 707.214844 180.785156 677.515625 191.617188 610.746094 161.3125 C 610.746094 161.3125 674.789062 141.828125 693.160156 111.53125 C 693.160156 111.53125 632.722656 128.453125 542.410156 73.519531 C 464.820312 26.324219 371.832031 0.0898438 264.125 57.492188 C 138.699219 124.332031 122.324219 237.917969 123.765625 296.835938 L 123.683594 296.820312 L 123.683594 347.351562 C 123.683594 493.382812 241.921875 611.757812 387.800781 611.757812 C 533.675781 611.757812 651.917969 493.382812 651.917969 347.351562 L 651.917969 296.820312 C 651.917969 285.71875 651.402344 262.277344 648.800781 249.042969 C 672.75 229.433594 692.871094 206.734375 707.214844 180.785156 "/>
<g clip-path="url(#clip2)" clip-rule="nonzero">
<path style=" stroke:none;fill-rule:nonzero;fill:rgb(13.729858%,12.159729%,12.548828%);fill-opacity:1;" d="M 620.027344 301.257812 L 616.015625 301.613281 L 616.035156 301.863281 C 616.132812 303.101562 616.546875 308.839844 616.546875 317.574219 C 616.5625 340.132812 613.730469 382.648438 596.011719 418.960938 C 587.152344 437.128906 574.65625 453.71875 557.023438 465.789062 C 539.371094 477.851562 516.523438 485.511719 486.457031 485.519531 C 423.484375 485.519531 398.464844 485.519531 389.183594 485.519531 C 388.472656 485.519531 387.558594 485.519531 386.414062 485.519531 C 377.132812 485.519531 352.109375 485.519531 289.140625 485.519531 C 259.078125 485.511719 236.230469 477.851562 218.578125 465.789062 C 205.351562 456.738281 195.019531 445.152344 186.9375 432.25 C 174.824219 412.914062 167.8125 390.613281 163.875 369.949219 C 159.929688 349.28125 159.058594 330.285156 159.058594 317.601562 C 159.058594 316.464844 159.070312 315.378906 159.085938 314.355469 L 155.050781 314.300781 L 154.933594 318.332031 C 180.042969 319.050781 219.027344 323.042969 263.765625 337.808594 C 287.269531 345.550781 317.417969 349.433594 351.1875 349.441406 C 392.300781 349.441406 438.765625 343.648438 484.867188 331.738281 C 530.957031 319.824219 576.679688 301.789062 616.25 277.183594 L 614.128906 273.757812 L 610.160156 274.453125 C 610.960938 279 612.148438 284.210938 613.273438 289.144531 C 614.410156 294.066406 615.496094 298.726562 616.058594 301.964844 L 620.027344 301.257812 L 616.015625 301.613281 L 620.027344 301.257812 L 623.996094 300.5625 C 623.359375 296.960938 622.265625 292.257812 621.136719 287.335938 C 620.003906 282.417969 618.84375 277.292969 618.097656 273.050781 C 617.863281 271.742188 616.988281 270.613281 615.769531 270.074219 C 614.550781 269.527344 613.132812 269.625 611.996094 270.332031 C 573.296875 294.398438 528.289062 312.183594 482.851562 323.921875 C 437.414062 335.667969 391.546875 341.367188 351.1875 341.367188 C 318.046875 341.378906 288.605469 337.511719 266.296875 330.144531 C 220.632812 315.078125 180.886719 311.003906 155.164062 310.265625 C 154.089844 310.234375 153.042969 310.640625 152.265625 311.386719 C 151.484375 312.132812 151.039062 313.164062 151.023438 314.242188 C 151.003906 315.3125 150.996094 316.429688 150.996094 317.601562 C 151.023438 340.8125 153.757812 384.273438 172.34375 422.511719 C 181.652344 441.609375 194.992188 459.429688 214.027344 472.460938 C 233.0625 485.484375 257.71875 493.605469 289.140625 493.589844 C 352.109375 493.589844 377.132812 493.589844 386.414062 493.589844 C 387.558594 493.589844 388.472656 493.589844 389.183594 493.589844 C 398.472656 493.589844 423.484375 493.589844 486.457031 493.589844 C 517.882812 493.605469 542.535156 485.484375 561.5625 472.453125 C 575.839844 462.6875 586.929688 450.210938 595.488281 436.53125 C 608.34375 416.007812 615.578125 392.777344 619.648438 371.441406 C 623.714844 350.105469 624.601562 330.632812 624.601562 317.574219 C 624.601562 307.304688 624.054688 301 624.046875 300.902344 L 623.996094 300.5625 Z M 707.214844 180.785156 L 705.832031 176.992188 L 706.703125 179.367188 L 705.855469 176.984375 L 705.832031 176.992188 L 706.703125 179.367188 L 705.855469 176.984375 L 705.824219 177 C 705.359375 177.152344 700.636719 178.636719 691.199219 178.636719 C 676.660156 178.636719 650.914062 175.109375 612.414062 157.640625 L 610.746094 161.3125 L 611.921875 165.171875 C 612.039062 165.136719 628.191406 160.226562 646.785156 151.433594 C 656.085938 147.027344 666.003906 141.660156 674.863281 135.382812 C 683.722656 129.09375 691.5625 121.917969 696.609375 113.621094 C 697.472656 112.210938 697.371094 110.410156 696.375 109.089844 C 695.375 107.765625 693.667969 107.191406 692.074219 107.640625 L 692.199219 108.070312 L 692.085938 107.640625 L 692.074219 107.640625 L 692.199219 108.070312 L 692.085938 107.640625 C 691.84375 107.707031 683.472656 109.953125 668.5 109.953125 C 643.40625 109.945312 599.765625 103.675781 544.5 70.066406 C 497.917969 41.738281 445.527344 20.707031 387.542969 20.707031 C 348.179688 20.699219 306.3125 30.429688 262.226562 53.933594 C 201.085938 86.492188 165.292969 130.269531 144.964844 173.5 C 124.628906 216.738281 119.65625 259.371094 119.65625 290.050781 C 119.65625 292.414062 119.679688 294.710938 119.738281 296.9375 L 123.765625 296.835938 L 124.328125 292.835938 L 124.238281 292.820312 C 123.078125 292.664062 121.917969 293.011719 121.03125 293.773438 C 120.152344 294.546875 119.648438 295.648438 119.648438 296.820312 L 119.648438 347.351562 C 119.648438 495.613281 239.695312 615.789062 387.800781 615.789062 C 535.90625 615.789062 655.945312 495.613281 655.953125 347.351562 L 655.953125 296.820312 C 655.953125 291.210938 655.820312 282.527344 655.355469 273.523438 C 654.898438 264.523438 654.121094 255.257812 652.761719 248.261719 L 648.800781 249.042969 L 651.351562 252.164062 C 675.617188 232.292969 696.101562 209.214844 710.746094 182.742188 C 711.558594 181.265625 711.367188 179.441406 710.28125 178.164062 C 709.1875 176.886719 707.414062 176.421875 705.832031 176.992188 L 707.214844 180.785156 L 703.6875 178.835938 C 689.640625 204.253906 669.875 226.578125 646.25 245.914062 C 645.097656 246.863281 644.558594 248.355469 644.847656 249.816406 C 646.074219 256.0625 646.863281 265.136719 647.308594 273.941406 C 647.757812 282.75 647.890625 291.335938 647.890625 296.820312 L 647.890625 347.351562 C 647.890625 419.265625 618.785156 484.332031 571.714844 531.460938 C 524.636719 578.582031 459.640625 607.71875 387.800781 607.71875 C 315.96875 607.71875 250.964844 578.582031 203.886719 531.460938 C 156.816406 484.332031 127.710938 419.265625 127.710938 347.351562 L 127.710938 296.820312 L 123.683594 296.820312 L 123.128906 300.816406 L 123.210938 300.828125 C 124.378906 300.992188 125.574219 300.628906 126.449219 299.839844 C 127.335938 299.058594 127.828125 297.914062 127.800781 296.726562 C 127.742188 294.578125 127.71875 292.355469 127.71875 290.050781 C 127.710938 260.234375 132.574219 218.761719 152.257812 176.945312 C 171.964844 135.105469 206.386719 92.847656 266.011719 61.058594 C 309.054688 38.121094 349.503906 28.777344 387.542969 28.777344 C 443.539062 28.769531 494.480469 49.085938 540.316406 76.96875 C 596.808594 111.339844 642.0625 118.035156 668.5 118.027344 C 684.792969 118.027344 693.949219 115.496094 694.246094 115.414062 L 693.160156 111.53125 L 689.714844 109.429688 C 685.578125 116.292969 678.527344 122.914062 670.207031 128.792969 C 657.734375 137.644531 642.503906 144.871094 630.445312 149.816406 C 624.421875 152.296875 619.183594 154.210938 615.460938 155.507812 C 613.597656 156.144531 612.113281 156.644531 611.101562 156.96875 C 610.597656 157.132812 610.207031 157.257812 609.949219 157.339844 L 609.660156 157.421875 L 609.578125 157.457031 C 607.96875 157.9375 606.835938 159.371094 606.726562 161.046875 C 606.621094 162.722656 607.554688 164.292969 609.082031 164.988281 C 648.4375 182.859375 675.351562 186.707031 691.199219 186.707031 C 702.515625 186.707031 708.167969 184.734375 708.59375 184.574219 L 707.214844 180.785156 L 703.6875 178.835938 L 707.214844 180.785156 "/>
</g>
<path style=" stroke:none;fill-rule:nonzero;fill:rgb(71.369934%,7.839966%,10.198975%);fill-opacity:1;" d="M 316.464844 502.210938 C 316.457031 502.402344 316.433594 502.589844 316.433594 502.789062 C 316.433594 542.253906 348.386719 574.234375 387.800781 574.234375 C 427.214844 574.234375 459.167969 542.253906 459.167969 502.789062 C 459.167969 502.589844 459.144531 502.402344 459.144531 502.210938 L 316.464844 502.210938 "/>
<path style=" stroke:none;fill-rule:nonzero;fill:rgb(13.729858%,12.159729%,12.548828%);fill-opacity:1;" d="M 316.464844 502.210938 L 312.4375 502.035156 L 312.4375 502.0625 C 312.429688 502.144531 312.394531 502.382812 312.394531 502.789062 C 312.394531 544.484375 346.15625 578.265625 387.800781 578.273438 C 429.441406 578.265625 463.195312 544.484375 463.195312 502.789062 C 463.195312 502.535156 463.179688 502.351562 463.179688 502.257812 L 463.171875 502.175781 L 462.457031 502.210938 L 463.171875 502.210938 L 463.171875 502.175781 L 462.457031 502.210938 L 463.171875 502.210938 C 463.171875 501.148438 462.738281 500.101562 461.992188 499.355469 C 461.238281 498.601562 460.203125 498.167969 459.144531 498.167969 L 316.464844 498.167969 C 314.292969 498.167969 312.527344 499.871094 312.4375 502.035156 L 316.464844 502.210938 L 316.464844 506.242188 L 459.144531 506.242188 L 459.144531 502.210938 L 455.117188 502.210938 C 455.117188 502.46875 455.125 502.640625 455.132812 502.742188 L 455.132812 502.824219 L 455.894531 502.789062 L 455.132812 502.789062 L 455.132812 502.824219 L 455.894531 502.789062 L 455.132812 502.789062 C 455.132812 521.421875 447.609375 538.246094 435.417969 550.457031 C 423.21875 562.664062 406.414062 570.203125 387.800781 570.203125 C 369.195312 570.203125 352.382812 562.664062 340.183594 550.457031 C 327.992188 538.246094 320.460938 521.421875 320.460938 502.789062 L 319.273438 502.789062 L 320.460938 502.847656 L 320.460938 502.789062 L 319.273438 502.789062 L 320.460938 502.847656 C 320.460938 502.847656 320.476562 502.699219 320.492188 502.375 L 316.464844 502.210938 L 316.464844 506.242188 L 316.464844 502.210938 "/>
<path style=" stroke:none;fill-rule:nonzero;fill:rgb(96.469116%,50.588989%,59.999084%);fill-opacity:1;" d="M 428.96875 561.085938 C 417.335938 552.832031 403.148438 547.9375 387.800781 547.9375 C 372.453125 547.9375 358.265625 552.832031 346.628906 561.085938 C 358.265625 569.339844 372.453125 574.234375 387.800781 574.234375 C 403.148438 574.234375 417.335938 569.339844 428.96875 561.085938 "/>
<path style=" stroke:none;fill-rule:nonzero;fill:rgb(13.729858%,12.159729%,12.548828%);fill-opacity:1;" d="M 428.96875 561.085938 L 431.296875 557.792969 C 419.015625 549.082031 404.007812 543.898438 387.800781 543.90625 C 371.589844 543.898438 356.574219 549.082031 344.300781 557.800781 C 343.230469 558.554688 342.601562 559.785156 342.601562 561.085938 C 342.601562 562.398438 343.230469 563.625 344.300781 564.378906 C 356.574219 573.089844 371.589844 578.273438 387.800781 578.273438 C 404.007812 578.273438 419.015625 573.089844 431.296875 564.378906 C 432.367188 563.625 433.003906 562.398438 433.003906 561.085938 C 433.003906 559.785156 432.367188 558.554688 431.296875 557.792969 L 428.96875 561.085938 L 426.640625 557.792969 C 415.644531 565.589844 402.285156 570.203125 387.800781 570.203125 C 373.304688 570.203125 359.945312 565.589844 348.964844 557.800781 L 346.628906 561.085938 L 348.964844 564.378906 C 359.945312 556.582031 373.304688 551.976562 387.800781 551.976562 C 402.285156 551.976562 415.644531 556.582031 426.640625 564.378906 L 428.96875 561.085938 L 426.640625 557.792969 L 428.96875 561.085938 "/>
<path style=" stroke:none;fill-rule:nonzero;fill:rgb(100%,100%,100%);fill-opacity:1;" d="M 455.496094 525.324219 C 457.84375 518.238281 459.167969 510.671875 459.167969 502.789062 C 459.167969 502.589844 459.144531 502.402344 459.144531 502.210938 L 316.464844 502.210938 C 316.457031 502.402344 316.433594 502.589844 316.433594 502.789062 C 316.433594 510.671875 317.75 518.238281 320.109375 525.324219 L 455.496094 525.324219 "/>
<path style=" stroke:none;fill-rule:nonzero;fill:rgb(13.729858%,12.159729%,12.548828%);fill-opacity:1;" d="M 455.496094 525.324219 L 459.316406 526.589844 C 461.796875 519.125 463.195312 511.128906 463.195312 502.789062 C 463.195312 502.535156 463.179688 502.351562 463.179688 502.257812 L 463.171875 502.175781 L 462.457031 502.210938 L 463.171875 502.210938 L 463.171875 502.175781 L 462.457031 502.210938 L 463.171875 502.210938 C 463.171875 501.148438 462.738281 500.101562 461.992188 499.355469 C 461.238281 498.601562 460.203125 498.167969 459.144531 498.167969 L 316.464844 498.167969 C 314.292969 498.167969 312.527344 499.871094 312.4375 502.035156 L 312.4375 502.0625 C 312.429688 502.144531 312.394531 502.382812 312.394531 502.789062 C 312.394531 511.128906 313.796875 519.125 316.28125 526.601562 C 316.835938 528.25 318.371094 529.363281 320.109375 529.363281 L 455.496094 529.363281 C 457.238281 529.363281 458.769531 528.25 459.316406 526.589844 L 455.496094 525.324219 L 455.496094 521.289062 L 320.109375 521.289062 L 320.109375 525.324219 L 323.929688 524.042969 C 321.703125 517.351562 320.460938 510.222656 320.460938 502.789062 L 319.273438 502.789062 L 320.460938 502.847656 L 320.460938 502.789062 L 319.273438 502.789062 L 320.460938 502.847656 C 320.460938 502.847656 320.476562 502.699219 320.492188 502.375 L 316.464844 502.210938 L 316.464844 506.242188 L 459.144531 506.242188 L 459.144531 502.210938 L 455.117188 502.210938 C 455.117188 502.46875 455.125 502.640625 455.132812 502.742188 L 455.132812 502.824219 L 455.894531 502.789062 L 455.132812 502.789062 L 455.132812 502.824219 L 455.894531 502.789062 L 455.132812 502.789062 C 455.132812 510.222656 453.890625 517.351562 451.667969 524.054688 L 455.496094 525.324219 L 455.496094 521.289062 L 455.496094 525.324219 "/>
<path style=" stroke:none;fill-rule:nonzero;fill:rgb(13.729858%,12.159729%,12.548828%);fill-opacity:1;" d="M 319.488281 451.496094 L 315.453125 451.496094 C 315.453125 452.992188 314.867188 454.300781 313.886719 455.289062 C 312.910156 456.257812 311.601562 456.847656 310.117188 456.847656 L 221.023438 456.847656 C 219.53125 456.847656 218.222656 456.257812 217.242188 455.289062 C 216.265625 454.300781 215.675781 452.992188 215.675781 451.496094 L 215.675781 397.839844 C 215.675781 396.355469 216.265625 395.042969 217.242188 394.054688 C 218.222656 393.085938 219.53125 392.496094 221.023438 392.488281 L 310.117188 392.488281 C 311.601562 392.496094 312.910156 393.085938 313.886719 394.054688 C 314.867188 395.042969 315.453125 396.355469 315.453125 397.839844 L 315.453125 451.496094 L 323.515625 451.496094 L 323.515625 397.839844 C 323.515625 390.429688 317.515625 384.425781 310.117188 384.425781 L 221.023438 384.425781 C 213.613281 384.425781 207.613281 390.429688 207.613281 397.839844 L 207.613281 451.496094 C 207.613281 458.914062 213.613281 464.917969 221.023438 464.917969 L 310.117188 464.917969 C 317.515625 464.917969 323.515625 458.914062 323.515625 451.496094 L 319.488281 451.496094 "/>
<path style=" stroke:none;fill-rule:nonzero;fill:rgb(13.729858%,12.159729%,12.548828%);fill-opacity:1;" d="M 566.71875 451.496094 L 562.691406 451.496094 C 562.691406 452.992188 562.09375 454.300781 561.125 455.289062 C 560.144531 456.257812 558.828125 456.847656 557.335938 456.847656 L 468.25 456.847656 C 466.765625 456.847656 465.457031 456.257812 464.472656 455.289062 C 463.503906 454.300781 462.90625 452.992188 462.90625 451.496094 L 462.90625 397.839844 C 462.90625 396.355469 463.503906 395.042969 464.472656 394.054688 C 465.457031 393.085938 466.765625 392.496094 468.25 392.488281 L 557.335938 392.488281 C 558.828125 392.496094 560.144531 393.085938 561.125 394.0625 C 562.09375 395.042969 562.691406 396.355469 562.691406 397.839844 L 562.691406 451.496094 L 570.753906 451.496094 L 570.753906 397.839844 C 570.746094 390.429688 564.746094 384.425781 557.335938 384.425781 L 468.25 384.425781 C 460.851562 384.425781 454.851562 390.429688 454.84375 397.839844 L 454.84375 451.496094 C 454.851562 458.914062 460.851562 464.917969 468.25 464.917969 L 557.335938 464.917969 C 564.746094 464.917969 570.746094 458.914062 570.753906 451.496094 L 566.71875 451.496094 "/>
<path style=" stroke:none;fill-rule:nonzero;fill:rgb(13.729858%,12.159729%,12.548828%);fill-opacity:1;" d="M 318.734375 431.007812 L 460.558594 431.007812 C 462.78125 431.007812 464.585938 429.199219 464.585938 426.972656 C 464.585938 424.742188 462.78125 422.933594 460.558594 422.933594 L 318.734375 422.933594 C 316.507812 422.933594 314.699219 424.742188 314.699219 426.972656 C 314.699219 429.199219 316.507812 431.007812 318.734375 431.007812 "/>
<path style=" stroke:none;fill-rule:nonzero;fill:rgb(13.729858%,12.159729%,12.548828%);fill-opacity:1;" d="M 567.652344 414.636719 L 650.648438 394.851562 C 652.8125 394.328125 654.152344 392.15625 653.632812 389.992188 C 653.117188 387.816406 650.945312 386.480469 648.785156 386.996094 L 565.789062 406.78125 C 563.617188 407.304688 562.285156 409.476562 562.796875 411.644531 C 563.3125 413.816406 565.484375 415.152344 567.652344 414.636719 "/>
<path style=" stroke:none;fill-rule:nonzero;fill:rgb(13.729858%,12.159729%,12.548828%);fill-opacity:1;" d="M 212.578125 406.78125 L 129.582031 386.996094 C 127.421875 386.480469 125.242188 387.816406 124.726562 389.992188 C 124.214844 392.15625 125.546875 394.328125 127.710938 394.851562 L 210.714844 414.636719 C 212.875 415.152344 215.046875 413.816406 215.5625 411.644531 C 216.082031 409.476562 214.742188 407.304688 212.578125 406.78125 "/>
</g>
</svg>
