<?xml version="1.0" encoding="UTF-8"?>
<svg xmlns="http://www.w3.org/2000/svg" xmlns:xlink="http://www.w3.org/1999/xlink" width="810pt" height="809.999993pt" viewBox="0 0 810 809.999993" version="1.2">
<defs>
<clipPath id="clip1">
  <path d="M 661 661 L 688.5 661 L 688.5 810 L 661 810 Z M 661 661 "/>
</clipPath>
<clipPath id="clip2">
  <path d="M 121.5 0 L 688.5 0 L 688.5 810 L 121.5 810 Z M 121.5 0 "/>
</clipPath>
</defs>
<g id="surface1">
<path style=" stroke:none;fill-rule:nonzero;fill:rgb(98.039246%,75.289917%,58.428955%);fill-opacity:1;" d="M 675 603.25 L 675 810 L 135 810 L 135 603.25 C 135 566.070312 160.292969 533.671875 196.355469 524.660156 L 283.5 499.5 L 324 459 L 324 405 L 486 405 L 486 459 L 526.5 499.5 L 613.644531 524.660156 C 649.707031 533.671875 675 566.070312 675 603.25 "/>
<path style=" stroke:none;fill-rule:nonzero;fill:rgb(98.039246%,70.979309%,50.588989%);fill-opacity:1;" d="M 486 405 L 486 447.914062 C 476.113281 463.1875 459.085938 472.5 440.726562 472.5 L 369.273438 472.5 C 350.914062 472.5 333.886719 463.1875 324 447.914062 L 324 405 L 486 405 "/>
<path style=" stroke:none;fill-rule:nonzero;fill:rgb(88.238525%,88.238525%,86.669922%);fill-opacity:1;" d="M 613.644531 524.660156 L 526.5 499.5 L 486 459 L 432 540 L 405 661.5 L 378 540 L 324 459 L 283.5 499.5 L 196.355469 524.660156 C 160.292969 533.679688 135 566.078125 135 603.242188 L 135 810 L 675 810 L 675 603.242188 C 675 566.078125 649.707031 533.679688 613.644531 524.660156 "/>
<path style=" stroke:none;fill-rule:nonzero;fill:rgb(92.549133%,92.549133%,91.369629%);fill-opacity:1;" d="M 378 540 L 324 580.5 L 324 459 Z M 378 540 "/>
<path style=" stroke:none;fill-rule:nonzero;fill:rgb(92.549133%,92.549133%,91.369629%);fill-opacity:1;" d="M 432 540 L 486 580.5 L 486 459 Z M 432 540 "/>
<path style=" stroke:none;fill-rule:nonzero;fill:rgb(18.429565%,26.269531%,43.139648%);fill-opacity:1;" d="M 324 459 L 324 810 L 135 810 L 135 603.25 C 135 591.199219 137.667969 579.65625 142.496094 569.242188 C 146.523438 560.5 152.078125 552.570312 158.875 545.808594 C 168.96875 535.761719 181.796875 528.304688 196.355469 524.660156 L 283.5 499.5 L 324 459 "/>
<path style=" stroke:none;fill-rule:nonzero;fill:rgb(18.429565%,26.269531%,43.139648%);fill-opacity:1;" d="M 675 603.25 L 675 810 L 486 810 L 486 459 L 526.5 499.5 L 613.644531 524.660156 C 628.074219 528.273438 640.796875 535.628906 650.855469 545.550781 C 657.671875 552.265625 663.273438 560.164062 667.351562 568.871094 C 672.285156 579.367188 675 591.046875 675 603.25 "/>
<path style=" stroke:none;fill-rule:nonzero;fill:rgb(25.099182%,34.509277%,54.899597%);fill-opacity:1;" d="M 283.5 499.5 L 243 553.5 L 297 594 L 270 634.5 L 324 769.5 L 324 459 L 283.5 499.5 "/>
<path style=" stroke:none;fill-rule:nonzero;fill:rgb(25.099182%,34.509277%,54.899597%);fill-opacity:1;" d="M 526.5 499.5 L 567 553.5 L 513 594 L 540 634.5 L 486 769.5 L 486 459 L 526.5 499.5 "/>
<path style=" stroke:none;fill-rule:nonzero;fill:rgb(18.429565%,26.269531%,43.139648%);fill-opacity:1;" d="M 243 189 L 243 283.5 C 243 298.410156 230.910156 310.5 216 310.5 L 232.203125 332.101562 C 247.496094 352.496094 271.503906 364.5 297 364.5 L 513 364.5 C 538.496094 364.5 562.503906 352.496094 577.796875 332.101562 L 594 310.5 C 579.089844 310.5 567 298.410156 567 283.5 L 567 189 L 243 189 "/>
<path style=" stroke:none;fill-rule:nonzero;fill:rgb(98.039246%,75.289917%,58.428955%);fill-opacity:1;" d="M 440.726562 445.5 L 369.273438 445.5 C 349.660156 445.5 331.59375 434.867188 322.070312 417.722656 L 280.191406 342.34375 C 273.507812 330.316406 270 316.777344 270 303.011719 L 270 175.5 C 270 100.941406 330.441406 40.5 405 40.5 C 479.558594 40.5 540 100.941406 540 175.5 L 540 303.011719 C 540 316.777344 536.492188 330.316406 529.808594 342.34375 L 487.929688 417.722656 C 478.40625 434.867188 460.339844 445.5 440.726562 445.5 "/>
<path style=" stroke:none;fill-rule:nonzero;fill:rgb(54.899597%,29.019165%,19.999695%);fill-opacity:1;" d="M 334.125 256.5 C 321.097656 256.5 310.5 245.902344 310.5 232.875 C 310.5 219.851562 321.097656 209.25 334.125 209.25 C 347.148438 209.25 357.75 219.851562 357.75 232.875 C 357.75 245.902344 347.148438 256.5 334.125 256.5 "/>
<path style=" stroke:none;fill-rule:nonzero;fill:rgb(54.899597%,29.019165%,19.999695%);fill-opacity:1;" d="M 475.875 256.5 C 462.847656 256.5 452.25 245.902344 452.25 232.875 C 452.25 219.851562 462.847656 209.25 475.875 209.25 C 488.898438 209.25 499.5 219.851562 499.5 232.875 C 499.5 245.902344 488.898438 256.5 475.875 256.5 "/>
<path style=" stroke:none;fill-rule:nonzero;fill:rgb(97.24884%,64.309692%,39.608765%);fill-opacity:1;" d="M 263.25 283.5 L 270 283.5 L 270 189 L 263.25 189 C 237.152344 189 216 210.152344 216 236.25 C 216 262.347656 237.152344 283.5 263.25 283.5 "/>
<path style=" stroke:none;fill-rule:nonzero;fill:rgb(97.24884%,64.309692%,39.608765%);fill-opacity:1;" d="M 546.75 189 L 540 189 L 540 283.5 L 546.75 283.5 C 572.847656 283.5 594 262.347656 594 236.25 C 594 210.152344 572.847656 189 546.75 189 "/>
<path style=" stroke:none;fill-rule:nonzero;fill:rgb(18.429565%,26.269531%,43.139648%);fill-opacity:1;" d="M 567 121.5 L 567 189 L 540 189 L 508.5625 115.625 L 499.5 94.5 L 499.5 54 C 536.234375 54 566.125 83.347656 566.980469 119.878906 C 567 120.417969 567 120.960938 567 121.5 "/>
<path style=" stroke:none;fill-rule:nonzero;fill:rgb(18.429565%,26.269531%,43.139648%);fill-opacity:1;" d="M 310.5 54 L 310.5 94.5 L 301.316406 115.917969 L 270 189 L 243 189 L 243 121.5 C 243 120.6875 243.019531 119.878906 243.050781 119.085938 C 244.316406 82.925781 274.035156 54 310.5 54 "/>
<path style=" stroke:none;fill-rule:nonzero;fill:rgb(20.388794%,29.019165%,49.01886%);fill-opacity:1;" d="M 492.75 115.59375 C 479.46875 133.3125 437.429688 137.480469 437.429688 137.480469 C 451.234375 134.023438 461.3125 123.070312 464.195312 109.925781 C 464.886719 106.753906 465.175781 103.445312 464.972656 100.082031 C 464.972656 99.867188 464.957031 99.660156 464.9375 99.445312 L 452.300781 101.25 L 439.539062 103.070312 L 405 108 L 393.1875 106.3125 L 378 104.152344 L 348.835938 99.984375 L 322.074219 96.15625 L 310.5 94.5 L 310.5 54 C 317.097656 34.238281 333.414062 19.730469 353.078125 15.089844 C 357.480469 14.039062 362.035156 13.5 366.695312 13.5 L 443.304688 13.5 C 444.101562 13.5 444.894531 13.519531 445.683594 13.554688 C 470.207031 14.527344 491.6875 30.578125 499.5 54 C 499.5 54 509.625 93.101562 492.75 115.59375 "/>
<path style=" stroke:none;fill-rule:nonzero;fill:rgb(16.079712%,22.749329%,37.249756%);fill-opacity:1;" d="M 465.003906 100.082031 L 464.972656 100.082031 C 464.972656 99.867188 464.957031 99.660156 464.9375 99.445312 C 464.957031 99.648438 464.992188 99.867188 465.003906 100.082031 "/>
<g clip-path="url(#clip1)" clip-rule="nonzero">
<path style=" stroke:none;fill-rule:nonzero;fill:rgb(6.269836%,5.879211%,5.099487%);fill-opacity:1;" d="M 661.5 810 L 688.5 810 L 688.5 661.5 L 661.5 661.5 L 661.5 810 "/>
</g>
<g clip-path="url(#clip2)" clip-rule="nonzero">
<path style=" stroke:none;fill-rule:nonzero;fill:rgb(6.269836%,5.879211%,5.099487%);fill-opacity:1;" d="M 504.898438 583.203125 C 501.425781 585.804688 499.546875 589.789062 499.5 593.847656 L 499.5 491.589844 L 548.101562 550.796875 Z M 499.5 699.402344 L 499.5 594.171875 C 499.53125 596.695312 500.265625 599.242188 501.765625 601.488281 L 524.824219 636.082031 Z M 450.320312 536.863281 L 472.5 503.585938 L 472.5 553.5 Z M 337.5 553.5 L 337.5 503.585938 L 359.679688 536.863281 Z M 308.230469 601.488281 C 309.734375 599.242188 310.46875 596.695312 310.5 594.171875 L 310.5 699.402344 L 285.175781 636.082031 Z M 261.898438 550.796875 L 310.5 491.589844 L 310.5 593.847656 C 310.453125 589.789062 308.574219 585.804688 305.101562 583.203125 Z M 291.996094 335.785156 C 286.441406 325.785156 283.5 314.449219 283.5 303.003906 L 283.5 191.769531 L 318.832031 109.324219 L 403.089844 121.367188 C 405.578125 121.71875 433.917969 117.570312 433.910156 117.503906 C 433.910156 117.503906 430.089844 90.78125 430.089844 90.78125 L 405.367188 94.308594 C 407.292969 83.605469 416.601562 75.457031 427.761719 75.457031 C 454.253906 75.457031 460.59375 117.769531 434.15625 124.386719 C 419.296875 128.097656 421.886719 150.984375 437.410156 150.984375 C 437.859375 150.984375 476.433594 150.746094 499.347656 128.402344 L 526.5 191.769531 L 526.5 303.003906 C 526.5 314.449219 523.558594 325.785156 518.007812 335.785156 L 476.117188 411.167969 C 468.988281 424.015625 455.425781 432 440.726562 432 L 369.273438 432 C 354.574219 432 341.011719 424.015625 333.875 411.164062 Z M 243 324 L 238.082031 317.441406 C 245.65625 312.492188 251.476562 305.082031 254.402344 296.347656 C 255.101562 296.453125 255.800781 296.539062 256.5 296.617188 L 256.5 303.003906 C 256.5 316.882812 259.589844 330.644531 265.476562 343.1875 C 256.777344 338.59375 249.078125 332.09375 243 324 Z M 256.5 203.179688 L 256.5 269.320312 C 241.113281 266.183594 229.5 252.546875 229.5 236.25 C 229.5 219.957031 241.113281 206.316406 256.5 203.179688 Z M 256.5 142.648438 L 281.648438 127.558594 L 261.074219 175.554688 C 259.53125 175.613281 258.007812 175.71875 256.5 175.882812 Z M 363.320312 27.144531 C 357.089844 33.875 352.46875 41.125 349.046875 47.960938 C 342.054688 61.949219 339.300781 75.890625 338.210938 84.824219 C 338.210938 84.824219 324.019531 82.792969 324 82.792969 C 323.53125 82.726562 323.644531 66.5 323.730469 64.769531 C 324.066406 58 325.382812 51.535156 329.265625 45.867188 C 336.714844 34.988281 350.378906 28.171875 363.320312 27.144531 Z M 443.3125 27 C 462.871094 27 480.1875 39.367188 486.539062 57.828125 C 488.761719 66.816406 492.367188 93.605469 481.953125 107.492188 C 480.917969 108.871094 479.46875 110.183594 477.6875 111.421875 C 480.671875 95.515625 477.820312 77.632812 466.882812 65.234375 C 457.101562 54.136719 442.386719 48.457031 427.761719 48.457031 C 402.976562 48.457031 382.363281 66.75 378.613281 90.589844 L 364.949219 88.640625 C 365.71875 81.929688 367.828125 70.464844 373.578125 59.300781 C 384.605469 37.863281 404.261719 27 432 27 Z M 552.367188 110.480469 L 515.714844 88.488281 C 516.269531 81.875 516.132812 75.542969 515.675781 69.980469 C 534.144531 75.785156 548.363281 91.277344 552.367188 110.480469 Z M 548.925781 175.554688 L 528.367188 127.566406 L 553.5 142.648438 L 553.5 175.882812 C 551.992188 175.71875 550.46875 175.613281 548.925781 175.554688 Z M 565.363281 312.160156 C 567.382812 314.171875 569.570312 315.945312 571.902344 317.460938 L 567.007812 323.992188 C 560.921875 332.089844 553.230469 338.585938 544.523438 343.1875 C 550.410156 330.652344 553.5 316.882812 553.5 303.003906 L 553.5 296.617188 C 554.199219 296.539062 554.890625 296.453125 555.582031 296.347656 C 557.539062 302.234375 560.851562 307.632812 565.363281 312.160156 Z M 553.5 269.320312 L 553.5 203.179688 C 568.886719 206.316406 580.5 219.957031 580.5 236.25 C 580.5 252.546875 568.886719 266.183594 553.5 269.320312 Z M 418.824219 537.074219 L 405 599.265625 C 405 599.265625 391.222656 537.265625 391.214844 537.25 L 391.175781 537.074219 C 391.175781 537.074219 390.1875 533.941406 389.230469 532.511719 L 337.5 454.914062 L 337.5 451.011719 C 347.117188 456.144531 357.988281 459 369.273438 459 L 440.726562 459 C 452.011719 459 462.882812 456.144531 472.5 451.011719 L 472.5 454.914062 L 420.765625 532.511719 C 419.8125 533.941406 418.824219 537.074219 418.824219 537.074219 Z M 617.164062 511.628906 L 533.585938 487.496094 L 499.5 453.410156 L 499.5 424.65625 C 499.574219 424.523438 499.652344 424.414062 499.722656 424.28125 L 525.960938 377.070312 C 550.832031 373.648438 573.355469 360.503906 588.601562 340.203125 L 604.796875 318.601562 C 607.867188 314.507812 608.363281 309.035156 606.074219 304.460938 C 603.789062 299.886719 599.113281 297 594 297 C 590.386719 297 586.992188 295.597656 584.460938 293.070312 C 582.628906 291.238281 581.402344 288.964844 580.84375 286.5 C 596.921875 275.5625 607.5 257.121094 607.5 236.25 C 607.5 215.234375 596.769531 196.679688 580.5 185.761719 L 580.5 121.5 C 580.5 79.972656 549.082031 45.660156 508.769531 41.046875 C 496.75 16.164062 471.503906 0 443.3125 0 L 366.6875 0 C 339.742188 0 314.882812 15.867188 302.457031 38.226562 C 293.066406 55.121094 296.757812 85.820312 296.800781 86.972656 L 257.660156 110.457031 C 261.1875 93.558594 272.667969 79.082031 288.90625 71.988281 L 278.09375 47.242188 C 248.578125 60.148438 229.5 89.292969 229.5 121.5 L 229.5 185.761719 C 213.230469 196.679688 202.5 215.234375 202.5 236.25 C 202.5 257.121094 213.078125 275.558594 229.152344 286.5 C 227.78125 292.503906 222.414062 297 216 297 C 210.882812 297 206.210938 299.886719 203.921875 304.460938 C 201.636719 309.035156 202.128906 314.507812 205.203125 318.601562 L 221.40625 340.203125 C 236.644531 360.503906 259.167969 373.648438 284.039062 377.070312 L 310.269531 424.273438 C 310.339844 424.40625 310.425781 424.523438 310.5 424.65625 L 310.5 453.410156 L 276.414062 487.496094 L 192.835938 511.621094 C 150.828125 522.242188 121.5 559.878906 121.5 603.25 L 121.5 810 L 148.5 810 L 148.5 603.25 C 148.5 595.738281 149.738281 588.484375 152.03125 581.667969 L 205.011719 655.84375 L 226.988281 640.15625 L 167.253906 556.53125 C 175.828125 547.582031 186.917969 540.9375 199.632812 537.757812 C 199.789062 537.71875 199.941406 537.671875 200.101562 537.632812 L 248.511719 523.652344 L 232.203125 545.398438 C 227.726562 551.363281 228.933594 559.828125 234.898438 564.296875 L 278.679688 597.136719 L 258.765625 627.011719 C 256.300781 630.710938 255.8125 635.382812 257.460938 639.515625 L 310.5 772.097656 L 310.5 810 L 337.5 810 L 337.5 742.5 L 364.5 742.5 L 364.5 715.5 L 337.5 715.5 L 337.5 634.5 L 364.5 634.5 L 364.5 607.5 L 337.5 607.5 L 337.5 587.25 L 369.359375 563.355469 L 391.5 662.984375 L 391.5 810 L 418.5 810 L 418.5 662.984375 L 440.640625 563.355469 L 472.5 587.25 L 472.5 810 L 499.5 810 L 499.5 772.097656 L 552.539062 639.515625 C 554.183594 635.382812 553.699219 630.710938 551.230469 627.011719 L 531.320312 597.136719 L 575.101562 564.296875 C 581.066406 559.828125 582.273438 551.363281 577.796875 545.398438 L 561.488281 523.652344 L 609.898438 537.632812 C 610.058594 537.671875 610.210938 537.71875 610.367188 537.757812 C 623.082031 540.9375 634.171875 547.582031 642.746094 556.53125 L 583.011719 640.15625 L 604.988281 655.84375 L 657.964844 581.667969 C 660.261719 588.484375 661.5 595.738281 661.5 603.25 L 661.5 634.5 L 688.5 634.5 L 688.5 603.25 C 688.5 559.878906 659.179688 522.242188 617.164062 511.628906 "/>
</g>
<path style=" stroke:none;fill-rule:nonzero;fill:rgb(6.269836%,5.879211%,5.099487%);fill-opacity:1;" d="M 357.75 232.875 C 357.75 219.851562 347.148438 209.25 334.125 209.25 C 321.097656 209.25 310.5 219.851562 310.5 232.875 C 310.5 245.902344 321.097656 256.5 334.125 256.5 C 347.148438 256.5 357.75 245.902344 357.75 232.875 "/>
<path style=" stroke:none;fill-rule:nonzero;fill:rgb(6.269836%,5.879211%,5.099487%);fill-opacity:1;" d="M 475.875 256.5 C 488.898438 256.5 499.5 245.902344 499.5 232.875 C 499.5 219.851562 488.898438 209.25 475.875 209.25 C 462.847656 209.25 452.25 219.851562 452.25 232.875 C 452.25 245.902344 462.847656 256.5 475.875 256.5 "/>
<path style=" stroke:none;fill-rule:nonzero;fill:rgb(6.269836%,5.879211%,5.099487%);fill-opacity:1;" d="M 463.269531 339.894531 L 454.742188 314.269531 C 454.367188 314.402344 416.292969 326.820312 379.238281 323.398438 L 376.761719 350.289062 C 382.125 350.78125 387.472656 351 392.734375 351 C 429.457031 351 461.730469 340.40625 463.269531 339.894531 "/>
<path style=" stroke:none;fill-rule:nonzero;fill:rgb(6.269836%,5.879211%,5.099487%);fill-opacity:1;" d="M 418.5 243 L 391.5 243 L 391.5 297 L 418.5 297 L 418.5 243 "/>
<path style=" stroke:none;fill-rule:nonzero;fill:rgb(6.269836%,5.879211%,5.099487%);fill-opacity:1;" d="M 202.5 810 L 229.5 810 L 229.5 675 L 202.5 675 L 202.5 810 "/>
<path style=" stroke:none;fill-rule:nonzero;fill:rgb(6.269836%,5.879211%,5.099487%);fill-opacity:1;" d="M 580.5 756 L 526.5 756 L 526.5 783 L 580.5 783 L 580.5 810 L 607.5 810 L 607.5 675 L 580.5 675 L 580.5 756 "/>
<path style=" stroke:none;fill-rule:nonzero;fill:rgb(6.269836%,5.879211%,5.099487%);fill-opacity:1;" d="M 256.5 810 L 283.5 810 L 283.5 783 L 256.5 783 L 256.5 810 "/>
</g>
</svg>
