<?xml version="1.0" encoding="UTF-8"?>
<svg xmlns="http://www.w3.org/2000/svg" xmlns:xlink="http://www.w3.org/1999/xlink" width="810pt" height="809.999993pt" viewBox="0 0 810 809.999993" version="1.2">
<g id="surface1">
<path style=" stroke:none;fill-rule:nonzero;fill:rgb(100%,100%,100%);fill-opacity:1;" d="M 580.230469 630.046875 C 573.097656 635.339844 565.96875 636.964844 558.636719 636.964844 C 552.933594 636.964844 547.230469 635.949219 541.730469 634.929688 L 533.582031 633.507812 L 539.695312 628.007812 C 590.210938 581.597656 609.765625 527.648438 599.578125 463.324219 L 598.355469 455.585938 L 605.488281 459.046875 C 605.691406 459.25 606.097656 459.25 606.300781 459.453125 C 607.726562 460.066406 609.765625 460.675781 610.984375 462.710938 C 627.6875 491.617188 632.171875 523.78125 624.429688 561.441406 C 618.320312 589.738281 604.0625 612.132812 580.230469 630.046875 Z M 204.824219 629.230469 L 198.511719 632.285156 L 204.214844 636.355469 C 212.359375 642.054688 223.972656 648.976562 237.617188 648.976562 C 241.894531 648.976562 246.582031 648.367188 251.265625 646.738281 C 265.117188 641.648438 276.929688 632.691406 285.078125 620.273438 C 304.226562 590.960938 313.390625 560.222656 312.171875 528.667969 C 311.355469 503.019531 303.207031 481.03125 288.132812 463.324219 L 277.542969 450.703125 L 281.003906 466.78125 C 287.726562 497.726562 284.46875 528.464844 270.617188 560.628906 C 257.378906 591.773438 235.785156 614.371094 204.824219 629.230469 Z M 341.296875 155.933594 C 348.222656 161.023438 356.777344 165.5 366.757812 169.164062 C 383.871094 175.679688 402 176.496094 419.3125 177.511719 C 425.015625 177.714844 431.125 178.121094 436.828125 178.734375 C 439.070312 178.9375 441.515625 178.9375 443.753906 178.9375 C 462.496094 178.9375 478.992188 172.21875 494.472656 158.171875 C 500.382812 152.675781 503.234375 147.382812 502.824219 141.886719 C 502.417969 136.390625 498.957031 131.503906 492.03125 126.824219 C 479.605469 118.476562 465.347656 114 448.441406 113.386719 C 441.921875 113.183594 434.996094 112.980469 428.273438 112.167969 C 427.867188 111.960938 427.257812 111.554688 426.644531 111.148438 C 427.050781 110.539062 427.460938 109.925781 427.867188 109.722656 C 432.347656 108.09375 437.847656 106.464844 442.941406 106.058594 C 450.476562 105.652344 458.011719 105.652344 466.160156 105.855469 C 469.421875 105.855469 472.476562 105.855469 475.734375 105.855469 L 478.179688 105.855469 L 479.402344 103.820312 C 486.328125 91.199219 485.105469 79.800781 476.140625 70.027344 C 473.085938 66.566406 469.625 63.511719 466.363281 60.664062 C 464.734375 59.238281 463.308594 57.8125 461.679688 56.59375 C 452.308594 48.246094 443.347656 40.511719 440.292969 28.09375 C 439.886719 26.261719 439.273438 24.632812 438.460938 22.800781 C 438.050781 21.78125 437.644531 20.765625 437.238281 19.746094 L 434.996094 13.4375 L 430.515625 18.320312 C 426.035156 23.207031 421.757812 27.683594 417.683594 31.960938 C 415.238281 34.605469 412.589844 37.253906 410.351562 39.695312 L 407.496094 42.546875 L 410.351562 45.394531 C 412.996094 47.839844 416.054688 49.875 419.109375 51.707031 C 425.421875 55.574219 429.292969 58.222656 429.699219 64.125 C 426.238281 63.71875 423.386719 62.292969 419.921875 60.460938 C 418.496094 59.644531 416.867188 58.832031 415.238281 58.015625 C 399.554688 50.484375 379.386719 44.378906 363.5 64.9375 C 359.835938 69.824219 357.59375 75.320312 355.761719 80.410156 C 354.945312 82.445312 354.335938 84.277344 353.519531 85.703125 L 351.890625 89.164062 L 355.351562 90.996094 C 359.222656 93.03125 362.890625 94.863281 366.351562 96.695312 C 374.703125 100.96875 381.832031 104.632812 388.757812 108.707031 C 392.015625 110.539062 391.203125 112.371094 390.589844 113.386719 C 389.980469 114.609375 389.777344 114.8125 386.109375 113.386719 C 384.074219 112.574219 382.238281 111.757812 380.203125 111.148438 C 376.742188 109.925781 373.074219 108.503906 369.609375 106.875 C 352.703125 99.136719 345.984375 100.765625 335.1875 115.421875 C 325.410156 129.671875 327.445312 145.753906 341.296875 155.933594 Z M 716.703125 623.328125 C 712.425781 646.535156 707.535156 663.632812 701.222656 678.496094 C 695.316406 692.335938 685.539062 704.753906 675.351562 717.375 C 651.929688 745.875 618.929688 759.921875 586.746094 770.914062 C 560.46875 779.871094 531.140625 785.773438 496.917969 788.828125 C 494.472656 789.03125 492.03125 789.441406 489.382812 790.050781 C 487.140625 790.457031 484.695312 791.066406 482.253906 791.273438 C 456.585938 794.527344 431.941406 795.953125 406.886719 795.953125 C 404.035156 795.953125 401.183594 795.953125 398.128906 795.953125 C 360.445312 795.34375 324.59375 788.625 284.875 780.6875 L 281.207031 779.871094 C 263.488281 776.207031 244.953125 772.542969 228.453125 765.214844 C 212.769531 758.496094 198.101562 749.335938 183.84375 740.582031 C 179.160156 737.734375 174.679688 734.882812 169.992188 732.238281 C 166.9375 730.40625 165.308594 727.351562 163.882812 724.5 C 163.476562 723.6875 163.066406 722.871094 162.660156 722.058594 L 157.160156 713.101562 L 167.140625 716.15625 C 171.214844 717.375 175.289062 718.597656 179.566406 720.023438 C 183.640625 721.242188 187.714844 722.464844 191.789062 723.6875 C 201.769531 726.535156 214.804688 724.703125 221.121094 714.117188 C 222.546875 711.878906 223.769531 709.234375 224.988281 706.789062 C 226.210938 704.347656 227.636719 701.703125 229.0625 699.257812 C 235.175781 689.082031 234.359375 678.902344 226.210938 665.058594 L 222.546875 658.75 L 229.878906 658.953125 C 231.710938 658.953125 233.339844 659.15625 235.175781 659.359375 C 238.636719 659.765625 241.894531 659.96875 244.542969 659.359375 C 263.082031 655.492188 279.171875 644.5 290.78125 627.601562 C 305.652344 605.820312 315.023438 581.1875 318.6875 554.726562 C 323.984375 516.453125 315.429688 481.644531 293.632812 451.3125 C 292.207031 449.277344 289.96875 446.019531 287.523438 444.796875 C 278.5625 439.707031 268.988281 435.027344 259.820312 430.34375 L 255.136719 427.902344 C 241.488281 420.980469 227.433594 424.441406 215.621094 428.511719 C 190.972656 437.0625 180.585938 459.046875 172.03125 480.625 C 165.105469 498.335938 162.660156 517.878906 160.625 538.03125 C 158.179688 560.628906 159.605469 580.78125 164.902344 599.917969 C 167.34375 608.46875 171.621094 616.609375 176.105469 625.363281 C 178.140625 629.230469 180.382812 633.300781 182.214844 637.578125 L 183.4375 640.222656 L 181.195312 642.257812 C 179.972656 643.277344 178.546875 644.703125 176.917969 646.332031 C 175.492188 647.753906 173.863281 649.179688 172.4375 650.605469 L 171.621094 651.214844 L 170.605469 651.421875 C 169.585938 651.625 168.566406 652.03125 167.546875 652.4375 C 165.714844 653.046875 163.882812 653.660156 161.640625 654.066406 L 161.234375 654.066406 C 144.9375 655.898438 140.050781 660.582031 136.792969 676.664062 L 133.941406 690.914062 L 129.660156 677.882812 C 128.234375 674.015625 126.605469 670.148438 125.179688 666.484375 C 121.71875 658.339844 118.253906 649.792969 116.21875 641.039062 C 107.664062 606.429688 101.960938 572.84375 99.515625 541.085938 C 97.273438 513.195312 95.441406 486.121094 100.125 459.660156 C 100.738281 456.402344 101.144531 453.347656 101.757812 450.089844 C 106.238281 424.035156 110.71875 396.960938 120.699219 371.308594 C 126.808594 355.429688 132.921875 339.144531 139.234375 323.0625 C 140.050781 321.027344 141.070312 319.195312 141.882812 317.972656 C 142.085938 317.566406 142.289062 317.363281 142.289062 317.160156 L 143.921875 313.902344 L 147.382812 315.125 C 152.066406 316.753906 156.753906 318.585938 161.234375 320.214844 C 168.769531 323.0625 175.898438 325.710938 183.234375 327.949219 C 196.878906 332.019531 211.140625 328.558594 223.359375 324.488281 C 243.933594 317.769531 258.804688 303.519531 274.894531 286.828125 C 278.152344 283.367188 281.414062 279.90625 284.46875 276.445312 C 287.929688 272.578125 291.597656 268.914062 295.058594 265.046875 L 298.320312 261.585938 L 301.171875 265.453125 C 316.652344 286.015625 336.207031 300.875 359.425781 309.628906 C 397.515625 323.878906 432.347656 316.550781 462.902344 287.847656 C 467.179688 283.773438 471.457031 279.5 475.734375 275.226562 L 476.140625 275.019531 C 476.957031 274.410156 477.566406 274.003906 478.382812 273.597656 C 478.789062 273.1875 479.402344 272.984375 480.011719 272.578125 L 482.863281 270.542969 L 485.308594 273.1875 C 487.753906 275.835938 490.195312 278.480469 492.640625 280.925781 C 498.140625 286.625 503.84375 292.527344 508.9375 298.839844 C 522.789062 315.9375 538.472656 327.339844 555.582031 332.222656 C 607.929688 347.492188 632.171875 336.296875 649.078125 323.265625 C 653.964844 319.601562 658.855469 316.347656 664.148438 312.886719 C 666.796875 311.054688 669.648438 309.222656 672.296875 307.390625 L 675.761719 304.945312 L 678 308.40625 C 689.203125 325.304688 694.90625 343.421875 700 360.316406 C 712.222656 402.660156 718.738281 437.875 720.164062 471.058594 C 720.574219 478.589844 720.980469 486.324219 721.589844 493.859375 C 722.203125 504.238281 723.015625 515.234375 723.21875 526.023438 C 724.035156 562.460938 721.792969 594.21875 716.703125 623.328125 Z M 292.207031 377.214844 L 290.578125 376.601562 C 284.265625 374.363281 277.542969 372.125 271.226562 371.308594 C 267.359375 370.699219 263.691406 370.496094 260.023438 370.496094 C 238.027344 370.496094 218.269531 379.25 201.566406 388.410156 C 199.730469 389.425781 198.511719 390.242188 198.101562 392.683594 C 201.972656 391.667969 205.84375 390.445312 209.714844 389.222656 C 221.527344 385.761719 233.75 382.097656 246.175781 380.671875 C 258.804688 379.25 271.636719 380.0625 283.855469 380.878906 C 287.929688 381.082031 292.207031 381.488281 296.28125 381.691406 C 296.28125 379.453125 294.855469 378.027344 292.207031 377.214844 Z M 321.539062 698.039062 L 320.113281 700.074219 C 317.261719 704.144531 317.667969 705.570312 317.667969 705.570312 C 317.667969 705.773438 318.28125 706.179688 319.707031 706.382812 C 323.984375 707.199219 328.261719 708.214844 332.539062 709.03125 C 345.78125 711.878906 359.628906 714.730469 373.074219 715.339844 C 395.277344 716.359375 417.886719 712.695312 438.867188 704.753906 C 453.125 699.257812 467.179688 692.949219 481.4375 686.433594 C 485.308594 684.601562 486.9375 683.582031 486.328125 680.53125 C 486.121094 680.53125 485.714844 680.53125 485.511719 680.53125 C 482.863281 680.53125 480.214844 680.734375 477.976562 681.546875 C 470.03125 684.195312 462.292969 687.042969 454.753906 689.894531 C 449.050781 692.132812 442.941406 694.167969 437.035156 696.410156 C 429.496094 699.054688 421.757812 701.089844 414.21875 703.125 C 411.570312 703.941406 408.71875 704.550781 406.070312 705.367188 L 403.015625 706.179688 L 401.386719 703.328125 C 399.960938 700.886719 398.941406 698.851562 397.722656 696.816406 C 396.089844 693.761719 394.664062 690.914062 392.832031 688.265625 C 381.832031 670.960938 371.039062 658.136719 358.410156 647.753906 C 348.632812 639.613281 340.074219 635.949219 330.707031 635.949219 C 330.296875 635.949219 329.890625 635.949219 329.484375 635.949219 C 324.390625 635.949219 307.6875 637.78125 306.464844 656.710938 C 306.058594 664.246094 306.464844 670.554688 309.929688 676.664062 C 312.78125 681.34375 315.226562 686.433594 317.667969 691.320312 C 318.484375 692.949219 319.300781 694.578125 320.113281 696.207031 Z M 415.035156 588.3125 C 414.628906 587.703125 414.21875 587.09375 413.8125 586.277344 C 411.980469 583.429688 410.144531 580.375 407.496094 578.339844 C 403.21875 575.082031 396.292969 573.453125 388.960938 573.453125 C 380.609375 573.453125 371.851562 575.691406 366.964844 579.765625 C 364.519531 581.800781 363.296875 584.445312 363.5 586.890625 C 363.703125 589.332031 365.128906 591.367188 367.574219 592.792969 C 378.980469 599.917969 392.015625 601.75 407.703125 598.695312 C 410.351562 598.492188 414.015625 596.660156 415.035156 588.3125 Z M 559.453125 652.640625 L 557.210938 657.121094 C 552.527344 666.484375 551.914062 674.21875 555.175781 681.546875 C 558.230469 688.265625 561.898438 694.578125 566.175781 700.480469 C 574.523438 712.285156 582.875 717.988281 593.0625 718.800781 C 594.285156 719.003906 595.710938 719.003906 596.929688 719.003906 C 600.597656 719.207031 604.46875 719.617188 608.339844 720.226562 C 623.207031 722.667969 635.632812 716.765625 645.003906 702.921875 C 654.78125 688.671875 657.632812 671.574219 653.355469 653.457031 C 652.945312 651.625 651.519531 649.589844 649.890625 647.757812 C 642.152344 640.222656 634.816406 636.964844 626.464844 637.375 L 626.058594 637.375 C 620.96875 637.171875 615.671875 636.558594 610.78125 635.746094 C 607.929688 635.339844 605.078125 634.929688 602.226562 634.726562 L 595.300781 633.914062 L 599.375 628.214844 C 601.617188 624.957031 604.0625 621.699219 606.503906 618.644531 C 611.597656 611.929688 616.484375 605.617188 620.355469 598.695312 C 631.152344 579.765625 636.449219 557.167969 636.652344 529.890625 C 636.855469 502.40625 631.761719 480.625 620.558594 461.285156 C 604.46875 433.601562 580.636719 419.757812 549.878906 419.757812 C 549.0625 419.757812 548.25 419.757812 547.433594 419.757812 C 539.492188 419.960938 532.15625 420.167969 526.65625 425.253906 C 519.527344 431.972656 512.398438 438.894531 505.269531 446.019531 C 504.457031 446.832031 503.640625 447.851562 502.621094 448.664062 C 499.769531 451.515625 497.121094 454.367188 495.085938 457.417969 C 478.585938 482.867188 470.4375 513.808594 471.050781 549.230469 C 471.457031 572.433594 477.976562 595.847656 489.992188 617.21875 C 493.660156 623.734375 499.160156 629.84375 504.457031 632.691406 C 513.621094 637.984375 524.007812 641.851562 533.785156 645.515625 C 535.824219 646.332031 538.066406 647.144531 540.101562 647.960938 C 542.546875 648.976562 545.398438 649.589844 548.453125 649.996094 C 550.285156 650.402344 552.121094 650.605469 553.953125 651.214844 Z M 605.488281 392.277344 C 602.023438 390.445312 598.5625 388.410156 595.300781 386.375 C 586.136719 381.082031 576.5625 375.378906 566.582031 372.125 C 548.453125 366.015625 530.730469 369.679688 515.453125 382.300781 C 513.621094 383.726562 513.214844 384.746094 513.214844 384.949219 C 513.214844 384.949219 513.214844 385.558594 514.4375 386.578125 C 516.878906 385.761719 519.324219 384.949219 521.769531 384.132812 C 529.917969 381.488281 539.695312 378.839844 550.082031 378.839844 C 556.601562 378.839844 563.324219 379.859375 570.042969 382.503906 C 576.5625 385.152344 583.082031 388.003906 589.394531 390.851562 C 593.875 392.886719 598.355469 394.921875 602.839844 396.753906 C 604.875 397.570312 607.117188 398.382812 609.558594 398.996094 C 610.171875 395.535156 608.339844 393.703125 605.488281 392.277344 Z M 605.488281 392.277344 "/>
<path style=" stroke:none;fill-rule:nonzero;fill:rgb(98.039246%,60.778809%,45.098877%);fill-opacity:1;" d="M 724.851562 204.992188 C 724.441406 202.957031 724.035156 200.515625 723.628906 197.867188 C 722.40625 190.132812 720.980469 180.566406 718.535156 171.40625 C 715.277344 159.191406 702.242188 152.269531 689 155.324219 C 678.203125 157.765625 667.207031 160.207031 657.019531 162.246094 C 639.503906 165.910156 619.542969 171.609375 603.855469 187.691406 C 597.542969 194.203125 594.285156 202.957031 595.097656 211.710938 C 595.914062 220.261719 600.191406 227.996094 607.320312 233.085938 C 610.375 235.324219 613.429688 237.15625 616.484375 239.191406 C 620.152344 241.636719 623.820312 243.671875 627.078125 246.316406 C 629.726562 248.355469 632.375 250.1875 635.023438 252.222656 C 643.78125 258.734375 652.132812 264.84375 659.058594 272.578125 C 667.613281 282.144531 677.390625 284.183594 685.945312 284.996094 C 686.554688 284.996094 687.167969 284.996094 687.777344 284.996094 C 696.128906 284.996094 703.257812 280.519531 707.738281 272.375 C 718.332031 253.238281 723.425781 232.882812 724.644531 206.214844 L 724.644531 205.808594 Z M 692.054688 200.515625 C 692.054688 201.738281 691.851562 202.347656 691.648438 202.347656 C 691.445312 202.550781 690.628906 202.753906 689.203125 202.753906 L 688.796875 202.753906 C 686.964844 202.753906 685.945312 202.550781 685.742188 202.144531 C 685.742188 201.941406 685.128906 201.328125 685.539062 198.886719 L 685.539062 198.480469 C 685.742188 194.613281 686.757812 194.613281 688.183594 194.613281 C 690.019531 194.816406 691.851562 195.019531 692.054688 200.515625 Z M 662.722656 233.902344 C 661.296875 234.714844 659.667969 235.527344 658.039062 236.140625 C 658.242188 235.121094 658.648438 233.902344 659.058594 233.695312 C 659.261719 233.695312 659.667969 233.492188 660.28125 233.492188 C 660.890625 233.695312 661.707031 233.695312 662.722656 233.902344 Z M 630.746094 208.25 C 630.335938 208.65625 629.113281 209.269531 628.300781 209.472656 C 627.28125 209.066406 625.652344 208.046875 624.632812 207.234375 C 625.449219 205.808594 626.46875 204.179688 627.6875 202.550781 C 631.964844 205.605469 631.355469 207.03125 630.746094 208.25 Z M 223.15625 170.183594 C 217.859375 164.484375 212.15625 158.785156 205.84375 154.101562 C 188.734375 141.277344 172.4375 133.542969 155.9375 130.285156 C 145.550781 128.453125 130.679688 128.453125 122.125 149.828125 C 115.199219 167.332031 112.753906 184.839844 111.125 211.304688 L 111.125 211.914062 L 111.328125 212.527344 C 111.738281 213.746094 111.941406 215.171875 112.347656 216.800781 C 114.179688 223.925781 116.828125 233.492188 120.292969 243.0625 C 122.53125 248.355469 128.03125 253.648438 133.125 255.273438 C 138.828125 257.105469 145.957031 258.734375 153.492188 258.734375 C 163.066406 258.734375 173.457031 256.089844 183.234375 247.539062 C 184.046875 246.929688 184.863281 246.316406 185.882812 245.707031 C 186.898438 245.097656 187.917969 244.28125 188.734375 243.671875 C 192.195312 241.230469 196.066406 238.582031 199.730469 236.34375 C 207.066406 231.457031 214.804688 226.367188 221.527344 220.261719 C 229.878906 212.730469 234.5625 203.773438 234.765625 194.613281 C 234.972656 186.875 231.914062 179.34375 226.007812 173.238281 Z M 200.546875 193.1875 C 199.324219 191.964844 197.695312 190.539062 197.289062 189.726562 C 197.898438 188.503906 199.730469 186.671875 200.75 186.265625 C 201.566406 186.0625 202.582031 186.0625 203.195312 186.671875 C 203.804688 187.078125 204.214844 187.894531 204.007812 188.707031 C 204.007812 189.726562 202.789062 191.558594 201.566406 193.390625 C 201.566406 193.59375 201.363281 193.59375 201.363281 193.796875 C 201.15625 193.59375 200.75 193.390625 200.546875 193.1875 Z M 158.789062 169.164062 C 157.566406 170.183594 155.734375 171.8125 154.917969 171.8125 C 154.308594 171.8125 153.699219 171.609375 153.289062 171.203125 C 152.679688 170.386719 152.273438 168.960938 152.679688 167.742188 C 153.085938 166.113281 155.734375 163.667969 156.753906 163.464844 L 156.957031 163.464844 C 157.773438 163.464844 158.992188 163.871094 159.808594 168.148438 C 159.605469 168.554688 159.199219 168.757812 158.789062 169.164062 Z M 152.066406 213.746094 C 153.492188 211.914062 155.9375 210.488281 157.773438 210.285156 C 157.976562 210.285156 158.382812 210.285156 158.585938 210.285156 C 160.011719 210.285156 160.625 210.898438 161.234375 215.375 L 161.4375 216.191406 C 161.640625 217.207031 161.03125 218.023438 160.625 218.632812 C 159.402344 220.058594 156.753906 221.6875 152.882812 221.890625 C 152.066406 221.6875 151.253906 219.855469 150.847656 217.003906 C 150.4375 216.191406 151.050781 214.96875 152.066406 213.746094 Z M 392.832031 699.664062 L 394.664062 703.738281 L 390.386719 705.164062 C 389.371094 705.570312 388.554688 705.773438 387.738281 705.976562 C 385.5 706.789062 384.074219 707.199219 382.238281 707.402344 C 381.425781 707.402344 380.609375 707.605469 379.796875 707.605469 C 379.183594 707.605469 378.371094 707.605469 377.757812 707.605469 C 377.148438 707.605469 376.332031 707.605469 375.722656 707.605469 L 373.480469 707.605469 L 370.832031 703.535156 C 364.316406 693.152344 357.59375 682.363281 348.632812 673.203125 C 348.222656 675.644531 349.445312 677.679688 351.277344 680.328125 C 351.890625 681.546875 352.703125 682.566406 353.316406 683.992188 C 354.742188 686.839844 356.574219 689.894531 358.40625 692.949219 C 359.835938 695.390625 361.464844 698.039062 363.09375 700.886719 L 366.554688 707.199219 L 359.425781 706.996094 C 344.761719 706.585938 332.132812 704.957031 325.207031 690.503906 C 323.78125 687.65625 321.949219 684.804688 320.113281 681.957031 C 318.484375 679.308594 316.652344 676.457031 315.023438 673.609375 C 313.1875 670.554688 311.964844 666.6875 311.558594 662.820312 C 310.539062 655.289062 311.964844 649.382812 315.632812 645.3125 C 319.300781 641.242188 325.207031 639.613281 332.945312 640.019531 C 342.113281 640.628906 350.261719 644.5 358.203125 651.625 C 371.242188 663.429688 379.796875 673.609375 385.703125 684.601562 C 387.332031 687.65625 388.757812 690.914062 390.183594 694.167969 C 391.203125 695.796875 392.015625 697.628906 392.832031 699.664062 Z M 392.832031 699.664062 "/>
<path style=" stroke:none;fill-rule:nonzero;fill:rgb(98.039246%,86.268616%,19.60907%);fill-opacity:1;" d="M 233.339844 660.171875 C 239.859375 671.371094 245.96875 686.230469 236.191406 702.515625 C 234.765625 704.753906 233.546875 707.402344 232.324219 709.84375 C 231.101562 712.285156 229.675781 714.933594 228.25 717.375 C 221.933594 727.960938 211.140625 732.238281 200.546875 732.238281 C 196.675781 732.238281 193.011719 731.625 189.546875 730.609375 C 185.472656 729.386719 181.398438 728.164062 177.121094 726.742188 C 173.046875 725.519531 168.976562 724.296875 164.902344 723.078125 L 164.289062 722.871094 L 163.679688 722.464844 C 147.382812 710.863281 137.808594 694.371094 129.457031 678.496094 L 128.847656 677.273438 L 129.050781 675.847656 C 132.921875 656.507812 140.457031 649.179688 160.625 645.3125 C 162.253906 644.90625 163.679688 644.5 165.308594 643.886719 C 166.53125 643.480469 167.546875 643.074219 168.769531 642.667969 L 175.085938 640.835938 L 174.066406 647.144531 C 173.660156 649.382812 172.4375 651.214844 171.417969 652.84375 C 169.992188 655.085938 169.382812 655.898438 170.195312 657.121094 C 174.882812 656.710938 178.75 653.660156 183.03125 650.199219 C 185.882812 647.960938 188.734375 645.515625 191.992188 643.886719 L 193.824219 642.871094 L 195.660156 643.886719 C 199.324219 645.71875 202.582031 647.550781 205.640625 649.179688 L 211.34375 652.234375 L 211.140625 654.878906 C 210.730469 658.339844 210.324219 661.800781 210.121094 665.261719 C 209.714844 669.539062 209.101562 673.8125 208.695312 678.289062 C 212.15625 676.664062 212.972656 673.609375 213.992188 669.128906 C 214.804688 665.464844 215.824219 661.597656 218.675781 658.339844 L 220.101562 656.917969 L 222.136719 657.121094 C 223.972656 657.324219 226.210938 657.527344 228.453125 657.527344 L 232.527344 657.730469 Z M 371.648438 582.613281 L 365.742188 586.074219 L 371.648438 589.738281 C 377.960938 593.605469 384.277344 595.4375 391.203125 595.4375 C 395.277344 595.4375 399.757812 594.828125 404.238281 593.402344 L 409.535156 591.976562 L 406.683594 587.296875 C 399.351562 575.691406 386.519531 573.859375 371.648438 582.613281 Z M 656.207031 641.851562 C 650.300781 636.152344 640.726562 628.621094 626.875 629.027344 C 621.171875 629.230469 615.265625 628.214844 609.558594 627.398438 C 607.726562 627.195312 605.691406 626.789062 603.855469 626.585938 L 602.023438 626.382812 L 599.375 628.824219 C 596.523438 631.46875 593.671875 634.117188 591.839844 635.746094 L 590.820312 636.761719 L 590.617188 638.1875 C 589.800781 644.296875 592.859375 649.179688 595.503906 653.046875 C 598.5625 657.730469 599.988281 659.96875 597.949219 663.023438 C 594.078125 662.210938 592.042969 659.15625 589.394531 654.675781 C 587.5625 651.625 585.320312 647.960938 582.0625 645.3125 L 580.230469 643.886719 L 577.988281 644.90625 C 575.953125 645.71875 573.914062 646.738281 571.878906 647.753906 C 570.042969 648.570312 568.210938 649.382812 566.378906 650.199219 L 563.117188 651.625 L 564.136719 655.085938 C 564.542969 656.710938 564.953125 658.136719 565.5625 659.765625 C 567.191406 665.667969 568.820312 671.167969 571.0625 676.664062 C 571.878906 678.699219 571.671875 679.308594 571.671875 679.308594 C 571.671875 679.308594 571.46875 679.511719 570.65625 679.917969 C 566.785156 674.832031 564.542969 668.925781 562.304688 662.617188 C 561.082031 659.5625 560.0625 656.304688 558.636719 653.253906 L 555.378906 645.921875 L 551.507812 652.84375 C 545.195312 664.042969 544.175781 674.625 548.65625 684.398438 C 551.914062 691.726562 555.785156 698.648438 560.46875 704.753906 C 567.191406 714.117188 576.96875 725.113281 593.46875 726.332031 C 594.691406 726.535156 596.117188 726.535156 597.339844 726.535156 C 600.800781 726.742188 604.671875 727.148438 608.132812 727.554688 C 610.78125 727.960938 613.226562 728.164062 615.671875 728.164062 C 630.335938 728.164062 643.167969 720.835938 652.742188 706.996094 C 663.945312 690.707031 667.207031 671.371094 662.316406 651.011719 C 661.09375 648.164062 659.058594 644.5 656.207031 641.851562 Z M 668.222656 294.15625 C 668.019531 293.546875 667.816406 292.933594 667.613281 292.324219 C 667.207031 290.898438 666.59375 289.269531 665.574219 287.4375 L 665.167969 286.828125 C 652.132812 269.730469 635.429688 255.273438 613.839844 242.449219 C 574.320312 218.835938 530.324219 201.738281 483.066406 191.964844 C 474.921875 190.335938 466.160156 188.707031 458.011719 189.929688 C 439.273438 192.167969 419.3125 193.59375 399.148438 187.894531 L 397.925781 187.488281 C 391.8125 185.859375 385.296875 184.230469 378.777344 184.433594 C 369.609375 184.636719 360.445312 185.65625 351.6875 186.671875 C 349.039062 186.875 346.390625 187.285156 343.742188 187.488281 C 315.226562 190.335938 286.503906 197.257812 258.597656 208.453125 C 235.988281 217.410156 216.433594 230.644531 196.675781 244.484375 C 179.363281 256.496094 165.714844 271.5625 154.917969 290.492188 C 152.679688 294.5625 150.640625 299.042969 152.066406 303.316406 C 153.289062 307.59375 157.363281 310.035156 161.4375 312.070312 C 185.269531 324.082031 209.304688 323.265625 232.933594 309.832031 C 249.027344 300.671875 263.082031 287.644531 278.355469 267.691406 C 283.855469 260.566406 289.355469 254.664062 294.652344 249.574219 C 297.097656 247.335938 300.761719 244.691406 303.820312 245.300781 C 306.261719 245.910156 308.707031 248.558594 310.539062 253.238281 C 315.023438 264.230469 320.726562 271.765625 328.261719 277.261719 C 335.390625 282.351562 342.722656 287.4375 349.648438 292.121094 C 365.128906 302.707031 382.851562 305.148438 398.128906 305.964844 C 406.070312 306.371094 413.203125 305.761719 419.3125 303.726562 C 437.847656 298.023438 453.53125 288.050781 465.753906 273.597656 C 472.066406 266.269531 477.363281 260.773438 482.660156 256.089844 C 484.492188 254.460938 486.9375 253.851562 488.976562 254.460938 C 489.992188 254.664062 491.214844 255.480469 491.828125 257.3125 C 495.085938 269.117188 502.621094 277.464844 509.953125 285.605469 L 510.566406 286.21875 C 526.65625 304.539062 543.359375 321.230469 569.027344 326.117188 C 578.804688 327.949219 589.191406 329.984375 599.988281 329.984375 C 607.726562 329.984375 615.46875 328.96875 623.207031 326.320312 C 637.667969 321.230469 651.316406 312.683594 667.207031 298.636719 L 669.445312 296.804688 Z M 668.222656 294.15625 "/>
<path style=" stroke:none;fill-rule:nonzero;fill:rgb(23.529053%,31.369019%,74.508667%);fill-opacity:1;" d="M 384.683594 810 C 380.203125 808.777344 375.722656 806.945312 371.035156 806.335938 C 342.925781 802.0625 314.816406 798.601562 286.914062 793.714844 C 266.542969 790.050781 246.378906 785.367188 226.621094 779.667969 C 215.621094 776.410156 205.027344 770.914062 195.046875 765.011719 C 177.9375 754.832031 161.03125 744.449219 146.976562 729.792969 C 129.253906 711.472656 117.644531 689.894531 109.496094 666.078125 C 99.515625 636.964844 93.40625 607.042969 89.941406 576.914062 C 85.664062 539.050781 81.183594 500.777344 87.292969 462.507812 C 91.980469 432.582031 97.683594 403.066406 106.847656 374.160156 C 116.828125 342.199219 131.292969 312.476562 147.585938 283.570312 C 149.421875 280.519531 151.457031 277.667969 154.511719 273.394531 C 147.382812 272.78125 141.476562 272.984375 135.976562 271.96875 C 121.71875 269.523438 112.144531 260.160156 106.847656 247.539062 C 98.699219 228.199219 96.867188 207.84375 100.738281 187.078125 C 103.386719 173.035156 104.8125 158.988281 110.515625 145.550781 C 120.496094 123.160156 138.828125 114.40625 161.640625 120.105469 C 188.121094 126.824219 210.324219 141.074219 230.285156 158.582031 C 240.0625 167.128906 247.394531 178.328125 245.5625 192.78125 C 245.15625 195.628906 245.5625 198.683594 245.5625 202.753906 C 277.136719 190.132812 308.707031 180.972656 343.945312 177.308594 C 340.890625 173.644531 339.058594 171.40625 337.222656 169.164062 C 331.929688 162.449219 325.410156 156.339844 321.539062 149.011719 C 313.800781 134.152344 316.449219 118.679688 328.058594 106.875 C 333.558594 101.171875 339.871094 96.289062 345.984375 90.792969 C 347.207031 59.238281 371.445312 36.03125 399.757812 41.121094 C 410.351562 23.410156 422.570312 7.125 444.773438 0 C 446.199219 3.257812 448.847656 6.105469 448.238281 8.144531 C 442.53125 26.871094 454.550781 37.253906 466.160156 47.839844 C 472.273438 53.335938 477.976562 59.441406 484.085938 64.9375 C 494.882812 74.507812 495.695312 94.660156 486.328125 107.890625 C 489.585938 109.722656 492.640625 111.351562 495.695312 113.183594 C 508.734375 120.921875 521.15625 135.167969 514.4375 151.660156 C 511.382812 159.394531 505.066406 165.910156 499.769531 172.421875 C 497.121094 175.679688 493.253906 177.917969 489.382812 181.175781 C 521.15625 192.371094 551.507812 202.957031 582.0625 213.542969 C 582.0625 213.542969 582.875 212.933594 582.875 212.527344 C 576.5625 192.984375 586.339844 181.175781 605.691406 166.113281 C 612.617188 160.820312 621.171875 156.75 629.523438 154.101562 C 643.375 149.828125 657.632812 146.976562 671.890625 143.71875 C 682.277344 141.480469 692.257812 138.019531 703.257812 141.277344 C 711.40625 143.71875 719.148438 145.957031 724.035156 153.492188 C 731.570312 164.6875 737.480469 176.289062 737.480469 190.132812 C 737.480469 197.460938 738.699219 204.585938 738.90625 211.914062 C 739.515625 232.476562 733.40625 251.816406 726.074219 270.746094 C 723.832031 276.648438 720.367188 282.144531 716.90625 287.234375 C 710.796875 296.394531 701.222656 298.226562 691.039062 298.839844 C 689.40625 298.839844 687.777344 298.636719 684.519531 298.226562 C 687.167969 303.726562 689.203125 308 691.445312 312.273438 C 706.519531 343.421875 714.871094 376.601562 722 410.191406 C 731.164062 454.570312 733.40625 499.355469 734.015625 544.34375 C 734.628906 580.78125 731.570312 617.015625 723.425781 652.4375 C 717.925781 676.050781 705.703125 697.019531 691.242188 716.359375 C 671.484375 742.824219 644.1875 758.496094 614.652344 771.933594 C 580.636719 787.199219 544.582031 793.105469 508.527344 799.007812 C 480.625 803.484375 452.308594 804.707031 423.996094 807.558594 C 421.550781 807.761719 419.3125 808.980469 416.867188 809.59375 C 406.070312 810 395.480469 810 384.683594 810 Z M 133.53125 676.457031 C 141.273438 692.949219 150.640625 708.417969 165.917969 719.207031 C 167.957031 722.261719 169.179688 726.332031 171.828125 727.960938 C 190.972656 739.363281 209.507812 751.984375 229.878906 760.738281 C 247.394531 768.269531 266.746094 771.933594 285.488281 775.800781 C 322.558594 783.332031 359.628906 790.457031 397.925781 791.066406 C 426.035156 791.476562 453.734375 790.050781 481.4375 786.386719 C 486.328125 785.773438 491.214844 784.351562 496.308594 783.941406 C 526.65625 781.296875 556.398438 776.207031 585.117188 766.234375 C 617.707031 755.035156 649.28125 741.601562 671.890625 713.914062 C 681.464844 702.109375 691.445312 689.894531 697.148438 676.050781 C 704.480469 658.75 708.960938 640.222656 712.425781 621.699219 C 718.332031 589.941406 719.554688 557.777344 718.738281 525.410156 C 718.332031 507.089844 716.5 488.972656 715.683594 470.652344 C 714.054688 433.195312 705.90625 396.753906 695.722656 360.925781 C 690.628906 343.421875 684.722656 326.117188 674.335938 310.035156 C 666.390625 315.53125 658.648438 320.417969 651.316406 325.914062 C 620.96875 349.121094 587.15625 345.050781 554.15625 335.480469 C 534.804688 329.984375 518.511719 316.957031 505.472656 300.671875 C 498.140625 291.714844 489.992188 283.773438 482.050781 275.226562 C 480.625 276.242188 479.402344 276.851562 478.382812 277.667969 C 474.105469 281.738281 470.03125 286.015625 465.550781 290.289062 C 434.183594 319.601562 397.722656 327.949219 357.796875 312.886719 C 334.167969 304.132812 314.003906 288.863281 297.707031 267.285156 C 290.78125 274.613281 284.0625 281.941406 277.339844 289.066406 C 262.0625 305.148438 245.96875 320.621094 224.175781 327.746094 C 210.324219 332.222656 196.066406 335.480469 181.605469 331.207031 C 169.585938 327.746094 157.976562 322.859375 145.550781 318.179688 C 145.144531 318.992188 143.511719 321.230469 142.699219 323.675781 C 136.382812 339.757812 130.476562 355.839844 124.164062 371.921875 C 113.367188 400.214844 109.089844 429.9375 103.792969 459.453125 C 99.109375 486.121094 100.941406 512.992188 103.183594 539.863281 C 105.832031 573.453125 111.738281 606.636719 119.886719 639.207031 C 123.144531 652.640625 129.050781 664.449219 133.53125 676.457031 Z M 664.355469 295.582031 C 663.539062 293.546875 662.925781 291.511719 661.707031 289.882812 C 648.058594 271.96875 630.746094 257.921875 611.597656 246.523438 C 571.265625 222.296875 527.878906 206.011719 482.050781 196.445312 C 474.308594 194.816406 465.957031 193.59375 458.21875 194.40625 C 437.847656 196.851562 417.886719 197.867188 397.925781 192.371094 C 391.609375 190.742188 384.886719 188.910156 378.574219 189.117188 C 366.964844 189.320312 355.554688 190.949219 343.945312 192.167969 C 314.816406 195.019531 286.914062 202.144531 259.820312 212.933594 C 237.617188 221.6875 218.269531 235.121094 198.714844 248.558594 C 181.605469 260.566406 168.363281 275.226562 158.179688 293.140625 C 153.492188 301.484375 154.308594 304.742188 162.863281 309.015625 C 185.675781 320.214844 208.492188 319.601562 230.488281 306.980469 C 248.414062 296.804688 262.265625 282.144531 274.691406 265.859375 C 279.78125 259.347656 285.28125 253.035156 291.394531 247.335938 C 300.96875 238.582031 308.910156 240.414062 313.800781 252.425781 C 317.464844 261.179688 322.152344 268.914062 330.09375 274.613281 C 337.222656 279.703125 344.351562 284.589844 351.484375 289.476562 C 365.539062 299.042969 381.628906 301.484375 397.925781 302.707031 C 404.441406 303.113281 411.367188 302.503906 417.683594 300.671875 C 435.199219 295.175781 450.273438 285.8125 462.292969 271.765625 C 467.789062 265.453125 473.496094 259.347656 479.605469 253.851562 C 484.902344 248.964844 493.457031 250.390625 495.289062 256.902344 C 498.34375 268.101562 505.675781 276.039062 513.011719 284.183594 C 528.695312 301.6875 544.785156 318.382812 569.230469 322.859375 C 586.746094 326.117188 604.0625 329.171875 621.375 323.0625 C 637.875 316.753906 651.519531 306.777344 664.355469 295.582031 Z M 358.203125 87.128906 C 370.628906 93.640625 381.222656 98.933594 391.609375 104.632812 C 395.277344 106.671875 397.515625 110.128906 395.074219 114.8125 C 392.628906 119.292969 389.164062 118.070312 385.5 116.644531 C 380 114.40625 374.296875 112.574219 368.796875 109.925781 C 353.722656 103.007812 349.039062 104.023438 339.464844 117.253906 C 330.503906 129.671875 331.519531 143.515625 343.945312 152.675781 C 351.277344 158.171875 359.835938 162.246094 368.390625 165.296875 C 390.589844 173.644531 414.21875 172.421875 437.441406 174.457031 C 459.03125 176.289062 476.347656 169.164062 491.828125 155.121094 C 501.808594 145.957031 501.195312 137.816406 489.789062 130.082031 C 477.160156 121.53125 463.308594 117.867188 448.441406 117.253906 C 441.515625 117.050781 434.792969 116.847656 427.867188 116.035156 C 425.832031 115.832031 422.773438 113.183594 422.570312 111.554688 C 422.367188 109.722656 424.609375 106.464844 426.644531 105.652344 C 431.941406 103.820312 437.441406 102.191406 442.941406 101.785156 C 453.734375 101.171875 464.734375 101.582031 475.9375 101.582031 C 481.640625 91.199219 481.4375 81.425781 473.085938 72.46875 C 470.234375 69.214844 466.976562 66.363281 463.71875 63.511719 C 452.71875 53.539062 440.292969 44.582031 436.421875 28.90625 C 435.8125 26.464844 434.792969 24.226562 433.570312 20.765625 C 426.238281 28.703125 419.515625 35.625 413.40625 42.140625 C 421.550781 49.875 436.015625 51.503906 433.976562 67.585938 C 425.625 68.804688 420.332031 64.125 414.015625 61.273438 C 394.867188 52.113281 379.796875 50.890625 367.371094 66.972656 C 362.890625 73.082031 360.851562 81.222656 358.203125 87.128906 Z M 720.777344 205.605469 C 719.351562 197.257812 718.128906 184.433594 714.664062 172.015625 C 711.8125 161.226562 700.609375 156.339844 690.019531 158.785156 C 679.425781 161.226562 668.632812 163.464844 658.039062 165.703125 C 639.097656 169.777344 621.171875 175.476562 606.914062 189.929688 C 595.914062 201.125 596.523438 219.652344 609.765625 229.21875 C 616.28125 233.902344 623.410156 237.566406 629.726562 242.449219 C 640.929688 251 652.945312 258.734375 662.113281 269.117188 C 669.242188 277.261719 677.390625 279.296875 686.351562 280.109375 C 694.296875 280.925781 700.40625 276.855469 704.277344 269.730469 C 714.460938 251.40625 719.351562 231.457031 720.777344 205.605469 Z M 114.996094 211.710938 C 117.03125 218.429688 119.679688 230.234375 123.957031 241.636719 C 125.382812 245.707031 130.070312 250.1875 134.144531 251.40625 C 150.4375 256.292969 166.53125 256.699219 180.585938 244.28125 C 182.417969 242.652344 184.25 241.433594 186.289062 240.210938 C 197.085938 232.476562 208.695312 225.757812 218.675781 217.003906 C 231.710938 205.402344 235.785156 188.910156 222.953125 175.882812 C 216.636719 169.371094 210.527344 162.652344 203.398438 157.359375 C 188.9375 146.570312 173.253906 137.816406 155.125 134.355469 C 143.71875 132.117188 132.71875 133.949219 125.792969 151.457031 C 118.664062 169.371094 116.625 187.488281 114.996094 211.710938 Z M 553.953125 654.878906 C 549.0625 653.863281 544.175781 653.253906 539.695312 651.421875 C 527.472656 646.738281 514.84375 642.257812 503.4375 635.949219 C 496.917969 632.285156 491.214844 625.566406 487.34375 618.847656 C 475.125 597.269531 468.199219 573.453125 467.789062 549.023438 C 467.179688 515.84375 473.699219 483.679688 492.4375 454.976562 C 495.289062 450.496094 499.160156 446.832031 503.03125 442.964844 C 509.953125 435.839844 517.085938 429.121094 524.417969 422.203125 C 530.933594 415.890625 539.695312 415.6875 547.839844 415.484375 C 581.859375 414.667969 607.320312 429.734375 624.632812 459.046875 C 637.464844 480.828125 641.539062 504.648438 641.335938 529.6875 C 641.132812 554.726562 636.855469 578.746094 624.429688 600.527344 C 618.320312 611.113281 610.375 620.476562 603.246094 630.453125 C 599.988281 633.507812 596.523438 636.761719 594.488281 638.59375 C 592.859375 649.589844 609.558594 655.492188 599.785156 667.09375 C 587.359375 666.484375 586.949219 654.066406 579.414062 648.367188 C 575.746094 649.996094 571.878906 651.828125 567.804688 653.660156 C 570.042969 661.191406 571.878906 668.113281 574.527344 674.832031 C 576.5625 680.328125 574.933594 682.769531 569.027344 684.398438 C 560.675781 676.050781 558.433594 664.855469 553.953125 654.878906 Z M 603.246094 462.710938 C 614.042969 530.703125 591.636719 585.464844 542.34375 631.0625 C 555.175781 633.300781 566.785156 635.132812 577.785156 626.789062 C 600.191406 609.890625 614.449219 588.722656 620.355469 560.628906 C 627.28125 526.632812 624.835938 494.875 607.320312 464.746094 C 606.503906 463.730469 604.671875 463.324219 603.246094 462.710938 Z M 230.285156 662.210938 C 227.433594 662.003906 224.378906 661.800781 221.933594 661.597656 C 215.621094 668.519531 220.710938 682.769531 204.214844 683.992188 C 205.230469 673.609375 206.25 664.652344 207.269531 654.878906 C 203.398438 652.84375 198.917969 650.402344 194.027344 647.960938 C 185.269531 652.4375 179.363281 662.210938 168.363281 661.597656 C 162.457031 655.085938 169.382812 651.421875 170.195312 646.738281 C 173.457031 643.480469 176.917969 640.425781 179.160156 638.1875 C 172.84375 624.957031 165.105469 612.945312 161.4375 599.917969 C 155.734375 579.355469 154.714844 558.390625 156.957031 536.605469 C 158.992188 516.65625 161.234375 496.707031 168.566406 478.183594 C 177.53125 455.382812 188.734375 432.789062 214.601562 423.625 C 228.65625 418.742188 243.117188 416.09375 257.378906 423.21875 C 268.375 428.714844 279.171875 434.210938 289.765625 440.117188 C 292.820312 441.746094 295.265625 445 297.300781 447.851562 C 320.316406 479.8125 328.464844 515.234375 323.167969 554.113281 C 319.503906 581.390625 309.929688 606.226562 294.652344 628.824219 C 283.042969 645.921875 266.949219 658.136719 245.96875 662.210938 C 240.878906 663.632812 235.378906 662.414062 230.285156 662.210938 Z M 285.488281 465.5625 C 292.617188 499.152344 288.132812 530.703125 274.691406 562.054688 C 260.839844 594.21875 238.839844 617.425781 206.65625 632.894531 C 220.507812 642.667969 234.5625 647.960938 250.042969 642.667969 C 263.082031 637.984375 274.078125 629.433594 281.820312 617.832031 C 299.542969 590.757812 309.523438 561.238281 308.300781 528.667969 C 307.6875 505.054688 300.761719 483.679688 285.488281 465.5625 Z M 405.054688 700.886719 C 415.644531 698.039062 425.832031 695.59375 435.8125 692.132812 C 449.664062 687.65625 463.105469 682.160156 476.753906 677.476562 C 480.828125 676.050781 485.511719 676.457031 489.382812 676.050781 C 493.046875 684.601562 487.753906 687.65625 483.269531 689.894531 C 469.214844 696.410156 454.957031 702.921875 440.496094 708.417969 C 418.90625 716.5625 395.886719 720.226562 373.074219 719.207031 C 354.945312 718.394531 337.019531 713.710938 319.09375 710.25 C 312.578125 709.03125 311.964844 704.347656 316.855469 697.628906 C 313.597656 691.117188 310.746094 684.398438 306.875 678.289062 C 302.597656 671.371094 302.394531 664.042969 302.800781 656.101562 C 303.613281 639.003906 316.039062 631.671875 329.6875 631.46875 C 341.910156 631.265625 351.6875 636.355469 361.261719 644.089844 C 375.519531 655.898438 386.722656 670.148438 396.5 685.621094 C 399.351562 690.097656 401.589844 694.78125 405.054688 700.886719 Z M 389.164062 701.292969 C 386.519531 695.796875 384.683594 690.914062 382.238281 686.433594 C 375.519531 674.015625 365.945312 663.835938 355.554688 654.472656 C 348.835938 648.367188 341.5 644.5 332.742188 643.886719 C 319.910156 643.074219 314.003906 649.179688 315.632812 662.003906 C 316.039062 665.261719 317.058594 668.519531 318.6875 671.371094 C 321.742188 677.273438 326.019531 682.566406 328.871094 688.46875 C 334.984375 701.089844 345.984375 702.3125 359.628906 702.71875 C 355.964844 696.207031 352.5 691.117188 349.648438 685.621094 C 347 680.125 340.890625 675.035156 347.613281 666.28125 C 359.628906 677.273438 367.574219 690.503906 375.722656 703.535156 C 377.960938 703.535156 380 703.738281 381.832031 703.535156 C 383.871094 703.125 385.703125 702.3125 389.164062 701.292969 Z M 607.523438 388.613281 C 594.488281 381.488281 581.859375 372.9375 567.804688 368.257812 C 548.25 361.742188 529.101562 365.609375 512.808594 379.25 C 507.511719 383.523438 507.917969 387.1875 513.621094 391.257812 C 516.878906 390.039062 519.9375 389.019531 522.992188 388.003906 C 538.066406 382.914062 553.136719 380.265625 568.617188 386.167969 C 579.617188 390.648438 590.414062 395.738281 601.414062 400.417969 C 604.875 401.84375 608.542969 402.863281 612.617188 404.289062 C 615.875 395.535156 612.410156 391.257812 607.523438 388.613281 Z M 246.785156 384.542969 C 264.300781 382.503906 282.226562 385.152344 300.152344 385.761719 C 301.578125 379.859375 299.542969 375.378906 293.632812 373.34375 C 286.503906 370.902344 279.171875 368.257812 271.839844 367.238281 C 245.5625 363.574219 222.34375 372.53125 199.730469 384.746094 C 195.453125 387.1875 193.214844 390.039062 194.4375 397.570312 C 212.359375 392.886719 229.265625 386.375 246.785156 384.542969 Z M 419.3125 587.296875 C 418.496094 596.863281 414.628906 601.75 408.3125 602.96875 C 393.441406 605.820312 378.574219 604.804688 365.332031 596.457031 C 357.59375 591.773438 357.390625 582.410156 364.316406 576.710938 C 374.90625 567.957031 399.351562 566.734375 410.144531 575.285156 C 414.628906 578.746094 417.273438 584.242188 419.3125 587.296875 Z M 403.425781 589.332031 C 397.109375 579.558594 386.722656 578.542969 373.890625 586.074219 C 383.257812 591.773438 392.425781 592.386719 403.425781 589.332031 Z M 695.925781 200.3125 C 695.722656 195.222656 694.09375 190.949219 688.183594 190.742188 C 683.09375 190.539062 681.464844 194 681.261719 198.480469 C 681.054688 203.367188 682.480469 207.03125 689 206.824219 C 692.871094 207.03125 696.128906 205.605469 695.925781 200.3125 Z M 620.152344 207.84375 C 619.746094 209.066406 624.632812 212.730469 627.484375 213.542969 C 629.523438 213.949219 633.800781 211.914062 634.410156 209.878906 C 636.652344 204.382812 633.1875 200.71875 626.671875 197.257812 C 624.429688 200.921875 621.375 204.179688 620.152344 207.84375 Z M 656.613281 241.433594 C 660.074219 239.804688 663.742188 238.378906 667 236.140625 C 667.613281 235.734375 666.59375 230.644531 665.574219 230.441406 C 662.722656 229.625 658.855469 229.015625 656.816406 230.441406 C 654.78125 231.863281 654.371094 235.9375 653.152344 238.785156 C 654.167969 239.601562 655.390625 240.617188 656.613281 241.433594 Z M 165.105469 215.78125 C 164.289062 211.304688 163.882812 206.011719 157.160156 206.417969 C 151.863281 206.824219 145.753906 212.527344 146.363281 217.613281 C 146.773438 221.890625 148.808594 225.960938 152.273438 226.164062 C 160.214844 225.960938 165.917969 220.871094 165.105469 215.78125 Z M 156.550781 159.191406 C 153.699219 159.394531 149.625 163.464844 148.808594 166.519531 C 147.789062 170.589844 150.03125 175.882812 155.125 175.679688 C 158.179688 175.679688 161.234375 171.8125 164.289062 169.777344 C 163.679688 163.058594 161.4375 158.785156 156.550781 159.191406 Z M 208.289062 189.117188 C 208.492188 184.027344 204.007812 181.175781 199.730469 182.398438 C 196.878906 183.210938 192.804688 187.894531 193.214844 190.132812 C 193.824219 193.1875 197.898438 195.832031 202.378906 200.515625 C 205.230469 195.222656 208.082031 192.167969 208.289062 189.117188 Z M 208.289062 189.117188 "/>
</g>
</svg>
