<?xml version="1.0" encoding="UTF-8"?>
<svg xmlns="http://www.w3.org/2000/svg" xmlns:xlink="http://www.w3.org/1999/xlink" width="810pt" height="809.999993pt" viewBox="0 0 810 809.999993" version="1.2">
<defs>
<clipPath id="clip1">
  <path d="M 5.15625 1 L 804.46875 1 L 804.46875 810 L 5.15625 810 Z M 5.15625 1 "/>
</clipPath>
</defs>
<g id="surface1">
<path style=" stroke:none;fill-rule:nonzero;fill:rgb(100%,100%,100%);fill-opacity:1;" d="M 624.492188 504.5625 C 615.570312 522.628906 600.832031 531.140625 578.417969 531.140625 C 576.757812 531.140625 575.304688 531.140625 573.644531 530.933594 C 561.609375 530.308594 549.15625 528.234375 536.910156 524.496094 L 533.796875 523.664062 L 534.835938 520.550781 C 540.648438 504.5625 545.421875 491.066406 549.984375 477.777344 C 554.550781 464.28125 553.722656 461.375 542.308594 452.652344 C 541.683594 452.238281 541.0625 451.613281 540.648438 450.785156 C 540.230469 450.371094 539.816406 449.746094 539.195312 448.914062 L 534.003906 443.101562 L 541.683594 443.726562 C 544.382812 443.933594 546.871094 444.140625 549.363281 444.347656 C 554.757812 444.761719 559.742188 445.179688 564.515625 445.386719 C 574.890625 446.007812 578.835938 443.515625 582.570312 434.382812 C 589.835938 416.9375 596.890625 399.496094 604.15625 380.808594 L 606.023438 375.828125 L 609.34375 378.527344 C 609.964844 379.148438 610.796875 379.5625 611.417969 380.1875 C 613.492188 381.847656 615.777344 383.507812 617.4375 386 C 634.871094 409.878906 642.132812 436.042969 639.4375 463.867188 C 638.191406 476.738281 632.585938 487.746094 627.191406 498.542969 C 626.363281 500.824219 625.53125 502.695312 624.492188 504.5625 Z M 681.359375 451.40625 C 680.945312 482.96875 679.078125 511.621094 675.757812 539.03125 C 674.097656 554.394531 669.53125 570.59375 662.265625 587.617188 C 657.90625 598 650.851562 608.589844 640.472656 621.046875 C 610.378906 656.140625 568.457031 668.597656 539.402344 675.035156 C 519.476562 679.394531 499.136719 682.09375 479.214844 684.792969 C 472.15625 685.832031 464.894531 686.664062 457.835938 687.699219 C 442.273438 689.984375 426.082031 691.230469 409.273438 691.230469 C 391.425781 691.230469 372.953125 689.984375 353.238281 687.285156 C 327.085938 683.753906 300.3125 678.773438 273.539062 672.542969 C 246.144531 665.898438 220.824219 653.441406 197.996094 635.582031 C 180.355469 621.878906 167.070312 603.191406 157.316406 578.273438 C 149.429688 558.339844 143.828125 536.332031 139.054688 507.054688 C 135.734375 486.707031 134.488281 465.941406 133.65625 446.425781 C 133.035156 430.4375 132.828125 413.410156 135.109375 396.796875 C 138.636719 370.21875 144.449219 344.265625 152.335938 319.347656 C 158.976562 298.378906 167.902344 277.40625 181.390625 251.242188 C 190.316406 234.007812 202.769531 219.683594 218.75 208.261719 C 234.730469 196.632812 254.03125 183.761719 276.03125 175.039062 C 280.183594 173.378906 284.539062 172.132812 289.105469 170.679688 C 290.558594 170.265625 292.011719 169.847656 293.671875 169.226562 L 297.824219 167.980469 L 297.824219 172.339844 C 297.824219 175.039062 297.617188 177.738281 297.617188 180.4375 C 297.40625 185.628906 297.199219 190.613281 298.03125 194.972656 C 299.484375 202.03125 302.804688 209.09375 305.917969 215.113281 C 313.597656 229.648438 325.011719 242.316406 343.066406 256.640625 C 356.972656 267.648438 372.953125 276.992188 390.386719 284.257812 C 428.988281 300.453125 471.535156 314.988281 524.25 329.9375 C 530.476562 331.601562 537.949219 333.675781 545.003906 334.507812 C 551.648438 335.128906 556.210938 334.300781 559.117188 331.808594 C 562.023438 329.109375 563.476562 324.332031 563.683594 316.027344 L 563.683594 315.402344 L 563.890625 314.988281 C 564.304688 313.949219 564.304688 311.875 564.304688 308.550781 L 564.304688 305.4375 L 593.570312 305.4375 C 594.816406 305.4375 596.058594 305.4375 597.304688 305.644531 C 599.589844 305.851562 601.664062 306.058594 603.324219 305.644531 C 605.816406 305.023438 608.304688 303.152344 608.929688 301.90625 C 609.34375 300.867188 608.304688 297.753906 607.476562 297.339844 C 601.25 292.769531 595.644531 289.449219 590.042969 287.164062 C 584.023438 284.671875 577.796875 282.804688 570.949219 280.726562 C 567.417969 279.691406 563.890625 278.445312 560.363281 277.40625 L 558.703125 276.78125 L 558.289062 275.121094 C 547.910156 227.15625 522.796875 192.6875 483.574219 172.546875 L 481.289062 171.300781 L 482.121094 168.8125 C 482.328125 168.1875 482.535156 167.773438 482.742188 167.355469 L 482.949219 167.148438 L 483.988281 164.242188 L 486.894531 165.074219 C 489.800781 165.902344 492.703125 166.734375 495.609375 167.566406 C 501.835938 169.226562 508.0625 171.09375 514.289062 173.171875 C 534.421875 180.230469 560.570312 190.199219 585.0625 205.148438 C 598.757812 213.453125 614.324219 224.042969 626.152344 238.992188 C 629.058594 242.730469 632.378906 246.261719 635.492188 249.582031 C 637.984375 252.28125 640.472656 254.980469 642.757812 257.679688 C 644.003906 259.132812 645.246094 261.003906 645.871094 262.871094 C 646.699219 264.949219 647.53125 267.023438 648.570312 269.101562 C 650.644531 274.082031 652.925781 279.066406 654.585938 284.464844 C 664.132812 314.574219 674.511719 349.664062 677.832031 385.585938 C 678.246094 390.777344 678.871094 395.761719 679.285156 400.949219 C 680.113281 417.5625 681.773438 434.589844 681.359375 451.40625 Z M 585.476562 542.769531 C 601.042969 541.523438 613.285156 535.917969 622.625 525.742188 C 629.890625 518.058594 635.492188 508.714844 640.265625 496.464844 C 646.492188 480.269531 649.398438 466.773438 648.984375 454.3125 C 648.570312 426.699219 641.304688 403.652344 626.984375 383.925781 C 613.285156 365.03125 596.269531 354.855469 574.683594 352.988281 C 565.757812 352.15625 556.210938 351.117188 545.003906 349.457031 C 541.683594 349.042969 538.363281 348.832031 535.457031 348.832031 C 522.175781 348.832031 511.589844 353.402344 502.875 362.539062 C 500.589844 365.03125 498.101562 367.519531 495.816406 369.804688 C 487.722656 377.902344 480.042969 385.585938 475.894531 395.96875 C 474.855469 398.25 473.820312 400.742188 472.78125 402.820312 C 470.496094 407.804688 468.214844 412.578125 467.175781 417.5625 C 464.480469 430.4375 461.574219 443.515625 464.6875 456.804688 L 465.308594 459.296875 C 466.96875 466.566406 468.628906 474.039062 470.707031 481.308594 C 475.480469 498.125 484.816406 511.207031 498.722656 521.382812 C 519.476562 535.707031 543.761719 542.769531 572.609375 542.769531 C 574.0625 542.769531 575.515625 542.769531 576.964844 542.769531 C 579.871094 542.769531 582.777344 542.976562 585.476562 542.769531 Z M 455.96875 499.789062 C 453.6875 496.671875 446.628906 488.78125 436.667969 488.78125 C 433.140625 488.78125 428.988281 489.820312 424.839844 492.519531 C 421.519531 494.597656 418.40625 497.503906 415.292969 500.410156 C 413.839844 501.863281 412.386719 503.316406 410.726562 504.5625 C 408.234375 506.847656 407.820312 508.09375 407.820312 508.714844 C 407.820312 509.132812 407.820312 509.546875 408.648438 510.375 C 409.273438 511.207031 411.140625 513.078125 415.5 509.960938 C 420.273438 506.640625 425.460938 503.316406 431.480469 500.203125 C 438.535156 496.464844 444.96875 498.125 449.742188 505.1875 C 450.78125 506.640625 452.234375 508.09375 453.894531 509.546875 C 454.101562 509.753906 454.308594 509.960938 454.515625 510.167969 C 458.667969 504.355469 457.628906 501.863281 455.96875 499.789062 Z M 537.742188 607.757812 C 537.535156 605.890625 536.496094 603.605469 535.457031 601.738281 C 534.214844 599.660156 532.761719 597.378906 531.308594 595.300781 C 529.855469 593.226562 528.402344 590.941406 526.949219 588.449219 C 521.761719 579.9375 520.929688 571.628906 524.667969 563.117188 C 525.496094 561.039062 525.910156 558.339844 526.328125 555.433594 C 526.328125 555.019531 526.535156 554.394531 526.535156 553.980469 C 525.910156 553.980469 525.082031 553.980469 524.667969 554.1875 C 521.136719 558.757812 517.816406 563.53125 514.082031 568.722656 C 512.835938 570.382812 511.796875 572.046875 510.554688 573.707031 L 509.722656 574.953125 L 500.175781 574.953125 L 430.234375 576.820312 C 428.988281 576.820312 427.742188 577.027344 426.292969 577.238281 C 424.632812 577.445312 423.179688 577.859375 421.308594 577.859375 C 411.347656 577.445312 401.386719 577.027344 391.632812 576.613281 C 381.878906 576.199219 371.914062 575.78125 361.953125 575.367188 L 360.5 575.367188 C 357.386719 575.160156 354.273438 574.953125 351.785156 575.78125 C 345.351562 577.652344 340.785156 575.574219 337.464844 569.554688 C 335.386719 565.609375 333.726562 563.117188 329.371094 562.910156 C 328.953125 564.984375 328.746094 567.269531 328.746094 569.140625 C 328.746094 570.175781 329.160156 571.214844 329.785156 572.460938 C 330.40625 573.914062 331.03125 575.574219 331.03125 577.238281 C 331.652344 584.089844 332.066406 590.734375 332.484375 598 C 332.691406 601.53125 332.898438 605.058594 333.105469 608.796875 C 334.144531 609.003906 335.179688 609.214844 335.804688 608.796875 C 337.046875 608.175781 337.878906 606.304688 338.292969 604.851562 C 339.332031 601.113281 340.160156 597.171875 340.785156 593.226562 C 341.199219 591.5625 341.40625 589.695312 341.820312 588.242188 L 342.238281 585.75 L 391.007812 585.75 L 391.425781 588.449219 C 392.046875 592.601562 392.667969 596.339844 393.085938 600.078125 C 393.914062 606.515625 394.953125 612.742188 396.199219 618.765625 C 399.933594 633.507812 409.066406 645.757812 423.59375 655.101562 C 433.554688 661.539062 445.800781 661.121094 454.308594 654.269531 C 464.894531 645.34375 470.707031 634.335938 471.742188 621.878906 C 472.367188 613.988281 471.742188 606.097656 471.121094 597.585938 C 470.914062 594.261719 470.707031 590.734375 470.496094 587.410156 L 470.289062 584.089844 L 512.835938 584.089844 L 513.667969 585.542969 C 513.875 585.75 514.082031 586.371094 514.496094 586.789062 C 514.703125 587.203125 515.121094 587.828125 515.535156 588.449219 L 518.855469 592.601562 C 523.835938 598.625 529.023438 604.851562 534.214844 610.667969 C 534.628906 610.875 535.875 611.082031 536.496094 610.875 C 537.535156 610.457031 537.949219 609.003906 537.742188 607.757812 Z M 590.25 578.691406 C 588.175781 577.027344 586.304688 574.953125 584.4375 573.082031 L 584.230469 572.875 C 583.191406 571.421875 581.949219 570.382812 579.042969 571.839844 C 579.871094 577.859375 581.738281 581.390625 585.476562 583.882812 C 590.664062 587.617188 591.703125 586.164062 592.53125 584.917969 C 593.984375 583.464844 593.15625 581.183594 590.25 578.691406 Z M 216.050781 606.929688 C 216.464844 607.757812 216.882812 608.589844 217.296875 609.214844 C 218.957031 612.328125 220.410156 615.027344 222.070312 617.101562 C 222.484375 617.726562 223.316406 618.347656 223.9375 618.347656 C 224.5625 618.347656 225.804688 617.726562 227.257812 615.648438 C 228.710938 613.367188 227.464844 602.152344 225.390625 600.699219 C 223.9375 599.871094 221.65625 599.453125 220.824219 599.660156 C 219.371094 600.699219 218.128906 602.777344 216.882812 605.269531 C 216.882812 605.890625 216.464844 606.515625 216.050781 606.929688 Z M 337.046875 291.109375 C 329.578125 281.765625 321.484375 277.199219 311.3125 276.992188 C 283.917969 275.953125 257.976562 284.257812 231.824219 302.53125 C 230.996094 303.152344 230.164062 305.4375 230.371094 306.269531 C 230.578125 306.890625 232.449219 308.550781 234.109375 308.757812 C 235.976562 309.175781 238.257812 308.96875 240.335938 308.550781 C 241.371094 308.34375 242.617188 308.34375 243.65625 308.136719 C 245.9375 307.929688 248.429688 307.511719 250.917969 307.304688 C 256.105469 306.683594 261.296875 305.851562 266.691406 305.851562 C 267.105469 305.851562 267.730469 305.851562 268.144531 305.851562 C 280.183594 306.058594 292.632812 306.890625 304.464844 307.722656 C 309.445312 308.136719 314.425781 308.34375 319.40625 308.757812 L 322.3125 308.96875 L 322.3125 309.796875 C 322.519531 309.796875 322.726562 309.796875 322.9375 309.796875 C 325.011719 309.589844 327.085938 309.589844 328.746094 309.175781 C 332.898438 308.34375 336.21875 305.230469 337.671875 301.078125 C 339.539062 297.546875 339.125 293.808594 337.046875 291.109375 Z M 240.125 362.332031 C 226.011719 366.277344 215.222656 375.203125 206.089844 390.570312 C 195.089844 409.050781 190.9375 429.605469 193.84375 450.160156 C 195.296875 459.089844 196.957031 468.019531 198.617188 476.53125 C 200.070312 483.589844 201.316406 490.859375 202.5625 498.332031 C 206.089844 517.4375 215.222656 532.179688 230.578125 543.183594 C 245.523438 553.980469 261.296875 559.171875 277.484375 558.550781 C 307.785156 557.71875 336.011719 548.582031 361.746094 531.347656 C 366.933594 528.027344 371.5 522.421875 374.199219 516.8125 C 380.21875 505.601562 382.707031 493.144531 382.292969 480.0625 C 380.839844 459.503906 378.765625 441.234375 369.839844 424.621094 L 368.59375 422.128906 C 363.40625 412.371094 358.011719 402.40625 349.5 394.515625 C 343.898438 389.324219 338.707031 383.507812 333.726562 377.902344 C 330.820312 374.582031 327.917969 371.257812 324.804688 368.144531 C 323.351562 366.484375 321.898438 365.445312 320.652344 365.03125 C 311.3125 362.332031 301.765625 359.632812 292.21875 357.554688 C 287.445312 356.515625 283.503906 356.101562 279.972656 356.101562 C 279.144531 356.101562 278.3125 356.101562 277.484375 356.101562 C 275.824219 356.308594 274.164062 356.515625 272.296875 356.722656 C 261.296875 358.386719 250.917969 359.421875 240.125 362.332031 Z M 256.523438 595.714844 C 256.730469 598.625 258.390625 602.152344 259.84375 605.269531 C 262.539062 610.875 263.578125 610.457031 264.617188 609.835938 C 265.652344 609.421875 266.691406 607.34375 267.523438 605.476562 C 267.9375 604.644531 268.558594 603.605469 268.976562 602.570312 C 268.144531 601.53125 267.523438 600.285156 266.898438 599.246094 C 265.238281 596.546875 263.578125 594.054688 261.710938 592.1875 C 261.296875 591.980469 260.257812 591.769531 259.636719 591.769531 C 259.21875 591.769531 259.011719 591.769531 258.804688 591.769531 C 257.558594 592.394531 256.523438 594.679688 256.523438 595.714844 Z M 607.058594 563.53125 C 608.511719 566.648438 610.796875 569.554688 613.492188 572.046875 C 614.945312 573.292969 617.644531 574.328125 618.265625 574.121094 C 618.890625 573.914062 619.925781 571.839844 620.34375 570.800781 C 620.550781 570.59375 620.550781 570.382812 620.757812 569.96875 C 619.097656 564.777344 615.984375 561.664062 610.589844 559.585938 C 610.378906 559.378906 609.757812 559.378906 609.34375 559.378906 C 608.511719 559.378906 607.476562 559.585938 607.269531 559.796875 C 606.851562 560.417969 606.644531 562.703125 607.058594 563.53125 Z M 268.558594 463.449219 C 270.21875 465.113281 271.878906 466.980469 273.75 468.640625 C 287.859375 479.230469 291.183594 490.652344 284.539062 505.1875 C 281.011719 513.078125 278.105469 520.964844 275.199219 529.273438 C 273.75 533.007812 272.503906 536.746094 271.050781 540.484375 L 269.804688 543.597656 L 273.75 544.636719 C 275.199219 545.050781 276.445312 545.46875 277.691406 545.46875 C 279.351562 545.46875 281.425781 545.46875 283.085938 545.261719 C 307.164062 543.808594 328.332031 534.253906 346.386719 525.535156 C 356.765625 520.550781 363.40625 512.039062 365.6875 499.996094 L 366.105469 498.332031 C 367.558594 491.6875 369.011719 484.628906 368.59375 477.777344 L 368.386719 473.832031 C 367.765625 461.582031 366.933594 448.914062 362.785156 437.496094 C 357.59375 422.128906 348.253906 406.765625 334.144531 390.570312 C 333.105469 389.53125 332.066406 388.492188 331.03125 387.664062 C 330.40625 387.246094 329.785156 386.625 329.160156 386 L 324.804688 382.054688 L 323.972656 387.871094 C 323.765625 388.90625 323.765625 389.738281 323.558594 390.570312 C 323.351562 392.023438 323.351562 393.0625 322.9375 394.097656 C 321.273438 399.289062 319.613281 404.480469 317.746094 409.878906 C 313.597656 422.753906 309.238281 435.835938 304.671875 448.914062 C 301.558594 457.636719 294.085938 458.050781 288.484375 457.015625 C 281.84375 455.769531 275.199219 454.523438 269.390625 453.691406 L 265.863281 453.070312 L 265.863281 456.183594 C 265.863281 456.390625 265.652344 456.390625 265.652344 456.597656 L 264.203125 458.675781 L 266.070312 460.542969 C 266.898438 461.789062 267.730469 462.621094 268.558594 463.449219 Z M 268.558594 463.449219 "/>
<path style=" stroke:none;fill-rule:nonzero;fill:rgb(98.039246%,86.268616%,19.60907%);fill-opacity:1;" d="M 331.03125 691.230469 L 325.21875 689.984375 C 321.066406 689.152344 317.125 688.117188 313.386719 687.285156 C 304.257812 685.210938 295.746094 683.339844 287.03125 681.265625 L 282.050781 680.019531 L 281.84375 680.640625 L 276.445312 679.394531 C 268.976562 677.527344 261.503906 675.449219 254.238281 673.582031 C 249.464844 672.335938 244.691406 671.089844 239.917969 669.84375 C 236.390625 668.804688 230.996094 669.429688 227.882812 672.335938 L 224.351562 675.449219 C 214.183594 684.378906 203.597656 693.722656 193.636719 703.6875 C 181.808594 715.730469 176.410156 728.8125 177.242188 742.933594 C 177.863281 753.9375 178.695312 767.640625 191.355469 777.191406 C 205.46875 787.992188 220.410156 790.898438 233.484375 790.898438 C 240.957031 790.898438 247.597656 789.859375 253.410156 788.820312 C 277.070312 784.667969 295.957031 769.511719 309.445312 743.972656 C 314.839844 733.796875 318.785156 723 322.9375 711.785156 C 324.804688 706.804688 326.671875 701.820312 328.539062 696.628906 Z M 279.765625 686.871094 L 280.804688 685 C 278.523438 694.96875 265.445312 718.847656 255.484375 734.003906 C 256.9375 730.472656 258.390625 726.945312 260.257812 723.621094 C 265.03125 714.070312 270.425781 704.3125 275.410156 694.96875 C 276.863281 692.269531 278.3125 689.570312 279.765625 686.871094 Z M 255.898438 91.152344 C 251.542969 71.21875 267.105469 48.796875 284.332031 40.28125 C 285.578125 39.660156 286.617188 39.035156 287.859375 38.621094 C 293.050781 36.128906 298.238281 33.429688 304.050781 32.183594 C 323.144531 28.65625 339.746094 36.128906 355.105469 55.023438 C 370.671875 74.542969 378.347656 98.003906 378.347656 127.28125 C 378.347656 130.398438 378.140625 133.304688 377.933594 136.417969 C 377.726562 139.324219 377.519531 142.234375 377.519531 144.933594 L 377.519531 149.5 L 359.671875 151.992188 C 349.5 153.445312 339.746094 154.691406 329.785156 156.144531 L 324.804688 156.769531 L 323.972656 152.613281 L 323.972656 156.558594 L 320.238281 157.597656 C 314.632812 159.257812 309.03125 160.710938 303.425781 162.375 C 296.578125 164.242188 289.730469 166.113281 282.464844 168.1875 L 277.484375 169.640625 L 276.03125 164.65625 C 273.957031 157.183594 271.671875 149.707031 269.597656 142.234375 C 264.824219 125.414062 259.636719 108.386719 255.898438 91.152344 Z M 603.945312 182.929688 C 600.625 186.042969 597.097656 189.160156 593.570312 192.066406 C 591.910156 193.519531 591.078125 195.179688 590.457031 196.632812 C 590.25 197.050781 590.042969 197.464844 589.835938 197.878906 L 587.34375 201.824219 L 591.078125 204.730469 C 599.589844 211.167969 610.796875 219.683594 621.171875 227.363281 L 624.492188 229.855469 L 626.984375 233.59375 C 635.078125 245.429688 642.550781 256.433594 650.019531 267.4375 L 652.304688 270.554688 L 656.039062 269.308594 C 659.359375 268.269531 662.472656 267.230469 665.585938 266.195312 C 673.058594 263.703125 680.113281 261.210938 687.378906 259.550781 C 705.640625 255.394531 719.339844 249.582031 730.339844 241.070312 C 741.132812 232.972656 747.359375 224.042969 748.8125 214.699219 C 752.132812 191.234375 746.941406 171.09375 733.039062 154.691406 C 724.113281 143.894531 713.945312 138.703125 701.078125 138.289062 C 687.378906 137.871094 675.550781 142.023438 666.832031 145.761719 C 653.132812 151.578125 642.132812 156.769531 631.964844 161.75 C 620.964844 167.355469 612.25 175.246094 603.945312 182.929688 Z M 632.585938 223.003906 C 635.285156 220.511719 637.777344 218.230469 640.265625 216.773438 C 648.777344 212 657.492188 207.429688 665.378906 203.695312 C 660.191406 207.015625 655.003906 210.128906 649.8125 213.453125 C 642.757812 217.8125 635.910156 222.175781 628.851562 226.535156 C 630.304688 225.082031 631.34375 224.042969 632.585938 223.003906 Z M 770.1875 606.097656 C 778.695312 625.617188 787.207031 651.363281 777.246094 679.394531 C 769.980469 699.742188 754.207031 712.410156 738.226562 723.207031 C 726.1875 731.304688 713.320312 735.25 699.417969 735.25 C 690.492188 735.25 680.945312 733.589844 670.984375 730.265625 C 657.90625 725.90625 649.191406 715.523438 643.796875 708.050781 C 638.398438 700.78125 634.246094 692.683594 630.097656 684.792969 C 628.4375 681.472656 626.570312 678.148438 624.910156 675.035156 C 623.664062 672.957031 622.417969 670.675781 621.171875 668.597656 C 619.097656 665.066406 617.230469 661.746094 615.570312 658.839844 L 613.492188 655.308594 L 616.398438 652.402344 C 630.097656 639.113281 641.925781 627.484375 656.039062 613.574219 L 659.152344 610.667969 L 662.679688 613.15625 C 674.304688 621.046875 683.226562 632.675781 691.738281 643.679688 C 696.511719 649.703125 701.285156 655.933594 706.472656 661.539062 C 706.472656 661.332031 706.265625 661.332031 706.265625 661.121094 C 704.398438 658.421875 702.527344 655.515625 700.660156 652.816406 C 691.738281 639.527344 683.226562 627.070312 671.398438 617.101562 C 669.53125 615.441406 667.664062 613.988281 665.378906 612.328125 C 664.339844 611.496094 663.097656 610.667969 661.851562 609.628906 L 658.117188 606.722656 L 660.605469 602.777344 C 670.777344 586.996094 677.417969 568.308594 681.152344 545.675781 L 682.191406 539.652344 L 688 541.523438 C 690.90625 542.5625 694.019531 543.390625 696.925781 544.222656 C 703.773438 546.296875 710.832031 548.375 717.058594 551.695312 C 725.359375 556.265625 732.832031 562.078125 740.09375 567.683594 C 742.167969 569.140625 744.039062 570.800781 746.113281 572.253906 C 758.359375 581.597656 765.207031 594.679688 770.1875 606.097656 Z M 133.449219 145.554688 C 139.882812 122.921875 153.375 106.519531 173.503906 96.550781 C 192.183594 87.417969 219.789062 87.207031 236.390625 108.179688 C 253.410156 129.566406 264.617188 147.425781 272.503906 166.320312 L 274.371094 170.679688 L 270.011719 172.964844 C 266.070312 175.039062 262.125 177.117188 258.183594 179.191406 C 254.238281 181.269531 250.296875 183.34375 246.144531 185.421875 L 242.410156 187.289062 L 239.710938 184.175781 C 236.804688 180.644531 233.691406 177.117188 230.996094 173.585938 C 229.335938 171.511719 227.464844 169.433594 225.804688 167.355469 C 228.710938 171.09375 231.617188 174.625 234.316406 178.363281 L 240.542969 186.460938 L 236.597656 189.574219 C 221.238281 202.242188 206.503906 214.285156 191.769531 226.328125 L 188.65625 228.820312 L 185.335938 226.535156 C 181.808594 224.042969 178.277344 221.34375 174.75 218.644531 C 168.109375 213.660156 161.46875 208.46875 154.410156 203.902344 C 137.394531 192.480469 127.640625 165.902344 133.449219 145.554688 Z M 791.773438 504.769531 C 789.695312 515.566406 784.921875 524.496094 777.246094 531.140625 C 764.375 541.9375 751.09375 547.335938 736.980469 547.335938 C 730.132812 547.335938 723.074219 546.089844 715.8125 543.390625 C 710 541.316406 703.773438 539.863281 697.964844 538.199219 C 694.433594 537.371094 690.90625 536.332031 687.378906 535.292969 L 683.433594 534.046875 L 683.644531 529.894531 C 684.886719 512.039062 686.132812 495.632812 687.585938 477.984375 L 688 472.585938 L 693.398438 473.210938 C 695.472656 473.417969 697.339844 473.625 699.417969 473.832031 C 702.320312 474.246094 705.019531 474.457031 707.925781 474.871094 C 710.625 475.285156 713.527344 475.703125 716.226562 475.910156 C 721 476.53125 725.773438 477.15625 730.753906 477.984375 C 719.132812 474.664062 706.472656 472.792969 692.566406 471.964844 L 688 471.757812 L 687.792969 467.1875 C 687.171875 456.804688 686.546875 446.632812 685.925781 436.042969 C 685.511719 429.8125 685.304688 423.375 684.886719 416.730469 L 684.679688 411.75 L 689.660156 411.332031 C 692.152344 411.125 694.644531 410.917969 697.132812 410.710938 C 701.492188 410.296875 705.851562 409.878906 710.414062 409.464844 C 721 408.632812 732.621094 408.21875 744.660156 411.125 C 768.734375 416.730469 779.113281 435.003906 784.921875 448.085938 C 792.601562 466.980469 795.09375 486.082031 791.773438 504.769531 Z M 704.8125 265.777344 C 695.679688 267.855469 686.339844 270.136719 677.417969 272.214844 C 671.8125 273.667969 666.003906 274.914062 660.398438 276.367188 L 655.003906 277.613281 L 656.664062 283.011719 C 658.738281 289.242188 660.605469 295.261719 662.472656 301.078125 C 665.792969 311.457031 668.90625 321.21875 672.019531 330.976562 L 673.058594 334.300781 L 672.226562 334.300781 L 673.265625 339.699219 C 676.378906 356.308594 679.285156 371.675781 682.398438 387.871094 L 683.226562 391.816406 L 687.171875 392.023438 C 692.980469 392.4375 698.792969 392.851562 704.8125 393.476562 C 717.886719 394.515625 731.585938 395.550781 745.28125 396.382812 C 745.90625 396.382812 746.527344 396.382812 747.152344 396.382812 C 760.847656 396.382812 775.792969 386.832031 781.808594 373.75 C 787.207031 361.914062 786.375 349.664062 784.507812 338.035156 C 782.640625 324.957031 777.660156 311.875 772.886719 299.414062 C 768.734375 288.824219 761.886719 280.3125 753.167969 274.707031 C 737.605469 265.15625 721.414062 262.039062 704.8125 265.777344 Z M 700.246094 332.222656 C 710.625 333.675781 721.414062 336.582031 731.585938 339.28125 C 725.152344 338.867188 718.511719 337.621094 711.867188 336.375 C 703.566406 334.714844 694.851562 333.261719 685.925781 333.261719 L 685.71875 333.261719 C 690.492188 332.429688 695.679688 331.601562 700.246094 332.222656 Z M 485.648438 137.664062 C 492.496094 127.90625 499.761719 118.148438 506.609375 108.804688 L 512.835938 100.289062 C 527.570312 79.734375 544.589844 64.785156 564.722656 54.816406 C 584.851562 44.640625 605.191406 47.964844 623.457031 64.160156 C 640.265625 79.316406 642.550781 98.003906 642.757812 112.539062 C 642.964844 124.792969 637.777344 136.625 626.984375 148.667969 C 618.058594 158.429688 608.304688 167.773438 598.964844 176.699219 C 594.191406 181.0625 589.417969 185.835938 584.644531 190.40625 C 581.738281 193.3125 578.625 194.351562 575.929688 194.351562 C 572.402344 194.351562 569.703125 192.898438 568.25 192.066406 C 557.871094 187.082031 547.703125 181.890625 536.082031 176.078125 L 530.683594 173.378906 L 533.796875 168.601562 C 535.042969 166.734375 536.289062 164.65625 537.535156 162.582031 C 540.230469 158.011719 543.136719 153.238281 546.664062 148.667969 C 548.535156 146.179688 550.609375 143.6875 552.683594 141.195312 C 548.117188 145.96875 543.550781 150.953125 538.984375 155.9375 C 536.910156 158.429688 535.042969 161.542969 532.96875 164.65625 C 531.929688 166.527344 530.683594 168.394531 529.4375 170.265625 L 527.363281 173.378906 L 523.628906 172.132812 C 509.929688 167.773438 496.234375 163.410156 481.082031 158.636719 L 474.855469 156.769531 L 478.175781 151.160156 C 479.214844 149.5 480.042969 147.839844 480.875 146.179688 C 482.121094 143.480469 483.574219 140.570312 485.648438 137.664062 Z M 101.695312 635.375 C 104.808594 635.375 108.335938 634.335938 111.449219 633.089844 C 115.808594 631.429688 119.960938 629.5625 123.902344 627.484375 C 125.769531 626.65625 127.847656 625.617188 129.714844 624.785156 L 129.921875 624.785156 C 130.542969 624.578125 130.960938 624.371094 131.582031 623.957031 C 133.449219 623.125 135.527344 622.292969 137.1875 620.632812 L 137.394531 620.425781 C 140.921875 616.480469 144.242188 612.328125 147.769531 608.175781 C 149.847656 605.683594 151.921875 603.191406 153.996094 600.699219 L 155.863281 598.414062 L 154.828125 595.714844 C 153.789062 592.808594 152.75 590.109375 151.714844 587.203125 C 149.636719 581.597656 147.5625 575.78125 145.902344 569.96875 C 144.242188 563.949219 142.582031 557.511719 141.128906 551.28125 C 140.089844 547.128906 139.054688 542.976562 138.015625 539.03125 L 137.601562 537.371094 L 136.355469 536.332031 C 135.527344 535.5 134.488281 534.878906 133.65625 534.253906 L 133.863281 530.519531 C 134.074219 527.609375 134.28125 524.496094 134.28125 521.382812 L 134.28125 520.757812 C 132.203125 505.601562 130.128906 490.445312 127.847656 474.039062 L 127.015625 468.433594 L 127.015625 395.550781 L 121.621094 395.761719 C 109.167969 396.175781 97.960938 398.042969 87.789062 401.367188 C 99.207031 396.796875 112.074219 394.929688 125.769531 393.269531 L 129.507812 392.851562 L 132.203125 377.902344 C 134.28125 367.105469 136.148438 356.933594 138.222656 346.132812 L 139.46875 339.488281 L 132.828125 339.90625 C 126.808594 340.320312 121.414062 340.320312 115.808594 340.320312 L 90.488281 340.945312 C 88.414062 341.152344 86.339844 341.152344 84.261719 341.152344 C 78.660156 341.359375 73.054688 341.359375 67.246094 342.8125 C 49.8125 346.757812 36.320312 358.175781 25.527344 377.28125 C 18.886719 389.117188 17.640625 401.78125 16.1875 414.03125 C 15.980469 415.902344 15.773438 417.769531 15.566406 419.640625 C 13.699219 437.289062 18.886719 453.484375 23.453125 465.320312 C 25.734375 471.339844 31.753906 477.570312 38.1875 480.269531 C 46.699219 483.800781 56.035156 485.046875 64.132812 485.875 C 69.941406 486.5 75.960938 484.421875 79.902344 482.761719 C 86.128906 480.269531 92.5625 476.738281 99.621094 472.378906 C 105.640625 468.847656 112.28125 467.8125 120.996094 469.472656 L 121.203125 469.472656 L 119.960938 470.300781 C 118.921875 470.925781 118.09375 471.546875 117.261719 471.964844 C 114.5625 473.832031 112.28125 475.285156 109.996094 476.324219 C 105.640625 478.609375 101.074219 480.890625 96.714844 483.175781 C 92.355469 485.460938 88 487.746094 83.640625 490.027344 C 82.601562 490.445312 81.566406 490.859375 80.734375 491.273438 C 78.242188 492.3125 75.339844 493.558594 72.847656 495.632812 C 55 511.414062 44 530.726562 39.847656 552.941406 C 36.320312 572.046875 39.226562 587.410156 48.773438 599.660156 C 49.8125 601.117188 51.054688 602.777344 52.09375 604.230469 C 56.660156 610.667969 61.433594 617.519531 69.113281 621.671875 C 79.28125 627.070312 88.621094 631.429688 97.335938 634.546875 C 99 635.167969 100.449219 635.375 101.695312 635.375 Z M 93.394531 552.941406 C 101.488281 546.089844 110.828125 539.863281 121.621094 534.253906 C 121.828125 534.253906 122.035156 534.253906 122.242188 534.253906 C 122.65625 534.253906 123.074219 534.253906 123.488281 534.253906 C 113.320312 540.277344 103.355469 546.507812 93.394531 552.941406 Z M 624.078125 714.484375 C 626.984375 736.289062 614.945312 752.277344 603.945312 763.695312 C 595.023438 773.039062 583.609375 781.136719 569.289062 788.40625 C 558.289062 794.011719 546.457031 795.257812 535.042969 796.710938 C 532.96875 796.917969 530.890625 797.125 528.609375 797.125 C 519.0625 797.125 509.722656 794.21875 500.796875 788.613281 C 495.402344 785.292969 490.628906 779.890625 488.761719 774.703125 C 478.382812 746.878906 472.15625 722.585938 469.667969 698.496094 L 469.042969 693.515625 L 473.816406 692.683594 C 491.667969 689.777344 509.101562 686.664062 525.910156 683.964844 L 540.023438 681.472656 L 541.683594 685 C 547.289062 696.628906 551.023438 709.085938 554.550781 721.339844 C 556.210938 727.152344 558.082031 732.964844 559.949219 738.78125 C 555.589844 723 550.816406 707.21875 546.042969 691.851562 C 545.421875 690.191406 545.210938 688.738281 544.796875 687.078125 L 543.761719 681.472656 L 604.570312 658.632812 L 606.644531 662.785156 C 616.605469 682.507812 622.003906 698.496094 624.078125 714.484375 Z M 203.390625 685 C 207.128906 681.679688 210.449219 677.941406 214.183594 674.203125 C 216.464844 671.921875 218.75 669.429688 221.238281 666.9375 L 226.222656 661.953125 L 220.203125 658.632812 C 194.257812 644.71875 176.203125 628.730469 163.542969 608.796875 L 159.183594 601.738281 L 154.828125 608.796875 C 147.5625 620.632812 134.074219 634.546875 122.867188 638.074219 C 108.753906 642.433594 101.902344 652.816406 95.261719 662.578125 L 94.640625 663.613281 C 89.035156 672.335938 88 681.679688 91.734375 691.023438 C 97.546875 705.972656 105.433594 715.941406 116.640625 722.375 C 125.148438 727.359375 132.621094 730.058594 139.675781 730.058594 C 148.183594 730.058594 156.488281 726.320312 166.449219 718.640625 C 176.828125 710.539062 186.375 701.40625 195.710938 692.683594 C 197.996094 690.191406 200.695312 687.492188 203.390625 685 Z M 173.296875 649.496094 C 172.675781 650.117188 172.054688 650.535156 171.429688 650.949219 L 171.222656 650.949219 C 166.449219 654.6875 161.46875 658.839844 156.28125 662.992188 C 159.394531 659.878906 162.296875 656.761719 165.617188 653.855469 C 167.695312 652.195312 170.390625 650.949219 173.296875 649.496094 C 173.089844 649.496094 173.296875 649.496094 173.296875 649.496094 Z M 457.835938 700.574219 C 459.082031 719.882812 460.328125 739.816406 453.273438 758.503906 C 445.175781 780.308594 431.066406 792.765625 410.3125 796.296875 C 400.972656 797.75 392.253906 798.578125 383.953125 798.578125 C 370.460938 798.578125 358.425781 796.503906 346.804688 792.558594 C 336.21875 789.027344 329.992188 781.347656 327.917969 769.304688 C 324.179688 746.671875 327.5 724.660156 331.238281 705.972656 L 331.238281 705.765625 C 331.859375 703.6875 332.066406 701.613281 332.484375 699.121094 C 332.691406 698.289062 332.691406 697.460938 332.898438 696.421875 L 333.726562 691.644531 L 338.5 692.269531 C 346.804688 693.097656 354.898438 694.136719 362.785156 694.96875 C 372.953125 696.007812 382.707031 697.253906 392.253906 698.289062 L 396.820312 698.707031 L 396.820312 747.292969 C 397.441406 739.816406 397.859375 732.757812 398.273438 725.492188 C 398.480469 721.546875 398.6875 717.808594 398.894531 713.863281 C 399.101562 710.332031 399.101562 706.804688 399.3125 703.066406 L 399.519531 698.496094 L 422.761719 697.253906 C 432.308594 696.835938 442.066406 696.214844 451.820312 695.796875 L 457.007812 695.589844 Z M 482.535156 129.773438 C 477.761719 137.871094 472.78125 145.554688 466.761719 155.105469 L 464.894531 158.011719 L 461.367188 157.390625 C 456.59375 156.558594 451.613281 155.523438 446.214844 154.277344 C 440.820312 153.238281 435.214844 151.992188 429.195312 150.953125 L 423.386719 149.914062 L 425.253906 144.308594 C 426.5 140.78125 427.535156 137.042969 428.78125 133.511719 C 431.066406 126.035156 433.554688 118.148438 436.667969 110.671875 L 437.707031 107.972656 C 439.78125 102.78125 441.441406 98.835938 442.480469 95.722656 C 433.96875 110.257812 427.328125 126.660156 421.308594 146.59375 L 420.066406 150.539062 L 415.914062 150.332031 C 407.613281 149.914062 398.894531 149.5 389.140625 149.085938 L 383.746094 148.878906 L 384.160156 143.480469 C 384.574219 138.703125 384.992188 133.925781 385.199219 129.152344 C 386.027344 117.316406 386.859375 105.894531 388.726562 94.476562 C 390.800781 82.015625 394.746094 69.351562 398.6875 57.722656 C 404.914062 38.828125 419.027344 24.5 440.195312 15.367188 C 447.253906 12.457031 455.140625 10.382812 465.308594 9.136719 C 477.96875 7.476562 488.347656 13.082031 493.949219 23.878906 C 497.6875 31.144531 501.835938 39.660156 503.703125 48.585938 C 507.441406 67.273438 504.949219 87 496.441406 105.480469 C 493.535156 111.917969 489.589844 117.9375 486.0625 123.546875 C 485.234375 125.414062 483.988281 127.699219 482.535156 129.773438 Z M 50.226562 316.027344 C 61.019531 325.992188 75.128906 331.390625 91.113281 332.015625 C 93.1875 332.015625 95.261719 332.222656 97.335938 332.222656 C 106.46875 332.222656 115.601562 331.601562 124.527344 330.769531 C 129.300781 330.355469 134.488281 329.9375 139.261719 329.730469 L 142.582031 329.523438 L 143.828125 326.410156 C 146.941406 318.519531 150.054688 310.421875 153.167969 302.53125 C 155.863281 295.261719 158.769531 287.996094 161.675781 280.519531 L 163.75 275.328125 L 158.355469 273.667969 C 150.054688 271.175781 141.542969 268.683594 133.035156 266.195312 C 141.542969 267.648438 150.46875 270.136719 160.015625 273.667969 L 164.167969 275.328125 L 166.449219 271.382812 C 168.730469 267.4375 170.808594 263.285156 173.089844 259.339844 C 177.035156 252.28125 180.976562 245.222656 184.921875 237.953125 L 187.203125 233.59375 L 183.050781 230.894531 C 180.355469 229.234375 177.863281 227.574219 175.164062 225.910156 C 168.941406 221.964844 162.503906 217.8125 155.863281 214.074219 C 144.035156 207.640625 125.976562 199.75 104.808594 205.355469 C 90.902344 209.09375 71.1875 216.359375 60.394531 236.5 C 56.453125 243.769531 53.339844 251.242188 50.019531 258.511719 C 48.148438 262.871094 46.28125 267.230469 44.207031 271.59375 C 39.433594 281.972656 40.265625 292.769531 41.507812 302.324219 C 42.960938 308.550781 47.527344 313.535156 50.226562 316.027344 Z M 117.261719 267.230469 L 117.882812 264.949219 Z M 117.261719 267.230469 "/>
<path style=" stroke:none;fill-rule:nonzero;fill:rgb(98.039246%,60.778809%,45.098877%);fill-opacity:1;" d="M 460.949219 637.246094 C 458.460938 641.398438 454.933594 645.964844 449.949219 650.535156 C 447.667969 652.609375 443.933594 654.894531 438.953125 654.894531 C 435.628906 654.894531 431.894531 653.855469 427.328125 651.363281 C 413.007812 642.433594 403.667969 629.355469 399.933594 612.535156 C 398.894531 607.757812 398.480469 602.984375 398.066406 598.207031 C 397.859375 596.132812 397.652344 593.847656 397.441406 591.769531 L 396.820312 586.371094 L 402.425781 586.164062 C 406.160156 585.957031 409.894531 585.75 413.421875 585.542969 C 416.953125 585.335938 420.6875 585.125 424.421875 584.917969 L 429.613281 584.710938 L 429.820312 589.902344 C 430.234375 598.414062 430.648438 604.023438 431.273438 609.835938 C 431.273438 610.667969 431.480469 611.496094 431.480469 612.535156 C 431.6875 616.066406 432.101562 619.59375 432.933594 622.710938 C 433.140625 622.917969 433.347656 623.332031 433.761719 623.539062 C 434.179688 623.125 434.59375 622.710938 434.800781 622.5 C 435.214844 616.480469 435.007812 610.457031 435.007812 604.230469 C 435.007812 601.738281 435.007812 599.246094 435.007812 596.753906 C 434.800781 594.679688 434.800781 592.808594 435.007812 591.148438 C 435.007812 590.316406 435.007812 589.695312 435.007812 588.863281 L 435.007812 583.671875 L 467.59375 583.671875 L 467.59375 588.863281 C 467.59375 591.5625 467.800781 594.46875 467.800781 597.171875 C 468.007812 610.042969 468.421875 623.957031 460.949219 637.246094 Z M 460.949219 637.246094 "/>
<path style=" stroke:none;fill-rule:nonzero;fill:rgb(72.549438%,86.268616%,19.60907%);fill-opacity:1;" d="M 336.011719 294.226562 L 337.257812 296.300781 L 336.425781 298.585938 C 333.519531 306.476562 327.5 307.929688 322.9375 307.929688 C 321.484375 307.929688 320.445312 307.722656 319.40625 307.722656 L 318.785156 307.722656 C 298.238281 306.269531 277.277344 304.605469 257.144531 302.945312 L 245.9375 302.113281 L 254.03125 294.015625 C 254.863281 292.980469 256.523438 291.316406 259.011719 290.488281 L 260.878906 289.863281 C 276.03125 284.671875 291.804688 279.273438 308.824219 279.273438 C 321.484375 278.859375 330.199219 283.636719 336.011719 294.226562 Z M 549.570312 266.609375 C 548.117188 261.417969 546.457031 255.8125 545.003906 250.414062 C 539.195312 228.402344 526.117188 209.921875 503.082031 190.613281 C 498.101562 186.667969 492.914062 182.722656 487.929688 178.984375 C 482.121094 174.625 476.101562 170.054688 470.496094 165.28125 C 464.273438 159.882812 456.800781 156.351562 447.875 154.898438 C 445.386719 154.484375 442.6875 154.066406 440.195312 153.445312 C 430.234375 151.578125 420.066406 149.707031 409.894531 150.539062 L 399.101562 151.367188 L 406.574219 159.257812 C 411.347656 164.242188 416.121094 169.019531 420.894531 173.792969 C 430.855469 183.96875 441.234375 194.558594 450.78125 205.355469 C 466.140625 223.210938 481.082031 241.691406 495.609375 259.757812 C 500.175781 265.363281 504.535156 270.96875 509.101562 276.367188 C 512.214844 280.3125 514.703125 284.882812 516.363281 289.242188 C 516.363281 289.449219 516.363281 289.65625 516.570312 289.863281 C 516.363281 289.65625 516.15625 289.449219 516.15625 289.242188 C 512.214844 284.050781 508.269531 279.066406 504.328125 273.875 C 497.894531 265.570312 491.460938 257.058594 484.609375 248.75 C 479.421875 242.523438 474.027344 236.085938 468.628906 230.0625 C 461.988281 222.382812 454.933594 214.285156 448.5 206.1875 C 433.96875 187.5 419.441406 172.753906 404.292969 161.128906 C 403.667969 160.710938 403.046875 160.089844 402.425781 159.675781 C 396.40625 154.898438 388.933594 149.085938 378.558594 150.746094 C 365.898438 152.613281 353.027344 154.691406 340.785156 156.769531 C 331.238281 158.222656 321.898438 159.882812 312.558594 161.128906 L 310.066406 161.542969 L 308.824219 163.621094 C 298.238281 181.476562 299.484375 186.460938 304.878906 199.75 L 305.292969 200.996094 C 309.238281 210.546875 315.050781 220.097656 322.726562 229.234375 C 338.292969 247.507812 358.011719 262.664062 383.332031 275.328125 C 425.875 296.714844 470.707031 310.214844 513.042969 321.839844 C 521.554688 324.125 530.0625 325.578125 538.988281 327.03125 C 542.929688 327.65625 547.082031 328.277344 551.230469 329.109375 L 556.628906 330.144531 L 557.457031 324.746094 C 559.324219 311.875 559.117188 301.285156 556.835938 291.523438 C 554.34375 283.21875 551.855469 274.707031 549.570312 266.609375 Z M 592.324219 290.488281 C 589.003906 289.035156 585.683594 287.582031 582.15625 285.917969 C 576.964844 283.636719 571.777344 281.351562 565.757812 278.652344 L 557.042969 274.707031 L 558.289062 284.050781 C 559.117188 290.28125 559.742188 294.015625 560.363281 297.339844 L 561.195312 301.699219 L 595.023438 301.699219 L 595.023438 296.925781 C 595.023438 296.507812 595.230469 295.886719 595.230469 295.261719 L 595.230469 291.941406 Z M 592.324219 290.488281 "/>
<g clip-path="url(#clip1)" clip-rule="nonzero">
<path style=" stroke:none;fill-rule:nonzero;fill:rgb(23.529053%,31.369019%,74.508667%);fill-opacity:1;" d="M 233.691406 312.082031 C 237.011719 312.703125 240.542969 312.082031 244.070312 311.667969 C 252.164062 310.835938 260.257812 309.175781 268.351562 309.382812 C 285.371094 309.796875 302.597656 311.25 319.613281 312.289062 L 319.613281 313.535156 C 323.144531 313.121094 326.671875 313.121094 329.992188 312.496094 C 340.160156 310.421875 345.765625 297.132812 339.539062 289.242188 C 332.484375 280.3125 323.765625 274.292969 311.519531 273.875 C 281.21875 272.628906 254.65625 282.804688 230.164062 300.039062 C 228.296875 301.285156 226.84375 305.230469 227.464844 307.304688 C 228.089844 309.382812 231.410156 311.667969 233.691406 312.082031 Z M 260.878906 295.054688 C 276.652344 289.65625 292.21875 284.050781 309.238281 284.050781 C 319.40625 284.050781 326.464844 287.789062 331.652344 296.507812 C 328.953125 303.359375 323.765625 302.324219 319.40625 302.324219 C 298.859375 300.867188 278.3125 299.207031 257.765625 297.546875 C 258.390625 296.925781 259.429688 295.46875 260.878906 295.054688 Z M 595.023438 586.996094 C 591.703125 591.355469 587.34375 589.28125 583.609375 586.582031 C 578.003906 582.425781 576.136719 576.820312 575.304688 570.382812 C 579.871094 567.269531 583.402344 567.476562 586.722656 571.007812 C 588.589844 572.875 590.457031 574.746094 592.324219 576.40625 C 595.644531 579.3125 597.929688 583.257812 595.023438 586.996094 Z M 624.078125 570.382812 C 622.832031 572.253906 621.589844 576.199219 619.304688 577.027344 C 617.230469 577.859375 613.285156 576.199219 611.210938 574.328125 C 608.304688 571.628906 605.816406 568.308594 604.15625 564.777344 C 603.324219 562.910156 603.53125 559.171875 604.777344 557.71875 C 606.023438 556.265625 609.757812 555.851562 611.625 556.679688 C 617.4375 558.964844 622.210938 562.910156 624.078125 570.382812 Z M 467.800781 481.722656 C 472.78125 498.957031 482.328125 512.867188 497.0625 523.457031 C 519.683594 539.652344 545.210938 546.089844 572.609375 545.882812 C 576.964844 545.882812 581.324219 546.089844 585.890625 545.46875 C 601.042969 544.222656 614.324219 539.03125 625.117188 527.402344 C 633.417969 518.476562 639.023438 508.300781 643.378906 497.089844 C 648.777344 483.175781 652.511719 468.640625 652.304688 453.691406 C 651.890625 427.527344 645.246094 403.234375 629.683594 381.640625 C 615.984375 362.746094 598.34375 351.53125 575.097656 349.457031 C 565.34375 348.625 555.382812 347.378906 545.628906 345.925781 C 528.402344 343.433594 512.835938 346.964844 500.796875 359.839844 C 490.835938 370.636719 479.007812 380.1875 473.195312 394.308594 C 470.082031 401.574219 465.933594 408.839844 464.269531 416.523438 C 461.574219 429.8125 458.667969 443.515625 461.78125 457.222656 C 463.648438 465.320312 465.515625 473.625 467.800781 481.722656 Z M 544.175781 450.160156 C 543.550781 449.746094 543.136719 448.914062 541.476562 447.046875 C 549.984375 447.671875 557.25 448.292969 564.515625 448.707031 C 576.136719 449.332031 581.324219 446.425781 585.683594 435.835938 C 593.15625 418.183594 600.210938 400.328125 607.683594 381.433594 C 610.382812 383.71875 613.285156 385.585938 615.15625 388.285156 C 631.550781 410.710938 639.4375 436.042969 636.53125 464.074219 C 635.078125 478.402344 628.023438 490.445312 621.796875 503.109375 C 611.832031 523.457031 594.816406 528.855469 573.851562 527.820312 C 561.195312 527.195312 549.15625 525.121094 537.742188 521.589844 C 543.136719 506.640625 548.117188 492.726562 552.890625 478.816406 C 557.871094 463.867188 556.421875 459.714844 544.175781 450.160156 Z M 802.773438 479.023438 C 800.074219 460.128906 794.679688 442.269531 782.433594 427.527344 C 775.585938 419.636719 766.867188 412.996094 759.601562 406.351562 C 778.90625 399.914062 791.980469 387.039062 794.886719 364.199219 C 797.582031 341.566406 793.640625 320.386719 784.507812 300.039062 C 777.453125 284.257812 768.113281 270.347656 751.507812 262.871094 C 745.074219 259.964844 738.226562 257.472656 730.960938 254.566406 C 734.285156 251.867188 737.605469 249.582031 740.507812 246.882812 C 749.226562 238.785156 755.867188 228.820312 758.566406 217.398438 C 761.679688 204.730469 761.265625 191.859375 757.113281 179.191406 C 751.925781 163.410156 744.867188 148.667969 730.960938 138.703125 C 711.246094 124.582031 689.871094 126.246094 668.285156 134.136719 C 661.019531 136.625 653.964844 139.117188 645.871094 141.816406 C 646.699219 139.324219 647.117188 138.082031 647.53125 137.042969 C 657.492188 116.484375 653.34375 96.761719 644.832031 77.035156 C 641.097656 68.730469 634.664062 63.121094 627.8125 57.515625 C 610.382812 42.773438 591.285156 37.789062 569.289062 45.472656 C 555.589844 50.25 543.96875 58.347656 532.96875 67.691406 C 526.742188 72.882812 520.722656 78.074219 514.082031 83.886719 C 514.082031 81.808594 513.875 80.773438 514.082031 79.527344 C 516.78125 57.515625 512.835938 36.960938 500.382812 18.480469 C 492.914062 7.476562 482.742188 0 468.835938 1.246094 C 459.914062 2.078125 450.78125 3.324219 442.273438 6.230469 C 417.78125 14.328125 399.101562 29.070312 390.386719 54.402344 C 387.273438 63.328125 383.953125 72.050781 380.425781 81.601562 C 379.386719 78.695312 378.765625 76.617188 377.933594 74.335938 C 367.972656 48.171875 350.332031 29.691406 323.144531 22.011719 C 309.238281 18.066406 296.164062 22.632812 283.296875 29.898438 C 255.277344 46.097656 243.863281 67.898438 249.050781 99.460938 C 249.257812 101.121094 248.011719 102.78125 246.769531 106.519531 C 242.410156 101.742188 239.710938 98.003906 236.390625 94.683594 C 224.144531 82.640625 208.582031 80.773438 192.597656 81.1875 C 180.148438 81.394531 168.316406 85.546875 158.355469 93.023438 C 144.035156 103.820312 131.375 115.863281 125.980469 134.136719 C 119.960938 154.277344 116.015625 173.792969 129.921875 192.480469 C 130.753906 193.519531 130.753906 194.972656 131.582031 197.464844 C 124.941406 196.632812 119.128906 194.765625 113.527344 195.386719 C 88.621094 198.710938 66.828125 208.261719 52.714844 230.0625 C 40.472656 248.75 31.132812 268.683594 30.71875 291.734375 C 30.507812 305.4375 34.039062 317.6875 46.074219 326.199219 C 49.394531 328.484375 52.09375 331.808594 56.035156 335.335938 C 51.886719 338.035156 47.734375 340.113281 44.621094 343.226562 C 35.699219 351.53125 25.113281 359.007812 19.09375 369.183594 C 9.546875 385.171875 5.1875 403.234375 5.398438 422.546875 C 5.398438 439.78125 8.511719 455.769531 15.566406 471.132812 C 22 485.460938 33.207031 491.273438 47.113281 494.390625 C 50.640625 495.011719 54.167969 495.632812 58.113281 496.464844 C 39.226562 522.003906 26.566406 548.996094 33 580.558594 C 39.433594 612.328125 59.359375 633.714844 90.28125 645.34375 C 88.621094 648.664062 87.375 651.570312 85.714844 654.269531 C 78.035156 666.9375 78.035156 680.226562 82.601562 693.929688 C 89.867188 715.316406 104.601562 729.644531 125.355469 737.535156 C 135.316406 741.269531 145.902344 742.308594 155.863281 736.496094 C 158.976562 734.628906 162.714844 733.589844 166.035156 732.136719 C 166.863281 739.609375 167.695312 746.253906 168.109375 752.898438 C 168.730469 766.1875 174.957031 776.570312 184.710938 784.667969 C 204.84375 801.070312 228.503906 804.394531 253.410156 800.242188 C 259.636719 799.203125 266.070312 797.957031 271.878906 795.257812 C 289.3125 787.160156 303.011719 775.117188 312.972656 758.503906 C 314.011719 756.636719 315.878906 755.183594 317.953125 752.691406 C 318.578125 759.128906 319.40625 764.113281 319.824219 769.304688 C 320.859375 779.476562 325.632812 787.367188 332.898438 794.425781 C 343.691406 804.808594 357.59375 805.433594 371.085938 807.507812 C 374.613281 807.921875 377.933594 809.167969 381.460938 810 C 388.933594 810 396.613281 810 404.292969 809.792969 C 407.40625 808.546875 410.3125 806.886719 413.632812 806.261719 C 431.6875 802.316406 446.214844 793.804688 455.140625 777.191406 C 459.914062 768.058594 464.0625 758.503906 468.214844 749.992188 C 471.949219 759.542969 475.6875 770.132812 479.628906 780.515625 C 485.441406 796.296875 499.761719 800.65625 513.25 806.054688 C 515.949219 807.09375 518.230469 808.339844 520.722656 809.585938 L 531.308594 809.585938 C 538.777344 807.921875 546.25 806.46875 553.722656 804.601562 C 560.15625 803.148438 567.003906 802.109375 572.816406 799.203125 C 596.269531 787.992188 615.777344 771.792969 627.8125 748.332031 C 632.585938 738.570312 634.25 727.359375 637.359375 716.355469 C 637.777344 716.5625 639.644531 717.394531 640.683594 718.640625 C 650.644531 731.511719 664.132812 737.535156 679.699219 741.6875 C 699.625 746.878906 718.511719 743.972656 735.734375 734.628906 C 754 724.867188 769.980469 711.996094 779.941406 692.269531 C 786.792969 679.1875 789.90625 665.898438 790.113281 651.363281 C 790.320312 629.144531 783.261719 609.214844 772.472656 590.734375 C 767.28125 581.804688 759.394531 574.539062 752.753906 566.4375 C 751.09375 564.570312 749.433594 562.703125 747.566406 560.417969 C 752.960938 558.964844 757.941406 557.09375 762.925781 556.265625 C 780.980469 553.359375 788.660156 539.652344 795.714844 525.328125 C 800.695312 515.566406 802.355469 504.976562 802.773438 494.179688 C 802.980469 493.558594 803.808594 492.933594 804.433594 492.3125 L 804.433594 483.589844 C 803.808594 482.136719 802.980469 480.683594 802.773438 479.023438 Z M 749.847656 279.691406 C 758.359375 285.089844 764.167969 292.980469 767.699219 301.90625 C 772.472656 313.949219 777.246094 326.617188 779.113281 339.28125 C 780.773438 349.871094 781.808594 361.292969 776.828125 372.089844 C 771.640625 383.300781 757.734375 392.4375 745.28125 391.605469 C 725.773438 390.152344 706.472656 388.492188 687.378906 387.039062 C 684.265625 369.804688 681.152344 354.230469 678.246094 339.074219 C 700.039062 336.375 720.378906 346.757812 741.753906 344.472656 C 742.378906 343.644531 742.792969 342.8125 743.414062 341.980469 C 741.753906 339.90625 740.300781 336.582031 738.226562 335.960938 C 725.980469 332.636719 713.527344 328.902344 700.867188 327.238281 C 692.773438 326.199219 684.472656 328.691406 676.792969 329.523438 C 671.8125 314.367188 666.832031 298.378906 661.4375 281.558594 C 676.378906 278.027344 691.113281 274.292969 705.851562 270.96875 C 721.625 267.4375 736.359375 270.761719 749.847656 279.691406 Z M 700.867188 404.066406 C 695.679688 405.3125 692.359375 405.933594 688.625 407.179688 C 688.207031 404.480469 688.207031 402.613281 687.792969 399.707031 C 691.945312 400.949219 695.265625 402.195312 700.867188 404.066406 Z M 668.699219 150.746094 C 678.871094 146.386719 689.246094 143.269531 700.660156 143.6875 C 712.699219 144.101562 721.414062 149.292969 728.886719 158.222656 C 742.792969 174.625 746.320312 193.726562 743.414062 214.074219 C 741.960938 223.628906 734.699219 231.308594 727.019531 237.125 C 714.980469 246.46875 700.867188 251.449219 686.132812 254.773438 C 675.339844 257.265625 665.171875 261.210938 654.171875 264.738281 C 646.90625 254.148438 639.230469 242.9375 631.136719 230.894531 C 647.324219 220.71875 663.925781 210.546875 680.324219 200.164062 C 682.191406 198.917969 683.433594 196.84375 685.097656 195.179688 C 684.886719 194.351562 684.472656 193.726562 684.265625 192.898438 C 681.152344 192.898438 677.417969 191.859375 674.71875 193.105469 C 662.265625 199.125 649.8125 205.355469 637.570312 212.207031 C 632.796875 214.90625 629.058594 219.265625 624.078125 223.417969 C 614.53125 216.359375 604.363281 208.675781 593.984375 200.785156 C 595.023438 199.125 595.4375 197.257812 596.683594 196.21875 C 608.929688 186.042969 619.511719 173.792969 634.039062 166.527344 C 645.457031 160.921875 657.078125 155.730469 668.699219 150.746094 Z M 516.988281 103.195312 C 530.269531 84.71875 546.457031 69.558594 567.003906 59.386719 C 586.511719 49.625 604.570312 54.195312 619.929688 67.898438 C 633.625 80.148438 637.359375 95.515625 637.570312 112.539062 C 637.777344 125.414062 631.136719 136.210938 623.039062 145.140625 C 609.757812 159.675781 595.023438 172.753906 580.910156 186.667969 C 577.382812 190.199219 574.0625 189.367188 570.53125 187.5 C 559.949219 182.308594 549.570312 177.117188 537.949219 171.300781 C 541.890625 165.074219 545.628906 158.011719 550.402344 151.785156 C 556.003906 144.308594 562.644531 137.664062 568.25 130.191406 C 569.910156 128.113281 571.363281 123.753906 570.324219 122.09375 C 568.042969 118.5625 564.515625 120.847656 562.230469 123.128906 C 553.097656 132.890625 543.761719 142.441406 534.835938 152.40625 C 531.101562 156.769531 528.402344 162.167969 525.082031 167.355469 C 511.175781 162.996094 497.6875 158.84375 482.328125 153.652344 C 485.027344 149.085938 486.894531 144.515625 489.800781 140.570312 C 498.722656 127.90625 507.855469 115.65625 516.988281 103.195312 Z M 394.121094 94.890625 C 396.199219 82.847656 399.933594 70.804688 403.875 58.96875 C 410.3125 39.660156 424.632812 27.410156 442.480469 19.726562 C 449.949219 16.609375 458.046875 14.949219 466.140625 13.910156 C 476.308594 12.667969 484.816406 16.609375 489.589844 25.953125 C 493.535156 33.429688 497.269531 41.320312 498.929688 49.417969 C 502.667969 67.691406 499.96875 85.960938 492.082031 102.988281 C 488.140625 111.503906 482.742188 119.183594 477.96875 127.074219 C 472.988281 135.378906 467.800781 143.480469 462.195312 152.199219 C 452.441406 150.332031 441.855469 148.046875 430.027344 145.761719 C 433.761719 134.550781 436.875 123.128906 441.234375 112.332031 C 452.234375 85.339844 452.441406 85.546875 447.875 78.074219 C 432.933594 99.042969 423.800781 121.054688 416.328125 144.722656 C 408.027344 144.308594 399.3125 143.894531 389.554688 143.480469 C 391.007812 126.660156 391.632812 110.671875 394.121094 94.890625 Z M 378.972656 156.351562 C 388.105469 154.898438 394.539062 160.921875 400.765625 165.695312 C 417.160156 178.363281 431.273438 193.519531 444.140625 209.921875 C 455.761719 224.457031 468.421875 238.164062 480.253906 252.488281 C 491.042969 265.777344 501.214844 279.480469 511.796875 292.980469 C 513.457031 295.261719 516.15625 296.925781 518.441406 299 C 519.269531 298.792969 520.101562 298.378906 520.929688 298.167969 C 521.136719 294.640625 522.175781 290.902344 521.136719 287.996094 C 519.269531 283.011719 516.570312 278.027344 513.042969 273.667969 C 493.742188 249.789062 474.855469 225.703125 454.722656 202.449219 C 440.820312 186.253906 425.253906 171.511719 410.519531 156.144531 C 422.554688 154.898438 434.800781 158.222656 447.253906 160.296875 C 454.722656 161.542969 461.367188 164.242188 467.382812 169.433594 C 477.96875 178.363281 489.382812 186.042969 499.96875 194.765625 C 518.441406 210.132812 534.003906 227.78125 540.230469 251.867188 C 543.96875 265.570312 548.324219 279.273438 551.230469 293.1875 C 553.308594 302.738281 553.515625 312.703125 551.644531 324.332031 C 538.15625 321.839844 525.703125 320.386719 514.082031 317.273438 C 470.082031 305.230469 426.292969 291.734375 385.40625 271.175781 C 362.992188 259.964844 342.652344 245.429688 326.464844 226.328125 C 319.613281 218.230469 313.804688 209.09375 309.859375 199.542969 C 304.878906 187.082031 302.804688 183.96875 312.972656 166.734375 C 334.558594 163.410156 356.765625 159.882812 378.972656 156.351562 Z M 286.617188 45.058594 C 292.632812 42.152344 298.652344 38.621094 305.085938 37.375 C 325.011719 33.636719 339.539062 44.019531 351.160156 58.347656 C 367.140625 78.28125 373.160156 101.949219 373.160156 127.28125 C 373.160156 133.097656 372.539062 138.910156 372.121094 144.933594 C 357.179688 147.007812 343.273438 148.878906 329.160156 150.953125 C 325.21875 129.566406 320.859375 109.011719 310.484375 89.492188 C 304.464844 95.097656 307.578125 99.875 308.613281 104.234375 C 311.9375 118.769531 315.671875 133.097656 318.992188 147.632812 C 319.40625 149.292969 318.992188 150.953125 318.992188 152.613281 C 306.539062 156.144531 294.292969 159.46875 281.21875 163.203125 C 274.371094 138.910156 266.484375 114.824219 260.878906 90.117188 C 256.9375 72.464844 271.671875 52.324219 286.617188 45.058594 Z M 138.429688 147.007812 C 144.449219 125.621094 156.902344 110.464844 175.789062 101.121094 C 193.429688 92.605469 218.128906 93.4375 232.238281 111.292969 C 246.351562 128.945312 258.804688 147.214844 267.523438 168.394531 C 259.429688 172.546875 251.75 176.492188 243.65625 180.644531 C 230.785156 165.695312 219.371094 149.707031 202.976562 137.042969 C 200.070312 143.269531 202.976562 146.59375 205.882812 150.332031 C 215.222656 162.167969 224.5625 174.210938 233.277344 185.421875 C 217.917969 198.085938 203.183594 210.132812 188.449219 222.175781 C 178.488281 214.90625 168.316406 206.601562 157.316406 199.332031 C 142.789062 189.78125 133.035156 166.113281 138.429688 147.007812 Z M 53.546875 312.289062 C 50.433594 309.382812 47.527344 305.4375 46.90625 301.699219 C 45.660156 292.355469 45.039062 283.011719 49.1875 274.082031 C 54.585938 262.664062 59.148438 250.621094 65.167969 239.40625 C 73.886719 223.003906 89.242188 215.320312 106.261719 210.753906 C 123.28125 206.1875 138.636719 210.960938 153.375 219.058594 C 162.507812 224.042969 171.222656 230.0625 180.148438 235.671875 C 174.128906 246.675781 167.902344 257.679688 161.675781 268.894531 C 144.863281 262.457031 128.261719 258.71875 110.414062 259.964844 C 110.207031 265.363281 113.320312 266.195312 117.054688 267.230469 C 130.335938 270.761719 143.410156 274.5 157.109375 278.445312 C 150.882812 294.433594 145.28125 309.175781 138.847656 324.539062 C 123.074219 325.371094 107.09375 327.445312 91.113281 326.824219 C 77.414062 326.410156 64.132812 322.046875 53.546875 312.289062 Z M 40.679688 474.871094 C 35.90625 472.792969 30.71875 467.8125 28.847656 462.828125 C 23.453125 449.125 19.507812 434.796875 21.171875 419.429688 C 22.832031 405.519531 23.453125 391.605469 30.507812 378.941406 C 39.226562 363.367188 50.847656 351.117188 68.90625 346.964844 C 76.167969 345.304688 83.847656 345.71875 91.320312 345.304688 C 99.621094 345.097656 108.128906 344.886719 116.429688 344.679688 L 133.65625 344.679688 C 130.960938 359.421875 128.46875 373.335938 125.769531 387.453125 C 104.1875 390.152344 81.980469 393.683594 64.339844 409.464844 C 62.261719 411.125 61.433594 414.238281 60.1875 416.523438 C 60.601562 417.148438 61.226562 417.976562 61.640625 418.601562 C 64.132812 417.5625 67.246094 417.148438 69.527344 415.695312 C 85.507812 405.105469 103.355469 400.949219 122.449219 400.328125 L 122.449219 463.867188 C 113.320312 462.203125 105.222656 462.828125 97.546875 467.394531 C 91.527344 471.132812 85.09375 474.664062 78.453125 477.363281 C 74.300781 479.023438 69.527344 480.476562 65.167969 480.0625 C 56.867188 479.230469 48.359375 477.984375 40.679688 474.871094 Z M 72.226562 617.101562 C 63.714844 612.535156 59.148438 604.023438 53.546875 596.546875 C 43.792969 583.671875 42.960938 568.722656 45.660156 553.773438 C 49.601562 532.179688 60.601562 513.90625 77 499.371094 C 79.695312 497.089844 83.433594 496.050781 86.753906 494.390625 C 95.46875 489.820312 104.394531 485.253906 113.109375 480.683594 C 116.429688 479.023438 119.335938 476.945312 123.488281 474.246094 C 125.5625 489.820312 127.640625 504.148438 129.507812 518.476562 L 129.300781 525.949219 L 129.300781 526.574219 C 129.300781 527.609375 129.300781 528.441406 129.300781 529.480469 C 125.980469 529.480469 121.828125 528.027344 119.128906 529.480469 C 103.355469 537.785156 88.828125 548.167969 77 561.457031 C 74.714844 564.15625 72.226562 567.0625 78.242188 570.382812 C 83.433594 566.441406 88.828125 562.078125 94.640625 558.132812 C 106.054688 550.660156 117.675781 543.808594 129.300781 536.539062 L 129.507812 536.746094 C 130.542969 537.578125 131.582031 538.199219 132.621094 539.03125 L 133.863281 539.863281 C 136.5625 550.242188 138.847656 560.832031 141.75 571.007812 C 144.242188 579.9375 147.769531 588.65625 150.675781 597.171875 C 144.863281 604.023438 139.675781 610.667969 134.074219 616.894531 C 132.621094 618.347656 130.128906 618.972656 128.054688 620.011719 C 122.035156 622.710938 116.222656 625.824219 109.996094 628.109375 C 106.675781 629.355469 102.527344 630.808594 99.828125 629.769531 C 90.28125 626.238281 81.148438 621.878906 72.226562 617.101562 Z M 162.921875 714.277344 C 145.488281 727.773438 134.902344 727.152344 118.921875 717.808594 C 107.507812 711.164062 100.867188 700.574219 96.300781 688.945312 C 93.1875 681.265625 94.015625 673.582031 98.789062 666.3125 C 105.433594 656.347656 111.449219 646.796875 124.316406 642.851562 C 136.769531 638.90625 151.089844 624.578125 158.976562 611.496094 C 173.714844 634.753906 193.84375 650.535156 217.503906 663.199219 C 211.070312 669.636719 205.675781 675.65625 199.863281 681.054688 C 187.824219 692.269531 175.996094 704.105469 162.921875 714.277344 Z M 304.878906 741.6875 C 293.671875 762.867188 277.070312 779.476562 252.578125 783.835938 C 232.238281 787.574219 212.316406 786.746094 194.46875 773.039062 C 183.882812 764.941406 183.050781 753.730469 182.429688 742.515625 C 181.601562 728.605469 188.035156 716.769531 197.371094 707.21875 C 208.164062 696.214844 219.789062 686.246094 231.410156 676.074219 C 232.863281 674.621094 236.390625 674.203125 238.464844 674.828125 C 250.710938 677.734375 262.75 681.265625 274.992188 684.585938 C 268.351562 697.042969 261.503906 709.085938 255.277344 721.339844 C 251.542969 728.605469 248.636719 736.289062 245.9375 743.972656 C 245.316406 746.046875 246.769531 748.746094 247.183594 751.652344 C 255.070312 747.914062 282.050781 701.195312 285.578125 686.246094 C 297.824219 689.152344 310.066406 691.851562 323.765625 694.96875 C 317.332031 711.164062 312.558594 727.152344 304.878906 741.6875 Z M 448.707031 756.84375 C 442.066406 774.910156 430.441406 787.78125 409.6875 791.3125 C 388.933594 794.636719 368.59375 794.636719 348.671875 787.78125 C 339.539062 784.667969 334.972656 778.230469 333.3125 768.472656 C 329.785156 747.707031 332.484375 727.359375 336.632812 707.011719 C 337.257812 703.898438 337.878906 700.78125 338.5 697.042969 C 357.179688 699.121094 375.027344 701.195312 392.253906 703.273438 L 392.253906 749.992188 C 392.046875 754.144531 391.007812 759.335938 396.820312 759.542969 C 402.425781 759.75 402.007812 754.144531 402.425781 750.199219 C 403.046875 741.894531 403.667969 733.796875 404.085938 725.699219 C 404.5 718.429688 404.707031 711.164062 405.121094 703.273438 C 421.101562 702.441406 436.667969 701.613281 452.855469 700.78125 C 454.101562 720.09375 455.347656 738.988281 448.707031 756.84375 Z M 457.835938 685 C 423.179688 690.191406 388.519531 689.152344 354.066406 684.585938 C 327.5 681.054688 300.9375 676.074219 274.785156 669.84375 C 247.597656 663.40625 222.484375 650.742188 200.484375 633.507812 C 182.015625 619.179688 169.355469 599.871094 160.84375 577.652344 C 151.921875 554.605469 146.734375 530.933594 142.789062 507.054688 C 139.46875 487.121094 138.222656 466.980469 137.394531 446.839844 C 136.769531 430.4375 136.5625 413.824219 138.847656 397.835938 C 142.375 371.882812 147.976562 346.132812 155.863281 320.800781 C 163.128906 297.132812 173.503906 274.914062 184.710938 253.113281 C 193.222656 236.292969 205.46875 222.382812 221.03125 211.167969 C 238.882812 198.296875 257.144531 186.460938 277.691406 178.363281 C 283.085938 176.285156 288.691406 174.625 295.125 172.546875 C 295.125 181.0625 293.878906 188.742188 295.332031 195.804688 C 296.785156 203.070312 300.105469 210.128906 303.632812 216.773438 C 312.765625 234.007812 326.671875 247.503906 341.613281 259.339844 C 356.140625 270.761719 372.332031 280.105469 389.554688 287.371094 C 433.347656 305.851562 478.175781 320.386719 523.835938 333.261719 C 530.683594 335.335938 537.949219 337 545.003906 337.828125 C 562.855469 339.699219 566.796875 330.976562 567.003906 316.441406 L 567.003906 308.550781 C 575.722656 308.550781 584.230469 308.34375 593.777344 308.96875 C 597.304688 308.96875 601.042969 309.796875 604.363281 308.96875 C 607.269531 308.136719 611.003906 305.851562 612.042969 303.359375 C 612.871094 301.285156 611.417969 296.507812 609.550781 295.054688 C 603.945312 290.902344 597.929688 287.164062 591.496094 284.464844 C 582.15625 280.726562 572.191406 278.027344 561.609375 274.5 C 551.648438 229.441406 528.816406 192.273438 485.234375 169.847656 C 485.441406 169.226562 485.855469 168.8125 486.0625 168.1875 C 495.195312 170.886719 504.328125 173.171875 513.25 176.285156 C 537.535156 184.796875 561.402344 194.765625 583.402344 208.054688 C 598.34375 216.984375 612.664062 227.15625 623.664062 241.277344 C 628.851562 247.921875 634.664062 253.941406 640.265625 260.171875 C 641.511719 261.417969 642.34375 262.871094 642.964844 264.53125 C 645.871094 271.59375 649.191406 278.445312 651.472656 285.710938 C 661.851562 318.519531 671.398438 351.742188 674.511719 386.207031 C 676.378906 408.011719 679.078125 430.019531 678.871094 451.824219 C 678.453125 480.890625 676.585938 510.167969 673.265625 539.03125 C 671.191406 555.226562 666.210938 571.628906 659.984375 586.789062 C 655.210938 598.625 647.117188 609.421875 638.605469 619.386719 C 612.664062 649.910156 576.964844 664.03125 539.195312 672.335938 C 512.421875 678.148438 485.027344 680.847656 457.835938 685 Z M 563.890625 283.636719 C 573.851562 288.203125 582.15625 291.734375 590.457031 295.46875 C 590.25 295.886719 590.25 296.300781 590.042969 296.714844 L 565.96875 296.714844 C 565.34375 293.1875 564.722656 289.449219 563.890625 283.636719 Z M 600.417969 760.375 C 590.871094 770.339844 579.457031 777.816406 567.210938 784.046875 C 557.042969 789.234375 545.835938 790.480469 534.628906 791.726562 C 523.214844 793.179688 513.042969 790.273438 503.910156 784.460938 C 499.761719 781.96875 495.609375 777.609375 493.949219 773.039062 C 484.816406 748.953125 477.761719 724.453125 475.0625 697.875 C 496.234375 694.136719 516.78125 690.609375 537.324219 687.492188 C 547.703125 709.296875 551.4375 734.003906 561.402344 756.222656 C 569.078125 754.976562 568.871094 750.617188 567.835938 746.671875 C 562.644531 727.773438 557.042969 709.085938 551.4375 690.398438 C 550.816406 688.738281 550.609375 687.078125 550.195312 685 C 567.835938 678.355469 584.851562 671.921875 602.496094 665.277344 C 610.378906 681.265625 616.816406 697.667969 619.097656 715.316406 C 621.589844 733.796875 612.25 747.914062 600.417969 760.375 Z M 765.414062 608.589844 C 775.167969 630.808594 780.773438 653.855469 772.261719 677.941406 C 765.621094 696.421875 751.300781 708.464844 735.320312 719.261719 C 715.398438 732.757812 694.433594 732.964844 672.644531 725.699219 C 661.851562 722.167969 654.171875 714.070312 647.945312 705.351562 C 640.683594 695.382812 635.492188 683.753906 629.476562 672.957031 C 626.152344 666.9375 622.832031 660.914062 620.136719 656.140625 C 634.25 642.226562 646.699219 630.183594 659.777344 617.726562 C 678.660156 630.601562 689.871094 653.441406 707.09375 669.636719 C 713.113281 665.898438 713.527344 662.578125 710.625 658.421875 C 699.625 642.644531 689.660156 626.03125 674.71875 613.367188 C 671.8125 610.875 668.699219 608.796875 665.171875 605.890625 C 676.585938 587.828125 683.226562 567.683594 686.546875 546.921875 C 696.304688 550.242188 706.265625 552.113281 714.773438 556.886719 C 724.945312 562.496094 733.867188 569.96875 743 577.027344 C 753.792969 585.128906 760.226562 596.546875 765.414062 608.589844 Z M 786.582031 503.941406 C 784.921875 512.867188 780.980469 520.964844 773.714844 527.195312 C 756.90625 541.316406 738.640625 546.089844 717.472656 538.617188 C 707.925781 535.292969 697.964844 533.21875 688.417969 530.519531 C 689.871094 512.867188 691.113281 496.257812 692.566406 478.609375 C 697.753906 479.230469 702.320312 479.644531 706.886719 480.269531 C 716.019531 481.515625 724.945312 482.554688 733.867188 484.007812 C 738.847656 484.835938 741.753906 483.382812 742.792969 476.738281 C 726.8125 470.925781 710.207031 468.019531 692.566406 466.980469 C 691.53125 450.578125 690.699219 434.382812 689.660156 416.523438 C 696.71875 415.902344 703.359375 415.070312 710.207031 414.65625 C 721.207031 413.824219 731.792969 413.410156 743 416.109375 C 762.09375 420.46875 772.472656 433.34375 779.734375 450.160156 C 787.207031 467.394531 789.90625 485.460938 786.582031 503.941406 Z M 377.3125 518.265625 C 383.121094 506.433594 385.820312 493.558594 385.199219 480.0625 C 383.746094 460.542969 381.878906 441.027344 372.746094 423.375 C 366.726562 412.578125 361.125 401.367188 351.785156 392.4375 C 343.066406 384.339844 335.386719 374.996094 327.292969 366.277344 C 325.632812 364.613281 323.765625 362.953125 321.691406 362.332031 C 312.351562 359.632812 302.804688 356.933594 293.050781 354.855469 C 288.070312 353.609375 282.671875 352.777344 277.484375 353.402344 C 264.824219 354.855469 252.371094 355.894531 239.710938 359.421875 C 222.484375 364.199219 211.902344 375.828125 203.804688 389.117188 C 192.597656 407.59375 187.824219 428.773438 191.148438 450.785156 C 193.429688 466.980469 196.957031 482.96875 199.863281 498.957031 C 203.390625 518.683594 212.730469 534.253906 229.125 545.882812 C 243.863281 556.265625 260.257812 562.285156 277.898438 561.871094 C 309.03125 561.039062 337.878906 551.488281 363.820312 534.046875 C 369.21875 530.101562 374.40625 524.289062 377.3125 518.265625 Z M 345.140625 522.835938 C 325.425781 532.386719 305.292969 540.898438 282.878906 542.351562 C 281.21875 542.5625 279.351562 542.5625 277.691406 542.5625 C 276.652344 542.5625 275.410156 542.144531 273.957031 541.730469 C 278.523438 529.6875 282.464844 517.851562 287.445312 506.433594 C 295.125 489.199219 289.519531 476.738281 275.617188 466.148438 C 272.917969 464.074219 270.84375 461.375 268.351562 458.882812 C 268.765625 458.257812 269.183594 457.636719 269.597656 457.015625 C 275.824219 458.050781 282.257812 459.089844 288.070312 460.542969 C 297.199219 462.203125 304.671875 459.089844 307.785156 450.371094 C 314.425781 432.097656 320.03125 413.824219 326.046875 395.550781 C 326.671875 393.683594 326.671875 391.609375 327.085938 388.699219 C 328.953125 390.363281 330.613281 391.398438 331.859375 392.851562 C 343.691406 406.558594 354.066406 421.714844 359.878906 438.742188 C 364.238281 450.992188 364.652344 464.902344 365.480469 478.191406 C 365.898438 485.253906 364.238281 492.519531 362.785156 499.578125 C 360.707031 509.960938 355.3125 518.058594 345.140625 522.835938 Z M 263.992188 589.902344 C 267.3125 593.226562 269.597656 597.585938 273.125 602.359375 C 270.425781 606.304688 268.976562 611.082031 266.070312 612.535156 C 261.503906 614.820312 259.011719 610.25 257.144531 606.515625 C 255.484375 603.191406 253.617188 599.453125 253.410156 595.925781 C 253.203125 593.640625 255.070312 590.316406 257.144531 589.070312 C 258.597656 588.035156 262.75 588.449219 263.992188 589.902344 Z M 182.429688 648.457031 C 179.730469 650.742188 177.242188 653.023438 174.542969 655.101562 C 167.902344 660.292969 161.46875 665.691406 154.828125 670.882812 C 153.582031 671.921875 152.335938 673.582031 150.882812 673.996094 C 148.808594 674.621094 146.523438 674.203125 144.449219 674.203125 C 144.65625 672.128906 143.828125 669.222656 144.863281 667.976562 C 150.261719 661.539062 156.070312 655.515625 162.296875 649.910156 C 165.410156 647.210938 169.5625 645.550781 173.296875 643.679688 C 177.035156 641.8125 179.9375 643.058594 182.429688 648.457031 Z M 540.4375 607.34375 C 540.230469 604.851562 538.988281 602.359375 537.742188 600.078125 C 535.042969 595.507812 531.929688 591.148438 529.230469 586.789062 C 524.875 579.726562 523.628906 572.460938 527.15625 564.363281 C 528.816406 560.417969 528.816406 555.851562 529.855469 550.453125 C 525.910156 550.867188 523.003906 550.453125 522.175781 551.695312 C 517.195312 558.132812 512.628906 564.777344 507.648438 571.839844 L 499.761719 571.839844 C 476.515625 572.460938 453.0625 573.082031 429.820312 573.707031 C 426.914062 573.914062 424.007812 574.746094 421.101562 574.746094 C 401.386719 574.121094 381.667969 573.292969 361.953125 572.460938 C 358.21875 572.253906 354.273438 572.046875 350.746094 572.875 C 345.558594 574.328125 342.652344 572.875 340.160156 568.101562 C 337.878906 563.738281 335.179688 558.964844 327.085938 560.003906 C 326.671875 562.910156 325.839844 566.230469 325.632812 569.347656 C 325.839844 572.046875 327.710938 574.746094 327.917969 577.652344 C 328.746094 588.449219 329.371094 599.453125 330.199219 611.082031 C 335.59375 613.78125 339.539062 612.535156 341.40625 605.890625 C 343.066406 600.078125 343.898438 594.054688 344.933594 589.070312 L 388.519531 589.070312 C 390.386719 600.285156 391.21875 610.042969 393.5 619.59375 C 397.652344 636.207031 408.234375 648.664062 422.140625 657.800781 C 433.96875 665.484375 447.667969 664.238281 456.59375 656.761719 C 467.59375 647.625 474.027344 636 475.0625 622.085938 C 475.894531 610.875 474.441406 599.453125 473.820312 587.203125 L 511.382812 587.203125 C 511.796875 587.828125 512.421875 589.28125 513.25 590.316406 C 519.476562 598 525.703125 605.476562 532.34375 612.742188 C 533.589844 613.988281 537.117188 614.195312 538.570312 613.367188 C 540.023438 612.328125 540.648438 609.421875 540.4375 607.34375 Z M 455.96875 634.335938 C 453.480469 638.90625 449.949219 642.851562 446.007812 646.378906 C 440.820312 650.949219 434.800781 649.496094 429.613281 646.378906 C 416.328125 638.28125 408.027344 626.03125 404.5 610.875 C 403.046875 604.644531 402.839844 597.792969 402.007812 590.734375 C 409.894531 590.316406 416.328125 589.902344 424.007812 589.488281 C 424.632812 596.960938 424.839844 603.398438 425.460938 609.628906 C 425.875 614.402344 425.875 619.179688 427.328125 623.539062 C 427.953125 626.03125 431.066406 627.902344 433.140625 629.976562 C 435.214844 627.484375 438.953125 625.203125 439.160156 622.710938 C 439.988281 613.78125 439.367188 604.644531 439.367188 595.507812 C 439.367188 593.226562 439.574219 590.941406 439.78125 588.242188 C 447.253906 588.242188 454.101562 588.242188 461.574219 587.828125 C 461.78125 604.023438 464.480469 619.800781 455.96875 634.335938 Z M 406.160156 512.660156 C 402.839844 508.921875 405.328125 505.1875 408.648438 502.277344 C 413.421875 498.125 417.78125 493.144531 423.179688 489.820312 C 436.875 481.308594 450.160156 486.914062 458.460938 497.917969 C 461.988281 502.902344 460.742188 507.675781 454.308594 514.945312 C 451.613281 512.039062 448.914062 509.753906 447.046875 507.054688 C 443.308594 501.65625 438.535156 499.996094 432.726562 503.109375 C 427.328125 506.015625 422.140625 509.132812 417.160156 512.660156 C 413.214844 515.566406 409.273438 515.984375 406.160156 512.660156 Z M 229.957031 617.726562 C 227.050781 621.671875 223.316406 623.332031 219.789062 619.179688 C 216.882812 615.859375 215.222656 611.496094 212.316406 607.136719 C 215.015625 603.191406 216.464844 599.246094 219.371094 597.171875 C 221.03125 595.925781 225.183594 596.960938 227.257812 598.207031 C 230.996094 600.492188 232.449219 614.195312 229.957031 617.726562 Z M 229.957031 617.726562 "/>
</g>
</g>
</svg>
