<?xml version="1.0" encoding="UTF-8"?>
<svg xmlns="http://www.w3.org/2000/svg" xmlns:xlink="http://www.w3.org/1999/xlink" width="810pt" height="809.999993pt" viewBox="0 0 810 809.999993" version="1.2">
<defs>
<clipPath id="clip1">
  <path d="M 4 1 L 806.839844 1 L 806.839844 808 L 4 808 Z M 4 1 "/>
</clipPath>
</defs>
<g id="surface1">
<path style=" stroke:none;fill-rule:nonzero;fill:rgb(100%,100%,100%);fill-opacity:1;" d="M 254.175781 616.839844 C 241.265625 616.839844 229.996094 612.945312 219.132812 609.050781 L 217.085938 608.230469 C 180.40625 595.316406 165.242188 564.160156 173.4375 518.453125 C 177.125 497.957031 186.347656 485.246094 201.511719 479.917969 C 208.683594 477.253906 217.085938 475.613281 226.304688 475.410156 C 231.222656 475.203125 235.9375 476.226562 241.46875 477.253906 C 243.722656 477.664062 246.183594 478.277344 248.847656 478.6875 L 255.609375 479.710938 L 250.28125 484.015625 C 224.257812 505.335938 217.90625 536.078125 233.070312 566.210938 L 234.09375 568.261719 C 240.652344 581.171875 246.796875 593.472656 259.09375 601.875 C 261.140625 603.3125 262.167969 605.566406 263.398438 607.820312 C 264.011719 609.050781 264.421875 610.074219 265.242188 611.304688 L 267.496094 615.199219 L 262.988281 615.8125 C 259.707031 616.632812 256.839844 616.839844 254.175781 616.839844 Z M 526.921875 481.148438 L 528.152344 476.226562 L 523.234375 477.457031 C 505.40625 481.96875 490.855469 492.625 482.453125 507.589844 C 474.257812 522.140625 472.414062 539.359375 477.535156 555.960938 C 483.683594 576.253906 495.160156 591.421875 510.527344 599.621094 C 519.75 604.539062 530.199219 607 541.472656 607 C 550.28125 607 559.707031 605.566406 569.542969 602.492188 L 576.714844 600.234375 L 569.953125 596.75 C 525.898438 574 512.578125 538.335938 526.921875 481.148438 Z M 665.445312 600.644531 L 664.832031 603.105469 L 662.371094 603.105469 C 657.25 602.902344 652.125 602.695312 647.003906 602.285156 C 641.878906 602.082031 636.757812 601.875 631.636719 601.671875 C 628.152344 601.464844 624.871094 601.054688 621.59375 600.644531 L 614.421875 599.828125 L 618.726562 595.316406 C 632.453125 580.96875 641.0625 563.546875 644.339844 543.664062 C 646.183594 531.777344 647.414062 519.476562 644.339844 509.230469 C 636.960938 482.789062 619.953125 464.75 593.519531 455.117188 C 577.945312 449.582031 562.167969 449.582031 544.953125 455.320312 L 541.472656 456.347656 C 520.363281 463.316406 500.28125 470.078125 484.914062 486.273438 C 470.773438 501.234375 455.199219 521.730469 460.117188 548.582031 C 464.832031 575.230469 477.125 596.339844 496.59375 611.101562 C 507.863281 619.707031 519.542969 623.808594 533.070312 624.21875 C 539.421875 624.421875 545.980469 624.21875 552.332031 624.011719 C 554.378906 624.011719 556.632812 623.808594 558.683594 623.808594 L 565.652344 623.601562 L 561.144531 628.933594 C 560.527344 629.546875 559.914062 630.367188 559.296875 630.980469 C 557.453125 633.238281 555.40625 635.492188 553.355469 637.746094 C 539.421875 651.890625 525.691406 667.261719 523.027344 687.757812 C 520.980469 703.335938 521.796875 719.734375 522.617188 735.519531 L 522.824219 741.050781 C 523.027344 744.332031 524.871094 747.609375 526.921875 750.890625 C 527.742188 752.324219 528.765625 753.761719 529.378906 755.398438 L 531.019531 758.472656 L 527.742188 759.703125 C 526.101562 760.320312 524.667969 760.933594 523.027344 761.550781 C 518.929688 763.1875 514.832031 764.625 510.324219 765.648438 C 506.632812 766.46875 502.945312 767.289062 499.257812 768.3125 C 487.167969 771.183594 474.460938 774.257812 461.960938 775.691406 C 459.296875 776.101562 456.632812 776.308594 453.765625 776.71875 C 436.757812 778.765625 419.542969 780.816406 402.125 780.816406 C 392.085938 780.816406 382.042969 780.203125 372.003906 778.355469 C 362.78125 776.71875 353.355469 775.28125 344.132812 773.847656 C 328.96875 771.59375 313.191406 769.132812 297.824219 765.445312 C 286.960938 762.984375 276.714844 758.269531 266.878906 753.761719 C 262.78125 751.914062 258.480469 749.867188 254.175781 748.226562 L 249.460938 746.382812 L 253.355469 743.101562 C 260.117188 737.363281 265.242188 733.058594 264.832031 724.039062 C 262.78125 688.785156 250.28125 660.496094 226.921875 637.335938 L 220.976562 631.390625 L 229.175781 632.007812 C 233.480469 632.210938 237.578125 632.621094 241.675781 633.03125 C 251.304688 633.851562 261.140625 634.875 270.980469 634.671875 C 299.667969 633.644531 321.59375 619.09375 331.632812 594.292969 C 350.078125 548.171875 329.585938 495.90625 285.117188 475.40625 C 274.871094 470.695312 264.421875 468.847656 253.355469 467.003906 C 247.207031 465.980469 240.652344 464.75 234.296875 463.109375 C 214.011719 457.78125 194.953125 463.519531 177.945312 480.121094 C 157.25 500.003906 150.078125 526.242188 155.199219 562.519531 C 157.660156 579.328125 166.058594 594.703125 180.609375 608.230469 L 185.117188 612.328125 L 179.175781 613.558594 C 172.617188 614.789062 165.855469 616.222656 159.296875 617.660156 C 152.535156 619.09375 145.773438 620.527344 139.011719 621.757812 L 136.140625 622.371094 L 135.527344 619.503906 C 134.09375 613.558594 132.453125 607.820312 130.816406 602.082031 C 127.332031 589.371094 123.640625 576.253906 121.796875 562.929688 C 116.46875 525.214844 120.570312 488.527344 125.28125 457.574219 C 129.378906 430.722656 138.601562 406.128906 147.003906 385.21875 C 158.476562 355.910156 173.027344 332.132812 191.058594 312.457031 L 192.289062 311.019531 L 194.132812 311.429688 C 207.660156 314.914062 221.183594 318.195312 235.324219 321.472656 L 252.945312 325.777344 L 253.558594 326.804688 C 254.175781 328.03125 255.199219 329.46875 256.429688 331.109375 C 256.839844 331.722656 257.25 332.335938 257.660156 333.15625 C 270.773438 325.574219 283.886719 328.03125 296.59375 330.492188 C 301.511719 331.515625 306.839844 332.335938 311.757812 332.746094 C 343.109375 334.59375 378.5625 336.847656 412.78125 338.28125 C 422.617188 338.691406 432.660156 338.691406 442.289062 338.691406 C 450.898438 338.691406 459.707031 338.691406 468.316406 338.898438 C 501.511719 339.921875 534.707031 336.027344 566.878906 332.132812 C 577.945312 330.902344 589.214844 329.46875 600.488281 328.238281 C 601.308594 328.03125 602.125 328.238281 603.152344 328.238281 C 603.96875 328.238281 604.996094 328.441406 606.226562 328.441406 L 608.070312 328.441406 L 608.890625 330.082031 C 611.757812 335.820312 614.832031 341.765625 617.699219 347.503906 C 623.847656 359.804688 630.40625 372.308594 635.734375 385.21875 C 649.460938 418.015625 659.09375 454.910156 665.855469 501.4375 C 670.570312 530.75 673.847656 565.390625 665.445312 600.644531 Z M 465.652344 399.160156 C 467.085938 409.203125 471.59375 414.121094 479.789062 414.941406 C 489.011719 415.761719 497.824219 416.171875 506.019531 415.964844 L 510.117188 415.761719 C 522.003906 415.351562 534.296875 415.144531 546.183594 413.300781 C 552.535156 412.277344 556.632812 410.226562 558.683594 407.355469 C 560.734375 404.488281 561.144531 400.183594 560.117188 394.238281 C 558.273438 383.582031 554.996094 380.097656 540.652344 381.53125 C 538.808594 381.734375 537.167969 381.53125 535.527344 381.121094 C 534.914062 381.121094 534.296875 380.917969 533.683594 380.917969 C 523.027344 379.890625 511.757812 378.867188 499.460938 377.839844 C 497.207031 378.25 494.953125 378.660156 492.496094 379.070312 C 486.757812 380.097656 480.609375 381.121094 475.078125 383.171875 C 467.289062 385.835938 464.625 393.007812 465.652344 399.160156 Z M 456.226562 653.324219 C 441.265625 655.988281 431.226562 648.609375 424.050781 641.640625 C 419.339844 637.132812 416.46875 634.671875 414.625 634.671875 C 412.578125 634.671875 409.503906 637.335938 405.40625 641.84375 C 395.570312 652.09375 383.683594 655.578125 368.316406 652.707031 C 367.085938 652.503906 365.035156 653.324219 363.191406 654.144531 C 362.78125 654.347656 362.371094 654.554688 361.960938 654.757812 C 362.167969 655.167969 362.371094 655.578125 362.371094 656.195312 C 362.988281 657.832031 364.011719 660.90625 364.832031 661.523438 C 372.617188 663.984375 380.816406 666.441406 388.191406 665.417969 C 394.339844 664.597656 400.28125 662.136719 406.632812 659.269531 C 409.503906 658.039062 412.371094 656.808594 415.445312 655.578125 L 417.085938 654.964844 L 418.519531 655.988281 C 429.789062 665.210938 444.542969 668.082031 452.742188 662.753906 C 456.019531 660.703125 458.070312 658.242188 456.226562 653.324219 Z M 394.132812 536.695312 L 389.011719 540.589844 C 385.324219 543.253906 382.25 545.507812 379.175781 547.761719 L 378.355469 548.378906 L 377.332031 548.378906 C 371.183594 548.582031 368.929688 552.886719 368.929688 556.988281 C 368.519531 564.367188 372.207031 570.105469 378.96875 573.386719 L 379.585938 573.792969 C 380.816406 574.820312 382.25 575.84375 383.480469 577.074219 C 386.347656 579.535156 389.214844 581.992188 392.289062 583.839844 C 393.929688 584.863281 396.183594 586.09375 397.824219 585.476562 C 399.257812 585.066406 400.28125 583.839844 401.304688 581.582031 L 401.921875 580.148438 L 403.355469 579.738281 C 417.289062 576.253906 418.726562 575.230469 420.980469 552.476562 L 419.542969 551.453125 C 415.855469 548.789062 411.550781 545.917969 407.25 543.253906 L 405.816406 542.433594 L 405.816406 540.792969 C 404.996094 519.273438 404.175781 494.675781 403.765625 471.105469 L 403.765625 470.695312 C 403.765625 468.4375 403.5625 464.953125 402.535156 464.132812 C 402.332031 463.929688 401.921875 463.929688 401.511719 463.929688 C 401.304688 463.929688 401.101562 463.929688 400.898438 463.929688 C 398.644531 464.339844 394.339844 468.847656 394.132812 471.105469 C 392.90625 483.605469 392.90625 496.316406 392.90625 508.613281 C 392.90625 511.6875 392.90625 514.96875 392.90625 518.042969 C 392.90625 522.757812 393.316406 527.472656 393.722656 531.570312 C 393.929688 532.800781 393.929688 534.03125 394.132812 535.054688 Z M 313.191406 382.144531 C 304.175781 380.097656 293.722656 377.839844 283.070312 376.816406 C 278.355469 376.40625 273.4375 376.613281 268.722656 376.613281 C 263.398438 376.816406 257.660156 376.816406 252.125 376.40625 C 251.101562 376.40625 250.078125 376.203125 248.847656 376.203125 C 234.707031 376.203125 220.773438 384.402344 215.855469 396.289062 C 213.804688 401.207031 214.011719 405.71875 216.265625 408.996094 C 218.519531 412.070312 222.617188 413.710938 227.535156 413.300781 C 230.199219 413.097656 232.660156 412.480469 235.527344 411.867188 C 237.78125 411.457031 240.242188 410.84375 242.699219 410.636719 C 253.765625 409.203125 266.46875 407.765625 278.765625 407.152344 C 282.453125 406.949219 286.140625 407.152344 289.625 407.355469 C 293.929688 407.5625 298.027344 407.765625 301.921875 407.355469 C 302.742188 407.355469 303.765625 407.152344 304.585938 407.152344 C 312.578125 406.332031 320.160156 405.71875 324.871094 398.339844 C 322.824219 389.523438 320.570312 383.785156 313.191406 382.144531 Z M 313.191406 382.144531 "/>
<path style=" stroke:none;fill-rule:nonzero;fill:rgb(98.039246%,60.778809%,45.098877%);fill-opacity:1;" d="M 620.773438 598.1875 C 624.460938 598.597656 627.945312 599.007812 631.632812 599.210938 C 641.878906 599.824219 652.125 600.234375 662.371094 600.644531 C 656.429688 637.542969 643.109375 671.15625 620.773438 701.289062 C 619.542969 702.925781 617.085938 704.15625 616.472656 706 C 611.347656 721.375 598.027344 726.910156 585.117188 732.851562 C 567.90625 740.847656 550.691406 748.429688 533.273438 756.21875 C 531.429688 757.039062 529.175781 756.628906 526.921875 756.835938 C 524.460938 751.914062 519.953125 746.996094 519.75 742.078125 C 518.929688 724.039062 517.699219 705.796875 519.953125 688.167969 C 522.617188 667.058594 536.550781 651.070312 551.101562 636.3125 C 553.765625 633.648438 556.226562 630.570312 558.683594 627.703125 C 563.191406 626.472656 568.109375 625.652344 572.414062 624.011719 C 590.035156 617.863281 608.273438 613.355469 620.773438 598.1875 Z M 550.898438 655.578125 C 540.855469 667.875 544.75 679.558594 549.050781 691.449219 C 560.527344 685.503906 561.550781 667.875 550.898438 655.578125 Z M 572.207031 655.988281 C 570.363281 668.285156 576.101562 679.355469 586.757812 684.070312 C 591.265625 672.386719 585.527344 661.316406 572.207031 655.988281 Z M 139.011719 618.886719 C 152.332031 616.222656 165.855469 613.355469 179.175781 610.691406 C 189.214844 616.222656 199.050781 621.964844 209.09375 627.085938 C 215.445312 630.367188 222.617188 632.417969 229.175781 634.875 C 253.765625 659.472656 265.855469 689.195312 267.90625 723.628906 C 268.519531 734.082031 262.167969 739.617188 255.40625 745.152344 C 235.117188 739.617188 218.722656 727.320312 200.691406 717.273438 C 170.570312 700.46875 158.070312 672.589844 146.386719 643.074219 C 143.519531 635.285156 141.46875 627.085938 139.011719 618.886719 Z M 223.234375 658.039062 C 216.265625 663.980469 215.445312 671.976562 216.878906 680.378906 C 217.90625 686.324219 222.824219 688.375 227.125 684.683594 C 233.273438 679.558594 230.816406 661.933594 223.234375 658.039062 Z M 195.976562 652.300781 C 185.527344 659.882812 186.347656 670.335938 185.324219 680.378906 C 195.363281 683.25 197.414062 676.484375 199.257812 671.15625 C 201.511719 664.800781 203.355469 657.832031 195.976562 652.300781 Z M 424.050781 551.042969 C 419.542969 547.96875 414.214844 544.277344 408.886719 540.792969 C 407.25 550.835938 399.257812 553.707031 389.011719 556.578125 C 391.675781 562.113281 393.726562 566.621094 396.183594 570.925781 C 398.4375 575.023438 401.304688 578.714844 403.765625 582.8125 C 420.160156 578.507812 421.59375 576.050781 424.050781 551.042969 Z M 365.855469 556.988281 C 365.445312 565.390625 369.542969 572.359375 377.535156 576.253906 C 373.027344 566.003906 369.339844 555.757812 377.535156 545.507812 C 369.953125 545.714844 366.265625 551.042969 365.855469 556.988281 Z M 365.855469 556.988281 "/>
<path style=" stroke:none;fill-rule:nonzero;fill:rgb(58.81958%,50.979614%,86.268616%);fill-opacity:1;" d="M 224.460938 310.609375 C 218.722656 308.972656 212.988281 307.332031 206.839844 306.511719 L 201.304688 305.691406 L 203.765625 300.566406 C 204.378906 299.335938 204.585938 298.3125 204.996094 297.289062 C 205.609375 295.441406 206.429688 293.394531 208.070312 291.957031 L 209.707031 290.523438 C 224.871094 278.019531 240.445312 264.902344 256.222656 252.808594 C 259.296875 250.347656 263.191406 249.9375 266.675781 249.527344 C 267.699219 249.527344 268.722656 249.324219 269.542969 249.117188 C 269.75 249.117188 269.953125 249.117188 270.160156 248.914062 L 273.234375 248.300781 L 275.488281 252.808594 L 275.078125 254.242188 L 275.078125 254.449219 L 275.28125 254.652344 L 275.488281 254.449219 C 275.28125 254.859375 275.078125 255.269531 274.667969 255.472656 C 274.050781 257.523438 273.4375 259.574219 272.824219 261.621094 C 271.796875 265.105469 270.773438 268.796875 269.953125 272.484375 C 267.085938 284.167969 264.421875 295.648438 261.550781 307.945312 L 260.324219 313.480469 L 257.660156 313.890625 C 254.996094 314.300781 252.535156 314.503906 249.871094 314.503906 C 241.058594 315.324219 232.660156 312.867188 224.460938 310.609375 Z M 486.550781 327.828125 L 483.683594 302 C 480.816406 277.199219 478.152344 253.832031 475.691406 230.464844 L 475.488281 228.210938 L 473.234375 227.1875 C 444.953125 214.683594 415.242188 212.429688 382.25 220.011719 L 379.789062 220.628906 L 379.175781 223.085938 C 378.96875 223.703125 378.765625 224.523438 378.5625 225.34375 C 377.742188 228.417969 376.921875 232.105469 376.304688 236 C 373.027344 262.441406 370.570312 285.605469 368.519531 306.714844 C 368.316406 309.175781 367.699219 310.609375 367.085938 311.226562 C 366.675781 311.636719 365.445312 311.839844 362.578125 311.429688 C 363.601562 296.671875 364.625 281.914062 365.652344 267.15625 C 366.675781 252.601562 367.699219 237.84375 368.722656 223.085938 L 369.132812 218.167969 L 364.214844 218.78125 C 336.144531 221.652344 314.214844 227.1875 294.953125 236.207031 C 291.46875 237.84375 288.601562 241.945312 287.371094 245.222656 C 282.25 261.210938 277.535156 277.199219 272.414062 294.417969 C 270.570312 300.363281 268.722656 306.304688 266.878906 312.660156 L 265.445312 317.167969 L 270.160156 317.988281 C 319.132812 325.777344 368.929688 329.46875 426.714844 329.46875 C 444.339844 329.46875 462.578125 329.058594 481.839844 328.441406 Z M 252.125 380.300781 C 236.757812 380.917969 226.101562 388.910156 222.207031 402.847656 L 219.75 411.25 L 227.742188 407.5625 C 247.207031 398.75 266.878906 398.75 287.78125 398.75 C 296.183594 398.75 304.585938 398.75 313.191406 398.132812 L 329.378906 396.902344 L 314.625 390.140625 C 297.207031 382.554688 277.332031 379.277344 252.125 380.300781 Z M 473.644531 392.394531 L 470.773438 393.214844 L 470.773438 396.289062 C 470.773438 400.59375 472.003906 403.871094 474.460938 406.128906 C 477.125 408.585938 480.609375 408.996094 483.480469 408.996094 C 484.296875 408.996094 485.117188 408.996094 485.734375 408.996094 C 501.101562 407.972656 516.675781 406.742188 531.839844 405.308594 C 535.527344 405.101562 539.011719 404.078125 542.699219 403.257812 C 544.542969 402.847656 546.59375 402.4375 548.644531 402.027344 L 556.839844 400.386719 L 550.488281 394.855469 C 539.214844 385.21875 496.390625 385.21875 473.644531 392.394531 Z M 594.75 312.457031 C 563.398438 271.257812 527.945312 244.40625 489.214844 232.3125 L 483.273438 230.464844 L 483.890625 236.617188 C 487.167969 267.566406 489.832031 297.699219 492.496094 325.984375 L 492.90625 330.082031 L 497.003906 329.671875 C 526.308594 326.1875 557.453125 322.703125 591.878906 319.015625 L 599.054688 318.195312 Z M 594.75 312.457031 "/>
<path style=" stroke:none;fill-rule:nonzero;fill:rgb(72.549438%,86.268616%,19.60907%);fill-opacity:1;" d="M 779.996094 372.71875 C 775.488281 336.4375 761.757812 303.4375 748.4375 271.460938 C 746.59375 267.15625 744.953125 263.058594 743.109375 258.753906 C 739.832031 250.757812 734.503906 243.585938 729.585938 236.617188 C 728.152344 234.566406 726.71875 232.722656 725.28125 230.671875 C 718.109375 220.421875 710.9375 210.378906 703.355469 199.722656 L 703.355469 199.515625 C 711.144531 192.546875 717.90625 186.601562 726.511719 181.683594 C 754.789062 165.285156 768.109375 140.484375 766.0625 108.097656 C 764.011719 81.042969 753.765625 59.316406 734.503906 42.097656 C 713.601562 23.238281 690.855469 16.679688 665.242188 22.214844 C 648.4375 25.90625 633.273438 34.71875 620.570312 48.859375 C 609.09375 61.363281 598.644531 74.277344 587.578125 87.804688 C 583.683594 92.519531 579.996094 97.234375 576.101562 101.949219 C 450.898438 46.605469 324.667969 54.191406 200.898438 124.289062 C 199.460938 121.625 198.027344 118.960938 196.796875 116.296875 C 188.601562 96.210938 174.667969 80.015625 152.742188 64.847656 C 115.855469 39.226562 76.304688 53.164062 53.765625 78.171875 C 48.4375 83.910156 44.339844 90.878906 40.652344 96.824219 C 25.078125 122.855469 20.363281 146.222656 25.28125 170 C 31.839844 201.566406 47.207031 220.421875 73.847656 229.238281 C 78.355469 230.671875 82.660156 234.359375 87.167969 238.460938 C 88.394531 239.484375 89.421875 240.511719 90.652344 241.535156 C 52.332031 302.410156 34.707031 366.773438 36.960938 437.898438 C 39.214844 508 62.167969 572.976562 104.996094 631.390625 L 111.140625 639.796875 L 112.371094 629.34375 C 113.394531 620.734375 114.214844 610.894531 111.140625 601.671875 C 102.332031 573.179688 99.871094 542.023438 102.742188 501.03125 C 104.996094 469.875 107.25 437.691406 118.929688 408.175781 C 128.96875 382.554688 140.035156 358.164062 152.125 336.027344 C 158.886719 323.730469 168.109375 312.457031 176.921875 301.589844 C 179.175781 298.722656 181.632812 295.851562 183.886719 292.984375 C 191.878906 283.144531 200.691406 273.714844 209.914062 265.105469 C 235.527344 241.125 268.316406 228.417969 300.078125 216.324219 L 306.019531 214.070312 C 316.0625 210.175781 327.332031 205.871094 337.988281 205.253906 C 347.824219 204.640625 357.660156 203.820312 367.085938 203 C 394.953125 200.539062 423.644531 197.875 452.125 204.433594 C 478.152344 210.378906 504.175781 220.421875 531.632812 234.976562 C 555.40625 247.683594 577.535156 266.542969 600.898438 294.210938 C 625.691406 323.730469 644.953125 359.804688 658.273438 401.414062 C 666.675781 427.445312 672.617188 454.910156 678.5625 481.351562 C 688.398438 526.242188 688.808594 570.515625 680.199219 613.355469 C 677.535156 626.0625 674.054688 638.359375 670.160156 651.480469 C 668.519531 656.808594 667.085938 661.933594 665.652344 667.261719 L 664.011719 673.410156 L 670.160156 672.589844 C 670.570312 672.589844 670.773438 672.589844 671.183594 672.589844 C 672.824219 672.589844 674.871094 672.386719 676.714844 670.953125 L 677.125 670.746094 C 679.585938 668.285156 682.25 665.828125 684.707031 663.367188 C 693.316406 655.167969 702.125 646.558594 709.914062 637.132812 C 715.652344 629.957031 720.363281 621.964844 724.871094 614.378906 C 727.945312 609.253906 731.226562 603.71875 734.707031 598.800781 C 756.226562 567.441406 770.570312 530.136719 779.175781 481.558594 C 784.503906 448.351562 784.914062 412.6875 779.996094 372.71875 Z M 662.578125 113.632812 C 674.054688 104.203125 667.085938 95.390625 664.214844 91.496094 C 657.863281 83.5 651.921875 75.097656 647.414062 68.949219 C 657.660156 57.675781 672.414062 52.347656 687.988281 54.601562 C 705.199219 57.058594 720.160156 67.921875 726.308594 82.476562 C 736.960938 107.6875 730.199219 138.84375 710.324219 156.472656 C 703.765625 162.414062 697.414062 168.359375 691.472656 173.894531 L 686.554688 178.402344 C 677.945312 171.433594 669.339844 164.464844 660.734375 157.496094 C 644.953125 144.789062 628.5625 131.464844 611.757812 117.9375 C 612.988281 115.886719 614.214844 113.835938 615.445312 111.789062 C 618.109375 107.484375 620.773438 102.769531 623.644531 98.054688 C 635.117188 103.382812 645.363281 108.097656 655.40625 112.8125 L 660.734375 115.273438 Z M 503.765625 120.398438 C 503.96875 122.855469 501.921875 126.957031 500.691406 127.570312 C 492.90625 131.261719 484.503906 134.128906 476.308594 135.359375 C 475.078125 135.5625 472.617188 134.128906 470.570312 132.898438 C 470.363281 132.898438 470.160156 132.695312 469.953125 132.695312 C 477.332031 122.855469 491.265625 115.476562 498.234375 116.910156 C 500.078125 117.117188 503.152344 119.371094 503.765625 120.398438 Z M 324.460938 130.644531 C 324.460938 132.488281 324.257812 133.71875 323.644531 134.128906 C 322.617188 135.15625 319.542969 135.15625 317.085938 135.15625 L 307.863281 135.15625 C 304.175781 134.539062 300.691406 133.925781 297.617188 132.285156 C 295.773438 131.464844 293.722656 128.59375 293.722656 127.777344 C 293.929688 126.75 296.183594 124.289062 297.414062 124.085938 C 304.585938 122.242188 310.9375 121.625 316.265625 122.242188 C 321.796875 122.652344 324.667969 125.519531 324.460938 130.644531 Z M 102.535156 207.507812 C 101.511719 206.894531 100.28125 206.28125 99.257812 205.871094 L 99.050781 205.871094 C 95.570312 204.230469 93.929688 202.386719 95.773438 197.261719 C 97.207031 193.777344 98.4375 190.292969 99.871094 186.808594 C 102.535156 180.042969 105.40625 172.871094 108.070312 165.695312 C 109.503906 161.800781 110.527344 158.113281 111.347656 154.421875 L 112.578125 149.296875 L 110.9375 147.65625 C 109.914062 146.632812 108.886719 145.609375 107.25 144.582031 L 105.199219 142.945312 L 102.742188 144.171875 C 90.652344 150.527344 78.355469 157.085938 67.289062 162.824219 C 60.527344 134.128906 74.871094 104.203125 101.304688 93.136719 C 120.976562 84.9375 155.199219 96.824219 165.445312 115.476562 C 168.109375 120.398438 170.773438 125.316406 173.234375 130.234375 C 174.050781 131.875 174.871094 133.308594 175.691406 134.949219 L 102.742188 207.917969 C 102.742188 207.714844 102.742188 207.714844 102.535156 207.507812 Z M 102.535156 207.507812 "/>
<g clip-path="url(#clip1)" clip-rule="nonzero">
<path style=" stroke:none;fill-rule:nonzero;fill:rgb(23.529053%,31.369019%,74.508667%);fill-opacity:1;" d="M 270.980469 253.421875 C 266.878906 254.242188 261.757812 253.832031 258.683594 256.292969 C 242.496094 268.796875 226.511719 282.121094 210.734375 295.238281 C 209.296875 296.46875 209.09375 298.925781 207.453125 302.410156 C 224.871094 304.871094 239.832031 313.480469 257.042969 310.609375 C 260.117188 297.289062 262.988281 284.785156 266.058594 272.28125 C 267.496094 266.132812 269.542969 259.984375 271.183594 253.832031 C 271.59375 253.421875 271.796875 252.808594 272.207031 252.398438 C 272.003906 252.808594 271.386719 253.21875 270.980469 253.421875 Z M 139.011719 618.886719 C 141.46875 627.085938 143.519531 635.285156 146.59375 643.074219 C 158.070312 672.386719 170.570312 700.46875 200.898438 717.273438 C 218.929688 727.320312 235.527344 739.617188 255.609375 745.152344 C 269.953125 751.09375 283.886719 758.882812 298.847656 762.367188 C 323.234375 768.109375 348.234375 770.773438 372.824219 775.28125 C 402.742188 780.613281 432.453125 776.101562 461.960938 772.617188 C 478.152344 770.773438 494.132812 766.261719 510.117188 762.574219 C 515.855469 761.140625 521.390625 758.679688 527.125 756.835938 C 529.175781 756.628906 531.632812 757.039062 533.480469 756.21875 C 550.898438 748.636719 568.109375 741.050781 585.324219 732.851562 C 598.027344 726.910156 611.550781 721.167969 616.675781 706 C 617.289062 704.15625 619.75 702.925781 620.980469 701.289062 C 643.316406 671.363281 656.632812 637.542969 662.578125 600.644531 C 670.363281 568.054688 668.316406 535.464844 663.601562 502.667969 C 657.863281 463.109375 649.257812 424.164062 633.683594 387.269531 C 625.691406 368.207031 615.652344 350.171875 606.839844 332.132812 C 603.96875 331.929688 602.742188 331.722656 601.308594 331.929688 C 557.25 336.4375 513.398438 344.019531 468.722656 342.585938 C 450.078125 341.972656 431.632812 342.792969 412.988281 341.972656 C 379.378906 340.535156 345.570312 338.28125 311.960938 336.4375 C 293.722656 335.414062 275.28125 325.777344 257.042969 338.078125 C 254.585938 334.183594 252.535156 330.902344 251.304688 329.058594 C 231.222656 324.140625 212.578125 319.425781 193.722656 314.914062 C 174.257812 335.617188 160.734375 360.214844 150.28125 386.246094 C 141.058594 409.40625 132.660156 432.570312 128.765625 457.984375 C 123.4375 493.035156 120.363281 527.675781 125.28125 562.519531 C 128.152344 581.582031 134.296875 600.234375 139.011719 618.886719 Z M 199.257812 129.824219 C 197.207031 126.136719 194.75 122.035156 192.90625 117.730469 C 184.296875 96.414062 169.132812 81.042969 150.488281 68.128906 C 117.289062 45.171875 80.199219 55.011719 56.839844 80.835938 C 51.921875 86.167969 48.027344 92.519531 44.339844 98.875 C 31.429688 120.601562 24.050781 143.351562 29.378906 169.179688 C 34.914062 195.828125 47.617188 216.117188 75.078125 225.34375 C 82.660156 227.800781 88.804688 234.976562 95.976562 240.511719 C 56.632812 301.796875 38.804688 367.183594 41.058594 437.691406 C 43.3125 508.203125 66.265625 571.746094 108.273438 628.933594 C 109.296875 620.117188 109.914062 611.097656 107.25 602.902344 C 97.003906 569.492188 96.183594 535.261719 98.640625 500.824219 C 100.894531 468.847656 103.152344 436.667969 115.035156 406.539062 C 124.667969 381.734375 135.734375 357.34375 148.4375 333.976562 C 157.042969 318.195312 169.339844 304.460938 180.609375 290.316406 C 188.804688 280.273438 197.617188 270.847656 207.042969 262.03125 C 234.707031 236 269.75 223.496094 304.378906 210.175781 C 315.035156 206.074219 326.304688 201.769531 337.578125 201.15625 C 375.898438 199.105469 414.011719 191.523438 452.945312 200.335938 C 481.632812 206.894531 508.070312 217.757812 533.480469 231.285156 C 561.144531 246.042969 583.890625 267.769531 603.972656 291.546875 C 630.816406 323.523438 649.460938 360.625 662.167969 400.183594 C 670.570312 426.417969 676.511719 453.476562 682.453125 480.53125 C 692.085938 524.804688 693.109375 569.695312 684.09375 614.175781 C 680.40625 632.210938 674.460938 650.042969 669.339844 668.285156 C 670.773438 668.082031 672.824219 668.492188 673.847656 667.46875 C 684.914062 656.601562 696.59375 646.148438 706.226562 634.261719 C 715.652344 622.371094 722.207031 608.640625 730.816406 596.136719 C 754.996094 561.085938 767.289062 521.527344 774.667969 480.53125 C 781.226562 445.070312 780.609375 409.203125 776.101562 373.125 C 771.183594 332.746094 754.585938 296.878906 739.421875 260.1875 C 735.324219 250.347656 728.152344 241.738281 722.003906 232.925781 C 714.214844 221.652344 706.226562 210.585938 697.824219 198.902344 C 707.042969 190.703125 714.421875 183.734375 724.460938 177.992188 C 750.28125 163.03125 764.011719 140.074219 761.960938 108.304688 C 760.117188 82.679688 750.691406 61.980469 731.839844 44.964844 C 712.988281 27.953125 691.675781 20.574219 666.265625 26.109375 C 649.050781 29.796875 635.117188 39.023438 623.847656 51.527344 C 607.863281 68.949219 593.316406 87.804688 577.535156 106.867188 C 449.460938 49.476562 323.4375 58.289062 199.257812 129.824219 Z M 271.183594 313.480469 C 343.109375 324.957031 412.167969 326.1875 482.042969 324.140625 C 478.355469 291.546875 475.078125 261.210938 471.59375 231.082031 C 442.90625 218.375 414.214844 216.9375 383.273438 224.113281 C 382.453125 227.597656 381.226562 231.902344 380.609375 236.617188 C 377.945312 260.1875 375.28125 283.757812 372.824219 307.332031 C 372.003906 315.53125 368.109375 317.375 358.480469 314.914062 C 360.527344 284.375 362.78125 254.039062 365.035156 222.882812 C 341.675781 225.34375 318.722656 229.851562 297.003906 239.894531 C 294.75 240.921875 292.496094 243.996094 291.675781 246.453125 C 284.914062 267.769531 278.558594 289.089844 271.183594 313.480469 Z M 488.191406 236.207031 C 491.0625 265.925781 493.726562 294.621094 496.59375 325.777344 C 528.5625 322.089844 559.707031 318.605469 591.472656 315.121094 C 566.878906 282.324219 532.453125 249.9375 488.191406 236.207031 Z M 806.839844 436.464844 C 806.636719 442.613281 806.226562 448.558594 806.019531 454.5 C 805.609375 458.191406 804.996094 461.878906 804.585938 465.363281 C 799.054688 500.003906 791.472656 534.234375 777.945312 566.621094 C 771.183594 582.8125 761.554688 597.777344 752.535156 612.945312 C 743.109375 628.523438 734.09375 644.304688 722.824219 658.449219 C 702.945312 683.453125 679.996094 706 654.378906 725.0625 C 636.554688 738.183594 618.519531 751.914062 598.644531 760.933594 C 568.726562 774.667969 538.808594 789.015625 506.019531 796.191406 C 466.878906 804.796875 427.332031 809.71875 387.988281 806.4375 C 335.9375 802.132812 284.296875 794.140625 236.960938 768.519531 C 225.28125 762.164062 213.191406 757.039062 201.921875 749.25 C 195.160156 744.535156 186.347656 742.488281 177.742188 739.003906 C 159.296875 721.988281 139.214844 704.773438 121.183594 685.914062 C 92.699219 656.398438 69.339844 622.988281 50.894531 585.683594 C 39.832031 563.339844 32.25 539.972656 25.691406 516.402344 C 19.339844 493.242188 16.675781 468.847656 15.445312 444.664062 C 14.421875 420.679688 15.445312 396.085938 18.929688 372.308594 C 22.003906 350.171875 28.152344 328.441406 34.914062 307.125 C 41.46875 286.832031 50.691406 267.363281 59.09375 246.660156 C 58.273438 246.042969 56.839844 244.40625 54.996094 243.585938 C 32.25 234.769531 19.339844 215.503906 10.730469 194.1875 C 5.40625 180.660156 5.199219 164.875 4.378906 149.914062 C 2.945312 126.546875 11.550781 105.84375 22.824219 85.960938 C 36.960938 60.953125 57.25 43.941406 84.914062 34.71875 C 132.25 18.730469 185.527344 55.832031 202.742188 93.75 C 203.558594 95.59375 204.585938 97.644531 206.429688 101.539062 C 325.488281 33.285156 448.847656 23.445312 575.691406 76.738281 C 584.09375 65.464844 591.472656 54.394531 600.28125 44.351562 C 620.980469 20.371094 646.183594 3.972656 678.765625 1.71875 C 698.4375 0.28125 716.265625 6.226562 732.042969 18.320312 C 737.578125 22.417969 743.519531 26.109375 748.4375 30.824219 C 788.601562 69.152344 794.953125 114.246094 774.460938 160.367188 C 768.929688 172.664062 756.226562 181.683594 746.390625 191.933594 C 743.109375 195.210938 738.601562 197.261719 734.09375 200.128906 C 735.117188 203 735.734375 205.460938 736.960938 207.507812 C 745.570312 220.421875 756.019531 232.3125 762.78125 246.042969 C 772.414062 265.105469 780.199219 285.195312 787.167969 305.484375 C 793.316406 323.320312 797.003906 342.175781 801.71875 360.417969 C 802.535156 364.109375 803.152344 367.59375 803.765625 371.28125 C 803.972656 373.742188 804.175781 376.203125 804.378906 378.660156 C 804.996094 397.929688 806.019531 417.195312 806.839844 436.464844 Z M 606.019531 118.960938 C 610.9375 110.761719 615.855469 102.359375 621.59375 92.929688 C 635.527344 99.285156 647.824219 105.023438 659.707031 110.558594 C 667.085938 104.410156 665.035156 99.695312 660.734375 94.160156 C 654.175781 85.757812 647.824219 77.148438 641.878906 68.949219 C 667.496094 36.769531 716.472656 49.269531 729.789062 81.042969 C 740.855469 107.484375 734.300781 140.484375 712.78125 159.546875 C 703.5625 167.746094 694.339844 176.355469 686.347656 183.527344 C 659.503906 162.210938 633.890625 141.304688 606.019531 118.960938 Z M 178.355469 138.640625 C 154.175781 162.824219 130.199219 187.011719 106.019531 210.996094 L 104.175781 213.042969 L 97.207031 209.558594 C 90.855469 206.691406 89.421875 201.976562 91.878906 195.621094 C 95.976562 185.167969 100.28125 174.917969 104.175781 164.261719 C 105.8125 159.75 106.839844 155.242188 108.070312 150.527344 C 107.042969 149.503906 105.8125 148.476562 104.789062 147.65625 C 91.46875 154.625 77.945312 161.800781 64.832031 168.769531 C 54.789062 136.792969 69.953125 101.742188 100.078125 89.242188 C 121.796875 80.222656 158.070312 92.929688 169.339844 113.425781 L 181.019531 135.769531 Z M 464.011719 134.539062 C 470.773438 122.035156 488.601562 111.171875 498.847656 113.015625 C 502.332031 113.632812 507.660156 117.320312 507.863281 119.988281 C 508.273438 123.675781 505.609375 129.824219 502.535156 131.261719 C 494.542969 135.15625 485.734375 138.023438 476.921875 139.457031 C 473.027344 140.277344 468.316406 136.382812 464.011719 134.539062 Z M 311.757812 140.277344 C 306.429688 139.050781 300.691406 138.640625 295.570312 136.179688 C 292.699219 134.746094 289.421875 130.644531 289.421875 127.777344 C 289.421875 125.109375 293.316406 121.011719 296.183594 120.191406 C 302.742188 118.550781 309.914062 117.527344 316.46875 118.140625 C 323.027344 118.757812 328.765625 122.445312 328.5625 130.851562 C 328.152344 139.867188 321.796875 139.253906 315.652344 139.253906 C 314.421875 139.253906 312.988281 139.253906 311.757812 139.253906 C 311.960938 139.664062 311.960938 139.867188 311.757812 140.277344 Z M 620.773438 598.1875 C 608.273438 613.355469 590.035156 617.863281 572.617188 624.011719 C 568.109375 625.652344 563.398438 626.472656 558.890625 627.703125 C 550.28125 627.90625 541.675781 628.316406 533.070312 628.113281 C 518.929688 627.703125 506.429688 623.191406 494.75 614.378906 C 473.027344 597.980469 461.550781 575.640625 457.042969 550.019531 C 452.332031 523.988281 465.445312 503.285156 482.660156 485.042969 C 499.460938 467.414062 521.796875 460.648438 543.929688 453.269531 C 560.9375 447.53125 577.742188 446.917969 594.542969 453.066406 C 621.59375 462.90625 639.625 481.96875 647.207031 509.230469 C 650.28125 520.296875 649.054688 533.414062 647.207031 545.097656 C 643.929688 564.980469 635.117188 583.019531 620.773438 598.1875 Z M 568.316406 599.621094 C 516.675781 572.769531 511.550781 529.726562 523.847656 480.53125 C 489.214844 489.140625 470.160156 521.9375 480.199219 555.140625 C 492.90625 596.957031 526.921875 612.328125 568.316406 599.621094 Z M 229.378906 634.875 C 222.617188 632.210938 215.652344 630.160156 209.296875 627.085938 C 199.050781 621.964844 189.214844 616.222656 179.378906 610.691406 C 165.445312 597.570312 155.609375 581.992188 152.945312 563.136719 C 148.4375 531.570312 152.332031 501.441406 176.511719 478.074219 C 192.699219 462.289062 212.578125 454.296875 235.734375 460.238281 C 252.742188 464.542969 270.363281 465.160156 286.960938 472.742188 C 334.296875 494.265625 353.765625 548.582031 335.117188 595.523438 C 324.871094 621.144531 301.921875 636.722656 271.796875 637.746094 C 257.453125 637.949219 243.519531 635.695312 229.378906 634.875 Z M 247.824219 481.761719 C 239.421875 480.53125 232.660156 478.277344 225.898438 478.6875 C 217.90625 478.894531 209.707031 480.121094 202.125 482.992188 C 185.734375 488.9375 178.96875 503.285156 176.101562 519.273438 C 169.339844 556.988281 177.125 591.21875 217.699219 605.566406 C 231.222656 610.28125 245.160156 615.609375 261.960938 613.355469 C 259.707031 609.460938 259.09375 606.179688 256.839844 604.746094 C 243.316406 595.523438 236.757812 581.582031 229.789062 567.851562 C 214.214844 536.695312 220.570312 504.105469 247.824219 481.761719 Z M 499.257812 374.765625 C 511.757812 375.996094 522.824219 376.816406 533.890625 377.839844 C 535.9375 378.046875 538.191406 378.660156 540.242188 378.457031 C 555.40625 377.023438 560.734375 380.507812 562.988281 393.625 C 565.242188 406.949219 561.144531 413.917969 546.59375 416.375 C 533.273438 418.632812 519.542969 418.632812 506.019531 419.039062 C 497.207031 419.246094 488.191406 418.835938 479.378906 418.015625 C 469.542969 416.992188 464.214844 410.636719 462.578125 399.570312 C 461.347656 391.371094 465.445312 383.171875 474.050781 380.300781 C 482.453125 377.429688 491.46875 376.40625 499.257812 374.765625 Z M 475.078125 396.289062 C 474.871094 404.488281 479.996094 405.308594 485.324219 404.898438 C 500.691406 403.871094 516.0625 402.644531 531.429688 401.207031 C 536.550781 400.796875 541.675781 399.160156 547.824219 397.929688 C 538.191406 389.933594 497.207031 389.320312 475.078125 396.289062 Z M 328.152344 398.542969 C 322.207031 408.996094 311.757812 408.996094 302.125 410.023438 C 294.542969 410.84375 286.550781 409.40625 278.765625 409.816406 C 266.878906 410.636719 254.789062 411.867188 242.90625 413.300781 C 237.78125 413.917969 232.863281 415.554688 227.535156 415.964844 C 214.625 416.992188 207.660156 406.949219 212.78125 394.855469 C 218.722656 380.710938 235.9375 371.691406 252.125 373.128906 C 262.371094 373.945312 272.824219 372.511719 283.070312 373.535156 C 293.316406 374.355469 303.5625 376.40625 313.601562 378.867188 C 323.640625 381.324219 326.101562 389.933594 328.152344 398.542969 Z M 312.988281 394.035156 C 293.316406 385.21875 273.027344 383.582031 252.332031 384.402344 C 238.804688 385.015625 229.585938 391.574219 226.101562 403.871094 C 254.789062 390.753906 284.296875 396.289062 312.988281 394.035156 Z M 377.332031 545.507812 C 381.429688 542.433594 385.324219 539.5625 390.855469 535.464844 C 390.445312 530.75 389.625 524.398438 389.625 518.042969 C 389.832031 502.257812 389.625 486.476562 391.0625 470.695312 C 391.46875 467.003906 396.796875 461.265625 400.488281 460.855469 C 406.632812 459.832031 406.632812 465.980469 406.839844 471.105469 C 407.453125 494.265625 408.273438 517.632812 408.886719 540.792969 C 407.25 550.835938 399.257812 553.707031 389.011719 556.578125 C 391.675781 562.113281 393.726562 566.621094 396.183594 570.925781 C 398.4375 575.023438 401.308594 578.714844 403.765625 582.8125 C 400.898438 589.578125 395.773438 590.191406 390.242188 586.707031 C 385.527344 583.839844 381.632812 579.945312 377.332031 576.460938 C 372.824219 566.003906 369.339844 555.757812 377.332031 545.507812 Z M 457.863281 649.839844 C 461.960938 657.421875 459.707031 662.136719 454.378906 665.621094 C 444.953125 671.769531 428.765625 668.492188 416.46875 658.652344 C 407.042969 662.136719 398.027344 667.261719 388.601562 668.492188 C 380.609375 669.515625 371.59375 667.058594 363.804688 664.390625 C 360.9375 663.367188 359.914062 657.011719 358.070312 653.117188 C 361.757812 651.890625 365.652344 649.019531 368.929688 649.839844 C 382.25 652.503906 393.316406 650.042969 403.152344 639.796875 C 413.601562 628.933594 415.652344 628.933594 426.304688 639.589844 C 434.914062 648.199219 444.75 653.117188 457.863281 649.839844 Z M 550.898438 655.578125 C 561.550781 668.082031 560.324219 685.503906 549.050781 691.449219 C 544.75 679.355469 541.0625 667.875 550.898438 655.578125 Z M 572.207031 655.988281 C 585.527344 661.316406 591.265625 672.386719 586.757812 684.070312 C 576.101562 679.355469 570.363281 668.285156 572.207031 655.988281 Z M 223.234375 658.039062 C 230.816406 661.933594 233.273438 679.765625 227.125 684.683594 C 222.824219 688.167969 217.90625 686.324219 216.878906 680.378906 C 215.652344 671.976562 216.265625 663.984375 223.234375 658.039062 Z M 195.976562 652.300781 C 203.558594 658.039062 201.714844 664.800781 199.460938 671.15625 C 197.617188 676.484375 195.570312 683.25 185.527344 680.378906 C 186.347656 670.335938 185.527344 659.882812 195.976562 652.300781 Z M 195.976562 652.300781 "/>
</g>
</g>
</svg>
