<?xml version="1.0" encoding="UTF-8"?>
<svg xmlns="http://www.w3.org/2000/svg" xmlns:xlink="http://www.w3.org/1999/xlink" width="810pt" height="809.999993pt" viewBox="0 0 810 809.999993" version="1.2">
<defs>
<clipPath id="clip1">
  <path d="M 0 49 L 809 49 L 809 760.808594 L 0 760.808594 Z M 0 49 "/>
</clipPath>
</defs>
<g id="surface1">
<path style=" stroke:none;fill-rule:nonzero;fill:rgb(100%,100%,100%);fill-opacity:1;" d="M 485.632812 427.554688 C 480.625 425.386719 475.449219 424.054688 469.941406 422.71875 C 467.4375 422.050781 464.765625 421.382812 462.261719 420.714844 L 461.59375 420.550781 L 460.925781 420.714844 C 457.253906 421.71875 453.578125 422.550781 450.074219 423.21875 C 443.5625 424.71875 436.886719 426.222656 430.375 428.390625 C 419.355469 432.226562 412.179688 439.398438 408.503906 450.40625 C 403.496094 465.253906 402.328125 478.597656 404.5 492.277344 C 407.503906 510.125 424.53125 529.640625 444.0625 529.640625 L 444.398438 529.640625 C 456.585938 529.472656 467.769531 525.46875 475.78125 518.464844 C 488.136719 508.121094 502.492188 493.109375 505.332031 469.925781 C 506.667969 457.414062 502.660156 434.726562 485.632812 427.554688 Z M 433.378906 479.933594 C 429.207031 479.933594 423.699219 474.929688 423.699219 471.089844 C 423.863281 466.589844 427.871094 463.585938 433.878906 463.585938 C 439.222656 463.585938 441.726562 466.085938 441.726562 471.757812 C 441.726562 477.097656 438.890625 479.765625 433.378906 479.933594 Z M 569.9375 426.054688 C 569.4375 411.710938 567.601562 397.199219 565.765625 383.019531 C 564.09375 370.34375 561.589844 357.832031 559.421875 345.320312 C 559.085938 343.820312 557.917969 342.484375 557.75 342.152344 C 546.398438 344.820312 535.882812 346.988281 525.363281 349.824219 C 509.171875 353.996094 493.144531 350.324219 477.117188 348.824219 C 461.257812 347.15625 445.734375 342.652344 429.875 339.648438 C 421.359375 337.980469 417.019531 332.644531 414.347656 325.136719 C 412.011719 318.632812 409.507812 312.292969 407.335938 305.957031 C 403.164062 293.445312 399.15625 280.769531 394.984375 268.257812 C 392.644531 261.417969 390.140625 254.414062 387.304688 246.074219 C 386.46875 251.078125 386.136719 254.078125 385.46875 257.25 C 380.960938 282.9375 377.957031 308.457031 382.464844 334.480469 C 383.964844 343.320312 378.957031 347.65625 370.109375 345.820312 C 353.75 342.152344 337.390625 338.480469 321.195312 334.644531 C 299.324219 329.476562 279.125 320.300781 260.09375 308.792969 C 243.734375 298.949219 226.371094 290.109375 214.6875 273.761719 C 212.015625 279.101562 209.511719 283.269531 207.507812 287.773438 C 197.492188 309.292969 193.316406 332.476562 189.144531 355.496094 C 184.46875 381.015625 181.800781 407.039062 180.796875 432.894531 C 179.796875 459.75 181.800781 486.9375 182.632812 514.128906 C 182.800781 515.128906 182.800781 516.128906 182.96875 517.128906 C 183.46875 517.464844 184.136719 517.796875 184.636719 517.964844 C 187.308594 519.296875 189.644531 520.464844 191.480469 522.300781 C 194.488281 525.636719 197.324219 529.304688 199.660156 532.640625 C 200.996094 534.476562 202.167969 536.144531 203.335938 537.648438 L 205.003906 539.816406 L 207.007812 537.8125 C 209.679688 535.144531 212.515625 532.308594 215.519531 529.472656 C 218.527344 526.636719 221.53125 523.636719 224.371094 520.632812 L 226.039062 518.964844 L 224.371094 517.128906 C 213.183594 505.785156 205.671875 490.441406 201.664062 471.089844 C 197.492188 449.40625 199.496094 432.894531 208.175781 419.046875 L 209.175781 417.378906 L 207.84375 416.046875 C 207.175781 415.210938 206.339844 414.378906 205.503906 413.542969 C 203.835938 411.875 202.167969 410.207031 201.5 408.539062 C 200.832031 406.871094 200.832031 404.535156 201.5 402.535156 C 202.667969 402.535156 204.835938 402.535156 206.507812 403.035156 C 208.007812 403.367188 209.34375 404.203125 211.179688 405.203125 C 212.015625 405.703125 212.851562 406.203125 213.851562 406.707031 L 215.1875 407.371094 L 216.355469 406.539062 C 217.523438 405.703125 218.691406 405.035156 219.863281 404.203125 C 221.03125 403.367188 222.367188 402.535156 223.867188 401.535156 L 225.539062 400.535156 L 224.871094 398.699219 C 224.035156 396.195312 223.199219 393.859375 222.367188 391.359375 C 221.699219 389.359375 221.03125 387.1875 220.195312 385.019531 C 220.53125 384.351562 221.03125 383.6875 221.53125 382.851562 C 221.863281 382.351562 222.199219 381.683594 222.699219 381.015625 C 223.703125 382.519531 224.703125 383.851562 225.703125 385.1875 C 228.375 389.023438 231.046875 392.695312 233.71875 396.363281 L 234.71875 397.699219 L 236.222656 397.363281 C 238.726562 396.863281 241.5625 396.363281 244.234375 395.863281 C 264.9375 392.695312 278.292969 405.203125 288.640625 417.714844 C 301.496094 433.394531 307.671875 450.40625 306.839844 467.921875 C 306.335938 476.09375 304.335938 484.9375 300.660156 493.441406 C 297.992188 499.78125 293.984375 505.953125 290.144531 511.957031 C 288.976562 513.792969 287.808594 515.628906 286.636719 517.464844 C 281.296875 525.96875 263.933594 532.808594 253.585938 530.640625 C 250.746094 529.972656 247.90625 529.640625 245.070312 529.304688 C 244.234375 529.140625 243.234375 529.140625 242.398438 528.972656 L 240.394531 528.640625 L 239.894531 530.308594 L 239.726562 530.640625 C 233.886719 546.988281 229.378906 559.496094 225.035156 571.339844 C 224.535156 572.84375 223.199219 574.34375 222.03125 575.84375 C 221.699219 576.179688 221.363281 576.679688 221.03125 577.011719 C 216.523438 582.183594 214.519531 582.351562 209.34375 579.015625 C 205.671875 576.511719 202.332031 573.507812 198.828125 570.339844 C 197.492188 569.003906 195.988281 567.839844 194.488281 566.503906 C 193.152344 565.503906 192.148438 564.335938 190.980469 563.167969 C 190.648438 562.667969 190.144531 562.332031 189.644531 561.832031 L 187.308594 559.496094 C 187.476562 561 187.640625 562.5 187.808594 564 C 188.476562 570.839844 188.644531 577.847656 189.980469 584.683594 C 191.480469 592.023438 195.15625 599.03125 196.15625 606.371094 C 198.160156 622.550781 205.503906 636.5625 212.015625 651.074219 C 212.515625 652.40625 213.851562 653.410156 214.519531 654.578125 C 217.523438 660.246094 220.863281 663.25 222.53125 668.421875 C 223.367188 671.089844 224.535156 673.925781 226.039062 676.09375 C 238.390625 693.609375 253.75 707.285156 271.949219 718.796875 C 296.820312 734.476562 323.699219 739.8125 352.078125 740.980469 C 373.78125 741.816406 395.652344 741.816406 417.019531 737.476562 C 426.367188 735.644531 435.882812 734.308594 444.566406 730.640625 C 455.582031 725.96875 465.765625 719.464844 476.285156 713.457031 C 481.292969 710.621094 486.632812 707.953125 490.808594 703.949219 C 500.15625 694.941406 509.003906 685.269531 518.019531 675.761719 C 530.371094 662.582031 540.390625 647.570312 547.566406 631.058594 C 555.75 612.542969 561.925781 593.027344 564.261719 572.84375 C 567.101562 548.488281 570.105469 523.96875 571.105469 499.449219 C 571.941406 474.761719 570.941406 450.40625 569.9375 426.054688 Z M 340.394531 513.792969 C 339.894531 518.628906 338.390625 521.800781 336.054688 523.132812 C 333.714844 524.636719 330.042969 524.46875 325.535156 522.800781 C 323.199219 521.96875 320.695312 520.800781 318.523438 519.632812 C 317.523438 519.132812 316.519531 518.796875 315.519531 518.296875 L 313.851562 517.628906 L 312.679688 518.796875 C 312.347656 519.132812 311.679688 519.632812 311.179688 520.132812 L 309.84375 521.132812 L 310.175781 522.800781 C 310.84375 525.46875 311.511719 528.304688 312.679688 530.972656 C 313.683594 534.144531 314.519531 537.3125 315.519531 540.480469 C 317.023438 545.152344 318.523438 549.988281 319.691406 554.660156 C 320.195312 556.828125 320.027344 558.996094 319.691406 559.664062 C 318.191406 562.167969 316.355469 564.167969 314.683594 565.003906 C 313.683594 564.335938 311.679688 562.332031 311.179688 561 L 309.675781 557.328125 C 304.835938 545.320312 300.160156 534.144531 299.828125 521.464844 C 299.828125 517.964844 300.660156 515.292969 302.664062 513.625 C 304.167969 512.292969 306.335938 511.625 308.839844 511.625 C 309.34375 511.625 310.011719 511.625 310.679688 511.792969 C 316.019531 512.460938 321.363281 513.292969 327.871094 514.292969 L 330.878906 514.792969 L 330.710938 511.625 C 330.542969 507.957031 330.378906 504.117188 330.042969 500.28125 C 329.542969 491.273438 328.875 481.933594 328.875 472.757812 C 328.707031 460.25 328.707031 447.40625 328.707031 435.0625 C 328.707031 422.71875 328.875 409.875 328.707031 397.363281 C 328.707031 392.359375 327.207031 387.023438 324.699219 383.6875 C 319.191406 376.347656 311.179688 367.507812 298.660156 363.503906 C 288.808594 360.332031 279.292969 359 268.777344 359.5 C 259.59375 359.832031 251.582031 359.832031 244.234375 359.167969 C 242.898438 359 240.730469 357.496094 240.394531 356.832031 C 240.0625 353.660156 241.0625 350.160156 241.730469 349.492188 C 247.242188 346.65625 253.917969 344.488281 261.097656 342.984375 C 263.765625 342.320312 266.9375 342.652344 270.109375 343.152344 C 271.78125 343.320312 273.449219 343.488281 275.121094 343.652344 C 290.476562 344.320312 304.667969 348.992188 317.1875 357.664062 C 325.035156 363.003906 330.042969 370.84375 335.21875 379.183594 C 336.054688 380.515625 337.054688 382.019531 337.890625 383.519531 C 338.558594 384.519531 338.558594 386.855469 338.558594 388.855469 L 340.5625 449.574219 C 340.726562 453.242188 340.894531 457.082031 340.894531 460.75 C 341.226562 471.257812 341.730469 482.101562 341.730469 492.777344 C 341.730469 499.28125 341.226562 506.121094 340.394531 513.792969 Z M 306.171875 650.074219 C 304.667969 653.742188 303.332031 657.578125 300.828125 659.746094 C 297.324219 662.582031 290.644531 664.085938 286.636719 663.082031 C 263.601562 657.246094 250.078125 635.5625 254.585938 611.539062 C 255.585938 606.035156 257.925781 602.367188 261.597656 600.699219 C 263.101562 600.03125 264.769531 599.699219 266.4375 599.699219 C 269.609375 599.699219 273.117188 600.699219 276.957031 602.867188 C 290.8125 610.375 300.160156 621.046875 305.167969 635.394531 C 305.835938 637.0625 306.335938 639.0625 306.839844 641.398438 C 307.171875 642.734375 307.507812 644.234375 307.839844 645.902344 C 307.171875 647.238281 306.671875 648.738281 306.171875 650.074219 Z M 418.355469 360.667969 C 422.027344 359.332031 426.035156 358.664062 430.042969 358.332031 C 446.902344 356.832031 463.09375 361.167969 478.121094 371.507812 C 480.792969 373.34375 482.960938 376.511719 481.460938 379.683594 C 480.957031 381.015625 478.953125 382.019531 477.285156 382.851562 C 476.785156 383.019531 476.449219 383.351562 475.949219 383.519531 C 473.445312 382.851562 471.109375 382.351562 468.773438 381.851562 C 463.261719 380.515625 458.589844 379.515625 454.082031 377.679688 C 447.738281 375.011719 439.722656 372.175781 431.042969 372.175781 C 427.203125 372.175781 423.03125 372.675781 418.855469 374.011719 C 416.851562 374.679688 414.847656 374.84375 413.011719 374.679688 C 411.011719 374.511719 409.507812 373.679688 408.839844 372.511719 C 408.171875 371.34375 408.339844 369.675781 409.339844 367.839844 C 411.675781 364.335938 414.847656 362 418.355469 360.667969 Z M 504.332031 569.339844 C 502.828125 572.175781 501.324219 575.175781 500.15625 578.347656 C 498.652344 582.515625 496.484375 586.6875 494.3125 590.691406 C 493.480469 592.023438 492.8125 593.527344 492.144531 594.859375 C 489.304688 600.363281 485.964844 603.699219 481.960938 604.703125 C 477.117188 606.035156 472.109375 603.535156 468.773438 601.367188 C 456.417969 593.191406 443.730469 584.183594 435.050781 571.175781 C 429.875 563 425.699219 554.160156 431.878906 544.652344 L 432.710938 543.484375 L 433.214844 542.652344 L 431.210938 541.316406 C 430.707031 540.984375 430.375 540.648438 429.875 540.316406 C 428.707031 539.316406 427.371094 538.3125 425.699219 537.644531 C 406.335938 530.140625 395.316406 515.796875 392.144531 494.109375 C 388.304688 467.089844 394.648438 444.902344 411.511719 426.222656 C 415.515625 421.71875 420.191406 419.214844 426.367188 418.214844 C 430.542969 417.546875 434.214844 416.046875 437.886719 414.546875 C 440.890625 413.210938 443.730469 412.042969 446.734375 411.375 C 453.746094 409.707031 459.421875 408.875 464.597656 408.875 C 473.113281 408.875 480.457031 411.207031 490.976562 416.378906 L 492.476562 417.214844 L 493.8125 416.046875 C 494.8125 415.046875 495.984375 413.878906 496.984375 412.875 C 499.65625 410.207031 502.328125 407.371094 505.332031 405.371094 C 507 404.203125 510.839844 403.871094 512.175781 404.535156 C 514.511719 405.703125 513.679688 408.875 512.511719 411.207031 C 510.671875 415.046875 508.835938 418.714844 506.667969 422.71875 L 504.496094 426.886719 L 504.996094 428.054688 C 505.164062 428.554688 505.5 428.890625 505.832031 429.390625 C 506 429.558594 506.167969 429.722656 506.167969 429.890625 L 507.167969 431.894531 L 509.171875 431.226562 C 512.007812 430.222656 514.679688 429.390625 517.183594 428.554688 C 518.1875 428.222656 519.1875 427.890625 520.191406 427.390625 C 524.195312 425.886719 526.867188 425.054688 529.871094 427.054688 C 531.875 428.390625 533.042969 429.722656 533.042969 430.890625 C 533.042969 431.894531 532.042969 433.058594 530.207031 434.226562 C 527.535156 435.894531 524.695312 437.398438 521.691406 439.066406 C 519.6875 440.066406 517.683594 441.234375 515.515625 442.402344 L 514.011719 443.234375 L 514.179688 444.902344 C 517.851562 470.757812 514.179688 490.441406 502.328125 506.789062 C 491.808594 521.632812 476.617188 539.148438 451.074219 542.316406 L 444.398438 543.152344 L 450.074219 546.820312 C 451.910156 547.988281 453.746094 549.324219 455.582031 550.492188 C 459.253906 552.992188 462.761719 555.328125 466.101562 557.496094 L 467.769531 558.664062 L 469.105469 557.164062 C 470.441406 555.828125 471.777344 554.328125 472.945312 552.992188 C 477.621094 547.988281 482.292969 542.984375 487.46875 538.480469 C 491.808594 534.644531 497.316406 534.144531 503.328125 537.3125 C 507.5 539.480469 508.003906 543.152344 508.335938 548.988281 L 508.503906 550.324219 C 510.339844 557.164062 507.503906 563 504.332031 569.339844 Z M 505.332031 470.089844 C 506.835938 457.582031 502.660156 434.894531 485.632812 427.554688 C 480.625 425.386719 475.449219 424.054688 469.941406 422.71875 C 467.4375 422.050781 464.765625 421.382812 462.261719 420.714844 L 461.59375 420.550781 L 460.925781 420.714844 C 457.253906 421.71875 453.578125 422.550781 450.074219 423.21875 C 443.5625 424.71875 436.886719 426.222656 430.375 428.390625 C 419.355469 432.226562 412.179688 439.398438 408.503906 450.40625 C 403.496094 465.253906 402.328125 478.597656 404.5 492.277344 C 407.503906 510.125 424.53125 529.640625 444.0625 529.640625 L 444.398438 529.640625 C 456.585938 529.472656 467.769531 525.46875 475.785156 518.464844 C 487.96875 508.121094 502.492188 493.277344 505.332031 470.089844 Z M 433.378906 479.933594 C 429.207031 479.933594 423.699219 474.929688 423.699219 471.089844 C 423.863281 466.589844 427.871094 463.585938 433.878906 463.585938 C 439.222656 463.585938 441.726562 466.085938 441.726562 471.757812 C 441.726562 477.097656 438.890625 479.765625 433.378906 479.933594 Z M 485.632812 427.554688 C 480.625 425.386719 475.449219 424.054688 469.941406 422.71875 C 467.4375 422.050781 464.765625 421.382812 462.261719 420.714844 L 461.59375 420.550781 L 460.925781 420.714844 C 457.253906 421.71875 453.578125 422.550781 450.074219 423.21875 C 443.5625 424.71875 436.886719 426.222656 430.375 428.390625 C 419.355469 432.226562 412.179688 439.398438 408.503906 450.40625 C 403.496094 465.253906 402.328125 478.597656 404.5 492.277344 C 407.503906 510.125 424.53125 529.640625 444.0625 529.640625 L 444.398438 529.640625 C 456.585938 529.472656 467.769531 525.46875 475.78125 518.464844 C 488.136719 508.121094 502.492188 493.109375 505.332031 469.925781 C 506.667969 457.414062 502.660156 434.726562 485.632812 427.554688 Z M 433.378906 479.933594 C 429.207031 479.933594 423.699219 474.929688 423.699219 471.089844 C 423.863281 466.589844 427.871094 463.585938 433.878906 463.585938 C 439.222656 463.585938 441.726562 466.085938 441.726562 471.757812 C 441.726562 477.097656 438.890625 479.765625 433.378906 479.933594 Z M 277.625 417.214844 C 266.4375 405.871094 254.585938 401.367188 241.230469 403.535156 C 231.882812 405.039062 224.871094 408.039062 220.695312 417.714844 C 215.855469 429.058594 211.847656 439.398438 211.847656 451.574219 L 211.847656 452.074219 C 212.347656 454.578125 212.683594 457.082031 213.183594 459.582031 C 214.1875 465.585938 215.1875 471.757812 217.359375 477.597656 C 223.367188 494.445312 230.878906 511.292969 251.078125 516.796875 C 252.75 517.296875 255.585938 517.964844 258.425781 517.964844 C 260.09375 517.964844 261.929688 517.796875 263.433594 517.128906 C 280.796875 511.125 298.15625 486.769531 297.824219 468.589844 C 297.324219 447.738281 290.476562 430.390625 277.625 417.214844 Z M 240.730469 446.90625 L 240.898438 446.90625 C 243.066406 446.90625 245.238281 447.90625 246.90625 449.40625 C 248.410156 450.910156 249.410156 452.910156 249.242188 454.910156 C 249.078125 459.914062 244.902344 464.085938 240.230469 464.085938 C 235.886719 464.085938 232.550781 460.582031 232.550781 456.078125 C 232.714844 451.910156 236.890625 447.070312 240.730469 446.90625 Z M 240.730469 446.90625 "/>
<path style=" stroke:none;fill-rule:nonzero;fill:rgb(98.039246%,86.268616%,19.60907%);fill-opacity:1;" d="M 590.640625 333.476562 C 589.636719 339.148438 589.972656 345.320312 590.304688 351.828125 C 590.472656 354.996094 590.640625 358.332031 590.640625 361.5 C 590.640625 363.503906 590.304688 365.335938 589.972656 366.839844 C 589.804688 367.507812 589.636719 368.007812 589.636719 368.507812 L 588.636719 374.011719 L 582.960938 374.011719 C 582.457031 374.011719 581.789062 374.011719 581.625 374.011719 L 575.113281 375.347656 L 573.777344 368.839844 C 573.277344 365.839844 572.609375 362.835938 571.941406 360 C 571.273438 356.996094 570.605469 353.996094 570.105469 350.992188 C 564.429688 318.632812 558.585938 285.105469 543.394531 254.746094 C 528.535156 225.222656 510.839844 201.535156 488.972656 182.6875 C 476.117188 171.34375 462.261719 159.667969 446.570312 151.996094 C 426.203125 141.988281 410.007812 137.316406 393.648438 136.984375 C 392.480469 136.984375 391.3125 136.984375 390.140625 136.984375 C 373.28125 136.984375 356.421875 140.820312 336.886719 149.160156 C 318.023438 157.167969 301.832031 166.007812 286.972656 176.015625 C 270.777344 187.023438 257.089844 199.867188 246.238281 214.046875 C 231.714844 233.394531 219.695312 249.742188 208.84375 265.253906 C 205.839844 269.59375 203.5 274.261719 200.996094 279.265625 C 199.828125 281.601562 198.660156 283.9375 197.324219 286.273438 C 197.15625 286.773438 196.824219 287.441406 196.65625 287.941406 C 196.324219 288.609375 196.15625 289.273438 195.824219 290.109375 C 193.820312 296.949219 191.816406 303.785156 189.980469 310.460938 C 188.644531 315.296875 187.140625 320.132812 185.804688 324.972656 C 185.304688 328.808594 184.636719 332.644531 184.136719 336.480469 C 183.636719 340.484375 182.96875 344.320312 182.46875 348.324219 L 181.632812 353.996094 L 167.109375 353.996094 L 167.109375 332.308594 C 167.273438 310.625 170.113281 293.277344 175.621094 278.097656 C 179.964844 266.089844 185.136719 254.246094 190.144531 242.902344 C 191.316406 240.234375 192.484375 237.398438 193.652344 234.730469 C 194.988281 231.5625 196.324219 228.390625 197.492188 225.222656 C 200.328125 218.214844 203.167969 211.042969 206.839844 204.039062 C 216.355469 185.355469 229.710938 169.675781 242.734375 155.332031 C 262.597656 133.480469 283.300781 116.800781 306.171875 104.121094 C 329.710938 91.113281 355.25 84.105469 384.464844 83.105469 C 390.308594 82.9375 394.984375 82.769531 399.324219 82.769531 C 419.691406 82.769531 435.050781 84.773438 449.238281 89.109375 C 474.613281 96.949219 495.648438 108.792969 512.007812 124.140625 C 540.890625 151.328125 557.75 185.691406 568.9375 212.546875 C 579.285156 237.066406 585.796875 260.917969 588.636719 285.105469 L 588.800781 286.273438 C 591.304688 301.453125 593.644531 316.964844 590.640625 333.476562 Z M 590.640625 333.476562 "/>
<path style=" stroke:none;fill-rule:nonzero;fill:rgb(58.81958%,50.979614%,86.268616%);fill-opacity:1;" d="M 277.957031 299.449219 L 277.289062 303.785156 L 273.28125 301.953125 C 251.078125 291.445312 233.382812 280.933594 219.195312 263.753906 L 217.523438 261.753906 L 219.027344 259.582031 C 220.363281 257.582031 221.863281 255.746094 223.367188 253.746094 C 225.703125 250.578125 228.042969 247.242188 230.378906 244.070312 C 236.390625 235.898438 242.734375 227.390625 249.242188 219.050781 C 262.097656 202.871094 278.457031 184.6875 300.660156 172.511719 C 304.835938 170.175781 309.007812 167.675781 313.015625 165.171875 C 318.191406 162.003906 323.367188 158.835938 328.875 155.832031 C 332.546875 153.828125 336.554688 152.496094 340.226562 151.160156 C 342.0625 150.492188 343.734375 149.992188 345.570312 149.160156 L 347.90625 148.324219 L 349.410156 150.328125 C 350.078125 151.160156 351.078125 152.328125 351.746094 153.996094 L 352.746094 156.164062 L 350.910156 157.832031 C 311.179688 192.363281 287.304688 238.734375 277.957031 299.449219 Z M 485.632812 315.964844 C 483.128906 311.125 480.289062 306.289062 477.621094 301.617188 C 472.445312 292.609375 467.101562 283.4375 463.261719 273.929688 C 452.746094 248.074219 445.234375 221.21875 440.726562 194.03125 C 439.722656 187.359375 438.554688 179.683594 439.222656 172.511719 C 440.726562 158.5 439.890625 155.664062 426.703125 150.160156 C 419.523438 147.15625 412.179688 146.324219 405 145.488281 C 401.160156 144.988281 397.488281 144.65625 393.980469 143.820312 C 375.785156 139.820312 365.269531 148.992188 357.253906 158.5 C 353.914062 162.503906 350.578125 166.339844 347.238281 170.175781 C 340.5625 178.015625 333.714844 186.023438 327.207031 194.363281 C 318.523438 205.707031 312.347656 215.378906 307.671875 224.722656 C 297.324219 245.238281 292.316406 267.421875 287.304688 289.109375 C 286.136719 294.277344 284.96875 299.285156 283.800781 304.453125 L 283.132812 306.957031 L 285.46875 308.125 C 308.339844 320.300781 353.75 334.144531 367.4375 331.308594 L 370.109375 330.808594 L 370.109375 322.136719 C 369.941406 319.300781 369.773438 316.296875 369.441406 313.460938 C 368.941406 307.789062 368.441406 302.285156 369.109375 297.113281 C 370.109375 285.773438 372.28125 274.261719 374.449219 263.253906 L 375.117188 259.917969 C 377.289062 248.40625 379.957031 236.566406 382.460938 225.222656 C 383.296875 221.886719 383.964844 218.550781 384.800781 215.046875 C 385.300781 213.046875 385.632812 211.042969 385.96875 209.042969 C 386.804688 204.371094 387.804688 199.699219 389.472656 195.363281 C 389.808594 194.695312 391.980469 193.53125 393.148438 193.027344 C 393.3125 192.863281 393.480469 192.863281 393.816406 192.695312 C 393.980469 192.863281 394.148438 193.195312 394.316406 193.363281 C 395.152344 194.363281 396.484375 196.03125 396.484375 196.53125 C 393.480469 217.382812 398.15625 236.898438 404.332031 258.417969 C 407.671875 270.425781 412.011719 282.269531 416.183594 293.777344 C 417.355469 296.949219 418.523438 300.285156 419.691406 303.453125 C 421.027344 307.289062 422.363281 311.292969 423.863281 314.960938 C 424.867188 317.464844 425.699219 319.96875 426.703125 322.46875 L 427.371094 324.304688 L 429.375 324.636719 C 436.21875 325.636719 443.0625 326.972656 449.574219 328.308594 C 461.925781 330.808594 474.78125 333.476562 488.636719 333.476562 C 488.972656 333.476562 489.136719 333.476562 489.472656 333.476562 L 494.816406 333.476562 L 490.472656 324.804688 C 488.46875 321.46875 487.136719 318.632812 485.632812 315.964844 Z M 167.109375 454.746094 C 166.941406 451.242188 166.609375 447.738281 166.441406 444.402344 C 166.773438 443.570312 167.109375 442.734375 167.441406 442.234375 L 169.277344 439.230469 L 166.105469 437.730469 L 165.941406 434.5625 L 164.269531 437.0625 L 160.765625 435.394531 L 159.761719 443.402344 C 159.761719 443.570312 159.597656 443.570312 159.597656 443.734375 C 158.59375 445.070312 157.425781 446.570312 156.925781 448.574219 C 155.253906 454.246094 153.417969 459.75 151.75 465.421875 C 147.074219 480.433594 142.234375 496.113281 138.394531 511.625 C 135.554688 522.632812 133.71875 534.976562 132.21875 551.324219 C 130.882812 567.671875 130.046875 584.183594 129.210938 600.199219 L 128.710938 609.871094 C 128.542969 614.042969 128.542969 617.878906 128.710938 622.214844 C 128.710938 624.382812 128.710938 626.386719 128.710938 628.554688 L 128.710938 630.890625 L 130.882812 631.722656 C 134.222656 632.890625 137.394531 634.058594 140.566406 635.226562 C 144.40625 636.726562 148.242188 638.0625 152.082031 639.5625 L 156.589844 641.230469 L 156.589844 636.5625 C 156.589844 633.058594 156.589844 629.890625 156.589844 626.886719 C 156.589844 621.214844 156.425781 615.878906 156.589844 610.539062 C 157.257812 596.695312 158.261719 582.851562 159.597656 569.339844 C 159.929688 565.835938 160.265625 562.332031 160.429688 558.996094 C 161.433594 546.320312 162.601562 533.308594 165.105469 520.964844 C 169.78125 498.113281 168.445312 476.097656 167.109375 454.746094 Z M 172.117188 553.324219 L 168.609375 521.96875 L 165.4375 553.492188 C 162.601562 582.351562 160.097656 610.707031 161.765625 640.230469 L 161.933594 642.566406 L 164.4375 643.234375 C 172.617188 645.570312 180.964844 647.902344 191.148438 650.574219 L 197.324219 652.242188 L 194.988281 646.234375 C 182.800781 613.542969 175.457031 584.019531 172.117188 553.324219 Z M 251.246094 140.652344 C 285.136719 108.792969 314.851562 91.445312 347.738281 84.605469 C 358.089844 82.4375 369.273438 80.9375 380.625 79.9375 C 388.304688 79.433594 396.320312 79.433594 403.832031 79.601562 C 407.335938 79.601562 410.84375 79.769531 414.347656 79.769531 L 417.6875 79.769531 C 421.695312 80.269531 425.867188 80.769531 429.707031 81.269531 L 435.214844 81.9375 L 435.214844 78.269531 C 435.214844 78.101562 435.214844 78.101562 435.214844 77.933594 C 435.214844 77.433594 435.382812 77.101562 435.382812 76.597656 L 435.382812 73.929688 L 432.710938 73.429688 C 429.707031 72.929688 426.703125 72.261719 423.699219 71.59375 C 421.527344 71.09375 419.523438 70.761719 417.355469 70.261719 L 417.355469 69.925781 L 414.515625 69.59375 L 410.675781 68.761719 L 410.675781 69.09375 C 404.832031 68.257812 398.824219 67.59375 392.980469 66.757812 C 385.800781 65.757812 378.789062 64.921875 371.613281 63.921875 C 370.945312 63.753906 370.277344 63.753906 369.609375 63.589844 C 366.769531 63.089844 363.765625 62.589844 360.761719 62.921875 C 349.574219 63.753906 341.0625 64.589844 333.046875 65.757812 C 321.363281 67.257812 310.011719 69.09375 298.65625 74.929688 C 278.125 85.605469 260.429688 100.621094 244.902344 114.128906 C 229.542969 127.308594 216.691406 142.820312 204.671875 157.5 C 203.5 158.835938 202.332031 160.167969 201.164062 161.667969 C 199.328125 163.839844 197.324219 166.007812 195.65625 168.507812 C 193.316406 172.179688 191.148438 175.847656 188.8125 179.519531 C 176.125 199.535156 163.101562 220.21875 152.585938 242.070312 C 146.910156 253.914062 140.566406 265.753906 134.386719 277.265625 C 129.378906 286.605469 124.203125 296.28125 119.363281 305.957031 C 115.691406 313.128906 112.519531 320.800781 109.679688 327.972656 C 108.179688 331.476562 106.84375 334.980469 105.339844 338.480469 C 104.003906 341.816406 102.503906 345.15625 101.167969 348.324219 C 97.492188 357.164062 93.652344 366.171875 89.648438 374.84375 C 86.976562 380.683594 84.136719 386.6875 81.46875 392.359375 C 77.960938 399.699219 74.289062 407.371094 70.949219 414.878906 C 62.4375 434.894531 55.589844 451.574219 49.75 467.089844 C 42.738281 485.9375 35.558594 506.121094 27.546875 530.808594 C 25.042969 538.3125 22.871094 546.152344 20.867188 553.660156 C 19.867188 557.164062 19.03125 560.664062 18.03125 564.167969 L 17.363281 566.335938 L 22.703125 570.171875 C 27.378906 573.675781 31.886719 576.84375 36.558594 580.015625 L 40.902344 583.015625 L 41.902344 577.847656 C 42.738281 573.507812 43.40625 569.339844 44.074219 565.167969 C 45.40625 556.996094 46.742188 549.15625 48.578125 541.484375 C 52.253906 526.304688 56.59375 511.457031 60.097656 500.117188 C 65.105469 483.433594 70.78125 465.421875 77.125 447.570312 C 80.296875 438.730469 84.136719 429.890625 87.976562 421.382812 C 89.980469 416.714844 92.152344 411.875 94.15625 407.039062 C 96.160156 402.203125 97.996094 397.363281 99.832031 392.527344 C 102 387.023438 104.003906 381.183594 106.507812 375.679688 C 114.355469 357.332031 122.367188 338.816406 130.214844 320.96875 L 137.394531 304.289062 C 147.578125 280.433594 160.765625 257.25 177.625 233.5625 C 183.46875 225.390625 189.644531 217.214844 195.65625 209.207031 C 199.660156 203.703125 204.003906 198.199219 208.007812 192.527344 C 210.011719 189.691406 212.015625 186.691406 213.851562 183.855469 C 216.691406 179.351562 219.695312 174.679688 223.035156 170.84375 C 232.714844 159.167969 242.230469 149.160156 251.246094 140.652344 Z M 524.195312 317.964844 C 517.019531 305.289062 510.171875 293.277344 504.332031 280.601562 C 500.324219 272.09375 496.816406 263.253906 493.480469 254.578125 C 490.472656 246.574219 487.136719 238.398438 483.628906 230.394531 C 476.285156 214.046875 472.109375 199.535156 470.941406 186.023438 C 469.605469 172.679688 461.59375 167.675781 452.746094 163.503906 L 447.570312 161.003906 L 448.070312 166.839844 C 452.578125 220.71875 463.09375 282.769531 507.335938 333.644531 L 508.503906 334.980469 L 510.171875 334.8125 C 513.179688 334.644531 516.015625 334.3125 519.019531 334.144531 C 522.027344 333.980469 524.863281 333.644531 527.867188 333.476562 L 533.042969 332.976562 L 530.039062 328.472656 C 528.035156 324.972656 526.03125 321.46875 524.195312 317.964844 Z M 677.617188 636.226562 C 674.445312 618.378906 671.105469 600.199219 667.765625 582.683594 C 666.929688 577.679688 665.929688 572.675781 664.929688 567.671875 C 663.425781 559.832031 661.921875 551.65625 660.585938 543.652344 C 659.753906 538.8125 659.085938 533.808594 658.417969 528.972656 C 657.582031 522.632812 656.582031 515.960938 655.414062 509.457031 C 653.910156 500.617188 651.90625 491.773438 650.070312 483.101562 C 649.402344 480.265625 648.902344 477.429688 648.234375 474.59375 C 646.730469 467.421875 645.394531 460.25 643.894531 453.078125 C 639.71875 432.394531 635.546875 410.875 630.871094 390.023438 C 627.199219 373.679688 622.691406 357.164062 618.183594 341.316406 C 617.183594 337.980469 616.347656 334.644531 615.347656 331.308594 C 613.007812 323.136719 610.503906 314.960938 608.167969 306.957031 C 606.5 301.453125 604.660156 295.78125 603.160156 290.109375 L 603.328125 289.941406 L 602.824219 289.109375 C 602.660156 288.773438 602.660156 288.441406 602.492188 288.105469 L 600.988281 282.601562 C 600.65625 281.433594 600.488281 280.433594 600.15625 279.265625 L 598.484375 273.429688 L 590.304688 275.429688 L 590.640625 278.433594 C 590.972656 280.769531 591.304688 283.269531 591.472656 285.605469 C 591.808594 288.105469 592.140625 290.441406 592.476562 292.945312 L 592.476562 293.113281 C 592.640625 295.28125 592.808594 297.613281 592.976562 299.785156 C 593.644531 307.289062 594.3125 314.960938 594.644531 322.46875 C 594.8125 324.804688 594.644531 327.304688 594.644531 329.976562 C 594.476562 334.644531 594.3125 339.648438 595.480469 344.320312 C 597.484375 353.996094 599.988281 363.667969 602.492188 373.011719 C 604.328125 379.851562 606.164062 386.855469 607.667969 393.859375 L 609.167969 400.535156 C 613.007812 417.046875 617.183594 434.226562 619.855469 451.242188 C 622.859375 468.921875 624.863281 486.9375 626.699219 504.285156 L 627.367188 510.289062 C 627.699219 512.625 627.867188 514.960938 628.199219 517.296875 C 629.871094 531.976562 631.707031 547.320312 632.039062 562.332031 C 632.542969 584.351562 631.539062 606.535156 630.371094 627.21875 C 630.035156 633.558594 628.703125 639.898438 627.367188 646.570312 C 626.863281 649.070312 626.199219 651.742188 625.695312 654.578125 L 625.027344 654.410156 C 622.191406 654.074219 621.355469 653.242188 621.523438 648.90625 C 621.691406 645.570312 621.855469 642.234375 622.191406 638.898438 C 622.691406 629.890625 623.359375 620.546875 623.191406 611.375 C 622.359375 573.675781 621.355469 542.984375 619.6875 514.960938 C 618.683594 499.78125 616.347656 484.4375 614.011719 469.589844 L 613.34375 465.753906 C 611.507812 453.410156 609.003906 440.234375 605.664062 423.050781 C 604.660156 417.378906 603.328125 411.710938 602.15625 406.203125 C 601.324219 402.035156 600.320312 397.863281 599.488281 393.695312 L 598.984375 391.027344 L 596.316406 391.027344 C 595.3125 391.027344 594.644531 391.359375 594.144531 391.527344 L 592.140625 392.191406 L 591.808594 394.027344 C 591.304688 396.53125 590.804688 399.03125 590.472656 401.367188 C 589.46875 406.539062 588.636719 411.542969 586.800781 415.878906 C 583.960938 422.886719 583.792969 429.722656 583.792969 436.394531 C 583.792969 437.398438 583.792969 438.398438 583.792969 439.398438 C 583.792969 445.070312 583.628906 450.910156 583.628906 456.578125 C 583.460938 476.261719 583.292969 496.613281 582.292969 516.628906 C 581.625 533.144531 579.789062 550.992188 576.617188 572.84375 C 575.78125 579.015625 573.945312 585.1875 572.273438 591.523438 C 570.773438 596.863281 569.269531 602.367188 568.269531 607.871094 C 565.929688 619.882812 562.59375 630.054688 558.253906 638.898438 C 556.082031 643.234375 553.746094 647.738281 551.574219 652.242188 C 549.40625 656.578125 547.234375 660.75 544.898438 665.25 L 542.558594 669.753906 L 547.566406 670.089844 C 552.074219 670.421875 556.582031 670.589844 561.089844 670.589844 C 582.457031 670.589844 603.828125 667.253906 625.695312 660.75 L 629.035156 659.746094 C 629.203125 659.746094 629.371094 659.746094 629.371094 659.746094 C 640.054688 659.746094 649.902344 656.746094 660.585938 653.574219 C 665.261719 652.242188 670.101562 650.738281 674.945312 649.570312 L 677.449219 648.90625 L 677.449219 646.234375 C 677.449219 645.070312 677.449219 644.066406 677.617188 642.898438 C 677.78125 640.898438 677.949219 638.5625 677.617188 636.226562 Z M 792.636719 601.03125 C 790.96875 595.695312 789.300781 590.355469 787.628906 585.019531 C 784.457031 575.34375 781.621094 566.003906 779.28125 556.664062 C 775.441406 540.816406 769.097656 525.804688 763.089844 511.292969 C 761.085938 506.453125 758.914062 501.449219 756.914062 496.445312 C 755.074219 491.773438 753.074219 486.9375 751.238281 482.101562 C 749.234375 477.261719 747.398438 472.425781 745.394531 467.753906 C 744.058594 464.585938 742.890625 461.417969 741.722656 458.246094 C 739.214844 451.910156 736.710938 445.402344 733.875 439.066406 C 726.195312 421.382812 717.847656 403.035156 708.832031 383.351562 C 706.328125 377.847656 703.65625 372.175781 701.152344 366.671875 C 692.140625 347.15625 682.957031 326.804688 673.273438 307.289062 C 662.925781 286.773438 651.574219 265.421875 639.21875 244.070312 C 632.707031 232.726562 625.027344 220.886719 615.011719 206.375 C 609.503906 198.367188 602.992188 190.695312 596.816406 183.355469 C 595.144531 181.351562 593.476562 179.351562 591.808594 177.183594 C 589.304688 174.179688 586.964844 171.175781 584.628906 168.175781 C 578.453125 160.503906 572.109375 152.496094 565.097656 145.488281 C 558.585938 139.152344 551.40625 133.3125 544.5625 127.640625 C 539.554688 123.636719 534.378906 119.46875 529.707031 115.132812 C 516.183594 103.289062 500.15625 93.113281 480.792969 84.4375 C 478.953125 83.605469 476.953125 82.605469 475.117188 81.605469 C 466.933594 77.433594 457.753906 72.929688 447.738281 76.265625 L 440.058594 78.933594 L 447.402344 82.4375 C 452.746094 84.941406 458.085938 87.441406 463.761719 90.109375 C 473.113281 94.28125 482.792969 98.785156 491.808594 103.621094 C 508.503906 112.960938 520.855469 123.472656 529.539062 135.480469 C 536.214844 144.824219 542.558594 154.832031 548.570312 164.503906 C 551.742188 169.675781 555.082031 174.847656 558.417969 180.019531 C 560.253906 183.019531 562.425781 185.855469 564.429688 188.691406 C 567.601562 193.195312 571.105469 197.867188 573.609375 202.703125 C 579.953125 214.546875 586.296875 227.558594 593.308594 243.738281 C 601.15625 261.585938 607 280.265625 612.507812 298.617188 L 613.84375 302.953125 C 614.679688 305.453125 615.511719 307.957031 616.347656 310.460938 C 617.851562 314.960938 619.351562 319.132812 620.355469 323.46875 C 623.359375 335.648438 626.195312 347.824219 629.035156 360 C 631.875 372.175781 634.878906 384.351562 637.714844 396.53125 C 639.050781 402.203125 640.554688 407.871094 642.058594 413.378906 C 644.226562 421.550781 646.5625 429.890625 648.234375 438.398438 C 652.238281 458.75 656.078125 479.433594 659.585938 499.449219 C 661.421875 509.625 663.257812 519.796875 665.261719 529.972656 C 667.597656 542.816406 670.101562 555.660156 672.441406 568.171875 C 673.609375 573.84375 674.609375 579.515625 675.777344 585.1875 C 676.445312 588.6875 677.113281 592.023438 677.78125 595.359375 C 678.449219 598.695312 679.117188 602.03125 679.617188 605.535156 C 681.289062 614.710938 682.789062 623.882812 684.292969 633.558594 L 686.628906 647.238281 L 690.46875 645.902344 C 699.152344 642.734375 708.164062 639.898438 716.847656 637.230469 C 742.222656 629.222656 768.429688 620.882812 791.636719 605.035156 L 793.640625 603.699219 Z M 548.234375 329.140625 C 550.238281 328.472656 552.410156 327.972656 554.746094 327.140625 L 556.917969 326.472656 L 557.082031 324.304688 C 557.082031 323.804688 557.082031 323.304688 557.25 322.800781 C 557.417969 320.800781 557.585938 318.800781 557.082031 316.796875 C 556.082031 313.128906 555.246094 309.292969 554.246094 305.621094 C 551.742188 295.445312 549.070312 284.9375 545.230469 274.929688 C 533.710938 244.90625 516.515625 218.050781 493.8125 194.695312 C 492.144531 193.027344 490.140625 191.863281 488.136719 190.695312 C 487.136719 190.191406 486.132812 189.527344 485.296875 189.027344 L 483.296875 187.691406 L 481.460938 189.191406 C 481.125 189.527344 480.625 189.859375 480.289062 190.191406 C 479.957031 190.359375 479.789062 190.695312 479.457031 190.859375 L 477.453125 192.363281 L 478.289062 194.695312 C 494.3125 240.234375 510.839844 287.273438 539.722656 329.808594 L 541.058594 331.808594 L 543.394531 330.976562 C 545.230469 330.140625 546.734375 329.640625 548.234375 329.140625 Z M 166.105469 399.699219 C 163.4375 393.527344 160.097656 388.855469 159.761719 384.019531 C 158.59375 366.503906 158.09375 348.824219 157.757812 331.308594 C 157.425781 315.128906 159.261719 299.285156 164.4375 283.769531 C 166.609375 277.265625 169.445312 271.59375 171.28125 265.089844 C 172.953125 261.753906 173.953125 257.25 175.789062 253.914062 C 174.953125 253.578125 174.121094 253.246094 173.285156 252.746094 C 171.617188 256.582031 168.777344 259.75 167.109375 263.585938 C 167.273438 263.585938 167.441406 263.585938 167.777344 263.753906 C 165.105469 268.425781 162.601562 273.59375 160.265625 278.597656 C 150.75 298.28125 140.898438 317.796875 132.050781 337.816406 C 124.039062 355.996094 117.359375 374.84375 109.679688 393.195312 C 102.667969 410.207031 94.65625 426.886719 87.976562 443.902344 C 82.96875 456.746094 79.296875 470.257812 75.457031 483.433594 C 70.78125 499.449219 66.109375 515.460938 61.933594 531.640625 C 57.429688 549.15625 53.753906 566.671875 49.582031 584.683594 C 53.421875 587.519531 58.261719 591.023438 63.4375 594.527344 C 64.605469 592.859375 65.273438 592.023438 65.941406 591.023438 C 72.285156 580.683594 78.628906 570.339844 84.972656 560.164062 C 87.476562 556.160156 90.648438 552.324219 96.160156 553.828125 C 102.335938 555.496094 102.335938 560.664062 102.167969 565.835938 C 102 569.839844 102.167969 574.011719 101.667969 578.011719 C 99.664062 592.359375 103.335938 604.867188 113.6875 615.042969 C 115.023438 616.378906 116.859375 616.878906 118.695312 618.046875 C 122.199219 579.679688 120.867188 541.816406 129.378906 504.621094 C 137.726562 467.589844 153.585938 433.394531 166.105469 399.699219 Z M 166.105469 399.699219 "/>
<path style=" stroke:none;fill-rule:nonzero;fill:rgb(98.039246%,60.778809%,45.098877%);fill-opacity:1;" d="M 241.730469 531.640625 C 236.890625 545.152344 232.046875 558.832031 227.039062 572.339844 C 226.207031 574.675781 224.203125 576.679688 222.53125 578.679688 C 217.359375 584.519531 214.019531 585.519531 207.507812 581.015625 C 202.167969 577.347656 197.492188 572.675781 192.484375 568.339844 C 190.8125 566.835938 189.144531 565.167969 187.476562 563.5 C 185.804688 546.988281 184.136719 530.472656 182.46875 513.960938 C 185.972656 515.960938 190.144531 517.464844 192.816406 520.296875 C 197.660156 525.46875 201.664062 531.476562 204.835938 535.644531 C 210.511719 530.140625 216.355469 524.300781 222.199219 518.464844 C 228.875 522.96875 235.386719 527.304688 241.730469 531.640625 Z M 433.046875 572.675781 C 441.726562 585.851562 454.246094 594.859375 467.4375 603.535156 C 477.117188 610.039062 487.46875 609.707031 494.3125 596.027344 C 497.152344 590.523438 500.492188 585.019531 502.492188 579.179688 C 506 569.507812 513.34375 561.164062 512.175781 549.824219 C 511.675781 543.984375 511.675781 537.980469 505.664062 534.8125 C 499.15625 531.308594 492.308594 531.476562 486.96875 536.3125 C 480.289062 542.148438 474.28125 548.988281 468.4375 555.160156 C 463.597656 551.824219 458.085938 548.15625 452.578125 544.484375 C 445.066406 544.152344 437.554688 543.816406 430.042969 543.316406 C 422.863281 553.992188 427.203125 563.835938 433.046875 572.675781 Z M 285.972656 649.40625 C 290.644531 651.074219 293.648438 648.40625 293.316406 643.902344 C 292.316406 630.890625 281.796875 625.050781 268.609375 631.058594 C 271.28125 640.730469 277.457031 646.402344 285.972656 649.40625 Z M 285.972656 649.40625 "/>
<g clip-path="url(#clip1)" clip-rule="nonzero">
<path style=" stroke:none;fill-rule:nonzero;fill:rgb(23.529053%,31.369019%,74.508667%);fill-opacity:1;" d="M 342.898438 449.40625 C 342.230469 429.222656 341.5625 408.875 340.894531 388.691406 C 340.894531 386.355469 340.894531 383.6875 339.726562 382.019531 C 333.550781 372.511719 328.039062 362.335938 318.355469 355.664062 C 305.335938 346.65625 290.8125 341.816406 274.953125 341.152344 C 270.109375 340.984375 264.9375 339.648438 260.261719 340.652344 C 253.417969 341.984375 246.40625 344.152344 240.230469 347.324219 C 238.058594 348.492188 237.222656 353.828125 237.558594 357.164062 C 237.726562 359 241.398438 361.5 243.734375 361.667969 C 252.082031 362.335938 260.429688 362.335938 268.609375 362 C 278.625 361.5 287.972656 362.667969 297.65625 365.839844 C 308.507812 369.339844 316.019531 376.679688 322.53125 385.1875 C 324.867188 388.355469 326.035156 393.195312 326.035156 397.363281 C 326.371094 422.550781 325.871094 447.570312 326.203125 472.757812 C 326.371094 485.605469 327.371094 498.613281 328.039062 511.625 C 321.695312 510.625 316.1875 509.789062 310.84375 509.121094 C 302.332031 508.121094 297.15625 513.125 297.324219 521.464844 C 297.65625 535.976562 303.5 548.824219 308.839844 562 C 309.84375 564.503906 313.683594 568.003906 314.851562 567.671875 C 317.691406 566.671875 320.195312 563.835938 321.863281 561 C 322.863281 559.332031 322.699219 556.328125 322.195312 554.160156 C 320.027344 546.152344 317.355469 538.148438 315.019531 530.140625 C 314.183594 527.472656 313.515625 524.800781 312.679688 522.300781 C 313.015625 521.632812 313.683594 521.132812 314.351562 520.632812 C 317.691406 522.132812 321.027344 523.800781 324.535156 525.136719 C 335.21875 529.140625 341.5625 525.46875 342.898438 514.128906 C 343.730469 506.953125 344.234375 499.78125 344.234375 492.609375 C 344.066406 478.265625 343.398438 463.917969 342.898438 449.40625 Z M 479.621094 369.507812 C 464.597656 359.164062 447.902344 354.160156 429.875 355.828125 C 421.527344 356.664062 412.34375 358.164062 407.335938 366.839844 C 404.332031 372.011719 406.835938 376.847656 412.847656 377.347656 C 415.183594 377.515625 417.519531 377.179688 419.691406 376.511719 C 431.375 372.84375 442.226562 375.347656 453.246094 380.015625 C 460.089844 382.851562 467.601562 384.019531 476.285156 386.355469 C 478.289062 385.019531 482.460938 383.6875 483.796875 380.851562 C 485.800781 376.679688 483.628906 372.34375 479.621094 369.507812 Z M 240.898438 444.402344 C 235.722656 444.570312 230.378906 450.574219 230.378906 456.246094 C 230.210938 462.085938 234.71875 466.753906 240.5625 466.753906 C 246.574219 466.753906 251.746094 461.417969 252.082031 455.078125 C 252.25 449.40625 246.90625 444.234375 240.898438 444.402344 Z M 290.3125 416.046875 C 278.457031 401.699219 264.269531 390.191406 243.566406 393.359375 C 240.898438 393.859375 238.058594 394.363281 235.386719 394.863281 C 231.046875 388.855469 227.039062 383.1875 222.199219 376.179688 C 219.863281 380.351562 218.359375 382.851562 217.359375 384.6875 C 219.195312 390.023438 220.695312 394.527344 222.367188 399.367188 C 219.527344 401.367188 217.023438 402.867188 214.855469 404.371094 C 212.015625 402.867188 209.679688 401.035156 207.007812 400.367188 C 204.503906 399.699219 199.996094 399.367188 199.496094 400.367188 C 198.328125 402.867188 198.160156 406.707031 199.160156 409.207031 C 200.328125 412.210938 203.335938 414.546875 205.839844 417.378906 C 194.988281 434.394531 195.488281 453.410156 198.996094 471.257812 C 202.5 488.4375 209.34375 505.453125 222.367188 518.628906 C 223.199219 519.132812 224.035156 519.796875 224.871094 520.300781 C 229.878906 523.636719 234.886719 526.972656 239.894531 530.472656 C 240.5625 530.972656 241.230469 531.308594 241.730469 531.808594 C 245.402344 532.308594 249.242188 532.808594 252.75 533.144531 C 264.101562 535.476562 282.464844 528.304688 288.476562 518.796875 C 293.484375 510.957031 299.160156 503.117188 302.664062 494.445312 C 306.003906 486.269531 308.507812 477.097656 309.007812 468.089844 C 310.175781 448.238281 302.664062 430.890625 290.3125 416.046875 Z M 214.1875 451.410156 C 214.1875 439.566406 218.359375 429.222656 222.867188 418.546875 C 226.707031 409.707031 233.382812 407.207031 241.5625 405.871094 C 255.421875 403.535156 266.605469 409.539062 275.789062 418.882812 C 289.144531 432.558594 294.820312 449.90625 295.152344 468.589844 C 295.488281 485.9375 278.457031 509.289062 262.433594 514.628906 C 259.261719 515.628906 254.917969 515.292969 251.582031 514.292969 C 232.382812 509.121094 225.371094 492.941406 219.527344 476.597656 C 216.691406 468.589844 215.855469 459.75 214.1875 451.410156 Z M 252.082031 455.078125 C 252.25 449.40625 246.90625 444.234375 240.898438 444.402344 C 235.722656 444.570312 230.378906 450.574219 230.378906 456.246094 C 230.210938 462.085938 234.71875 466.753906 240.5625 466.753906 C 246.574219 466.753906 251.746094 461.417969 252.082031 455.078125 Z M 433.714844 461.082031 C 426.203125 461.25 421.191406 465.253906 421.191406 471.089844 C 421.191406 476.261719 427.871094 482.433594 433.378906 482.433594 C 440.222656 482.265625 444.230469 478.429688 444.230469 471.757812 C 444.230469 464.753906 440.558594 460.917969 433.714844 461.082031 Z M 532.210938 424.71875 C 526.867188 421.21875 522.191406 424.554688 517.351562 425.886719 C 514.511719 426.722656 511.84375 427.722656 509.171875 428.554688 C 508.835938 427.890625 508.335938 427.390625 508.003906 426.722656 C 510.507812 421.882812 513.179688 417.046875 515.347656 412.210938 C 516.851562 408.707031 517.851562 404.203125 513.847656 402.203125 C 511.507812 400.867188 506.835938 401.535156 504.496094 403.203125 C 499.988281 406.203125 496.484375 410.542969 492.476562 414.210938 C 475.449219 405.871094 466.265625 404.535156 446.566406 409.039062 C 439.558594 410.542969 433.214844 414.710938 426.203125 415.878906 C 419.523438 417.046875 414.183594 419.882812 409.839844 424.71875 C 391.476562 444.738281 385.800781 468.257812 389.808594 494.609375 C 393.148438 516.128906 404 531.976562 424.867188 540.148438 C 426.703125 540.816406 428.203125 542.316406 429.875 543.484375 C 430.875 543.484375 431.878906 543.484375 432.710938 543.652344 C 437.71875 543.816406 442.5625 544.152344 447.570312 544.320312 C 449.238281 544.320312 450.742188 544.484375 452.410156 544.484375 C 476.285156 541.484375 491.976562 526.636719 505.332031 507.957031 C 519.355469 488.273438 520.855469 466.421875 517.683594 444.234375 C 523.027344 441.402344 528.035156 438.898438 532.542969 436.0625 C 538.050781 432.558594 537.71875 428.390625 532.210938 424.71875 Z M 407.003906 491.773438 C 404.667969 477.597656 406.335938 464.585938 410.84375 451.074219 C 414.515625 440.234375 421.527344 434.0625 431.210938 430.726562 C 440.890625 427.390625 451.074219 425.554688 461.425781 423.050781 C 469.4375 425.386719 477.453125 426.886719 484.796875 429.890625 C 499.824219 436.230469 504.664062 456.578125 502.996094 469.757812 C 500.492188 489.941406 488.636719 504.285156 474.28125 516.628906 C 466.101562 523.636719 455.25 527.136719 444.398438 527.136719 C 426.703125 527.136719 409.839844 509.625 407.003906 491.773438 Z M 412.847656 377.347656 C 415.183594 377.515625 417.519531 377.179688 419.691406 376.511719 C 431.375 372.84375 442.226562 375.347656 453.246094 380.015625 C 460.089844 382.851562 467.601562 384.019531 476.285156 386.355469 C 478.289062 385.019531 482.460938 383.6875 483.796875 380.851562 C 485.800781 376.679688 483.628906 372.34375 479.621094 369.507812 C 464.597656 359.164062 447.902344 354.160156 429.875 355.828125 C 421.527344 356.664062 412.34375 358.164062 407.335938 366.839844 C 404.332031 372.011719 406.835938 376.847656 412.847656 377.347656 Z M 433.714844 461.082031 C 426.203125 461.25 421.191406 465.253906 421.191406 471.089844 C 421.191406 476.261719 427.871094 482.433594 433.378906 482.433594 C 440.222656 482.265625 444.230469 478.429688 444.230469 471.757812 C 444.230469 464.753906 440.558594 460.917969 433.714844 461.082031 Z M 340.894531 388.691406 C 340.894531 386.355469 340.894531 383.6875 339.726562 382.019531 C 333.550781 372.511719 328.039062 362.335938 318.355469 355.664062 C 305.335938 346.65625 290.8125 341.816406 274.953125 341.152344 C 270.109375 340.984375 264.9375 339.648438 260.261719 340.652344 C 253.417969 341.984375 246.40625 344.152344 240.230469 347.324219 C 238.058594 348.492188 237.222656 353.828125 237.558594 357.164062 C 237.726562 359 241.398438 361.5 243.734375 361.667969 C 252.082031 362.335938 260.429688 362.335938 268.609375 362 C 278.625 361.5 287.972656 362.667969 297.65625 365.839844 C 308.507812 369.339844 316.019531 376.679688 322.53125 385.1875 C 324.867188 388.355469 326.035156 393.195312 326.035156 397.363281 C 326.371094 422.550781 325.871094 447.570312 326.203125 472.757812 C 326.371094 485.605469 327.371094 498.613281 328.039062 511.625 C 321.695312 510.625 316.1875 509.789062 310.84375 509.121094 C 302.332031 508.121094 297.15625 513.125 297.324219 521.464844 C 297.65625 535.976562 303.5 548.824219 308.839844 562 C 309.84375 564.503906 313.683594 568.003906 314.851562 567.671875 C 317.691406 566.671875 320.195312 563.835938 321.863281 561 C 322.863281 559.332031 322.699219 556.328125 322.195312 554.160156 C 320.027344 546.152344 317.355469 538.148438 315.019531 530.140625 C 314.183594 527.472656 313.515625 524.800781 312.679688 522.300781 C 313.015625 521.632812 313.683594 521.132812 314.351562 520.632812 C 317.691406 522.132812 321.027344 523.800781 324.535156 525.136719 C 335.21875 529.140625 341.5625 525.46875 342.898438 514.128906 C 343.730469 506.953125 344.234375 499.78125 344.234375 492.609375 C 344.066406 478.265625 343.398438 463.917969 342.898438 449.40625 C 342.230469 429.222656 341.5625 408.875 340.894531 388.691406 Z M 288.476562 518.628906 C 293.484375 510.792969 299.160156 502.953125 302.664062 494.277344 C 306.003906 486.105469 308.507812 476.929688 309.007812 467.921875 C 310.175781 448.238281 302.664062 430.890625 290.3125 416.046875 C 278.457031 401.699219 264.269531 390.191406 243.566406 393.359375 C 240.898438 393.859375 238.058594 394.363281 235.386719 394.863281 C 231.046875 388.855469 227.039062 383.1875 222.199219 376.179688 C 219.863281 380.351562 218.359375 382.851562 217.359375 384.6875 C 219.195312 390.023438 220.695312 394.527344 222.367188 399.367188 C 219.527344 401.367188 217.023438 402.867188 214.855469 404.371094 C 212.015625 402.867188 209.679688 401.035156 207.007812 400.367188 C 204.503906 399.699219 199.996094 399.367188 199.496094 400.367188 C 198.328125 402.867188 198.160156 406.707031 199.160156 409.207031 C 200.328125 412.210938 203.335938 414.546875 205.839844 417.378906 C 194.988281 434.394531 195.488281 453.410156 198.996094 471.257812 C 202.5 488.4375 209.34375 505.453125 222.367188 518.628906 C 223.199219 519.132812 224.035156 519.796875 224.871094 520.300781 C 229.878906 523.636719 234.886719 526.972656 239.894531 530.472656 C 240.5625 530.972656 241.230469 531.308594 241.730469 531.808594 C 245.402344 532.308594 249.242188 532.808594 252.75 533.144531 C 264.101562 535.3125 282.464844 528.140625 288.476562 518.628906 Z M 214.1875 451.410156 C 214.1875 439.566406 218.359375 429.222656 222.867188 418.546875 C 226.707031 409.707031 233.382812 407.207031 241.5625 405.871094 C 255.421875 403.535156 266.605469 409.539062 275.789062 418.882812 C 289.144531 432.558594 294.820312 449.90625 295.152344 468.589844 C 295.488281 485.9375 278.457031 509.289062 262.433594 514.628906 C 259.261719 515.628906 254.917969 515.292969 251.582031 514.292969 C 232.382812 509.121094 225.371094 492.941406 219.527344 476.597656 C 216.691406 468.589844 215.855469 459.75 214.1875 451.410156 Z M 278.125 600.53125 C 265.4375 593.527344 254.585938 597.195312 252.082031 611.039062 C 247.40625 636.394531 261.597656 659.246094 285.972656 665.417969 C 290.980469 666.585938 299.660156 665.917969 302.496094 661.582031 C 312.179688 646.570312 307.507812 634.394531 307.507812 634.394531 C 302.164062 619.378906 292.316406 608.371094 278.125 600.53125 Z M 285.972656 649.40625 C 277.457031 646.402344 271.28125 640.730469 268.609375 631.222656 C 281.796875 625.050781 292.316406 631.058594 293.316406 643.902344 C 293.648438 648.40625 290.644531 651.074219 285.972656 649.40625 Z M 252.082031 455.078125 C 252.25 449.40625 246.90625 444.234375 240.898438 444.402344 C 235.722656 444.570312 230.378906 450.574219 230.378906 456.246094 C 230.210938 462.085938 234.71875 466.753906 240.5625 466.753906 C 246.574219 466.753906 251.746094 461.417969 252.082031 455.078125 Z M 532.210938 424.71875 C 526.867188 421.21875 522.191406 424.554688 517.351562 425.886719 C 514.511719 426.722656 511.84375 427.722656 509.171875 428.554688 C 508.835938 427.890625 508.335938 427.390625 508.003906 426.722656 C 510.507812 421.882812 513.179688 417.046875 515.347656 412.210938 C 516.851562 408.707031 517.851562 404.203125 513.847656 402.203125 C 511.507812 400.867188 506.835938 401.535156 504.496094 403.203125 C 499.988281 406.203125 496.484375 410.542969 492.476562 414.210938 C 475.449219 405.871094 466.265625 404.535156 446.566406 409.039062 C 439.558594 410.542969 433.214844 414.710938 426.203125 415.878906 C 419.523438 417.046875 414.183594 419.882812 409.839844 424.71875 C 391.476562 444.738281 385.800781 468.257812 389.808594 494.609375 C 393.148438 516.128906 404 531.976562 424.867188 540.148438 C 426.703125 540.816406 428.203125 542.316406 429.875 543.484375 C 430.875 543.484375 431.878906 543.484375 432.710938 543.652344 C 437.71875 543.816406 442.5625 544.152344 447.570312 544.320312 C 449.238281 544.320312 450.742188 544.484375 452.410156 544.484375 C 476.285156 541.484375 491.976562 526.636719 505.332031 507.957031 C 519.355469 488.273438 520.855469 466.421875 517.683594 444.234375 C 523.027344 441.402344 528.035156 438.898438 532.542969 436.0625 C 538.050781 432.558594 537.71875 428.390625 532.210938 424.71875 Z M 407.003906 491.773438 C 404.667969 477.597656 406.335938 464.585938 410.84375 451.074219 C 414.515625 440.234375 421.527344 434.0625 431.210938 430.726562 C 440.890625 427.390625 451.074219 425.554688 461.425781 423.050781 C 469.4375 425.386719 477.453125 426.886719 484.796875 429.890625 C 499.824219 436.230469 504.664062 456.578125 502.996094 469.757812 C 500.492188 489.941406 488.636719 504.285156 474.28125 516.628906 C 466.101562 523.636719 455.25 527.136719 444.398438 527.136719 C 426.703125 527.136719 409.839844 509.625 407.003906 491.773438 Z M 412.847656 377.347656 C 415.183594 377.515625 417.519531 377.179688 419.691406 376.511719 C 431.375 372.84375 442.226562 375.347656 453.246094 380.015625 C 460.089844 382.851562 467.601562 384.019531 476.285156 386.355469 C 478.289062 385.019531 482.460938 383.6875 483.796875 380.851562 C 485.800781 376.679688 483.628906 372.34375 479.621094 369.507812 C 464.597656 359.164062 447.902344 354.160156 429.875 355.828125 C 421.527344 356.664062 412.34375 358.164062 407.335938 366.839844 C 404.332031 372.011719 406.835938 376.847656 412.847656 377.347656 Z M 433.714844 461.082031 C 426.203125 461.25 421.191406 465.253906 421.191406 471.089844 C 421.191406 476.261719 427.871094 482.433594 433.378906 482.433594 C 440.222656 482.265625 444.230469 478.429688 444.230469 471.757812 C 444.230469 464.753906 440.558594 460.917969 433.714844 461.082031 Z M 340.894531 388.691406 C 340.894531 386.355469 340.894531 383.6875 339.726562 382.019531 C 333.550781 372.511719 328.039062 362.335938 318.355469 355.664062 C 305.335938 346.65625 290.8125 341.816406 274.953125 341.152344 C 270.109375 340.984375 264.9375 339.648438 260.261719 340.652344 C 253.417969 341.984375 246.40625 344.152344 240.230469 347.324219 C 238.058594 348.492188 237.222656 353.828125 237.558594 357.164062 C 237.726562 359 241.398438 361.5 243.734375 361.667969 C 252.082031 362.335938 260.429688 362.335938 268.609375 362 C 278.625 361.5 287.972656 362.667969 297.65625 365.839844 C 308.507812 369.339844 316.019531 376.679688 322.53125 385.1875 C 324.867188 388.355469 326.035156 393.195312 326.035156 397.363281 C 326.371094 422.550781 325.871094 447.570312 326.203125 472.757812 C 326.371094 485.605469 327.371094 498.613281 328.039062 511.625 C 321.695312 510.625 316.1875 509.789062 310.84375 509.121094 C 302.332031 508.121094 297.15625 513.125 297.324219 521.464844 C 297.65625 535.976562 303.5 548.824219 308.839844 562 C 309.84375 564.503906 313.683594 568.003906 314.851562 567.671875 C 317.691406 566.671875 320.195312 563.835938 321.863281 561 C 322.863281 559.332031 322.699219 556.328125 322.195312 554.160156 C 320.027344 546.152344 317.355469 538.148438 315.019531 530.140625 C 314.183594 527.472656 313.515625 524.800781 312.679688 522.300781 C 313.015625 521.632812 313.683594 521.132812 314.351562 520.632812 C 317.691406 522.132812 321.027344 523.800781 324.535156 525.136719 C 335.21875 529.140625 341.5625 525.46875 342.898438 514.128906 C 343.730469 506.953125 344.234375 499.78125 344.234375 492.609375 C 344.066406 478.265625 343.398438 463.917969 342.898438 449.40625 C 342.230469 429.222656 341.5625 408.875 340.894531 388.691406 Z M 288.476562 518.628906 C 293.484375 510.792969 299.160156 502.953125 302.664062 494.277344 C 306.003906 486.105469 308.507812 476.929688 309.007812 467.921875 C 310.175781 448.238281 302.664062 430.890625 290.3125 416.046875 C 278.457031 401.699219 264.269531 390.191406 243.566406 393.359375 C 240.898438 393.859375 238.058594 394.363281 235.386719 394.863281 C 231.046875 388.855469 227.039062 383.1875 222.199219 376.179688 C 219.863281 380.351562 218.359375 382.851562 217.359375 384.6875 C 219.195312 390.023438 220.695312 394.527344 222.367188 399.367188 C 219.527344 401.367188 217.023438 402.867188 214.855469 404.371094 C 212.015625 402.867188 209.679688 401.035156 207.007812 400.367188 C 204.503906 399.699219 199.996094 399.367188 199.496094 400.367188 C 198.328125 402.867188 198.160156 406.707031 199.160156 409.207031 C 200.328125 412.210938 203.335938 414.546875 205.839844 417.378906 C 194.988281 434.394531 195.488281 453.410156 198.996094 471.257812 C 202.5 488.4375 209.34375 505.453125 222.367188 518.628906 C 223.199219 519.132812 224.035156 519.796875 224.871094 520.300781 C 229.878906 523.636719 234.886719 526.972656 239.894531 530.472656 C 240.5625 530.972656 241.230469 531.308594 241.730469 531.808594 C 245.402344 532.308594 249.242188 532.808594 252.75 533.144531 C 264.101562 535.3125 282.464844 528.140625 288.476562 518.628906 Z M 214.1875 451.410156 C 214.1875 439.566406 218.359375 429.222656 222.867188 418.546875 C 226.707031 409.707031 233.382812 407.207031 241.5625 405.871094 C 255.421875 403.535156 266.605469 409.539062 275.789062 418.882812 C 289.144531 432.558594 294.820312 449.90625 295.152344 468.589844 C 295.488281 485.9375 278.457031 509.289062 262.433594 514.628906 C 259.261719 515.628906 254.917969 515.292969 251.582031 514.292969 C 232.382812 509.121094 225.371094 492.941406 219.527344 476.597656 C 216.691406 468.589844 215.855469 459.75 214.1875 451.410156 Z M 278.125 600.53125 C 265.4375 593.527344 254.585938 597.195312 252.082031 611.039062 C 247.40625 636.394531 261.597656 659.246094 285.972656 665.417969 C 290.980469 666.585938 299.660156 665.917969 302.496094 661.582031 C 312.179688 646.570312 307.507812 634.394531 307.507812 634.394531 C 302.164062 619.378906 292.316406 608.371094 278.125 600.53125 Z M 285.972656 649.40625 C 277.457031 646.402344 271.28125 640.730469 268.609375 631.222656 C 281.796875 625.050781 292.316406 631.058594 293.316406 643.902344 C 293.648438 648.40625 290.644531 651.074219 285.972656 649.40625 Z M 252.082031 455.078125 C 252.25 449.40625 246.90625 444.234375 240.898438 444.402344 C 235.722656 444.570312 230.378906 450.574219 230.378906 456.246094 C 230.210938 462.085938 234.71875 466.753906 240.5625 466.753906 C 246.574219 466.753906 251.746094 461.417969 252.082031 455.078125 Z M 240.898438 444.402344 C 235.722656 444.570312 230.378906 450.574219 230.378906 456.246094 C 230.210938 462.085938 234.71875 466.753906 240.5625 466.753906 C 246.574219 466.753906 251.746094 461.417969 252.082031 455.078125 C 252.25 449.40625 246.90625 444.234375 240.898438 444.402344 Z M 433.714844 461.082031 C 426.203125 461.25 421.191406 465.253906 421.191406 471.089844 C 421.191406 476.261719 427.871094 482.433594 433.378906 482.433594 C 440.222656 482.265625 444.230469 478.429688 444.230469 471.757812 C 444.230469 464.753906 440.558594 460.917969 433.714844 461.082031 Z M 532.210938 424.71875 C 526.867188 421.21875 522.191406 424.554688 517.351562 425.886719 C 514.511719 426.722656 511.84375 427.722656 509.171875 428.554688 C 508.835938 427.890625 508.335938 427.390625 508.003906 426.722656 C 510.507812 421.882812 513.179688 417.046875 515.347656 412.210938 C 516.851562 408.707031 517.851562 404.203125 513.847656 402.203125 C 511.507812 400.867188 506.835938 401.535156 504.496094 403.203125 C 499.988281 406.203125 496.484375 410.542969 492.476562 414.210938 C 475.449219 405.871094 466.265625 404.535156 446.566406 409.039062 C 439.558594 410.542969 433.214844 414.710938 426.203125 415.878906 C 419.523438 417.046875 414.183594 419.882812 409.839844 424.71875 C 391.476562 444.738281 385.800781 468.257812 389.808594 494.609375 C 393.148438 516.128906 404 531.976562 424.867188 540.148438 C 426.703125 540.816406 428.203125 542.316406 429.875 543.484375 C 430.875 543.484375 431.878906 543.484375 432.710938 543.652344 C 437.71875 543.816406 442.5625 544.152344 447.570312 544.320312 C 449.238281 544.320312 450.742188 544.484375 452.410156 544.484375 C 476.285156 541.484375 491.976562 526.636719 505.332031 507.957031 C 519.355469 488.273438 520.855469 466.421875 517.683594 444.234375 C 523.027344 441.402344 528.035156 438.898438 532.542969 436.0625 C 538.050781 432.558594 537.71875 428.390625 532.210938 424.71875 Z M 407.003906 491.773438 C 404.667969 477.597656 406.335938 464.585938 410.84375 451.074219 C 414.515625 440.234375 421.527344 434.0625 431.210938 430.726562 C 440.890625 427.390625 451.074219 425.554688 461.425781 423.050781 C 469.4375 425.386719 477.453125 426.886719 484.796875 429.890625 C 499.824219 436.230469 504.664062 456.578125 502.996094 469.757812 C 500.492188 489.941406 488.636719 504.285156 474.28125 516.628906 C 466.101562 523.636719 455.25 527.136719 444.398438 527.136719 C 426.703125 527.136719 409.839844 509.625 407.003906 491.773438 Z M 433.714844 461.082031 C 426.203125 461.25 421.191406 465.253906 421.191406 471.089844 C 421.191406 476.261719 427.871094 482.433594 433.378906 482.433594 C 440.222656 482.265625 444.230469 478.429688 444.230469 471.757812 C 444.230469 464.753906 440.558594 460.917969 433.714844 461.082031 Z M 307.507812 634.394531 C 302.164062 619.378906 292.316406 608.371094 278.125 600.53125 C 265.4375 593.527344 254.585938 597.195312 252.082031 611.039062 C 247.40625 636.394531 261.597656 659.246094 285.96875 665.417969 C 290.980469 666.585938 299.660156 665.917969 302.496094 661.582031 C 312.179688 646.570312 307.507812 634.394531 307.507812 634.394531 Z M 285.972656 649.40625 C 277.457031 646.402344 271.28125 640.730469 268.609375 631.222656 C 281.796875 625.050781 292.316406 631.058594 293.316406 643.902344 C 293.648438 648.40625 290.644531 651.074219 285.972656 649.40625 Z M 808.832031 604.035156 C 807.828125 596.695312 805.660156 589.355469 803.65625 582.183594 C 802.488281 577.679688 800.316406 573.507812 798.816406 569.171875 C 793.472656 552.992188 788.632812 536.644531 782.957031 520.632812 C 780.285156 513.125 776.109375 506.121094 773.105469 498.613281 C 764.425781 477.597656 756.246094 456.246094 747.398438 435.230469 C 739.382812 416.378906 730.871094 397.699219 722.355469 379.015625 C 715.84375 364.503906 709.167969 350.160156 702.324219 335.8125 C 694.308594 318.964844 685.960938 302.285156 677.617188 285.4375 C 674.445312 279.265625 671.105469 273.09375 667.765625 267.089844 C 659.25 251.578125 651.90625 235.398438 641.722656 221.050781 C 626.53125 199.367188 609.835938 178.683594 592.808594 158.332031 C 575.445312 137.648438 555.75 119.132812 534.046875 103.289062 C 520.691406 93.613281 506.667969 84.773438 492.144531 77.101562 C 474.28125 67.59375 456.085938 56.917969 437.554688 67.089844 C 428.707031 63.921875 422.363281 60.921875 415.851562 59.417969 C 399.492188 55.914062 382.964844 52.078125 366.4375 50.246094 C 355.085938 48.910156 343.398438 51.578125 331.878906 51.578125 C 306.839844 51.746094 286.636719 64.257812 266.9375 76.933594 C 258.089844 82.605469 251.246094 91.113281 242.734375 97.449219 C 227.375 108.960938 213.851562 122.136719 202.332031 137.484375 C 193.484375 149.160156 183.636719 160.335938 175.957031 172.679688 C 163.101562 193.363281 151.25 214.878906 139.5625 236.398438 C 128.878906 256.082031 118.195312 275.765625 108.34375 295.945312 C 98.828125 315.628906 89.980469 335.648438 81.46875 355.664062 C 68.113281 386.855469 55.089844 418.214844 42.234375 449.574219 C 34.222656 469.089844 26.375 488.773438 19.363281 508.789062 C 12.6875 527.304688 7.179688 546.152344 1.503906 564.835938 C 0 569.671875 0.667969 574.511719 5.675781 577.847656 C 23.371094 590.023438 40.902344 602.367188 58.761719 614.375 C 64.941406 618.546875 69.449219 617.546875 73.453125 611.207031 C 77.292969 605.035156 80.632812 598.195312 84.304688 591.359375 C 84.972656 593.859375 85.808594 596.363281 85.808594 598.863281 C 87.8125 612.707031 94.824219 622.882812 105.007812 632.558594 C 120.03125 646.902344 139.0625 652.574219 157.257812 660.082031 C 171.113281 665.753906 185.804688 669.089844 199.828125 674.09375 C 203.335938 675.261719 206.339844 678.429688 208.84375 681.265625 C 217.691406 691.773438 224.703125 704.449219 235.21875 713.125 C 252.414062 727.304688 270.613281 740.648438 292.316406 748.488281 C 307.839844 754.160156 323.53125 757.996094 339.558594 759.164062 C 359.425781 760.496094 379.289062 760.496094 399.15625 759.664062 C 412.011719 759.164062 425.03125 756.828125 437.71875 753.992188 C 457.417969 749.488281 474.28125 738.8125 490.308594 727.136719 C 498.820312 720.796875 506.667969 713.625 514.347656 706.117188 C 521.859375 698.78125 528.703125 690.605469 534.046875 684.769531 C 547.066406 685.769531 558.253906 687.101562 569.269531 687.101562 C 577.953125 687.101562 586.632812 685.933594 595.144531 684.769531 C 612.339844 682.265625 629.535156 679.929688 646.398438 676.59375 C 658.082031 674.257812 669.269531 670.089844 680.621094 666.917969 C 696.648438 662.417969 713.007812 658.246094 728.867188 653.242188 C 739.050781 650.074219 748.898438 645.734375 758.582031 641.398438 C 771.769531 635.726562 785.125 630.054688 797.8125 623.21875 C 804.824219 619.546875 810 612.875 808.832031 604.035156 Z M 448.40625 95.113281 C 470.441406 102.121094 491.308594 112.628906 508.503906 128.640625 C 534.210938 152.664062 550.40625 182.6875 563.929688 214.714844 C 573.609375 237.566406 580.289062 261.085938 583.125 285.605469 C 584.960938 301.117188 587.46875 316.296875 584.628906 332.144531 C 582.792969 341.484375 584.460938 351.492188 584.460938 361.335938 C 584.460938 363.335938 583.792969 365.171875 583.460938 367.171875 C 582.625 367.339844 581.625 367.339844 580.789062 367.339844 C 579.453125 361.5 578.117188 355.496094 577.117188 349.492188 C 571.105469 315.964844 565.265625 282.269531 549.738281 251.410156 C 535.546875 223.386719 517.683594 198.367188 493.8125 177.347656 C 480.125 165.339844 466.101562 153.496094 449.90625 145.65625 C 432.546875 137.316406 414.347656 130.476562 394.316406 129.976562 C 373.28125 129.308594 353.914062 134.480469 334.71875 142.652344 C 316.6875 150.328125 299.492188 159.335938 283.632812 170.175781 C 267.773438 181.019531 253.082031 194.195312 241.398438 209.710938 C 228.542969 226.722656 216.023438 243.902344 203.835938 261.25 C 198.996094 267.925781 195.824219 275.765625 191.816406 283.101562 C 191.148438 284.605469 190.648438 286.105469 189.980469 287.605469 C 186.472656 299.617188 183.136719 311.460938 179.628906 323.304688 C 178.460938 331.308594 177.292969 339.148438 176.125 347.15625 L 174.121094 347.15625 L 174.121094 332.144531 C 174.285156 314.296875 176.125 296.78125 182.800781 279.765625 C 188.308594 265.253906 194.820312 251.078125 200.832031 236.730469 C 205.171875 226.554688 208.84375 216.214844 213.851562 206.539062 C 222.867188 188.859375 235.386719 173.847656 248.742188 159.335938 C 266.773438 139.484375 286.972656 122.472656 310.511719 109.460938 C 333.882812 96.449219 358.925781 90.109375 385.800781 89.277344 C 407.003906 88.609375 428.203125 88.777344 448.40625 95.113281 Z M 351.914062 740.648438 C 323.53125 739.480469 296.65625 734.140625 271.78125 718.460938 C 253.585938 706.953125 238.226562 693.273438 225.871094 675.761719 C 224.371094 673.59375 223.199219 670.757812 222.367188 668.085938 C 220.695312 662.917969 217.359375 659.914062 214.351562 654.242188 C 213.683594 653.074219 212.347656 652.074219 211.847656 650.738281 C 205.339844 636.226562 197.992188 622.214844 195.988281 606.035156 C 194.988281 598.695312 191.316406 591.691406 189.8125 584.351562 C 188.476562 577.511719 188.308594 570.507812 187.640625 563.667969 C 187.476562 562.167969 187.308594 560.664062 187.140625 559.164062 C 185.804688 545.152344 184.304688 531.140625 182.96875 517.128906 C 182.800781 516.128906 182.800781 515.128906 182.632812 514.128906 C 181.800781 486.9375 179.796875 459.75 180.796875 432.894531 C 181.800781 407.039062 184.46875 381.015625 189.144531 355.496094 C 193.316406 332.476562 197.492188 309.292969 207.507812 287.773438 C 209.511719 283.269531 212.015625 279.101562 214.6875 273.761719 C 226.371094 290.109375 243.734375 298.949219 260.09375 308.792969 C 279.125 320.300781 299.324219 329.476562 321.195312 334.644531 C 337.386719 338.480469 353.75 342.152344 370.109375 345.820312 C 378.957031 347.65625 383.964844 343.320312 382.460938 334.480469 C 377.957031 308.457031 380.960938 282.9375 385.46875 257.25 C 386.136719 254.078125 386.46875 251.078125 387.304688 246.074219 C 390.140625 254.414062 392.644531 261.417969 394.984375 268.257812 C 399.15625 280.769531 403.164062 293.445312 407.335938 305.957031 C 409.507812 312.292969 412.011719 318.632812 414.347656 325.136719 C 417.019531 332.644531 421.359375 337.980469 429.875 339.648438 C 445.734375 342.652344 461.257812 347.15625 477.117188 348.824219 C 493.144531 350.324219 509.171875 353.996094 525.363281 349.824219 C 535.882812 346.988281 546.398438 344.820312 557.75 342.152344 C 557.917969 342.484375 559.085938 343.820312 559.421875 345.320312 C 561.589844 357.832031 564.09375 370.34375 565.765625 383.019531 C 567.601562 397.199219 569.4375 411.710938 569.9375 426.054688 C 570.941406 450.40625 571.941406 474.761719 570.941406 499.113281 C 569.9375 523.636719 566.933594 548.15625 564.09375 572.507812 C 561.757812 592.691406 555.582031 612.207031 547.402344 630.722656 C 540.222656 647.238281 530.207031 662.25 517.851562 675.425781 C 508.835938 684.933594 499.988281 694.609375 490.640625 703.617188 C 486.46875 707.621094 481.125 710.289062 476.117188 713.125 C 465.601562 719.128906 455.417969 725.636719 444.398438 730.304688 C 435.71875 733.976562 426.203125 735.308594 416.851562 737.144531 C 395.484375 741.480469 373.613281 741.480469 351.914062 740.648438 Z M 437.386719 194.53125 C 441.894531 222.21875 449.574219 249.242188 460.089844 275.097656 C 466.101562 289.777344 475.117188 303.285156 482.628906 317.464844 C 484.632812 321.132812 486.46875 324.972656 489.136719 330.140625 C 467.769531 330.140625 449.40625 323.96875 429.539062 321.46875 C 427.371094 315.296875 424.867188 308.957031 422.695312 302.453125 C 417.355469 287.605469 411.511719 272.761719 407.335938 257.582031 C 401.828125 237.898438 396.652344 218.050781 399.65625 197.03125 C 399.992188 194.363281 396.320312 191.195312 394.648438 188.191406 C 391.8125 190.191406 387.304688 191.527344 386.300781 194.195312 C 383.796875 200.703125 382.964844 207.707031 381.460938 214.378906 C 378.121094 229.390625 374.617188 244.238281 371.777344 259.25 C 369.441406 271.59375 366.9375 284.105469 365.769531 296.78125 C 364.933594 305.121094 366.4375 313.796875 366.769531 322.300781 L 366.769531 328.140625 C 354.917969 330.640625 311.011719 317.964844 287.140625 305.289062 C 293.648438 278.597656 298.324219 251.242188 310.84375 226.390625 C 316.019531 215.882812 322.863281 205.871094 330.042969 196.53125 C 339.558594 184.1875 349.910156 172.679688 359.925781 160.667969 C 368.605469 150.328125 377.957031 143.820312 393.3125 147.15625 C 403.832031 149.328125 415.015625 148.992188 425.367188 153.328125 C 436.886719 158 437.21875 159.335938 435.882812 172.179688 C 435.214844 179.519531 436.21875 187.191406 437.386719 194.53125 Z M 553.746094 324.136719 C 549.738281 325.472656 546.734375 326.304688 542.558594 327.304688 C 514.347656 285.9375 497.820312 239.566406 481.460938 193.027344 C 482.125 192.527344 482.792969 191.859375 483.460938 191.359375 C 486.132812 193.195312 489.304688 194.53125 491.476562 196.699219 C 513.679688 219.550781 530.707031 246.074219 542.058594 275.765625 C 547.234375 289.109375 550.070312 303.453125 553.746094 317.296875 C 554.246094 319.300781 553.746094 321.300781 553.746094 324.136719 Z M 500.992188 282.101562 C 508.671875 298.28125 518.019531 313.796875 526.867188 330.308594 C 521.023438 330.640625 515.347656 331.144531 509.339844 331.644531 C 468.4375 284.4375 455.917969 226.890625 450.910156 166.675781 C 459.589844 170.84375 466.101562 175.015625 467.269531 186.523438 C 468.773438 202.035156 473.78125 217.214844 480.289062 231.894531 C 487.804688 248.40625 493.3125 265.753906 500.992188 282.101562 Z M 274.617188 298.949219 C 254.085938 289.273438 236.054688 279.101562 221.699219 261.585938 C 225.371094 256.582031 229.210938 251.242188 233.050781 246.074219 C 239.226562 237.734375 245.402344 229.390625 251.914062 221.21875 C 266.273438 203.203125 281.796875 186.691406 302.332031 175.515625 C 311.847656 170.175781 320.863281 164.003906 330.542969 158.835938 C 335.71875 156 341.394531 154.496094 346.90625 152.328125 C 347.570312 153.164062 347.570312 154.496094 348.238281 155.332031 C 305.003906 193.195312 283.464844 241.734375 274.617188 298.949219 Z M 38.398438 577.679688 C 32.71875 573.675781 27.210938 569.671875 21.203125 565.335938 C 24.375 554.160156 27.042969 542.984375 30.71875 532.140625 C 37.730469 510.957031 45.074219 489.605469 52.921875 468.589844 C 59.597656 451.074219 66.777344 433.726562 74.121094 416.546875 C 79.964844 403.035156 86.808594 389.859375 92.820312 376.511719 C 98.328125 364.503906 103.335938 352.160156 108.511719 339.984375 C 113.1875 329.140625 117.191406 318.132812 122.535156 307.625 C 133.21875 286.105469 145.40625 265.253906 155.757812 243.570312 C 168.109375 217.882812 183.636719 194.363281 198.660156 170.34375 C 201.164062 166.507812 204.671875 163.335938 207.507812 159.667969 C 219.863281 144.488281 232.382812 129.644531 247.242188 116.800781 C 263.933594 102.453125 280.628906 88.277344 300.328125 78.101562 C 311.011719 72.597656 322.195312 70.761719 333.550781 69.261719 C 342.730469 67.925781 351.914062 67.089844 361.09375 66.425781 C 364.433594 66.089844 367.9375 66.925781 371.277344 67.425781 C 385.636719 69.261719 399.824219 71.261719 414.183594 73.097656 C 420.191406 74.265625 426.203125 75.597656 432.210938 76.765625 C 432.210938 77.265625 432.042969 77.765625 432.042969 78.269531 C 426.203125 77.433594 420.191406 76.765625 414.347656 76.097656 C 402.996094 76.097656 391.644531 75.433594 380.460938 76.765625 C 369.273438 77.601562 358.089844 79.101562 347.070312 81.4375 C 308.175781 89.609375 277.121094 111.796875 248.910156 138.316406 C 238.726562 147.992188 229.210938 158.332031 220.027344 169.007812 C 214.1875 175.679688 210.011719 183.855469 204.835938 191.027344 C 194.820312 204.707031 184.304688 218.214844 174.453125 232.0625 C 158.59375 254.414062 144.738281 278.097656 133.886719 303.453125 C 123.535156 327.304688 113.1875 350.992188 103.003906 374.84375 C 98.496094 385.1875 94.988281 395.863281 90.648438 406.203125 C 84.972656 419.882812 78.628906 433.058594 73.621094 446.90625 C 67.445312 464.253906 61.933594 481.933594 56.59375 499.613281 C 52.417969 513.292969 48.414062 527.136719 45.074219 541.148438 C 42.234375 552.824219 40.734375 564.835938 38.398438 577.679688 Z M 118.527344 618.046875 C 116.691406 616.878906 114.855469 616.378906 113.519531 615.042969 C 103.167969 604.867188 99.496094 592.359375 101.5 578.011719 C 102 574.011719 101.835938 569.839844 102 565.835938 C 102.167969 560.664062 102.167969 555.496094 95.992188 553.828125 C 90.480469 552.324219 87.308594 556.160156 84.804688 560.164062 C 78.460938 570.339844 72.117188 580.683594 65.773438 591.023438 C 65.105469 592.023438 64.4375 592.859375 63.269531 594.527344 C 58.09375 591.023438 53.253906 587.519531 49.414062 584.683594 C 53.589844 566.671875 57.261719 549.15625 61.769531 531.640625 C 65.941406 515.460938 70.617188 499.449219 75.289062 483.433594 C 79.128906 470.257812 82.804688 456.746094 87.8125 443.902344 C 94.488281 426.886719 102.503906 410.207031 109.511719 393.195312 C 117.191406 374.84375 123.871094 355.996094 131.882812 337.816406 C 140.730469 317.796875 150.582031 298.28125 160.097656 278.597656 C 162.433594 273.59375 165.605469 269.089844 168.277344 264.421875 C 169.945312 260.585938 171.449219 256.75 173.117188 252.910156 C 173.953125 253.414062 174.789062 253.746094 175.621094 254.078125 C 173.785156 257.414062 172.117188 260.917969 170.28125 264.421875 C 168.445312 270.925781 166.773438 277.597656 164.4375 283.769531 C 159.261719 299.285156 157.425781 315.128906 157.757812 331.308594 C 158.09375 348.824219 158.59375 366.503906 159.761719 384.019531 C 160.097656 388.855469 163.4375 393.527344 166.105469 399.699219 C 153.585938 433.394531 137.726562 467.589844 129.210938 504.621094 C 120.699219 541.816406 122.035156 579.679688 118.527344 618.046875 Z M 156.089844 568.503906 C 154.753906 582.183594 153.753906 596.027344 153.085938 609.871094 C 152.75 618.046875 153.085938 626.21875 153.085938 636.0625 C 146.074219 633.558594 139.230469 630.890625 131.882812 628.222656 C 131.882812 621.714844 131.550781 615.710938 131.882812 609.707031 C 132.886719 590.191406 133.71875 570.671875 135.390625 551.15625 C 136.558594 537.980469 138.226562 524.636719 141.398438 511.957031 C 146.742188 490.773438 153.585938 470.089844 159.929688 449.074219 C 160.429688 447.238281 161.933594 445.738281 163.101562 444.070312 C 163.101562 442.734375 163.269531 441.402344 163.4375 440.066406 C 163.769531 440.234375 164.269531 440.234375 164.605469 440.398438 C 164.101562 441.566406 163.601562 442.734375 163.101562 444.070312 C 164.4375 469.257812 167.109375 494.277344 161.765625 519.632812 C 158.425781 535.644531 157.59375 552.160156 156.089844 568.503906 Z M 165.105469 639.898438 C 163.4375 610.375 165.941406 582.015625 168.777344 553.660156 C 172.117188 585.1875 179.960938 615.542969 191.984375 647.238281 C 181.800781 644.566406 173.453125 642.234375 165.105469 639.898438 Z M 547.902344 667.085938 C 552.578125 657.914062 556.917969 649.238281 561.257812 640.730469 C 566.265625 630.722656 569.4375 620.046875 571.609375 608.871094 C 573.777344 597.027344 578.453125 585.519531 580.121094 573.675781 C 582.792969 554.996094 584.960938 535.976562 585.796875 517.128906 C 586.964844 491.273438 586.964844 465.585938 587.300781 439.734375 C 587.46875 432.226562 587.132812 424.886719 590.136719 417.546875 C 592.976562 410.542969 593.644531 402.535156 595.3125 395.027344 C 595.8125 395.027344 596.148438 394.863281 596.648438 394.695312 C 598.652344 404.371094 600.988281 414.042969 602.824219 423.886719 C 605.664062 438.0625 608.335938 452.242188 610.503906 466.421875 C 613.007812 482.601562 615.679688 498.949219 616.683594 515.292969 C 618.519531 547.320312 619.519531 579.515625 620.1875 611.539062 C 620.355469 623.882812 619.1875 636.394531 618.519531 648.738281 C 618.351562 653.410156 619.1875 656.910156 624.863281 657.746094 C 599.488281 665.417969 574.113281 668.753906 547.902344 667.085938 Z M 674.277344 646.570312 C 658.417969 650.40625 644.058594 656.910156 629.035156 656.746094 C 630.871094 646.570312 633.542969 637.0625 634.042969 627.554688 C 635.210938 605.871094 636.214844 584.019531 635.714844 562.332031 C 635.378906 544.820312 633.042969 527.304688 631.039062 509.957031 C 628.867188 490.105469 626.863281 470.425781 623.527344 450.742188 C 620.355469 431.390625 615.679688 412.375 611.171875 393.195312 C 607.332031 376.679688 602.492188 360.332031 598.984375 343.652344 C 597.484375 336.980469 598.652344 329.476562 598.316406 322.46875 C 597.816406 312.460938 596.816406 302.453125 595.980469 292.445312 C 595.3125 287.605469 594.8125 282.769531 594.144531 277.933594 C 594.8125 277.765625 595.480469 277.597656 596.148438 277.433594 C 597.148438 281.269531 598.152344 285.105469 599.152344 288.941406 C 603.492188 303.285156 608.167969 317.632812 612.175781 332.144531 C 617.515625 351.492188 623.191406 371.007812 627.53125 390.691406 C 633.875 418.714844 639.21875 447.070312 644.894531 475.261719 C 647.398438 486.9375 650.070312 498.28125 652.074219 509.957031 C 654.078125 521.300781 655.414062 532.808594 657.25 544.152344 C 659.417969 557.328125 662.089844 570.339844 664.425781 583.351562 C 667.765625 601.199219 671.105469 619.046875 674.277344 636.894531 C 674.777344 639.898438 674.277344 643.066406 674.277344 646.570312 Z M 689.132812 642.734375 C 686.964844 629.722656 684.960938 617.378906 682.789062 605.035156 C 681.621094 598.195312 680.285156 591.523438 678.949219 584.683594 C 675.445312 566.171875 671.9375 547.820312 668.433594 529.472656 C 662.757812 498.949219 657.414062 468.257812 651.40625 437.898438 C 648.566406 423.886719 644.226562 410.042969 640.886719 396.03125 C 635.046875 371.675781 629.535156 347.324219 623.527344 322.96875 C 621.691406 315.964844 619.1875 309.125 617.015625 302.285156 C 610.839844 282.101562 604.828125 261.917969 596.316406 242.738281 C 590.136719 228.890625 583.628906 215.046875 576.449219 201.535156 C 572.109375 193.53125 566.097656 186.355469 561.089844 178.683594 C 551.40625 163.839844 542.394531 148.324219 532.042969 133.980469 C 522.027344 119.96875 508.335938 109.292969 493.3125 101.121094 C 478.453125 92.945312 462.761719 86.441406 448.570312 79.769531 C 459.421875 76.097656 469.273438 83.273438 479.289062 87.941406 C 496.652344 95.617188 513.011719 105.457031 527.367188 118.132812 C 538.886719 128.476562 551.742188 137.484375 562.757812 148.324219 C 572.441406 157.832031 580.621094 169.007812 589.304688 179.683594 C 597.148438 189.191406 605.164062 198.535156 612.339844 208.542969 C 620.855469 220.550781 629.035156 233.0625 636.378906 245.90625 C 648.234375 266.589844 659.753906 287.605469 670.269531 308.957031 C 682.789062 333.980469 694.140625 359.5 705.828125 385.019531 C 714.34375 403.535156 722.691406 422.050781 730.871094 440.734375 C 735.042969 450.074219 738.550781 459.75 742.386719 469.257812 C 746.226562 478.765625 750.066406 488.4375 753.90625 497.945312 C 761.753906 517.628906 770.9375 536.8125 776.109375 557.664062 C 779.785156 572.507812 784.792969 587.1875 789.464844 602.199219 C 758.914062 623.21875 723.523438 630.554688 689.132812 642.734375 Z M 689.132812 642.734375 "/>
</g>
</g>
</svg>
