<?xml version="1.0" encoding="UTF-8"?>
<svg xmlns="http://www.w3.org/2000/svg" xmlns:xlink="http://www.w3.org/1999/xlink" width="810pt" height="809.999993pt" viewBox="0 0 810 809.999993" version="1.2">
<g id="surface1">
<path style=" stroke:none;fill-rule:nonzero;fill:rgb(100%,100%,100%);fill-opacity:1;" d="M 612.179688 619.503906 L 616.820312 617.007812 L 616.105469 622.179688 C 615.570312 625.210938 615.394531 627.710938 615.035156 630.386719 C 614.859375 631.8125 614.679688 633.238281 614.5 634.667969 L 614.324219 636.449219 L 612.714844 636.984375 C 611.644531 637.34375 610.398438 637.699219 609.324219 637.878906 C 606.828125 638.589844 604.507812 639.304688 602.1875 640.019531 L 598.261719 641.265625 L 598.617188 637.34375 C 599.511719 628.246094 602.1875 624.675781 612.179688 619.503906 Z M 595.585938 306.257812 C 595.941406 310.003906 596.296875 313.214844 597.191406 316.425781 C 604.507812 346.039062 605.933594 376.71875 607.363281 406.511719 L 607.542969 409.007812 C 608.789062 432.554688 608.253906 456.101562 607.363281 478.042969 C 606.292969 504.089844 604.6875 524.960938 602.1875 543.691406 C 597.546875 577.40625 589.339844 607.730469 577.027344 636.09375 L 575.421875 640.019531 L 579.703125 639.839844 C 587.199219 639.660156 588.269531 638.414062 592.015625 633.597656 L 593.445312 631.8125 C 598.261719 625.746094 603.078125 619.324219 608.96875 615.042969 C 611.289062 613.261719 613.25 612.726562 615.035156 613.261719 C 617.175781 613.796875 618.960938 616.113281 620.390625 619.683594 C 621.105469 621.644531 621.996094 623.25 623.066406 625.390625 L 624.851562 628.957031 L 627.527344 625.925781 C 637.699219 614.152344 639.839844 613.082031 651.796875 618.613281 L 653.402344 619.324219 L 654.652344 618.078125 C 655.007812 617.71875 655.367188 617.183594 655.902344 616.828125 C 656.257812 616.292969 656.617188 615.9375 656.972656 615.757812 C 687.308594 593.460938 700.15625 560.636719 708.007812 534.59375 C 716.574219 506.050781 718.003906 475.367188 712.113281 443.792969 C 704.441406 400.445312 688.738281 366.730469 664.289062 340.507812 C 646.621094 321.597656 629.492188 308.933594 610.753906 300.90625 C 607.898438 299.65625 604.863281 298.945312 601.652344 298.410156 C 600.402344 298.230469 599.332031 297.875 598.082031 297.695312 L 594.335938 296.804688 L 594.871094 300.726562 C 595.226562 302.511719 595.40625 304.296875 595.585938 306.257812 Z M 172.832031 629.671875 C 171.40625 626.105469 170.15625 622.359375 168.90625 618.789062 C 159.449219 589 153.558594 561.707031 151.238281 535.304688 C 146.957031 490.351562 145.171875 451.109375 145.707031 415.074219 C 145.886719 403.121094 146.421875 390.992188 147.136719 379.21875 C 147.3125 376.183594 147.492188 373.152344 147.492188 370.121094 C 147.671875 365.660156 148.027344 361.199219 148.386719 356.917969 L 148.742188 352.816406 L 144.816406 354.066406 C 140.53125 355.492188 137.5 357.097656 136.070312 359.953125 C 133.929688 363.699219 131.609375 367.621094 129.46875 371.191406 C 124.117188 380.289062 118.582031 389.5625 114.480469 399.375 C 107.875 415.964844 103.414062 433.269531 98.953125 450.929688 C 92.886719 476.261719 92.351562 501.414062 97.347656 526.207031 C 101.808594 547.972656 107.875 572.945312 121.972656 594.171875 C 133.214844 610.941406 147.492188 629.492188 169.265625 640.554688 L 170.511719 641.265625 L 171.761719 640.554688 C 172.65625 640.019531 173.191406 639.660156 173.902344 639.484375 L 176.046875 638.414062 L 175.152344 636.09375 C 174.4375 633.953125 173.546875 631.8125 172.832031 629.671875 Z M 537.410156 667.667969 C 526.523438 679.976562 515.28125 692.820312 502.96875 704.414062 C 496.902344 710.125 489.40625 714.226562 481.910156 717.972656 C 477.628906 720.292969 473.34375 722.609375 469.417969 725.109375 C 449.613281 738.128906 426.949219 740.804688 405 743.304688 L 401.609375 743.660156 C 394.828125 744.375 388.046875 744.730469 381.265625 744.730469 C 373.414062 744.730469 365.738281 744.375 358.066406 744.015625 C 351.285156 743.660156 344.148438 743.304688 337.1875 743.304688 C 320.054688 743.125 303.28125 739.558594 287.578125 732.777344 C 275.441406 727.605469 264.023438 720.46875 252.957031 713.691406 C 250.28125 712.085938 247.425781 710.300781 244.75 708.695312 C 231.542969 700.847656 222.085938 689.253906 215.484375 680.15625 C 213.875 678.015625 212.449219 675.695312 211.378906 673.910156 C 211.023438 673.375 210.664062 672.839844 210.308594 672.304688 L 207.988281 668.738281 L 212.269531 668.203125 C 216.375 667.667969 220.300781 667.3125 224.40625 666.953125 C 235.289062 665.707031 246.710938 664.636719 257.597656 662.671875 C 272.230469 659.996094 287.042969 653.398438 304.351562 641.980469 C 329.871094 624.855469 350.570312 600.953125 369.308594 566.523438 C 374.484375 556.890625 378.230469 545.832031 381.800781 535.304688 C 383.226562 531.382812 384.476562 527.277344 386.082031 523.175781 C 387.332031 519.785156 388.222656 516.398438 389.117188 512.652344 C 389.652344 510.332031 390.367188 507.835938 391.078125 505.160156 L 391.613281 503.195312 L 441.046875 503.195312 L 441.582031 505.160156 C 460.496094 576.15625 495.472656 619.859375 551.863281 643.050781 L 554.542969 644.121094 L 553.292969 646.617188 C 552.933594 647.511719 552.578125 648.402344 552.222656 649.117188 C 551.507812 650.722656 550.972656 651.96875 550.078125 653.21875 L 549.902344 653.398438 C 545.796875 658.214844 541.691406 663.03125 537.410156 667.667969 Z M 403.570312 569.554688 L 403.390625 569.378906 C 400.894531 567.414062 397.859375 565.808594 395.003906 564.203125 L 394.828125 564.027344 C 391.613281 567.238281 391.792969 569.734375 393.578125 572.945312 C 398.394531 581.328125 408.210938 586.144531 417.3125 584.898438 C 425.878906 583.648438 435.15625 574.90625 436.585938 566.523438 C 436.761719 565.808594 436.050781 564.382812 435.515625 563.132812 L 435.335938 563.132812 C 433.195312 564.027344 431.585938 564.5625 429.980469 565.453125 C 429.445312 565.808594 428.734375 566.34375 428.019531 567.058594 C 427.304688 567.59375 426.589844 568.308594 425.699219 569.019531 C 417.667969 574.90625 412.671875 575.085938 403.570312 569.554688 Z M 685.167969 703.523438 C 675.710938 710.125 666.789062 717.257812 658.222656 724.214844 C 656.257812 725.820312 654.296875 727.25 652.511719 728.855469 C 648.941406 731.707031 646.800781 733.136719 643.589844 730.636719 C 643.765625 730.460938 643.945312 730.101562 644.125 729.925781 C 645.195312 728.320312 646.085938 726.890625 647.15625 725.464844 C 650.726562 721.003906 654.296875 716.546875 657.863281 712.085938 C 666.429688 701.5625 675.175781 690.679688 683.5625 679.796875 C 685.882812 676.585938 687.308594 673.019531 688.738281 669.453125 C 689.273438 668.023438 689.808594 666.597656 690.519531 665.171875 L 691.414062 663.207031 L 689.628906 661.960938 C 689.273438 661.601562 688.738281 661.425781 688.378906 661.066406 C 688.023438 660.890625 687.84375 660.710938 687.488281 660.53125 L 685.882812 659.460938 L 684.277344 660.53125 C 683.027344 661.425781 681.597656 662.316406 680.347656 663.03125 C 677.671875 664.636719 674.816406 666.417969 672.320312 668.738281 C 666.964844 674.089844 661.789062 679.621094 656.792969 685.148438 C 651.796875 690.5 646.621094 696.03125 641.269531 701.382812 C 637.519531 705.308594 633.773438 709.054688 629.667969 710.660156 C 626.101562 712.085938 621.101562 711.90625 617.890625 710.300781 C 617.175781 709.054688 617 704.058594 617.890625 701.382812 C 621.101562 692.820312 624.671875 684.4375 628.242188 676.230469 C 630.027344 672.304688 631.632812 668.382812 633.417969 664.457031 C 635.199219 659.996094 636.984375 655.359375 638.769531 650.722656 C 639.664062 648.582031 640.554688 646.261719 641.445312 643.941406 L 643.054688 639.660156 L 638.589844 640.195312 C 624.492188 642.160156 623.246094 642.871094 618.425781 653.398438 C 615.214844 660.710938 612.003906 668.023438 608.789062 675.339844 C 605.578125 682.652344 602.1875 689.964844 598.976562 697.28125 C 597.90625 699.777344 596.65625 701.203125 595.40625 701.738281 C 594.335938 702.097656 592.730469 701.917969 590.945312 701.203125 C 591.125 700.3125 591.300781 699.421875 591.300781 698.707031 C 591.660156 696.03125 592.195312 693.175781 593.085938 690.679688 C 596.65625 680.867188 600.582031 671.414062 604.507812 661.246094 C 605.757812 658.214844 607.003906 655.179688 608.078125 652.148438 L 609.683594 648.402344 L 605.578125 648.582031 C 602.007812 648.757812 598.976562 648.9375 596.296875 649.117188 C 594.691406 649.292969 593.085938 649.292969 591.660156 649.292969 L 589.875 649.292969 L 589.339844 650.898438 C 585.769531 660.355469 582.378906 669.628906 578.988281 679.085938 C 573.277344 694.78125 567.210938 710.835938 561.144531 727.070312 L 559.894531 730.28125 L 563.285156 730.636719 C 574.527344 732.066406 577.917969 740.628906 581.308594 752.757812 C 580.953125 753.472656 579.703125 755.078125 578.808594 756.148438 C 578.632812 756.324219 578.453125 756.503906 578.453125 756.683594 L 578.273438 756.503906 C 577.027344 755.078125 576.132812 754.183594 575.957031 753.292969 C 572.207031 744.015625 566.855469 735.632812 553.292969 736.347656 C 551.863281 736.347656 551.328125 735.8125 551.148438 735.453125 C 550.257812 734.207031 550.4375 731.886719 551.328125 729.746094 C 552.222656 727.785156 553.292969 726 554.363281 724.039062 C 555.433594 722.074219 556.683594 719.933594 557.574219 717.792969 C 558.289062 716.367188 558.824219 714.761719 559.539062 713.335938 C 562.75 706.378906 566.496094 698.707031 563.640625 689.253906 L 563.105469 687.113281 L 560.964844 687.289062 C 552.042969 688.003906 542.585938 694.246094 535.269531 704.414062 C 526.34375 716.722656 522.777344 731.707031 525.808594 743.660156 C 526.167969 745.265625 526.523438 747.050781 526.882812 748.65625 C 528.488281 756.859375 530.449219 766.316406 539.550781 771.308594 C 556.324219 781.121094 576.492188 791.46875 599.332031 793.785156 C 602.367188 794.144531 605.222656 794.320312 608.078125 794.320312 C 620.925781 794.320312 630.917969 790.574219 638.054688 783.082031 C 658.933594 761.5 678.03125 740.984375 696.410156 720.828125 C 699.621094 717.4375 701.761719 713.511719 703.90625 709.230469 C 704.796875 707.625 705.691406 706.019531 706.761719 704.238281 L 708.367188 701.5625 L 705.691406 700.3125 C 695.875 695.851562 689.808594 700.3125 685.167969 703.523438 Z M 577.203125 292.164062 C 580.238281 294.304688 580.773438 297.875 581.664062 304.117188 C 582.738281 311.253906 584.164062 318.566406 585.589844 325.523438 C 588.445312 340.152344 591.480469 355.3125 591.660156 370.832031 C 591.835938 383.140625 592.550781 395.628906 593.265625 407.582031 C 594.15625 421.316406 595.050781 435.410156 595.050781 449.324219 C 595.050781 467.339844 593.800781 485.535156 592.550781 503.195312 C 592.015625 510.6875 591.480469 518.539062 591.125 526.03125 C 589.695312 549.933594 585.234375 573.480469 577.203125 598.277344 C 574.527344 606.125 571.492188 613.617188 568.28125 621.644531 C 566.675781 625.746094 564.890625 629.851562 563.285156 633.953125 L 562.394531 636.09375 L 560.074219 635.558594 C 539.195312 630.5625 521.527344 620.394531 503.148438 602.378906 C 487.621094 587.214844 477.273438 573.300781 470.847656 558.496094 L 468.882812 553.859375 C 462.636719 539.410156 456.035156 524.425781 452.109375 508.90625 C 447.648438 491.957031 445.148438 474.121094 444.613281 456.28125 C 444.078125 442.722656 445.6875 427.738281 449.613281 409.1875 C 454.609375 385.640625 462.101562 366.550781 472.273438 350.675781 C 492.617188 318.746094 518.851562 299.65625 552.042969 292.34375 C 554.542969 291.808594 556.859375 291.808594 559.179688 291.808594 C 561.144531 291.808594 562.929688 291.808594 564.714844 291.453125 C 570.601562 290.382812 574.347656 290.203125 577.203125 292.164062 Z M 530.628906 553.859375 C 529.914062 553.859375 529.199219 554.035156 528.664062 554.570312 C 528.128906 555.285156 527.953125 556.355469 528.128906 557.425781 C 528.308594 558.140625 529.734375 559.386719 530.808594 560.28125 C 532.054688 559.03125 533.304688 557.78125 534.910156 556.175781 C 534.734375 556 534.375 555.820312 534.199219 555.640625 C 532.769531 554.570312 531.699219 553.679688 530.984375 553.679688 C 530.808594 553.859375 530.628906 553.859375 530.628906 553.859375 Z M 519.742188 400.089844 C 524.738281 400.804688 528.664062 399.554688 530.984375 396.699219 C 533.304688 393.667969 533.664062 389.386719 532.054688 384.746094 C 528.664062 375.828125 520.101562 372.972656 510.640625 370.65625 C 505.644531 369.40625 502.253906 372.796875 497.4375 378.148438 L 496.1875 379.574219 C 495.472656 380.289062 495.296875 383.320312 495.832031 386.175781 C 497.257812 393.667969 508.679688 400.625 519.386719 400.269531 L 519.566406 400.269531 Z M 541.691406 601.84375 C 549.007812 602.378906 549.007812 602.023438 549.367188 597.382812 C 549.902344 591.496094 549.722656 590.425781 542.585938 589.179688 C 538.835938 593.101562 538.480469 597.027344 541.691406 601.84375 Z M 496.722656 493.5625 C 496.902344 489.996094 491.546875 484.644531 487.621094 484.464844 L 487.441406 484.464844 C 485.835938 484.464844 483.339844 485.714844 481.375 487.5 C 479.414062 489.28125 477.984375 491.421875 477.984375 492.851562 C 477.628906 500.699219 486.550781 502.304688 490.476562 502.484375 C 492.261719 502.660156 493.511719 502.304688 494.402344 501.414062 C 495.832031 500.164062 496.722656 497.488281 496.722656 493.5625 Z M 564.535156 558.675781 C 564.355469 562.957031 566.855469 566.878906 570.066406 567.058594 C 571.136719 567.058594 572.03125 566.703125 572.742188 565.988281 C 573.992188 564.738281 574.707031 562.597656 574.707031 559.566406 C 574.707031 556.710938 573.8125 554.570312 572.386719 553.144531 C 571.492188 552.253906 570.246094 551.894531 568.816406 551.894531 C 568.640625 551.894531 568.460938 551.894531 568.101562 551.894531 C 565.425781 552.253906 564.710938 553.679688 564.535156 558.675781 Z M 211.199219 655.359375 C 201.742188 654.289062 195.496094 649.828125 192.105469 641.625 C 190.679688 638.234375 189.25 634.84375 187.644531 631.457031 C 182.113281 619.148438 176.582031 606.304688 174.972656 592.03125 C 174.796875 589.355469 173.726562 586.503906 172.476562 583.648438 C 171.40625 580.792969 170.15625 577.761719 169.800781 574.730469 C 167.121094 558.675781 164.089844 540.300781 162.304688 522.285156 C 160.339844 503.554688 159.09375 484.464844 158.558594 465.558594 C 158.019531 450.574219 158.199219 435.410156 158.378906 420.78125 L 158.558594 411.863281 C 158.558594 409.1875 158.558594 406.511719 158.558594 403.835938 C 158.558594 394.558594 158.734375 384.925781 159.628906 375.472656 C 160.519531 365.480469 161.949219 355.3125 163.375 345.503906 C 164.089844 339.972656 164.980469 334.265625 165.695312 328.554688 L 165.875 327.484375 L 166.585938 326.773438 C 186.753906 309.289062 208.878906 298.230469 232.613281 294.128906 C 264.378906 288.417969 293.824219 295.375 322.910156 315.535156 C 351.105469 335.15625 364.3125 363.875 373.589844 389.207031 C 387.152344 427.027344 388.402344 467.164062 377.339844 512.472656 C 366.273438 558.496094 343.253906 595.957031 309.171875 623.785156 C 283.117188 645.191406 253.671875 655.894531 222.085938 655.894531 C 219.230469 655.894531 216.554688 655.539062 214.054688 655.359375 C 212.984375 655.539062 212.09375 655.359375 211.199219 655.359375 Z M 295.25 500.519531 C 295.25 505.160156 300.070312 509.617188 305.242188 509.796875 C 311.3125 509.976562 315.949219 505.695312 316.308594 499.273438 C 316.488281 494.632812 310.417969 488.390625 305.421875 488.210938 C 303.460938 488.035156 301.316406 489.105469 299.535156 490.710938 C 296.855469 493.207031 295.25 496.953125 295.25 500.519531 Z M 277.40625 572.945312 C 277.226562 573.300781 277.585938 574.371094 278.65625 575.441406 C 279.726562 576.511719 281.152344 577.226562 282.046875 576.871094 C 283.117188 576.691406 284.1875 575.621094 285.613281 574.371094 C 285.792969 574.195312 286.148438 574.015625 286.328125 573.835938 C 285.972656 573.480469 285.613281 573.300781 285.257812 572.945312 C 283.292969 571.519531 281.6875 570.269531 280.261719 569.914062 C 279.367188 570.269531 277.761719 571.875 277.40625 572.945312 Z M 306.492188 375.113281 C 305.957031 374.757812 305.421875 374.222656 304.886719 373.867188 C 302.746094 372.261719 300.425781 370.476562 298.460938 370.296875 C 297.75 370.296875 297.214844 370.296875 296.5 370.296875 C 283.472656 370.296875 274.015625 374.222656 267.234375 382.605469 C 263.84375 386.710938 263.128906 390.097656 264.914062 393.84375 C 266.875 398.125 272.585938 400.445312 277.226562 399.019531 C 285.257812 396.523438 293.289062 393.488281 300.960938 390.097656 C 302.390625 389.386719 303.816406 385.996094 304.707031 384.035156 C 305.066406 382.785156 305.421875 381.179688 305.78125 379.039062 C 306.136719 377.789062 306.316406 376.542969 306.492188 375.113281 Z M 250.816406 613.617188 C 255.992188 616.648438 257.953125 616.648438 259.738281 613.972656 C 261.34375 611.832031 261.703125 607.375 261.167969 604.164062 C 260.273438 603.269531 257.242188 602.199219 256.347656 602.378906 C 251.171875 604.164062 249.386719 607.910156 250.816406 613.617188 Z M 215.125 584.003906 C 215.484375 585.253906 215.839844 586.679688 216.195312 587.929688 C 216.910156 588.109375 217.625 588.109375 218.160156 588.285156 C 222.800781 589.179688 224.046875 589.179688 225.296875 586.503906 C 227.972656 580.792969 228.867188 577.046875 225.476562 573.660156 C 223.15625 571.339844 220.480469 571.160156 217.445312 572.945312 C 212.804688 575.800781 213.339844 578.296875 215.125 584.003906 Z M 185.679688 300.191406 C 196.925781 295.199219 207.632812 290.382812 218.515625 286.457031 C 243.320312 277.359375 269.554688 278.429688 301.140625 289.847656 C 317.023438 295.554688 329.335938 306.613281 340.21875 317.851562 C 359.492188 337.476562 372.164062 356.207031 380.371094 376.71875 C 393.222656 409.007812 397.503906 442.011719 393.933594 478.042969 C 393.578125 481.433594 393.398438 484.824219 393.398438 487.675781 C 393.398438 488.746094 393.398438 489.996094 393.222656 490.886719 L 393.042969 493.921875 L 396.074219 493.742188 C 401.964844 493.386719 407.855469 493.207031 413.5625 492.851562 C 421.058594 492.492188 428.554688 492.136719 435.871094 491.78125 L 438.90625 491.601562 L 438.367188 488.746094 C 433.015625 454.320312 434.976562 421.140625 444.613281 390.097656 C 455.5 354.421875 472.273438 328.378906 497.257812 308.578125 C 517.246094 292.699219 538.125 284.671875 561.144531 283.78125 C 564.355469 283.601562 567.390625 283.066406 570.78125 282.355469 C 571.851562 282.175781 572.921875 281.820312 574.171875 281.640625 L 576.847656 281.105469 L 575.421875 275.039062 C 570.601562 253.457031 566.140625 233.121094 556.683594 213.855469 L 555.613281 211.535156 L 553.292969 212.605469 C 552.398438 212.960938 551.6875 213.320312 551.152344 213.496094 C 550.078125 214.03125 549.1875 214.390625 548.296875 214.925781 C 521.527344 231.691406 494.046875 236.332031 464.246094 228.839844 C 448.363281 224.914062 433.015625 220.8125 419.097656 212.605469 C 412.671875 208.859375 407.140625 208.503906 400.539062 211.535156 C 394.292969 214.390625 386.796875 216.171875 378.410156 216.707031 C 359.851562 218.136719 341.648438 213.855469 323.089844 203.507812 C 304.171875 192.984375 291.683594 181.210938 283.472656 166.582031 C 280.261719 160.875 277.40625 154.808594 274.371094 148.386719 C 272.585938 144.820312 270.980469 141.074219 269.019531 137.328125 L 267.414062 134.292969 L 264.734375 136.433594 C 264.378906 136.792969 263.84375 137.148438 263.484375 137.503906 C 262.414062 138.398438 260.988281 139.46875 259.917969 140.714844 C 258.3125 142.5 256.527344 144.285156 254.921875 146.066406 C 250.636719 150.527344 246.355469 155.164062 242.429688 160.160156 C 226.902344 180.316406 214.054688 197.441406 201.742188 214.746094 C 189.429688 232.050781 182.824219 252.207031 177.652344 269.6875 C 175.507812 276.824219 174.261719 283.78125 172.832031 291.273438 C 172.117188 294.839844 171.582031 298.410156 170.691406 301.976562 L 169.621094 306.972656 L 174.4375 304.832031 C 178.1875 303.402344 181.933594 301.796875 185.679688 300.191406 Z M 185.679688 300.191406 "/>
<path style=" stroke:none;fill-rule:nonzero;fill:rgb(58.81958%,50.979614%,86.268616%);fill-opacity:1;" d="M 215.304688 590.605469 C 214.414062 590.425781 213.699219 589.890625 213.519531 589 C 212.09375 581.863281 207.808594 575.621094 216.019531 570.625 C 220.300781 568.128906 224.226562 568.664062 227.261719 571.695312 C 232.257812 576.691406 229.9375 582.578125 227.617188 587.574219 C 225.121094 593.636719 220.300781 591.496094 215.304688 590.605469 Z M 261.703125 615.578125 C 263.84375 612.546875 264.199219 607.195312 263.488281 603.449219 C 263.128906 601.664062 257.417969 599.167969 255.277344 599.882812 C 249.03125 602.199219 246.355469 607.015625 248.316406 614.507812 C 248.496094 615.042969 248.851562 615.402344 249.210938 615.757812 C 253.492188 618.433594 258.132812 620.574219 261.703125 615.578125 Z M 280.261719 567.058594 C 278.832031 566.703125 275.441406 569.914062 274.730469 572.054688 C 273.65625 575.621094 278.832031 580.4375 282.582031 579.367188 C 282.757812 579.367188 283.117188 579.1875 283.292969 579.1875 C 287.753906 577.40625 287.933594 571.160156 283.828125 568.664062 C 282.582031 567.949219 281.511719 567.414062 280.261719 567.058594 Z M 567.925781 549.398438 C 562.394531 549.933594 562.035156 554.570312 561.859375 558.496094 C 561.5 564.382812 565.25 569.378906 569.886719 569.734375 C 574.527344 570.089844 577.5625 566.167969 577.5625 559.921875 C 577.382812 553.144531 573.457031 548.863281 567.925781 549.398438 Z M 552.222656 597.5625 C 552.933594 589.890625 551.507812 587.929688 542.941406 586.503906 C 542.226562 586.324219 541.691406 586.679688 541.15625 587.039062 C 536.339844 591.855469 535.625 597.207031 539.90625 603.449219 C 540.265625 603.984375 540.800781 604.339844 541.515625 604.339844 C 550.613281 605.054688 551.6875 604.339844 552.222656 597.5625 Z M 531.164062 551.183594 C 526.882812 550.824219 524.5625 554.214844 525.453125 558.140625 C 525.808594 559.921875 527.773438 561.351562 529.558594 562.957031 C 530.449219 563.667969 531.519531 563.667969 532.414062 562.777344 C 533.839844 561.351562 535.445312 559.746094 537.410156 557.78125 C 538.300781 556.890625 538.125 555.464844 537.054688 554.75 C 534.734375 552.789062 532.949219 551.359375 531.164062 551.183594 Z M 531.164062 551.183594 "/>
<path style=" stroke:none;fill-rule:nonzero;fill:rgb(98.039246%,86.268616%,19.60907%);fill-opacity:1;" d="M 299.535156 381.714844 L 300.605469 384.746094 L 297.75 385.996094 C 290.609375 389.207031 283.117188 392.238281 274.015625 395.984375 L 266.164062 399.199219 L 269.375 391.347656 C 274.371094 379.21875 284.1875 374.042969 296.320312 377.078125 L 298.460938 377.613281 L 298.820312 379.753906 C 298.820312 380.109375 299 380.464844 299.175781 380.824219 C 299.355469 381.179688 299.535156 381.359375 299.535156 381.714844 Z M 428.734375 162.835938 C 428.554688 148.921875 421.417969 136.792969 408.925781 128.765625 C 400.539062 123.414062 391.257812 122.164062 383.941406 125.195312 C 377.875 127.695312 373.769531 133.222656 372.164062 140.539062 C 370.914062 147.316406 372.699219 154.808594 374.660156 160.160156 C 380.730469 175.859375 393.398438 186.203125 405.710938 196.371094 L 408.925781 199.046875 L 411.066406 197.441406 C 422.308594 189.949219 429.089844 176.570312 428.734375 162.835938 Z M 552.398438 200.832031 C 550.972656 198.691406 549.722656 196.371094 548.652344 194.230469 C 546.332031 190.128906 544.011719 186.027344 541.15625 182.28125 C 539.195312 179.78125 537.410156 177.105469 535.445312 174.609375 C 526.882812 162.835938 517.957031 150.707031 508.320312 139.824219 C 501.71875 132.511719 493.867188 126.800781 486.195312 121.09375 C 484.230469 119.667969 482.445312 118.238281 480.484375 116.8125 C 458.535156 100.222656 431.410156 83.097656 396.789062 81.671875 C 371.984375 80.601562 353.78125 83.097656 337.902344 90.234375 C 323.804688 96.296875 310.242188 104.324219 297.214844 111.996094 C 292.21875 114.851562 287.042969 117.882812 282.046875 120.738281 C 275.085938 124.660156 273.121094 130.726562 276.335938 138.933594 C 291.144531 178.175781 319.699219 201.722656 361.277344 208.859375 C 373.054688 210.820312 385.726562 211.890625 398.21875 205.292969 L 402.320312 203.152344 L 399.109375 199.761719 C 396.789062 197.441406 394.648438 195.125 392.507812 192.804688 C 386.976562 186.917969 381.621094 181.386719 376.804688 175.5 C 371.269531 168.542969 364.847656 157.664062 366.273438 144.460938 C 367.34375 135.542969 370.734375 128.585938 376.269531 124.484375 C 381.265625 120.738281 387.6875 119.132812 395.003906 120.203125 C 411.957031 122.519531 424.449219 133.222656 430.160156 150.347656 C 435.691406 166.9375 432.125 182.992188 418.917969 199.226562 L 416.417969 202.257812 L 419.808594 204.398438 C 440.867188 217.777344 463.710938 224.378906 486.550781 224.378906 C 508.5 224.378906 530.628906 218.136719 551.152344 205.828125 L 554.183594 204.042969 Z M 512.425781 376.542969 C 509.929688 376.363281 507.609375 377.253906 505.109375 378.148438 C 504.039062 378.503906 502.789062 379.039062 501.71875 379.394531 L 496.007812 381 L 500.113281 385.28125 C 504.753906 390.097656 509.929688 394.378906 517.246094 394.378906 C 519.386719 394.378906 521.707031 394.023438 524.203125 393.308594 L 527.058594 392.417969 L 526.523438 389.386719 C 525.453125 381.535156 520.457031 377.078125 512.425781 376.542969 Z M 512.425781 376.542969 "/>
<path style=" stroke:none;fill-rule:nonzero;fill:rgb(23.529053%,31.369019%,74.508667%);fill-opacity:1;" d="M 637.878906 688.359375 C 649.835938 677.300781 661.613281 666.242188 673.925781 655.359375 C 676.601562 652.863281 680.527344 651.433594 684.097656 650.363281 C 693.375 647.332031 701.226562 653.574219 699.621094 663.207031 C 698.375 670.34375 694.984375 676.945312 692.304688 683.722656 C 691.59375 685.683594 690.34375 687.648438 689.273438 689.609375 C 688.914062 689.964844 688.378906 690.5 688.023438 690.859375 C 688.738281 690.859375 689.628906 690.859375 690.34375 690.679688 C 692.304688 690.324219 694.089844 689.609375 696.054688 689.609375 C 709.4375 689.074219 716.574219 699.597656 711.398438 711.90625 C 704.441406 728.140625 692.128906 740.269531 680.527344 753.113281 C 669.820312 765.066406 657.507812 775.589844 647.691406 788.078125 C 633.773438 805.738281 615.394531 809.664062 595.226562 806.453125 C 582.203125 804.488281 568.816406 801.636719 557.574219 793.25 C 556.324219 792.359375 554.542969 792.179688 553.113281 791.824219 C 535.804688 787.363281 525.988281 775.234375 521.882812 758.824219 C 518.851562 746.335938 517.957031 733.3125 515.996094 719.757812 C 512.960938 721.539062 509.035156 723.324219 505.644531 726 C 474.417969 750.261719 439.082031 763.105469 399.464844 763.105469 C 378.410156 763.105469 357.351562 763.816406 336.292969 762.390625 C 318.804688 761.140625 301.851562 756.859375 285.257812 750.796875 C 261.878906 742.234375 242.429688 727.960938 223.511719 712.976562 C 208.703125 701.203125 197.460938 685.863281 188.535156 668.917969 C 186.929688 665.882812 183.71875 663.207031 180.863281 661.425781 C 169.265625 654.109375 156.59375 648.222656 145.707031 640.019531 C 128.21875 626.816406 114.835938 609.515625 105.019531 589.714844 C 91.28125 562.0625 83.964844 532.628906 82.894531 501.949219 C 82.179688 483.21875 84.320312 464.128906 87.355469 445.578125 C 90.210938 425.421875 96.992188 405.976562 105.554688 387.246094 C 114.480469 367.800781 126.257812 350.320312 140.710938 334.976562 C 149.8125 325.34375 152.847656 314.285156 154.988281 302.332031 C 163.019531 257.023438 177.828125 215.101562 208.878906 179.605469 C 217.089844 170.328125 224.226562 159.625 232.257812 149.8125 C 247.070312 131.441406 265.09375 116.992188 284.902344 104.503906 C 309.882812 88.804688 336.292969 75.605469 365.203125 69.003906 C 388.582031 63.652344 412.316406 65.617188 435.15625 74.355469 C 452.644531 80.957031 468.707031 89.519531 484.410156 99.867188 C 498.6875 109.320312 515.996094 112.53125 532.769531 115.027344 C 544.726562 116.8125 557.039062 117.527344 569.175781 117.347656 C 601.832031 116.8125 629.667969 99.332031 639.484375 68.113281 C 645.910156 47.777344 638.414062 27.976562 619.496094 18.164062 C 616.464844 16.558594 612.894531 16.023438 609.503906 15.132812 C 603.257812 13.527344 597.726562 14.953125 594.335938 20.484375 C 590.945312 26.191406 592.015625 32.4375 595.585938 37.789062 C 597.726562 41 601.296875 43.140625 603.257812 46.351562 C 604.507812 48.3125 605.398438 52.59375 604.328125 53.84375 C 602.542969 55.625 598.617188 56.875 596.296875 56.160156 C 585.234375 53.308594 577.382812 41.535156 576.492188 27.621094 C 575.957031 18.699219 585.054688 6.390625 594.515625 2.46875 C 602.722656 -0.921875 611.289062 -0.386719 618.960938 2.644531 C 646.445312 13.527344 660.363281 40.105469 654.117188 68.292969 C 648.050781 95.050781 631.632812 114.316406 607.71875 125.910156 C 590.765625 134.117188 571.671875 136.433594 552.398438 134.117188 C 542.226562 132.867188 532.234375 131.261719 522.0625 129.65625 C 521.347656 129.476562 520.636719 129.476562 519.921875 129.300781 C 520.277344 129.835938 520.636719 130.371094 520.992188 130.90625 C 529.199219 141.429688 537.589844 151.597656 545.441406 162.300781 C 564.355469 187.273438 576.667969 215.460938 585.589844 245.25 C 588.980469 256.84375 590.945312 268.796875 593.445312 280.390625 C 600.761719 282.890625 607.898438 284.496094 613.964844 287.527344 C 626.992188 294.128906 641.269531 299.65625 651.796875 309.289062 C 666.789062 322.847656 680.527344 338.367188 691.59375 355.136719 C 710.863281 384.570312 720.859375 418.105469 724.425781 453.070312 C 728.53125 493.207031 723.890625 532.453125 706.582031 569.199219 C 697.480469 588.464844 686.058594 606.660156 668.570312 620.21875 C 664.46875 623.429688 660.898438 626.996094 657.152344 630.5625 C 655.542969 631.992188 653.582031 633.773438 653.226562 635.738281 C 651.261719 651.96875 643.230469 665.882812 637.164062 680.511719 C 636.273438 682.472656 636.09375 684.792969 635.558594 687.113281 C 635.378906 687.824219 635.378906 688.539062 635.203125 689.253906 C 636.449219 688.894531 637.164062 688.539062 637.878906 688.359375 Z M 168.191406 329.089844 C 166.230469 344.789062 163.730469 360.308594 162.304688 376.007812 C 161.234375 387.957031 161.234375 400.089844 161.234375 412.21875 C 161.054688 430.058594 160.519531 447.898438 161.234375 465.734375 C 161.949219 484.644531 163.195312 503.554688 164.980469 522.285156 C 166.765625 539.765625 169.621094 557.070312 172.476562 574.550781 C 173.546875 580.4375 177.117188 585.96875 177.652344 592.03125 C 179.257812 609.691406 187.824219 624.855469 194.425781 640.730469 C 197.636719 648.402344 203.347656 651.96875 211.378906 652.863281 C 214.949219 653.21875 218.339844 653.753906 221.90625 653.753906 C 254.207031 653.574219 282.757812 642.335938 307.386719 622.179688 C 342.539062 593.460938 364.132812 555.640625 374.660156 512.292969 C 384.476562 471.800781 385.367188 430.773438 370.914062 390.632812 C 360.742188 362.09375 347.359375 336.40625 321.304688 318.210938 C 294.179688 299.300781 265.269531 291.273438 232.972656 297.160156 C 208.878906 301.441406 187.464844 312.324219 168.191406 329.089844 Z M 173.546875 302.511719 C 188.894531 295.910156 202.992188 289.3125 217.445312 283.960938 C 245.820312 273.613281 274.015625 277.359375 301.851562 287.347656 C 317.914062 293.058594 330.226562 303.9375 342.003906 316.070312 C 359.136719 333.550781 373.414062 352.460938 382.691406 375.828125 C 395.898438 409.1875 400 443.082031 396.433594 478.402344 C 395.898438 483.039062 395.898438 487.675781 395.71875 491.066406 C 409.636719 490.351562 422.488281 489.816406 435.515625 489.105469 C 430.339844 456.101562 431.585938 422.566406 441.757812 389.207031 C 451.753906 356.382812 467.8125 328.199219 495.296875 306.4375 C 514.925781 290.917969 535.980469 281.996094 560.785156 281.105469 C 564.710938 280.925781 568.816406 279.855469 573.457031 278.964844 C 568.460938 256.488281 564 235.082031 554.183594 215.101562 C 551.863281 216.171875 550.613281 216.53125 549.542969 217.242188 C 522.777344 234.011719 494.222656 239.183594 463.351562 231.515625 C 447.46875 227.589844 431.765625 223.308594 417.488281 214.925781 C 412.316406 211.890625 407.675781 211.179688 401.429688 214.03125 C 394.292969 217.242188 386.261719 218.847656 378.410156 219.382812 C 358.066406 220.988281 339.148438 215.636719 321.484375 205.828125 C 304.886719 196.550781 290.253906 184.777344 280.796875 167.832031 C 275.621094 158.554688 271.339844 148.566406 266.339844 138.574219 C 265.09375 139.644531 263.128906 140.894531 261.703125 142.5 C 255.8125 148.921875 249.566406 154.988281 244.390625 161.765625 C 230.652344 179.78125 216.910156 197.976562 203.882812 216.351562 C 192.285156 232.761719 185.859375 251.492188 180.148438 270.582031 C 177.117188 280.75 175.867188 291.453125 173.546875 302.511719 Z M 550.972656 645.726562 C 486.550781 619.324219 455.5 567.59375 438.90625 506.050781 C 423.914062 506.050781 408.925781 506.050781 393.578125 506.050781 C 391.792969 512.652344 390.542969 518.539062 388.402344 524.246094 C 383.050781 538.875 378.765625 554.214844 371.449219 567.949219 C 355.210938 598.097656 334.6875 625.035156 305.601562 644.300781 C 290.96875 654.109375 275.265625 662.316406 257.777344 665.347656 C 242.964844 668.023438 227.796875 669.09375 212.269531 671.058594 C 213.519531 673.019531 215.125 675.875 217.265625 678.726562 C 225.296875 689.609375 234.21875 699.421875 245.820312 706.554688 C 259.738281 714.941406 273.480469 724.214844 288.292969 730.460938 C 303.460938 736.882812 319.878906 740.628906 336.828125 740.804688 C 358.246094 740.984375 380.015625 743.660156 401.074219 741.164062 C 423.914062 738.488281 447.46875 736.347656 467.8125 722.96875 C 478.699219 715.832031 491.726562 711.195312 501.003906 702.453125 C 517.78125 686.753906 532.589844 668.917969 547.9375 651.792969 C 549.367188 650.542969 549.722656 648.402344 550.972656 645.726562 Z M 560.785156 632.882812 C 565.605469 620.574219 570.78125 609.15625 574.527344 597.382812 C 582.023438 574.195312 586.839844 550.289062 588.269531 525.851562 C 589.875 500.34375 592.195312 474.832031 592.195312 449.324219 C 592.195312 423.101562 589.160156 396.878906 588.804688 370.832031 C 588.625 348.179688 582.203125 326.59375 578.8125 304.472656 C 577.203125 294.128906 576.847656 291.988281 565.070312 294.128906 C 560.964844 294.839844 556.683594 294.128906 552.578125 295.019531 C 518.136719 302.691406 492.976562 323.027344 474.417969 352.28125 C 462.996094 369.941406 456.394531 389.742188 452.109375 409.902344 C 448.898438 425.0625 446.578125 440.941406 447.113281 456.28125 C 447.648438 473.761719 450.148438 491.421875 454.609375 508.371094 C 459.070312 525.136719 466.207031 541.371094 473.167969 557.425781 C 480.484375 574.015625 492.082031 587.929688 504.929688 600.417969 C 520.277344 615.042969 537.410156 627.175781 560.785156 632.882812 Z M 579.523438 636.628906 C 586.484375 636.808594 586.484375 636.09375 590.589844 630.742188 C 595.585938 624.320312 600.761719 617.542969 607.183594 612.726562 C 613.964844 607.730469 619.675781 610.585938 622.710938 618.613281 C 623.421875 620.394531 624.136719 622 625.207031 624.140625 C 636.449219 611.296875 639.839844 610.226562 652.691406 616.113281 C 653.582031 615.222656 654.296875 614.152344 655.1875 613.4375 C 682.3125 593.460938 696.054688 564.382812 705.332031 533.699219 C 714.078125 504.625 714.96875 474.121094 709.4375 444.152344 C 702.65625 406.332031 689.09375 371.011719 662.324219 342.292969 C 647.15625 326.058594 630.382812 312.144531 609.683594 303.226562 C 606.113281 301.621094 602.007812 301.085938 597.546875 300.015625 C 598.441406 306.257812 598.617188 311.074219 599.867188 315.710938 C 607.542969 346.394531 608.789062 377.613281 610.21875 408.832031 C 611.46875 431.84375 610.933594 455.03125 610.039062 478.042969 C 609.148438 499.984375 607.71875 522.105469 604.863281 543.867188 C 600.582031 575.441406 592.730469 606.304688 579.523438 636.628906 Z M 549.367188 202.617188 C 545.617188 196.195312 542.40625 189.949219 538.300781 184.421875 C 527.773438 169.972656 517.421875 155.34375 505.644531 142.144531 C 497.972656 133.402344 487.800781 126.800781 478.34375 119.667969 C 454.074219 101.292969 428.375 86.488281 396.613281 85.238281 C 376.804688 84.347656 357.171875 85.59375 339.328125 93.445312 C 320.054688 101.828125 302.210938 113.421875 283.828125 123.769531 C 278.121094 126.980469 277.585938 131.441406 279.726562 137.683594 C 294.179688 176.214844 321.660156 198.511719 361.992188 205.292969 C 373.414062 207.253906 385.191406 208.144531 396.609375 202.082031 C 388.757812 193.519531 381.085938 186.027344 374.125 177.640625 C 366.273438 168.007812 361.457031 156.414062 362.882812 143.925781 C 365.203125 124.125 378.410156 114.136719 395.539062 116.457031 C 413.742188 118.953125 427.304688 130.546875 433.550781 148.921875 C 440.152344 168.722656 434.265625 185.667969 421.773438 201.1875 C 457.820312 224.023438 504.21875 229.550781 549.367188 202.617188 Z M 561.320312 690.324219 C 541.871094 691.214844 522.597656 720.828125 528.128906 742.589844 C 530.449219 752.222656 530.808594 763.105469 540.621094 768.632812 C 558.824219 779.335938 578.097656 788.613281 599.332031 790.753906 C 612.179688 792.179688 625.921875 791.109375 635.738281 780.765625 C 655.542969 760.25 674.996094 739.558594 694.089844 718.507812 C 698.195312 714.046875 700.691406 708.160156 704.082031 702.453125 C 696.054688 698.886719 691.058594 702.632812 686.59375 705.84375 C 675.351562 713.691406 664.824219 722.433594 654.117188 730.996094 C 649.835938 734.382812 645.910156 737.058594 640.019531 731.171875 C 641.625 728.855469 643.230469 726.179688 645.015625 723.859375 C 657.152344 708.695312 669.640625 693.535156 681.421875 678.191406 C 684.453125 674.089844 685.882812 668.917969 688.023438 664.101562 C 687.308594 663.566406 686.59375 663.207031 685.882812 662.671875 C 681.957031 665.347656 677.671875 667.3125 674.28125 670.523438 C 663.753906 681.226562 653.761719 692.464844 643.230469 703.167969 C 639.484375 707.089844 635.378906 711.195312 630.5625 713.15625 C 626.277344 714.761719 620.210938 714.582031 616.285156 712.441406 C 614.324219 711.371094 614.144531 704.058594 615.394531 700.3125 C 620.03125 687.648438 625.742188 675.515625 630.917969 663.207031 C 633.59375 656.609375 636.09375 650.007812 638.949219 642.695312 C 625.566406 644.476562 625.207031 644.835938 620.925781 654.289062 C 614.5 668.917969 607.898438 683.542969 601.472656 698.171875 C 599.152344 703.523438 595.585938 706.554688 587.910156 702.453125 C 588.804688 698.351562 588.980469 693.710938 590.589844 689.429688 C 595.226562 676.765625 600.402344 664.277344 605.757812 650.898438 C 600.226562 651.078125 595.761719 651.433594 591.835938 651.613281 C 582.378906 677.121094 573.277344 702.097656 563.640625 727.785156 C 577.203125 729.566406 580.773438 740.804688 583.984375 752.042969 C 584.519531 754.007812 580.953125 757.21875 578.632812 760.605469 C 575.957031 757.394531 574.171875 755.96875 573.457031 754.007812 C 569.710938 744.730469 564.890625 738.128906 553.292969 738.664062 C 547.761719 738.84375 546.6875 733.136719 548.652344 728.320312 C 550.4375 724.214844 553.113281 720.46875 554.898438 716.367188 C 558.824219 708.519531 564.355469 700.667969 561.320312 690.324219 Z M 170.511719 638.234375 C 171.226562 637.878906 171.941406 637.519531 172.65625 636.984375 C 170.511719 631.097656 168.191406 625.390625 166.230469 619.503906 C 157.484375 592.03125 151.0625 564.203125 148.386719 535.484375 C 144.636719 495.347656 142.316406 455.210938 142.851562 414.894531 C 143.03125 399.910156 143.921875 384.925781 144.636719 369.941406 C 144.816406 365.480469 145.171875 361.023438 145.53125 356.5625 C 141.78125 357.8125 139.285156 359.058594 138.214844 361.199219 C 130.898438 374.222656 122.332031 386.710938 116.800781 400.445312 C 110.195312 417.035156 105.734375 434.339844 101.453125 451.644531 C 95.5625 476.082031 94.847656 501.054688 99.847656 525.671875 C 104.664062 549.042969 110.554688 572.410156 124.117188 592.746094 C 136.785156 611.121094 150.527344 627.886719 170.511719 638.234375 Z M 409.28125 194.589844 C 428.910156 181.03125 433.015625 148.386719 406.960938 131.976562 C 394.292969 123.949219 378.945312 125.910156 375.734375 141.429688 C 374.660156 146.960938 376.089844 153.558594 378.050781 159.089844 C 383.941406 174.253906 396.613281 184.242188 409.28125 194.589844 Z M 581.128906 651.613281 C 573.992188 649.828125 569.175781 651.257812 565.960938 658.035156 C 564.175781 661.960938 561.144531 665.347656 558.644531 669.09375 C 556.503906 672.304688 554.363281 675.339844 552.042969 678.90625 C 558.824219 679.261719 564.355469 679.621094 570.78125 679.976562 C 574.171875 670.878906 577.5625 661.425781 581.128906 651.613281 Z M 613.429688 621.824219 C 604.152344 626.640625 602.007812 629.492188 601.296875 637.34375 C 604.6875 636.273438 608.078125 635.378906 611.824219 634.308594 C 612.359375 630.207031 612.714844 626.460938 613.429688 621.824219 Z M 518.316406 717.082031 C 518.136719 717.257812 517.78125 717.617188 517.78125 717.792969 C 517.78125 717.972656 518.136719 718.328125 518.316406 718.507812 C 518.492188 718.328125 518.851562 717.972656 518.851562 717.792969 C 518.851562 717.4375 518.492188 717.257812 518.316406 717.082031 Z M 309.527344 373.867188 C 308.457031 378.859375 308.457031 382.070312 307.207031 384.925781 C 306.136719 387.78125 304.351562 391.167969 302.03125 392.417969 C 294.179688 395.984375 286.148438 399.019531 277.941406 401.515625 C 271.695312 403.300781 265.09375 400.269531 262.414062 394.917969 C 259.917969 389.742188 261.34375 385.28125 265.09375 380.824219 C 273.835938 370.121094 285.792969 367.265625 298.460938 367.621094 C 302.390625 367.800781 306.136719 372.082031 309.527344 373.867188 Z M 296.144531 382.964844 C 295.964844 382.25 295.609375 381.535156 295.429688 380.644531 C 285.4375 378.148438 277.046875 381.894531 272.585938 392.777344 C 281.511719 389.027344 288.828125 385.996094 296.144531 382.964844 Z M 318.984375 499.449219 C 319.164062 493.207031 312.023438 485.894531 305.601562 485.535156 C 299 485.179688 292.574219 492.671875 292.574219 500.519531 C 292.574219 506.765625 298.640625 512.292969 305.242188 512.292969 C 312.917969 512.652344 318.804688 507.121094 318.984375 499.449219 Z M 391.257812 574.015625 C 396.613281 583.292969 407.320312 588.820312 417.667969 587.394531 C 427.125 585.96875 437.476562 576.511719 439.261719 566.878906 C 439.617188 564.738281 438.011719 562.242188 437.121094 559.566406 C 433.371094 560.992188 431.050781 561.707031 428.734375 562.957031 C 427.125 563.847656 425.878906 565.453125 424.269531 566.523438 C 416.953125 572.054688 413.207031 572.054688 405.175781 567.058594 C 401.609375 564.738281 397.683594 562.777344 394.113281 560.816406 C 389.117188 565.097656 388.222656 569.019531 391.257812 574.015625 Z M 519.386719 402.765625 C 507.609375 402.945312 494.9375 395.449219 493.152344 386.53125 C 492.617188 383.675781 492.441406 379.394531 494.222656 377.613281 C 498.6875 372.617188 503.859375 366.195312 511.355469 367.980469 C 520.636719 370.296875 530.628906 373.152344 534.554688 383.675781 C 538.835938 395.09375 531.878906 404.550781 519.386719 402.765625 Z M 523.132812 389.742188 C 521.882812 382.964844 517.601562 380.464844 512.246094 380.109375 C 509.570312 379.929688 506.539062 381.714844 502.789062 382.785156 C 509.214844 389.5625 514.925781 392.417969 523.132812 389.742188 Z M 487.800781 481.789062 C 482.804688 481.433594 475.488281 487.855469 475.308594 492.671875 C 474.953125 499.808594 480.660156 504.445312 490.296875 505.160156 C 496.367188 505.515625 499.222656 501.949219 499.578125 493.742188 C 499.578125 488.746094 493.152344 482.148438 487.800781 481.789062 Z M 487.800781 481.789062 "/>
</g>
</svg>
