<?xml version="1.0" encoding="UTF-8"?>
<svg xmlns="http://www.w3.org/2000/svg" xmlns:xlink="http://www.w3.org/1999/xlink" width="810pt" height="809.999993pt" viewBox="0 0 810 809.999993" version="1.2">
<defs>
<clipPath id="clip1">
  <path d="M 45.988281 0 L 763.566406 0 L 763.566406 809.988281 L 45.988281 809.988281 Z M 45.988281 0 "/>
</clipPath>
<clipPath id="clip2">
  <path d="M 45.988281 0 L 763.566406 0 L 763.566406 809.988281 L 45.988281 809.988281 Z M 45.988281 0 "/>
</clipPath>
</defs>
<g id="surface1">
<g clip-path="url(#clip1)" clip-rule="nonzero">
<path style=" stroke:none;fill-rule:nonzero;fill:rgb(64.709473%,86.268616%,49.01886%);fill-opacity:1;" d="M 741.597656 245.761719 C 726.917969 214.167969 706.210938 185.820312 682.3125 160.226562 C 674.328125 145.402344 662.460938 131.640625 646.421875 125.582031 C 644.570312 123.957031 642.710938 122.332031 640.839844 120.730469 C 609.703125 94.085938 575.171875 70.203125 537.976562 53.007812 C 537.515625 52.527344 537.066406 52.042969 536.574219 51.578125 C 535.054688 50.167969 532.957031 49.65625 530.890625 49.828125 C 504.523438 38.359375 476.878906 30.300781 448.179688 27.046875 C 398.46875 21.425781 345.460938 32.597656 304.429688 59.902344 C 274.234375 35.992188 241.914062 15.257812 205.070312 5.238281 C 150.242188 -9.644531 82.410156 6.992188 56.628906 57.644531 C 38.191406 93.878906 45.4375 138.941406 65.152344 174.515625 C 81.609375 204.253906 105.675781 228.742188 130.695312 251.980469 C 117.175781 265.535156 104.46875 279.761719 93.722656 295.210938 C 86.070312 306.203125 79.421875 317.816406 74.183594 330.234375 C 55.71875 374.148438 60.199219 431.363281 97.570312 461.1875 C 119.890625 479.019531 149.160156 484.097656 177.710938 489.109375 C 181.890625 489.84375 186.078125 490.574219 190.222656 491.347656 C 222.523438 497.386719 257.511719 509.019531 273.414062 537.570312 C 287.972656 563.75 282.183594 596.941406 294.136719 624.386719 C 296.734375 630.347656 300.265625 635.703125 304.46875 640.472656 C 298.796875 648.695312 295.65625 660.101562 293.738281 667.882812 C 289.808594 683.890625 289.851562 701.320312 294.339844 717.210938 C 300.265625 738.191406 313.074219 756.425781 329.683594 770.253906 C 318.820312 772.007812 307.105469 780.6875 307.125 792.507812 C 307.136719 804.34375 320.089844 811.554688 330.859375 809.695312 C 350.464844 806.296875 367.058594 796.726562 375.378906 778.09375 C 378.628906 770.804688 373.261719 765.136719 366.691406 762.949219 C 341.484375 754.566406 323.101562 730.851562 317.871094 705.144531 C 315.019531 691.121094 315.710938 676.546875 319.769531 662.820312 C 320.230469 661.257812 321.488281 658.515625 322.890625 655.257812 C 349.78125 670.417969 386.609375 670.019531 409.828125 649.011719 C 425.1875 635.117188 433.476562 615.96875 440.472656 595.949219 C 449.566406 597.003906 458.566406 598.414062 467.671875 600.855469 C 482.878906 604.929688 498.058594 612.035156 511.144531 620.789062 C 522.867188 628.625 533.773438 638.828125 542.933594 649.53125 C 547.28125 654.617188 551.234375 660.132812 555.160156 665.546875 C 557.355469 668.566406 559.3125 671.695312 561.347656 674.808594 C 563.246094 677.710938 567.253906 681.722656 567.476562 685.378906 C 568.089844 695.246094 583.976562 694.476562 588.769531 688.78125 C 598.105469 677.675781 608.597656 666.996094 617.378906 655.464844 C 622.859375 648.265625 620.558594 638.386719 612.902344 634.019531 C 604.757812 629.378906 592.820312 630.746094 585.941406 637.324219 C 583.125 640.019531 580.59375 643.046875 578.335938 646.292969 C 575.03125 640.289062 571.003906 634.671875 566.71875 629.332031 C 555.9375 615.910156 542.921875 605.296875 528.152344 596.496094 C 505.320312 582.902344 474.5625 575.191406 446.492188 578.089844 C 454.832031 553.15625 463.789062 528.851562 484.292969 513.449219 C 525.363281 482.59375 583.96875 506.636719 635.167969 501.050781 C 637.335938 500.804688 639.492188 500.527344 641.628906 500.160156 C 692.726562 491.804688 735.859375 451.273438 753.3125 402.65625 C 756.183594 394.65625 758.421875 386.457031 760.054688 378.167969 C 768.820312 334.054688 760.683594 286.886719 741.597656 245.761719 "/>
</g>
<path style=" stroke:none;fill-rule:nonzero;fill:rgb(16.859436%,55.288696%,39.99939%);fill-opacity:1;" d="M 93.722656 295.210938 C 86.070312 306.203125 79.421875 317.816406 74.183594 330.234375 C 55.71875 374.148438 60.199219 431.363281 97.570312 461.1875 C 119.890625 479.019531 149.160156 484.097656 177.710938 489.109375 C 185.800781 472.292969 191.640625 454.5 194.289062 436.023438 C 199.890625 396.804688 189.757812 354.316406 162.253906 325.820312 C 144.484375 307.398438 119.066406 296.113281 93.722656 295.210938 Z M 760.054688 378.167969 C 758.421875 386.457031 756.183594 394.65625 753.3125 402.65625 C 735.859375 451.273438 692.726562 491.804688 641.628906 500.160156 C 631.355469 473.800781 632.070312 443.078125 645.113281 417.984375 C 660.1875 388.941406 691.867188 368.851562 724.566406 369.257812 C 736.875 369.414062 749.058594 372.601562 760.054688 378.167969 "/>
<g clip-path="url(#clip2)" clip-rule="nonzero">
<path style=" stroke:none;fill-rule:nonzero;fill:rgb(64.709473%,86.268616%,49.01886%);fill-opacity:1;" d="M 760.054688 378.167969 C 749.058594 372.601562 736.875 369.414062 724.566406 369.257812 C 691.867188 368.851562 660.1875 388.941406 645.113281 417.984375 C 632.070312 443.078125 631.355469 473.800781 641.628906 500.160156 C 639.492188 500.527344 637.335938 500.804688 635.167969 501.050781 C 583.96875 506.636719 525.363281 482.59375 484.292969 513.449219 C 463.789062 528.851562 454.832031 553.15625 446.492188 578.089844 C 474.5625 575.191406 505.320312 582.902344 528.152344 596.496094 C 542.921875 605.296875 555.9375 615.910156 566.71875 629.332031 C 571.003906 634.671875 575.03125 640.289062 578.335938 646.292969 C 580.59375 643.046875 583.125 640.019531 585.941406 637.324219 C 592.820312 630.746094 604.757812 629.378906 612.902344 634.019531 C 620.558594 638.386719 622.859375 648.265625 617.378906 655.464844 C 608.597656 666.996094 598.105469 677.675781 588.769531 688.78125 C 583.976562 694.476562 568.089844 695.246094 567.476562 685.378906 C 567.253906 681.722656 563.246094 677.710938 561.347656 674.808594 C 559.3125 671.695312 557.355469 668.566406 555.160156 665.546875 C 551.234375 660.132812 547.28125 654.617188 542.933594 649.53125 C 533.773438 638.828125 522.867188 628.625 511.144531 620.789062 C 498.058594 612.035156 482.878906 604.929688 467.671875 600.855469 C 458.566406 598.414062 449.566406 597.003906 440.472656 595.949219 C 433.476562 615.96875 425.1875 635.117188 409.828125 649.011719 C 386.609375 670.019531 349.78125 670.417969 322.890625 655.257812 C 321.488281 658.515625 320.230469 661.257812 319.769531 662.820312 C 315.710938 676.546875 315.019531 691.121094 317.871094 705.144531 C 323.101562 730.851562 341.484375 754.566406 366.691406 762.949219 C 373.261719 765.136719 378.628906 770.804688 375.378906 778.09375 C 367.058594 796.726562 350.464844 806.296875 330.859375 809.695312 C 320.089844 811.554688 307.136719 804.34375 307.125 792.507812 C 307.105469 780.6875 318.820312 772.007812 329.683594 770.253906 C 313.074219 756.425781 300.265625 738.191406 294.339844 717.210938 C 289.851562 701.320312 289.808594 683.890625 293.738281 667.882812 C 295.65625 660.101562 298.796875 648.695312 304.46875 640.472656 C 300.265625 635.703125 296.734375 630.347656 294.136719 624.386719 C 282.183594 596.941406 287.972656 563.75 273.414062 537.570312 C 257.511719 509.019531 222.523438 497.386719 190.222656 491.347656 C 186.078125 490.574219 181.890625 489.84375 177.710938 489.109375 C 185.800781 472.292969 191.640625 454.5 194.289062 436.023438 C 199.890625 396.804688 189.75 354.316406 162.253906 325.820312 C 144.484375 307.398438 119.066406 296.113281 93.722656 295.210938 C 104.46875 279.761719 117.175781 265.535156 130.695312 251.980469 C 105.675781 228.742188 81.609375 204.253906 65.152344 174.515625 C 45.4375 138.941406 38.191406 93.878906 56.628906 57.644531 C 82.410156 6.992188 150.242188 -9.644531 205.070312 5.238281 C 241.914062 15.257812 274.234375 35.992188 304.429688 59.902344 C 345.460938 32.597656 398.46875 21.425781 448.179688 27.046875 C 520.316406 35.226562 585.859375 73.6875 640.839844 120.730469 C 681.890625 155.84375 718.914062 196.933594 741.597656 245.761719 C 760.683594 286.886719 768.820312 334.054688 760.054688 378.167969 "/>
</g>
<path style=" stroke:none;fill-rule:nonzero;fill:rgb(100%,100%,100%);fill-opacity:1;" d="M 363.753906 333.601562 C 361.199219 331.777344 358.675781 329.957031 356.171875 328.117188 C 352.339844 325.292969 350.292969 320.601562 351.011719 315.90625 C 351.589844 312.195312 351.992188 308.460938 352.234375 304.71875 C 352.65625 298.023438 352.519531 291.300781 351.695312 284.644531 C 351.589844 283.367188 351.390625 282.121094 351.132812 280.882812 C 350.957031 281.054688 350.777344 281.261719 350.589844 281.476562 C 347.613281 284.695312 344.53125 287.816406 341.484375 290.972656 C 340.257812 292.210938 339.039062 293.457031 337.773438 294.664062 C 335.941406 296.449219 334.082031 298.203125 332.210938 299.953125 C 328.902344 303.035156 323.808594 303.191406 320.304688 300.320312 C 320.273438 300.300781 320.253906 300.28125 320.234375 300.269531 C 314.285156 295.347656 308.402344 290.320312 302.609375 285.203125 C 299.828125 282.734375 296.953125 280.269531 294.066406 277.746094 C 294.398438 283.894531 294.910156 289.933594 295.464844 295.785156 C 298.652344 328.835938 306.53125 374.753906 344.183594 385.191406 C 347.929688 386.230469 351.429688 386.632812 354.707031 386.476562 C 372.382812 385.703125 383.484375 369.136719 390.867188 351.582031 C 381.574219 345.980469 372.523438 339.867188 363.753906 333.601562 Z M 657.960938 325.558594 C 659.730469 326.75 661.5 327.976562 663.265625 329.222656 C 653.25 345.136719 638.878906 356.871094 620.917969 349.078125 C 592.226562 336.648438 581.953125 294.367188 578.015625 266.675781 C 586.574219 273.542969 595.292969 280.210938 604.082031 286.785156 C 605.339844 287.726562 606.617188 288.675781 607.875 289.617188 C 609.210938 290.597656 610.453125 292.6875 612.34375 291.648438 C 614.324219 290.578125 615.476562 288.269531 616.808594 286.554688 C 618.472656 284.417969 620.007812 282.191406 621.480469 279.914062 C 622.867188 277.796875 624.191406 275.625 625.527344 273.507812 C 627.101562 271 629.464844 265.378906 631.875 262.5625 C 632.039062 262.890625 632.28125 263.257812 632.578125 263.703125 C 632.910156 265.289062 633.207031 266.882812 633.4375 268.476562 C 634.484375 275.277344 634.839844 282.050781 634.574219 288.796875 C 634.367188 294 633.789062 299.183594 632.878906 304.3125 C 632.527344 306.242188 633.257812 308.183594 634.839844 309.320312 C 638.492188 311.953125 642.15625 314.578125 645.828125 317.152344 C 649.855469 319.988281 653.902344 322.789062 657.960938 325.558594 "/>
<path style=" stroke:none;fill-rule:nonzero;fill:rgb(16.859436%,55.288696%,39.99939%);fill-opacity:1;" d="M 424.730469 102.316406 C 421.785156 98.527344 417.136719 92.277344 417 87.121094 C 416.898438 83.347656 419.640625 80.242188 423.453125 81.988281 C 426.265625 83.269531 427.625 87.039062 428.207031 89.785156 C 429.207031 94.484375 428.746094 100.019531 427.03125 105.085938 C 426.234375 104.183594 425.464844 103.257812 424.730469 102.316406 Z M 536.574219 51.578125 C 531.671875 47.03125 520.792969 51.808594 524.054688 58.878906 C 533.253906 78.804688 531.949219 101.113281 513.753906 115.328125 C 495.761719 129.382812 469.46875 131.800781 449.097656 121.800781 C 444.792969 119.679688 440.652344 117.113281 436.800781 114.171875 C 442.125 105.082031 444.511719 93.238281 440.917969 83.914062 C 436.824219 73.332031 421.742188 68.214844 413.015625 76.6875 C 403.160156 86.25 414.261719 100.8125 420.796875 108.726562 C 421.722656 109.839844 422.683594 110.914062 423.667969 111.96875 C 422.253906 114.070312 420.558594 115.90625 418.609375 117.320312 C 407.964844 125.039062 393.757812 117.492188 384.199219 111.4375 C 360.839844 96.644531 342.308594 75.375 328.5 51.546875 C 327.183594 49.28125 322.574219 50.085938 323.46875 53.039062 C 332.855469 84.082031 358.207031 113.203125 388.03125 126.480469 C 402.085938 132.738281 418.863281 133.464844 430.617188 122.152344 C 431.273438 121.515625 431.914062 120.832031 432.53125 120.125 C 452.402344 135.753906 479.9375 142.179688 504.265625 135.027344 C 521.53125 129.945312 536.894531 118.769531 544.363281 102.039062 C 552.003906 84.910156 550.683594 64.671875 536.574219 51.578125 "/>
<path style=" stroke:none;fill-rule:nonzero;fill:rgb(20.388794%,20.388794%,20.388794%);fill-opacity:1;" d="M 229.71875 119.011719 C 234 123.632812 227.007812 128.519531 222.460938 127.152344 C 210.855469 123.652344 200.398438 116.511719 190.027344 110.386719 C 179.964844 104.441406 169.886719 98.535156 159.878906 92.5 C 151.355469 87.371094 137.226562 75.261719 129.371094 86.921875 C 122.757812 96.738281 125.894531 109.679688 127.210938 120.566406 C 127.660156 124.265625 121.488281 124.949219 120.023438 122.085938 C 113.851562 109.988281 109.136719 95.644531 116.113281 82.828125 C 121.976562 72.066406 133.957031 67.007812 145.84375 69.707031 C 160.851562 73.117188 175.457031 84.117188 188.554688 91.859375 C 202.097656 99.867188 218.914062 107.347656 229.71875 119.011719 Z M 535.695312 331.949219 C 535.925781 356.066406 535.054688 393.851562 503.253906 397.527344 C 489.648438 399.101562 479.425781 390.859375 474.457031 378.765625 C 471.761719 372.210938 471.382812 365.375 470.820312 358.382812 C 470.265625 351.46875 468.429688 345.183594 467.28125 338.425781 C 466.71875 335.113281 472.097656 333.320312 474.328125 335.136719 C 481.820312 341.242188 483.882812 351.425781 487.023438 360.167969 C 488.828125 365.171875 494.5625 380.410156 502.5 378.992188 C 509.578125 377.734375 511.863281 364.550781 512.699219 359.273438 C 514.488281 347.984375 515.703125 337.9375 523.074219 328.785156 C 526.746094 324.226562 535.628906 325.492188 535.695312 331.949219 Z M 354.707031 386.476562 C 351.429688 386.632812 347.929688 386.230469 344.183594 385.191406 C 306.53125 374.753906 298.652344 328.835938 295.464844 295.785156 C 294.910156 289.933594 294.398438 283.894531 294.066406 277.746094 C 296.953125 280.269531 299.828125 282.734375 302.609375 285.203125 C 308.402344 290.320312 314.285156 295.347656 320.234375 300.269531 C 320.253906 300.28125 320.273438 300.300781 320.304688 300.320312 C 323.808594 303.191406 328.902344 303.035156 332.210938 299.953125 C 334.082031 298.203125 335.941406 296.449219 337.773438 294.664062 C 339.039062 293.457031 340.257812 292.210938 341.484375 290.972656 C 344.53125 287.816406 347.613281 284.695312 350.589844 281.476562 C 350.777344 281.261719 350.957031 281.054688 351.132812 280.882812 C 351.390625 282.121094 351.589844 283.367188 351.695312 284.644531 C 352.519531 291.300781 352.65625 298.023438 352.234375 304.71875 C 351.992188 308.460938 351.589844 312.195312 351.011719 315.90625 C 350.292969 320.601562 352.339844 325.292969 356.171875 328.117188 C 358.675781 329.957031 361.199219 331.777344 363.753906 333.601562 C 372.523438 339.867188 381.574219 345.980469 390.867188 351.582031 C 383.484375 369.128906 372.382812 385.703125 354.707031 386.476562 Z M 364.59375 141.097656 C 344.324219 135.515625 323.035156 141.902344 307.230469 155.289062 C 281.183594 177.339844 271.1875 211.105469 268.644531 244.890625 C 268.457031 247.304688 268.316406 249.742188 268.210938 252.15625 C 267.667969 264.082031 267.964844 275.902344 268.753906 287.113281 C 271.832031 331.304688 280.375 386.613281 328.304688 403.792969 C 337.375 407.050781 346.859375 408.242188 356.089844 407.40625 C 369.671875 406.160156 382.675781 400.519531 393.003906 390.605469 C 401.199219 382.722656 407.339844 373.316406 412.207031 363.195312 C 414.53125 358.378906 416.570312 353.425781 418.390625 348.382812 C 420.648438 342.253906 422.585938 335.996094 424.410156 329.828125 C 439.144531 281.984375 434.347656 224.917969 410.089844 180.679688 C 400.199219 162.65625 384.851562 146.664062 364.59375 141.097656 Z M 620.917969 349.078125 C 592.226562 336.648438 581.953125 294.367188 578.015625 266.675781 C 586.574219 273.542969 595.292969 280.210938 604.082031 286.785156 C 605.339844 287.726562 606.617188 288.675781 607.875 289.617188 C 609.210938 290.597656 610.453125 292.6875 612.34375 291.648438 C 614.324219 290.578125 615.476562 288.269531 616.808594 286.554688 C 618.472656 284.417969 620.007812 282.191406 621.480469 279.914062 C 622.867188 277.796875 624.191406 275.625 625.527344 273.507812 C 627.101562 271 629.464844 265.378906 631.875 262.5625 C 632.039062 262.890625 632.28125 263.257812 632.582031 263.703125 C 632.910156 265.289062 633.207031 266.882812 633.4375 268.476562 C 634.484375 275.277344 634.839844 282.050781 634.574219 288.796875 C 634.367188 294 633.789062 299.183594 632.878906 304.3125 C 632.527344 306.242188 633.257812 308.183594 634.839844 309.320312 C 638.492188 311.953125 642.15625 314.578125 645.828125 317.152344 C 649.855469 319.988281 653.902344 322.789062 657.960938 325.558594 C 659.730469 326.75 661.5 327.976562 663.265625 329.222656 C 653.25 345.136719 638.878906 356.871094 620.917969 349.078125 Z M 682.660156 160.855469 C 674.398438 145.269531 661.867188 130.730469 644.726562 124.949219 C 624.140625 118 601.230469 124.792969 585.527344 139.257812 C 568.808594 154.636719 560.636719 176.371094 555.648438 198.015625 C 553.035156 209.332031 551.441406 220.738281 550.796875 232.207031 C 550.601562 235.902344 550.5 239.601562 550.5 243.316406 C 550.480469 250.652344 550.886719 258.023438 551.652344 265.378906 C 555.589844 302.707031 570.433594 355.542969 610.226562 369.574219 C 640.828125 380.359375 665.453125 364.773438 682.117188 341.492188 C 685.582031 336.660156 688.699219 331.5 691.46875 326.15625 C 697.417969 314.648438 701.691406 302.371094 704.070312 291.003906 C 704.125 290.792969 704.15625 290.566406 704.207031 290.359375 C 711.984375 247.863281 702.824219 198.933594 682.660156 160.855469 "/>
</g>
</svg>
