<?xml version="1.0" encoding="UTF-8"?>
<svg xmlns="http://www.w3.org/2000/svg" xmlns:xlink="http://www.w3.org/1999/xlink" width="810pt" height="809.999993pt" viewBox="0 0 810 809.999993" version="1.2">
<g id="surface1">
<path style=" stroke:none;fill-rule:nonzero;fill:rgb(62.748718%,87.838745%,96.469116%);fill-opacity:1;" d="M 691.023438 643.617188 C 682.160156 650.429688 674.023438 657.800781 665.53125 664.765625 C 661.828125 641.972656 652.1875 620.429688 637.933594 601.828125 C 628.273438 589.21875 617.738281 577.519531 604.613281 568.433594 C 598.269531 564.050781 591.546875 560.335938 584.542969 557.109375 C 584.378906 557.03125 584.214844 556.964844 584.050781 556.886719 C 600.203125 542.089844 614.097656 525.082031 623.945312 505.570312 C 641.523438 470.734375 644.460938 427.054688 624.898438 393.292969 C 617.796875 381.03125 608.414062 370.117188 604.753906 356.175781 C 597.359375 327.988281 599.320312 299.402344 588.671875 271.753906 C 582.429688 255.507812 573.699219 240.367188 563.050781 226.519531 C 537.667969 193.460938 501.429688 167.773438 462.125 152.242188 C 440.859375 143.832031 418.699219 138.410156 396.882812 136.386719 C 373.835938 134.246094 351.394531 137.890625 329.703125 145.179688 C 330.59375 139.074219 332.359375 133 335.714844 127.832031 C 344.035156 115.039062 359.976562 110.109375 373.078125 102.289062 C 391.652344 91.191406 406.042969 71.675781 406.96875 50.085938 C 407.890625 28.480469 392.867188 6.128906 371.570312 2.390625 C 358.167969 0.0234375 344.453125 4.820312 332.703125 11.683594 C 303.953125 28.511719 283.675781 57.957031 274.679688 90.027344 C 267.175781 116.804688 267.113281 145.222656 272.265625 172.632812 C 256.898438 181.894531 242.035156 192.152344 227.757812 202.449219 C 220.753906 207.503906 211.839844 213.0625 204.515625 217.578125 C 196.359375 203.664062 193.003906 186.96875 196.539062 171.207031 C 200.882812 151.886719 213.816406 135.574219 219.863281 116.703125 C 225.195312 100.058594 224.726562 81.152344 216.347656 65.796875 C 207.964844 50.460938 191.09375 39.464844 173.605469 40.234375 C 147.933594 41.375 129.460938 65.265625 118.761719 88.617188 C 112.484375 102.289062 107.527344 116.691406 105.710938 131.621094 C 102.199219 160.710938 110.914062 190.253906 124.953125 215.988281 C 135.972656 236.152344 150.136719 254.363281 164.890625 272.015625 C 164.933594 272.078125 165.003906 272.148438 165.046875 272.210938 C 147.839844 298.949219 133.554688 327.582031 122.519531 357.402344 C 115.601562 376.097656 109.960938 395.242188 105.648438 414.691406 C 100.234375 439.050781 96.929688 464.371094 101.316406 488.925781 C 111.953125 548.28125 165.339844 591.253906 221.160156 614.160156 C 246.585938 624.578125 273.222656 631.808594 300.355469 635.933594 C 309.054688 657.699219 315.550781 680.414062 315.652344 704.023438 C 315.773438 732.546875 306.96875 760.265625 290.921875 783.792969 C 287.5 788.816406 288.265625 794.113281 291.15625 799.035156 C 297.589844 810.019531 312.183594 807.101562 322.910156 806.414062 C 333.5625 805.722656 344.03125 805.648438 354.242188 802.238281 C 361.027344 799.972656 367.804688 793.40625 367.707031 785.785156 C 367.613281 777.929688 360.800781 773.886719 353.898438 772.609375 C 347.917969 771.507812 341.371094 771.515625 334.722656 772.070312 C 352.773438 729.542969 353.285156 677.617188 328.429688 639.0625 C 402.871094 644.46875 479.125 627 542.6875 587.769531 C 544.910156 586.402344 547.113281 584.996094 549.304688 583.566406 C 552.789062 585.230469 556.710938 586.363281 560.296875 587.761719 C 566.328125 590.117188 572.027344 593.242188 577.492188 596.695312 C 588.171875 603.453125 598.667969 611.152344 606.691406 620.972656 C 623.101562 641.046875 633.585938 666.5 635.105469 692.472656 C 635.769531 703.804688 650.089844 708.042969 658.898438 702.039062 C 677.5 689.359375 698.652344 673.429688 708.628906 652.601562 C 713.695312 642.035156 697.429688 638.695312 691.023438 643.617188 "/>
<path style=" stroke:none;fill-rule:nonzero;fill:rgb(36.859131%,79.60968%,96.078491%);fill-opacity:1;" d="M 462.125 152.242188 C 501.429688 167.773438 537.667969 193.460938 563.050781 226.519531 C 516.933594 278.285156 458.511719 319.117188 393.742188 343.996094 C 307.820312 377.003906 211.289062 381.664062 122.519531 357.402344 C 133.554688 327.582031 147.839844 298.949219 165.046875 272.210938 C 165.003906 272.148438 164.933594 272.078125 164.890625 272.015625 C 225.960938 282.636719 290.316406 274.246094 346.449219 247.863281 C 392.214844 226.339844 432.25 192.992188 462.125 152.242188 "/>
<path style=" stroke:none;fill-rule:nonzero;fill:rgb(62.748718%,87.838745%,96.469116%);fill-opacity:1;" d="M 691.023438 643.617188 C 682.160156 650.429688 674.023438 657.800781 665.53125 664.765625 C 661.828125 641.972656 652.1875 620.429688 637.933594 601.828125 C 628.273438 589.21875 617.738281 577.519531 604.613281 568.433594 C 598.269531 564.050781 591.546875 560.335938 584.542969 557.109375 C 584.378906 557.03125 584.214844 556.964844 584.050781 556.886719 C 600.203125 542.089844 614.097656 525.082031 623.945312 505.570312 C 641.523438 470.734375 644.460938 427.054688 624.898438 393.292969 C 617.796875 381.03125 608.414062 370.117188 604.753906 356.175781 C 597.359375 327.988281 599.320312 299.402344 588.671875 271.753906 C 582.429688 255.507812 573.699219 240.367188 563.050781 226.519531 C 516.933594 278.285156 458.511719 319.117188 393.742188 343.996094 C 307.820312 377.003906 211.289062 381.664062 122.519531 357.402344 C 115.601562 376.097656 109.960938 395.242188 105.648438 414.691406 C 100.234375 439.050781 96.929688 464.371094 101.316406 488.925781 C 111.953125 548.28125 165.339844 591.253906 221.160156 614.160156 C 246.585938 624.578125 273.222656 631.808594 300.355469 635.933594 C 309.054688 657.699219 315.550781 680.414062 315.652344 704.023438 C 315.773438 732.546875 306.96875 760.265625 290.921875 783.792969 C 287.5 788.816406 288.265625 794.113281 291.15625 799.035156 C 297.589844 810.019531 312.183594 807.101562 322.910156 806.414062 C 333.5625 805.722656 344.03125 805.648438 354.242188 802.238281 C 361.027344 799.972656 367.804688 793.40625 367.707031 785.785156 C 367.613281 777.929688 360.800781 773.886719 353.898438 772.609375 C 347.917969 771.507812 341.371094 771.515625 334.722656 772.070312 C 352.773438 729.542969 353.285156 677.617188 328.429688 639.0625 C 402.871094 644.46875 479.125 627 542.6875 587.769531 C 544.910156 586.402344 547.113281 584.996094 549.304688 583.566406 C 552.789062 585.230469 556.710938 586.363281 560.296875 587.761719 C 566.328125 590.117188 572.027344 593.242188 577.492188 596.695312 C 588.171875 603.453125 598.667969 611.152344 606.691406 620.972656 C 623.101562 641.046875 633.585938 666.5 635.105469 692.472656 C 635.769531 703.804688 650.089844 708.042969 658.898438 702.039062 C 677.5 689.359375 698.652344 673.429688 708.628906 652.601562 C 713.695312 642.035156 697.429688 638.695312 691.023438 643.617188 Z M 124.953125 215.988281 C 110.914062 190.253906 102.199219 160.710938 105.710938 131.621094 C 107.527344 116.691406 112.484375 102.289062 118.761719 88.617188 C 129.460938 65.265625 147.933594 41.375 173.605469 40.234375 C 191.09375 39.464844 207.964844 50.460938 216.347656 65.796875 C 224.726562 81.152344 225.195312 100.058594 219.863281 116.703125 C 213.816406 135.574219 200.882812 151.886719 196.539062 171.207031 C 193.003906 186.96875 196.359375 203.664062 204.515625 217.578125 C 211.839844 213.0625 220.753906 207.503906 227.757812 202.449219 C 242.035156 192.152344 256.898438 181.894531 272.265625 172.632812 C 267.113281 145.222656 267.175781 116.804688 274.679688 90.027344 C 283.675781 57.957031 303.953125 28.511719 332.703125 11.683594 C 344.453125 4.820312 358.167969 0.0234375 371.570312 2.390625 C 392.867188 6.128906 407.890625 28.480469 406.96875 50.085938 C 406.042969 71.675781 391.652344 91.191406 373.078125 102.289062 C 359.976562 110.109375 344.035156 115.039062 335.714844 127.832031 C 332.359375 133 330.59375 139.074219 329.703125 145.179688 C 351.394531 137.890625 373.835938 134.246094 396.882812 136.386719 C 418.699219 138.410156 440.859375 143.832031 462.125 152.242188 C 432.25 192.992188 392.214844 226.339844 346.449219 247.863281 C 290.316406 274.246094 225.960938 282.636719 164.890625 272.015625 C 150.136719 254.363281 135.972656 236.152344 124.953125 215.988281 "/>
<path style=" stroke:none;fill-rule:nonzero;fill:rgb(100%,100%,100%);fill-opacity:1;" d="M 303.953125 541.628906 C 311.621094 546.890625 319.488281 552.945312 327.726562 558.210938 C 303.953125 562.921875 278.050781 560.773438 255.519531 555.976562 C 223.058594 549.0625 186.511719 525.753906 190.136719 487.804688 C 190.96875 479.125 194.324219 471.660156 199.375 465.222656 C 200.609375 465.128906 201.273438 465.066406 202.488281 464.964844 C 209.066406 470.589844 215.765625 476.050781 222.523438 481.441406 C 229.214844 486.765625 235.957031 492.019531 242.769531 497.179688 C 243.527344 497.761719 244.289062 498.351562 245.066406 498.933594 C 247.257812 500.585938 250.269531 500.628906 252.523438 499.058594 C 255.878906 496.699219 259.25 494.347656 262.65625 492.050781 C 264.679688 490.671875 266.738281 489.308594 268.796875 487.980469 C 273.335938 485.050781 281.371094 477.648438 284.597656 484.417969 C 286.789062 489.019531 284.359375 499.089844 283.414062 504 C 283.269531 504.761719 283.09375 505.527344 282.894531 506.285156 C 281.875 510.15625 280.253906 513.992188 279.136719 517.882812 C 278.242188 520.957031 279.332031 524.246094 281.941406 526.125 C 282.667969 526.664062 283.394531 527.175781 284.144531 527.714844 C 284.144531 527.714844 284.144531 527.714844 284.160156 527.714844 C 290.707031 532.429688 297.285156 537.070312 303.953125 541.628906 "/>
<path style=" stroke:none;fill-rule:nonzero;fill:rgb(20.388794%,20.388794%,20.388794%);fill-opacity:1;" d="M 395.019531 325.363281 C 385.402344 321.054688 374.273438 321.730469 365.734375 321.625 C 346.6875 321.390625 326.757812 331.175781 321.179688 350.136719 C 318.1875 360.324219 334.242188 363.714844 340.648438 360.433594 C 346.402344 357.472656 352.019531 354.3125 357.9375 353.984375 C 363.878906 359.6875 367.890625 367.714844 375.152344 371.664062 C 383.699219 376.3125 392.621094 376.75 401.597656 372.515625 C 408.9375 369.054688 416.984375 361.3125 416.421875 352.359375 C 415.597656 339.324219 406.460938 330.488281 395.019531 325.363281 Z M 327.726562 558.210938 C 319.488281 552.945312 311.621094 546.890625 303.953125 541.628906 C 297.285156 537.070312 290.707031 532.429688 284.160156 527.714844 C 284.144531 527.714844 284.144531 527.714844 284.144531 527.714844 C 283.394531 527.175781 282.667969 526.664062 281.941406 526.125 C 279.332031 524.246094 278.242188 520.957031 279.136719 517.882812 C 280.253906 513.992188 281.875 510.15625 282.894531 506.285156 C 283.09375 505.527344 283.269531 504.761719 283.414062 504 C 284.351562 499.089844 286.78125 489.019531 284.597656 484.417969 C 281.371094 477.648438 273.335938 485.050781 268.796875 487.980469 C 266.738281 489.308594 264.679688 490.671875 262.65625 492.050781 C 259.25 494.347656 255.878906 496.699219 252.523438 499.058594 C 250.269531 500.628906 247.257812 500.585938 245.066406 498.933594 C 244.289062 498.351562 243.527344 497.761719 242.769531 497.179688 C 235.957031 492.019531 229.214844 486.765625 222.523438 481.441406 C 215.765625 476.050781 209.066406 470.589844 202.488281 464.964844 C 201.273438 465.066406 200.609375 465.128906 199.375 465.222656 C 194.324219 471.660156 190.96875 479.125 190.136719 487.804688 C 186.511719 525.753906 223.058594 549.0625 255.519531 555.976562 C 278.050781 560.773438 303.953125 562.921875 327.726562 558.210938 Z M 400.859375 454.777344 C 424.484375 486.496094 406.871094 531.535156 377.988281 553.257812 C 377.761719 553.453125 377.515625 553.628906 377.273438 553.804688 C 376.933594 554.046875 376.578125 554.273438 376.234375 554.503906 C 370.582031 558.324219 364.683594 561.5625 358.585938 564.285156 C 355.148438 565.820312 351.664062 567.199219 348.121094 568.414062 C 334.5 573.097656 320.128906 575.496094 305.441406 576.097656 C 280.382812 577.113281 254.175781 574.363281 230.398438 566.195312 C 210.351562 559.3125 191.632812 546.839844 180.691406 528.316406 C 170.71875 511.402344 167.125 490.296875 175.308594 471.917969 C 178.613281 464.484375 183.351562 457.972656 188.984375 452.285156 C 191.050781 450.179688 193.253906 448.203125 195.539062 446.371094 C 203.167969 440.105469 211.859375 435.070312 220.703125 431.101562 C 242.472656 421.316406 266.105469 415.550781 289.929688 414.335938 C 328.246094 412.394531 376.578125 422.175781 400.859375 454.777344 Z M 545.835938 496.125 C 529.507812 497.972656 518.011719 486.90625 511.183594 473.265625 C 504.621094 460.164062 502.46875 442.675781 488.335938 435.058594 C 481.359375 431.292969 488.367188 424.796875 493.792969 425.25 C 506.140625 426.28125 514.015625 435.628906 519.695312 445.808594 C 525.296875 455.867188 528.476562 470.589844 538.964844 476.953125 C 553.167969 485.558594 559.523438 463.875 560.203125 453.894531 C 561.257812 438.324219 557.214844 422.335938 564.40625 407.761719 C 566.628906 403.273438 576.933594 402.039062 578.25 407.890625 C 584.9375 437.5625 587.160156 491.457031 545.835938 496.125 "/>
</g>
</svg>
