<?xml version="1.0" encoding="UTF-8"?>
<svg xmlns="http://www.w3.org/2000/svg" xmlns:xlink="http://www.w3.org/1999/xlink" width="810pt" height="809.999993pt" viewBox="0 0 810 809.999993" version="1.2">
<defs>
<clipPath id="clip1">
  <path d="M 166.417969 7.078125 L 636.476562 7.078125 L 636.476562 809.390625 L 166.417969 809.390625 Z M 166.417969 7.078125 "/>
</clipPath>
<clipPath id="clip2">
  <path d="M 166.417969 106 L 636.476562 106 L 636.476562 809.390625 L 166.417969 809.390625 Z M 166.417969 106 "/>
</clipPath>
</defs>
<g id="surface1">
<g clip-path="url(#clip1)" clip-rule="nonzero">
<path style=" stroke:none;fill-rule:nonzero;fill:rgb(97.24884%,79.998779%,2.749634%);fill-opacity:1;" d="M 482.816406 785.53125 C 483.683594 786.46875 482.886719 786.386719 482.816406 785.53125 Z M 632.414062 404.832031 C 631.558594 389.503906 629.132812 374.535156 626.988281 362.210938 C 623.421875 341.765625 618.175781 321.617188 611.371094 302.011719 C 593.683594 238.878906 568.554688 177.367188 542.328125 117.367188 C 538.058594 107.609375 533.757812 97.875 529.460938 88.179688 C 516.917969 59.933594 502.152344 29.949219 474.796875 15.558594 C 446.046875 0.417969 409.726562 6.964844 382 23.929688 C 360.214844 37.277344 342.640625 56.242188 326.5625 75.851562 C 318.574219 85.589844 310.871094 95.714844 303.445312 106.136719 C 268.019531 155.832031 239.070312 212.429688 216.09375 268.328125 C 215.136719 270.070312 214.195312 271.820312 213.292969 273.585938 C 196.996094 305.28125 185.941406 340.707031 181.160156 376.65625 C 176.777344 395.625 173.226562 414.792969 170.535156 434.089844 C 165.902344 467.390625 163.84375 501.664062 171.621094 534.371094 C 179.390625 567.09375 198.054688 598.371094 227.105469 615.289062 C 248.808594 627.945312 274.335938 631.722656 299.449219 634.085938 C 299.671875 643.355469 301.242188 652.773438 302.660156 661.53125 C 305.21875 677.304688 309.078125 692.925781 314.695312 707.902344 C 320.128906 722.363281 326.589844 736.429688 334.292969 749.832031 C 337.695312 755.738281 341.335938 761.507812 345.179688 767.140625 C 343.378906 765.9375 341.566406 764.738281 339.761719 763.527344 C 329.890625 756.867188 320.277344 748.816406 309.449219 743.824219 C 299.625 739.289062 288.019531 740.738281 280.402344 748.980469 C 273.257812 756.71875 273.691406 766.859375 282.003906 773.242188 C 293.328125 781.941406 307.6875 787.46875 320.453125 793.765625 C 333.277344 800.089844 350.398438 812.207031 365.542969 807.484375 C 378.28125 803.523438 384.363281 790.554688 380.453125 777.945312 C 377.160156 767.335938 367.628906 758.234375 361.707031 749 C 348.613281 728.566406 338.734375 706.503906 331.308594 683.421875 C 327.699219 672.199219 324.835938 660.734375 322.734375 649.132812 C 321.9375 644.734375 321.382812 640.289062 320.792969 635.859375 C 378.382812 640.152344 435.835938 640.289062 494.558594 637.347656 C 495.101562 659.308594 491.609375 680.5 483.5 701.355469 C 474.539062 724.40625 463.464844 746.601562 455.152344 769.90625 C 451.707031 779.578125 447.136719 791.5 453.375 801.101562 C 461.851562 814.152344 477.910156 809.179688 489.234375 803.84375 C 503.191406 797.277344 516.90625 790.207031 530.242188 782.457031 C 538.878906 777.4375 559.570312 763.785156 550.761719 751.496094 C 544.371094 742.582031 529.78125 746.578125 521.5625 749.875 C 514.085938 752.878906 507.046875 757.226562 500.167969 761.402344 C 496.304688 763.742188 492.5 766.195312 488.726562 768.679688 C 490.964844 762.757812 493.351562 756.886719 495.640625 750.980469 C 500.84375 737.566406 506.515625 724.132812 510.339844 710.246094 C 516.78125 686.835938 521.449219 659.898438 514.003906 636.28125 C 518.6875 635.992188 523.378906 635.691406 528.074219 635.367188 C 557.425781 633.339844 585.992188 625.84375 605.097656 601.8125 C 625.390625 576.269531 633.128906 539.988281 635.15625 508.09375 C 635.523438 502.210938 635.804688 496.328125 636.050781 490.496094 C 637.242188 461.609375 635.851562 433.0625 632.414062 404.832031 "/>
</g>
<g clip-path="url(#clip2)" clip-rule="nonzero">
<path style=" stroke:none;fill-rule:nonzero;fill:rgb(97.24884%,79.998779%,2.749634%);fill-opacity:1;" d="M 482.816406 785.53125 C 483.683594 786.46875 482.886719 786.386719 482.816406 785.53125 Z M 542.328125 117.367188 C 531.070312 137.957031 515.289062 156.074219 496.1875 169.722656 C 479.515625 181.636719 455.910156 189.910156 439.320312 177.882812 C 426.285156 168.40625 423.390625 150.625 417.597656 135.566406 C 411.800781 120.511719 396.835938 105.089844 381.835938 111.023438 C 365.226562 117.582031 364.996094 144.089844 348.800781 151.65625 C 334.367188 158.402344 318.078125 144.925781 311.648438 130.332031 C 308.226562 122.585938 306.132812 114.175781 303.445312 106.136719 C 265.09375 159.933594 234.320312 221.824219 210.515625 282.152344 C 191.269531 331 177.78125 382.085938 170.535156 434.089844 C 165.902344 467.390625 163.84375 501.664062 171.621094 534.371094 C 179.390625 567.09375 198.054688 598.371094 227.105469 615.289062 C 248.808594 627.945312 274.335938 631.722656 299.449219 634.085938 C 299.671875 643.355469 301.242188 652.773438 302.660156 661.53125 C 305.21875 677.304688 309.078125 692.925781 314.695312 707.902344 C 320.128906 722.363281 326.589844 736.429688 334.292969 749.832031 C 337.695312 755.738281 341.335938 761.507812 345.179688 767.140625 C 343.378906 765.9375 341.566406 764.738281 339.761719 763.527344 C 329.890625 756.867188 320.277344 748.816406 309.449219 743.824219 C 299.625 739.289062 288.019531 740.738281 280.402344 748.980469 C 273.257812 756.71875 273.691406 766.859375 282.003906 773.242188 C 293.328125 781.941406 307.6875 787.46875 320.453125 793.765625 C 333.277344 800.089844 350.398438 812.207031 365.542969 807.484375 C 378.28125 803.523438 384.363281 790.554688 380.453125 777.945312 C 377.160156 767.335938 367.628906 758.234375 361.707031 749 C 348.613281 728.566406 338.734375 706.503906 331.308594 683.421875 C 327.699219 672.199219 324.835938 660.734375 322.734375 649.132812 C 321.9375 644.734375 321.382812 640.289062 320.792969 635.859375 C 378.382812 640.152344 435.835938 640.289062 494.558594 637.347656 C 495.101562 659.308594 491.609375 680.5 483.5 701.355469 C 474.539062 724.40625 463.464844 746.601562 455.152344 769.90625 C 451.707031 779.578125 447.136719 791.5 453.375 801.101562 C 461.851562 814.152344 477.910156 809.179688 489.234375 803.84375 C 503.191406 797.277344 516.90625 790.207031 530.242188 782.457031 C 538.878906 777.4375 559.570312 763.785156 550.761719 751.496094 C 544.371094 742.582031 529.78125 746.578125 521.5625 749.875 C 514.085938 752.878906 507.046875 757.226562 500.167969 761.402344 C 496.304688 763.742188 492.5 766.195312 488.726562 768.679688 C 490.964844 762.757812 493.351562 756.886719 495.640625 750.980469 C 500.84375 737.566406 506.515625 724.132812 510.339844 710.246094 C 516.78125 686.835938 521.449219 659.898438 514.003906 636.28125 C 518.6875 635.992188 523.378906 635.691406 528.074219 635.367188 C 557.425781 633.339844 585.992188 625.84375 605.097656 601.8125 C 625.390625 576.269531 633.128906 539.988281 635.15625 508.09375 C 635.523438 502.210938 635.804688 496.328125 636.050781 490.496094 C 641.433594 359.597656 593.996094 235.566406 542.328125 117.367188 "/>
</g>
<path style=" stroke:none;fill-rule:nonzero;fill:rgb(96.078491%,46.269226%,8.239746%);fill-opacity:1;" d="M 529.460938 88.1875 C 533.757812 97.875 538.058594 107.609375 542.328125 117.367188 C 531.070312 137.957031 515.289062 156.074219 496.1875 169.722656 C 479.515625 181.636719 455.910156 189.910156 439.320312 177.882812 C 426.285156 168.40625 423.390625 150.625 417.597656 135.566406 C 411.800781 120.511719 396.835938 105.089844 381.835938 111.023438 C 365.226562 117.582031 364.996094 144.089844 348.800781 151.65625 C 334.367188 158.402344 318.078125 144.925781 311.648438 130.332031 C 308.226562 122.585938 306.132812 114.175781 303.445312 106.136719 C 310.871094 95.714844 318.574219 85.589844 326.5625 75.851562 C 342.640625 56.242188 360.214844 37.277344 382 23.929688 C 409.726562 6.964844 446.046875 0.417969 474.796875 15.558594 C 502.152344 29.949219 516.917969 59.933594 529.460938 88.1875 "/>
<path style=" stroke:none;fill-rule:nonzero;fill:rgb(96.078491%,46.269226%,8.239746%);fill-opacity:1;" d="M 484.226562 480.816406 C 479.34375 516.109375 453.898438 550.191406 418.828125 556.308594 C 408.429688 558.125 397.773438 557.480469 387.269531 556.484375 C 375.445312 555.347656 363.328125 553.660156 352.949219 547.878906 C 339.054688 540.175781 329.765625 525.820312 325.179688 510.601562 C 321.035156 496.875 320.492188 481.425781 327.117188 468.714844 C 333.742188 455.996094 348.746094 447.132812 362.640625 450.621094 C 375.96875 453.957031 388.117188 467.460938 400.890625 462.386719 C 411.03125 458.371094 414.15625 444.613281 423.917969 439.734375 C 431.179688 428.195312 466.992188 431.808594 476.011719 442.027344 C 485.042969 452.257812 486.101562 467.304688 484.226562 480.816406 "/>
<path style=" stroke:none;fill-rule:nonzero;fill:rgb(100%,100%,100%);fill-opacity:1;" d="M 622.71875 408.074219 C 619.675781 355.742188 605.742188 304.070312 582.089844 257.304688 C 572.574219 238.507812 560 219.230469 540.183594 212.128906 C 510.65625 201.5625 477.589844 224.128906 465.261719 252.984375 C 450.765625 286.929688 458.621094 338.414062 469.726562 372.640625 C 481.414062 408.660156 504.597656 441.089844 534.171875 463.917969 C 551.316406 477.144531 574.183594 487.683594 594.117188 479.226562 C 619.246094 468.550781 624.292969 435.351562 622.71875 408.074219 Z M 345.53125 271.816406 C 354.5625 299.246094 353.789062 328.980469 346.28125 356.757812 C 343.832031 365.824219 340.660156 374.6875 336.878906 383.191406 C 323.109375 414.160156 308 448.996094 281.683594 471.429688 C 258.648438 491.078125 219.152344 494.796875 200.398438 471.015625 C 190.421875 458.355469 188.472656 441.234375 188.140625 425.097656 C 187.09375 374.109375 198.578125 322.921875 221.277344 277.265625 C 234.019531 251.652344 254.148438 225.3125 282.628906 222.90625 C 311.183594 220.496094 336.5625 244.574219 345.53125 271.816406 "/>
<path style=" stroke:none;fill-rule:nonzero;fill:rgb(20.388794%,20.388794%,20.388794%);fill-opacity:1;" d="M 613.386719 422.5 C 612.730469 441.0625 608.613281 463.679688 590.203125 472.453125 C 569.308594 479.179688 548.574219 464.757812 533.289062 451.550781 C 516.898438 437.382812 503.199219 420.265625 492.644531 401.351562 C 472.863281 365.898438 463.023438 319.949219 467.921875 279.546875 C 470.28125 260.039062 478.003906 242.050781 493.453125 229.394531 C 508.257812 217.265625 528.148438 212.800781 544.796875 224.070312 C 562.527344 236.070312 572.453125 257.980469 580.910156 276.890625 C 590.804688 299.035156 598.515625 322.1875 604.023438 345.804688 C 609.820312 370.621094 614.296875 396.929688 613.386719 422.5 Z M 626.988281 362.210938 C 622.066406 334.003906 613.996094 306.347656 602.957031 279.925781 C 593.496094 257.253906 582.738281 232.128906 563.566406 215.863281 C 525.582031 183.640625 471.691406 212.042969 455.386719 253.433594 C 446.453125 276.097656 446.773438 301.644531 449.570312 325.449219 C 452.382812 349.40625 458.335938 373.351562 468.347656 395.332031 C 480.015625 420.96875 497.101562 443.953125 518.285156 462.523438 C 539.03125 480.710938 567.972656 497.488281 596.109375 486.667969 C 596.347656 486.574219 596.585938 486.476562 596.824219 486.375 C 597.410156 486.191406 597.980469 485.980469 598.507812 485.742188 C 643.222656 465.320312 633.707031 400.792969 626.988281 362.210938 Z M 337.242188 355.152344 C 331.441406 375.964844 322 395.914062 312.292969 415.167969 C 303.042969 433.53125 291.886719 451.824219 276.222656 465.429688 C 263.851562 476.175781 246.589844 481.929688 230.269531 478.917969 C 210.867188 475.34375 201.492188 458.9375 198.789062 440.566406 C 195.542969 418.511719 197.679688 394.816406 200.859375 372.875 C 204.203125 349.738281 210.222656 327.0625 218.667969 305.261719 C 230.144531 275.648438 254.375 220.871094 295.433594 231.902344 C 316.183594 237.484375 331.09375 257.304688 337.101562 277.058594 C 344.828125 302.457031 343.925781 329.632812 337.242188 355.152344 Z M 319.054688 223.8125 C 299.570312 212.253906 275.570312 212.167969 255.984375 223.664062 C 236.621094 235.039062 223.382812 253.960938 213.292969 273.585938 C 188.640625 321.53125 175.96875 378.015625 178.882812 431.933594 C 180.105469 454.660156 186.75 477.496094 208.160156 488.820312 C 225.953125 498.234375 248.050781 496.714844 266.296875 489.511719 C 290.582031 479.925781 307.816406 458.191406 320.671875 436.253906 C 334.8125 412.113281 347.792969 385.347656 355.320312 358.363281 C 367.316406 312.492188 364.574219 250.804688 319.054688 223.8125 "/>
<path style=" stroke:none;fill-rule:nonzero;fill:rgb(20.388794%,20.388794%,20.388794%);fill-opacity:1;" d="M 586.65625 357.585938 C 586.351562 354.804688 582.796875 352.703125 580.332031 352.398438 C 575.433594 351.777344 570.535156 351.164062 565.640625 350.535156 C 563.625 350.277344 554.046875 350.335938 552.800781 347.996094 C 550.65625 343.96875 569.972656 335.710938 572.9375 334.566406 C 576.753906 333.101562 581.886719 329.605469 580.246094 324.628906 C 573.09375 302.996094 564.054688 276.125 545.761719 261.21875 C 537.195312 254.238281 526.453125 250.199219 515.953125 255.585938 C 506.410156 260.484375 501.386719 270.234375 498.089844 279.988281 C 484.164062 321.164062 491.96875 369.136719 518.292969 403.75 C 525.46875 413.1875 534.335938 423.792969 546.050781 427.402344 C 559.40625 431.523438 570.839844 424.429688 578.269531 413.738281 C 578.523438 413.425781 578.753906 413.097656 578.960938 412.742188 C 579.316406 412.203125 579.59375 411.683594 579.820312 411.167969 C 588.875 394.527344 588.679688 376.089844 586.65625 357.585938 Z M 290.644531 264.308594 C 264.542969 249.753906 247.792969 285.191406 238.84375 303.234375 C 224.582031 331.984375 216 363.160156 216.125 395.417969 C 216.175781 409.347656 216.519531 425.304688 224.042969 437.53125 C 230.839844 448.578125 243.796875 454.683594 256.574219 451.726562 C 270.964844 448.382812 280.910156 435.367188 287.691406 423.109375 C 295.867188 408.332031 299.757812 391.988281 303.074219 375.558594 C 303.457031 373.675781 302.019531 371.167969 300.597656 370.078125 C 296.410156 366.851562 292.21875 363.625 288.027344 360.40625 C 285.542969 358.507812 280.371094 355.695312 279.597656 352.222656 C 282.472656 348.132812 292.976562 350.140625 296.882812 350.949219 C 302.402344 352.089844 308.445312 348.445312 309.355469 342.839844 C 311.753906 327.976562 312.855469 312.804688 309.925781 297.929688 C 307.546875 285.902344 302.019531 270.65625 290.644531 264.308594 Z M 461.527344 467.472656 C 459.535156 472.640625 455.972656 477.199219 453.214844 481.984375 C 450.421875 486.839844 447.890625 491.824219 445.183594 496.730469 C 438.59375 508.6875 429.292969 519.269531 415.894531 523.527344 C 384.699219 533.449219 360.882812 508.539062 347.027344 483.820312 C 343.679688 477.859375 353.914062 474.484375 357.738281 478.007812 C 366.539062 486.144531 375.269531 495.492188 386.078125 500.976562 C 393.996094 504.996094 405.835938 507.921875 413.300781 501.578125 C 427.925781 489.152344 428.234375 463.09375 450.078125 458.234375 C 455.703125 456.972656 464.359375 460.121094 461.527344 467.472656 "/>
</g>
</svg>
