<?xml version="1.0" encoding="UTF-8"?>
<svg xmlns="http://www.w3.org/2000/svg" xmlns:xlink="http://www.w3.org/1999/xlink" width="810pt" height="809.999993pt" viewBox="0 0 810 809.999993" version="1.2">
<defs>
<clipPath id="clip1">
  <path d="M 91.894531 0 L 717.839844 0 L 717.839844 810 L 91.894531 810 Z M 91.894531 0 "/>
</clipPath>
</defs>
<g id="surface1">
<g clip-path="url(#clip1)" clip-rule="nonzero">
<path style=" stroke:none;fill-rule:nonzero;fill:rgb(61.569214%,84.709167%,41.178894%);fill-opacity:1;" d="M 713.765625 317.742188 C 715.566406 307.410156 716.066406 297.03125 715.003906 287.042969 C 712.996094 268.25 708.339844 246.566406 698.410156 229.183594 C 696.097656 225.160156 693.515625 221.351562 690.621094 217.871094 C 687.425781 214.039062 683.84375 210.597656 679.839844 207.664062 C 666.660156 181.273438 649.21875 156.546875 627.933594 136.410156 C 635.566406 118.921875 648.0625 103.523438 664.019531 93 C 674.066406 86.355469 685.269531 81.605469 695.261719 74.902344 C 705.261719 68.191406 714.335938 58.921875 717.054688 47.1875 C 721.253906 29.007812 707.898438 9.90625 690.40625 3.332031 C 672.894531 -3.25 652.917969 0.601562 636.160156 8.886719 C 601.640625 25.964844 578.074219 62.625 575.40625 100.84375 C 572.441406 99.527344 569.441406 98.304688 566.394531 97.15625 C 566.273438 97.058594 566.152344 96.953125 566.027344 96.859375 C 564.964844 96.046875 563.644531 95.6875 562.324219 95.679688 C 561.746094 95.484375 561.175781 95.277344 560.601562 95.085938 C 503.621094 76.121094 432.367188 95.066406 402.820312 147.308594 C 399.421875 153.332031 396.660156 159.492188 394.449219 165.78125 C 393.957031 165.976562 393.554688 166.3125 393.449219 166.820312 C 393.175781 168.128906 392.96875 169.457031 392.804688 170.796875 C 391.320312 175.675781 390.148438 180.621094 389.257812 185.632812 C 372.902344 170.132812 351.179688 160.265625 328.671875 158.632812 C 300.289062 156.597656 271.230469 167.683594 251.445312 188.089844 C 241.351562 198.503906 233.480469 211.609375 231.832031 225.988281 C 230.179688 240.386719 235.609375 256.007812 247.488281 264.296875 C 260.046875 273.039062 276.996094 272.304688 291.71875 268.148438 C 306.4375 263.984375 320.242188 256.789062 335.183594 253.480469 C 354.070312 249.296875 374.296875 251.929688 391.738281 260.265625 C 392.105469 262.296875 392.523438 264.332031 392.921875 266.363281 C 390.75 269.535156 388.75 272.742188 386.945312 275.941406 C 368.824219 308.074219 363.144531 347.636719 373.347656 383.3125 C 377.507812 397.890625 384.957031 412.175781 397.722656 420.714844 C 398.945312 421.523438 400.199219 422.289062 401.53125 423.003906 C 403.214844 423.902344 404.945312 424.699219 406.699219 425.363281 C 408.375 426.015625 410.09375 426.554688 411.828125 427.007812 C 409.320312 434.144531 405.847656 440.917969 401.207031 447.164062 C 399.882812 448.933594 398.503906 450.628906 397.078125 452.242188 C 389.546875 460.699219 380.503906 466.992188 370.441406 471.71875 C 341.21875 485.433594 303.449219 485.90625 269.789062 487.640625 C 251.820312 488.558594 233.617188 490.511719 215.90625 494.179688 C 207.164062 495.996094 198.566406 498.234375 190.1875 500.96875 C 170.957031 507.25 152.859375 516.199219 137 528.8125 C 100.140625 558.132812 79.507812 611.765625 99.976562 654.160156 C 103.679688 661.820312 108.355469 668.628906 113.847656 674.675781 C 121.390625 683 130.433594 689.875 140.464844 695.550781 C 140.589844 696.382812 140.71875 697.214844 140.84375 698.035156 C 142.699219 710.136719 145.417969 722.105469 149.148438 733.761719 C 156.429688 756.515625 164.867188 780.976562 183.523438 796.839844 C 195.519531 807.039062 215.992188 793.550781 213.195312 779.136719 C 210.691406 766.277344 204.644531 755.832031 198.9375 744.230469 C 194.042969 734.289062 188.988281 724.4375 184.347656 714.367188 C 183.992188 713.601562 183.632812 712.84375 183.269531 712.078125 C 198.457031 715.929688 214.183594 718.296875 229.320312 719.699219 C 250.71875 721.6875 272.308594 722.625 293.878906 722.414062 C 295.390625 722.402344 296.914062 722.359375 298.433594 722.332031 C 294.136719 735.953125 291.054688 749.949219 287.140625 763.683594 C 283.386719 776.859375 270.65625 806.960938 293.652344 809.847656 C 317.332031 812.820312 323.460938 781.996094 326.925781 764.800781 C 329.800781 750.5 332.707031 735.546875 332.226562 720.847656 C 350.195312 719.550781 368.085938 717.457031 385.785156 714.457031 L 385.785156 714.4375 C 425.195312 707.765625 463.691406 696.75 500.105469 680.867188 C 498.035156 694.347656 495.128906 707.664062 490.480469 720.828125 C 486.886719 730.980469 482.246094 740.949219 477.121094 750.417969 C 470.605469 762.46875 461.703125 773.714844 457.621094 786.886719 C 452.355469 803.917969 475.382812 807.191406 485.964844 800.828125 C 512.328125 784.960938 526.679688 748.78125 533.449219 719.972656 C 537.738281 701.722656 539.789062 681.589844 537.371094 662.441406 C 541.167969 660.328125 544.949219 658.179688 548.6875 655.945312 C 548.820312 655.863281 548.960938 655.773438 549.09375 655.691406 C 572.652344 641.605469 594.804688 624.894531 614.945312 606.050781 C 621.664062 599.761719 628.035156 593.203125 634.121094 586.445312 C 633.363281 611.035156 631.726562 635.414062 626.820312 659.835938 C 620.21875 692.632812 608.460938 724.222656 592.417969 753.582031 C 586.65625 764.125 565.234375 794.214844 583.703125 801.851562 C 596.039062 806.949219 608.960938 795.195312 616.039062 786.335938 C 621.738281 779.199219 626.578125 771.449219 630.917969 763.4375 C 647.105469 733.503906 657.820312 700.707031 663.011719 667.097656 C 668.515625 631.472656 668.953125 592.472656 656.972656 558.019531 C 706.15625 489.011719 726.492188 402.65625 713.765625 317.742188 "/>
<path style=" stroke:none;fill-rule:nonzero;fill:rgb(61.569214%,84.709167%,41.178894%);fill-opacity:1;" d="M 99.976562 654.160156 C 103.679688 661.820312 108.355469 668.628906 113.847656 674.675781 C 139.292969 616.757812 164.738281 558.867188 190.1875 500.96875 C 170.957031 507.25 152.859375 516.199219 137 528.8125 C 100.140625 558.132812 79.507812 611.765625 99.976562 654.160156 Z M 269.789062 487.640625 C 251.820312 488.558594 233.617188 490.511719 215.90625 494.179688 C 253.101562 565.8125 279.464844 643.027344 293.878906 722.414062 C 295.390625 722.402344 296.914062 722.359375 298.433594 722.332031 C 294.136719 735.953125 291.054688 749.949219 287.140625 763.683594 C 283.386719 776.859375 270.65625 806.960938 293.652344 809.847656 C 317.332031 812.820312 323.460938 781.996094 326.925781 764.800781 C 329.800781 750.5 332.707031 735.546875 332.226562 720.847656 C 350.195312 719.550781 368.085938 717.457031 385.785156 714.457031 L 385.785156 714.4375 C 400.167969 633.855469 394.867188 549.832031 370.441406 471.71875 C 341.21875 485.433594 303.449219 485.90625 269.789062 487.640625 Z M 656.972656 558.019531 C 668.953125 592.472656 668.515625 631.472656 663.011719 667.097656 C 657.820312 700.707031 647.105469 733.503906 630.917969 763.4375 C 626.578125 771.449219 621.738281 779.199219 616.039062 786.335938 C 608.960938 795.195312 596.039062 806.949219 583.703125 801.851562 C 565.234375 794.214844 586.65625 764.125 592.417969 753.582031 C 608.460938 724.222656 620.21875 692.632812 626.820312 659.835938 C 631.726562 635.414062 633.363281 611.035156 634.121094 586.445312 C 628.035156 593.203125 621.664062 599.761719 614.945312 606.050781 C 594.804688 624.894531 572.652344 641.605469 549.09375 655.691406 C 517.496094 576.128906 464.578125 504.992188 397.078125 452.242188 C 398.503906 450.628906 399.882812 448.933594 401.207031 447.164062 C 422.554688 418.4375 419.125 378.605469 411.183594 343.714844 C 404.996094 316.550781 396.835938 288.265625 391.738281 260.265625 C 374.296875 251.929688 354.070312 249.296875 335.183594 253.480469 C 320.242188 256.789062 306.4375 263.984375 291.71875 268.148438 C 276.996094 272.304688 260.046875 273.039062 247.488281 264.296875 C 235.609375 256.007812 230.179688 240.386719 231.832031 225.988281 C 233.480469 211.609375 241.351562 198.503906 251.445312 188.089844 C 271.230469 167.683594 300.289062 156.597656 328.671875 158.632812 C 351.179688 160.265625 372.902344 170.132812 389.257812 185.632812 C 391.617188 172.386719 395.90625 159.550781 402.820312 147.308594 C 432.367188 95.066406 503.621094 76.121094 560.601562 95.085938 C 565.648438 96.769531 570.582031 98.703125 575.40625 100.84375 C 578.074219 62.625 601.640625 25.964844 636.160156 8.886719 C 652.917969 0.601562 672.894531 -3.25 690.40625 3.332031 C 707.898438 9.90625 721.253906 29.007812 717.054688 47.1875 C 714.335938 58.921875 705.261719 68.191406 695.261719 74.902344 C 685.269531 81.605469 674.066406 86.355469 664.019531 93 C 648.0625 103.523438 635.566406 118.921875 627.933594 136.410156 C 652.039062 159.214844 671.226562 187.90625 684.863281 218.234375 C 695.804688 242.574219 703.375 267.675781 709.1875 293.273438 C 730.15625 385.859375 710.886719 482.371094 656.972656 558.019531 "/>
</g>
<path style=" stroke:none;fill-rule:nonzero;fill:rgb(16.468811%,52.159119%,38.819885%);fill-opacity:1;" d="M 513.277344 179.058594 C 514.285156 176.707031 514.957031 174.265625 515.132812 171.757812 C 515.265625 169.878906 515.449219 165.308594 513.488281 164.160156 C 512.53125 163.605469 506.855469 166.230469 506.140625 167.835938 C 505.578125 169.097656 506.589844 171.59375 507.066406 172.714844 C 508.359375 175.71875 510.601562 177.75 513.277344 179.058594 Z M 457.558594 204.335938 C 460.332031 197.53125 460.085938 189.996094 453 186.066406 C 448.523438 183.585938 444.4375 187.109375 444.714844 191.914062 C 444.925781 195.542969 447.003906 198.226562 449.757812 200.421875 C 452.042969 202.234375 454.726562 203.476562 457.558594 204.335938 Z M 573.34375 158.457031 C 563.242188 176.351562 543.460938 189.242188 522.640625 189.203125 C 521.867188 189.203125 521.09375 189.171875 520.316406 189.121094 C 513.140625 199.054688 501.449219 206.371094 490.484375 209.941406 C 482.949219 212.386719 473.234375 213.980469 464.039062 213.199219 C 462.453125 215.753906 460.605469 218.011719 458.605469 219.757812 C 444.804688 231.800781 425.160156 230.515625 411.25 219.414062 C 396.214844 207.417969 389.578125 185.351562 393.449219 166.820312 C 393.789062 165.179688 397.078125 165.140625 397.152344 166.9375 C 397.753906 182.0625 398.507812 197.699219 409.820312 209.207031 C 419.492188 219.050781 435.179688 224.417969 447.710938 216.65625 C 449.808594 215.359375 451.871094 213.394531 453.671875 211.058594 C 449.003906 209.441406 444.8125 206.910156 441.601562 203.148438 C 431.738281 191.558594 441.511719 174.390625 456.667969 178.332031 C 470.035156 181.804688 471.449219 194.789062 467.503906 205.960938 C 467.578125 205.960938 467.660156 205.972656 467.738281 205.972656 C 479.015625 206.535156 490.125 202.898438 499.0625 196.054688 C 502.492188 193.429688 506.035156 190.109375 508.921875 186.332031 C 505.710938 184.800781 502.847656 182.601562 500.707031 179.578125 C 496.183594 173.195312 496.160156 164.902344 501.574219 159.070312 C 506.453125 153.8125 514.835938 152.011719 520.972656 156.230469 C 526.742188 160.1875 527.875 167.761719 526.789062 174.230469 C 526.382812 176.609375 525.683594 178.902344 524.785156 181.109375 C 524.84375 181.101562 524.898438 181.109375 524.957031 181.101562 C 536.730469 180.597656 548.472656 174.429688 556.21875 165.671875 C 572.886719 146.835938 565.730469 123.089844 556.507812 102.828125 C 553.976562 97.242188 561.917969 93.707031 566.027344 96.859375 C 584.648438 111.109375 583.929688 139.6875 573.34375 158.457031 Z M 190.1875 500.96875 C 164.738281 558.867188 139.292969 616.757812 113.847656 674.675781 C 121.390625 683 130.433594 689.875 140.464844 695.550781 C 140.589844 696.382812 140.71875 697.214844 140.84375 698.035156 C 142.699219 710.136719 145.417969 722.105469 149.148438 733.761719 C 156.429688 756.515625 164.867188 780.976562 183.523438 796.839844 C 195.519531 807.039062 215.992188 793.550781 213.195312 779.136719 C 210.691406 766.277344 204.644531 755.832031 198.9375 744.230469 C 194.042969 734.289062 188.988281 724.4375 184.347656 714.367188 C 183.992188 713.601562 183.632812 712.84375 183.269531 712.078125 C 198.457031 715.929688 214.183594 718.296875 229.320312 719.699219 C 250.71875 721.6875 272.308594 722.625 293.878906 722.414062 C 279.464844 643.027344 253.101562 565.8125 215.90625 494.179688 C 207.164062 495.996094 198.566406 498.234375 190.1875 500.96875 Z M 549.09375 655.691406 C 548.960938 655.773438 548.820312 655.863281 548.6875 655.945312 C 544.949219 658.179688 541.167969 660.328125 537.371094 662.441406 C 539.789062 681.589844 537.738281 701.722656 533.449219 719.972656 C 526.679688 748.78125 512.328125 784.960938 485.964844 800.828125 C 475.382812 807.191406 452.355469 803.917969 457.621094 786.886719 C 461.703125 773.714844 470.605469 762.46875 477.121094 750.417969 C 482.246094 740.949219 486.886719 730.980469 490.480469 720.828125 C 495.128906 707.664062 498.035156 694.347656 500.105469 680.867188 C 463.691406 696.75 425.195312 707.765625 385.785156 714.4375 C 400.167969 633.855469 394.867188 549.832031 370.441406 471.71875 C 380.503906 466.992188 389.546875 460.699219 397.078125 452.242188 C 464.578125 504.992188 517.496094 576.128906 549.09375 655.691406 "/>
<path style=" stroke:none;fill-rule:nonzero;fill:rgb(20.388794%,20.388794%,20.388794%);fill-opacity:1;" d="M 585.148438 432.324219 C 585.84375 432.324219 585.824219 431.4375 585.121094 431.4375 C 584.417969 431.4375 584.445312 432.324219 585.148438 432.324219 "/>
<path style=" stroke:none;fill-rule:nonzero;fill:rgb(16.468811%,52.159119%,38.819885%);fill-opacity:1;" d="M 593.132812 482.328125 C 586.4375 490.664062 576.738281 496.199219 566.566406 499.527344 C 541.277344 507.792969 511.988281 502.550781 491.164062 486.015625 C 472.621094 472.628906 470.097656 451.902344 473.105469 438.128906 C 476.121094 424.378906 486.488281 412.441406 499.714844 407.519531 C 521.625 399.355469 545.609375 410.222656 566.453125 420.835938 C 580.625 428.066406 596.199219 436.929688 600.359375 452.261719 C 603.183594 462.585938 599.832031 473.976562 593.132812 482.328125 "/>
<path style=" stroke:none;fill-rule:nonzero;fill:rgb(20.388794%,20.388794%,20.388794%);fill-opacity:1;" d="M 505 432.207031 C 504.570312 428.375 510.683594 428.179688 512.195312 430.84375 C 520.617188 445.65625 536.773438 457.503906 553.867188 450.40625 C 559.882812 447.910156 571.992188 453.546875 564.949219 460.625 C 554.886719 470.738281 539.1875 473.339844 526.179688 466.9375 C 512.917969 460.414062 506.570312 446.09375 505 432.207031 "/>
<path style=" stroke:none;fill-rule:nonzero;fill:rgb(100%,100%,100%);fill-opacity:1;" d="M 694.722656 287.980469 C 693.363281 277.332031 691.132812 264.136719 686.851562 251.847656 C 684.710938 255.667969 682.582031 259.417969 680.542969 263.15625 C 676.546875 270.488281 672.570312 277.839844 668.59375 285.175781 C 666.964844 288.179688 665.332031 291.1875 663.679688 294.171875 C 661.808594 297.621094 657.648438 299.082031 654.007812 297.636719 C 653.996094 297.621094 653.957031 297.621094 653.9375 297.601562 C 653.296875 297.347656 650.625 296.257812 647.277344 294.90625 C 643.246094 293.242188 638.25 291.207031 634.679688 289.707031 C 635.804688 292.085938 636.6875 294.804688 636.859375 295.210938 C 638.332031 298.6875 639.917969 302.136719 641.601562 305.53125 C 641.753906 305.875 641.925781 306.195312 642.09375 306.53125 C 642.910156 308.183594 643.761719 309.796875 644.609375 311.421875 C 647.546875 317.027344 647.464844 323.730469 644.40625 329.265625 C 643.691406 330.539062 642.996094 331.816406 642.277344 333.085938 C 631.074219 353.289062 619.789062 373.445312 608.382812 393.527344 C 625.417969 402.257812 647.175781 395.722656 662.628906 380.558594 C 682.347656 358.894531 696.027344 327.179688 695.402344 297.367188 C 695.351562 294.210938 695.109375 291.085938 694.722656 287.980469 Z M 490.617188 265.851562 C 499.066406 282.152344 498.625 301.289062 496.855469 319.082031 C 494.96875 335.210938 489.800781 349.933594 482.371094 364.308594 C 475.640625 377.296875 467.671875 391.542969 456.28125 401.066406 C 446.832031 408.980469 433.558594 414.09375 421.183594 411.472656 C 419.035156 411.019531 417.046875 410.355469 415.179688 409.476562 C 425.019531 390.574219 434.316406 371.355469 443.941406 352.34375 C 444.8125 350.640625 445.671875 348.945312 446.527344 347.25 C 448.75 342.902344 448.617188 337.722656 446.152344 333.511719 C 444.894531 331.371094 443.632812 329.234375 442.339844 327.097656 C 442.070312 326.632812 441.785156 326.160156 441.511719 325.703125 C 439.746094 322.761719 437.976562 319.859375 436.203125 316.925781 C 434.8125 314.597656 432.265625 311.746094 431.246094 309.132812 C 432.417969 309.285156 433.589844 309.503906 434.746094 309.757812 C 437.976562 310.441406 441.117188 311.371094 444.195312 312.527344 C 445.367188 312.972656 446.507812 313.445312 447.609375 313.988281 C 449.242188 314.734375 450.808594 315.546875 452.355469 316.429688 C 456.742188 318.878906 462.285156 317.335938 464.660156 312.914062 C 465.273438 311.800781 465.867188 310.675781 466.476562 309.554688 C 471.226562 300.792969 476 292.050781 480.878906 283.375 C 484.160156 277.554688 487.371094 271.695312 490.617188 265.851562 "/>
<path style=" stroke:none;fill-rule:nonzero;fill:rgb(20.388794%,20.388794%,20.388794%);fill-opacity:1;" d="M 662.628906 380.558594 C 647.175781 395.722656 625.417969 402.257812 608.382812 393.527344 C 619.789062 373.445312 631.074219 353.289062 642.277344 333.085938 C 642.996094 331.816406 643.691406 330.539062 644.40625 329.265625 C 647.464844 323.730469 647.546875 317.027344 644.609375 311.421875 C 643.761719 309.796875 642.910156 308.183594 642.09375 306.53125 C 641.925781 306.195312 641.753906 305.875 641.601562 305.53125 C 639.917969 302.136719 638.332031 298.6875 636.859375 295.210938 C 636.6875 294.804688 635.804688 292.085938 634.679688 289.707031 C 638.25 291.207031 643.246094 293.242188 647.277344 294.90625 C 650.625 296.257812 653.296875 297.347656 653.9375 297.601562 C 653.957031 297.621094 653.996094 297.621094 654.007812 297.636719 C 657.648438 299.082031 661.808594 297.621094 663.679688 294.171875 C 665.332031 291.1875 666.957031 288.179688 668.59375 285.175781 C 672.570312 277.839844 676.546875 270.488281 680.542969 263.15625 C 682.582031 259.417969 684.710938 255.667969 686.851562 251.847656 C 691.132812 264.136719 693.363281 277.332031 694.722656 287.980469 C 695.109375 291.085938 695.351562 294.210938 695.402344 297.367188 C 696.027344 327.179688 682.347656 358.894531 662.628906 380.558594 Z M 715.003906 287.042969 C 712.996094 268.25 708.339844 246.566406 698.410156 229.183594 C 696.097656 225.160156 693.515625 221.351562 690.621094 217.871094 C 681.765625 207.246094 669.984375 199.605469 654.332031 197.496094 C 612.855469 191.929688 582.683594 231.878906 571.921875 267.042969 C 566.089844 286.09375 563.714844 306.027344 563.050781 325.871094 C 562.367188 346.078125 563.476562 366.789062 573.246094 384.9375 C 577.71875 393.242188 583.460938 399.625 590.023438 404.261719 C 592.980469 406.367188 596.097656 408.097656 599.328125 409.488281 C 624.179688 420.285156 656.300781 411.53125 676.808594 390.933594 C 677.144531 390.59375 677.433594 390.25 677.707031 389.933594 C 677.960938 389.695312 678.230469 389.421875 678.472656 389.167969 C 702.761719 363.210938 718.789062 322.664062 715.003906 287.042969 Z M 496.855469 319.082031 C 494.96875 335.210938 489.800781 349.933594 482.371094 364.308594 C 475.640625 377.296875 467.671875 391.542969 456.28125 401.066406 C 446.832031 408.980469 433.558594 414.09375 421.183594 411.472656 C 419.035156 411.019531 417.046875 410.355469 415.179688 409.476562 C 425.019531 390.574219 434.316406 371.355469 443.941406 352.34375 C 444.804688 350.640625 445.671875 348.945312 446.527344 347.25 C 448.75 342.902344 448.617188 337.722656 446.152344 333.511719 C 444.894531 331.371094 443.632812 329.234375 442.339844 327.097656 C 442.070312 326.632812 441.785156 326.160156 441.511719 325.703125 C 439.746094 322.761719 437.976562 319.859375 436.203125 316.925781 C 434.8125 314.597656 432.265625 311.746094 431.246094 309.132812 C 432.417969 309.285156 433.589844 309.503906 434.746094 309.757812 C 437.976562 310.441406 441.117188 311.371094 444.195312 312.527344 C 445.367188 312.972656 446.507812 313.445312 447.609375 313.988281 C 449.242188 314.734375 450.808594 315.546875 452.355469 316.429688 C 456.742188 318.878906 462.285156 317.335938 464.660156 312.914062 C 465.273438 311.800781 465.867188 310.675781 466.476562 309.554688 C 471.226562 300.792969 476 292.050781 480.878906 283.375 C 484.160156 277.554688 487.371094 271.695312 490.617188 265.851562 C 499.066406 282.152344 498.625 301.289062 496.855469 319.082031 Z M 501.71875 245.800781 C 499.148438 242.460938 496.210938 239.386719 492.878906 236.664062 C 487.527344 232.308594 481.152344 228.859375 473.589844 226.632812 C 436.785156 215.855469 403.621094 246.34375 386.945312 275.941406 C 368.824219 308.074219 363.144531 347.636719 373.347656 383.3125 C 377.507812 397.890625 384.957031 412.175781 397.722656 420.714844 C 398.945312 421.523438 400.199219 422.289062 401.53125 423.003906 C 403.214844 423.902344 404.945312 424.699219 406.699219 425.363281 C 420.859375 430.828125 437.019531 429.085938 450.929688 423.410156 C 469.933594 415.65625 482.835938 399.988281 493.132812 382.800781 C 505.222656 362.628906 514.230469 341.675781 516.984375 318.175781 C 517.003906 317.960938 517.035156 317.761719 517.035156 317.550781 C 519.328125 293.515625 516.4375 265.003906 501.71875 245.800781 "/>
</g>
</svg>
