<?xml version="1.0" encoding="UTF-8"?>
<svg xmlns="http://www.w3.org/2000/svg" xmlns:xlink="http://www.w3.org/1999/xlink" width="810pt" height="809.999993pt" viewBox="0 0 810 809.999993" version="1.2">
<defs>
<clipPath id="clip1">
  <path d="M 69.902344 0 L 739.417969 0 L 739.417969 810 L 69.902344 810 Z M 69.902344 0 "/>
</clipPath>
</defs>
<g id="surface1">
<g clip-path="url(#clip1)" clip-rule="nonzero">
<path style=" stroke:none;fill-rule:nonzero;fill:rgb(95.689392%,45.878601%,14.898682%);fill-opacity:1;" d="M 253.988281 765.652344 C 253.894531 765.703125 253.792969 765.761719 253.683594 765.820312 C 253.722656 765.703125 253.761719 765.585938 253.792969 765.464844 C 256.761719 763.214844 256.824219 763.277344 253.988281 765.652344 Z M 612.777344 53.972656 C 546.761719 7.804688 462.066406 -3.441406 381.632812 0.832031 C 303.738281 4.96875 222.933594 24.242188 164.988281 76.496094 C 133.492188 104.914062 110.34375 141.78125 94.554688 181.144531 C 52.960938 284.804688 64.058594 409.179688 127.359375 501.167969 C 137.246094 515.539062 148.417969 529.019531 160.628906 541.476562 C 183.277344 564.597656 208.894531 583.609375 236.542969 598.429688 C 234.085938 608.851562 233.4375 619.945312 233.019531 630.316406 C 232.378906 646.351562 233.207031 662.382812 234.878906 678.328125 C 236.523438 693.941406 239.246094 709.367188 242.476562 724.726562 C 245.3125 738.195312 250.949219 752.835938 251.550781 766.84375 C 250.996094 766.972656 250.300781 767.128906 249.714844 767.210938 C 247.097656 767.613281 244.480469 768.035156 241.847656 768.382812 C 228.503906 770.183594 213.6875 769.652344 202.53125 778.191406 C 193.621094 785.015625 188.886719 797.363281 199.773438 805.113281 C 212.71875 814.324219 232.1875 808.375 246.609375 805.859375 C 256.902344 804.0625 267.796875 801.382812 276.257812 794.917969 C 282.957031 789.804688 289.417969 782.273438 289.359375 773.410156 C 289.335938 769 288.460938 764.089844 287.101562 759.902344 C 283.5625 749.027344 280.019531 738.214844 276.984375 727.140625 C 270.796875 704.527344 265.402344 681.554688 262.054688 658.328125 C 260.402344 646.839844 259.375 635.289062 259.21875 623.675781 C 259.15625 619.019531 259.363281 614.320312 259.589844 609.605469 C 304.066406 629 352.851562 638.203125 402.605469 636.675781 C 439.515625 635.550781 478.734375 631.78125 516.808594 623.289062 C 517.390625 658.921875 506.949219 695.433594 497.667969 728.730469 C 494.464844 740.203125 491.257812 751.683594 488.394531 763.257812 C 486.820312 769.65625 484.90625 776.445312 487.539062 782.886719 C 490.300781 789.632812 497.160156 792.6875 503.402344 795.296875 C 525.132812 804.390625 555.46875 804.246094 575.007812 789.824219 C 580.546875 785.746094 585.699219 779.445312 583.179688 772.066406 C 580.804688 765.117188 572.609375 762.238281 565.859375 763.019531 C 557.410156 764 549.613281 765.609375 541.109375 765.210938 C 538.257812 765.078125 535.570312 764.734375 532.800781 764.089844 C 531.652344 763.828125 530.515625 763.507812 529.386719 763.15625 C 531.945312 749.992188 535.804688 736.941406 538.730469 723.953125 C 542.574219 706.921875 545.945312 689.796875 548.105469 672.46875 C 550.085938 656.527344 549.933594 641.203125 547.738281 625.292969 C 547.28125 621.996094 546.679688 618.828125 545.996094 615.71875 C 584.609375 604.238281 621.03125 587.113281 651.378906 561.953125 C 714.316406 509.761719 738.300781 422.949219 739.371094 341.148438 C 740.785156 232.238281 701.980469 116.363281 612.777344 53.972656 "/>
<path style=" stroke:none;fill-rule:nonzero;fill:rgb(95.689392%,45.878601%,14.898682%);fill-opacity:1;" d="M 253.988281 765.652344 C 253.894531 765.703125 253.792969 765.761719 253.683594 765.820312 C 253.722656 765.703125 253.761719 765.585938 253.792969 765.464844 C 256.761719 763.214844 256.824219 763.277344 253.988281 765.652344 Z M 612.777344 53.972656 C 546.761719 7.804688 462.066406 -3.441406 381.632812 0.832031 C 303.738281 4.96875 222.933594 24.242188 164.988281 76.496094 C 133.492188 104.914062 110.34375 141.78125 94.554688 181.144531 C 52.960938 284.804688 64.058594 409.179688 127.359375 501.167969 C 137.246094 515.539062 148.417969 529.019531 160.628906 541.476562 C 183.277344 564.597656 208.894531 583.609375 236.542969 598.429688 C 234.085938 608.851562 233.4375 619.945312 233.019531 630.316406 C 232.378906 646.351562 233.207031 662.382812 234.878906 678.328125 C 236.523438 693.941406 239.246094 709.367188 242.476562 724.726562 C 245.3125 738.195312 250.949219 752.835938 251.550781 766.84375 C 250.996094 766.972656 250.300781 767.128906 249.714844 767.210938 C 247.097656 767.613281 244.480469 768.035156 241.847656 768.382812 C 228.503906 770.183594 213.6875 769.652344 202.53125 778.191406 C 193.621094 785.015625 188.886719 797.363281 199.773438 805.113281 C 212.71875 814.324219 232.1875 808.375 246.609375 805.859375 C 256.902344 804.0625 267.796875 801.382812 276.257812 794.917969 C 282.957031 789.804688 289.417969 782.273438 289.359375 773.410156 C 289.335938 769 288.460938 764.089844 287.101562 759.902344 C 283.5625 749.027344 280.019531 738.214844 276.984375 727.140625 C 270.796875 704.527344 265.402344 681.554688 262.054688 658.328125 C 260.402344 646.839844 259.375 635.289062 259.21875 623.675781 C 259.15625 619.019531 259.363281 614.320312 259.589844 609.605469 C 304.066406 629 352.851562 638.203125 402.605469 636.675781 C 439.515625 635.550781 478.734375 631.78125 516.808594 623.289062 C 517.390625 658.921875 506.949219 695.433594 497.667969 728.730469 C 494.464844 740.203125 491.257812 751.683594 488.394531 763.257812 C 486.820312 769.65625 484.90625 776.445312 487.539062 782.886719 C 490.300781 789.632812 497.160156 792.6875 503.402344 795.296875 C 525.132812 804.390625 555.46875 804.246094 575.007812 789.824219 C 580.546875 785.746094 585.699219 779.445312 583.179688 772.066406 C 580.804688 765.117188 572.609375 762.238281 565.859375 763.019531 C 557.410156 764 549.613281 765.609375 541.109375 765.210938 C 538.257812 765.078125 535.570312 764.734375 532.800781 764.089844 C 531.652344 763.828125 530.515625 763.507812 529.386719 763.15625 C 531.945312 749.992188 535.804688 736.941406 538.730469 723.953125 C 542.574219 706.921875 545.945312 689.796875 548.105469 672.46875 C 550.085938 656.527344 549.933594 641.203125 547.738281 625.292969 C 547.28125 621.996094 546.679688 618.828125 545.996094 615.71875 C 584.609375 604.238281 621.03125 587.113281 651.378906 561.953125 C 714.316406 509.761719 738.300781 422.949219 739.371094 341.148438 C 740.785156 232.238281 701.980469 116.363281 612.777344 53.972656 "/>
</g>
<path style=" stroke:none;fill-rule:nonzero;fill:rgb(93.728638%,81.959534%,3.529358%);fill-opacity:1;" d="M 622.773438 431.824219 C 596.648438 478.371094 552.148438 513.128906 502.605469 532.898438 C 453.054688 552.664062 398.667969 558.246094 345.414062 555.148438 C 320.601562 553.703125 295.527344 550.335938 272.617188 540.652344 C 249.703125 530.992188 229.714844 515.292969 212.617188 497.242188 C 145.492188 426.433594 124.332031 315.273438 161.570312 225.070312 C 198.816406 134.855469 292.792969 70.921875 390.304688 70.359375 C 448.382812 70.027344 505.601562 92.425781 549.933594 129.589844 C 596.074219 168.269531 629.953125 228.617188 640.945312 287.742188 C 649.785156 335.234375 646.835938 388.976562 622.773438 431.824219 "/>
<path style=" stroke:none;fill-rule:nonzero;fill:rgb(95.689392%,45.878601%,14.898682%);fill-opacity:1;" d="M 433.082031 372.128906 C 427.785156 384.207031 413.65625 389.445312 400.738281 392.03125 C 382.386719 395.710938 363.464844 396.558594 344.835938 394.570312 C 333.347656 393.328125 320.226562 389.667969 315.738281 379.003906 C 313.679688 374.101562 313.882812 368.585938 314.195312 363.296875 C 316.878906 316.089844 324.453125 266.894531 352.453125 228.785156 C 358.09375 221.109375 367.785156 213.28125 376.125 217.890625 C 378.828125 219.394531 380.753906 221.960938 382.539062 224.492188 C 407.484375 259.929688 425.886719 303.042969 433.324219 345.855469 C 434.734375 353.972656 436.535156 364.273438 433.082031 372.128906 "/>
<path style=" stroke:none;fill-rule:nonzero;fill:rgb(95.689392%,45.878601%,14.898682%);fill-opacity:1;" d="M 231.789062 178.507812 C 218.984375 185.199219 210.34375 202.515625 223.746094 213.671875 C 231.746094 220.332031 241.671875 220.433594 251.386719 222.332031 C 258.945312 223.808594 266.359375 225.507812 274.066406 226.199219 C 285.347656 227.207031 297.945312 218.113281 296.53125 206.082031 C 293.304688 178.667969 252.996094 167.421875 231.789062 178.507812 Z M 545.484375 208.191406 C 537.355469 216.535156 525.691406 218.828125 514.460938 217.328125 C 511.96875 216.992188 509.582031 216.238281 507.195312 215.484375 C 507.074219 215.527344 506.980469 215.566406 506.847656 215.613281 C 504.316406 216.96875 501.984375 218.46875 499.238281 219.34375 C 487.546875 223.050781 471.601562 219.75 472.347656 204.632812 C 472.90625 193.441406 486.027344 184.257812 495.007812 179.71875 C 509.535156 172.394531 528.300781 167.484375 542.890625 177.570312 C 554.085938 185.308594 554.992188 198.433594 545.484375 208.191406 "/>
<path style=" stroke:none;fill-rule:nonzero;fill:rgb(20.388794%,20.388794%,20.388794%);fill-opacity:1;" d="M 190.703125 281.707031 C 186.101562 294.898438 183.328125 311.015625 189.601562 324.117188 C 190.941406 326.921875 196.726562 326.15625 197.027344 322.9375 C 198.253906 309.664062 196.492188 296.328125 198.019531 282.960938 C 198.457031 279.140625 191.855469 278.410156 190.703125 281.707031 Z M 582.261719 265.886719 C 580.769531 264.328125 576.035156 265.011719 576.703125 267.835938 C 577.9375 273.019531 579.90625 277.46875 579.863281 282.964844 C 579.824219 288.769531 577.515625 294.078125 577.199219 299.792969 C 577.019531 303.039062 581.242188 303.53125 583.171875 301.636719 C 591.953125 293.046875 590.554688 274.527344 582.261719 265.886719 Z M 536.210938 326.5625 C 542.992188 329.875 552.902344 328.183594 558.550781 323.261719 C 575.84375 308.171875 568.042969 278.582031 560.898438 260.019531 C 556.460938 248.492188 535.269531 246.636719 531.058594 259.9375 C 527.417969 271.449219 524.457031 282.578125 523.929688 294.789062 C 523.375 307.714844 523.058594 320.136719 536.210938 326.5625 Z M 221.226562 334.691406 C 228.003906 338.003906 237.917969 336.3125 243.558594 331.390625 C 260.855469 316.296875 253.058594 286.71875 245.914062 268.148438 C 241.476562 256.621094 220.277344 254.773438 216.074219 268.066406 C 212.433594 279.578125 209.46875 290.714844 208.945312 302.917969 C 208.386719 315.847656 208.070312 328.265625 221.226562 334.691406 Z M 577.210938 382.742188 C 573.113281 399.683594 554.019531 414.4375 540.339844 423.789062 C 526.652344 433.140625 511.429688 439.800781 495.425781 443.835938 C 495.605469 454.480469 494.476562 465.011719 492.089844 475.453125 C 490.925781 480.550781 484.058594 483.390625 479.414062 481.824219 C 465.789062 477.21875 453.992188 468.894531 445.566406 457.382812 C 407.859375 471.484375 365.960938 471.878906 328.222656 457.8125 C 319.492188 470.5625 308.039062 481.121094 294.507812 488.800781 C 289.582031 491.59375 282.980469 490.683594 281.910156 484.441406 C 280.867188 478.355469 279.835938 472.265625 278.859375 466.164062 C 278.082031 461.328125 278.113281 454.980469 276.296875 450.453125 C 274.480469 445.933594 268.828125 445.902344 264.527344 444.457031 C 260.507812 443.101562 256.628906 441.4375 252.851562 439.515625 C 236.992188 431.476562 223.820312 420.109375 215.230469 404.433594 C 213.269531 400.847656 219.496094 398.847656 221.730469 401.058594 C 235.785156 414.933594 252.058594 426.472656 271.023438 432.425781 C 280.328125 435.347656 288.84375 435.839844 291.722656 446.398438 C 293.875 454.285156 295.199219 462.550781 296.519531 470.738281 C 305.109375 463.910156 312.195312 455.578125 317.71875 445.726562 C 319.734375 442.140625 325.378906 439.890625 329.277344 441.480469 C 367.144531 456.9375 409.636719 457.128906 447.351562 441.152344 C 450.128906 439.972656 455.535156 440.027344 457.351562 443.007812 C 462.417969 451.324219 468.972656 458.0625 477 462.863281 C 477.96875 455.234375 478.179688 447.585938 477.652344 439.777344 C 477.335938 435.105469 482.203125 431.925781 486.191406 431.179688 C 502.300781 428.144531 517.488281 421.8125 531.027344 412.558594 C 545.144531 402.90625 554.167969 389.089844 566.898438 378.191406 C 570.90625 374.765625 578.699219 376.597656 577.210938 382.742188 "/>
</g>
</svg>
