<?xml version="1.0" encoding="UTF-8"?>
<svg xmlns="http://www.w3.org/2000/svg" xmlns:xlink="http://www.w3.org/1999/xlink" width="810pt" height="809.999993pt" viewBox="0 0 810 809.999993" version="1.2">
<defs>
<clipPath id="clip1">
  <path d="M 148 0 L 678.558594 0 L 678.558594 809.96875 L 148 809.96875 Z M 148 0 "/>
</clipPath>
</defs>
<g id="surface1">
<path style=" stroke:none;fill-rule:nonzero;fill:rgb(63.529968%,88.238525%,96.469116%);fill-opacity:1;" d="M 569.273438 337.367188 C 582.582031 385.785156 579.476562 442.089844 546.941406 480.363281 C 525.195312 505.972656 495.523438 519.898438 463.160156 526.742188 C 419.078125 536.097656 369.972656 532.363281 329.050781 527.175781 C 325.28125 526.691406 321.488281 526.167969 317.679688 525.585938 C 289.34375 521.148438 260.703125 512.667969 242.519531 488.980469 C 233.929688 477.765625 227.53125 465.191406 222.917969 451.898438 C 215.628906 430.953125 212.746094 408.242188 212.492188 386.265625 C 212.492188 385.835938 212.472656 385.390625 212.492188 384.964844 C 212.472656 382.414062 212.492188 379.878906 212.542969 377.355469 C 212.988281 355.808594 215.851562 334.164062 221.648438 313.382812 C 222.132812 311.652344 222.644531 309.941406 223.160156 308.230469 C 232.367188 278.289062 248.300781 250.558594 270.359375 228.539062 C 277.269531 221.617188 284.800781 215.261719 292.910156 209.558594 C 300.414062 204.28125 308.351562 199.710938 316.671875 195.871094 C 317.214844 195.617188 317.769531 195.375 318.332031 195.117188 C 350.042969 181.003906 386.027344 178.570312 420.023438 185.972656 C 434.808594 189.171875 449.230469 194.261719 462.75 201.058594 C 467.03125 203.203125 471.238281 205.535156 475.339844 208.03125 C 521.972656 236.445312 554.8125 284.765625 569.273438 337.367188 "/>
<path style=" stroke:none;fill-rule:nonzero;fill:rgb(95.689392%,83.529663%,13.328552%);fill-opacity:1;" d="M 172.628906 435.710938 C 171.398438 437.289062 170.109375 438.949219 169.816406 440.941406 C 168.992188 446.878906 176.835938 449.753906 182.800781 450.308594 C 196.144531 451.523438 209.542969 452.050781 222.917969 451.898438 C 215.628906 430.953125 212.746094 408.242188 212.492188 386.265625 C 198.996094 402.570312 185.804688 419.148438 172.628906 435.710938 Z M 221.308594 307.820312 C 221.921875 307.960938 222.542969 308.09375 223.160156 308.230469 C 222.644531 309.941406 222.132812 311.652344 221.648438 313.382812 C 215.851562 334.164062 212.988281 355.808594 212.542969 377.355469 C 212.492188 379.878906 212.472656 382.414062 212.492188 384.964844 C 188.308594 373.609375 164.144531 362.234375 139.960938 350.878906 C 138.261719 350.074219 136.507812 349.230469 135.292969 347.792969 C 133.597656 345.789062 133.265625 342.984375 133.082031 340.359375 C 132.226562 329.003906 132.378906 317.597656 133.558594 306.28125 C 133.730469 304.652344 133.972656 302.921875 135.089844 301.722656 C 136.457031 300.285156 138.65625 300.113281 140.648438 300.0625 C 167.710938 299.308594 194.878906 301.914062 221.308594 307.820312 "/>
<g clip-path="url(#clip1)" clip-rule="nonzero">
<path style=" stroke:none;fill-rule:nonzero;fill:rgb(37.249756%,79.60968%,96.078491%);fill-opacity:1;" d="M 513.578125 762.152344 C 514.679688 762.03125 514.816406 761.003906 513.578125 762.152344 Z M 550.871094 761.011719 C 552.804688 768.777344 543.839844 775.484375 536.789062 775.160156 C 530.261719 774.863281 524.585938 773.164062 519.441406 769.050781 C 517.441406 767.453125 515.816406 765.40625 513.78125 763.828125 C 513.546875 763.652344 513.132812 763.378906 512.695312 763.101562 C 512.632812 763.175781 512.574219 763.234375 512.511719 763.316406 C 511.039062 765.128906 508.957031 766.695312 507.25 768.324219 C 502.769531 772.59375 498.214844 776.800781 493.289062 780.558594 C 473.492188 795.6875 450.019531 802.464844 425.949219 793.703125 C 405.445312 786.230469 389.644531 768.53125 382 748.460938 C 377.84375 737.542969 375.894531 726.28125 375.609375 714.628906 C 364.320312 714.890625 352.941406 713.699219 341.863281 711.484375 C 317.546875 706.636719 290.816406 693.058594 286.878906 668.617188 C 286.539062 666.539062 286.421875 664.453125 286.40625 662.367188 C 274.636719 663.066406 264.519531 667.652344 257.050781 678.78125 C 248.332031 691.773438 247.101562 709.679688 248.992188 724.800781 C 251.398438 743.988281 258.65625 761.972656 264.3125 780.324219 C 266.703125 788.082031 267.3125 795.742188 261.089844 801.941406 C 252.992188 810 240.699219 809.171875 230.058594 809.917969 C 221.402344 810.527344 212.148438 805.335938 213.75 795.597656 C 215.324219 786.015625 226.089844 781.042969 234.964844 781.890625 C 234.9375 781.808594 234.917969 781.730469 234.894531 781.65625 C 233.390625 776.75 231.839844 771.859375 230.367188 766.949219 C 227.582031 757.636719 225.011719 748.242188 223.421875 738.648438 C 220.515625 721.066406 220.703125 703.046875 227.46875 686.316406 C 233.578125 671.207031 244.792969 658.691406 259.875 652.199219 C 268.074219 648.660156 278.609375 646.367188 288.140625 647.75 C 288.6875 645.183594 289.292969 642.621094 289.910156 640.082031 C 299.175781 601.917969 308.433594 563.746094 317.679688 525.585938 C 321.488281 526.167969 325.28125 526.691406 329.050781 527.175781 C 369.972656 532.363281 419.078125 536.097656 463.160156 526.742188 C 464.703125 557.710938 464.945312 588.730469 463.878906 619.71875 C 463.292969 636.964844 462.164062 654.707031 454.652344 670.246094 C 445.253906 689.636719 426.46875 703.519531 405.871094 709.914062 C 402.199219 711.050781 398.464844 711.957031 394.703125 712.671875 C 394.832031 713.882812 394.984375 715.09375 395.1875 716.289062 C 396.96875 727.019531 399.914062 737.5625 405.28125 747.082031 C 413.976562 762.488281 431.554688 776.503906 450.265625 774.546875 C 470.984375 772.378906 481.226562 751.441406 497.332031 741.328125 C 507.554688 734.902344 520.175781 733.78125 530.886719 739.640625 C 539.0625 744.117188 548.542969 751.636719 550.871094 761.011719 Z M 292.910156 209.558594 C 300.414062 204.28125 308.351562 199.710938 316.671875 195.871094 C 304.503906 178.78125 289.484375 163.691406 272.3125 151.59375 C 264.769531 146.269531 256.710938 141.421875 250.667969 134.453125 C 244.632812 127.460938 240.859375 117.703125 243.707031 108.933594 C 245.558594 103.242188 249.851562 98.773438 253.738281 94.238281 C 264.992188 81.0625 273.894531 65.082031 274.972656 47.820312 C 276.070312 30.539062 267.992188 12.039062 252.539062 4.195312 C 234.339844 -5.019531 212.113281 2.34375 194.605469 12.792969 C 184.191406 19.011719 174.3125 26.375 166.59375 35.710938 C 146.972656 59.449219 143.769531 94.027344 153.710938 123.148438 C 163.664062 152.277344 185.257812 176.3125 210.136719 194.46875 C 228.820312 208.070312 249.398438 218.722656 270.359375 228.539062 C 277.269531 221.617188 284.800781 215.261719 292.910156 209.558594 Z M 672.128906 184.84375 C 667.207031 190.304688 660.003906 193.113281 652.851562 194.933594 C 626.042969 201.714844 596.371094 196.230469 573.765625 180.320312 C 562.738281 172.5625 553.085938 162.335938 540.40625 157.726562 C 520.132812 150.34375 496.792969 159.597656 481.59375 174.886719 C 473.949219 182.5625 467.925781 191.535156 462.75 201.058594 C 449.230469 194.261719 434.808594 189.171875 420.023438 185.972656 C 426.539062 133.730469 465.78125 85.839844 516.960938 71.746094 C 575.910156 55.523438 644.273438 85.890625 671.667969 140.480469 C 678.730469 154.539062 682.660156 173.125 672.128906 184.84375 "/>
</g>
<path style=" stroke:none;fill-rule:nonzero;fill:rgb(100%,100%,100%);fill-opacity:1;" d="M 431.941406 297.199219 C 437.652344 303.3125 437.074219 318.59375 436.640625 326.164062 C 436.027344 337.503906 433.347656 348.515625 430.175781 359.371094 C 422.472656 384.898438 408.136719 419.066406 376.359375 418.382812 C 374.980469 418.34375 373.648438 418.28125 372.320312 418.121094 C 375.785156 407.09375 377.917969 395.667969 378.910156 384.074219 C 379.136719 381.46875 379.300781 378.851562 379.421875 376.226562 C 379.601562 371.773438 377.558594 367.507812 373.992188 364.800781 C 371.675781 363.058594 369.339844 361.34375 367.042969 359.5625 C 364.605469 357.679688 362.21875 355.738281 359.839844 353.777344 C 359.015625 353.105469 358.175781 352.417969 357.351562 351.734375 C 354.984375 349.785156 350.644531 347.300781 349.050781 344.664062 C 347.089844 341.425781 347.765625 341.695312 351.433594 339.179688 C 353.917969 337.46875 356.597656 335.980469 359.359375 334.707031 C 360.183594 334.332031 361.007812 333.992188 361.828125 333.648438 C 364.34375 332.636719 367.042969 331.78125 369.804688 331.09375 C 373.183594 330.273438 375.34375 326.917969 374.585938 323.527344 C 374.585938 323.492188 374.570312 323.472656 374.570312 323.460938 C 372.5625 314.277344 369.992188 305.234375 366.941406 296.464844 C 378.089844 295.125 389.304688 294.152344 400.554688 293.960938 C 406.421875 293.878906 412.304688 293.960938 418.167969 294.421875 C 422.128906 294.753906 429.078125 294.136719 431.941406 297.199219 "/>
<path style=" stroke:none;fill-rule:nonzero;fill:rgb(20.388794%,20.388794%,20.388794%);fill-opacity:1;" d="M 436.640625 326.160156 C 436.019531 337.496094 433.34375 348.507812 430.175781 359.382812 C 422.472656 384.902344 408.128906 419.066406 376.359375 418.382812 C 374.992188 418.347656 373.640625 418.265625 372.328125 418.121094 C 375.785156 407.09375 377.917969 395.667969 378.910156 384.074219 C 379.136719 381.472656 379.316406 378.851562 379.421875 376.222656 C 379.605469 371.777344 377.558594 367.507812 373.984375 364.800781 C 371.679688 363.066406 369.339844 361.34375 367.046875 359.5625 C 364.613281 357.679688 362.21875 355.746094 359.832031 353.769531 C 359.019531 353.105469 358.175781 352.417969 357.347656 351.742188 C 354.980469 349.777344 350.640625 347.292969 349.046875 344.667969 C 347.097656 341.425781 347.765625 341.695312 351.4375 339.179688 C 353.917969 337.464844 356.605469 335.976562 359.363281 334.707031 C 360.175781 334.332031 361 333.992188 361.832031 333.65625 C 364.351562 332.628906 367.046875 331.785156 369.808594 331.089844 C 373.183594 330.277344 375.347656 326.917969 374.585938 323.527344 C 374.585938 323.496094 374.570312 323.476562 374.570312 323.464844 C 372.570312 314.285156 369.988281 305.226562 366.933594 296.46875 C 378.097656 295.125 389.304688 294.152344 400.558594 293.953125 C 406.421875 293.871094 412.304688 293.953125 418.167969 294.421875 C 422.136719 294.753906 429.070312 294.132812 431.945312 297.199219 C 437.644531 303.3125 437.066406 318.597656 436.640625 326.160156 Z M 458.332031 294.117188 C 454.398438 282.792969 447.589844 277.035156 435.726562 275.007812 C 423.691406 272.945312 410.992188 272.769531 398.808594 273.144531 C 385.503906 273.515625 372.257812 274.925781 359.089844 276.761719 C 355.15625 277.3125 351.253906 277.894531 347.359375 278.511719 C 339.253906 279.746094 331.175781 281.089844 323.125 282.371094 C 311.390625 284.21875 299.613281 285.957031 287.804688 287.140625 C 279.222656 288.003906 269.660156 287.464844 264.121094 295.378906 C 257.667969 304.582031 263 318.808594 266.214844 328.25 C 269.902344 339.167969 274.433594 349.796875 279.210938 360.308594 C 293.261719 391.226562 314.15625 422.144531 346.648438 434.1875 C 351.0625 435.839844 355.691406 437.121094 360.550781 438.011719 C 361.375 438.160156 362.21875 438.304688 363.0625 438.417969 C 385.386719 441.757812 408.308594 434.789062 424.375 418.691406 C 439.433594 403.589844 448.242188 383.8125 454.332031 363.648438 C 460.8125 341.4375 466.1875 316.75 458.332031 294.117188 "/>
<path style=" stroke:none;fill-rule:nonzero;fill:rgb(63.529968%,88.238525%,96.469116%);fill-opacity:1;" d="M 463.167969 593.117188 C 451.046875 611.089844 423.785156 610.773438 406.355469 601.621094 C 397.355469 596.894531 389.558594 590.480469 383.820312 582.675781 C 374.917969 593.371094 357.929688 595.457031 345.238281 590.132812 C 325.308594 581.773438 319.398438 561.820312 312.84375 543.199219 C 311.371094 539.011719 318.929688 536.933594 320.261719 540.71875 C 327.160156 560.3125 354.25 598.59375 375.792969 571.285156 C 376.136719 570.855469 376.554688 570.5 376.992188 570.183594 C 375.46875 566.160156 374.410156 561.902344 373.941406 557.410156 C 373.496094 553.074219 381.484375 552.210938 382.121094 556.503906 C 384.265625 571.101562 399.347656 582.679688 412 588.238281 C 425.90625 594.347656 438.0625 593.6875 450.539062 584.992188 C 456.667969 580.730469 468.960938 584.53125 463.167969 593.117188 "/>
<path style=" stroke:none;fill-rule:nonzero;fill:rgb(37.249756%,79.60968%,96.078491%);fill-opacity:1;" d="M 483.136719 320.84375 C 481.40625 316.570312 473.839844 318.308594 472.964844 322.304688 C 469.582031 337.800781 470.523438 353.648438 465.894531 369.054688 C 461.453125 383.820312 454.5 397.410156 446.21875 410.382812 C 443.386719 414.824219 451.269531 416.441406 453.882812 413.894531 C 466.5625 401.554688 475.609375 385.96875 480.800781 369.078125 C 485.464844 353.914062 489.3125 335.992188 483.136719 320.84375 "/>
</g>
</svg>
