<?xml version="1.0" encoding="UTF-8"?>
<svg xmlns="http://www.w3.org/2000/svg" xmlns:xlink="http://www.w3.org/1999/xlink" width="810pt" height="809.999993pt" viewBox="0 0 810 809.999993" version="1.2">
<defs>
<clipPath id="clip1">
  <path d="M 184.273438 671 L 626.023438 671 L 626.023438 809.949219 L 184.273438 809.949219 Z M 184.273438 671 "/>
</clipPath>
<clipPath id="clip2">
  <path d="M 184.273438 681 L 626.023438 681 L 626.023438 809.949219 L 184.273438 809.949219 Z M 184.273438 681 "/>
</clipPath>
</defs>
<g id="surface1">
<path style=" stroke:none;fill-rule:nonzero;fill:rgb(98.039246%,71.369934%,55.288696%);fill-opacity:1;" d="M 455.570312 679.402344 L 355.28125 679.402344 L 364.496094 594.59375 L 442.785156 594.59375 L 455.570312 679.402344 "/>
<path style=" stroke:none;fill-rule:nonzero;fill:rgb(82.749939%,82.348633%,82.348633%);fill-opacity:1;" d="M 448.140625 630.085938 L 444.128906 603.507812 L 448.140625 630.085938 "/>
<path style=" stroke:none;fill-rule:nonzero;fill:rgb(80.778503%,58.81958%,45.489502%);fill-opacity:1;" d="M 356.792969 665.578125 L 363.929688 599.882812 C 366.53125 600.695312 369.195312 601.445312 371.910156 602.125 L 371.917969 602.125 C 371.917969 602.125 371.925781 602.125 371.933594 602.132812 C 371.933594 602.132812 371.941406 602.132812 371.941406 602.132812 C 371.941406 602.132812 371.949219 602.132812 371.957031 602.132812 C 371.964844 602.140625 371.972656 602.140625 371.980469 602.140625 C 371.988281 602.140625 371.988281 602.140625 371.988281 602.140625 C 371.988281 602.140625 371.996094 602.140625 371.996094 602.148438 C 372.945312 602.394531 382.292969 604.746094 394.894531 606.265625 C 394.910156 606.265625 394.917969 606.265625 394.925781 606.265625 C 394.925781 606.265625 394.933594 606.265625 394.933594 606.265625 C 398.703125 606.71875 402.761719 607.101562 406.976562 607.324219 C 406.960938 607.324219 406.945312 607.324219 406.929688 607.324219 C 409.59375 607.460938 412.316406 607.546875 415.078125 607.546875 C 423.542969 607.546875 432.269531 606.777344 440.246094 604.664062 C 441.566406 604.3125 442.863281 603.929688 444.128906 603.507812 L 448.132812 630.085938 C 442.664062 629.328125 437.445312 628.980469 432.46875 628.980469 C 381.289062 628.980469 356.792969 665.578125 356.792969 665.578125 "/>
<g clip-path="url(#clip1)" clip-rule="nonzero">
<path style=" stroke:none;fill-rule:nonzero;fill:rgb(98.039246%,71.369934%,55.288696%);fill-opacity:1;" d="M 583.964844 719.707031 L 449.882812 671.746094 L 360.972656 671.746094 L 226.890625 719.707031 C 226.890625 719.707031 179.9375 735.136719 185.425781 809.949219 L 625.433594 809.949219 C 631.839844 730.535156 583.964844 719.707031 583.964844 719.707031 "/>
</g>
<g clip-path="url(#clip2)" clip-rule="nonzero">
<path style=" stroke:none;fill-rule:nonzero;fill:rgb(23.139954%,74.508667%,77.249146%);fill-opacity:1;" d="M 477.28125 681.539062 L 583.964844 719.707031 C 583.964844 719.707031 631.839844 730.535156 625.433594 809.949219 L 185.425781 809.949219 C 179.9375 735.136719 226.890625 719.707031 226.890625 719.707031 L 328.425781 683.378906 L 400.367188 736.820312 L 477.28125 681.539062 "/>
</g>
<path style=" stroke:none;fill-rule:nonzero;fill:rgb(12.159729%,54.119873%,58.428955%);fill-opacity:1;" d="M 328.425781 683.378906 L 400.367188 736.820312 L 477.28125 681.539062 L 486.859375 684.964844 L 399.90625 750.148438 L 317.703125 687.21875 L 328.425781 683.378906 "/>
<path style=" stroke:none;fill-rule:nonzero;fill:rgb(98.039246%,71.369934%,55.288696%);fill-opacity:1;" d="M 548.933594 404.824219 C 547.304688 429.640625 558.6875 450.570312 574.320312 451.558594 C 589.9375 452.5625 603.90625 433.289062 605.492188 408.464844 C 607.074219 383.664062 595.722656 362.734375 580.089844 361.738281 C 564.472656 360.726562 550.519531 380.023438 548.933594 404.824219 "/>
<path style=" stroke:none;fill-rule:nonzero;fill:rgb(78.42865%,45.098877%,31.369019%);fill-opacity:1;" d="M 571.058594 395.972656 C 571.058594 395.972656 571.105469 394.585938 571.410156 392.300781 C 571.695312 390.003906 572.484375 386.738281 573.921875 383.207031 C 575.402344 379.785156 577.996094 375.761719 581.855469 375.226562 C 582.816406 375.089844 583.820312 375.144531 584.855469 375.304688 C 585.03125 375.386719 586.09375 375.617188 586.429688 375.800781 C 586.796875 376.03125 587.167969 376.101562 587.621094 376.4375 C 589.371094 377.527344 590.894531 379.320312 592.015625 381.425781 C 593.222656 383.496094 594.121094 385.839844 594.742188 388.203125 C 595.324219 390.554688 595.839844 393.023438 595.769531 395.175781 C 595.640625 397.660156 595.832031 400.1875 595.5625 402.363281 C 595.332031 404.574219 595.125 406.65625 594.925781 408.605469 C 594.558594 410.558594 594.3125 412.359375 594.105469 413.976562 C 593.898438 415.59375 593.476562 416.957031 593.277344 418.113281 C 592.785156 420.40625 592.5625 421.761719 592.5625 421.761719 C 592.5625 421.761719 593.207031 420.574219 594.203125 418.421875 C 594.65625 417.324219 595.363281 416.054688 595.90625 414.488281 C 596.484375 412.925781 597.136719 411.171875 597.773438 409.214844 C 598.355469 407.238281 598.808594 405.007812 599.332031 402.65625 C 599.867188 400.296875 599.953125 397.925781 600.222656 395.40625 C 600.4375 392.53125 600.152344 389.804688 599.484375 387.03125 C 598.824219 384.285156 597.855469 381.542969 596.414062 378.9375 C 594.957031 376.382812 592.898438 373.925781 590.121094 372.253906 C 589.492188 371.832031 588.59375 371.488281 587.773438 371.171875 C 586.882812 370.890625 586.660156 370.898438 585.578125 370.675781 C 584.027344 370.519531 582.476562 370.542969 580.933594 370.890625 C 577.828125 371.570312 575.441406 373.710938 573.996094 375.847656 C 572.507812 377.992188 571.734375 380.238281 571.1875 382.285156 C 570.152344 386.410156 570.296875 389.902344 570.445312 392.273438 C 570.660156 394.679688 571.058594 395.972656 571.058594 395.972656 "/>
<path style=" stroke:none;fill-rule:nonzero;fill:rgb(78.42865%,45.098877%,31.369019%);fill-opacity:1;" d="M 571.058594 395.972656 C 571.058594 395.972656 569.292969 393.484375 579.300781 391.996094 C 579.300781 391.996094 590.78125 392.691406 585.785156 405.40625 C 584.703125 408.144531 583.84375 410.949219 583.503906 413.882812 C 583.054688 418.039062 585.585938 423.402344 583.367188 427.25 C 580.496094 432.222656 571.273438 430.339844 570.027344 425.050781 C 569.078125 421.003906 573.335938 413.546875 575.339844 410.425781 C 575.339844 410.425781 581.378906 400.941406 571.058594 395.972656 "/>
<path style=" stroke:none;fill-rule:nonzero;fill:rgb(78.42865%,45.098877%,31.369019%);fill-opacity:1;" d="M 569.96875 424.523438 C 569.984375 424.542969 569.636719 424.734375 569.269531 425.257812 C 568.847656 425.769531 568.410156 426.589844 568.085938 427.65625 C 567.871094 428.191406 567.851562 428.773438 567.796875 429.425781 C 567.757812 430.078125 567.664062 430.789062 567.878906 431.457031 C 568.050781 432.148438 568.164062 432.898438 568.410156 433.609375 C 568.679688 434.300781 569.132812 434.914062 569.507812 435.574219 C 569.976562 436.171875 570.335938 436.890625 570.902344 437.328125 C 571.417969 437.820312 572.046875 438.203125 572.585938 438.609375 C 573.652344 439.480469 574.824219 439.925781 575.894531 440.109375 C 577.980469 440.632812 579.429688 440.484375 579.429688 440.484375 C 579.429688 440.484375 578.65625 439.074219 577.457031 437.671875 C 577.160156 437.304688 576.84375 436.929688 576.460938 436.601562 C 576.160156 436.1875 575.90625 435.703125 575.5625 435.320312 C 575.234375 434.914062 574.957031 434.460938 574.566406 434.109375 C 574.152344 433.742188 574.019531 433.21875 573.726562 432.804688 C 573.023438 432.015625 572.636719 431.121094 572.148438 430.246094 C 571.878906 429.816406 571.71875 429.371094 571.535156 428.945312 C 571.394531 428.5 571.089844 428.070312 570.980469 427.65625 C 570.359375 426.007812 569.960938 424.523438 569.96875 424.523438 "/>
<path style=" stroke:none;fill-rule:nonzero;fill:rgb(98.039246%,71.369934%,55.288696%);fill-opacity:1;" d="M 261.917969 404.824219 C 263.546875 429.640625 252.164062 450.570312 236.546875 451.558594 C 220.921875 452.5625 206.953125 433.289062 205.355469 408.464844 C 203.777344 383.664062 215.125 362.734375 230.765625 361.738281 C 246.386719 360.726562 260.335938 380.023438 261.917969 404.824219 "/>
<path style=" stroke:none;fill-rule:nonzero;fill:rgb(78.42865%,45.098877%,31.369019%);fill-opacity:1;" d="M 239.800781 395.972656 C 239.800781 395.972656 239.746094 394.585938 239.441406 392.300781 C 239.164062 390.003906 238.371094 386.738281 236.9375 383.207031 C 235.457031 379.785156 232.855469 375.761719 228.996094 375.226562 C 228.035156 375.089844 227.039062 375.144531 225.992188 375.304688 C 225.824219 375.386719 224.757812 375.617188 224.429688 375.800781 C 224.066406 376.03125 223.691406 376.101562 223.238281 376.4375 C 221.488281 377.527344 219.960938 379.320312 218.839844 381.425781 C 217.636719 383.496094 216.730469 385.839844 216.109375 388.203125 C 215.535156 390.554688 215.019531 393.023438 215.082031 395.175781 C 215.226562 397.660156 215.027344 400.1875 215.296875 402.363281 C 215.519531 404.574219 215.734375 406.65625 215.925781 408.605469 C 216.292969 410.558594 216.539062 412.359375 216.753906 413.976562 C 216.960938 415.59375 217.382812 416.957031 217.582031 418.113281 C 218.074219 420.40625 218.289062 421.761719 218.289062 421.761719 C 218.289062 421.761719 217.652344 420.574219 216.652344 418.421875 C 216.203125 417.324219 215.496094 416.054688 214.949219 414.488281 C 214.367188 412.925781 213.722656 411.171875 213.085938 409.214844 C 212.503906 407.238281 212.042969 405.007812 211.527344 402.65625 C 210.988281 400.296875 210.914062 397.925781 210.628906 395.40625 C 210.421875 392.53125 210.707031 389.804688 211.375 387.03125 C 212.035156 384.285156 213 381.542969 214.445312 378.9375 C 215.902344 376.382812 217.949219 373.925781 220.738281 372.253906 C 221.367188 371.832031 222.265625 371.488281 223.085938 371.171875 C 223.96875 370.890625 224.199219 370.898438 225.273438 370.675781 C 226.824219 370.519531 228.371094 370.542969 229.914062 370.890625 C 233.03125 371.570312 235.410156 373.710938 236.859375 375.847656 C 238.351562 377.992188 239.117188 380.238281 239.671875 382.285156 C 240.707031 386.410156 240.558594 389.902344 240.414062 392.273438 C 240.199219 394.679688 239.800781 395.972656 239.800781 395.972656 "/>
<path style=" stroke:none;fill-rule:nonzero;fill:rgb(78.42865%,45.098877%,31.369019%);fill-opacity:1;" d="M 239.800781 395.972656 C 239.800781 395.972656 241.558594 393.484375 231.558594 391.996094 C 231.558594 391.996094 220.070312 392.691406 225.074219 405.40625 C 226.148438 408.144531 227.015625 410.949219 227.351562 413.882812 C 227.804688 418.039062 225.273438 423.402344 227.492188 427.25 C 230.351562 432.222656 239.585938 430.339844 240.828125 425.050781 C 241.78125 421.003906 237.511719 413.546875 235.527344 410.425781 C 235.527344 410.425781 229.476562 400.941406 239.800781 395.972656 "/>
<path style=" stroke:none;fill-rule:nonzero;fill:rgb(78.42865%,45.098877%,31.369019%);fill-opacity:1;" d="M 240.890625 424.523438 C 240.875 424.542969 241.21875 424.734375 241.589844 425.257812 C 242.011719 425.769531 242.441406 426.589844 242.761719 427.65625 C 242.984375 428.191406 243 428.773438 243.0625 429.425781 C 243.101562 430.078125 243.191406 430.789062 242.976562 431.457031 C 242.808594 432.148438 242.695312 432.898438 242.441406 433.609375 C 242.171875 434.300781 241.726562 434.914062 241.34375 435.574219 C 240.882812 436.171875 240.523438 436.890625 239.960938 437.328125 C 239.433594 437.820312 238.808594 438.203125 238.273438 438.609375 C 237.199219 439.480469 236.03125 439.925781 234.957031 440.109375 C 232.878906 440.632812 231.433594 440.484375 231.433594 440.484375 C 231.433594 440.484375 232.195312 439.074219 233.398438 437.671875 C 233.699219 437.304688 234.015625 436.929688 234.398438 436.601562 C 234.695312 436.1875 234.949219 435.703125 235.289062 435.320312 C 235.617188 434.914062 235.894531 434.460938 236.292969 434.109375 C 236.707031 433.742188 236.839844 433.21875 237.121094 432.804688 C 237.835938 432.015625 238.210938 431.121094 238.703125 430.246094 C 238.972656 429.816406 239.132812 429.371094 239.324219 428.945312 C 239.460938 428.5 239.761719 428.070312 239.878906 427.65625 C 240.5 426.007812 240.898438 424.523438 240.890625 424.523438 "/>
<path style=" stroke:none;fill-rule:nonzero;fill:rgb(98.039246%,71.369934%,55.288696%);fill-opacity:1;" d="M 249.886719 227.449219 L 249.886719 460.320312 C 249.886719 460.320312 270.675781 576.667969 371.910156 602.125 C 371.910156 602.125 417.050781 613.960938 446.507812 602.648438 C 446.507812 602.648438 533.359375 591.199219 560.972656 449.300781 L 560.972656 227.449219 C 560.972656 227.449219 542.5625 98.78125 405.425781 93.261719 C 405.425781 93.261719 292.226562 80.394531 249.886719 227.449219 "/>
<path style=" stroke:none;fill-rule:nonzero;fill:rgb(98.429871%,78.039551%,64.309692%);fill-opacity:1;" d="M 411.480469 561.730469 C 397.375 561.730469 384.40625 557.183594 384.40625 557.183594 C 320.921875 535.847656 307.882812 438.308594 307.882812 438.308594 L 307.882812 310.863281 C 316.132812 308.015625 324.519531 306.605469 332.886719 306.605469 C 345.101562 306.605469 357.257812 309.625 368.800781 315.578125 C 371.257812 317.554688 373.367188 318.320312 375.171875 318.320312 C 381.074219 318.320312 383.582031 310.128906 383.644531 309.976562 C 387.71875 297.972656 377.382812 291.691406 376.992188 291.691406 C 376.984375 291.691406 376.976562 291.695312 376.976562 291.695312 C 366.078125 287.296875 354.996094 285.160156 344.027344 285.160156 C 331.695312 285.160156 319.5 287.871094 307.882812 293.136719 L 307.882812 251.796875 C 309.078125 246.226562 310.375 240.929688 311.742188 235.886719 C 339.523438 248.121094 377.667969 259.625 422.878906 259.625 C 447.472656 259.625 474.160156 256.21875 502.394531 247.667969 C 502.816406 250.304688 502.976562 251.796875 502.976562 251.796875 L 502.976562 293.136719 C 491.351562 287.871094 479.164062 285.160156 466.820312 285.160156 C 455.863281 285.160156 444.78125 287.296875 433.882812 291.695312 C 433.882812 291.695312 433.875 291.691406 433.867188 291.691406 C 433.550781 291.691406 426.835938 295.734375 426.300781 303.53125 C 426.300781 303.539062 426.300781 303.546875 426.300781 303.554688 C 426.300781 303.5625 426.300781 303.5625 426.300781 303.570312 C 426.300781 303.570312 426.300781 303.578125 426.300781 303.578125 C 426.167969 305.476562 426.414062 307.601562 427.207031 309.9375 C 427.207031 309.953125 427.214844 309.960938 427.214844 309.976562 C 427.273438 310.128906 429.785156 318.320312 435.6875 318.320312 C 437.480469 318.320312 439.59375 317.554688 442.046875 315.578125 C 453.597656 309.625 465.746094 306.605469 477.972656 306.605469 C 486.332031 306.605469 494.726562 308.015625 502.976562 310.863281 L 502.976562 429.066406 C 485.648438 548.027344 431.195312 557.628906 431.195312 557.628906 C 425.21875 560.6875 418.21875 561.730469 411.480469 561.730469 "/>
<path style=" stroke:none;fill-rule:nonzero;fill:rgb(91.369629%,91.369629%,91.369629%);fill-opacity:1;" d="M 444.128906 603.507812 C 444.933594 603.238281 445.722656 602.953125 446.507812 602.648438 C 446.507812 602.648438 533.359375 591.199219 560.972656 449.300781 L 560.972656 445.078125 L 560.972656 449.300781 C 533.359375 591.199219 446.507812 602.648438 446.507812 602.648438 C 445.722656 602.953125 444.933594 603.238281 444.128906 603.507812 "/>
<path style=" stroke:none;fill-rule:nonzero;fill:rgb(74.119568%,53.729248%,41.569519%);fill-opacity:1;" d="M 440.246094 604.664062 C 441.566406 604.3125 442.863281 603.929688 444.128906 603.507812 C 442.863281 603.929688 441.566406 604.3125 440.246094 604.664062 "/>
<path style=" stroke:none;fill-rule:nonzero;fill:rgb(89.408875%,65.489197%,50.19989%);fill-opacity:1;" d="M 415.09375 607.539062 C 414.621094 607.539062 414.152344 607.539062 413.683594 607.53125 C 421.449219 607.429688 429.4375 606.15625 436.300781 602.648438 C 436.300781 602.648438 501.566406 591.199219 522.316406 449.300781 L 522.316406 311.410156 C 522.800781 309.792969 522.707031 308.320312 522.316406 307.039062 L 522.316406 240.855469 C 527.183594 239 532.09375 236.984375 537.042969 234.808594 L 548.933594 404.824219 L 560.972656 396.171875 L 560.972656 449.300781 C 533.359375 591.199219 446.507812 602.648438 446.507812 602.648438 C 445.722656 602.953125 444.933594 603.238281 444.128906 603.507812 C 442.863281 603.929688 441.566406 604.3125 440.246094 604.664062 C 432.277344 606.769531 423.558594 607.539062 415.09375 607.539062 "/>
<path style=" stroke:none;fill-rule:nonzero;fill:rgb(74.119568%,53.729248%,41.569519%);fill-opacity:1;" d="M 406.976562 607.324219 C 402.761719 607.101562 398.703125 606.71875 394.933594 606.265625 C 398.6875 606.71875 402.730469 607.09375 406.929688 607.324219 C 406.945312 607.324219 406.960938 607.324219 406.976562 607.324219 M 394.925781 606.265625 C 394.917969 606.265625 394.910156 606.265625 394.894531 606.265625 C 394.910156 606.265625 394.917969 606.265625 394.925781 606.265625 M 371.996094 602.148438 C 371.996094 602.140625 371.988281 602.140625 371.988281 602.140625 C 371.988281 602.140625 371.996094 602.140625 371.996094 602.148438 M 371.941406 602.132812 C 371.941406 602.132812 371.933594 602.132812 371.933594 602.132812 C 371.933594 602.132812 371.941406 602.132812 371.941406 602.132812 M 371.917969 602.125 L 371.910156 602.125 L 371.917969 602.125 "/>
<path style=" stroke:none;fill-rule:nonzero;fill:rgb(89.408875%,65.489197%,50.19989%);fill-opacity:1;" d="M 406.929688 607.324219 C 402.730469 607.09375 398.6875 606.71875 394.933594 606.265625 C 394.933594 606.265625 394.925781 606.265625 394.925781 606.265625 C 394.917969 606.265625 394.910156 606.265625 394.894531 606.265625 C 382.285156 604.746094 372.945312 602.386719 371.996094 602.148438 C 371.996094 602.140625 371.988281 602.140625 371.988281 602.140625 C 371.988281 602.140625 371.988281 602.140625 371.980469 602.140625 C 371.972656 602.140625 371.964844 602.140625 371.957031 602.132812 C 371.949219 602.132812 371.941406 602.132812 371.941406 602.132812 C 371.941406 602.132812 371.933594 602.132812 371.933594 602.132812 C 371.925781 602.125 371.917969 602.125 371.917969 602.125 L 371.910156 602.125 C 270.675781 576.667969 249.886719 460.320312 249.886719 460.320312 L 249.886719 388.570312 C 249.960938 390.667969 249.886719 391.996094 249.886719 391.996094 L 262.078125 391.996094 L 262.078125 207.226562 C 262.078125 207.226562 271.71875 215.082031 289.148438 224.707031 C 288.941406 225.617188 288.742188 226.53125 288.542969 227.449219 L 288.542969 307.046875 C 288.148438 308.320312 288.050781 309.785156 288.542969 311.402344 L 288.542969 460.320312 C 288.542969 460.320312 304.160156 576.667969 380.238281 602.125 C 380.238281 602.125 392.417969 606.34375 406.929688 607.324219 "/>
<path style=" stroke:none;fill-rule:nonzero;fill:rgb(35.688782%,16.468811%,7.449341%);fill-opacity:1;" d="M 573.582031 217.816406 L 565.570312 367.769531 C 565.570312 367.769531 561.28125 369.296875 560.972656 377.089844 L 560.972656 396.171875 L 548.933594 404.824219 L 537.042969 234.808594 C 380.574219 303.738281 262.078125 207.226562 262.078125 207.226562 L 262.078125 391.996094 L 249.886719 391.996094 C 249.886719 391.996094 251.195312 368.519531 237.277344 362.496094 L 230.765625 238.480469 C 230.109375 36.472656 384.121094 62.429688 384.121094 62.429688 C 384.121094 62.429688 423.53125 0.128906 509.429688 28.316406 C 509.429688 28.316406 476.300781 39.109375 477.527344 61.28125 C 477.527344 61.28125 529.15625 32.570312 579.429688 82.523438 C 579.429688 82.523438 541.335938 69.976562 536.421875 93.261719 C 536.421875 93.261719 589.300781 93.875 600.289062 148.097656 C 600.289062 148.097656 579.375 133.40625 560.972656 139.070312 C 560.972656 139.070312 608.832031 157.070312 610.058594 210.949219 C 610.058594 210.949219 574.988281 191.429688 573.582031 217.816406 "/>
<path style=" stroke:none;fill-rule:nonzero;fill:rgb(57.649231%,38.819885%,23.919678%);fill-opacity:1;" d="M 385.554688 86.28125 C 402.046875 56.542969 436.722656 47.148438 436.722656 47.148438 C 434.089844 46.972656 431.6875 46.894531 429.476562 46.894531 C 415.917969 46.894531 409.945312 49.792969 407.667969 51.417969 C 426.8125 34.800781 445.695312 31.957031 456.375 31.957031 C 461.925781 31.957031 465.265625 32.730469 465.265625 32.730469 C 449.007812 32.792969 434.328125 40.777344 434.328125 40.777344 C 437.75 40.546875 441.003906 40.449219 444.074219 40.449219 C 464.671875 40.449219 476.945312 44.976562 476.945312 44.976562 C 476.214844 44.957031 475.488281 44.941406 474.75 44.941406 C 431.113281 44.941406 385.554688 86.28125 385.554688 86.28125 M 406.453125 52.496094 C 406.453125 52.496094 406.785156 52.050781 407.667969 51.417969 C 407.257812 51.769531 406.851562 52.128906 406.453125 52.496094 "/>
<path style=" stroke:none;fill-rule:nonzero;fill:rgb(57.649231%,38.819885%,23.919678%);fill-opacity:1;" d="M 442.09375 107.882812 C 463.097656 81.136719 498.832031 77.351562 498.832031 77.351562 C 491.113281 75.589844 485.203125 74.992188 480.734375 74.992188 C 474.589844 74.992188 471.15625 76.132812 469.46875 76.96875 C 485.195312 67.210938 499.609375 64.675781 510.351562 64.675781 C 521.988281 64.675781 529.300781 67.648438 529.300781 67.648438 C 526.339844 67.179688 523.382812 66.988281 520.535156 66.988281 C 507.957031 66.988281 497.464844 70.691406 497.464844 70.691406 C 523.84375 73.113281 538.878906 81.589844 538.878906 81.589844 C 534.167969 80.675781 529.347656 80.269531 524.480469 80.269531 C 484.472656 80.269531 442.09375 107.882812 442.09375 107.882812 M 468.089844 77.839844 C 468.089844 77.839844 468.488281 77.449219 469.46875 76.96875 C 469.007812 77.25 468.546875 77.542969 468.089844 77.839844 "/>
<path style=" stroke:none;fill-rule:nonzero;fill:rgb(57.649231%,38.819885%,23.919678%);fill-opacity:1;" d="M 577.058594 129.289062 C 561.234375 120.246094 541.488281 117.585938 523.722656 117.585938 C 498.308594 117.585938 476.945312 123.035156 476.945312 123.035156 C 492.332031 113.019531 509.628906 110.710938 522.285156 110.710938 C 533.078125 110.710938 540.503906 112.390625 540.503906 112.390625 C 526.867188 103.992188 518.726562 102.464844 514.609375 102.464844 C 513.898438 102.464844 513.304688 102.511719 512.832031 102.574219 C 519.792969 100.964844 526.214844 100.3125 532.070312 100.3125 C 557.820312 100.3125 572.484375 113.011719 572.484375 113.011719 C 558.785156 105.824219 542.984375 105.644531 541.488281 105.644531 C 541.410156 105.644531 541.371094 105.644531 541.371094 105.644531 C 565.546875 116.429688 577.058594 129.289062 577.058594 129.289062 M 511.25 102.957031 C 511.25 102.957031 511.75 102.71875 512.832031 102.574219 C 512.308594 102.695312 511.78125 102.824219 511.25 102.957031 "/>
<path style=" stroke:none;fill-rule:nonzero;fill:rgb(57.649231%,38.819885%,23.919678%);fill-opacity:1;" d="M 251.621094 185.128906 C 260.691406 139.675781 301.828125 113.074219 301.828125 113.074219 C 276.953125 119.257812 268.527344 127.105469 265.863281 130.660156 C 293.167969 85.796875 332.914062 82.523438 332.914062 82.523438 C 311.8125 89.335938 296.0625 105.808594 296.0625 105.808594 C 325.050781 94.351562 346.539062 93.566406 351.878906 93.566406 C 352.730469 93.566406 353.175781 93.582031 353.175781 93.582031 C 295.042969 110.082031 251.621094 185.128906 251.621094 185.128906 M 264.71875 132.578125 C 264.71875 132.578125 264.964844 131.863281 265.863281 130.660156 C 265.480469 131.296875 265.101562 131.925781 264.71875 132.578125 "/>
<path style=" stroke:none;fill-rule:nonzero;fill:rgb(57.649231%,38.819885%,23.919678%);fill-opacity:1;" d="M 432.863281 236.449219 C 344.859375 236.449219 293.246094 203.4375 293.246094 203.4375 C 348.917969 223.886719 386.953125 223.949219 387.445312 223.949219 C 387.453125 223.949219 387.453125 223.949219 387.453125 223.949219 C 358.496094 223.785156 310.191406 189.375 310.191406 189.375 C 367.859375 208.902344 418.902344 213.300781 453.191406 213.300781 C 481.320312 213.300781 498.171875 210.34375 498.171875 210.34375 C 478.726562 218.078125 453.046875 219.894531 433.160156 219.894531 C 415.433594 219.894531 402.308594 218.453125 402.308594 218.453125 C 442.578125 229.167969 498.640625 230.5 498.640625 230.5 C 474.933594 234.722656 452.953125 236.449219 432.863281 236.449219 "/>
<path style=" stroke:none;fill-rule:nonzero;fill:rgb(57.649231%,38.819885%,23.919678%);fill-opacity:1;" d="M 245.496094 358.382812 C 234.605469 285.863281 244.972656 205.300781 244.972656 205.300781 C 244.335938 236.816406 246.4375 274.554688 246.4375 274.554688 C 250.683594 256.703125 253.792969 216.101562 253.792969 216.101562 C 253.792969 247.851562 255.800781 260.972656 253.792969 335.074219 C 254.488281 309.238281 248.472656 285.34375 248.472656 285.34375 C 246.164062 328.882812 245.496094 358.382812 245.496094 358.382812 "/>
<path style=" stroke:none;fill-rule:nonzero;fill:rgb(57.649231%,38.819885%,23.919678%);fill-opacity:1;" d="M 553.757812 355.253906 C 542.867188 282.730469 553.238281 202.175781 553.238281 202.175781 C 552.601562 233.6875 554.703125 271.425781 554.703125 271.425781 C 558.941406 253.570312 562.054688 212.972656 562.054688 212.972656 C 562.054688 244.726562 564.066406 257.835938 562.054688 331.941406 C 562.753906 306.113281 556.730469 282.21875 556.730469 282.21875 C 554.417969 325.75 553.757812 355.253906 553.757812 355.253906 "/>
<path style=" stroke:none;fill-rule:nonzero;fill:rgb(27.449036%,12.548828%,5.099487%);fill-opacity:1;" d="M 262.078125 207.226562 C 262.078125 207.226562 263.046875 207.839844 264.867188 208.980469 C 266.675781 210.113281 269.394531 211.683594 272.839844 213.65625 C 276.277344 215.632812 280.550781 217.863281 285.457031 220.351562 C 290.34375 222.867188 295.96875 225.457031 302.109375 228.203125 C 308.304688 230.835938 315.003906 233.644531 322.234375 236.210938 C 325.832031 237.527344 329.5625 238.761719 333.375 240.027344 C 337.238281 241.144531 341.089844 242.503906 345.132812 243.519531 C 353.125 245.851562 361.535156 247.628906 370.0625 249.382812 C 378.640625 250.863281 387.359375 252.320312 396.175781 253.039062 L 402.769531 253.675781 C 404.972656 253.792969 407.175781 253.90625 409.371094 254.011719 C 413.765625 254.304688 418.148438 254.34375 422.5 254.390625 C 431.210938 254.433594 439.785156 254.089844 448.082031 253.421875 C 452.246094 253.261719 456.285156 252.542969 460.28125 252.1875 C 464.296875 251.859375 468.15625 251.125 471.957031 250.574219 C 473.859375 250.289062 475.730469 250.003906 477.574219 249.730469 C 479.414062 249.414062 481.203125 248.992188 482.984375 248.671875 C 486.53125 247.964844 489.992188 247.367188 493.277344 246.632812 C 496.5625 245.859375 499.707031 245.117188 502.699219 244.410156 C 504.203125 244.050781 505.6875 243.757812 507.089844 243.375 C 508.496094 242.984375 509.867188 242.601562 511.1875 242.234375 C 516.484375 240.714844 521.234375 239.683594 524.988281 238.386719 C 528.769531 237.175781 531.808594 236.332031 533.867188 235.710938 C 535.929688 235.121094 537.042969 234.808594 537.042969 234.808594 C 537.042969 234.808594 536.054688 235.390625 534.203125 236.476562 C 532.339844 237.535156 529.636719 239.167969 526.109375 241.09375 C 522.632812 243.136719 518.195312 245.152344 513.121094 247.574219 C 508.085938 250.113281 502.117188 252.226562 495.664062 254.816406 C 492.417969 256.035156 488.941406 257.039062 485.386719 258.230469 C 483.597656 258.804688 481.789062 259.402344 479.921875 259.929688 C 478.042969 260.421875 476.140625 260.910156 474.203125 261.410156 C 470.34375 262.40625 466.359375 263.449219 462.226562 264.175781 C 460.160156 264.574219 458.074219 264.972656 455.960938 265.371094 C 454.910156 265.5625 453.851562 265.753906 452.777344 265.945312 C 451.710938 266.09375 450.628906 266.238281 449.546875 266.382812 C 447.375 266.667969 445.195312 266.949219 442.984375 267.242188 C 441.878906 267.378906 440.773438 267.515625 439.660156 267.65625 C 438.546875 267.738281 437.429688 267.816406 436.300781 267.902344 C 431.808594 268.207031 427.257812 268.699219 422.648438 268.652344 C 418.050781 268.71875 413.398438 268.882812 408.75 268.582031 C 406.414062 268.484375 404.082031 268.382812 401.742188 268.292969 L 394.757812 267.671875 C 385.425781 266.820312 376.183594 265.242188 367.183594 263.332031 C 362.707031 262.222656 358.242188 261.292969 353.9375 259.945312 C 351.773438 259.316406 349.625 258.679688 347.488281 258.058594 C 345.371094 257.394531 343.300781 256.625 341.226562 255.929688 C 337.074219 254.558594 333.09375 252.925781 329.195312 251.382812 C 327.246094 250.585938 325.355469 249.722656 323.476562 248.910156 C 321.597656 248.089844 319.738281 247.285156 317.949219 246.371094 C 310.722656 242.976562 304.144531 239.269531 298.179688 235.71875 C 292.269531 232.046875 286.96875 228.546875 282.472656 225.160156 C 277.949219 221.816406 274.183594 218.683594 271.152344 216.023438 C 268.089844 213.410156 265.871094 211.140625 264.34375 209.632812 C 262.824219 208.097656 262.078125 207.226562 262.078125 207.226562 "/>
<path style=" stroke:none;fill-rule:nonzero;fill:rgb(27.449036%,12.548828%,5.099487%);fill-opacity:1;" d="M 384.121094 62.429688 C 384.121094 62.429688 382.578125 62.285156 379.691406 62.167969 C 376.808594 62.023438 372.5625 62.070312 367.214844 62.308594 C 361.871094 62.582031 355.410156 63.257812 348.148438 64.507812 C 340.898438 65.839844 332.863281 67.953125 324.496094 71.089844 C 316.148438 74.277344 307.542969 78.683594 299.285156 84.457031 C 291.027344 90.21875 283.207031 97.453125 276.277344 105.90625 C 269.402344 114.4375 263.605469 124.253906 258.6875 134.722656 C 257.527344 137.382812 256.300781 140.019531 255.179688 142.710938 C 254.175781 145.46875 253.175781 148.234375 252.171875 151 C 251.066406 153.730469 250.324219 156.613281 249.484375 159.464844 C 248.6875 162.320312 247.75 165.140625 247.066406 168.039062 L 245.074219 176.769531 L 244.082031 181.128906 L 243.347656 185.550781 C 242.847656 188.492188 242.347656 191.4375 241.855469 194.363281 C 241.28125 197.285156 241.105469 200.265625 240.707031 203.203125 C 240.367188 206.144531 240.015625 209.078125 239.675781 212 C 239.347656 214.917969 239.234375 217.855469 238.996094 220.765625 C 238.789062 223.671875 238.582031 226.570312 238.371094 229.441406 C 238.128906 232.308594 238.15625 235.183594 238.035156 238.027344 C 237.949219 240.871094 237.859375 243.691406 237.773438 246.480469 C 237.734375 247.882812 237.691406 249.269531 237.644531 250.65625 L 237.636719 250.917969 C 237.644531 251.15625 237.628906 250.734375 237.628906 250.824219 L 237.628906 250.957031 L 237.644531 251.484375 L 237.667969 252.535156 L 237.707031 254.617188 C 237.820312 260.183594 237.929688 265.625 238.027344 270.914062 C 238.210938 281.503906 238.25 291.527344 238.273438 300.777344 C 238.351562 310.023438 238.265625 318.503906 238.179688 326.023438 C 238.152344 333.542969 237.964844 340.109375 237.851562 345.515625 C 237.757812 350.910156 237.550781 355.164062 237.46875 358.058594 C 237.34375 360.957031 237.277344 362.496094 237.277344 362.496094 C 237.277344 362.496094 237.046875 360.972656 236.625 358.097656 C 236.230469 355.230469 235.578125 351.023438 234.925781 345.667969 C 234.242188 340.300781 233.375 333.796875 232.554688 326.324219 C 231.6875 318.851562 230.722656 310.421875 229.832031 301.214844 C 228.878906 292.019531 227.875 282.046875 226.953125 271.496094 C 226.5 266.214844 226.039062 260.796875 225.5625 255.253906 L 225.386719 253.171875 L 225.304688 252.128906 L 225.257812 251.605469 L 225.234375 251.125 L 225.226562 250.855469 C 225.195312 249.429688 225.171875 247.996094 225.140625 246.5625 C 225.089844 243.683594 225.035156 240.777344 224.980469 237.851562 C 224.972656 234.914062 224.765625 231.964844 224.917969 228.984375 C 225.027344 225.992188 225.140625 222.988281 225.25 219.96875 C 225.378906 216.941406 225.402344 213.898438 225.640625 210.84375 C 225.925781 207.785156 226.214844 204.710938 226.507812 201.628906 C 226.859375 198.542969 226.984375 195.4375 227.511719 192.339844 C 227.996094 189.246094 228.488281 186.140625 228.964844 183.03125 L 229.714844 178.363281 L 230.730469 173.71875 L 232.800781 164.429688 C 236.214844 152.183594 239.992188 139.90625 245.808594 128.601562 C 251.417969 117.242188 258.25 106.597656 266.355469 97.484375 C 274.496094 88.410156 283.746094 80.890625 293.292969 75.199219 C 302.839844 69.464844 312.671875 65.609375 321.902344 63.097656 C 331.136719 60.519531 339.832031 59.378906 347.496094 58.949219 C 355.171875 58.496094 361.847656 58.878906 367.289062 59.402344 C 372.738281 59.90625 376.945312 60.726562 379.800781 61.339844 C 382.648438 61.960938 384.121094 62.429688 384.121094 62.429688 "/>
<path style=" stroke:none;fill-rule:nonzero;fill:rgb(57.649231%,38.819885%,23.919678%);fill-opacity:1;" d="M 340.359375 179.25 C 357.90625 159.585938 406.507812 151.769531 406.507812 151.769531 C 390.167969 140.417969 370.113281 139.445312 363.683594 139.445312 C 362.347656 139.445312 361.597656 139.484375 361.597656 139.484375 C 371.671875 131.773438 385.339844 129.289062 398.792969 129.289062 C 423.292969 129.289062 447.058594 137.542969 447.058594 137.542969 C 441.871094 136.402344 436.675781 135.996094 431.855469 135.996094 C 419.0625 135.996094 408.957031 138.902344 408.957031 138.902344 C 440.183594 143.660156 458.753906 175.042969 458.753906 175.042969 C 447.113281 163.101562 431.28125 158.988281 414.980469 158.988281 C 378.808594 158.988281 340.359375 179.25 340.359375 179.25 "/>
<path style=" stroke:none;fill-rule:nonzero;fill:rgb(17.649841%,7.058716%,2.349854%);fill-opacity:1;" d="M 350.644531 336.761719 C 350.644531 344.308594 344.519531 350.433594 336.960938 350.433594 C 329.394531 350.433594 323.269531 344.308594 323.269531 336.761719 C 323.269531 329.21875 329.394531 323.097656 336.960938 323.097656 C 344.519531 323.097656 350.644531 329.21875 350.644531 336.761719 "/>
<path style=" stroke:none;fill-rule:nonzero;fill:rgb(100%,100%,100%);fill-opacity:1;" d="M 333.351562 329.847656 C 333.351562 332.714844 331.027344 335.035156 328.15625 335.035156 C 325.296875 335.035156 322.96875 332.714844 322.96875 329.847656 C 322.96875 326.980469 325.296875 324.660156 328.15625 324.660156 C 331.027344 324.660156 333.351562 326.980469 333.351562 329.847656 "/>
<path style=" stroke:none;fill-rule:nonzero;fill:rgb(100%,100%,100%);fill-opacity:1;" d="M 336.398438 336.761719 C 336.398438 338.449219 335.042969 339.804688 333.351562 339.804688 C 331.671875 339.804688 330.304688 338.449219 330.304688 336.761719 C 330.304688 335.082031 331.671875 333.726562 333.351562 333.726562 C 335.042969 333.726562 336.398438 335.082031 336.398438 336.761719 "/>
<path style=" stroke:none;fill-rule:nonzero;fill:rgb(35.688782%,16.468811%,7.449341%);fill-opacity:1;" d="M 296.148438 315.953125 C 319.898438 303.492188 345.585938 303.597656 368.800781 315.578125 C 379.316406 324.0625 383.566406 310.183594 383.644531 309.976562 C 387.789062 297.757812 377.015625 291.476562 376.976562 291.695312 C 348.328125 280.140625 318.433594 284.164062 292.679688 301.707031 C 292.664062 301.636719 286.699219 305.59375 288.578125 311.507812 C 288.585938 311.5625 291.136719 319.59375 296.148438 315.953125 "/>
<path style=" stroke:none;fill-rule:nonzero;fill:rgb(72.938538%,57.249451%,47.059631%);fill-opacity:1;" d="M 375.171875 318.320312 C 373.367188 318.320312 371.257812 317.554688 368.800781 315.578125 C 357.257812 309.625 345.101562 306.605469 332.886719 306.605469 C 324.519531 306.605469 316.132812 308.015625 307.882812 310.863281 C 316.132812 308.015625 324.519531 306.605469 332.886719 306.605469 C 345.101562 306.605469 357.257812 309.625 368.800781 315.578125 C 371.257812 317.554688 373.367188 318.320312 375.171875 318.320312 C 381.074219 318.320312 383.582031 310.128906 383.644531 309.976562 C 383.582031 310.128906 381.074219 318.320312 375.171875 318.320312 "/>
<path style=" stroke:none;fill-rule:nonzero;fill:rgb(28.62854%,12.939453%,5.488586%);fill-opacity:1;" d="M 375.171875 318.320312 C 373.367188 318.320312 371.257812 317.554688 368.800781 315.578125 C 357.257812 309.625 345.101562 306.605469 332.886719 306.605469 C 324.519531 306.605469 316.132812 308.015625 307.882812 310.863281 C 303.9375 312.230469 300.015625 313.921875 296.148438 315.953125 C 295.226562 316.628906 294.382812 316.894531 293.621094 316.894531 C 290.285156 316.894531 288.585938 311.554688 288.578125 311.507812 C 287.78125 309.003906 288.417969 306.878906 289.394531 305.222656 C 289.976562 306.710938 291.503906 309.851562 293.96875 309.851562 C 294.695312 309.851562 295.503906 309.578125 296.394531 308.910156 C 307.867188 302.648438 319.800781 299.554688 331.664062 299.554688 C 343.398438 299.554688 355.074219 302.582031 366.164062 308.535156 C 368.519531 310.511719 370.542969 311.277344 372.269531 311.277344 C 377.933594 311.269531 380.351562 303.085938 380.40625 302.925781 C 381.359375 300.003906 381.472656 297.4375 381.128906 295.199219 C 383.644531 298.226562 385.945312 303.179688 383.644531 309.976562 C 383.582031 310.128906 381.074219 318.320312 375.171875 318.320312 "/>
<path style=" stroke:none;fill-rule:nonzero;fill:rgb(17.649841%,7.058716%,2.349854%);fill-opacity:1;" d="M 460.214844 336.761719 C 460.214844 344.308594 466.339844 350.433594 473.898438 350.433594 C 481.457031 350.433594 487.589844 344.308594 487.589844 336.761719 C 487.589844 329.21875 481.457031 323.097656 473.898438 323.097656 C 466.339844 323.097656 460.214844 329.21875 460.214844 336.761719 "/>
<path style=" stroke:none;fill-rule:nonzero;fill:rgb(100%,100%,100%);fill-opacity:1;" d="M 477.496094 329.847656 C 477.496094 332.714844 479.824219 335.035156 482.691406 335.035156 C 485.5625 335.035156 487.878906 332.714844 487.878906 329.847656 C 487.878906 326.980469 485.5625 324.660156 482.691406 324.660156 C 479.824219 324.660156 477.496094 326.980469 477.496094 329.847656 "/>
<path style=" stroke:none;fill-rule:nonzero;fill:rgb(100%,100%,100%);fill-opacity:1;" d="M 474.457031 336.761719 C 474.457031 338.449219 475.816406 339.804688 477.496094 339.804688 C 479.183594 339.804688 480.542969 338.449219 480.542969 336.761719 C 480.542969 335.082031 479.183594 333.726562 477.496094 333.726562 C 475.816406 333.726562 474.457031 335.082031 474.457031 336.761719 "/>
<path style=" stroke:none;fill-rule:nonzero;fill:rgb(35.688782%,16.468811%,7.449341%);fill-opacity:1;" d="M 514.703125 315.953125 C 490.957031 303.492188 465.273438 303.597656 442.046875 315.578125 C 431.542969 324.0625 427.289062 310.183594 427.214844 309.976562 C 423.0625 297.757812 433.835938 291.476562 433.882812 291.695312 C 462.53125 280.140625 492.417969 284.164062 518.171875 301.707031 C 518.195312 301.636719 524.152344 305.59375 522.277344 311.507812 C 522.269531 311.5625 519.722656 319.59375 514.703125 315.953125 "/>
<path style=" stroke:none;fill-rule:nonzero;fill:rgb(72.938538%,57.249451%,47.059631%);fill-opacity:1;" d="M 435.6875 318.320312 C 429.785156 318.320312 427.273438 310.128906 427.214844 309.976562 C 427.273438 310.128906 429.785156 318.320312 435.6875 318.320312 C 437.480469 318.320312 439.59375 317.554688 442.046875 315.578125 C 453.597656 309.625 465.746094 306.605469 477.972656 306.605469 C 486.332031 306.605469 494.726562 308.015625 502.976562 310.863281 C 494.726562 308.015625 486.332031 306.605469 477.972656 306.605469 C 465.746094 306.605469 453.597656 309.625 442.046875 315.578125 C 439.59375 317.554688 437.480469 318.320312 435.6875 318.320312 M 427.207031 309.9375 C 426.414062 307.601562 426.167969 305.476562 426.300781 303.578125 C 426.167969 305.476562 426.414062 307.601562 427.207031 309.9375 M 426.300781 303.570312 C 426.300781 303.5625 426.300781 303.5625 426.300781 303.554688 C 426.300781 303.5625 426.300781 303.5625 426.300781 303.570312 "/>
<path style=" stroke:none;fill-rule:nonzero;fill:rgb(28.62854%,12.939453%,5.488586%);fill-opacity:1;" d="M 435.6875 318.320312 C 429.785156 318.320312 427.273438 310.128906 427.214844 309.976562 C 427.214844 309.960938 427.207031 309.953125 427.207031 309.9375 C 426.414062 307.601562 426.167969 305.476562 426.300781 303.578125 C 426.300781 303.578125 426.300781 303.570312 426.300781 303.570312 C 426.300781 303.5625 426.300781 303.5625 426.300781 303.554688 C 426.300781 303.546875 426.300781 303.539062 426.300781 303.53125 C 426.546875 299.953125 428.097656 297.167969 429.722656 295.199219 C 429.378906 297.4375 429.5 300.003906 430.453125 302.925781 C 430.503906 303.085938 432.914062 311.277344 438.585938 311.277344 C 440.3125 311.277344 442.339844 310.511719 444.695312 308.535156 C 455.785156 302.582031 467.457031 299.554688 479.191406 299.554688 C 491.058594 299.554688 502.992188 302.648438 514.457031 308.910156 C 515.347656 309.578125 516.160156 309.851562 516.882812 309.851562 C 519.355469 309.851562 520.882812 306.710938 521.464844 305.222656 C 522.4375 306.878906 523.078125 309.003906 522.277344 311.507812 C 522.269531 311.554688 520.574219 316.894531 517.226562 316.894531 C 516.476562 316.894531 515.632812 316.628906 514.703125 315.953125 C 510.84375 313.921875 506.921875 312.230469 502.976562 310.863281 C 494.726562 308.015625 486.332031 306.605469 477.972656 306.605469 C 465.746094 306.605469 453.597656 309.625 442.046875 315.578125 C 439.59375 317.554688 437.480469 318.320312 435.6875 318.320312 "/>
<path style=" stroke:none;fill-rule:nonzero;fill:rgb(78.42865%,45.098877%,31.369019%);fill-opacity:1;" d="M 392.738281 345.128906 C 392.984375 349.03125 393.121094 352.925781 393.160156 356.808594 C 393.238281 360.695312 393.199219 364.574219 393.152344 368.460938 C 393.136719 372.335938 392.960938 376.199219 392.863281 380.078125 C 392.738281 383.949219 392.492188 387.8125 392.316406 391.675781 C 392.140625 395.542969 391.839844 399.398438 391.574219 403.261719 C 391.28125 407.117188 390.964844 410.972656 390.613281 414.828125 C 390.253906 418.675781 389.890625 422.527344 389.4375 426.367188 L 388.769531 432.140625 C 388.535156 434.0625 388.347656 435.988281 388.074219 437.902344 L 388.011719 438.316406 L 387.996094 438.355469 C 387.917969 438.601562 387.789062 439.28125 387.789062 439.796875 C 387.742188 440.339844 387.765625 440.914062 387.835938 441.460938 L 387.957031 442.285156 L 388.1875 443.089844 C 388.3125 443.644531 388.640625 444.101562 388.832031 444.640625 C 389.15625 445.097656 389.4375 445.605469 389.785156 446.082031 C 390.199219 446.503906 390.566406 446.976562 391.011719 447.398438 L 392.492188 448.5625 L 394.191406 449.535156 C 394.742188 449.898438 395.402344 450.105469 396.015625 450.378906 C 396.652344 450.625 397.265625 450.953125 397.933594 451.144531 C 399.285156 451.492188 400.605469 451.988281 402.019531 452.226562 C 403.414062 452.480469 404.828125 452.855469 406.261719 453.007812 C 407.703125 453.191406 409.148438 453.359375 410.613281 453.582031 C 409.171875 453.820312 407.703125 454.003906 406.238281 454.203125 C 404.765625 454.394531 403.277344 454.34375 401.773438 454.417969 C 400.269531 454.496094 398.769531 454.21875 397.246094 454.128906 C 396.484375 454.050781 395.730469 453.835938 394.964844 453.691406 C 394.203125 453.523438 393.429688 453.40625 392.691406 453.078125 C 391.941406 452.785156 391.1875 452.519531 390.445312 452.195312 L 388.28125 450.96875 C 387.582031 450.496094 386.929688 449.921875 386.261719 449.375 C 385.640625 448.769531 385.066406 448.089844 384.519531 447.390625 C 384.074219 446.625 383.523438 445.898438 383.214844 445.054688 L 382.699219 443.804688 L 382.339844 442.507812 C 382.132812 441.636719 381.996094 440.746094 381.957031 439.851562 C 381.902344 438.90625 381.910156 438.132812 382.101562 436.953125 L 382.027344 437.40625 C 382.070312 435.464844 382.203125 433.535156 382.285156 431.601562 L 382.585938 425.800781 C 382.761719 421.9375 383.054688 418.078125 383.332031 414.222656 C 383.621094 410.359375 383.945312 406.511719 384.296875 402.65625 C 384.664062 398.808594 385.011719 394.953125 385.480469 391.105469 C 385.941406 387.265625 386.339844 383.417969 386.851562 379.582031 C 387.398438 375.742188 387.859375 371.902344 388.480469 368.070312 C 389.078125 364.238281 389.683594 360.40625 390.398438 356.582031 C 391.089844 352.757812 391.855469 348.941406 392.738281 345.128906 "/>
<path style=" stroke:none;fill-rule:nonzero;fill:rgb(78.42865%,45.098877%,31.369019%);fill-opacity:1;" d="M 423.707031 437.648438 C 423.707031 437.648438 424.878906 438.402344 425.96875 440.070312 C 426.523438 440.890625 427.058594 441.941406 427.398438 443.183594 C 427.589844 443.796875 427.710938 444.464844 427.757812 445.160156 C 427.867188 445.851562 427.742188 446.59375 427.695312 447.3125 C 427.496094 448.042969 427.421875 448.792969 427.027344 449.460938 C 426.867188 449.796875 426.691406 450.128906 426.515625 450.441406 C 426.292969 450.734375 426.054688 451.015625 425.816406 451.277344 C 425.386719 451.851562 424.820312 452.210938 424.296875 452.554688 C 423.796875 452.941406 423.238281 453.117188 422.746094 453.277344 C 422.246094 453.4375 421.808594 453.621094 421.386719 453.621094 C 420.980469 453.667969 420.613281 453.675781 420.320312 453.683594 C 419.738281 453.683594 419.410156 453.652344 419.410156 453.652344 C 419.410156 453.652344 419.652344 453.382812 420.0625 453 C 420.269531 452.808594 420.503906 452.570312 420.796875 452.351562 C 421.089844 452.144531 421.320312 451.765625 421.632812 451.484375 C 421.925781 451.175781 422.238281 450.871094 422.46875 450.480469 C 422.722656 450.113281 423.023438 449.773438 423.191406 449.34375 C 423.285156 449.136719 423.40625 448.953125 423.515625 448.753906 C 423.566406 448.53125 423.636719 448.320312 423.722656 448.105469 C 423.921875 447.699219 423.929688 447.191406 424.066406 446.746094 C 424.089844 446.25 424.210938 445.78125 424.191406 445.261719 C 424.21875 444.753906 424.226562 444.242188 424.191406 443.726562 C 424.167969 442.699219 424.058594 441.695312 423.988281 440.792969 C 423.796875 439.015625 423.707031 437.648438 423.707031 437.648438 "/>
<path style=" stroke:none;fill-rule:nonzero;fill:rgb(78.42865%,45.098877%,31.369019%);fill-opacity:1;" d="M 387.136719 533.6875 C 387.136719 533.6875 387.75 534.039062 388.824219 534.578125 C 389.914062 535.105469 391.441406 535.832031 393.324219 536.523438 C 394.234375 536.90625 395.289062 537.167969 396.339844 537.542969 C 397.4375 537.804688 398.5625 538.148438 399.761719 538.332031 C 400.351562 538.4375 400.957031 538.546875 401.566406 538.660156 C 402.179688 538.714844 402.808594 538.777344 403.429688 538.828125 C 404.679688 539.023438 405.960938 538.914062 407.230469 538.960938 C 408.511719 538.9375 409.777344 538.753906 411.035156 538.691406 C 412.277344 538.429688 413.515625 538.253906 414.710938 538.03125 C 415.886719 537.6875 417.042969 537.414062 418.140625 537.136719 C 419.230469 536.808594 420.238281 536.402344 421.195312 536.101562 C 422.15625 535.78125 423.054688 535.503906 423.796875 535.152344 C 424.558594 534.8125 425.25 534.5625 425.808594 534.339844 C 426.953125 533.902344 427.636719 533.6875 427.636719 533.6875 C 427.636719 533.6875 427.160156 534.191406 426.261719 535.027344 C 425.808594 535.449219 425.265625 535.964844 424.605469 536.523438 C 423.976562 537.121094 423.175781 537.679688 422.269531 538.230469 C 421.367188 538.792969 420.414062 539.472656 419.308594 540.011719 C 418.1875 540.515625 417 541.058594 415.738281 541.566406 C 414.441406 541.972656 413.070312 542.316406 411.679688 542.660156 C 410.253906 542.855469 408.792969 543.058594 407.328125 543.105469 C 405.863281 543.046875 404.382812 543.128906 402.960938 542.824219 C 402.246094 542.714844 401.542969 542.609375 400.84375 542.460938 C 400.167969 542.261719 399.5 542.070312 398.839844 541.878906 C 397.511719 541.527344 396.339844 540.898438 395.203125 540.410156 C 394.105469 539.828125 393.070312 539.265625 392.210938 538.617188 C 391.304688 538.039062 390.558594 537.382812 389.90625 536.8125 C 389.261719 536.238281 388.734375 535.6875 388.328125 535.226562 C 387.496094 534.300781 387.136719 533.6875 387.136719 533.6875 "/>
<path style=" stroke:none;fill-rule:nonzero;fill:rgb(78.42865%,45.098877%,31.369019%);fill-opacity:1;" d="M 399.355469 549.207031 C 400.199219 552.71875 402.476562 555.253906 405.1875 555.253906 L 409.585938 555.253906 C 412.292969 555.253906 414.574219 552.71875 415.425781 549.207031 L 399.355469 549.207031 "/>
<path style=" stroke:none;fill-rule:nonzero;fill:rgb(18.03894%,1.568604%,2.749634%);fill-opacity:1;" d="M 455.25 484.15625 L 359.523438 484.15625 C 359.523438 484.15625 366.738281 527.800781 405.984375 527.519531 C 405.984375 527.519531 439.875 530.667969 455.25 484.15625 "/>
<path style=" stroke:none;fill-rule:nonzero;fill:rgb(100%,100%,100%);fill-opacity:1;" d="M 360.359375 484.15625 L 455.25 484.15625 C 455.25 484.15625 450.128906 490.449219 441.726562 497.03125 C 423.667969 511.203125 370.398438 509.445312 360.359375 484.15625 "/>
<path style=" stroke:none;fill-rule:nonzero;fill:rgb(78.42865%,45.098877%,31.369019%);fill-opacity:1;" d="M 462.878906 484.15625 C 462.878906 484.15625 461.128906 484.515625 458.066406 484.976562 C 455.011719 485.441406 450.644531 486.039062 445.402344 486.53125 C 434.917969 487.625 420.949219 488.292969 406.976562 488.300781 C 392.992188 488.300781 379.015625 487.648438 368.542969 486.539062 C 363.300781 486.046875 358.933594 485.449219 355.878906 484.984375 C 352.816406 484.515625 351.066406 484.15625 351.066406 484.15625 C 351.066406 484.15625 352.816406 483.796875 355.878906 483.328125 C 358.933594 482.867188 363.300781 482.261719 368.542969 481.773438 C 379.015625 480.667969 392.992188 480.007812 406.976562 480.007812 C 420.949219 480.023438 434.917969 480.683594 445.402344 481.785156 C 450.644531 482.269531 455.011719 482.875 458.066406 483.335938 C 461.128906 483.796875 462.878906 484.15625 462.878906 484.15625 "/>
</g>
</svg>
