<?xml version="1.0" encoding="UTF-8"?>
<svg xmlns="http://www.w3.org/2000/svg" xmlns:xlink="http://www.w3.org/1999/xlink" width="810pt" height="809.999993pt" viewBox="0 0 810 809.999993" version="1.2">
<defs>
<clipPath id="clip1">
  <path d="M 190.457031 642 L 619 642 L 619 810 L 190.457031 810 Z M 190.457031 642 "/>
</clipPath>
<clipPath id="clip2">
  <path d="M 311 645.335938 L 506 645.335938 L 506 810 L 311 810 Z M 311 645.335938 "/>
</clipPath>
<clipPath id="clip3">
  <path d="M 478 647.554688 L 556 647.554688 L 556 810 L 478 810 Z M 478 647.554688 "/>
</clipPath>
<clipPath id="clip4">
  <path d="M 590 695 L 669.269531 695 L 669.269531 810 L 590 810 Z M 590 695 "/>
</clipPath>
</defs>
<g id="surface1">
<path style=" stroke:none;fill-rule:nonzero;fill:rgb(82.348633%,39.608765%,7.058716%);fill-opacity:1;" d="M 608.152344 481.316406 C 554.859375 589.511719 312.386719 597.832031 175.554688 481.316406 C 238.652344 398.296875 169.769531 216.375 197.488281 162.007812 C 270.648438 18.410156 490.007812 2.097656 538.925781 76.246094 C 573.535156 78.875 599.019531 134.847656 610.675781 173.355469 C 634.710938 252.757812 562.269531 410.527344 608.152344 481.316406 "/>
<g clip-path="url(#clip1)" clip-rule="nonzero">
<path style=" stroke:none;fill-rule:nonzero;fill:rgb(18.03894%,20.388794%,28.239441%);fill-opacity:1;" d="M 601.9375 810 C 611.582031 743.640625 618.855469 695.136719 618.855469 695.136719 C 618.855469 695.136719 537.582031 642.328125 406.214844 642.328125 C 274.832031 642.328125 190.515625 695.136719 190.515625 695.136719 C 190.515625 695.136719 197.039062 743.570312 205.609375 810 L 601.9375 810 "/>
</g>
<g clip-path="url(#clip2)" clip-rule="nonzero">
<path style=" stroke:none;fill-rule:nonzero;fill:rgb(78.42865%,87.059021%,90.589905%);fill-opacity:1;" d="M 496.652344 810 C 511.398438 723.675781 511.214844 651.007812 470.257812 646.203125 C 449.546875 643.777344 428.019531 685.351562 406.214844 685.351562 C 380.730469 685.351562 368.835938 642.683594 343.964844 645.882812 C 303.371094 651.109375 305.777344 723.78125 323.597656 810 L 496.652344 810 "/>
</g>
<path style=" stroke:none;fill-rule:nonzero;fill:rgb(97.648621%,66.668701%,47.059631%);fill-opacity:1;" d="M 350.667969 642.3125 L 406.214844 685.351562 L 458.964844 642.3125 L 458.964844 510.296875 L 350.667969 510.296875 L 350.667969 642.3125 "/>
<path style=" stroke:none;fill-rule:nonzero;fill:rgb(79.998779%,47.059631%,30.979919%);fill-opacity:1;" d="M 404.820312 589.511719 C 375.476562 589.511719 350.667969 562.550781 350.667969 562.550781 L 350.667969 550.449219 C 371.085938 562.074219 391.589844 569.703125 408.476562 569.703125 C 423.179688 569.703125 440.886719 563.902344 458.964844 554.714844 L 458.964844 562.550781 C 458.964844 562.550781 434.167969 589.511719 404.820312 589.511719 "/>
<path style=" stroke:none;fill-rule:nonzero;fill:rgb(97.648621%,66.668701%,47.059631%);fill-opacity:1;" d="M 562.363281 455.492188 C 554.519531 493.460938 461.839844 569.703125 408.476562 569.703125 C 355.074219 569.703125 265.503906 493.460938 256.863281 455.492188 C 240.894531 385.3125 211.203125 212.933594 233.640625 158.246094 C 256.074219 103.554688 301.066406 42.734375 401.105469 42.734375 C 503.371094 42.734375 555.523438 79.03125 575.804688 158.246094 C 596.074219 237.460938 578.679688 376.695312 562.363281 455.492188 "/>
<path style=" stroke:none;fill-rule:nonzero;fill:rgb(97.648621%,66.668701%,47.059631%);fill-opacity:1;" d="M 617.808594 367.515625 C 604.707031 380.953125 575.933594 387.667969 569.949219 374 C 564.488281 361.5 539.574219 354.589844 539.589844 335.144531 C 539.601562 318.710938 574.765625 296.789062 574.765625 296.789062 C 574.765625 296.789062 586.011719 259.355469 614.050781 261.011719 C 640.113281 262.546875 639.136719 289.75 637.136719 308.167969 C 635.128906 326.5625 630.605469 354.382812 617.808594 367.515625 "/>
<path style=" stroke:none;fill-rule:nonzero;fill:rgb(97.648621%,66.668701%,47.059631%);fill-opacity:1;" d="M 198.5 367.515625 C 211.621094 380.953125 240.394531 387.667969 246.378906 374 C 251.839844 361.5 276.753906 354.589844 276.746094 335.144531 C 276.726562 318.710938 241.554688 296.789062 241.554688 296.789062 C 241.554688 296.789062 230.304688 259.355469 202.269531 261.011719 C 176.210938 262.546875 180.6875 290.539062 182.679688 308.941406 C 184.671875 327.34375 185.71875 354.382812 198.5 367.515625 "/>
<path style=" stroke:none;fill-rule:nonzero;fill:rgb(87.449646%,48.239136%,37.649536%);fill-opacity:1;" d="M 405.460938 485.660156 C 384.160156 485.660156 356.960938 459.53125 356.960938 459.53125 L 455.449219 459.53125 C 455.449219 459.53125 426.773438 485.660156 405.460938 485.660156 "/>
<path style=" stroke:none;fill-rule:nonzero;fill:rgb(94.119263%,52.159119%,40.779114%);fill-opacity:1;" d="M 455.449219 459.53125 L 356.960938 459.53125 C 356.960938 459.53125 384.160156 444.414062 405.460938 444.414062 C 426.773438 444.414062 455.449219 459.53125 455.449219 459.53125 "/>
<path style=" stroke:none;fill-rule:nonzero;fill:rgb(79.998779%,47.059631%,30.979919%);fill-opacity:1;" d="M 402.578125 409.082031 L 402.578125 277.066406 L 428.398438 379.5625 L 402.578125 409.082031 "/>
<path style=" stroke:none;fill-rule:nonzero;fill:rgb(82.348633%,39.608765%,7.058716%);fill-opacity:1;" d="M 340.378906 277.066406 C 340.378906 277.066406 322.785156 256.875 303.699219 256.875 C 279.144531 256.875 271.152344 270.070312 271.152344 270.070312 L 269.117188 277.066406 C 269.117188 277.066406 285.109375 266.59375 300.289062 266.644531 C 330.429688 266.722656 340.378906 277.066406 340.378906 277.066406 "/>
<path style=" stroke:none;fill-rule:nonzero;fill:rgb(15.689087%,8.628845%,9.799194%);fill-opacity:1;" d="M 297.550781 315.183594 C 297.550781 327.300781 304.195312 337.113281 312.386719 337.113281 C 320.585938 337.113281 327.21875 327.300781 327.21875 315.183594 C 327.21875 303.070312 320.585938 293.25 312.386719 293.25 C 304.195312 293.25 297.550781 303.070312 297.550781 315.183594 "/>
<path style=" stroke:none;fill-rule:nonzero;fill:rgb(100%,100%,100%);fill-opacity:1;" d="M 300.289062 307 C 300.289062 310.34375 303.007812 313.058594 306.351562 313.058594 C 309.683594 313.058594 312.386719 310.34375 312.386719 307 C 312.386719 303.660156 309.683594 300.957031 306.351562 300.957031 C 303.007812 300.957031 300.289062 303.660156 300.289062 307 "/>
<path style=" stroke:none;fill-rule:nonzero;fill:rgb(100%,100%,100%);fill-opacity:1;" d="M 310.9375 317.480469 C 310.9375 319.558594 312.609375 321.242188 314.6875 321.242188 C 316.765625 321.242188 318.4375 319.558594 318.4375 317.480469 C 318.4375 315.40625 316.765625 313.726562 314.6875 313.726562 C 312.609375 313.726562 310.9375 315.40625 310.9375 317.480469 "/>
<path style=" stroke:none;fill-rule:nonzero;fill:rgb(82.348633%,39.608765%,7.058716%);fill-opacity:1;" d="M 468.328125 277.066406 C 468.328125 277.066406 485.894531 256.875 505.015625 256.875 C 529.582031 256.875 537.546875 270.070312 537.546875 270.070312 L 539.589844 277.066406 C 539.589844 277.066406 523.597656 266.59375 508.417969 266.644531 C 478.285156 266.722656 468.328125 277.066406 468.328125 277.066406 "/>
<path style=" stroke:none;fill-rule:nonzero;fill:rgb(15.689087%,8.628845%,9.799194%);fill-opacity:1;" d="M 511.164062 315.183594 C 511.164062 327.300781 504.511719 337.113281 496.3125 337.113281 C 488.128906 337.113281 481.480469 327.300781 481.480469 315.183594 C 481.480469 303.070312 488.128906 293.25 496.3125 293.25 C 504.511719 293.25 511.164062 303.070312 511.164062 315.183594 "/>
<path style=" stroke:none;fill-rule:nonzero;fill:rgb(100%,100%,100%);fill-opacity:1;" d="M 508.417969 307 C 508.417969 310.34375 505.71875 313.058594 502.367188 313.058594 C 499.03125 313.058594 496.3125 310.34375 496.3125 307 C 496.3125 303.660156 499.03125 300.957031 502.367188 300.957031 C 505.71875 300.957031 508.417969 303.660156 508.417969 307 "/>
<path style=" stroke:none;fill-rule:nonzero;fill:rgb(100%,100%,100%);fill-opacity:1;" d="M 497.769531 317.480469 C 497.769531 319.558594 496.097656 321.242188 494.011719 321.242188 C 491.949219 321.242188 490.277344 319.558594 490.277344 317.480469 C 490.277344 315.40625 491.949219 313.726562 494.011719 313.726562 C 496.097656 313.726562 497.769531 315.40625 497.769531 317.480469 "/>
<g clip-path="url(#clip3)" clip-rule="nonzero">
<path style=" stroke:none;fill-rule:nonzero;fill:rgb(10.978699%,12.159729%,16.859436%);fill-opacity:1;" d="M 484.761719 810 L 528.949219 810 L 541.125 792.402344 L 555.523438 678.539062 L 478.101562 647.710938 C 478.101562 647.710938 493.722656 713.203125 484.761719 810 "/>
</g>
<path style=" stroke:none;fill-rule:nonzero;fill:rgb(10.978699%,12.159729%,16.859436%);fill-opacity:1;" d="M 344.917969 810 C 332.03125 712.769531 336.535156 646.195312 336.535156 646.195312 L 256.863281 683.0625 L 279.039062 810 L 344.917969 810 "/>
<path style=" stroke:none;fill-rule:nonzero;fill:rgb(100%,100%,100%);fill-opacity:1;" d="M 494.339844 685.351562 L 406.214844 685.351562 L 468.449219 625.304688 Z M 494.339844 685.351562 "/>
<path style=" stroke:none;fill-rule:nonzero;fill:rgb(100%,100%,100%);fill-opacity:1;" d="M 316.335938 685.351562 L 406.214844 685.351562 L 340.214844 631.335938 Z M 316.335938 685.351562 "/>
<path style=" stroke:none;fill-rule:nonzero;fill:rgb(14.898682%,16.468811%,23.139954%);fill-opacity:1;" d="M 216.867188 810 C 211.324219 761.324219 202.3125 714.878906 190.621094 695.136719 C 169.996094 704.371094 153.386719 748.140625 140.035156 810 L 216.867188 810 "/>
<g clip-path="url(#clip4)" clip-rule="nonzero">
<path style=" stroke:none;fill-rule:nonzero;fill:rgb(14.898682%,16.468811%,23.139954%);fill-opacity:1;" d="M 669.140625 810 C 655.769531 748.15625 639.171875 704.40625 618.554688 695.164062 C 606.871094 714.894531 596.921875 761.324219 590.445312 810 L 669.140625 810 "/>
</g>
<path style=" stroke:none;fill-rule:nonzero;fill:rgb(96.469116%,60.778809%,44.309998%);fill-opacity:1;" d="M 505.628906 410.078125 C 478.441406 410.078125 456.402344 396.425781 456.402344 379.546875 C 456.402344 362.6875 478.441406 349.023438 505.628906 349.023438 C 532.8125 349.023438 554.859375 362.6875 554.859375 379.546875 C 554.859375 396.425781 532.8125 410.078125 505.628906 410.078125 "/>
<path style=" stroke:none;fill-rule:nonzero;fill:rgb(96.469116%,60.778809%,44.309998%);fill-opacity:1;" d="M 318.4375 410.078125 C 291.257812 410.078125 269.210938 396.425781 269.210938 379.546875 C 269.210938 362.6875 291.257812 349.023438 318.4375 349.023438 C 345.617188 349.023438 367.648438 362.6875 367.648438 379.546875 C 367.648438 396.425781 345.617188 410.078125 318.4375 410.078125 "/>
<path style=" stroke:none;fill-rule:nonzero;fill:rgb(96.469116%,52.938843%,7.058716%);fill-opacity:1;" d="M 589.105469 317.480469 C 618.335938 266.976562 619.21875 199.195312 608.277344 158.246094 C 587.128906 79.03125 533.972656 -0.0898438 427.316406 -0.0898438 C 322.957031 -0.0898438 234.195312 42.554688 175.554688 159.476562 C 145.75 218.882812 141.222656 410.675781 190.515625 523.507812 C 190.515625 523.507812 192.550781 387.6875 304.75 277.066406 C 356.851562 225.703125 436.800781 173.378906 463.589844 148.476562 C 484.570312 202.941406 589.105469 317.480469 589.105469 317.480469 "/>
</g>
</svg>
