<?xml version="1.0" encoding="UTF-8"?>
<svg xmlns="http://www.w3.org/2000/svg" xmlns:xlink="http://www.w3.org/1999/xlink" width="810pt" height="809.999993pt" viewBox="0 0 810 809.999993" version="1.2">
<defs>
<clipPath id="clip1">
  <path d="M 102 0 L 743.992188 0 L 743.992188 809.921875 L 102 809.921875 Z M 102 0 "/>
</clipPath>
<clipPath id="clip2">
  <path d="M 67.492188 658 L 763.230469 658 L 763.230469 809.921875 L 67.492188 809.921875 Z M 67.492188 658 "/>
</clipPath>
</defs>
<g id="surface1">
<g clip-path="url(#clip1)" clip-rule="nonzero">
<path style=" stroke:none;fill-rule:nonzero;fill:rgb(10.978699%,12.939453%,18.03894%);fill-opacity:1;" d="M 584.335938 584.046875 L 585.121094 578.84375 L 558.117188 574.082031 L 556.945312 579.097656 L 522.484375 690.195312 L 574.570312 691.816406 Z M 521.140625 694.359375 L 520.851562 694.363281 L 501.609375 695.449219 C 500.332031 695.523438 499.152344 696.09375 498.300781 697.050781 C 497.445312 698.007812 497.023438 699.234375 497.09375 700.523438 C 497.242188 703.058594 499.347656 705.039062 501.882812 705.039062 L 502.167969 705.035156 L 521.414062 703.910156 C 524.042969 703.765625 526.066406 701.503906 525.914062 698.867188 C 525.773438 696.339844 523.675781 694.359375 521.140625 694.359375 Z M 559.589844 691.914062 C 559.480469 691.914062 559.378906 691.914062 559.257812 691.917969 L 540 693.179688 C 538.734375 693.269531 537.574219 693.851562 536.738281 694.8125 C 535.90625 695.777344 535.496094 697.007812 535.582031 698.273438 C 535.765625 700.757812 537.851562 702.703125 540.335938 702.703125 C 540.449219 702.703125 540.5625 702.695312 540.683594 702.6875 L 559.917969 701.308594 C 562.492188 701.125 564.441406 698.875 564.277344 696.308594 C 564.113281 693.839844 562.054688 691.914062 559.589844 691.914062 Z M 482.667969 696.417969 L 482.433594 696.421875 L 463.183594 697.296875 C 460.515625 697.425781 458.453125 699.691406 458.582031 702.351562 C 458.703125 704.933594 460.816406 706.960938 463.402344 706.960938 L 463.59375 706.953125 L 482.890625 706.046875 C 485.539062 705.925781 487.597656 703.671875 487.476562 701.015625 C 487.363281 698.4375 485.246094 696.417969 482.667969 696.417969 Z M 728.015625 422.65625 C 711.152344 392.257812 718.269531 391.796875 729.644531 357.683594 C 741.011719 323.570312 703.648438 299.210938 695.527344 274.851562 C 687.402344 250.484375 700.398438 214.75 689.03125 188.765625 C 677.65625 162.777344 632.167969 151.40625 625.671875 99.433594 C 619.171875 47.453125 585.195312 37.480469 549.316406 36.089844 C 476.839844 33.269531 470.195312 -9.574219 386.859375 1.976562 C 335.679688 9.074219 338.117188 39.339844 289.378906 53.953125 C 240.640625 68.570312 243.890625 97.8125 234.144531 135.167969 C 224.398438 172.523438 151.289062 187.136719 156.160156 252.109375 C 161.035156 317.078125 175.875 348.960938 123.671875 414.535156 C 68.242188 484.15625 141.542969 550.96875 141.542969 550.96875 L 707.292969 550.503906 C 707.292969 550.503906 771.484375 500.992188 728.015625 422.65625 Z M 703.625 679.121094 C 703.484375 679.121094 703.339844 679.125 703.199219 679.144531 L 693.632812 680.199219 L 693.5625 680.199219 L 693.460938 680.214844 C 691.3125 680.484375 689.785156 682.453125 690.050781 684.601562 C 690.296875 686.558594 691.972656 688.039062 693.949219 688.039062 C 694.113281 688.039062 694.277344 688.027344 694.441406 688.007812 L 704.113281 686.792969 C 706.191406 686.527344 707.691406 684.613281 707.453125 682.542969 C 707.238281 680.589844 705.589844 679.121094 703.625 679.121094 Z M 444.183594 698.058594 L 424.734375 698.734375 C 423.433594 698.78125 422.238281 699.332031 421.351562 700.28125 C 420.464844 701.230469 420.007812 702.46875 420.050781 703.765625 C 420.148438 706.394531 422.28125 708.453125 424.910156 708.453125 L 444.355469 707.757812 C 445.652344 707.714844 446.851562 707.164062 447.730469 706.21875 C 448.613281 705.269531 449.074219 704.03125 449.03125 702.738281 C 448.941406 700.117188 446.8125 698.058594 444.183594 698.058594 Z M 636.363281 685.824219 C 636.234375 685.824219 636.109375 685.828125 635.957031 685.84375 L 616.722656 687.535156 C 614.269531 687.773438 612.472656 689.960938 612.710938 692.417969 C 612.933594 694.71875 614.847656 696.453125 617.15625 696.453125 C 617.300781 696.453125 617.445312 696.441406 617.597656 696.429688 L 636.789062 694.558594 C 639.167969 694.324219 640.929688 692.195312 640.722656 689.816406 C 640.527344 687.539062 638.648438 685.824219 636.363281 685.824219 Z M 606.203125 764.144531 C 605.792969 762.351562 604.222656 761.097656 602.238281 761.097656 C 602.230469 761.097656 602.230469 761.097656 602.230469 761.097656 C 600.0625 761.179688 598.363281 763.003906 598.441406 765.171875 C 598.746094 773.421875 599.65625 781.339844 600.511719 788 C 601.375 794.488281 604.390625 809.914062 604.390625 809.914062 L 612.074219 809.921875 C 612.074219 809.921875 612.128906 809.707031 612.125 809.597656 C 611.957031 801.335938 611.03125 793.398438 610.144531 786.71875 C 609.238281 780.074219 608.0625 772.191406 606.203125 764.144531 Z M 602.527344 693.292969 C 602.34375 690.9375 600.355469 689.09375 597.992188 689.09375 C 597.878906 689.09375 597.761719 689.09375 597.625 689.105469 L 578.382812 690.574219 C 577.148438 690.675781 576.035156 691.253906 575.234375 692.195312 C 574.4375 693.148438 574.054688 694.34375 574.164062 695.574219 C 574.359375 697.949219 576.386719 699.8125 578.769531 699.8125 C 578.898438 699.8125 579.03125 699.804688 579.164062 699.792969 L 598.371094 698.171875 C 600.855469 697.960938 602.710938 695.769531 602.527344 693.292969 Z M 674.6875 682.199219 C 674.554688 682.199219 674.421875 682.207031 674.269531 682.21875 L 655.214844 684.085938 L 655.121094 684.085938 L 655.03125 684.101562 C 652.710938 684.367188 651.046875 686.464844 651.304688 688.777344 C 651.550781 690.917969 653.359375 692.53125 655.507812 692.53125 C 655.664062 692.53125 655.824219 692.527344 655.988281 692.507812 L 675.152344 690.328125 C 677.351562 690.074219 678.960938 688.078125 678.746094 685.878906 C 678.542969 683.785156 676.800781 682.199219 674.6875 682.199219 Z M 222.503906 761.996094 C 222.257812 761.949219 222.011719 761.929688 221.761719 761.929688 C 219.9375 761.929688 218.355469 763.226562 218 765.027344 C 216.441406 772.953125 215.691406 780.75 215.167969 787.335938 C 214.671875 793.886719 214.183594 801.671875 214.324219 809.761719 C 214.324219 809.8125 214.324219 809.914062 214.324219 809.914062 L 222.207031 809.914062 C 222.207031 809.914062 224.3125 794.53125 224.855469 788.101562 C 225.382812 781.523438 225.882812 773.710938 225.605469 765.628906 C 225.539062 763.835938 224.265625 762.339844 222.503906 761.996094 Z M 217.238281 704.566406 C 217.289062 702.269531 215.464844 700.371094 213.15625 700.320312 L 193.816406 699.902344 C 191.636719 699.902344 189.875 701.605469 189.792969 703.785156 C 189.753906 704.863281 190.140625 705.882812 190.871094 706.667969 C 191.605469 707.460938 192.601562 707.910156 193.675781 707.949219 L 213.085938 708.625 C 215.332031 708.625 217.195312 706.800781 217.238281 704.566406 Z M 136.277344 697.960938 L 126.546875 697.460938 L 126.371094 697.460938 C 124.566406 697.460938 123.054688 698.875 122.9375 700.675781 C 122.871094 701.59375 123.171875 702.480469 123.773438 703.171875 C 124.378906 703.867188 125.21875 704.285156 126.136719 704.347656 L 135.925781 705.015625 L 136.109375 705.019531 C 137.988281 705.019531 139.539062 703.550781 139.632812 701.667969 C 139.679688 700.730469 139.363281 699.824219 138.726562 699.121094 C 138.09375 698.425781 137.234375 698.011719 136.277344 697.960938 Z M 174.699219 699.402344 L 155.324219 698.761719 C 153.355469 698.761719 151.738281 700.300781 151.636719 702.269531 C 151.535156 704.304688 153.105469 706.039062 155.140625 706.140625 L 174.589844 707.117188 C 176.679688 707.117188 178.371094 705.484375 178.449219 703.386719 C 178.480469 702.351562 178.105469 701.378906 177.402344 700.625 C 176.699219 699.871094 175.742188 699.433594 174.699219 699.402344 Z M 328.59375 700.84375 L 309.355469 700.972656 C 308.117188 700.972656 306.964844 701.460938 306.089844 702.328125 C 305.222656 703.203125 304.746094 704.363281 304.746094 705.597656 C 304.753906 708.132812 306.828125 710.195312 309.359375 710.195312 L 328.671875 710.160156 C 331.238281 710.140625 333.316406 708.035156 333.296875 705.46875 C 333.277344 702.921875 331.191406 700.84375 328.59375 700.84375 Z M 405.539062 699.355469 C 405.539062 699.355469 386.292969 699.882812 386.292969 699.882812 C 385.019531 699.90625 383.828125 700.433594 382.949219 701.351562 C 382.066406 702.277344 381.597656 703.488281 381.628906 704.761719 C 381.6875 707.339844 383.828125 709.4375 386.402344 709.4375 L 405.8125 708.992188 C 408.46875 708.917969 410.570312 706.699219 410.5 704.046875 C 410.433594 701.414062 408.316406 699.355469 405.539062 699.355469 Z M 251.636719 700.878906 L 232.320312 700.65625 C 230.027344 700.65625 228.121094 702.519531 228.070312 704.8125 C 228.042969 705.945312 228.460938 707.023438 229.246094 707.847656 C 230.03125 708.664062 231.089844 709.132812 232.230469 709.15625 L 251.597656 709.582031 C 253.96875 709.582031 255.925781 707.648438 255.953125 705.28125 C 255.964844 704.121094 255.527344 703.023438 254.710938 702.1875 C 253.898438 701.359375 252.816406 700.894531 251.636719 700.878906 Z M 367.074219 700.300781 C 367.066406 700.300781 347.832031 700.625 347.832031 700.625 C 346.578125 700.644531 345.40625 701.144531 344.527344 702.042969 C 343.652344 702.9375 343.175781 704.121094 343.195312 705.375 C 343.226562 707.933594 345.332031 710.011719 347.890625 710.011719 L 367.246094 709.773438 C 369.855469 709.726562 371.941406 707.566406 371.902344 704.957031 C 371.859375 702.390625 369.734375 700.300781 367.074219 700.300781 Z M 290.117188 701.023438 L 270.84375 701.003906 C 268.417969 701.003906 266.421875 702.972656 266.394531 705.402344 C 266.371094 707.851562 268.339844 709.875 270.792969 709.898438 L 290.128906 710.113281 C 292.632812 710.113281 294.671875 708.082031 294.671875 705.570312 C 294.679688 704.355469 294.203125 703.214844 293.347656 702.351562 C 292.484375 701.5 291.34375 701.023438 290.117188 701.023438 Z M 264.894531 581.074219 L 304.261719 693.1875 L 245.070312 695.148438 L 237.433594 586.15625 L 236.445312 579.636719 L 263.457031 574.871094 L 264.894531 581.074219 "/>
</g>
<path style=" stroke:none;fill-rule:nonzero;fill:rgb(95.289612%,74.508667%,44.709778%);fill-opacity:1;" d="M 693.707031 681.820312 L 703.378906 680.753906 C 704.601562 680.621094 705.703125 681.496094 705.84375 682.726562 C 705.980469 683.933594 705.109375 685.03125 703.902344 685.183594 L 694.238281 686.398438 C 692.972656 686.558594 691.820312 685.660156 691.660156 684.398438 C 691.5 683.128906 692.402344 681.984375 693.664062 681.820312 C 693.667969 681.820312 693.699219 681.820312 693.707031 681.820312 Z M 655.273438 685.710938 L 674.429688 683.835938 L 674.449219 683.835938 C 675.796875 683.699219 677.003906 684.6875 677.128906 686.039062 C 677.261719 687.375 676.292969 688.566406 674.960938 688.71875 L 655.804688 690.890625 C 654.371094 691.058594 653.078125 690.023438 652.921875 688.597656 C 652.757812 687.167969 653.785156 685.875 655.214844 685.710938 C 655.222656 685.710938 655.234375 685.710938 655.242188 685.710938 Z M 616.925781 689.144531 L 636.101562 687.457031 L 636.121094 687.457031 C 637.636719 687.320312 638.972656 688.445312 639.105469 689.960938 C 639.238281 691.46875 638.128906 692.800781 636.628906 692.945312 L 617.441406 694.820312 C 615.867188 694.972656 614.472656 693.824219 614.320312 692.261719 C 614.171875 690.695312 615.316406 689.300781 616.882812 689.144531 Z M 578.5625 692.183594 L 597.75 690.722656 L 597.761719 690.722656 C 599.378906 690.601562 600.785156 691.804688 600.90625 693.421875 C 601.03125 695.023438 599.835938 696.421875 598.230469 696.554688 L 579.023438 698.179688 C 577.375 698.316406 575.917969 697.09375 575.78125 695.441406 C 575.640625 693.78125 576.863281 692.332031 578.523438 692.191406 L 578.542969 692.183594 Z M 540.152344 694.792969 L 559.359375 693.539062 L 559.378906 693.539062 C 561.078125 693.425781 562.546875 694.710938 562.660156 696.410156 C 562.769531 698.101562 561.496094 699.566406 559.804688 699.691406 L 540.5625 701.066406 C 538.835938 701.195312 537.332031 699.890625 537.207031 698.160156 C 537.078125 696.429688 538.382812 694.921875 540.113281 694.792969 Z M 501.722656 697.070312 L 520.945312 695.984375 L 520.964844 695.984375 C 522.707031 695.882812 524.195312 697.222656 524.296875 698.964844 C 524.390625 700.707031 523.066406 702.195312 521.320312 702.296875 L 502.074219 703.410156 C 500.316406 703.511719 498.816406 702.175781 498.714844 700.425781 C 498.613281 698.671875 499.949219 697.171875 501.707031 697.070312 Z M 463.277344 698.914062 L 482.503906 698.046875 L 482.523438 698.046875 C 484.285156 697.960938 485.78125 699.324219 485.855469 701.09375 C 485.9375 702.855469 484.582031 704.347656 482.8125 704.425781 L 463.554688 705.332031 C 461.789062 705.414062 460.28125 704.050781 460.195312 702.277344 C 460.113281 700.503906 461.484375 699 463.257812 698.914062 Z M 424.816406 700.359375 L 444.050781 699.6875 L 444.070312 699.6875 C 445.851562 699.621094 447.34375 701.015625 447.410156 702.796875 C 447.472656 704.578125 446.078125 706.074219 444.296875 706.136719 L 425.027344 706.832031 C 423.238281 706.894531 421.738281 705.496094 421.671875 703.710938 C 421.609375 701.921875 423.003906 700.421875 424.792969 700.359375 Z M 386.339844 701.503906 L 405.578125 700.980469 L 405.589844 700.980469 C 407.359375 700.929688 408.828125 702.320312 408.878906 704.089844 C 408.929688 705.851562 407.535156 707.320312 405.769531 707.371094 L 405.753906 707.371094 L 386.476562 707.808594 C 384.734375 707.851562 383.289062 706.472656 383.25 704.730469 C 383.207031 702.988281 384.589844 701.542969 386.332031 701.503906 Z M 347.851562 702.246094 L 367.09375 701.921875 L 367.109375 701.921875 C 368.828125 701.890625 370.25 703.265625 370.28125 704.984375 C 370.304688 706.707031 368.9375 708.125 367.21875 708.152344 L 367.199219 708.152344 L 347.929688 708.390625 C 346.230469 708.410156 344.835938 707.054688 344.816406 705.355469 C 344.796875 703.660156 346.15625 702.265625 347.851562 702.246094 Z M 309.359375 702.59375 L 328.605469 702.46875 L 328.621094 702.46875 C 330.292969 702.460938 331.660156 703.8125 331.675781 705.484375 C 331.6875 707.15625 330.335938 708.523438 328.664062 708.535156 L 328.652344 708.535156 L 309.367188 708.574219 C 307.71875 708.582031 306.375 707.246094 306.371094 705.589844 C 306.371094 703.945312 307.707031 702.601562 309.355469 702.59375 Z M 270.863281 702.625 L 290.117188 702.644531 L 290.128906 702.644531 C 291.742188 702.644531 293.054688 703.957031 293.050781 705.570312 C 293.050781 707.1875 291.738281 708.5 290.121094 708.492188 L 290.097656 708.492188 L 270.8125 708.277344 C 269.253906 708.257812 268 706.984375 268.019531 705.417969 C 268.035156 703.867188 269.296875 702.621094 270.84375 702.625 Z M 232.371094 702.277344 L 251.617188 702.5 L 251.628906 702.5 C 253.136719 702.519531 254.347656 703.753906 254.328125 705.261719 C 254.3125 706.769531 253.074219 707.980469 251.566406 707.960938 L 251.542969 707.960938 L 232.265625 707.535156 C 230.8125 707.503906 229.660156 706.300781 229.691406 704.851562 C 229.722656 703.40625 230.914062 702.257812 232.351562 702.277344 Z M 193.886719 701.523438 L 213.125 701.941406 L 213.136719 701.941406 C 214.539062 701.972656 215.648438 703.132812 215.617188 704.527344 C 215.589844 705.925781 214.429688 707.035156 213.03125 707.003906 C 213.023438 707.003906 213.003906 707.003906 213 707.003906 L 193.734375 706.324219 C 192.402344 706.28125 191.371094 705.167969 191.414062 703.84375 C 191.464844 702.523438 192.554688 701.5 193.867188 701.523438 Z M 155.414062 700.382812 L 174.648438 701.023438 L 174.660156 701.023438 C 175.894531 701.0625 176.863281 702.101562 176.828125 703.335938 C 176.78125 704.566406 175.75 705.535156 174.515625 705.496094 C 174.507812 705.496094 174.480469 705.496094 174.476562 705.496094 L 155.222656 704.527344 C 154.082031 704.46875 153.203125 703.492188 153.257812 702.351562 C 153.316406 701.21875 154.265625 700.34375 155.394531 700.382812 Z M 126.496094 699.085938 L 136.1875 699.585938 L 136.207031 699.585938 C 137.257812 699.636719 138.070312 700.535156 138.011719 701.585938 C 137.960938 702.636719 137.0625 703.449219 136.007812 703.390625 C 136.003906 703.390625 135.984375 703.390625 135.976562 703.390625 L 126.25 702.726562 C 125.242188 702.664062 124.480469 701.789062 124.550781 700.78125 C 124.621094 699.789062 125.472656 699.035156 126.464844 699.085938 Z M 476.722656 336.546875 C 467.476562 332.1875 461.996094 323.527344 461.527344 314.308594 C 456.027344 316.949219 453.125 319.078125 453.125 319.078125 C 468.082031 279.714844 539.621094 284.816406 550.550781 294.535156 C 558.074219 301.21875 551.945312 311.121094 546.824219 309.671875 C 535.527344 306.464844 525.09375 304.875 515.613281 304.363281 C 517.769531 310.730469 517.414062 317.894531 513.992188 324.410156 C 507.089844 337.554688 490.398438 342.992188 476.722656 336.546875 Z M 414.253906 363.890625 C 413.246094 363.875 412.402344 363.183594 412.15625 362.257812 L 412.136719 362.1875 C 411.320312 359.152344 410.667969 356.132812 409.878906 353.148438 C 409.140625 350.148438 408.285156 347.199219 407.421875 344.246094 C 406.558594 341.292969 405.550781 338.386719 404.53125 335.476562 C 403.5 332.605469 402.351562 329.652344 401.230469 326.9375 L 401.171875 326.796875 C 400.683594 325.617188 401.242188 324.273438 402.421875 323.789062 C 403.421875 323.375 404.542969 323.71875 405.160156 324.554688 C 407.207031 327.339844 408.726562 330.179688 410.121094 333.175781 C 411.503906 336.15625 412.667969 339.226562 413.613281 342.363281 C 415.515625 348.628906 416.648438 355.167969 416.515625 361.71875 C 416.496094 362.949219 415.484375 363.917969 414.253906 363.890625 Z M 367.515625 336.546875 C 353.835938 342.992188 337.148438 337.554688 330.242188 324.410156 C 326.828125 317.894531 326.472656 310.730469 328.625 304.363281 C 319.140625 304.875 308.714844 306.464844 297.410156 309.671875 C 292.296875 311.121094 286.167969 301.21875 293.683594 294.535156 C 304.613281 284.816406 376.15625 279.714844 391.109375 319.078125 C 391.109375 319.078125 388.207031 316.949219 382.707031 314.308594 C 382.238281 323.527344 376.761719 332.1875 367.515625 336.546875 Z M 293.605469 273.101562 C 309.125 262.734375 343.796875 257.25 374.804688 264.78125 C 381.605469 266.429688 381.078125 277.871094 365.265625 275.609375 C 347.828125 273.101562 319.914062 273.375 293.855469 274.953125 C 291.941406 275.066406 292.015625 274.160156 293.605469 273.101562 Z M 270.097656 313.738281 C 269.949219 315.386719 269.796875 317.027344 269.578125 318.648438 C 269.398438 319.910156 268.234375 320.789062 266.972656 320.621094 C 265.90625 320.46875 265.117188 319.617188 264.996094 318.597656 L 264.980469 318.445312 C 264.796875 316.902344 264.695312 315.359375 264.597656 313.828125 L 264.09375 309.273438 C 263.824219 307.523438 263.554688 305.773438 263.226562 304.050781 C 262.960938 304.230469 262.707031 304.417969 262.460938 304.628906 C 261.414062 305.585938 260.46875 306.71875 259.628906 308.035156 C 258.777344 309.347656 258.054688 310.84375 257.351562 312.390625 L 255.3125 317.160156 L 255.222656 317.371094 C 254.742188 318.503906 253.421875 319.027344 252.289062 318.542969 C 251.492188 318.199219 250.988281 317.4375 250.9375 316.628906 C 250.804688 314.417969 251.085938 312.453125 251.617188 310.414062 C 252.167969 308.398438 252.953125 306.402344 254.171875 304.546875 C 255.382812 302.703125 256.960938 300.953125 258.980469 299.679688 C 259.875 299.136719 260.84375 298.734375 261.839844 298.445312 C 261.191406 296.285156 260.433594 294.179688 259.480469 292.183594 C 258.839844 290.898438 258.1875 289.601562 257.414062 288.414062 C 257.046875 287.792969 256.636719 287.222656 256.222656 286.652344 C 255.839844 286.128906 255.3125 285.5 255.027344 285.152344 L 254.714844 284.757812 C 253.957031 283.828125 254.101562 282.453125 255.03125 281.699219 C 255.761719 281.109375 256.75 281.066406 257.515625 281.515625 C 258.519531 282.105469 259.121094 282.597656 259.84375 283.207031 C 260.507812 283.800781 261.15625 284.421875 261.730469 285.082031 C 262.929688 286.394531 263.910156 287.832031 264.824219 289.316406 C 266.605469 292.296875 267.820312 295.535156 268.671875 298.816406 C 269.5625 302.101562 269.929688 305.453125 270.121094 308.773438 C 270.179688 310.433594 270.128906 312.089844 270.097656 313.738281 Z M 572.585938 307.414062 C 572.777344 304.097656 573.128906 300.746094 574.042969 297.46875 C 574.910156 294.191406 576.117188 290.957031 577.894531 287.964844 C 578.800781 286.476562 579.785156 285.039062 580.964844 283.71875 C 581.539062 283.054688 582.167969 282.414062 582.832031 281.820312 C 583.550781 281.199219 584.144531 280.699219 585.144531 280.082031 C 586.21875 279.425781 587.625 279.761719 588.277344 280.832031 C 588.816406 281.699219 588.695312 282.78125 588.0625 283.515625 L 587.746094 283.878906 C 587.460938 284.203125 586.925781 284.828125 586.527344 285.34375 C 586.121094 285.914062 585.691406 286.457031 585.324219 287.070312 C 584.523438 288.25 583.878906 289.550781 583.226562 290.828125 C 582.273438 292.832031 581.507812 294.941406 580.863281 297.101562 C 581.863281 297.386719 582.839844 297.777344 583.738281 298.316406 C 585.761719 299.597656 587.351562 301.332031 588.542969 303.195312 C 589.746094 305.066406 590.539062 307.046875 591.089844 309.0625 C 591.628906 311.097656 591.9375 313.054688 591.871094 315.257812 C 591.832031 316.539062 590.761719 317.546875 589.480469 317.507812 C 588.53125 317.476562 587.726562 316.875 587.394531 316.046875 L 587.308594 315.816406 C 586.699219 314.285156 586.050781 312.566406 585.375 311.035156 C 584.671875 309.492188 583.960938 307.984375 583.085938 306.6875 C 582.222656 305.382812 581.292969 304.242188 580.253906 303.285156 C 580.007812 303.074219 579.757812 302.886719 579.5 302.707031 C 579.171875 304.425781 578.902344 306.175781 578.632812 307.921875 C 578.449219 309.429688 578.296875 310.953125 578.09375 312.472656 C 577.972656 314.003906 577.859375 315.542969 577.636719 317.101562 L 577.617188 317.242188 C 577.445312 318.460938 576.332031 319.300781 575.113281 319.128906 C 574.132812 318.992188 573.390625 318.222656 573.238281 317.292969 C 572.972656 315.671875 572.808594 314.03125 572.644531 312.390625 C 572.59375 310.742188 572.542969 309.082031 572.585938 307.414062 Z M 629.042969 592.71875 C 616.652344 590.21875 601.273438 587.203125 584.335938 584.046875 L 568.441406 689.21875 L 531.90625 686.835938 L 556.945312 579.097656 C 541.769531 576.445312 525.988281 573.832031 510.414062 571.488281 L 500.867188 460.878906 C 531.558594 431.589844 558.042969 388.40625 566.261719 338.664062 C 570.328125 339.929688 574.570312 340.628906 578.769531 340.628906 C 600.285156 340.628906 617.726562 323.191406 617.726562 301.675781 C 617.726562 280.171875 600.285156 262.734375 578.769531 262.734375 C 578.1875 262.734375 577.625 262.753906 577.054688 262.773438 C 573.902344 263.761719 570.507812 264.402344 566.851562 264.644531 C 552.160156 265.613281 538.269531 265.136719 525.171875 263.503906 C 536.117188 265.5625 545.445312 268.933594 551.6875 273.101562 C 553.269531 274.160156 553.347656 275.066406 551.4375 274.953125 C 525.378906 273.375 497.464844 273.101562 480.019531 275.609375 C 464.207031 277.871094 463.683594 266.429688 470.480469 264.78125 C 485.632812 261.101562 501.648438 260.539062 515.882812 262.121094 C 448.777344 250.550781 403.835938 207.730469 380.800781 169.222656 C 372.984375 217.480469 338.636719 271.878906 275.210938 265.992188 C 271.964844 265.695312 268.875 264.5625 265.953125 262.742188 C 265.789062 262.742188 265.628906 262.734375 265.464844 262.734375 C 243.957031 262.734375 226.507812 280.171875 226.507812 301.675781 C 226.507812 323.191406 243.957031 340.628906 265.464844 340.628906 C 269.785156 340.628906 274.144531 339.886719 278.308594 338.554688 C 286.269531 387.101562 311.515625 429.738281 341.121094 459.136719 L 329.355469 570.46875 C 307.757812 573.617188 285.585938 577.355469 264.894531 581.074219 L 289.664062 687.636719 L 253.125 690.011719 L 237.433594 586.15625 C 224.121094 588.683594 212.015625 591.074219 201.859375 593.105469 C 141.605469 605.167969 104.832031 666.5625 121.839844 725.597656 C 127.855469 746.480469 145.90625 809.125 145.90625 809.125 L 215.945312 809.125 C 215.84375 801.867188 216.238281 794.660156 216.78125 787.453125 C 217.378906 780.054688 218.152344 772.667969 219.589844 765.335938 C 219.824219 764.132812 220.988281 763.355469 222.195312 763.589844 C 223.226562 763.789062 223.949219 764.679688 223.980469 765.683594 C 224.234375 773.15625 223.828125 780.574219 223.238281 787.972656 C 222.644531 795.046875 221.890625 802.101562 220.6875 809.125 L 605.886719 809.125 C 604.203125 802.070312 603.074219 794.9375 602.125 787.789062 C 601.160156 780.265625 600.34375 772.722656 600.0625 765.109375 C 600.019531 763.835938 601.015625 762.765625 602.289062 762.71875 C 603.414062 762.675781 604.378906 763.449219 604.625 764.507812 C 606.335938 771.933594 607.515625 779.421875 608.542969 786.933594 C 609.511719 794.292969 610.304688 801.664062 610.480469 809.125 L 684.398438 809.125 C 684.398438 809.125 702.554688 746.113281 708.605469 725.117188 C 725.5625 666.257812 689.09375 604.839844 629.042969 592.71875 "/>
<path style=" stroke:none;fill-rule:nonzero;fill:rgb(99.609375%,98.039246%,89.7995%);fill-opacity:1;" d="M 377.390625 346.40625 C 388.367188 341.269531 394.691406 331.027344 391.109375 319.085938 L 391.066406 319.054688 C 390.835938 318.882812 387.980469 316.84375 382.707031 314.308594 C 382.675781 314.878906 382.632812 315.457031 382.5625 316.027344 C 382.5625 316.027344 382.5625 316.03125 382.5625 316.039062 C 382.359375 317.742188 381.984375 319.414062 381.445312 321.039062 C 381.441406 321.042969 381.441406 321.058594 381.433594 321.0625 C 381.273438 321.542969 381.097656 322.019531 380.90625 322.488281 C 380.855469 322.617188 380.804688 322.75 380.75 322.875 C 380.566406 323.320312 380.367188 323.75 380.160156 324.179688 C 380.101562 324.300781 380.039062 324.414062 379.976562 324.535156 C 379.59375 325.296875 379.171875 326.035156 378.707031 326.757812 C 378.585938 326.941406 378.480469 327.132812 378.359375 327.308594 C 378.15625 327.613281 377.933594 327.90625 377.71875 328.203125 C 377.53125 328.464844 377.332031 328.722656 377.128906 328.976562 C 376.921875 329.234375 376.710938 329.496094 376.488281 329.75 C 376.230469 330.046875 375.964844 330.339844 375.691406 330.628906 C 375.5 330.832031 375.316406 331.035156 375.113281 331.238281 C 374.652344 331.699219 374.164062 332.152344 373.65625 332.585938 C 373.5 332.714844 373.335938 332.839844 373.183594 332.96875 C 372.78125 333.289062 372.378906 333.609375 371.960938 333.910156 C 371.757812 334.058594 371.554688 334.203125 371.34375 334.34375 C 370.925781 334.628906 370.5 334.898438 370.0625 335.160156 C 369.867188 335.28125 369.679688 335.402344 369.476562 335.515625 C 368.839844 335.882812 368.1875 336.230469 367.515625 336.546875 C 353.835938 342.992188 337.148438 337.554688 330.242188 324.410156 C 329.855469 323.667969 329.511719 322.917969 329.203125 322.160156 C 329.113281 321.945312 329.039062 321.722656 328.949219 321.5 C 328.738281 320.9375 328.542969 320.371094 328.371094 319.800781 C 328.304688 319.582031 328.238281 319.359375 328.175781 319.136719 C 327.984375 318.445312 327.828125 317.742188 327.695312 317.046875 C 327.683594 316.976562 327.664062 316.914062 327.65625 316.84375 C 327.511719 316.019531 327.410156 315.203125 327.347656 314.378906 C 327.347656 314.316406 327.347656 314.257812 327.339844 314.203125 C 327.289062 313.449219 327.277344 312.6875 327.289062 311.933594 C 327.296875 311.832031 327.296875 311.730469 327.300781 311.628906 C 327.382812 309.144531 327.832031 306.699219 328.625 304.363281 C 321.273438 304.753906 313.355469 305.820312 304.90625 307.757812 C 324.429688 348.691406 358.09375 355.445312 377.390625 346.40625 Z M 571.386719 262.199219 C 570.734375 261.816406 569.898438 262.039062 569.519531 262.6875 C 568.480469 264.472656 567.746094 266.105469 567.023438 267.855469 C 566.304688 269.578125 565.628906 271.308594 565.011719 273.058594 C 563.765625 276.554688 562.71875 280.097656 561.6875 283.644531 C 559.652344 290.738281 558.097656 297.945312 556.558594 305.136719 C 555.832031 308.738281 555.179688 312.359375 554.523438 315.976562 C 553.953125 319.605469 553.296875 323.222656 552.808594 326.859375 L 551.355469 337.777344 C 551.199219 339.289062 551.035156 340.796875 550.867188 342.3125 C 432.128906 382.722656 317.460938 349.871094 296.027344 343.011719 C 295.71875 341.273438 295.402344 339.542969 295.089844 337.808594 L 292.910156 327.0625 C 291.375 319.910156 289.695312 312.789062 287.816406 305.710938 C 286.84375 302.183594 285.882812 298.648438 284.835938 295.132812 L 283.265625 289.859375 C 282.714844 288.105469 282.097656 286.375 281.523438 284.625 C 280.285156 281.160156 279.089844 277.683594 277.59375 274.273438 C 277.21875 273.425781 276.882812 272.570312 276.472656 271.726562 L 275.199219 269.21875 C 274.449219 267.527344 273.234375 265.929688 272.1875 264.339844 C 271.792969 263.75 271.015625 263.546875 270.386719 263.894531 C 269.730469 264.261719 269.496094 265.09375 269.863281 265.746094 L 269.976562 265.953125 C 271.636719 268.9375 273.070312 272.1875 274.175781 275.617188 C 275.414062 278.980469 276.453125 282.453125 277.480469 285.914062 C 279.5 292.855469 281.390625 299.875 283.136719 306.921875 L 288.398438 328.09375 L 291.003906 338.703125 L 292.878906 346.132812 C 294.429688 359.476562 300.835938 401.285156 322.683594 436.140625 C 322.136719 435.46875 321.589844 434.800781 321.058594 434.117188 C 313.988281 425.160156 308.09375 415.25 302.878906 405.011719 C 297.585938 394.796875 293.15625 384.128906 289.09375 373.320312 C 287.0625 367.914062 285.191406 362.449219 283.429688 356.941406 C 281.636719 351.457031 279.996094 345.878906 278.519531 340.335938 L 278.503906 340.292969 C 278.320312 339.609375 277.632812 339.164062 276.921875 339.308594 C 276.179688 339.457031 275.699219 340.179688 275.84375 340.917969 C 278.132812 352.429688 281.34375 363.65625 285.097656 374.746094 C 288.847656 385.832031 293.355469 396.667969 298.570312 407.191406 C 301.160156 412.460938 304.109375 417.5625 307.207031 422.566406 C 310.316406 427.574219 313.6875 432.433594 317.449219 437.007812 C 324.109375 445.261719 332.046875 452.714844 341.3125 458.117188 C 374.214844 480.753906 471.894531 494.277344 517.777344 441.777344 C 523.382812 436.105469 528.371094 429.855469 532.964844 423.359375 L 537.230469 416.96875 C 538.625 414.820312 539.859375 412.578125 541.183594 410.382812 L 543.136719 407.078125 L 544.960938 403.707031 C 546.152344 401.445312 547.433594 399.226562 548.554688 396.933594 L 551.921875 390.046875 L 555.078125 383.070312 C 556.148438 380.757812 557.097656 378.382812 558.09375 376.039062 C 559.09375 373.695312 560.058594 371.332031 560.9375 368.9375 C 564.574219 359.402344 567.910156 349.789062 570.519531 339.875 C 570.734375 339.03125 570.277344 338.152344 569.441406 337.867188 C 568.566406 337.5625 567.617188 338.03125 567.320312 338.90625 L 567.308594 338.941406 C 565.679688 343.675781 563.992188 348.453125 562.175781 353.152344 C 561.3125 355.515625 560.40625 357.875 559.472656 360.21875 C 558.566406 362.566406 557.609375 364.898438 556.640625 367.226562 C 552.8125 376.550781 548.769531 385.78125 544.238281 394.765625 C 541.097656 401.089844 537.746094 407.296875 534.152344 413.355469 C 544.742188 385.566406 555.730469 340.628906 555.730469 340.628906 C 555.5 340.710938 555.273438 340.785156 555.042969 340.863281 C 555.824219 336.441406 556.585938 332.011719 557.375 327.59375 C 558.65625 320.410156 559.949219 313.230469 561.300781 306.066406 C 562.617188 298.902344 564.171875 291.785156 565.792969 284.707031 C 566.621094 281.171875 567.503906 277.644531 568.503906 274.171875 C 569.457031 270.726562 570.570312 267.140625 571.882812 264.066406 L 571.953125 263.914062 C 572.21875 263.289062 571.988281 262.546875 571.386719 262.199219 Z M 453.125 319.085938 C 453.144531 319.023438 453.15625 319.015625 453.167969 319.054688 C 453.398438 318.882812 456.253906 316.84375 461.527344 314.308594 C 461.558594 314.878906 461.609375 315.457031 461.671875 316.027344 C 461.671875 316.027344 461.671875 316.03125 461.679688 316.039062 C 461.882812 317.738281 462.257812 319.410156 462.796875 321.039062 C 462.796875 321.042969 462.800781 321.058594 462.800781 321.0625 C 462.964844 321.542969 463.144531 322.019531 463.328125 322.488281 C 463.382812 322.621094 463.433594 322.75 463.484375 322.875 C 463.675781 323.3125 463.867188 323.75 464.074219 324.179688 C 464.132812 324.300781 464.195312 324.414062 464.257812 324.535156 C 464.640625 325.296875 465.0625 326.035156 465.527344 326.757812 C 465.648438 326.941406 465.753906 327.132812 465.882812 327.316406 C 466.085938 327.613281 466.300781 327.90625 466.523438 328.203125 C 466.710938 328.464844 466.902344 328.722656 467.109375 328.976562 C 467.3125 329.234375 467.527344 329.496094 467.746094 329.75 C 468.003906 330.046875 468.277344 330.34375 468.550781 330.628906 C 468.738281 330.832031 468.921875 331.035156 469.121094 331.230469 C 469.589844 331.699219 470.078125 332.152344 470.582031 332.585938 C 470.734375 332.722656 470.902344 332.839844 471.058594 332.96875 C 471.457031 333.289062 471.863281 333.609375 472.28125 333.910156 C 472.476562 334.058594 472.6875 334.203125 472.898438 334.34375 C 473.308594 334.628906 473.734375 334.898438 474.171875 335.160156 C 474.367188 335.28125 474.5625 335.402344 474.761719 335.515625 C 475.394531 335.882812 476.046875 336.230469 476.722656 336.546875 C 490.398438 342.992188 507.089844 337.554688 513.992188 324.410156 C 514.386719 323.667969 514.722656 322.917969 515.03125 322.160156 C 515.121094 321.945312 515.203125 321.722656 515.285156 321.5 C 515.5 320.9375 515.691406 320.371094 515.867188 319.800781 C 515.933594 319.582031 516 319.359375 516.058594 319.136719 C 516.25 318.445312 516.414062 317.742188 516.539062 317.046875 C 516.554688 316.976562 516.570312 316.914062 516.585938 316.84375 C 516.722656 316.019531 516.824219 315.203125 516.890625 314.378906 C 516.894531 314.316406 516.894531 314.257812 516.894531 314.203125 C 516.953125 313.449219 516.964844 312.6875 516.945312 311.933594 C 516.945312 311.832031 516.941406 311.730469 516.941406 311.628906 C 516.851562 309.144531 516.40625 306.699219 515.613281 304.363281 C 522.964844 304.753906 530.882812 305.820312 539.335938 307.757812 C 519.804688 348.699219 486.140625 355.445312 466.851562 346.40625 C 455.875 341.269531 449.550781 331.027344 453.125 319.085938 "/>
<g clip-path="url(#clip2)" clip-rule="nonzero">
<path style=" stroke:none;fill-rule:nonzero;fill:rgb(100%,90.979004%,90.979004%);fill-opacity:1;" d="M 693.707031 681.820312 L 703.378906 680.753906 C 704.601562 680.621094 705.703125 681.496094 705.84375 682.726562 C 705.980469 683.933594 705.109375 685.03125 703.902344 685.183594 L 694.238281 686.398438 C 692.972656 686.558594 691.820312 685.660156 691.660156 684.398438 C 691.5 683.128906 692.402344 681.984375 693.664062 681.820312 C 693.667969 681.820312 693.699219 681.820312 693.707031 681.820312 Z M 655.273438 685.710938 L 674.429688 683.835938 L 674.449219 683.835938 C 675.796875 683.699219 677.003906 684.6875 677.128906 686.039062 C 677.261719 687.375 676.292969 688.566406 674.960938 688.71875 L 655.804688 690.890625 C 654.371094 691.058594 653.078125 690.023438 652.921875 688.597656 C 652.757812 687.167969 653.785156 685.875 655.214844 685.710938 C 655.222656 685.710938 655.234375 685.710938 655.242188 685.710938 Z M 616.925781 689.144531 L 636.101562 687.457031 L 636.121094 687.457031 C 637.636719 687.320312 638.972656 688.445312 639.105469 689.960938 C 639.238281 691.46875 638.128906 692.800781 636.628906 692.945312 L 617.441406 694.820312 C 615.867188 694.972656 614.472656 693.824219 614.320312 692.261719 C 614.171875 690.695312 615.316406 689.300781 616.882812 689.144531 Z M 578.5625 692.183594 L 597.75 690.722656 L 597.761719 690.722656 C 599.378906 690.601562 600.785156 691.804688 600.90625 693.421875 C 601.03125 695.023438 599.835938 696.421875 598.230469 696.554688 L 579.023438 698.179688 C 577.375 698.316406 575.917969 697.09375 575.78125 695.441406 C 575.640625 693.78125 576.863281 692.332031 578.523438 692.191406 L 578.542969 692.183594 Z M 540.152344 694.792969 L 559.359375 693.539062 L 559.378906 693.539062 C 561.078125 693.425781 562.546875 694.710938 562.660156 696.410156 C 562.769531 698.101562 561.496094 699.566406 559.804688 699.691406 L 540.5625 701.066406 C 538.835938 701.195312 537.332031 699.890625 537.207031 698.160156 C 537.078125 696.429688 538.382812 694.921875 540.113281 694.792969 Z M 501.722656 697.070312 L 520.945312 695.984375 L 520.964844 695.984375 C 522.707031 695.882812 524.195312 697.222656 524.296875 698.964844 C 524.390625 700.707031 523.066406 702.195312 521.320312 702.296875 L 502.074219 703.410156 C 500.316406 703.511719 498.816406 702.175781 498.714844 700.425781 C 498.613281 698.671875 499.949219 697.171875 501.707031 697.070312 Z M 463.277344 698.914062 L 482.503906 698.046875 L 482.523438 698.046875 C 484.285156 697.960938 485.78125 699.324219 485.855469 701.09375 C 485.9375 702.855469 484.582031 704.347656 482.8125 704.425781 L 463.554688 705.332031 C 461.789062 705.414062 460.28125 704.050781 460.195312 702.277344 C 460.113281 700.503906 461.484375 699 463.257812 698.914062 Z M 424.816406 700.359375 L 444.050781 699.6875 L 444.070312 699.6875 C 445.851562 699.621094 447.34375 701.015625 447.410156 702.796875 C 447.472656 704.578125 446.078125 706.074219 444.296875 706.136719 L 425.027344 706.832031 C 423.238281 706.894531 421.738281 705.496094 421.671875 703.710938 C 421.609375 701.921875 423.003906 700.421875 424.792969 700.359375 Z M 386.339844 701.503906 L 405.578125 700.980469 L 405.589844 700.980469 C 407.359375 700.929688 408.828125 702.320312 408.878906 704.089844 C 408.929688 705.851562 407.535156 707.320312 405.769531 707.371094 L 405.753906 707.371094 L 386.476562 707.808594 C 384.734375 707.851562 383.289062 706.472656 383.25 704.730469 C 383.207031 702.988281 384.589844 701.542969 386.332031 701.503906 Z M 347.851562 702.246094 L 367.09375 701.921875 L 367.109375 701.921875 C 368.828125 701.890625 370.25 703.265625 370.28125 704.984375 C 370.304688 706.707031 368.9375 708.125 367.21875 708.152344 L 367.199219 708.152344 L 347.929688 708.390625 C 346.230469 708.410156 344.835938 707.054688 344.816406 705.355469 C 344.796875 703.660156 346.15625 702.265625 347.851562 702.246094 Z M 309.359375 702.59375 L 328.605469 702.46875 L 328.621094 702.46875 C 330.292969 702.460938 331.660156 703.8125 331.675781 705.484375 C 331.6875 707.15625 330.335938 708.523438 328.664062 708.535156 L 328.652344 708.535156 L 309.367188 708.574219 C 307.71875 708.582031 306.375 707.246094 306.371094 705.589844 C 306.371094 703.945312 307.707031 702.601562 309.355469 702.59375 Z M 270.863281 702.625 L 290.117188 702.644531 L 290.128906 702.644531 C 291.742188 702.644531 293.054688 703.957031 293.050781 705.570312 C 293.050781 707.1875 291.738281 708.5 290.121094 708.492188 L 290.097656 708.492188 L 270.8125 708.277344 C 269.253906 708.257812 268 706.984375 268.019531 705.417969 C 268.035156 703.867188 269.296875 702.621094 270.84375 702.625 Z M 232.371094 702.277344 L 251.617188 702.5 L 251.628906 702.5 C 253.136719 702.519531 254.347656 703.753906 254.328125 705.261719 C 254.3125 706.769531 253.074219 707.980469 251.566406 707.960938 L 251.542969 707.960938 L 232.265625 707.535156 C 230.8125 707.503906 229.660156 706.300781 229.691406 704.851562 C 229.722656 703.40625 230.914062 702.257812 232.351562 702.277344 Z M 193.886719 701.523438 L 213.125 701.941406 L 213.136719 701.941406 C 214.539062 701.972656 215.648438 703.132812 215.617188 704.527344 C 215.589844 705.925781 214.429688 707.035156 213.03125 707.003906 C 213.023438 707.003906 213.003906 707.003906 213 707.003906 L 193.734375 706.324219 C 192.402344 706.28125 191.371094 705.167969 191.414062 703.84375 C 191.464844 702.523438 192.554688 701.5 193.867188 701.523438 Z M 155.414062 700.382812 L 174.648438 701.023438 L 174.660156 701.023438 C 175.894531 701.0625 176.863281 702.101562 176.828125 703.335938 C 176.78125 704.566406 175.75 705.535156 174.515625 705.496094 C 174.507812 705.496094 174.480469 705.496094 174.476562 705.496094 L 155.222656 704.527344 C 154.082031 704.46875 153.203125 703.492188 153.257812 702.351562 C 153.316406 701.21875 154.265625 700.34375 155.394531 700.382812 Z M 126.496094 699.085938 L 136.1875 699.585938 L 136.207031 699.585938 C 137.257812 699.636719 138.070312 700.535156 138.011719 701.585938 C 137.960938 702.636719 137.0625 703.449219 136.007812 703.390625 C 136.003906 703.390625 135.984375 703.390625 135.976562 703.390625 L 126.25 702.726562 C 125.242188 702.664062 124.480469 701.789062 124.550781 700.78125 C 124.621094 699.789062 125.472656 699.035156 126.464844 699.085938 Z M 600.0625 765.109375 C 600.019531 763.835938 601.015625 762.765625 602.289062 762.71875 C 603.414062 762.675781 604.378906 763.449219 604.625 764.507812 C 606.335938 771.933594 607.515625 779.421875 608.542969 786.933594 C 609.539062 794.457031 610.347656 802 610.5 809.628906 C 610.507812 809.726562 610.488281 809.820312 610.476562 809.914062 L 763.226562 809.914062 C 715.160156 761.859375 721.730469 658.25 721.730469 658.25 C 432.625 690.695312 109.367188 674.476562 109.367188 674.476562 C 104.601562 759.632812 67.492188 809.914062 67.492188 809.914062 L 215.976562 809.914062 C 215.972656 809.851562 215.945312 809.792969 215.945312 809.730469 C 215.8125 802.273438 216.222656 794.863281 216.78125 787.453125 C 217.378906 780.054688 218.152344 772.667969 219.589844 765.335938 C 219.824219 764.132812 220.988281 763.355469 222.195312 763.589844 C 223.226562 763.789062 223.949219 764.679688 223.980469 765.683594 C 224.234375 773.15625 223.828125 780.574219 223.238281 787.972656 C 222.617188 795.3125 221.84375 802.636719 220.554688 809.914062 L 606.070312 809.914062 C 604.269531 802.605469 603.105469 795.210938 602.125 787.789062 C 601.160156 780.265625 600.34375 772.722656 600.0625 765.109375 "/>
</g>
<path style=" stroke:none;fill-rule:nonzero;fill:rgb(34.899902%,44.709778%,42.749023%);fill-opacity:1;" d="M 637.496094 277.769531 C 638.339844 278.171875 639.195312 278.523438 640.019531 278.957031 L 642.457031 280.300781 C 644.074219 281.203125 645.742188 282.042969 647.332031 283.003906 L 652.007812 286.046875 C 652.78125 286.566406 653.613281 287.007812 654.347656 287.578125 L 656.566406 289.277344 C 658.042969 290.421875 659.53125 291.550781 661.050781 292.660156 L 661.222656 292.785156 C 662.105469 293.433594 663.351562 293.34375 664.132812 292.539062 C 664.988281 291.660156 664.96875 290.246094 664.085938 289.390625 C 658.472656 283.941406 652.433594 278.707031 645.496094 274.902344 L 642.945312 273.378906 C 642.078125 272.90625 641.179688 272.507812 640.292969 272.0625 C 638.515625 271.214844 636.75 270.3125 634.949219 269.503906 C 631.261719 268.109375 627.617188 266.558594 623.808594 265.535156 C 616.253906 263.304688 608.492188 261.796875 600.664062 261.246094 C 592.828125 260.675781 585.039062 260.765625 577.179688 262.078125 C 576.292969 262.230469 575.628906 263.007812 575.660156 263.933594 C 575.691406 264.941406 576.527344 265.734375 577.535156 265.703125 L 577.660156 265.695312 C 581.320312 265.582031 585.140625 265.585938 588.871094 265.847656 C 590.746094 265.9375 592.617188 266.105469 594.488281 266.234375 L 600.078125 266.867188 C 607.503906 267.90625 614.828125 269.484375 621.925781 271.714844 C 625.511719 272.734375 628.953125 274.148438 632.425781 275.464844 Z M 359.246094 135.617188 C 361.210938 140.84375 363.367188 146.007812 366.003906 150.929688 C 367.238281 153.433594 368.707031 155.808594 370.113281 158.210938 C 371.605469 160.566406 373.15625 162.878906 374.773438 165.140625 C 375.394531 166.015625 376.574219 166.339844 377.574219 165.855469 C 378.683594 165.3125 379.144531 163.976562 378.601562 162.867188 L 378.574219 162.808594 C 376.191406 157.929688 373.785156 153.117188 371.558594 148.210938 L 369.886719 144.542969 L 368.320312 140.832031 C 367.21875 138.378906 366.300781 135.851562 365.292969 133.359375 C 363.351562 128.355469 361.65625 123.253906 360.078125 118.117188 C 358.550781 112.992188 357.097656 107.71875 356.066406 102.5625 L 356.039062 102.453125 C 355.875 101.605469 355.113281 100.964844 354.214844 100.984375 C 353.207031 101.003906 352.402344 101.839844 352.429688 102.847656 C 352.542969 108.589844 353.367188 114.070312 354.5625 119.542969 C 355.761719 125.003906 357.339844 130.371094 359.246094 135.617188 Z M 552.445312 496.734375 C 550.886719 492.710938 548.695312 488.964844 546.332031 485.507812 C 541.953125 479.246094 538.734375 472.183594 536.636719 464.738281 C 535.582031 461.011719 534.804688 457.191406 534.355469 453.320312 C 533.808594 449.488281 533.617188 445.476562 533.714844 441.714844 L 533.71875 441.59375 C 533.738281 440.707031 533.113281 439.910156 532.210938 439.75 C 531.21875 439.574219 530.273438 440.238281 530.09375 441.234375 C 529.347656 445.472656 529.289062 449.558594 529.398438 453.738281 C 529.613281 457.894531 530.171875 462.039062 531.046875 466.132812 C 532.820312 474.316406 536.210938 482.21875 541.007812 489.207031 C 545.386719 495.503906 548.429688 502.4375 549.265625 509.910156 C 550.164062 517.375 549.023438 525.1875 547.980469 533.183594 C 547.839844 534.304688 548.5625 535.382812 549.683594 535.648438 C 550.882812 535.933594 552.085938 535.183594 552.371094 533.980469 C 554.222656 526.203125 556.078125 517.953125 555.355469 509.308594 C 555.03125 505.019531 554.019531 500.746094 552.445312 496.734375 Z M 296.882812 438.75 C 296.191406 434.199219 295.417969 429.714844 294.203125 425.203125 C 293.96875 424.335938 293.117188 423.753906 292.199219 423.871094 C 291.207031 424 290.496094 424.917969 290.621094 425.917969 L 290.636719 425.976562 C 291.199219 430.328125 291.636719 434.828125 291.894531 439.261719 C 292.207031 443.710938 292.359375 448.171875 292.320312 452.613281 C 292.3125 461.496094 291.699219 470.351562 290.199219 479.011719 C 289.425781 483.332031 288.449219 487.605469 287.167969 491.773438 L 286.179688 495.003906 C 285.851562 496.125 285.484375 497.222656 285.199219 498.355469 L 284.324219 501.75 L 283.605469 505.210938 C 282.757812 509.84375 282.332031 514.714844 283.042969 519.59375 C 283.410156 522.019531 284.058594 524.425781 284.914062 526.671875 C 285.742188 528.917969 286.792969 530.972656 287.546875 532.90625 L 287.566406 532.953125 C 287.984375 534.03125 289.164062 534.613281 290.292969 534.273438 C 291.472656 533.917969 292.136719 532.675781 291.78125 531.492188 C 291.066406 529.148438 290.222656 527.082031 289.589844 525.054688 C 288.957031 523.027344 288.542969 521.011719 288.355469 518.953125 C 288.050781 514.835938 288.4375 510.582031 289.386719 506.363281 L 290.152344 503.203125 L 291.070312 500.054688 C 291.371094 499.007812 291.761719 497.96875 292.105469 496.929688 L 293.1875 493.699219 C 294.671875 489.257812 295.792969 484.714844 296.585938 480.128906 C 298.1875 470.953125 298.589844 461.664062 298.167969 452.480469 C 297.921875 447.878906 297.484375 443.296875 296.882812 438.75 Z M 241.839844 347.589844 C 240.839844 347.6875 240.101562 348.578125 240.199219 349.582031 L 240.203125 349.628906 L 240.78125 355.5625 C 240.972656 357.539062 241.230469 359.5 241.3125 361.484375 C 241.546875 365.4375 241.839844 369.386719 241.820312 373.34375 C 242.042969 381.246094 241.675781 389.140625 240.800781 396.953125 C 239.132812 412.609375 235.039062 427.878906 229.039062 442.457031 C 226.066406 449.765625 222.777344 456.976562 219.398438 464.25 C 216.066406 471.535156 212.636719 478.957031 210.324219 486.953125 C 208.09375 494.929688 207.042969 503.660156 208.757812 512.015625 C 210.40625 520.359375 214.070312 528.050781 218.722656 534.785156 L 218.734375 534.796875 C 219.398438 535.753906 220.699219 536.046875 221.707031 535.4375 C 222.769531 534.804688 223.113281 533.4375 222.480469 532.378906 C 218.480469 525.6875 215.367188 518.515625 214.253906 511.058594 C 212.917969 503.632812 214.019531 496.023438 216.242188 488.699219 C 218.574219 481.363281 221.789062 474.160156 225.191406 466.9375 C 228.554688 459.703125 232.054688 452.410156 235.015625 444.84375 C 237.984375 437.292969 240.539062 429.53125 242.484375 421.609375 C 243.492188 417.65625 244.246094 413.648438 244.980469 409.636719 L 245.832031 403.578125 C 246.117188 401.566406 246.222656 399.523438 246.425781 397.503906 C 247.847656 381.265625 246.628906 364.957031 243.816406 349.085938 C 243.644531 348.160156 242.789062 347.496094 241.839844 347.589844 Z M 197.328125 315.390625 C 193.9375 300.289062 190.871094 285.265625 190.171875 270.035156 C 190 266.234375 189.914062 262.382812 190.160156 258.769531 C 190.414062 255.101562 191.167969 251.457031 192.164062 247.890625 C 194.160156 240.726562 197.582031 233.945312 201.609375 227.566406 C 209.796875 214.863281 220.71875 203.675781 232.726562 194.425781 L 232.800781 194.367188 C 233.570312 193.773438 233.746094 192.675781 233.183594 191.878906 C 232.605469 191.054688 231.464844 190.851562 230.640625 191.433594 C 224.121094 196.007812 218.214844 201.113281 212.636719 206.683594 C 207.082031 212.257812 201.945312 218.296875 197.5 224.875 C 193.125 231.488281 189.378906 238.648438 187.066406 246.390625 C 185.925781 250.253906 185.035156 254.234375 184.683594 258.296875 C 184.335938 262.40625 184.386719 266.324219 184.5 270.261719 C 184.933594 286.058594 188.0625 301.574219 191.34375 316.699219 C 194.582031 331.800781 197.886719 346.894531 196.675781 361.78125 C 195.78125 376.578125 188.347656 390.167969 180.65625 403.414062 C 172.878906 416.695312 164.367188 429.871094 157.910156 444.3125 C 154.691406 451.523438 151.964844 459.011719 150.101562 466.757812 C 148.234375 474.507812 147.25 482.503906 147.347656 490.492188 C 147.550781 506.523438 152.175781 522.195312 159.414062 536.160156 L 159.417969 536.167969 C 159.96875 537.230469 161.261719 537.667969 162.351562 537.15625 C 163.46875 536.628906 163.9375 535.300781 163.410156 534.183594 C 156.882812 520.4375 152.789062 505.519531 152.941406 490.46875 C 152.910156 475.414062 157.144531 460.625 163.558594 446.878906 C 169.914062 433.039062 178.222656 420.058594 186.167969 406.652344 C 190.121094 399.929688 193.976562 393.054688 197.148438 385.71875 C 198.714844 382.042969 200.101562 378.25 201.15625 374.316406 C 202.1875 370.355469 202.777344 366.261719 203.0625 362.277344 C 203.664062 354.230469 203.050781 346.203125 201.871094 338.402344 C 200.699219 330.59375 198.992188 322.957031 197.328125 315.390625 Z M 264.796875 179.65625 C 266.625 171.6875 269.113281 163.867188 272.296875 156.328125 C 275.507812 148.792969 279.375 141.539062 283.835938 134.648438 C 288.289062 127.753906 293.355469 121.246094 298.804688 115.070312 C 304.273438 108.90625 310.25 103.171875 316.554688 97.828125 C 322.808594 92.464844 329.578125 87.507812 336.535156 83.277344 L 336.640625 83.214844 C 337.460938 82.714844 337.757812 81.65625 337.300781 80.800781 C 336.828125 79.914062 335.722656 79.578125 334.828125 80.050781 C 319.695312 88.125 306.390625 98.875 294.632812 111.25 C 282.902344 123.636719 273.316406 138.101562 266.375 153.792969 C 262.949219 161.667969 260.464844 169.925781 258.570312 178.289062 L 257.320312 184.597656 C 256.984375 186.714844 256.738281 188.847656 256.445312 190.972656 C 256.3125 192.035156 256.140625 193.101562 256.046875 194.164062 L 255.824219 197.371094 C 255.691406 199.511719 255.519531 201.648438 255.488281 203.789062 C 255.558594 208.066406 255.40625 212.355469 255.839844 216.613281 C 256.003906 218.742188 256.117188 220.875 256.332031 223 L 257.195312 229.335938 L 257.65625 232.503906 C 257.847656 233.546875 258.082031 234.585938 258.296875 235.632812 L 259.609375 241.878906 C 260.550781 246.015625 261.820312 250.082031 262.949219 254.164062 C 263.265625 255.296875 264.417969 256.007812 265.578125 255.746094 C 266.78125 255.480469 267.535156 254.289062 267.269531 253.085938 L 267.238281 252.941406 L 265.882812 246.882812 C 265.457031 244.855469 264.867188 242.867188 264.570312 240.820312 L 263.542969 234.714844 C 263.378906 233.699219 263.1875 232.6875 263.050781 231.660156 L 262.726562 228.585938 L 262.027344 222.453125 C 261.871094 220.402344 261.8125 218.34375 261.707031 216.296875 C 261.382812 212.191406 261.636719 208.085938 261.65625 203.984375 C 262.179688 195.8125 262.902344 187.625 264.796875 179.65625 Z M 684.554688 486.425781 C 683.625 481.117188 681.882812 476.015625 679.949219 471.1875 C 678.042969 466.335938 675.957031 461.703125 674.289062 457.003906 C 672.617188 452.308594 671.34375 447.53125 670.539062 442.652344 C 668.910156 432.894531 669.246094 422.832031 670.316406 412.847656 C 670.660156 410.359375 670.945312 407.855469 671.335938 405.367188 C 671.78125 402.875 672.148438 400.378906 672.65625 397.894531 L 674.203125 390.402344 C 674.757812 387.765625 675.160156 385.09375 675.367188 382.40625 C 675.816406 377.027344 675.601562 371.585938 674.695312 366.273438 C 673.789062 360.964844 672.210938 355.800781 670.152344 350.878906 C 666.015625 341.019531 659.988281 332.15625 652.992188 324.339844 C 649.472656 320.429688 645.722656 316.765625 641.773438 313.332031 C 637.808594 309.894531 633.734375 306.71875 629.21875 303.8125 C 628.226562 303.175781 626.894531 303.417969 626.203125 304.382812 C 625.480469 305.382812 625.710938 306.777344 626.703125 307.5 L 626.800781 307.5625 C 634.839844 313.359375 642.402344 320.320312 648.867188 327.9375 C 655.355469 335.566406 660.914062 344 664.5625 353.167969 C 668.207031 362.316406 669.925781 372.15625 669.050781 381.867188 C 668.851562 384.292969 668.484375 386.707031 667.964844 389.089844 L 666.367188 396.667969 C 665.84375 399.214844 665.449219 401.792969 664.980469 404.359375 C 664.5625 406.929688 664.253906 409.527344 663.882812 412.121094 C 662.757812 422.515625 662.59375 433.1875 664.429688 443.699219 C 665.355469 448.941406 666.792969 454.101562 668.625 459.054688 C 670.4375 464.023438 672.617188 468.734375 674.613281 473.375 C 676.617188 478.019531 678.3125 482.648438 679.277344 487.445312 C 680.277344 492.230469 680.570312 497.152344 680.304688 502.09375 C 680.082031 507.042969 679.339844 512.015625 678.230469 516.9375 C 677.1875 521.867188 675.734375 526.734375 674.265625 531.597656 L 674.238281 531.675781 C 673.960938 532.601562 674.460938 533.59375 675.386719 533.917969 C 676.335938 534.253906 677.375 533.753906 677.710938 532.804688 C 678.566406 530.351562 679.492188 527.929688 680.292969 525.453125 C 681.046875 522.964844 681.863281 520.492188 682.472656 517.953125 C 683.820312 512.902344 684.824219 507.71875 685.265625 502.421875 C 685.691406 497.132812 685.511719 491.722656 684.554688 486.425781 Z M 610.773438 467.007812 C 609.171875 463.371094 607.308594 459.878906 605.363281 456.453125 C 604.40625 454.726562 603.371094 453.050781 602.359375 451.363281 C 601.433594 449.761719 600.507812 448.1875 599.726562 446.542969 C 596.515625 439.996094 595.019531 432.824219 595.253906 425.488281 C 595.429688 418.140625 596.996094 410.65625 598.523438 403.078125 C 600.050781 395.488281 601.558594 387.734375 602.003906 379.832031 C 602.25 375.890625 602.289062 371.9375 602.109375 367.992188 C 601.90625 364.042969 601.425781 360.121094 600.78125 356.238281 C 600.628906 355.289062 599.746094 354.617188 598.777344 354.726562 C 597.777344 354.839844 597.054688 355.738281 597.167969 356.738281 L 597.175781 356.769531 C 597.597656 360.546875 597.832031 364.335938 597.894531 368.117188 C 597.914062 371.902344 597.726562 375.683594 597.339844 379.445312 C 596.558594 386.980469 594.992188 394.425781 593.257812 401.945312 C 591.566406 409.464844 589.644531 417.152344 589.296875 425.296875 C 589.152344 429.351562 589.417969 433.484375 590.234375 437.53125 C 591.039062 441.582031 592.382812 445.515625 594.125 449.214844 C 594.976562 451.070312 595.988281 452.851562 596.988281 454.601562 C 597.933594 456.25 598.902344 457.882812 599.796875 459.554688 C 601.617188 462.882812 603.316406 466.253906 604.886719 469.675781 C 608.003906 476.515625 610.460938 483.632812 611.78125 490.925781 C 613.117188 498.214844 613.382812 505.660156 612.457031 513.085938 C 611.976562 516.785156 611.34375 520.5 610.5 524.199219 C 609.652344 527.894531 608.644531 531.582031 607.617188 535.28125 L 607.609375 535.300781 C 607.308594 536.414062 607.902344 537.585938 609.003906 537.984375 C 610.164062 538.410156 611.445312 537.808594 611.863281 536.648438 C 614.511719 529.335938 616.882812 521.773438 618.105469 513.859375 C 619.296875 505.964844 619.421875 497.761719 617.992188 489.820312 C 616.609375 481.882812 614.011719 474.25 610.773438 467.007812 Z M 603.65625 201.773438 C 604.550781 207.457031 605.265625 213.179688 605.660156 218.925781 C 606.039062 224.675781 606.167969 230.441406 606.089844 236.234375 C 606.078125 237.417969 606.996094 238.417969 608.1875 238.488281 C 609.417969 238.566406 610.476562 237.632812 610.546875 236.40625 C 611.285156 224.613281 610.863281 212.691406 609.234375 200.9375 C 607.597656 189.171875 604.726562 177.578125 600.765625 166.351562 C 596.667969 155.179688 591.503906 144.371094 585.164062 134.285156 C 582.074219 129.191406 578.582031 124.359375 574.988281 119.613281 C 573.113281 117.304688 571.242188 114.988281 569.304688 112.738281 C 567.289062 110.546875 565.394531 108.246094 563.28125 106.15625 C 555.058594 97.570312 546.035156 89.777344 536.457031 82.796875 L 532.863281 80.183594 C 531.605469 79.355469 530.347656 78.507812 529.070312 77.703125 C 526.488281 76.128906 523.867188 74.652344 521.183594 73.316406 C 515.824219 70.628906 510.292969 68.375 504.671875 66.4375 C 493.429688 62.570312 481.882812 59.855469 470.246094 57.960938 C 458.585938 56.101562 446.910156 54.835938 435.0625 54.523438 C 434.089844 54.5 433.257812 55.253906 433.195312 56.234375 C 433.132812 57.238281 433.890625 58.105469 434.898438 58.167969 L 434.957031 58.175781 C 446.464844 58.914062 458.054688 60.425781 469.429688 62.558594 C 480.804688 64.769531 492.066406 67.558594 502.871094 71.5 C 513.6875 75.464844 523.953125 80.464844 532.921875 87.589844 C 542.167969 94.472656 550.835938 102.113281 558.703125 110.488281 C 574.417969 127.234375 586.972656 146.9375 594.867188 168.503906 C 598.859375 179.257812 601.863281 190.40625 603.65625 201.773438 Z M 487.433594 400.578125 C 486.832031 400.539062 486.28125 400.816406 486.210938 401.199219 C 486.148438 401.582031 486.578125 401.917969 487.179688 401.957031 C 487.789062 401.996094 488.332031 401.71875 488.402344 401.335938 C 488.472656 400.957031 488.035156 400.613281 487.433594 400.578125 Z M 495.621094 381.703125 C 495.011719 381.664062 494.472656 381.941406 494.40625 382.324219 C 494.335938 382.703125 494.773438 383.046875 495.375 383.082031 C 495.976562 383.121094 496.527344 382.84375 496.597656 382.460938 C 496.667969 382.082031 496.230469 381.742188 495.621094 381.703125 Z M 486.355469 416.175781 C 485.753906 416.136719 485.203125 416.410156 485.132812 416.796875 C 485.0625 417.175781 485.496094 417.519531 486.101562 417.554688 C 486.710938 417.59375 487.257812 417.316406 487.328125 416.933594 C 487.402344 416.546875 486.964844 416.214844 486.355469 416.175781 Z M 491.433594 381.4375 C 490.824219 381.398438 490.28125 381.671875 490.210938 382.058594 C 490.140625 382.4375 490.582031 382.773438 491.1875 382.816406 C 491.792969 382.855469 492.339844 382.578125 492.410156 382.195312 C 492.476562 381.808594 492.042969 381.472656 491.433594 381.4375 Z M 478.703125 398.625 C 478.097656 398.585938 477.546875 398.867188 477.476562 399.246094 C 477.410156 399.625 477.847656 399.96875 478.449219 400.007812 C 479.054688 400.042969 479.609375 399.765625 479.675781 399.386719 C 479.742188 399.003906 479.308594 398.664062 478.703125 398.625 Z M 493.117188 417.746094 C 493.046875 418.125 493.484375 418.46875 494.089844 418.5 C 494.695312 418.542969 495.242188 418.265625 495.3125 417.886719 C 495.378906 417.5 494.945312 417.164062 494.339844 417.125 C 493.734375 417.082031 493.1875 417.367188 493.117188 417.746094 Z M 483.410156 399.625 C 482.800781 399.582031 482.257812 399.859375 482.1875 400.242188 C 482.117188 400.621094 482.554688 400.960938 483.15625 401 C 483.765625 401.046875 484.308594 400.765625 484.378906 400.386719 C 484.449219 400 484.011719 399.664062 483.410156 399.625 Z M 490.152344 416.859375 C 489.542969 416.820312 489 417.101562 488.929688 417.472656 C 488.859375 417.859375 489.289062 418.203125 489.898438 418.234375 C 490.507812 418.277344 491.050781 418 491.121094 417.621094 C 491.191406 417.238281 490.753906 416.898438 490.152344 416.859375 Z M 486.425781 364.429688 C 485.816406 364.394531 485.273438 364.671875 485.203125 365.050781 C 485.132812 365.433594 485.566406 365.773438 486.171875 365.804688 C 486.78125 365.84375 487.328125 365.570312 487.394531 365.191406 C 487.464844 364.8125 487.027344 364.46875 486.425781 364.429688 Z M 487.644531 380.757812 C 487.035156 380.714844 486.488281 380.992188 486.421875 381.371094 C 486.351562 381.753906 486.789062 382.09375 487.390625 382.132812 C 488 382.175781 488.542969 381.890625 488.617188 381.519531 C 488.683594 381.132812 488.246094 380.796875 487.644531 380.757812 Z M 490.214844 365.109375 C 489.609375 365.070312 489.0625 365.351562 488.992188 365.730469 C 488.921875 366.109375 489.359375 366.453125 489.96875 366.488281 C 490.570312 366.527344 491.121094 366.25 491.1875 365.871094 C 491.253906 365.496094 490.824219 365.148438 490.214844 365.109375 Z M 467.238281 436.488281 C 461.191406 443.160156 445.945312 450.902344 445.027344 451.363281 C 445.128906 452.664062 445.234375 453.960938 445.347656 455.261719 C 449.488281 451.179688 463.0625 443.9375 467.144531 441.808594 C 467.25 440.042969 467.28125 438.269531 467.238281 436.488281 Z M 467.109375 442.246094 C 463.082031 445.726562 449.996094 456.78125 445.570312 457.769531 C 445.753906 459.789062 445.953125 461.804688 446.152344 463.808594 C 451.335938 458.832031 462.402344 448.765625 465.976562 450.058594 C 466.558594 447.484375 466.925781 444.875 467.109375 442.246094 Z M 445.027344 451.324219 C 445.957031 450.160156 460.355469 432.335938 466.738281 429.992188 C 466.421875 427.441406 465.957031 424.886719 465.375 422.339844 C 465.253906 422.460938 447.320312 439.027344 444.203125 439.210938 C 444.429688 443.210938 444.703125 447.265625 445.027344 451.324219 Z M 443.644531 425.894531 C 445.5 424.90625 457.492188 416.929688 462.800781 413.386719 C 462.328125 412.023438 461.820312 410.667969 461.273438 409.324219 L 443.554688 421.808594 C 443.574219 423.15625 443.605469 424.519531 443.644531 425.894531 Z M 443.511719 417.695312 L 460.242188 406.863281 C 457.625 400.796875 454.570312 394.824219 452.226562 388.710938 C 452.136719 388.476562 452.058594 388.242188 451.972656 388.011719 C 451.335938 388.917969 450.445312 390.101562 449.398438 391.191406 C 451.253906 393.355469 452.21875 396.535156 451.789062 399.988281 C 451.140625 405.074219 447.679688 409.105469 443.582031 409.964844 C 443.523438 412.441406 443.503906 415.027344 443.511719 417.695312 Z M 444.0625 388.394531 C 445.265625 388.488281 446.382812 388.867188 447.371094 389.457031 C 448.625 388.082031 449.960938 386.378906 450.90625 385.128906 C 450.3125 383.449219 449.753906 381.773438 449.222656 380.09375 C 447.78125 381.632812 445.191406 384.269531 443.234375 385.472656 C 441.484375 386.550781 438.601562 383.824219 436.617188 381.550781 C 436.015625 382.722656 435.425781 383.894531 434.828125 385.066406 C 436.152344 386.085938 438.257812 387.683594 440.164062 389.078125 C 441.394531 388.539062 442.714844 388.277344 444.0625 388.394531 Z M 442.828125 461.742188 C 442.636719 459.820312 442.453125 457.894531 442.28125 455.96875 C 436.78125 455.058594 417.289062 441.855469 417.261719 441.839844 C 417.941406 444.90625 419.125 447.941406 420.640625 450.894531 C 422.195312 447.167969 436.25 456.914062 442.828125 461.742188 Z M 417.261719 441.839844 C 417.28125 441.847656 436.320312 449.195312 442.074219 453.472656 C 441.636719 448.289062 441.273438 443.101562 441.003906 438.015625 C 435.0625 435.015625 423.285156 427.199219 418.644531 424.089844 C 417.984375 426.355469 417.429688 428.644531 417.074219 430.949219 C 424.246094 433.359375 441.773438 449.742188 441.773438 449.742188 C 441.773438 449.742188 423.5 442.847656 416.636719 436.511719 C 416.65625 438.285156 416.875 440.066406 417.261719 441.839844 Z M 421.8125 414.761719 C 426.445312 417.625 435.546875 423.132812 440.480469 425.179688 C 440.4375 423.480469 440.40625 421.808594 440.386719 420.160156 L 423.15625 411.136719 C 422.6875 412.34375 422.261719 413.550781 421.8125 414.761719 Z M 424.773438 407.121094 L 440.363281 416.949219 C 440.355469 414.558594 440.375 412.234375 440.425781 409.996094 C 435.902344 409.085938 432.898438 404.164062 433.605469 398.53125 C 434 395.394531 435.46875 392.667969 437.496094 390.824219 C 435.886719 389.699219 434.4375 388.539062 433.492188 387.738281 C 430.332031 394.144531 427.410156 400.609375 424.773438 407.121094 Z M 467.300781 417.339844 C 473.382812 437.34375 471.945312 458.828125 454.988281 475.1875 C 453.421875 475.484375 451.851562 475.757812 450.265625 476.007812 C 457.433594 469.6875 462.027344 462.535156 464.601562 454.941406 C 460.246094 458.699219 451.007812 463.109375 446.304688 465.226562 C 446.707031 469.027344 447.148438 472.753906 447.613281 476.410156 C 446.597656 476.554688 445.578125 476.695312 444.558594 476.820312 C 443.980469 472.398438 443.449219 467.847656 442.972656 463.222656 C 437.542969 461.398438 426.738281 457.507812 422.402344 454.0625 C 423.421875 455.761719 424.527344 457.433594 425.691406 459.054688 C 430.230469 465.382812 436.238281 471.59375 443.15625 476.984375 C 442.15625 477.097656 441.148438 477.207031 440.140625 477.300781 C 433.734375 472.222656 428.238281 466.507812 423.652344 460.652344 C 416.261719 451.199219 413.417969 441.917969 414.089844 432.160156 C 414.09375 432.070312 414.082031 431.984375 414.09375 431.894531 C 414.101562 431.886719 414.101562 431.882812 414.105469 431.867188 C 414.375 428.410156 415.0625 424.886719 416.171875 421.273438 C 417.023438 418.511719 417.953125 415.757812 418.949219 413.007812 L 418.957031 412.96875 L 418.960938 412.976562 C 419.367188 411.847656 419.777344 410.71875 420.210938 409.597656 L 420.3125 409.34375 L 421.8125 405.539062 L 421.910156 405.308594 L 421.910156 405.316406 C 425.550781 396.382812 429.835938 387.554688 434.488281 378.851562 L 434.480469 378.851562 C 434.480469 378.851562 434.519531 378.792969 434.570312 378.699219 C 437.625 372.984375 440.835938 367.328125 444.121094 361.730469 C 445.28125 361.679688 446.4375 361.636719 447.597656 361.578125 C 449.589844 371.183594 452.394531 380.765625 455.996094 390.171875 C 457.953125 395.285156 460.375 400.277344 462.625 405.316406 L 462.625 405.308594 L 462.625 405.320312 C 463.574219 407.4375 464.476562 409.566406 465.316406 411.707031 C 465.316406 411.707031 465.332031 411.695312 465.332031 411.695312 L 465.332031 411.746094 C 466.050781 413.597656 466.730469 415.460938 467.300781 417.339844 Z M 483.617188 379.796875 C 483.015625 379.757812 482.464844 380.042969 482.394531 380.421875 C 482.328125 380.800781 482.761719 381.136719 483.367188 381.183594 C 483.972656 381.222656 484.519531 380.941406 484.589844 380.5625 C 484.660156 380.183594 484.222656 379.839844 483.617188 379.796875 Z M 478.910156 378.800781 C 478.300781 378.761719 477.757812 379.042969 477.6875 379.421875 C 477.617188 379.800781 478.054688 380.144531 478.664062 380.183594 C 479.265625 380.21875 479.816406 379.941406 479.878906 379.5625 C 479.949219 379.179688 479.519531 378.839844 478.910156 378.800781 Z M 494.40625 365.382812 C 493.804688 365.335938 493.25 365.621094 493.183594 365.996094 C 493.113281 366.382812 493.554688 366.71875 494.15625 366.757812 C 494.765625 366.800781 495.3125 366.523438 495.378906 366.140625 C 495.449219 365.761719 495.011719 365.417969 494.40625 365.382812 Z M 511.101562 408.285156 C 510.5 408.25 509.949219 408.527344 509.878906 408.902344 C 509.816406 409.289062 510.246094 409.628906 510.855469 409.667969 C 511.464844 409.699219 512.007812 409.425781 512.078125 409.046875 C 512.148438 408.667969 511.710938 408.324219 511.101562 408.285156 Z M 500.988281 370.425781 C 501.597656 370.410156 502.078125 370.09375 502.058594 369.707031 C 502.054688 369.328125 501.546875 369.023438 500.9375 369.039062 C 500.332031 369.050781 499.847656 369.371094 499.855469 369.753906 C 499.875 370.132812 500.375 370.4375 500.988281 370.425781 Z M 521.792969 397.914062 C 512.210938 403.015625 504.101562 403.890625 500.496094 403.992188 C 500.515625 407.496094 500.507812 411.066406 500.480469 414.667969 C 505.578125 414.363281 511.210938 412.613281 514.960938 411.226562 C 518.105469 407.039062 520.691406 402.519531 521.792969 397.914062 Z M 512.695312 414.191406 L 512.472656 414.351562 C 508.707031 416.667969 503.632812 418.96875 500.425781 420.34375 C 500.394531 422.699219 500.355469 425.058594 500.304688 427.414062 C 505.699219 423.410156 509.070312 418.917969 512.695312 414.191406 Z M 500.457031 398.867188 C 508.972656 398.035156 518.0625 394.226562 522.320312 392.246094 C 522.089844 387.714844 520.613281 383.234375 518.898438 378.84375 C 509.660156 383.148438 501.773438 384.539062 500.152344 384.789062 C 500.296875 389.222656 500.398438 393.949219 500.457031 398.867188 Z M 497.59375 408.136719 C 497.59375 403.546875 497.554688 399.050781 497.476562 394.726562 C 493.972656 394.59375 485.488281 393.910156 475.902344 390.40625 C 475.84375 395.632812 476.691406 400.828125 478.613281 405.847656 C 483.023438 407.183594 490.773438 409.035156 497.59375 408.136719 Z M 497.574219 414.34375 C 496.066406 414.457031 488.277344 414.894531 481.671875 412.207031 C 485.152344 418.101562 490.304688 423.625 497.378906 428.503906 C 497.425781 426.191406 497.464844 423.871094 497.496094 421.554688 C 497.410156 421.59375 497.34375 421.617188 497.34375 421.617188 L 497.515625 420.414062 C 497.542969 418.378906 497.5625 416.359375 497.574219 414.34375 Z M 476.089844 386.765625 C 480.222656 387.722656 490.132812 389.875 497.390625 390.25 C 497.238281 384.027344 497.007812 378.269531 496.691406 373.226562 C 494.9375 373.160156 487.625 372.722656 480.582031 369.980469 C 479.84375 371.679688 479.15625 373.390625 478.574219 375.113281 C 477.289062 378.953125 476.453125 382.855469 476.089844 386.765625 Z M 482.300781 366.242188 C 484.644531 367.210938 490.894531 369.574219 496.472656 370.019531 C 496.242188 366.996094 495.976562 364.296875 495.679688 362 L 485.519531 359.699219 L 485.710938 359.304688 C 484.574219 361.617188 483.410156 363.929688 482.300781 366.242188 Z M 519.214844 409.507812 C 519.214844 409.507812 519.226562 409.503906 519.226562 409.503906 L 519.207031 409.515625 C 518.296875 410.867188 517.28125 412.214844 516.128906 413.566406 C 514.289062 415.726562 512.625 417.835938 510.886719 419.882812 C 508.183594 423.082031 505.296875 426.121094 501.371094 428.929688 C 501.007812 429.1875 500.632812 429.441406 500.261719 429.695312 C 500.03125 439.542969 499.660156 449.203125 499.152344 457.960938 C 498.164062 458.613281 497.160156 459.246094 496.148438 459.867188 C 496.6875 450.914062 497.09375 440.933594 497.328125 430.746094 C 497.078125 430.722656 496.84375 430.675781 496.691406 430.574219 C 495.566406 429.855469 494.5 429.113281 493.460938 428.359375 C 481.8125 419.933594 475.445312 409.667969 473.421875 398.941406 C 472.046875 391.648438 472.675781 384.140625 475.011719 376.847656 C 477.058594 370.488281 480.445312 364.410156 483.328125 358.222656 C 485.609375 357.898438 487.902344 357.558594 490.195312 357.195312 L 495.296875 359.417969 C 494.539062 358.601562 494.03125 357.652344 493.703125 356.636719 C 496.253906 356.214844 498.820312 355.75 501.394531 355.261719 C 500.050781 357.203125 498.082031 359.019531 498.082031 359.019531 L 498.074219 359.019531 C 498.15625 359.046875 498.207031 359.078125 498.214844 359.117188 C 498.953125 363.558594 499.511719 370.144531 499.886719 378.066406 C 504.90625 377.070312 512.269531 374.085938 516.222656 372.394531 C 514.082031 367.460938 511.691406 362.554688 509.132812 357.691406 C 503.269531 361.054688 498.734375 362.371094 498.734375 362.371094 L 498.269531 359.445312 C 502.300781 358.164062 505.925781 355.210938 507.160156 354.136719 C 508.175781 353.925781 509.1875 353.710938 510.203125 353.496094 C 513.433594 359.335938 516.414062 365.234375 518.972656 371.183594 L 518.980469 371.179688 L 519.070312 371.414062 L 521.488281 377.394531 L 521.554688 377.550781 C 521.554688 377.550781 521.554688 377.550781 521.546875 377.550781 C 521.90625 378.503906 522.257812 379.453125 522.59375 380.410156 C 523.460938 382.863281 524.0625 385.257812 524.421875 387.625 C 524.601562 388.773438 524.726562 389.914062 524.777344 391.046875 L 524.777344 391.074219 C 524.792969 391.359375 524.785156 391.636719 524.785156 391.921875 C 524.804688 393.367188 524.722656 394.804688 524.519531 396.230469 L 524.519531 396.375 C 524.511719 396.375 524.507812 396.382812 524.5 396.382812 C 523.867188 400.8125 522.15625 405.15625 519.214844 409.507812 Z M 514.726562 407.824219 C 514.121094 407.78125 513.574219 408.058594 513.503906 408.4375 C 513.433594 408.820312 513.871094 409.160156 514.472656 409.199219 C 515.082031 409.238281 515.628906 408.957031 515.699219 408.578125 C 515.765625 408.199219 515.328125 407.863281 514.726562 407.824219 Z M 505.804688 368.941406 C 505.792969 368.5625 505.285156 368.257812 504.675781 368.269531 C 504.070312 368.28125 503.585938 368.601562 503.59375 368.980469 C 503.605469 369.367188 504.113281 369.664062 504.722656 369.65625 C 505.335938 369.640625 505.816406 369.320312 505.804688 368.941406 Z M 527.914062 427.507812 C 528.550781 426.34375 529.1875 425.058594 529.835938 423.671875 C 527.226562 422.351562 525.019531 421.207031 523.871094 420.597656 C 523.988281 419.84375 524.105469 419.089844 524.234375 418.335938 C 524.347656 417.6875 524.492188 417.042969 524.621094 416.398438 C 526.167969 417.253906 528.667969 418.632812 531.433594 420.101562 C 532.125 418.488281 532.828125 416.769531 533.523438 414.976562 C 530.476562 413.179688 527.636719 411.441406 526.035156 410.453125 C 526.464844 408.882812 526.921875 407.304688 527.390625 405.734375 C 528.871094 406.621094 532.035156 408.496094 535.292969 410.300781 C 536.820312 406.140625 538.339844 401.671875 539.828125 397.078125 C 537.128906 395.957031 533.410156 393.867188 531.230469 392.59375 C 531.414062 391.894531 531.597656 391.199219 531.761719 390.503906 C 531.976562 389.570312 532.179688 388.632812 532.382812 387.703125 C 536.402344 389.265625 539.980469 388.734375 542.8125 387.582031 C 544.011719 383.671875 545.164062 379.769531 546.253906 375.96875 C 542.832031 371.304688 539.308594 366.699219 535.730469 362.148438 C 535.230469 361.515625 532.726562 362.195312 532.675781 362.941406 C 532.003906 372.75 530.53125 382.632812 528.21875 392.464844 C 525.988281 401.996094 522.230469 411.347656 520.699219 420.914062 C 519.714844 427.027344 519.429688 433.171875 519.976562 439.167969 C 521.851562 436.847656 523.617188 434.390625 525.296875 431.816406 C 524.355469 431.4375 523.5625 431.113281 522.984375 430.875 C 523.03125 428.960938 523.144531 427.035156 523.328125 425.113281 C 523.988281 425.46875 525.691406 426.382812 527.914062 427.507812 Z M 513.347656 366.910156 C 513.332031 366.523438 512.828125 366.222656 512.21875 366.238281 C 511.609375 366.25 511.128906 366.574219 511.140625 366.953125 C 511.152344 367.332031 511.65625 367.628906 512.261719 367.625 C 512.878906 367.605469 513.359375 367.28125 513.347656 366.910156 Z M 509.855469 367.675781 C 509.84375 367.289062 509.335938 366.992188 508.726562 367.003906 C 508.117188 367.015625 507.628906 367.332031 507.644531 367.71875 C 507.65625 368.097656 508.164062 368.398438 508.777344 368.382812 C 509.378906 368.378906 509.867188 368.054688 509.855469 367.675781 Z M 513.617188 389.90625 C 514.226562 389.945312 514.773438 389.667969 514.84375 389.285156 C 514.910156 388.90625 514.472656 388.5625 513.871094 388.527344 C 513.265625 388.488281 512.71875 388.765625 512.648438 389.148438 C 512.578125 389.527344 513.011719 389.863281 513.617188 389.90625 Z M 491.222656 401.261719 C 490.621094 401.222656 490.070312 401.5 490 401.875 C 489.929688 402.261719 490.367188 402.597656 490.976562 402.640625 C 491.585938 402.679688 492.128906 402.402344 492.199219 402.015625 C 492.269531 401.640625 491.832031 401.296875 491.222656 401.261719 Z M 517.242188 389.4375 C 517.847656 389.476562 518.390625 389.199219 518.460938 388.816406 C 518.53125 388.4375 518.097656 388.09375 517.492188 388.058594 C 516.882812 388.019531 516.335938 388.296875 516.269531 388.679688 C 516.199219 389.058594 516.636719 389.398438 517.242188 389.4375 Z M 389.628906 366.140625 C 389.628906 366.140625 407.320312 372.8125 413.960938 378.953125 C 413.941406 377.222656 413.734375 375.507812 413.351562 373.789062 C 413.335938 373.78125 394.914062 366.667969 389.34375 362.53125 C 389.761719 367.546875 390.109375 372.566406 390.375 377.488281 C 396.121094 380.390625 407.523438 387.957031 412.015625 390.976562 C 412.65625 388.777344 413.195312 386.5625 413.542969 384.332031 C 406.589844 382 389.628906 366.140625 389.628906 366.140625 Z M 408.949219 400 C 404.46875 397.226562 395.652344 391.902344 390.882812 389.914062 C 390.917969 391.5625 390.953125 393.183594 390.96875 394.777344 L 407.648438 403.511719 C 408.101562 402.34375 408.519531 401.171875 408.949219 400 Z M 406.089844 407.398438 L 390.996094 397.882812 C 391.003906 400.195312 390.984375 402.445312 390.933594 404.613281 C 395.3125 405.5 398.21875 410.265625 397.535156 415.710938 C 397.148438 418.753906 395.730469 421.390625 393.765625 423.167969 C 395.324219 424.257812 396.726562 425.386719 397.644531 426.152344 C 400.703125 419.957031 403.53125 413.703125 406.089844 407.398438 Z M 396.351562 428.746094 C 395.070312 427.757812 393.03125 426.210938 391.179688 424.867188 C 389.996094 425.386719 388.714844 425.632812 387.410156 425.53125 C 386.242188 425.4375 385.164062 425.070312 384.207031 424.492188 C 382.992188 425.832031 381.707031 427.476562 380.785156 428.6875 C 381.363281 430.308594 381.902344 431.933594 382.421875 433.566406 C 383.816406 432.070312 386.320312 429.519531 388.214844 428.351562 C 389.90625 427.308594 392.699219 429.949219 394.613281 432.152344 C 395.203125 431.019531 395.773438 429.878906 396.351562 428.746094 Z M 379.761719 425.894531 C 380.367188 425.019531 381.238281 423.871094 382.246094 422.816406 C 380.449219 420.722656 379.519531 417.644531 379.9375 414.300781 C 380.558594 409.375 383.910156 405.480469 387.878906 404.644531 C 387.933594 402.242188 387.953125 399.738281 387.941406 397.160156 L 371.757812 407.652344 C 374.285156 413.519531 377.238281 419.296875 379.507812 425.222656 C 379.59375 425.445312 379.671875 425.671875 379.761719 425.894531 Z M 370.753906 405.265625 L 387.902344 393.175781 C 387.878906 391.878906 387.851562 390.558594 387.820312 389.222656 C 386.019531 390.1875 374.410156 397.902344 369.273438 401.332031 C 369.734375 402.648438 370.222656 403.960938 370.753906 405.265625 Z M 387.277344 376.328125 C 387.058594 372.464844 386.792969 368.542969 386.484375 364.609375 C 385.578125 365.734375 371.640625 382.988281 365.464844 385.257812 C 365.773438 387.734375 366.21875 390.203125 366.78125 392.664062 C 366.902344 392.550781 384.257812 376.507812 387.277344 376.328125 Z M 364.976562 378.972656 C 370.832031 372.515625 385.589844 365.019531 386.476562 364.570312 C 386.375 363.308594 386.273438 362.054688 386.167969 360.792969 C 382.160156 364.746094 369.019531 371.753906 365.070312 373.820312 C 364.964844 375.53125 364.929688 377.25 364.976562 378.972656 Z M 414.40625 393.695312 C 413.585938 396.371094 412.6875 399.035156 411.722656 401.699219 L 411.71875 401.734375 L 411.710938 401.730469 C 411.320312 402.824219 410.914062 403.914062 410.5 405 L 410.40625 405.246094 L 408.949219 408.933594 L 408.859375 409.148438 C 405.332031 417.789062 401.179688 426.335938 396.679688 434.757812 L 396.6875 434.765625 C 396.6875 434.765625 396.65625 434.820312 396.597656 434.910156 C 393.542969 440.628906 390.324219 446.296875 387.027344 451.894531 C 386.636719 452.566406 384.144531 452.25 384 451.535156 C 382.074219 442.222656 379.355469 432.933594 375.855469 423.804688 C 373.960938 418.855469 371.625 414.019531 369.449219 409.148438 L 369.441406 409.148438 L 369.441406 409.140625 C 368.523438 407.089844 367.648438 405.03125 366.839844 402.957031 C 366.839844 402.957031 366.824219 402.964844 366.824219 402.964844 L 366.824219 402.921875 C 366.128906 401.128906 365.46875 399.328125 364.914062 397.503906 C 360.90625 384.332031 360.285156 370.5 365.457031 358.011719 C 366.484375 358.152344 367.515625 358.285156 368.554688 358.417969 C 368.1875 359.304688 367.839844 360.199219 367.53125 361.105469 C 368.441406 360.320312 369.5625 359.507812 370.820312 358.695312 C 373.0625 358.976562 375.34375 359.234375 377.65625 359.484375 C 373.101562 363.277344 368.308594 366.589844 366.199219 365.832031 C 365.632812 368.320312 365.28125 370.847656 365.101562 373.394531 C 368.226562 370.703125 376.960938 363.316406 382.515625 359.984375 C 385.34375 360.253906 388.226562 360.503906 391.152344 360.730469 C 398.105469 363.46875 413.335938 373.777344 413.351562 373.789062 C 412.695312 370.824219 411.546875 367.882812 410.082031 365.019531 L 410.082031 365.027344 C 409.175781 367.195312 403.898438 364.640625 398.441406 361.25 C 401.605469 361.445312 404.816406 361.605469 408.074219 361.738281 C 408.175781 361.8125 408.285156 361.882812 408.378906 361.960938 C 408.335938 361.882812 408.289062 361.820312 408.246094 361.75 C 409.277344 361.789062 410.324219 361.820312 411.363281 361.859375 C 415.375 368.878906 416.925781 375.886719 416.425781 383.160156 C 416.421875 383.242188 416.433594 383.332031 416.421875 383.414062 C 416.414062 383.425781 416.414062 383.433594 416.40625 383.445312 C 416.152344 386.796875 415.484375 390.199219 414.40625 393.695312 Z M 495.417969 401.527344 C 494.808594 401.488281 494.265625 401.761719 494.1875 402.148438 C 494.125 402.527344 494.5625 402.871094 495.164062 402.90625 C 495.765625 402.945312 496.324219 402.667969 496.386719 402.285156 C 496.457031 401.902344 496.019531 401.570312 495.417969 401.527344 Z M 506.832031 409.207031 C 506.222656 409.167969 505.679688 409.445312 505.609375 409.828125 C 505.539062 410.207031 505.96875 410.546875 506.578125 410.585938 C 507.179688 410.617188 507.730469 410.347656 507.800781 409.964844 C 507.871094 409.585938 507.433594 409.242188 506.832031 409.207031 Z M 509.347656 390.820312 C 509.949219 390.863281 510.496094 390.585938 510.566406 390.203125 C 510.632812 389.824219 510.203125 389.484375 509.59375 389.445312 C 508.988281 389.40625 508.441406 389.679688 508.371094 390.066406 C 508.300781 390.445312 508.738281 390.78125 509.347656 390.820312 Z M 505.476562 391.277344 C 506.085938 391.3125 506.628906 391.035156 506.699219 390.65625 C 506.769531 390.269531 506.335938 389.933594 505.730469 389.894531 C 505.121094 389.855469 504.574219 390.136719 504.507812 390.515625 C 504.4375 390.890625 504.875 391.230469 505.476562 391.277344 Z M 502.964844 409.65625 C 502.363281 409.617188 501.8125 409.894531 501.742188 410.277344 C 501.671875 410.65625 502.109375 410.992188 502.710938 411.035156 C 503.320312 411.074219 503.867188 410.796875 503.9375 410.414062 C 504.003906 410.035156 503.566406 409.699219 502.964844 409.65625 Z M 342.730469 448.070312 C 343.320312 448.101562 343.847656 447.828125 343.917969 447.460938 C 343.988281 447.101562 343.5625 446.765625 342.972656 446.730469 C 342.390625 446.6875 341.859375 446.960938 341.792969 447.328125 C 341.726562 447.695312 342.148438 448.023438 342.730469 448.070312 Z M 349.5625 413.316406 C 348.980469 413.28125 348.449219 413.550781 348.386719 413.917969 C 348.316406 414.292969 348.738281 414.617188 349.324219 414.65625 C 349.914062 414.699219 350.4375 414.425781 350.507812 414.058594 C 350.578125 413.683594 350.152344 413.355469 349.5625 413.316406 Z M 352.933594 414.890625 C 352.871094 415.25 353.296875 415.585938 353.878906 415.617188 C 354.46875 415.65625 355 415.390625 355.0625 415.023438 C 355.128906 414.648438 354.710938 414.324219 354.125 414.285156 C 353.539062 414.25 353.003906 414.515625 352.933594 414.890625 Z M 345.671875 412.398438 C 345.082031 412.359375 344.550781 412.625 344.488281 412.996094 C 344.417969 413.363281 344.84375 413.691406 345.425781 413.730469 C 346.015625 413.765625 346.539062 413.5 346.617188 413.132812 C 346.675781 412.761719 346.253906 412.429688 345.671875 412.398438 Z M 325.160156 423.910156 C 325.230469 423.542969 324.804688 423.214844 324.214844 423.175781 C 323.632812 423.136719 323.105469 423.410156 323.035156 423.773438 C 322.96875 424.144531 323.390625 424.476562 323.972656 424.507812 C 324.5625 424.550781 325.097656 424.285156 325.160156 423.910156 Z M 328.90625 423.472656 C 328.96875 423.105469 328.542969 422.777344 327.960938 422.738281 C 327.378906 422.699219 326.84375 422.972656 326.777344 423.339844 C 326.707031 423.707031 327.128906 424.039062 327.71875 424.074219 C 328.304688 424.113281 328.835938 423.839844 328.90625 423.472656 Z M 342.003906 411.734375 C 341.414062 411.695312 340.882812 411.96875 340.820312 412.335938 C 340.75 412.703125 341.167969 413.03125 341.757812 413.070312 C 342.347656 413.109375 342.871094 412.835938 342.941406 412.476562 C 343.003906 412.101562 342.585938 411.777344 342.003906 411.734375 Z M 356.589844 423.574219 C 356.648438 418.511719 355.824219 413.488281 353.96875 408.628906 C 349.695312 407.335938 342.195312 405.550781 335.597656 406.417969 C 335.597656 410.859375 335.628906 415.210938 335.703125 419.394531 C 339.09375 419.519531 347.3125 420.183594 356.589844 423.574219 Z M 356.40625 427.105469 C 352.402344 426.179688 342.816406 424.09375 335.792969 423.726562 C 335.933594 429.753906 336.160156 435.328125 336.464844 440.207031 C 338.164062 440.269531 345.242188 440.695312 352.054688 443.355469 C 352.777344 441.707031 353.441406 440.054688 354.007812 438.375 C 355.25 434.667969 356.066406 430.886719 356.40625 427.105469 Z M 350.398438 446.964844 C 348.125 446.027344 342.078125 443.742188 336.679688 443.3125 C 336.902344 446.238281 337.15625 448.847656 337.445312 451.078125 L 347.28125 453.300781 L 347.097656 453.6875 C 348.195312 451.445312 349.324219 449.210938 350.398438 446.964844 Z M 335.617188 400.40625 C 337.074219 400.296875 344.613281 399.875 351.003906 402.472656 C 347.636719 396.769531 342.648438 391.421875 335.800781 386.695312 C 335.753906 388.9375 335.71875 391.179688 335.683594 393.421875 C 335.773438 393.386719 335.835938 393.367188 335.835938 393.367188 L 335.671875 394.53125 C 335.640625 396.496094 335.621094 398.453125 335.617188 400.40625 Z M 332.96875 387.753906 C 327.75 391.628906 324.480469 395.976562 320.984375 400.558594 L 321.191406 400.40625 C 324.835938 398.15625 329.746094 395.925781 332.851562 394.59375 C 332.882812 392.320312 332.921875 390.035156 332.96875 387.753906 Z M 332.796875 400.089844 C 327.867188 400.386719 322.410156 402.078125 318.777344 403.421875 C 315.734375 407.476562 313.234375 411.847656 312.167969 416.308594 C 321.441406 411.371094 329.296875 410.53125 332.78125 410.429688 C 332.769531 407.039062 332.769531 403.578125 332.796875 400.089844 Z M 358.988281 415.3125 C 360.316406 422.371094 359.714844 429.636719 357.445312 436.703125 C 355.019531 444.253906 350.636719 451.382812 347.585938 458.828125 C 347.246094 459.667969 346.941406 460.523438 346.609375 461.375 C 345.792969 460.917969 344.996094 460.457031 344.226562 459.988281 C 344.742188 458.726562 345.304688 457.484375 345.882812 456.234375 L 345.546875 456.9375 L 337.816406 453.574219 C 338.695312 454.519531 339.234375 455.640625 339.539062 456.84375 C 337.699219 455.457031 336.128906 454.042969 334.804688 452.613281 C 334.175781 448.375 333.703125 442.488281 333.371094 435.523438 C 330.660156 436.0625 327.261719 437.195312 324.113281 438.375 C 322.847656 436.4375 321.625 434.464844 320.457031 432.484375 C 326.882812 430.089844 331.882812 429.207031 333.113281 429.015625 C 332.972656 424.722656 332.878906 420.148438 332.820312 415.390625 C 325.972656 416.054688 318.753906 418.710938 314.140625 420.691406 C 312.910156 418.171875 311.75 415.644531 310.652344 413.109375 C 311.542969 410.429688 312.859375 407.753906 314.664062 405.085938 C 314.664062 405.085938 314.652344 405.09375 314.652344 405.09375 L 314.671875 405.074219 C 315.550781 403.777344 316.542969 402.472656 317.648438 401.160156 C 319.4375 399.070312 321.046875 397.027344 322.71875 395.046875 C 325.351562 391.945312 328.132812 389 331.941406 386.289062 C 332.289062 386.035156 332.644531 385.789062 333.019531 385.542969 C 333.277344 373.949219 333.753906 362.59375 334.417969 352.792969 C 335.332031 352.976562 336.25 353.160156 337.179688 353.351562 C 336.558594 362.746094 336.109375 373.515625 335.851562 384.527344 C 336.097656 384.554688 336.320312 384.597656 336.472656 384.691406 C 337.554688 385.390625 338.589844 386.113281 339.59375 386.835938 C 350.871094 395 357.027344 404.929688 358.988281 415.3125 Z M 345.230469 432.921875 C 345.8125 432.957031 346.34375 432.6875 346.40625 432.324219 C 346.476562 431.949219 346.058594 431.621094 345.46875 431.589844 C 344.878906 431.546875 344.355469 431.816406 344.285156 432.183594 C 344.222656 432.554688 344.640625 432.882812 345.230469 432.921875 Z M 342.796875 397.972656 C 343.386719 398.011719 343.917969 397.738281 343.980469 397.375 C 344.050781 397.003906 343.632812 396.671875 343.042969 396.636719 C 342.453125 396.597656 341.921875 396.871094 341.859375 397.238281 C 341.792969 397.605469 342.210938 397.933594 342.796875 397.972656 Z M 349.125 433.84375 C 349.710938 433.882812 350.234375 433.609375 350.304688 433.242188 C 350.375 432.875 349.949219 432.546875 349.359375 432.507812 C 348.777344 432.46875 348.246094 432.742188 348.183594 433.109375 C 348.117188 433.476562 348.539062 433.808594 349.125 433.84375 Z M 353.675781 434.808594 C 354.265625 434.847656 354.792969 434.582031 354.863281 434.210938 C 354.929688 433.84375 354.507812 433.507812 353.917969 433.476562 C 353.335938 433.441406 352.800781 433.707031 352.738281 434.078125 C 352.667969 434.445312 353.09375 434.777344 353.675781 434.808594 Z M 346.402344 448.722656 C 346.992188 448.757812 347.523438 448.492188 347.585938 448.121094 C 347.65625 447.753906 347.230469 447.421875 346.648438 447.390625 C 346.058594 447.351562 345.527344 447.621094 345.464844 447.988281 C 345.398438 448.355469 345.820312 448.683594 346.402344 448.722656 Z M 339.925781 397.109375 C 339.996094 396.742188 339.570312 396.414062 338.988281 396.382812 C 338.398438 396.34375 337.867188 396.609375 337.800781 396.976562 C 337.738281 397.351562 338.15625 397.675781 338.738281 397.710938 C 339.328125 397.75 339.863281 397.476562 339.925781 397.109375 Z M 337.496094 432.007812 C 338.09375 432.039062 338.613281 431.773438 338.683594 431.398438 C 338.753906 431.039062 338.328125 430.703125 337.746094 430.664062 C 337.15625 430.632812 336.625 430.898438 336.558594 431.265625 C 336.492188 431.632812 336.914062 431.964844 337.496094 432.007812 Z M 337.949219 411.472656 C 337.359375 411.441406 336.828125 411.707031 336.761719 412.074219 C 336.691406 412.449219 337.117188 412.773438 337.699219 412.8125 C 338.289062 412.847656 338.816406 412.582031 338.886719 412.207031 C 338.949219 411.847656 338.53125 411.519531 337.949219 411.472656 Z M 341.554688 432.261719 C 342.144531 432.300781 342.667969 432.035156 342.738281 431.660156 C 342.808594 431.292969 342.382812 430.960938 341.800781 430.925781 C 341.210938 430.886719 340.679688 431.160156 340.617188 431.527344 C 340.546875 431.894531 340.96875 432.222656 341.554688 432.261719 Z M 322.757812 404.933594 C 322.167969 404.898438 321.636719 405.164062 321.574219 405.53125 C 321.503906 405.90625 321.925781 406.234375 322.511719 406.273438 C 323.101562 406.304688 323.632812 406.039062 323.703125 405.671875 C 323.765625 405.304688 323.347656 404.972656 322.757812 404.933594 Z M 332.308594 442.917969 C 331.71875 442.929688 331.257812 443.242188 331.269531 443.613281 C 331.273438 443.984375 331.761719 444.273438 332.359375 444.261719 C 332.949219 444.25 333.410156 443.9375 333.402344 443.570312 C 333.390625 443.203125 332.902344 442.90625 332.308594 442.917969 Z M 333.449219 451.058594 C 333.636719 451.289062 333.828125 451.523438 334.019531 451.75 C 334.257812 452.035156 334.527344 452.3125 334.792969 452.597656 L 334.496094 450.71875 C 334.496094 450.71875 334.113281 450.824219 333.449219 451.058594 Z M 319.253906 405.386719 C 318.664062 405.347656 318.136719 405.613281 318.066406 405.988281 C 318 406.355469 318.421875 406.675781 319.011719 406.722656 C 319.59375 406.753906 320.128906 406.488281 320.191406 406.121094 C 320.261719 405.753906 319.835938 405.421875 319.253906 405.386719 Z M 328.6875 443.664062 C 328.371094 443.671875 328.101562 443.765625 327.910156 443.914062 C 328.167969 444.273438 328.4375 444.640625 328.703125 445.003906 C 328.714844 445.003906 328.726562 445.007812 328.734375 445.007812 C 329.328125 444.996094 329.792969 444.6875 329.785156 444.316406 C 329.773438 443.949219 329.277344 443.652344 328.6875 443.664062 Z M 304.121094 355.402344 C 303.117188 353.703125 301.984375 352.0625 300.730469 350.472656 C 300.25 349.863281 299.746094 349.261719 299.226562 348.667969 L 299.253906 348.78125 L 302.472656 362.988281 Z M 313.234375 394.042969 C 312.378906 399.339844 310.832031 404.566406 309.253906 409.800781 C 308.6875 408.433594 308.144531 407.078125 307.617188 405.714844 C 307.765625 405.203125 307.921875 404.6875 308.0625 404.167969 C 307.683594 403.941406 307.21875 403.65625 306.710938 403.34375 C 305.710938 400.671875 304.773438 398.015625 303.90625 395.398438 C 306.148438 396.605469 308.136719 397.699219 309.429688 398.421875 C 309.558594 397.796875 309.695312 397.167969 309.804688 396.539062 C 309.929688 395.8125 310.046875 395.082031 310.152344 394.355469 C 308.753906 393.613281 305.710938 392.023438 302.28125 390.332031 C 301.726562 388.507812 301.1875 386.699219 300.6875 384.925781 C 305.316406 387.121094 309.5625 389.375 310.6875 389.984375 C 310.863281 388.121094 310.972656 386.257812 311.015625 384.40625 C 308.980469 383.558594 304.210938 381.621094 299.335938 379.960938 C 298.980469 378.605469 298.644531 377.265625 298.328125 375.960938 C 303.265625 377.3125 308.296875 378.914062 310.972656 379.796875 C 310.875 377.691406 310.6875 375.601562 310.382812 373.535156 L 297.289062 371.539062 C 296.476562 367.949219 295.792969 364.5625 295.222656 361.472656 L 300.824219 362.644531 L 295.214844 361.464844 C 295.101562 360.832031 294.988281 360.207031 294.878906 359.589844 L 297.433594 346.84375 L 297.453125 346.75 C 296.179688 345.449219 294.792969 344.199219 293.308594 342.996094 C 293.042969 342.78125 292.757812 342.578125 292.492188 342.371094 C 292.460938 342.007812 292.441406 341.820312 292.441406 341.820312 C 292.441406 341.820312 294.429688 342.527344 298.164062 343.679688 C 312.910156 357.042969 316.171875 375.726562 313.234375 394.042969 Z M 316.574219 424.511719 C 316.402344 424.507812 316.238281 424.527344 316.085938 424.5625 C 316.304688 424.980469 316.523438 425.40625 316.742188 425.824219 C 317.148438 425.75 317.464844 425.527344 317.515625 425.246094 C 317.582031 424.878906 317.164062 424.558594 316.574219 424.511719 Z M 346.472656 398.632812 C 347.054688 398.667969 347.585938 398.402344 347.65625 398.03125 C 347.71875 397.667969 347.300781 397.332031 346.710938 397.292969 C 346.128906 397.261719 345.597656 397.527344 345.527344 397.894531 C 345.464844 398.269531 345.882812 398.59375 346.472656 398.632812 Z M 321.019531 424.796875 C 321.085938 424.429688 320.667969 424.101562 320.078125 424.0625 C 319.496094 424.023438 318.960938 424.289062 318.898438 424.664062 C 318.828125 425.03125 319.253906 425.363281 319.835938 425.398438 C 320.417969 425.4375 320.953125 425.171875 321.019531 424.796875 Z M 338.675781 447.804688 C 339.265625 447.839844 339.796875 447.570312 339.863281 447.207031 C 339.929688 446.832031 339.507812 446.511719 338.917969 446.472656 C 338.335938 446.429688 337.800781 446.699219 337.738281 447.066406 C 337.667969 447.433594 338.09375 447.765625 338.675781 447.804688 Z M 330.636719 403.609375 C 330.046875 403.574219 329.519531 403.839844 329.449219 404.207031 C 329.386719 404.574219 329.8125 404.902344 330.394531 404.941406 C 330.976562 404.980469 331.507812 404.714844 331.578125 404.347656 C 331.640625 403.980469 331.222656 403.648438 330.636719 403.609375 Z M 327.832031 404.785156 C 327.769531 405.152344 327.238281 405.417969 326.65625 405.378906 C 326.066406 405.339844 325.648438 405.019531 325.710938 404.644531 C 325.78125 404.277344 326.304688 404.011719 326.894531 404.042969 C 327.484375 404.078125 327.902344 404.410156 327.832031 404.785156 "/>
</g>
</svg>
