<?xml version="1.0" encoding="UTF-8"?>
<svg xmlns="http://www.w3.org/2000/svg" xmlns:xlink="http://www.w3.org/1999/xlink" width="810pt" height="809.999993pt" viewBox="0 0 810 809.999993" version="1.2">
<defs>
<clipPath id="clip1">
  <path d="M 103.03125 0.0078125 L 706.605469 0.0078125 L 706.605469 809.945312 L 103.03125 809.945312 Z M 103.03125 0.0078125 "/>
</clipPath>
</defs>
<g id="surface1">
<g clip-path="url(#clip1)" clip-rule="nonzero">
<path style=" stroke:none;fill-rule:nonzero;fill:rgb(5.879211%,5.488586%,4.708862%);fill-opacity:1;" d="M 706.605469 658.542969 C 706.605469 658.460938 706.589844 658.378906 706.574219 658.300781 C 706.542969 658.136719 706.507812 657.957031 706.445312 657.796875 C 706.394531 657.617188 706.332031 657.441406 706.234375 657.261719 C 706.234375 657.246094 706.21875 657.230469 706.21875 657.214844 C 706.136719 657.035156 706.023438 656.875 705.910156 656.710938 C 705.910156 656.695312 705.910156 656.695312 705.894531 656.679688 C 705.8125 656.550781 705.730469 656.4375 705.636719 656.339844 C 705.570312 656.257812 705.503906 656.191406 705.425781 656.128906 C 705.277344 655.964844 705.101562 655.820312 704.921875 655.707031 C 696.550781 649.308594 686.140625 643.816406 674.792969 639.832031 C 665.371094 636.511719 655.574219 634.015625 646.085938 631.617188 C 632.226562 628.085938 617.867188 624.441406 604.980469 618.203125 C 586.117188 609.050781 569.945312 594.195312 554.464844 579.148438 C 552.667969 577.382812 550.886719 575.632812 549.105469 573.898438 C 548.328125 573.152344 547.570312 572.390625 546.792969 571.628906 C 528.625 553.90625 509.75 535.976562 486.597656 526.613281 C 488.199219 510.28125 490.96875 493.984375 494.773438 478.125 C 505.183594 470.105469 514.847656 460.726562 523.476562 450.230469 C 542.453125 427.273438 556.488281 399.167969 564.230469 368.710938 C 566.351562 369.183594 568.535156 369.472656 570.738281 369.570312 C 571.367188 369.605469 571.984375 369.621094 572.617188 369.621094 C 574.980469 369.621094 577.375 369.410156 579.738281 368.988281 C 582.523438 368.519531 585.277344 367.757812 587.929688 366.703125 C 601.613281 361.292969 610.679688 350.148438 615.875 341.742188 C 625.945312 325.441406 629.492188 306.78125 625.589844 290.53125 C 621.105469 271.789062 606.421875 256.933594 589.046875 253.566406 C 581.683594 252.15625 573.828125 253.046875 566.691406 256.011719 C 566.625 255.558594 566.542969 255.105469 566.464844 254.652344 C 574.589844 224.503906 573.230469 191.535156 562.675781 162.734375 C 571.59375 160.664062 582.039062 156.460938 587.300781 146.304688 C 592.820312 135.597656 590.359375 121.378906 580.339844 106.261719 C 558.027344 72.5 520.597656 49.882812 479.910156 45.480469 C 461.082031 20.789062 431.808594 4.007812 401.273438 0.429688 C 385.746094 -1.402344 374.1875 2.90625 369.523438 12.238281 C 364.699219 21.875 369.410156 32.925781 375.839844 39.113281 C 378.492188 41.636719 381.457031 43.664062 384.546875 45.347656 C 354.675781 49.367188 321.875 55.210938 291.4375 67.382812 C 264.308594 78.234375 227.300781 99.066406 205.164062 136.75 C 195.917969 152.492188 193.1875 166.570312 197.023438 178.59375 C 200.371094 189.105469 210.589844 197.171875 221.050781 198.179688 C 222.183594 225.167969 227.070312 251.816406 235.601562 277.441406 C 235.570312 277.574219 235.554688 277.71875 235.539062 277.863281 C 234.324219 276.988281 233.109375 276.179688 231.863281 275.433594 C 222.050781 269.617188 210.539062 268.664062 201.828125 272.957031 C 191.742188 277.898438 185.152344 289.464844 183.242188 305.550781 C 181.332031 321.8125 183.308594 338.53125 189.003906 353.90625 C 194.347656 368.324219 202.527344 377.960938 212.644531 381.769531 C 216.046875 383.050781 219.703125 383.679688 223.460938 383.679688 C 227.101562 383.679688 230.847656 383.082031 234.550781 381.929688 C 237.386719 381.074219 240.199219 379.859375 242.9375 378.335938 C 243 378.578125 243.085938 378.820312 243.167969 379.0625 C 251.40625 405.988281 264.746094 430.886719 281.917969 451.347656 C 292.117188 463.496094 303.566406 474.058594 315.964844 482.726562 C 319.222656 497.144531 321.617188 511.886719 323.074219 526.609375 C 298.933594 536.378906 279.441406 555.445312 260.570312 573.898438 L 258.144531 576.28125 C 257.25 577.15625 256.328125 578.046875 255.417969 578.9375 C 239.878906 594.050781 223.636719 609.003906 204.695312 618.203125 C 191.804688 624.441406 177.464844 628.085938 163.585938 631.617188 C 161.148438 632.234375 158.699219 632.863281 156.21875 633.496094 C 154.265625 634.015625 152.304688 634.535156 150.34375 635.066406 C 145.164062 636.492188 139.984375 638.050781 134.902344 639.832031 C 123.464844 643.847656 112.992188 649.371094 104.605469 655.820312 C 104.429688 655.964844 104.253906 656.128906 104.089844 656.304688 C 103.972656 656.417969 103.859375 656.550781 103.785156 656.695312 C 103.765625 656.710938 103.765625 656.710938 103.765625 656.726562 C 103.390625 657.230469 103.164062 657.8125 103.082031 658.410156 C 103.019531 658.71875 103.019531 659.042969 103.050781 659.367188 C 103.050781 659.59375 103.082031 659.820312 103.164062 660.046875 C 103.183594 660.144531 103.214844 660.257812 103.265625 660.371094 C 103.277344 660.421875 103.296875 660.484375 103.328125 660.535156 C 116.8125 698.796875 149.699219 733.804688 196.628906 760.242188 C 199.496094 761.863281 202.429688 763.453125 205.390625 765.007812 C 207.039062 765.863281 208.710938 766.707031 210.390625 767.550781 C 265.078125 794.878906 334.148438 809.945312 404.835938 809.945312 C 475.539062 809.945312 544.59375 794.878906 599.300781 767.550781 C 602.328125 766.027344 605.324219 764.488281 608.253906 762.882812 C 611.589844 761.101562 614.824219 759.273438 618.015625 757.390625 C 662.34375 731.292969 693.398438 697.386719 706.382812 660.453125 C 706.398438 660.421875 706.398438 660.386719 706.414062 660.355469 C 706.445312 660.257812 706.480469 660.179688 706.496094 660.082031 C 706.640625 659.5625 706.671875 659.042969 706.609375 658.542969 "/>
<path style=" stroke:none;fill-rule:nonzero;fill:rgb(5.879211%,5.488586%,4.708862%);fill-opacity:1;" d="M 216.496094 299.054688 C 209.730469 295.878906 197.648438 298.242188 197.71875 307.285156 C 197.71875 309.097656 200.8125 309.226562 201.714844 308.109375 C 212.175781 295.230469 218.765625 313.488281 223.523438 326.351562 C 219.753906 325.605469 216.15625 327.015625 214.429688 332.34375 C 210.976562 342.890625 219.671875 357.617188 228.347656 363.027344 C 230.03125 364.0625 233.546875 362.3125 231.765625 360.273438 C 228.027344 356.0625 224.21875 352.1875 221.925781 346.925781 C 220.691406 344.136719 219.722656 341.011719 219.464844 337.980469 C 218.957031 332.296875 224.507812 331.273438 227.640625 335.910156 C 229.53125 338.710938 235.695312 336.765625 233.867188 333.316406 C 228.089844 322.429688 229.46875 305.144531 216.496094 299.054688 Z M 300.746094 245.417969 C 300.746094 256.933594 312.808594 252.640625 331.265625 252.640625 C 349.738281 252.640625 367.597656 256.933594 367.597656 245.417969 C 367.597656 233.882812 352.636719 224.535156 334.179688 224.535156 C 315.707031 224.535156 300.746094 233.882812 300.746094 245.417969 Z M 332.609375 279.839844 C 317.957031 281.007812 302.464844 292.410156 302.722656 308.109375 C 302.753906 309.972656 305.945312 309.859375 306.625 308.53125 C 312.226562 297.613281 321.148438 286.742188 334.683594 287.453125 C 347.34375 288.101562 354.582031 297.09375 360.78125 306.992188 C 362.253906 309.355469 366.738281 308.402344 366.578125 305.421875 C 365.65625 289.398438 347.410156 278.660156 332.609375 279.839844 Z M 408.949219 306.164062 C 413.417969 312.824219 420.085938 317.652344 422.742188 325.523438 C 425.316406 333.136719 422.773438 341.933594 415.117188 345.335938 C 412.621094 346.4375 412.800781 349.953125 415.84375 349.96875 C 425.949219 350.019531 432.292969 340.832031 432.328125 331.292969 C 432.359375 319.871094 422.613281 308.789062 413.191406 303.394531 C 411.636719 302.503906 407.394531 303.832031 408.949219 306.164062 Z M 382.769531 396.898438 C 382.621094 396.867188 382.476562 396.835938 382.347656 396.804688 C 377.472656 395.703125 372.132812 394.503906 368.761719 394.503906 C 367.4375 394.503906 366.414062 394.679688 365.867188 395.132812 C 365.265625 395.605469 364.941406 396.917969 364.941406 398.828125 C 364.941406 406.816406 370.933594 414.136719 380.308594 419.273438 C 379.722656 411.804688 380.597656 403.898438 382.769531 396.898438 Z M 410.859375 426.609375 C 409.820312 421.476562 410.015625 415.675781 409.675781 410.863281 C 409.449219 407.59375 409.125 404.222656 409.042969 400.871094 C 402.359375 400.675781 396.011719 399.671875 390.28125 398.519531 C 389.972656 401.953125 389.472656 405.371094 389.035156 408.824219 C 388.449219 413.359375 388.175781 417.992188 387.609375 422.5625 C 394.457031 425.070312 402.421875 426.546875 410.859375 426.609375 Z M 436.761719 422.027344 C 434.980469 417.539062 433.976562 412.726562 432.910156 408.0625 C 432.214844 405.015625 431.46875 401.9375 431.03125 398.84375 C 426.691406 399.6875 422.03125 400.398438 417.140625 400.722656 C 417.382812 404.078125 417.351562 407.480469 417.449219 410.800781 C 417.578125 415.691406 418.226562 421.230469 417.707031 426.367188 C 424.605469 425.785156 431.097656 424.261719 436.761719 422.027344 Z M 458.035156 398.828125 C 458.035156 396.917969 457.710938 395.605469 457.113281 395.132812 C 455.121094 393.53125 447.414062 395.28125 440.632812 396.804688 C 440.371094 396.867188 440.066406 396.933594 439.789062 396.996094 C 440.550781 399.960938 441.019531 403.039062 441.539062 406.035156 C 442.25 410.28125 443.042969 414.589844 443.304688 418.898438 C 452.320312 413.8125 458.035156 406.636719 458.035156 398.828125 Z M 462.164062 388.816406 C 464.804688 390.90625 466.132812 394.277344 466.132812 398.828125 C 466.132812 418.949219 442.121094 434.726562 411.488281 434.726562 C 402.292969 434.726562 393.695312 433.300781 386.167969 430.757812 C 384.757812 430.304688 383.398438 429.785156 382.089844 429.234375 C 366.804688 422.949219 356.847656 411.789062 356.847656 398.828125 C 356.847656 394.277344 358.175781 390.90625 360.796875 388.816406 C 365.832031 384.78125 373.507812 386.515625 384.128906 388.898438 C 384.710938 389.027344 385.292969 389.15625 385.894531 389.285156 C 387.429688 389.644531 389 389.984375 390.605469 390.324219 C 396.480469 391.539062 402.8125 392.605469 409.53125 392.800781 C 410.179688 392.800781 410.824219 392.816406 411.488281 392.816406 C 412.980469 392.816406 414.46875 392.769531 415.925781 392.671875 C 421.121094 392.378906 426.09375 391.585938 430.773438 390.632812 C 432.84375 390.242188 434.851562 389.789062 436.8125 389.351562 C 437.492188 389.207031 438.171875 389.042969 438.851562 388.898438 C 449.457031 386.515625 457.128906 384.78125 462.164062 388.816406 Z M 445.554688 245.417969 C 445.554688 256.933594 463.410156 252.640625 481.886719 252.640625 C 500.34375 252.640625 512.417969 256.933594 512.417969 245.417969 C 512.417969 233.882812 497.445312 224.535156 478.96875 224.535156 C 460.515625 224.535156 445.554688 233.882812 445.554688 245.417969 Z M 446.574219 305.710938 C 446.410156 308.9375 451.011719 309 452.355469 306.699219 C 458.328125 296.429688 466.277344 286.902344 479.425781 287.359375 C 492.214844 287.8125 500.859375 298.148438 506.445312 308.546875 C 507.367188 310.230469 510.394531 309.664062 510.414062 307.671875 C 510.65625 291.40625 494.269531 279.726562 478.988281 279.742188 C 465 279.761719 447.398438 290.46875 446.574219 305.710938 Z M 477.367188 53.351562 C 477.335938 53.351562 477.304688 53.351562 477.269531 53.339844 C 477.109375 53.320312 476.964844 53.300781 476.816406 53.257812 C 476.65625 53.226562 476.511719 53.175781 476.363281 53.125 C 476.21875 53.082031 476.089844 53.011719 475.960938 52.949219 C 475.699219 52.832031 475.457031 52.675781 475.246094 52.511719 C 475.183594 52.445312 475.085938 52.378906 475.003906 52.300781 C 474.792969 52.125 474.617188 51.910156 474.453125 51.699219 C 456.96875 28.015625 429.265625 11.847656 400.316406 8.460938 C 395.914062 7.941406 381.214844 6.957031 376.761719 15.851562 C 373.894531 21.585938 376.957031 28.9375 381.441406 33.265625 C 386.816406 38.417969 394.585938 41.191406 401.433594 43.632812 C 403.199219 44.246094 404.300781 46.011719 404.105469 47.878906 C 403.894531 49.757812 402.4375 51.234375 400.578125 51.460938 C 367.4375 55.523438 329.179688 61.035156 294.449219 74.910156 C 268.480469 85.285156 233.125 105.160156 212.148438 140.847656 C 204.113281 154.519531 201.621094 166.394531 204.726562 176.128906 C 207.332031 184.3125 216.515625 190.824219 224.414062 190.128906 C 224.546875 190.109375 224.695312 190.09375 224.820312 190.09375 C 225.402344 190.078125 225.972656 190.191406 226.46875 190.402344 C 226.582031 190.453125 226.71875 190.5 226.832031 190.566406 C 227.070312 190.695312 227.3125 190.855469 227.527344 191.035156 C 227.601562 191.097656 227.683594 191.164062 227.746094 191.246094 C 227.933594 191.40625 228.109375 191.601562 228.253906 191.8125 C 228.398438 192.023438 228.527344 192.25 228.625 192.492188 C 228.691406 192.605469 228.742188 192.71875 228.773438 192.847656 C 228.816406 192.976562 228.855469 193.109375 228.886719 193.253906 C 228.917969 193.367188 228.929688 193.496094 228.949219 193.625 C 228.960938 193.757812 228.980469 193.886719 228.980469 194.03125 L 228.980469 194.160156 C 229.644531 216.597656 232.980469 238.808594 238.871094 260.386719 C 243.503906 234.15625 250.753906 207.71875 261.765625 183.582031 C 263.902344 178.902344 266.164062 174.300781 268.609375 169.8125 C 271.425781 167.625 274.308594 165.535156 277.238281 163.496094 C 291.566406 153.550781 307.160156 145.191406 322.992188 138.609375 C 326.132812 133.558594 329.808594 129.21875 332.59375 126.75 C 334.40625 125.148438 338.550781 126.6875 336.414062 129.085938 C 334.667969 131.027344 333.078125 133.074219 331.734375 135.226562 C 330.050781 137.816406 328.675781 140.558594 327.65625 143.5 C 327.476562 143.925781 327.332031 144.351562 327.203125 144.765625 C 326.378906 147.363281 325.761719 149.980469 325.550781 152.710938 C 325.210938 157.050781 324.984375 158.183594 328.933594 160.011719 C 331.316406 161.113281 334.195312 160.886719 337.273438 159.832031 C 337.824219 156.355469 338.550781 152.96875 339.28125 149.773438 C 339.832031 147.390625 344.363281 147.539062 344.007812 150.226562 C 343.734375 152.335938 343.457031 154.617188 343.246094 157.019531 C 343.003906 159.882812 342.859375 162.894531 342.90625 165.925781 C 343.085938 179.113281 346.824219 192.523438 361.703125 194.421875 C 375.644531 196.203125 389.277344 186.046875 398.925781 177.136719 C 401.921875 174.382812 404.722656 171.464844 407.359375 168.417969 C 404.917969 166.441406 403.085938 163.414062 402.195312 159.023438 C 401.777344 156.90625 405.675781 156.269531 406.453125 158.050781 C 407.636719 160.757812 409.238281 162.636719 411.132812 163.851562 C 414.078125 165.714844 417.738281 165.988281 421.722656 165.210938 C 434.464844 162.765625 450.523438 149.757812 456.9375 144.203125 C 461.195312 140.488281 465.242188 136.585938 469.160156 132.535156 C 468.351562 131.535156 467.574219 130.496094 466.828125 129.441406 C 465.128906 127.011719 469.871094 125.960938 471.359375 127.195312 C 471.910156 127.644531 472.460938 128.082031 472.996094 128.535156 C 475.230469 130.300781 477.480469 131.953125 479.765625 133.488281 C 490.191406 140.539062 501.183594 145.140625 513.164062 147.183594 C 515.171875 147.539062 517.195312 147.808594 519.253906 147.996094 C 521.375 150.570312 523.429688 153.222656 525.386719 155.960938 C 536.933594 171.933594 545.851562 190.386719 552.863281 208.335938 C 556.3125 217.148438 559.5 226.316406 562.109375 235.679688 C 565.75 210.492188 562.804688 184.296875 553.445312 161.246094 C 553.429688 161.214844 553.414062 161.175781 553.414062 161.144531 C 553.316406 160.902344 553.25 160.664062 553.21875 160.433594 C 553.136719 159.980469 553.121094 159.542969 553.203125 159.105469 C 553.234375 158.929688 553.269531 158.765625 553.332031 158.597656 C 553.316406 158.589844 553.316406 158.570312 553.332031 158.554688 C 553.382812 158.378906 553.445312 158.195312 553.542969 158.019531 C 553.609375 157.839844 553.707031 157.664062 553.835938 157.5 C 553.933594 157.320312 554.0625 157.164062 554.191406 157.03125 C 554.578125 156.574219 555.097656 156.222656 555.679688 155.980469 C 555.777344 155.929688 555.875 155.898438 555.972656 155.878906 C 556.148438 155.816406 556.3125 155.765625 556.488281 155.734375 C 569.117188 153.5 576.628906 149.324219 580.113281 142.585938 C 585.679688 131.824219 578.410156 118.007812 573.585938 110.734375 C 552.605469 78.980469 515.738281 56.996094 477.367188 53.351562 Z M 575.464844 291.617188 C 573.3125 300.625 572.339844 309.859375 572 319.109375 C 571.839844 323.402344 577.730469 322.769531 579.398438 320.03125 C 582.492188 314.976562 588.289062 320.890625 589.113281 324.148438 C 589.808594 326.902344 589.210938 329.785156 588.238281 332.328125 C 586.410156 337.15625 582.363281 340.542969 580.566406 345.304688 C 579.675781 347.636719 582.523438 348.558594 584.257812 347.554688 C 593.710938 342.082031 601.546875 327.015625 594.066406 317.019531 C 590.601562 312.386719 584.984375 311.027344 580.0625 312.433594 C 580.417969 308.027344 580.9375 303.65625 581.714844 299.28125 C 582.199219 296.527344 585.519531 275.792969 592.222656 284.394531 C 592.804688 285.136719 594.179688 284.960938 594.667969 284.199219 C 599.652344 276.683594 586.230469 274.347656 581.550781 278.398438 C 577.78125 281.65625 576.566406 286.984375 575.464844 291.617188 Z M 550.824219 586.890625 C 540.074219 608.953125 526.199219 630.242188 510.558594 648.109375 C 493.589844 667.5 472.429688 683.636719 447.871094 692.027344 C 423.015625 700.515625 396.238281 698.976562 371.644531 690.375 C 322.394531 673.121094 286.113281 630.191406 259.648438 586.113281 C 244.070312 601.210938 227.703125 616.050781 208.226562 625.496094 C 194.609375 632.105469 179.839844 635.847656 165.578125 639.476562 C 165.226562 639.570312 164.851562 639.652344 164.5 639.75 C 180.390625 653.4375 192.097656 673.65625 199.175781 692.367188 C 206.929688 712.890625 209.863281 735.039062 206.867188 756.617188 C 209.210938 757.878906 211.597656 759.109375 214.003906 760.308594 C 267.605469 787.085938 335.378906 801.84375 404.839844 801.84375 C 474.3125 801.84375 542.085938 787.085938 595.691406 760.308594 C 598.898438 758.703125 602.039062 757.070312 605.128906 755.382812 C 601.761719 746.425781 599.449219 736.933594 597.617188 728.476562 C 594.378906 713.523438 593.714844 697.84375 597.34375 682.90625 C 602.296875 662.414062 617.679688 643.332031 638.046875 637.917969 C 625.707031 634.726562 613.160156 631.179688 601.472656 625.496094 C 582.316406 616.210938 566.160156 601.714844 550.828125 586.890625 Z M 197.257812 751.269531 C 198.101562 732.234375 195.621094 713.183594 189.328125 695.023438 C 185.167969 683.019531 179.546875 671.632812 172.375 661.132812 C 167.597656 654.167969 162.046875 647.980469 156.441406 641.824219 C 150.078125 643.507812 143.699219 645.308594 137.5625 647.476562 C 128.015625 650.832031 119.203125 655.316406 111.917969 660.484375 C 124.984375 694.976562 154.886719 726.695312 197.257812 751.269531 Z M 240.664062 370.285156 C 235.660156 351.3125 233.136719 331.519531 233.136719 311.445312 C 233.136719 303.332031 233.542969 295.230469 234.363281 287.375 C 232.183594 285.382812 229.996094 283.746094 227.730469 282.402344 C 220.25 277.960938 211.683594 277.121094 205.386719 280.230469 C 195.214844 285.203125 192.195312 298.828125 191.285156 306.503906 C 189.507812 321.507812 191.351562 336.929688 196.578125 351.085938 C 199.71875 359.558594 205.5625 370.445312 215.507812 374.1875 C 222.9375 377.007812 232.234375 375.53125 240.664062 370.285156 Z M 514.039062 627.761719 C 525.078125 612.308594 533.546875 595.460938 542.679688 578.953125 C 524.074219 560.761719 506.394531 543.605469 484.507812 534.515625 C 483.519531 540.089844 482.464844 545.664062 481.429688 551.21875 C 478.335938 568.050781 475.292969 584.945312 470.988281 601.519531 C 470.421875 603.753906 466.375 603.59375 466.582031 601.082031 C 467.945312 584.363281 470.664062 567.742188 473.285156 551.1875 C 475.390625 537.839844 477.332031 524.425781 480.265625 511.238281 C 481.496094 502.488281 483.03125 493.773438 484.894531 485.171875 C 459.71875 501.792969 431.335938 510.523438 402.226562 510.523438 C 375.496094 510.523438 349.203125 503.089844 325.582031 488.964844 C 326.84375 495.152344 327.945312 501.40625 328.867188 507.675781 C 339.410156 539.003906 342.082031 575.695312 338.519531 608.144531 C 338.339844 609.652344 335.425781 609.585938 335.265625 608.0625 C 333.46875 590.714844 332.105469 573.363281 329.726562 556.09375 C 328.707031 548.742188 327.394531 541.449219 326.035156 534.160156 C 303.449219 543.265625 285.347656 560.988281 266.230469 579.699219 C 265.226562 580.6875 264.222656 581.65625 263.21875 582.628906 C 279.617188 603.234375 295.0625 624.539062 314.152344 642.894531 C 351.679688 679.003906 406.632812 703.578125 456.964844 678.808594 C 480.230469 667.371094 499.0625 648.675781 514.039062 627.761719 Z M 557.347656 362.75 C 557.832031 360.675781 558.285156 358.605469 558.707031 356.515625 C 543.226562 342.421875 523.558594 333.542969 501.960938 333.800781 C 475.617188 334.109375 456.871094 351.410156 433.246094 360.109375 C 410.417969 368.503906 386.960938 363.15625 364.617188 355.980469 C 340.832031 348.351562 315.902344 338.175781 290.59375 344.332031 C 273.871094 348.398438 259.792969 358.019531 249.183594 370.851562 C 249.199219 370.882812 249.199219 370.914062 249.21875 370.949219 C 256.972656 399.054688 270.421875 425.054688 288.101562 446.132812 C 298.203125 458.167969 309.554688 468.535156 321.859375 476.960938 C 321.9375 477.007812 322.003906 477.054688 322.085938 477.121094 C 346.355469 493.675781 374.039062 502.425781 402.226562 502.425781 C 432.957031 502.425781 462.84375 492.121094 488.667969 472.601562 C 488.683594 472.585938 488.714844 472.570312 488.730469 472.554688 C 499.0625 464.730469 508.660156 455.476562 517.226562 445.0625 C 536.265625 422.042969 550.125 393.578125 557.347656 362.75 Z M 560.746094 344.980469 C 562.398438 333.949219 563.238281 322.738281 563.238281 311.445312 C 563.238281 298.714844 562.203125 286.078125 560.082031 273.734375 C 559.222656 269.441406 558.382812 265.148438 557.523438 260.871094 C 557.445312 260.5 557.363281 260.125 557.28125 259.769531 C 557.25 259.671875 557.234375 259.558594 557.199219 259.460938 C 557.152344 259.25 557.121094 259.023438 557.105469 258.796875 C 553.816406 242.417969 550.222656 226.203125 544.410156 210.261719 C 537.433594 191.050781 527.929688 173.652344 518.101562 156.054688 C 502.332031 155.398438 486.480469 149.273438 474.921875 138.640625 C 466.90625 146.855469 458.148438 154.246094 448.464844 160.363281 C 441.34375 164.855469 427.515625 171.820312 416.703125 171.480469 C 409.609375 179.808594 401.546875 187.195312 392.320312 193.140625 C 380.03125 201.0625 362.222656 206.992188 348.75 198.371094 C 338.066406 191.519531 335.652344 180.148438 336.285156 168.550781 C 331.234375 170.167969 325.710938 170.847656 321.390625 167.65625 C 315.351562 163.21875 315.464844 155.785156 318.167969 148.316406 C 302.949219 156.300781 288.492188 165.195312 274.324219 174.835938 C 268.398438 190.742188 262.042969 206.472656 256.9375 222.671875 C 251.449219 240.152344 247.082031 257.921875 243.601562 275.886719 C 243.789062 276.472656 243.84375 277.085938 243.746094 277.734375 C 243.324219 280.472656 242.949219 283.292969 242.644531 286.0625 C 242.644531 286.238281 242.628906 286.402344 242.59375 286.582031 L 242.59375 286.597656 C 241.691406 294.710938 241.234375 303.054688 241.234375 311.445312 C 241.234375 328.910156 243.210938 346.128906 247.128906 362.75 C 258.152344 350.488281 273.042969 341.5625 288.976562 337.429688 C 315.382812 330.5625 341.238281 339.570312 366.269531 347.492188 C 381.035156 352.171875 396.5625 356.839844 412.234375 355.914062 C 428.472656 354.960938 441.992188 346.601562 455.847656 338.9375 C 478.078125 326.640625 501.570312 321.359375 526.585938 327.96875 C 538.921875 331.226562 550.871094 336.929688 560.746094 344.980469 Z M 580.109375 142.582031 C 585.679688 131.824219 578.410156 118.003906 573.585938 110.730469 C 552.601562 78.976562 515.738281 56.996094 477.367188 53.347656 C 477.332031 53.347656 477.300781 53.347656 477.269531 53.335938 C 477.105469 53.316406 476.960938 53.296875 476.816406 53.253906 C 476.652344 53.222656 476.507812 53.171875 476.363281 53.121094 C 476.214844 53.078125 476.085938 53.007812 475.957031 52.945312 C 475.699219 52.828125 475.457031 52.671875 475.246094 52.507812 C 475.179688 52.445312 475.082031 52.375 475.003906 52.296875 C 474.792969 52.121094 474.613281 51.90625 474.453125 51.695312 C 456.964844 28.011719 429.265625 11.84375 400.316406 8.457031 C 395.914062 7.9375 381.210938 6.953125 376.761719 15.847656 C 373.894531 21.582031 376.953125 28.933594 381.4375 33.265625 C 386.8125 38.414062 394.585938 41.1875 401.433594 43.628906 C 403.199219 44.242188 404.300781 46.007812 404.105469 47.875 C 403.894531 49.753906 402.4375 51.230469 400.574219 51.457031 C 367.433594 55.519531 329.175781 61.03125 294.449219 74.910156 C 268.480469 85.28125 233.121094 105.15625 212.144531 140.847656 C 204.113281 154.515625 201.621094 166.390625 204.726562 176.128906 C 207.332031 184.308594 216.515625 190.820312 224.414062 190.125 C 224.546875 190.109375 224.691406 190.089844 224.820312 190.089844 C 225.398438 190.074219 225.96875 190.1875 226.46875 190.398438 C 226.582031 190.449219 226.714844 190.496094 226.828125 190.5625 C 227.070312 190.691406 227.308594 190.851562 227.527344 191.03125 C 227.601562 191.097656 227.683594 191.160156 227.746094 191.242188 C 227.929688 191.402344 228.105469 191.597656 228.253906 191.808594 C 228.398438 192.019531 228.523438 192.246094 228.625 192.488281 C 228.6875 192.601562 228.738281 192.714844 228.769531 192.84375 C 228.816406 192.976562 228.851562 193.105469 228.882812 193.25 C 228.917969 193.363281 228.929688 193.492188 228.945312 193.625 C 228.960938 193.753906 228.980469 193.882812 228.980469 194.027344 L 228.980469 194.15625 C 229.644531 216.59375 232.976562 238.804688 238.871094 260.382812 C 243.5 234.15625 250.753906 207.71875 261.765625 183.578125 C 263.902344 178.898438 266.164062 174.296875 268.609375 169.808594 C 271.425781 167.621094 274.308594 165.53125 277.238281 163.492188 C 291.566406 153.546875 307.15625 145.1875 322.992188 138.605469 C 326.132812 133.554688 329.808594 129.214844 332.59375 126.746094 C 334.40625 125.148438 338.550781 126.683594 336.414062 129.082031 C 334.664062 131.027344 333.078125 133.070312 331.734375 135.222656 C 330.050781 137.816406 328.675781 140.554688 327.65625 143.496094 C 327.476562 143.921875 327.332031 144.347656 327.203125 144.761719 C 326.375 147.359375 325.761719 149.976562 325.550781 152.707031 C 325.210938 157.046875 324.984375 158.179688 328.933594 160.007812 C 331.3125 161.109375 334.195312 160.882812 337.273438 159.832031 C 337.820312 156.351562 338.550781 152.964844 339.277344 149.769531 C 339.828125 147.390625 344.363281 147.535156 344.007812 150.222656 C 343.730469 152.332031 343.457031 154.617188 343.246094 157.015625 C 343.003906 159.878906 342.855469 162.890625 342.90625 165.921875 C 343.082031 179.109375 346.824219 192.523438 361.703125 194.417969 C 375.644531 196.199219 389.273438 186.042969 398.925781 177.132812 C 401.917969 174.378906 404.71875 171.460938 407.359375 168.417969 C 404.914062 166.441406 403.085938 163.410156 402.195312 159.019531 C 401.773438 156.902344 405.675781 156.269531 406.453125 158.046875 C 407.632812 160.753906 409.238281 162.632812 411.132812 163.847656 C 414.078125 165.710938 417.738281 165.988281 421.71875 165.207031 C 434.460938 162.761719 450.523438 149.757812 456.933594 144.199219 C 461.191406 140.488281 465.238281 136.582031 469.15625 132.53125 C 468.347656 131.53125 467.570312 130.496094 466.828125 129.4375 C 465.125 127.007812 469.871094 125.957031 471.359375 127.191406 C 471.910156 127.640625 472.460938 128.078125 472.996094 128.53125 C 475.230469 130.296875 477.480469 131.949219 479.761719 133.488281 C 490.1875 140.535156 501.183594 145.136719 513.164062 147.183594 C 515.171875 147.535156 517.195312 147.808594 519.25 147.992188 C 521.371094 150.566406 523.425781 153.21875 525.386719 155.957031 C 536.929688 171.933594 545.851562 190.382812 552.863281 208.332031 C 556.308594 217.144531 559.5 226.3125 562.105469 235.675781 C 565.75 210.488281 562.800781 184.292969 553.445312 161.242188 C 553.429688 161.210938 553.410156 161.171875 553.410156 161.140625 C 553.316406 160.898438 553.25 160.660156 553.21875 160.429688 C 553.136719 159.976562 553.121094 159.539062 553.203125 159.101562 C 553.234375 158.925781 553.265625 158.761719 553.332031 158.597656 C 553.316406 158.585938 553.316406 158.566406 553.332031 158.550781 C 553.378906 158.375 553.445312 158.191406 553.542969 158.015625 C 553.605469 157.839844 553.703125 157.660156 553.832031 157.496094 C 553.929688 157.316406 554.058594 157.160156 554.1875 157.027344 C 554.578125 156.570312 555.097656 156.21875 555.679688 155.976562 C 555.777344 155.925781 555.871094 155.894531 555.96875 155.875 C 556.148438 155.8125 556.308594 155.761719 556.488281 155.730469 C 569.117188 153.496094 576.628906 149.320312 580.109375 142.582031 Z M 608.992188 337.480469 C 617.929688 323.011719 621.105469 306.585938 617.71875 292.429688 C 614.011719 276.957031 601.59375 264.257812 587.507812 261.519531 C 581.144531 260.304688 574.070312 261.355469 567.886719 264.355469 C 568.371094 268.515625 568.679688 272.679688 568.792969 276.828125 C 570.476562 288.183594 571.335938 299.78125 571.335938 311.445312 C 571.335938 324.988281 570.167969 338.453125 567.871094 351.621094 C 567.335938 354.714844 566.738281 357.792969 566.074219 360.839844 C 569.117188 361.503906 572.324219 361.683594 575.558594 361.40625 C 578.71875 361.113281 581.90625 360.371094 584.96875 359.15625 C 596.574219 354.570312 604.425781 344.835938 608.992188 337.480469 Z M 638.039062 637.917969 C 625.703125 634.726562 613.152344 631.179688 601.464844 625.496094 C 582.3125 616.210938 566.152344 601.714844 550.820312 586.890625 C 540.070312 608.953125 526.195312 630.242188 510.554688 648.109375 C 493.589844 667.5 472.429688 683.636719 447.867188 692.027344 C 423.015625 700.515625 396.238281 698.976562 371.644531 690.375 C 322.394531 673.121094 286.109375 630.191406 259.644531 586.113281 C 244.070312 601.210938 227.703125 616.050781 208.222656 625.496094 C 194.605469 632.105469 179.839844 635.847656 165.578125 639.476562 C 165.222656 639.570312 164.851562 639.652344 164.496094 639.75 C 180.390625 653.4375 192.097656 673.65625 199.171875 692.367188 C 206.925781 712.890625 209.859375 735.039062 206.863281 756.617188 C 209.210938 757.878906 211.59375 759.109375 214.003906 760.308594 C 267.605469 787.085938 335.378906 801.84375 404.839844 801.84375 C 474.3125 801.84375 542.082031 787.085938 595.691406 760.308594 C 598.894531 758.703125 602.035156 757.070312 605.128906 755.382812 C 601.761719 746.425781 599.445312 736.933594 597.617188 728.476562 C 594.378906 713.523438 593.714844 697.84375 597.339844 682.90625 C 602.296875 662.414062 617.675781 643.332031 638.042969 637.917969 Z M 697.75 660.46875 C 690.464844 655.300781 681.65625 650.832031 672.121094 647.476562 C 664.753906 644.886719 657.046875 642.78125 649.4375 640.835938 C 622.789062 645.03125 606.90625 668.84375 604.863281 694.878906 C 603.828125 708.226562 605.980469 721.460938 609.59375 734.292969 C 611.035156 739.445312 613.074219 744.578125 615.082031 749.714844 C 656.042969 725.351562 684.957031 694.230469 697.75 660.46875 Z M 706.605469 658.542969 C 706.667969 659.042969 706.636719 659.5625 706.492188 660.082031 C 706.476562 660.179688 706.441406 660.257812 706.410156 660.355469 C 706.394531 660.390625 706.394531 660.421875 706.378906 660.453125 C 693.394531 697.390625 662.339844 731.296875 618.011719 757.394531 C 614.820312 759.273438 611.582031 761.101562 608.25 762.882812 C 605.316406 764.488281 602.324219 766.027344 599.296875 767.550781 C 544.589844 794.878906 475.535156 809.945312 404.832031 809.945312 C 334.148438 809.945312 265.078125 794.878906 210.386719 767.550781 C 208.710938 766.707031 207.039062 765.867188 205.390625 765.007812 C 202.429688 763.453125 199.496094 761.863281 196.628906 760.242188 C 149.699219 733.804688 116.8125 698.796875 103.328125 660.535156 C 103.296875 660.484375 103.277344 660.421875 103.265625 660.371094 C 103.214844 660.257812 103.183594 660.144531 103.164062 660.046875 C 103.082031 659.820312 103.050781 659.59375 103.050781 659.367188 C 103.019531 659.042969 103.019531 658.71875 103.082031 658.414062 C 103.164062 657.8125 103.390625 657.230469 103.765625 656.726562 C 103.765625 656.710938 103.765625 656.710938 103.78125 656.695312 C 103.859375 656.550781 103.972656 656.417969 104.085938 656.304688 C 104.25 656.128906 104.429688 655.964844 104.605469 655.820312 C 112.992188 649.375 123.464844 643.847656 134.898438 639.832031 C 139.984375 638.050781 145.160156 636.496094 150.34375 635.070312 C 152.304688 634.535156 154.265625 634.015625 156.21875 633.496094 C 158.695312 632.867188 161.144531 632.234375 163.585938 631.617188 C 177.460938 628.085938 191.804688 624.441406 204.695312 618.203125 C 223.632812 609.003906 239.875 594.050781 255.414062 578.9375 C 256.324219 578.046875 257.25 577.15625 258.140625 576.28125 L 260.570312 573.898438 C 279.4375 555.445312 298.933594 536.378906 323.070312 526.613281 C 321.613281 511.886719 319.21875 497.144531 315.964844 482.726562 C 303.5625 474.058594 292.117188 463.496094 281.917969 451.347656 C 264.742188 430.886719 251.40625 405.988281 243.164062 379.066406 C 243.082031 378.820312 243 378.578125 242.9375 378.335938 C 240.199219 379.859375 237.382812 381.074219 234.550781 381.933594 C 230.835938 383.082031 227.101562 383.679688 223.457031 383.679688 C 219.699219 383.679688 216.046875 383.050781 212.644531 381.769531 C 202.523438 377.960938 194.347656 368.324219 189.003906 353.90625 C 183.304688 338.53125 181.332031 321.816406 183.242188 305.550781 C 185.152344 289.464844 191.742188 277.898438 201.828125 272.957031 C 210.535156 268.664062 222.046875 269.617188 231.863281 275.433594 C 233.109375 276.179688 234.324219 276.988281 235.539062 277.863281 C 235.550781 277.71875 235.570312 277.574219 235.601562 277.445312 C 227.070312 251.816406 222.179688 225.167969 221.050781 198.179688 C 210.589844 197.175781 200.367188 189.105469 197.023438 178.59375 C 193.183594 166.574219 195.914062 152.492188 205.160156 136.75 C 227.296875 99.066406 264.304688 78.234375 291.4375 67.382812 C 321.875 55.210938 354.675781 49.367188 384.546875 45.347656 C 381.453125 43.664062 378.492188 41.640625 375.835938 39.113281 C 369.410156 32.925781 364.699219 21.875 369.523438 12.238281 C 374.183594 2.90625 385.746094 -1.402344 401.269531 0.429688 C 431.804688 4.007812 461.078125 20.789062 479.90625 45.480469 C 520.59375 49.882812 558.027344 72.5 580.335938 106.261719 C 590.359375 121.378906 592.820312 135.597656 587.296875 146.304688 C 582.035156 156.460938 571.59375 160.664062 562.671875 162.734375 C 573.226562 191.535156 574.589844 224.503906 566.460938 254.648438 C 566.542969 255.105469 566.621094 255.558594 566.6875 256.011719 C 573.828125 253.046875 581.679688 252.15625 589.046875 253.566406 C 606.417969 256.933594 621.101562 271.789062 625.589844 290.53125 C 629.488281 306.78125 625.945312 325.441406 615.875 341.738281 C 610.675781 350.148438 601.609375 361.292969 587.929688 366.703125 C 585.273438 367.757812 582.523438 368.519531 579.738281 368.988281 C 577.375 369.410156 574.976562 369.621094 572.613281 369.621094 C 571.980469 369.621094 571.367188 369.601562 570.734375 369.570312 C 568.535156 369.472656 566.347656 369.183594 564.226562 368.710938 C 556.488281 399.167969 542.449219 427.273438 523.476562 450.230469 C 514.847656 460.726562 505.179688 470.105469 494.769531 478.125 C 490.964844 493.984375 488.195312 510.28125 486.59375 526.609375 C 509.746094 535.972656 528.625 553.90625 546.789062 571.628906 C 547.566406 572.390625 548.328125 573.152344 549.105469 573.898438 C 550.886719 575.632812 552.667969 577.382812 554.464844 579.148438 C 569.941406 594.195312 586.117188 609.050781 604.976562 618.203125 C 617.863281 624.441406 632.226562 628.085938 646.085938 631.617188 C 655.574219 634.015625 665.367188 636.511719 674.789062 639.832031 C 686.140625 643.816406 696.550781 649.308594 704.921875 655.707031 C 705.097656 655.820312 705.277344 655.964844 705.421875 656.128906 C 705.503906 656.191406 705.566406 656.257812 705.632812 656.339844 C 705.730469 656.4375 705.8125 656.550781 705.890625 656.679688 C 705.90625 656.695312 705.90625 656.695312 705.90625 656.710938 C 706.019531 656.875 706.132812 657.035156 706.214844 657.214844 C 706.214844 657.230469 706.230469 657.246094 706.230469 657.261719 C 706.328125 657.441406 706.394531 657.617188 706.441406 657.796875 C 706.507812 657.957031 706.539062 658.136719 706.570312 658.296875 C 706.589844 658.378906 706.605469 658.460938 706.605469 658.542969 Z M 491.582031 385.738281 C 491.582031 376.683594 489.429688 370.671875 484.992188 367.351562 C 477.542969 361.796875 465.96875 365.214844 451.332031 369.554688 C 439.15625 373.152344 423.988281 377.640625 408.167969 377.640625 C 392.335938 377.640625 377.179688 373.152344 365.003906 369.554688 C 350.351562 365.214844 338.792969 361.777344 331.347656 367.351562 C 326.910156 370.671875 324.742188 376.683594 324.742188 385.738281 C 324.742188 424.179688 362.171875 455.445312 408.167969 455.445312 C 454.164062 455.445312 491.582031 424.179688 491.582031 385.738281 Z M 558.707031 356.515625 C 558.285156 358.605469 557.832031 360.675781 557.347656 362.75 C 550.125 393.578125 536.265625 422.042969 517.226562 445.0625 C 508.664062 455.476562 499.0625 464.730469 488.730469 472.554688 C 488.714844 472.570312 488.683594 472.585938 488.667969 472.601562 C 462.84375 492.121094 432.957031 502.425781 402.226562 502.425781 C 374.039062 502.425781 346.355469 493.675781 322.085938 477.121094 C 322.003906 477.054688 321.9375 477.007812 321.859375 476.960938 C 309.554688 468.535156 298.203125 458.167969 288.101562 446.132812 C 270.421875 425.054688 256.972656 399.054688 249.21875 370.949219 C 249.199219 370.914062 249.199219 370.882812 249.183594 370.851562 C 259.792969 358.019531 273.871094 348.398438 290.59375 344.332031 C 315.902344 338.175781 340.832031 348.351562 364.617188 355.980469 C 386.960938 363.15625 410.417969 368.503906 433.246094 360.109375 C 456.871094 351.410156 475.617188 334.109375 501.960938 333.800781 C 523.558594 333.542969 543.226562 342.421875 558.707031 356.515625 Z M 483.484375 385.738281 C 483.484375 379.5 482.367188 375.5 480.152344 373.847656 C 475.941406 370.707031 465.597656 373.765625 453.632812 377.316406 C 440.9375 381.074219 425.167969 385.738281 408.167969 385.738281 C 391.167969 385.738281 375.382812 381.074219 362.707031 377.316406 C 354.238281 374.804688 346.582031 372.535156 341.335938 372.535156 C 339.164062 372.535156 337.417969 372.925781 336.1875 373.847656 C 333.96875 375.5 332.835938 379.5 332.835938 385.738281 C 332.835938 419.710938 366.625 447.347656 408.167969 447.347656 C 449.695312 447.347656 483.484375 419.710938 483.484375 385.738281 Z M 484.992188 367.351562 C 489.429688 370.671875 491.582031 376.683594 491.582031 385.738281 C 491.582031 424.179688 454.164062 455.445312 408.167969 455.445312 C 362.171875 455.445312 324.742188 424.179688 324.742188 385.738281 C 324.742188 376.683594 326.910156 370.671875 331.347656 367.351562 C 338.792969 361.777344 350.351562 365.214844 365.003906 369.554688 C 377.179688 373.152344 392.335938 377.640625 408.167969 377.640625 C 423.988281 377.640625 439.15625 373.152344 451.332031 369.554688 C 465.96875 365.214844 477.542969 361.796875 484.992188 367.351562 "/>
</g>
<path style=" stroke:none;fill-rule:nonzero;fill:rgb(100%,100%,100%);fill-opacity:1;" d="M 172.378906 661.132812 C 167.605469 654.167969 162.050781 647.980469 156.445312 641.824219 C 150.085938 643.507812 143.703125 645.308594 137.570312 647.476562 C 128.019531 650.832031 119.210938 655.316406 111.921875 660.484375 C 124.988281 694.976562 154.890625 726.695312 197.265625 751.269531 C 198.105469 732.234375 195.625 713.183594 189.335938 695.023438 C 185.171875 683.019531 179.550781 671.632812 172.378906 661.132812 Z M 219.464844 337.980469 C 219.722656 341.011719 220.691406 344.136719 221.921875 346.925781 C 224.21875 352.1875 228.027344 356.0625 231.765625 360.273438 C 233.546875 362.3125 230.03125 364.0625 228.347656 363.027344 C 219.671875 357.617188 210.976562 342.890625 214.429688 332.34375 C 216.15625 327.015625 219.753906 325.605469 223.523438 326.351562 C 218.765625 313.488281 212.175781 295.230469 201.714844 308.109375 C 200.8125 309.226562 197.71875 309.097656 197.71875 307.285156 C 197.648438 298.242188 209.730469 295.878906 216.496094 299.054688 C 229.46875 305.144531 228.089844 322.429688 233.867188 333.316406 C 235.695312 336.765625 229.53125 338.710938 227.640625 335.910156 C 224.507812 331.273438 218.957031 332.296875 219.464844 337.980469 Z M 234.371094 287.375 C 232.1875 285.382812 230 283.746094 227.734375 282.402344 C 220.253906 277.960938 211.691406 277.121094 205.390625 280.230469 C 195.222656 285.203125 192.199219 298.828125 191.289062 306.503906 C 189.511719 321.507812 191.359375 336.929688 196.582031 351.085938 C 199.726562 359.558594 205.570312 370.445312 215.511719 374.1875 C 222.941406 377.007812 232.238281 375.53125 240.667969 370.285156 C 235.667969 351.3125 233.140625 331.519531 233.140625 311.445312 C 233.140625 303.332031 233.546875 295.230469 234.371094 287.375 Z M 368.761719 394.503906 C 367.4375 394.503906 366.414062 394.679688 365.867188 395.132812 C 365.265625 395.605469 364.941406 396.917969 364.941406 398.828125 C 364.941406 406.816406 370.933594 414.136719 380.308594 419.273438 C 379.722656 411.804688 380.597656 403.898438 382.769531 396.898438 C 382.621094 396.867188 382.476562 396.835938 382.347656 396.804688 C 377.472656 395.703125 372.132812 394.503906 368.761719 394.503906 Z M 409.042969 400.867188 C 402.359375 400.675781 396.011719 399.671875 390.28125 398.519531 C 389.972656 401.953125 389.472656 405.371094 389.035156 408.824219 C 388.449219 413.359375 388.175781 417.992188 387.609375 422.5625 C 394.457031 425.070312 402.421875 426.546875 410.859375 426.609375 C 409.820312 421.476562 410.015625 415.675781 409.675781 410.863281 C 409.449219 407.59375 409.125 404.222656 409.042969 400.871094 Z M 431.03125 398.84375 C 426.691406 399.6875 422.03125 400.398438 417.140625 400.722656 C 417.382812 404.078125 417.351562 407.480469 417.449219 410.800781 C 417.578125 415.691406 418.226562 421.230469 417.707031 426.367188 C 424.605469 425.785156 431.097656 424.261719 436.761719 422.027344 C 434.980469 417.539062 433.976562 412.726562 432.910156 408.0625 C 432.214844 405.015625 431.46875 401.9375 431.03125 398.84375 Z M 440.632812 396.804688 C 440.375 396.867188 440.066406 396.933594 439.789062 396.996094 C 440.550781 399.960938 441.019531 403.039062 441.539062 406.035156 C 442.25 410.28125 443.042969 414.589844 443.304688 418.898438 C 452.320312 413.8125 458.035156 406.636719 458.035156 398.828125 C 458.035156 396.917969 457.710938 395.605469 457.113281 395.132812 C 455.121094 393.53125 447.414062 395.28125 440.632812 396.804688 Z M 411.488281 434.726562 C 402.292969 434.726562 393.695312 433.300781 386.167969 430.757812 C 384.757812 430.304688 383.398438 429.785156 382.089844 429.234375 C 366.804688 422.949219 356.847656 411.789062 356.847656 398.828125 C 356.847656 394.277344 358.175781 390.90625 360.796875 388.816406 C 365.832031 384.78125 373.507812 386.515625 384.128906 388.898438 C 384.710938 389.027344 385.292969 389.15625 385.894531 389.285156 C 387.429688 389.644531 389 389.984375 390.605469 390.324219 C 396.480469 391.539062 402.8125 392.605469 409.53125 392.800781 C 410.179688 392.800781 410.824219 392.816406 411.488281 392.816406 C 412.980469 392.816406 414.46875 392.769531 415.925781 392.671875 C 421.121094 392.378906 426.09375 391.585938 430.773438 390.632812 C 432.84375 390.242188 434.851562 389.789062 436.8125 389.351562 C 437.492188 389.207031 438.171875 389.042969 438.851562 388.898438 C 449.457031 386.515625 457.128906 384.78125 462.164062 388.816406 C 464.804688 390.90625 466.132812 394.277344 466.132812 398.828125 C 466.132812 418.949219 442.121094 434.726562 411.488281 434.726562 Z M 453.632812 377.316406 C 440.941406 381.074219 425.171875 385.738281 408.171875 385.738281 C 391.171875 385.738281 375.386719 381.074219 362.707031 377.316406 C 354.242188 374.804688 346.582031 372.535156 341.335938 372.535156 C 339.167969 372.535156 337.417969 372.925781 336.1875 373.847656 C 333.96875 375.5 332.835938 379.5 332.835938 385.738281 C 332.835938 419.710938 366.625 447.347656 408.171875 447.347656 C 449.699219 447.347656 483.488281 419.710938 483.488281 385.738281 C 483.488281 379.5 482.371094 375.5 480.152344 373.847656 C 475.941406 370.707031 465.597656 373.765625 453.632812 377.316406 Z M 484.507812 534.515625 C 483.519531 540.089844 482.46875 545.664062 481.433594 551.21875 C 478.339844 568.050781 475.296875 584.945312 470.988281 601.519531 C 470.421875 603.753906 466.375 603.59375 466.585938 601.082031 C 467.945312 584.363281 470.664062 567.742188 473.289062 551.1875 C 475.394531 537.835938 477.335938 524.425781 480.265625 511.238281 C 481.496094 502.488281 483.035156 493.773438 484.894531 485.171875 C 459.71875 501.792969 431.339844 510.523438 402.230469 510.523438 C 375.5 510.523438 349.207031 503.089844 325.582031 488.964844 C 326.847656 495.152344 327.949219 501.40625 328.871094 507.675781 C 339.410156 539.003906 342.082031 575.695312 338.519531 608.144531 C 338.34375 609.652344 335.425781 609.585938 335.265625 608.0625 C 333.46875 590.714844 332.109375 573.363281 329.730469 556.09375 C 328.707031 548.738281 327.398438 541.449219 326.039062 534.160156 C 303.453125 543.265625 285.351562 560.988281 266.230469 579.699219 C 265.226562 580.6875 264.226562 581.65625 263.21875 582.628906 C 279.621094 603.234375 295.066406 624.539062 314.152344 642.894531 C 351.683594 679.003906 406.632812 703.578125 456.96875 678.808594 C 480.234375 667.371094 499.0625 648.675781 514.039062 627.761719 C 525.082031 612.308594 533.546875 595.460938 542.679688 578.953125 C 524.078125 560.761719 506.398438 543.605469 484.507812 534.515625 Z M 331.265625 252.640625 C 312.808594 252.640625 300.746094 256.933594 300.746094 245.417969 C 300.746094 233.882812 315.707031 224.535156 334.179688 224.535156 C 352.636719 224.535156 367.597656 233.882812 367.597656 245.417969 C 367.597656 256.933594 349.738281 252.640625 331.265625 252.640625 Z M 334.683594 287.453125 C 321.148438 286.742188 312.226562 297.613281 306.625 308.53125 C 305.945312 309.859375 302.753906 309.972656 302.722656 308.109375 C 302.464844 292.410156 317.957031 281.007812 332.609375 279.839844 C 347.410156 278.660156 365.65625 289.398438 366.578125 305.421875 C 366.738281 308.402344 362.253906 309.355469 360.78125 306.992188 C 354.582031 297.09375 347.34375 288.101562 334.683594 287.453125 Z M 415.84375 349.96875 C 412.800781 349.953125 412.621094 346.4375 415.117188 345.335938 C 422.773438 341.933594 425.316406 333.136719 422.742188 325.523438 C 420.085938 317.652344 413.417969 312.824219 408.949219 306.164062 C 407.394531 303.832031 411.636719 302.503906 413.191406 303.394531 C 422.613281 308.789062 432.359375 319.871094 432.328125 331.292969 C 432.292969 340.832031 425.949219 350.019531 415.84375 349.96875 Z M 481.886719 252.640625 C 463.410156 252.640625 445.554688 256.933594 445.554688 245.417969 C 445.554688 233.882812 460.515625 224.535156 478.972656 224.535156 C 497.445312 224.535156 512.417969 233.882812 512.417969 245.417969 C 512.417969 256.933594 500.34375 252.640625 481.886719 252.640625 Z M 506.445312 308.546875 C 500.859375 298.148438 492.214844 287.8125 479.425781 287.359375 C 466.277344 286.902344 458.328125 296.429688 452.355469 306.699219 C 451.011719 309 446.410156 308.9375 446.574219 305.710938 C 447.398438 290.46875 465 279.761719 478.988281 279.742188 C 494.269531 279.726562 510.65625 291.40625 510.414062 307.671875 C 510.394531 309.664062 507.367188 310.230469 506.445312 308.546875 Z M 560.085938 273.734375 C 559.226562 269.441406 558.382812 265.148438 557.527344 260.871094 C 557.445312 260.5 557.363281 260.125 557.285156 259.769531 C 557.25 259.671875 557.234375 259.558594 557.203125 259.460938 C 557.152344 259.25 557.121094 259.023438 557.105469 258.796875 C 553.820312 242.417969 550.222656 226.203125 544.410156 210.261719 C 537.433594 191.050781 527.929688 173.652344 518.101562 156.054688 C 502.332031 155.398438 486.484375 149.273438 474.921875 138.640625 C 466.910156 146.855469 458.148438 154.246094 448.46875 160.363281 C 441.34375 164.855469 427.519531 171.820312 416.703125 171.480469 C 409.613281 179.808594 401.546875 187.195312 392.320312 193.140625 C 380.03125 201.0625 362.222656 206.992188 348.753906 198.371094 C 338.066406 191.519531 335.65625 180.148438 336.285156 168.550781 C 331.234375 170.167969 325.714844 170.847656 321.390625 167.65625 C 315.351562 163.21875 315.464844 155.785156 318.167969 148.316406 C 302.949219 156.300781 288.492188 165.195312 274.324219 174.835938 C 268.398438 190.742188 262.046875 206.472656 256.941406 222.671875 C 251.453125 240.152344 247.082031 257.921875 243.601562 275.886719 C 243.792969 276.472656 243.84375 277.085938 243.75 277.734375 C 243.324219 280.472656 242.953125 283.292969 242.648438 286.0625 C 242.648438 286.238281 242.628906 286.402344 242.597656 286.578125 L 242.597656 286.597656 C 241.695312 294.710938 241.238281 303.054688 241.238281 311.445312 C 241.238281 328.910156 243.210938 346.128906 247.132812 362.75 C 258.15625 350.488281 273.046875 341.5625 288.976562 337.429688 C 315.382812 330.5625 341.238281 339.570312 366.269531 347.492188 C 381.035156 352.171875 396.5625 356.839844 412.234375 355.914062 C 428.472656 354.960938 441.992188 346.601562 455.851562 338.9375 C 478.082031 326.640625 501.574219 321.359375 526.585938 327.96875 C 538.921875 331.226562 550.871094 336.929688 560.746094 344.980469 C 562.398438 333.949219 563.242188 322.738281 563.242188 311.445312 C 563.242188 298.714844 562.207031 286.078125 560.085938 273.734375 Z M 592.222656 284.394531 C 585.519531 275.792969 582.199219 296.527344 581.714844 299.28125 C 580.9375 303.65625 580.417969 308.027344 580.0625 312.433594 C 584.984375 311.027344 590.601562 312.386719 594.066406 317.019531 C 601.546875 327.015625 593.710938 342.082031 584.257812 347.554688 C 582.523438 348.558594 579.675781 347.636719 580.566406 345.304688 C 582.363281 340.542969 586.410156 337.15625 588.238281 332.328125 C 589.210938 329.785156 589.808594 326.902344 589.113281 324.148438 C 588.289062 320.890625 582.492188 314.976562 579.398438 320.03125 C 577.730469 322.769531 571.839844 323.402344 572 319.109375 C 572.339844 309.859375 573.3125 300.625 575.464844 291.617188 C 576.566406 286.984375 577.78125 281.65625 581.550781 278.398438 C 586.230469 274.347656 599.652344 276.683594 594.667969 284.199219 C 594.179688 284.960938 592.804688 285.136719 592.222656 284.394531 Z M 587.511719 261.519531 C 581.148438 260.304688 574.074219 261.355469 567.886719 264.355469 C 568.375 268.515625 568.679688 272.679688 568.792969 276.828125 C 570.476562 288.183594 571.335938 299.78125 571.335938 311.445312 C 571.335938 324.988281 570.171875 338.453125 567.871094 351.621094 C 567.335938 354.714844 566.738281 357.792969 566.074219 360.839844 C 569.117188 361.503906 572.324219 361.683594 575.5625 361.40625 C 578.71875 361.113281 581.910156 360.371094 584.96875 359.15625 C 596.578125 354.570312 604.429688 344.835938 608.996094 337.480469 C 617.933594 323.011719 621.105469 306.585938 617.722656 292.429688 C 614.015625 276.957031 601.597656 264.257812 587.511719 261.519531 Z M 672.121094 647.476562 C 681.65625 650.832031 690.464844 655.300781 697.75 660.46875 C 684.960938 694.230469 656.042969 725.351562 615.082031 749.714844 C 613.074219 744.578125 611.035156 739.445312 609.59375 734.292969 C 605.984375 721.460938 603.832031 708.226562 604.867188 694.878906 C 606.90625 668.84375 622.789062 645.03125 649.4375 640.835938 C 657.046875 642.78125 664.753906 644.886719 672.121094 647.476562 "/>
</g>
</svg>
