<?xml version="1.0" encoding="UTF-8"?>
<svg xmlns="http://www.w3.org/2000/svg" xmlns:xlink="http://www.w3.org/1999/xlink" width="810pt" height="809.999993pt" viewBox="0 0 810 809.999993" version="1.2">
<defs>
<clipPath id="clip1">
  <path d="M 122.472656 0.046875 L 686.851562 0.046875 L 686.851562 810 L 122.472656 810 Z M 122.472656 0.046875 "/>
</clipPath>
<clipPath id="clip2">
  <path d="M 122.472656 0.046875 L 686.851562 0.046875 L 686.851562 810 L 122.472656 810 Z M 122.472656 0.046875 "/>
</clipPath>
</defs>
<g id="surface1">
<g clip-path="url(#clip1)" clip-rule="nonzero">
<path style=" stroke:none;fill-rule:nonzero;fill:rgb(5.879211%,5.488586%,4.708862%);fill-opacity:1;" d="M 686.578125 692.453125 C 676.71875 667.628906 659.480469 645.960938 638 631.441406 C 620.355469 619.53125 600.1875 612.175781 580.679688 605.0625 C 570.675781 601.417969 560.335938 597.640625 550.539062 593.332031 C 535.957031 586.878906 515.898438 575.667969 502.382812 558.570312 L 502.382812 558.328125 C 501.785156 536.566406 501.1875 514.800781 500.585938 493.054688 C 506.042969 493.882812 511.855469 494.433594 518.132812 494.726562 C 561.808594 496.800781 600.738281 485.050781 627.753906 461.683594 C 657.652344 435.820312 675.261719 393.25 675.992188 344.914062 C 676.65625 303.136719 666.101562 263.371094 653.265625 219.410156 C 636.882812 163.164062 618.800781 109.59375 578.382812 72.324219 C 546.511719 42.9375 503.808594 27.613281 466.125 14.082031 C 449.855469 8.261719 433.039062 2.238281 415.25 0.546875 C 391.957031 -1.667969 368.417969 3.890625 346.46875 10.226562 C 315 19.296875 278.722656 31.742188 248.226562 55.308594 C 233.328125 66.777344 222.128906 79.386719 214.910156 92.769531 C 207.289062 106.949219 203.578125 122.34375 200.339844 141.121094 C 196.363281 164.152344 193.625 187.730469 190.988281 210.511719 C 188.21875 234.445312 185.355469 259.175781 181.050781 283.222656 C 171.089844 338.789062 154.238281 381.421875 129.539062 413.554688 L 129.21875 413.960938 C 126.304688 417.769531 123.003906 422.082031 122.527344 427.621094 C 121.996094 433.796875 125.203125 439.128906 128.035156 443.066406 C 136.257812 454.488281 147.980469 464 162.253906 471.035156 C 164.0625 471.957031 165.929688 472.800781 167.820312 473.628906 C 175.644531 476.980469 184.140625 479.65625 193.15625 481.535156 C 228.539062 488.90625 267.015625 483.609375 299.316406 467.015625 C 303.441406 472.429688 307.621094 477.839844 311.78125 483.253906 L 312.832031 484.613281 C 317.152344 490.238281 322.058594 496.621094 328.96875 500.609375 C 336.027344 504.691406 344.152344 505.664062 351 505.664062 C 352.34375 505.664062 353.625 505.632812 354.871094 505.566406 C 355.308594 524.039062 352.910156 543.078125 350.320312 560.660156 C 349.835938 563.871094 349.351562 567.015625 348.898438 570.109375 C 347.992188 576.023438 347.082031 582.050781 345.449219 587.789062 C 344.558594 590.949219 343.457031 594.011719 342 596.910156 C 340.042969 600.929688 337.421875 604.738281 334.035156 608.515625 C 272.683594 622.253906 215.023438 654.988281 171.519531 700.816406 C 170.152344 702.273438 170.039062 704.492188 171.253906 706.082031 C 208.238281 754.355469 258.375 788.578125 312.425781 802.433594 C 332.175781 807.492188 353.023438 810.019531 374.878906 810.019531 C 409.648438 810.019531 446.992188 803.617188 486.617188 790.832031 C 489.757812 789.828125 492.914062 788.773438 496.070312 787.6875 C 507.855469 783.621094 519.832031 779.019531 532.003906 773.851562 C 567.117188 758.941406 601.464844 740.890625 634.679688 723.421875 C 650.996094 714.832031 667.878906 705.953125 684.632812 697.574219 C 686.511719 696.617188 687.335938 694.398438 686.578125 692.453125 "/>
</g>
<path style=" stroke:none;fill-rule:nonzero;fill:rgb(100%,100%,100%);fill-opacity:1;" d="M 494.339844 560.144531 L 494.339844 560.0625 L 494.289062 558.570312 C 493.675781 536.242188 493.058594 513.945312 492.460938 491.628906 C 491.585938 491.453125 490.730469 491.273438 489.855469 491.078125 C 485.535156 490.089844 481.390625 488.921875 477.441406 487.546875 C 476.695312 487.289062 475.949219 487.011719 475.207031 486.753906 C 473.214844 485.992188 471.238281 485.195312 469.363281 484.355469 C 467.839844 483.691406 466.351562 482.976562 464.894531 482.214844 C 462.644531 481.066406 460.460938 479.832031 458.386719 478.519531 C 457.691406 478.082031 456.996094 477.644531 456.332031 477.191406 C 454.695312 476.105469 452.996094 474.84375 451.539062 473.285156 C 450.195312 471.859375 449.113281 470.207031 448.449219 468.183594 C 448.417969 468.035156 448.367188 467.90625 448.320312 467.777344 C 445.921875 469.625 443.511719 471.421875 441.082031 473.140625 L 441.066406 473.140625 C 439.675781 474.128906 438.316406 475.070312 436.9375 476.007812 C 436.226562 476.496094 435.5 476.964844 434.785156 477.433594 C 433.863281 478.050781 432.941406 478.632812 432.035156 479.199219 C 431.128906 479.785156 430.207031 480.367188 429.28125 480.917969 C 428.425781 481.46875 427.535156 481.988281 426.675781 482.507812 C 425.496094 483.203125 424.296875 483.882812 423.132812 484.53125 C 422.417969 484.953125 421.691406 485.359375 420.980469 485.730469 C 420.074219 486.234375 419.183594 486.71875 418.277344 487.191406 C 418.226562 487.222656 418.179688 487.253906 418.128906 487.269531 C 417.335938 487.691406 416.527344 488.097656 415.71875 488.503906 C 414.632812 489.070312 413.550781 489.605469 412.449219 490.121094 C 411.800781 490.445312 411.152344 490.753906 410.503906 491.046875 C 408.367188 492.050781 406.234375 492.992188 404.128906 493.882812 C 403.253906 494.253906 402.363281 494.613281 401.503906 494.953125 C 392.8125 498.4375 384.070312 501.09375 375.332031 502.890625 C 374.636719 503.054688 373.90625 503.199219 373.179688 503.328125 C 372.238281 503.507812 371.285156 503.6875 370.328125 503.832031 C 369.40625 503.992188 368.453125 504.15625 367.527344 504.285156 C 366.640625 504.414062 365.75 504.546875 364.84375 504.660156 C 364.210938 504.738281 363.578125 504.804688 362.933594 504.886719 C 363.546875 527.570312 360.019531 550.761719 356.894531 571.339844 C 356.164062 576.167969 355.390625 581.0625 354.289062 585.925781 C 353.6875 594.964844 352.589844 604.007812 351.664062 612.824219 C 350.386719 624.929688 348.6875 638.605469 335.800781 643.515625 C 333.164062 644.535156 329.601562 641.214844 332.808594 639.496094 C 342.925781 634.085938 343.457031 620.699219 343.832031 609.324219 C 342.421875 611.21875 340.851562 613.066406 339.152344 614.914062 L 339.121094 614.945312 C 337.273438 616.957031 335.300781 618.867188 333.246094 620.699219 C 332.46875 621.394531 331.660156 622.09375 330.882812 622.773438 C 325.425781 627.390625 319.679688 631.441406 314.726562 634.925781 C 301.890625 643.984375 289.054688 653.011719 276.242188 662.054688 C 280.582031 664.792969 284.40625 668.339844 288.148438 671.824219 C 290.414062 673.949219 292.566406 675.941406 294.800781 677.757812 C 311.523438 691.320312 335.707031 695.664062 366.6875 690.621094 C 413.515625 682.988281 461.398438 660.515625 512.90625 621.914062 C 507.03125 615.984375 502.320312 608.09375 499.421875 599.230469 C 495.375 586.863281 494.710938 574.207031 494.339844 560.144531 Z M 245.542969 281.019531 C 247.464844 285.070312 250.234375 288.539062 253.605469 291.421875 C 254.945312 292.589844 256.398438 293.640625 257.925781 294.613281 C 272.882812 304.125 295.324219 304.386719 308.808594 294.597656 C 312.480469 291.925781 308.757812 287.257812 304.988281 288.519531 C 295.582031 291.699219 286.535156 293.917969 276.570312 291.988281 C 272.78125 291.242188 269.386719 290.027344 266.214844 288.457031 C 274.90625 279.351562 280.3125 265.285156 276.394531 253.535156 C 275.648438 251.316406 271.671875 252.289062 271.265625 254.265625 C 269.835938 261.183594 269.367188 267.925781 266.308594 274.457031 C 264.59375 278.132812 262.28125 281.472656 259.675781 284.601562 C 256.773438 282.605469 253.960938 280.386719 251.074219 278.035156 C 249.007812 276.367188 244.007812 277.761719 245.542969 281.019531 Z M 253.132812 242.644531 C 263.816406 238.839844 274.097656 236.957031 285.417969 239.128906 C 296.425781 241.238281 305.117188 247.070312 314.457031 252.886719 C 316.804688 254.347656 322.046875 251.816406 320.105469 248.753906 C 306.394531 227.21875 269.480469 224.949219 249.652344 238.191406 C 246.175781 240.507812 250.191406 243.683594 253.132812 242.644531 Z M 318.601562 268.28125 C 319.070312 275.980469 322.5 283.433594 323.632812 291.097656 C 324.671875 298.261719 324.785156 305.632812 322.582031 312.585938 C 319.925781 320.898438 314.84375 325.304688 307.851562 329.988281 C 303.660156 332.792969 299.695312 335.742188 297.332031 340.3125 C 285.722656 362.707031 313.453125 380.691406 332.179688 383.089844 C 335.335938 383.496094 340.128906 379.722656 335.824219 377.304688 C 324.476562 370.921875 308.824219 368.199219 305.199219 353.519531 C 301.570312 338.984375 316.140625 336.179688 323.941406 327.800781 C 338.65625 311.953125 334.902344 283.175781 322.710938 266.871094 C 321.59375 265.363281 318.503906 266.386719 318.601562 268.28125 Z M 342.507812 414.5625 C 334.753906 414.058594 327.015625 412.453125 319.585938 410.167969 C 318.226562 409.765625 316.074219 411.253906 317.726562 412.453125 C 323.570312 416.636719 330.109375 419.453125 336.972656 421.011719 C 339.191406 421.546875 341.441406 421.917969 343.691406 422.160156 C 366.464844 424.738281 391.25 414.691406 404.75 396.28125 C 406.269531 394.222656 407.628906 392.070312 408.84375 389.800781 C 410.382812 386.933594 411.660156 383.886719 412.648438 380.710938 C 413.636719 377.484375 407.773438 377.0625 406.382812 379.074219 C 403.890625 382.652344 401.300781 386.152344 398.5 389.476562 C 378.007812 390.367188 356.671875 399.976562 342.507812 414.5625 Z M 379.058594 285.652344 C 385.339844 299.152344 398.03125 308.632812 413.003906 309.960938 C 427.136719 311.207031 442.804688 305.648438 450.105469 292.960938 C 452.371094 289.007812 445.667969 288.148438 443.46875 289.703125 C 434.679688 295.992188 425.113281 301.648438 413.863281 300.496094 C 406.691406 299.75 400.136719 296.753906 394.746094 292.265625 C 405.863281 285.945312 412.597656 271.683594 408.828125 259.191406 C 408.148438 256.953125 403.777344 256.679688 403.519531 259.351562 C 402.367188 271.101562 397.5625 279.398438 389.191406 286.59375 C 388.125 285.265625 387.136719 283.871094 386.230469 282.414062 C 384.09375 278.960938 377.164062 281.585938 379.058594 285.652344 Z M 383.171875 241.902344 C 397.1875 238.367188 409.003906 233.28125 423.671875 237.703125 C 435.210938 241.1875 443.015625 249.09375 452.433594 256.03125 C 454.507812 257.554688 460.578125 256.695312 459.316406 252.96875 C 454.652344 239.144531 439.484375 230.816406 425.953125 227.867188 C 411.675781 224.738281 390.828125 226.472656 380.660156 238.382812 C 379.15625 240.152344 381.097656 242.433594 383.171875 241.902344 Z M 413.523438 419.050781 C 400.75 433.617188 385.859375 444.34375 365.867188 445.121094 C 361.867188 445.285156 360.394531 450.292969 365.007812 450.746094 C 386.085938 452.835938 411.417969 442.222656 419.445312 421.382812 C 420.839844 417.769531 415.496094 416.796875 413.523438 419.050781 Z M 234.167969 271.28125 C 235.703125 249.242188 237.277344 226.683594 234.300781 204.890625 C 249.773438 213.347656 272.304688 213.625 287.59375 214.371094 C 322.214844 216.085938 356.988281 215.035156 391.449219 211.175781 C 421.800781 207.773438 451.828125 202.230469 481.367188 194.566406 C 502.636719 263.582031 502.460938 337.945312 475.703125 407.269531 C 469.261719 423.960938 461.230469 439.613281 452.328125 454.828125 C 451.648438 454.941406 451.015625 455.21875 450.46875 455.6875 C 438.859375 465.378906 423.402344 476.347656 405.0625 484.644531 C 403.296875 485.441406 401.535156 486.203125 399.753906 486.945312 C 399.363281 487.09375 398.960938 487.253906 398.554688 487.417969 C 394.621094 489.003906 390.542969 490.445312 386.367188 491.726562 C 377.480469 494.449219 368.058594 496.378906 358.265625 497.203125 C 357.8125 497.253906 357.34375 497.300781 356.808594 497.332031 C 350.171875 497.804688 340.507812 497.917969 333.03125 493.589844 C 327.507812 490.398438 323.316406 484.9375 319.238281 479.671875 L 318.203125 478.308594 C 313.347656 472.007812 308.488281 465.6875 303.664062 459.367188 C 296.898438 450.601562 290.164062 441.847656 283.425781 433.066406 C 265.878906 410.21875 245.96875 384.308594 237.683594 354.929688 C 230.183594 328.304688 232.207031 299.3125 234.167969 271.28125 Z M 667.902344 344.785156 C 667.207031 390.820312 650.648438 431.1875 622.464844 455.558594 C 604.222656 471.308594 580.101562 481.453125 552.585938 485.214844 C 569.324219 459.351562 579.78125 429.566406 587.03125 399.765625 C 594.65625 368.441406 597.988281 336.066406 596.808594 303.851562 C 594.625 244.738281 577.125 186.464844 545.996094 136.148438 C 528.289062 107.5 506.371094 82.058594 480.910156 60.066406 C 479.921875 59.226562 477.542969 60.554688 478.675781 61.6875 C 564.546875 146.273438 605.566406 268.816406 580.832031 387.609375 C 573.660156 422.191406 560 453.953125 545.671875 486.023438 C 536.898438 486.863281 527.820312 487.074219 518.511719 486.636719 C 510.710938 486.265625 503.714844 485.488281 497.144531 484.289062 C 482.933594 481.726562 470.695312 477.078125 460.835938 470.464844 C 459.054688 469.265625 457.179688 467.871094 456.386719 466.25 C 480.359375 430.019531 495.378906 386.640625 502.371094 344.472656 C 510.742188 293.933594 506.855469 240.765625 490.441406 192.152344 C 489.941406 190.644531 489.421875 189.152344 488.890625 187.664062 C 488.550781 186.722656 488.226562 185.78125 487.867188 184.859375 C 477.785156 157.40625 463.800781 131.769531 446.074219 108.503906 C 445.117188 107.234375 441.847656 108.335938 442.835938 109.945312 C 457.890625 134.367188 470.03125 160.261719 478.933594 187.046875 C 428.429688 199.136719 376.550781 205.570312 324.589844 205.988281 C 308.710938 206.121094 292.847656 205.777344 276.996094 204.886719 C 264.722656 204.191406 251.128906 203.914062 240.003906 198.050781 C 236.589844 196.234375 233.902344 194.078125 231.828125 191.632812 C 227.625 186.625 226.046875 180.46875 226.199219 173.871094 C 226.523438 158.683594 235.925781 141.253906 243.292969 130.296875 C 261.148438 103.722656 287.554688 84.808594 316.449219 71.75 C 318.714844 70.710938 317.320312 68.199219 315.136719 68.882812 C 288.558594 77.128906 264.644531 92.914062 246.320312 113.902344 C 231.019531 131.417969 211.953125 160.046875 218.039062 184.617188 C 219.335938 189.867188 221.730469 194.144531 224.902344 197.660156 C 229.566406 220.753906 227.863281 245.203125 226.085938 270.726562 C 224.078125 299.441406 222 329.144531 229.886719 357.113281 C 238.59375 388 259.011719 414.574219 277.007812 438.007812 C 282.773438 445.492188 288.523438 452.996094 294.289062 460.484375 C 263.898438 475.714844 227.933594 480.496094 194.8125 473.59375 C 187.625 472.085938 180.792969 470.078125 174.433594 467.582031 C 179.953125 461.972656 184.695312 455.765625 188.195312 450.679688 C 205.269531 425.757812 215.027344 395.90625 214.074219 365.605469 C 213.976562 362.605469 208.148438 363.160156 207.90625 365.929688 C 205.804688 389.652344 200.199219 412.9375 189.179688 434.167969 C 185.308594 441.621094 177.796875 455.070312 168.539062 465.070312 C 154.230469 458.507812 142.578125 449.382812 134.609375 438.332031 C 131.601562 434.152344 130.367188 431.070312 130.597656 428.316406 C 130.875 425.125 133.1875 422.09375 135.648438 418.886719 L 135.957031 418.496094 C 161.464844 385.308594 178.835938 341.523438 189.015625 284.648438 C 193.371094 260.355469 196.253906 235.5 199.039062 211.449219 C 201.660156 188.765625 204.378906 165.316406 208.3125 142.5 C 211.417969 124.511719 214.945312 109.8125 222.039062 96.609375 C 228.707031 84.246094 239.183594 72.496094 253.164062 61.71875 C 282.597656 38.988281 317.984375 26.867188 348.726562 17.996094 C 373.199219 10.933594 393.757812 6.640625 414.492188 8.617188 C 431.277344 10.203125 447.613281 16.054688 463.394531 21.710938 C 500.347656 34.980469 542.242188 50.019531 572.898438 78.265625 C 611.796875 114.121094 629.457031 166.5625 645.515625 221.675781 C 658.125 264.992188 668.550781 304.140625 667.902344 344.78125 "/>
<g clip-path="url(#clip2)" clip-rule="nonzero">
<path style=" stroke:none;fill-rule:nonzero;fill:rgb(5.879211%,5.488586%,4.708862%);fill-opacity:1;" d="M 308.800781 294.597656 C 295.316406 304.386719 272.878906 304.125 257.917969 294.613281 C 256.394531 293.640625 254.941406 292.589844 253.601562 291.421875 C 250.230469 288.539062 247.460938 285.070312 245.539062 281.019531 C 244 277.761719 249.003906 276.367188 251.070312 278.035156 C 253.957031 280.386719 256.769531 282.605469 259.671875 284.601562 C 262.277344 281.472656 264.589844 278.132812 266.304688 274.457031 C 269.363281 267.925781 269.832031 261.183594 271.261719 254.265625 C 271.664062 252.289062 275.644531 251.316406 276.390625 253.535156 C 280.308594 265.285156 274.902344 279.351562 266.207031 288.457031 C 269.382812 290.027344 272.777344 291.242188 276.566406 291.988281 C 286.527344 293.917969 295.578125 291.699219 304.980469 288.519531 C 308.753906 287.257812 312.476562 291.925781 308.800781 294.597656 Z M 343.683594 422.160156 C 341.433594 421.917969 339.183594 421.546875 336.96875 421.011719 C 330.105469 419.453125 323.566406 416.636719 317.722656 412.453125 C 316.070312 411.253906 318.222656 409.765625 319.582031 410.167969 C 327.011719 412.453125 334.75 414.058594 342.503906 414.5625 C 356.667969 399.976562 378.003906 390.367188 398.496094 389.476562 C 401.296875 386.152344 403.886719 382.652344 406.378906 379.074219 C 407.769531 377.0625 413.628906 377.484375 412.644531 380.710938 C 411.65625 383.886719 410.375 386.933594 408.839844 389.800781 C 407.625 392.070312 406.265625 394.222656 404.742188 396.28125 C 391.242188 414.691406 366.460938 424.738281 343.683594 422.160156 Z M 249.648438 238.191406 C 269.476562 224.949219 306.390625 227.21875 320.101562 248.753906 C 322.042969 251.816406 316.796875 254.347656 314.453125 252.886719 C 305.113281 247.070312 296.417969 241.238281 285.410156 239.128906 C 274.09375 236.957031 263.8125 238.839844 253.125 242.644531 C 250.183594 243.683594 246.171875 240.507812 249.648438 238.191406 Z M 332.175781 383.089844 C 313.449219 380.691406 285.71875 362.707031 297.324219 340.3125 C 299.6875 335.742188 303.65625 332.792969 307.847656 329.988281 C 314.839844 325.304688 319.921875 320.898438 322.578125 312.585938 C 324.777344 305.632812 324.664062 298.261719 323.628906 291.097656 C 322.496094 283.433594 319.066406 275.980469 318.59375 268.28125 C 318.5 266.386719 321.589844 265.363281 322.707031 266.871094 C 334.894531 283.175781 338.652344 311.953125 323.9375 327.800781 C 316.136719 336.179688 301.566406 338.984375 305.191406 353.519531 C 308.816406 368.199219 324.472656 370.921875 335.820312 377.304688 C 340.125 379.722656 335.332031 383.496094 332.175781 383.089844 Z M 419.441406 421.382812 C 411.414062 442.222656 386.078125 452.835938 365.003906 450.746094 C 360.390625 450.292969 361.863281 445.285156 365.863281 445.121094 C 385.851562 444.34375 400.746094 433.617188 413.515625 419.050781 C 415.492188 416.796875 420.832031 417.769531 419.441406 421.382812 Z M 379.054688 285.652344 C 377.160156 281.585938 384.089844 278.960938 386.226562 282.414062 C 387.132812 283.871094 388.117188 285.265625 389.1875 286.59375 C 397.554688 279.398438 402.363281 271.101562 403.511719 259.351562 C 403.773438 256.679688 408.144531 256.953125 408.824219 259.191406 C 412.59375 271.683594 405.859375 285.945312 394.738281 292.265625 C 400.128906 296.753906 406.6875 299.75 413.855469 300.496094 C 425.105469 301.648438 434.671875 295.992188 443.464844 289.703125 C 445.664062 288.148438 452.367188 289.007812 450.101562 292.960938 C 442.800781 305.648438 427.128906 311.207031 413 309.960938 C 398.027344 308.632812 385.335938 299.152344 379.054688 285.652344 Z M 380.65625 238.382812 C 390.824219 226.472656 411.671875 224.738281 425.949219 227.867188 C 439.480469 230.816406 454.648438 239.144531 459.308594 252.96875 C 460.574219 256.695312 454.503906 257.554688 452.429688 256.03125 C 443.007812 249.09375 435.207031 241.1875 423.667969 237.703125 C 409 233.28125 397.183594 238.367188 383.164062 241.902344 C 381.09375 242.433594 379.152344 240.152344 380.65625 238.382812 Z M 333.246094 620.699219 C 335.300781 618.867188 337.273438 616.957031 339.121094 614.945312 L 339.152344 614.914062 C 340.851562 613.066406 342.421875 611.21875 343.832031 609.324219 C 343.457031 620.699219 342.925781 634.085938 332.808594 639.496094 C 329.601562 641.214844 333.164062 644.535156 335.800781 643.515625 C 348.6875 638.605469 350.386719 624.929688 351.664062 612.824219 C 352.589844 604.007812 353.6875 594.964844 354.289062 585.925781 C 355.390625 581.0625 356.164062 576.167969 356.894531 571.339844 C 360.019531 550.761719 363.546875 527.570312 362.933594 504.886719 C 363.578125 504.804688 364.210938 504.738281 364.84375 504.660156 C 365.75 504.542969 366.640625 504.414062 367.527344 504.285156 C 368.453125 504.15625 369.40625 503.992188 370.328125 503.832031 C 371.285156 503.6875 372.238281 503.507812 373.179688 503.328125 C 373.90625 503.199219 374.636719 503.054688 375.332031 502.890625 C 384.074219 501.09375 392.8125 498.4375 401.507812 494.953125 C 402.363281 494.613281 403.253906 494.253906 404.128906 493.882812 C 406.234375 492.992188 408.371094 492.050781 410.507812 491.046875 C 411.152344 490.753906 411.800781 490.445312 412.449219 490.121094 C 413.550781 489.605469 414.632812 489.070312 415.71875 488.503906 C 416.527344 488.097656 417.335938 487.691406 418.128906 487.269531 C 418.179688 487.253906 418.226562 487.222656 418.277344 487.191406 C 419.183594 486.71875 420.074219 486.234375 420.980469 485.730469 C 421.691406 485.359375 422.417969 484.953125 423.132812 484.53125 C 424.296875 483.882812 425.496094 483.203125 426.675781 482.507812 C 427.535156 481.988281 428.425781 481.46875 429.28125 480.917969 C 430.207031 480.367188 431.128906 479.785156 432.035156 479.199219 C 432.941406 478.632812 433.863281 478.050781 434.785156 477.433594 C 435.5 476.964844 436.226562 476.496094 436.941406 476.007812 C 438.316406 475.070312 439.675781 474.128906 441.066406 473.140625 L 441.082031 473.140625 C 443.511719 471.421875 445.921875 469.625 448.320312 467.777344 C 448.367188 467.90625 448.417969 468.035156 448.449219 468.183594 C 449.113281 470.207031 450.195312 471.859375 451.539062 473.285156 C 452.996094 474.84375 454.695312 476.105469 456.332031 477.191406 C 456.996094 477.644531 457.691406 478.082031 458.386719 478.519531 C 460.460938 479.832031 462.644531 481.066406 464.894531 482.214844 C 466.351562 482.976562 467.839844 483.691406 469.363281 484.355469 C 471.238281 485.195312 473.214844 485.992188 475.207031 486.753906 C 475.949219 487.011719 476.695312 487.285156 477.441406 487.546875 C 481.390625 488.921875 485.535156 490.089844 489.855469 491.078125 C 490.730469 491.273438 491.585938 491.453125 492.460938 491.628906 C 493.058594 513.945312 493.675781 536.242188 494.289062 558.570312 L 494.339844 560.0625 L 494.339844 560.144531 C 494.710938 574.207031 495.375 586.863281 499.421875 599.226562 C 502.320312 608.09375 507.03125 615.984375 512.90625 621.914062 C 461.398438 660.515625 413.515625 682.988281 366.6875 690.621094 C 335.707031 695.660156 311.523438 691.320312 294.800781 677.757812 C 292.566406 675.941406 290.414062 673.949219 288.148438 671.824219 C 284.40625 668.339844 280.582031 664.792969 276.242188 662.054688 C 289.054688 653.011719 301.890625 643.984375 314.726562 634.925781 C 319.679688 631.441406 325.425781 627.390625 330.882812 622.773438 C 331.660156 622.09375 332.46875 621.394531 333.246094 620.699219 Z M 333.019531 493.589844 C 327.5 490.398438 323.304688 484.9375 319.226562 479.671875 L 318.191406 478.308594 C 313.335938 472.007812 308.476562 465.6875 303.65625 459.367188 C 296.886719 450.601562 290.15625 441.847656 283.414062 433.066406 C 265.867188 410.21875 245.957031 384.308594 237.671875 354.929688 C 230.171875 328.304688 232.195312 299.3125 234.15625 271.28125 C 235.691406 249.242188 237.269531 226.683594 234.289062 204.890625 C 249.761719 213.347656 272.292969 213.625 287.582031 214.367188 C 322.207031 216.085938 356.976562 215.035156 391.4375 211.175781 C 421.789062 207.773438 451.816406 202.230469 481.355469 194.566406 C 502.628906 263.582031 502.449219 337.945312 475.691406 407.269531 C 469.25 423.960938 461.21875 439.613281 452.316406 454.828125 C 451.636719 454.941406 451.007812 455.21875 450.457031 455.6875 C 438.851562 465.378906 423.390625 476.347656 405.050781 484.644531 C 403.285156 485.441406 401.523438 486.203125 399.742188 486.945312 C 399.351562 487.09375 398.949219 487.253906 398.542969 487.417969 C 394.609375 489.003906 390.53125 490.445312 386.355469 491.726562 C 377.46875 494.449219 368.046875 496.378906 358.253906 497.203125 C 357.800781 497.253906 357.332031 497.300781 356.796875 497.332031 C 350.160156 497.804688 340.496094 497.917969 333.019531 493.589844 Z M 194.808594 473.59375 C 187.617188 472.085938 180.789062 470.078125 174.429688 467.582031 C 179.949219 461.976562 184.691406 455.769531 188.1875 450.679688 C 205.265625 425.757812 215.023438 395.910156 214.070312 365.605469 C 213.972656 362.609375 208.144531 363.160156 207.902344 365.929688 C 205.796875 389.652344 200.195312 412.941406 189.175781 434.167969 C 185.304688 441.621094 177.792969 455.074219 168.535156 465.070312 C 154.226562 458.507812 142.574219 449.382812 134.605469 438.332031 C 131.597656 434.152344 130.363281 431.074219 130.589844 428.320312 C 130.867188 425.125 133.183594 422.097656 135.644531 418.886719 L 135.953125 418.5 C 161.460938 385.3125 178.828125 341.527344 189.007812 284.648438 C 193.367188 260.359375 196.25 235.5 199.03125 211.453125 C 201.65625 188.765625 204.375 165.316406 208.308594 142.5 C 211.414062 124.511719 214.941406 109.8125 222.035156 96.609375 C 228.699219 84.246094 239.179688 72.5 253.15625 61.71875 C 282.59375 38.988281 317.980469 26.867188 348.71875 18 C 373.195312 10.933594 393.753906 6.644531 414.488281 8.617188 C 431.273438 10.207031 447.605469 16.054688 463.390625 21.714844 C 500.34375 34.984375 542.238281 50.023438 572.894531 78.265625 C 611.792969 114.125 629.453125 166.566406 645.511719 221.675781 C 658.121094 264.992188 668.546875 304.144531 667.898438 344.785156 C 667.203125 390.820312 650.640625 431.1875 622.460938 455.558594 C 604.21875 471.308594 580.097656 481.453125 552.582031 485.210938 C 569.316406 459.351562 579.773438 429.566406 587.027344 399.765625 C 594.652344 368.441406 597.984375 336.066406 596.804688 303.851562 C 594.617188 244.738281 577.121094 186.464844 545.992188 136.148438 C 528.285156 107.5 506.367188 82.058594 480.902344 60.066406 C 479.917969 59.226562 477.535156 60.554688 478.671875 61.6875 C 564.542969 146.273438 605.5625 268.816406 580.828125 387.609375 C 573.65625 422.191406 559.996094 453.953125 545.667969 486.023438 C 536.894531 486.863281 527.8125 487.074219 518.507812 486.636719 C 510.703125 486.265625 503.710938 485.488281 497.140625 484.289062 C 482.925781 481.726562 470.691406 477.078125 460.832031 470.464844 C 459.050781 469.265625 457.171875 467.871094 456.378906 466.25 C 480.355469 430.019531 495.375 386.636719 502.367188 344.472656 C 510.738281 293.933594 506.851562 240.765625 490.4375 192.152344 C 489.9375 190.644531 489.417969 189.152344 488.882812 187.664062 C 488.542969 186.722656 488.21875 185.78125 487.863281 184.859375 C 477.78125 157.40625 463.792969 131.769531 446.070312 108.503906 C 445.113281 107.234375 441.84375 108.335938 442.832031 109.945312 C 457.886719 134.367188 470.027344 160.261719 478.929688 187.046875 C 428.425781 199.136719 376.546875 205.570312 324.585938 205.988281 C 308.707031 206.121094 292.839844 205.777344 276.988281 204.886719 C 264.714844 204.191406 251.121094 203.914062 240 198.050781 C 236.585938 196.234375 233.898438 194.078125 231.824219 191.632812 C 227.617188 186.625 226.042969 180.46875 226.195312 173.871094 C 226.519531 158.683594 235.921875 141.253906 243.289062 130.296875 C 261.144531 103.722656 287.546875 84.808594 316.441406 71.75 C 318.707031 70.710938 317.316406 68.199219 315.132812 68.882812 C 288.550781 77.128906 264.640625 92.914062 246.316406 113.902344 C 231.015625 131.417969 211.949219 160.046875 218.03125 184.617188 C 219.328125 189.867188 221.726562 194.144531 224.898438 197.660156 C 229.558594 220.753906 227.859375 245.203125 226.082031 270.726562 C 224.074219 299.441406 221.996094 329.144531 229.882812 357.113281 C 238.589844 388 259.007812 414.574219 277.003906 438.007812 C 282.769531 445.492188 288.519531 452.996094 294.28125 460.484375 C 263.894531 475.714844 227.929688 480.496094 194.808594 473.59375 Z M 686.574219 692.453125 C 676.714844 667.628906 659.476562 645.960938 637.996094 631.441406 C 620.351562 619.53125 600.183594 612.175781 580.679688 605.0625 C 570.675781 601.417969 560.332031 597.640625 550.539062 593.328125 C 535.953125 586.878906 515.898438 575.667969 502.378906 558.570312 L 502.378906 558.328125 C 501.78125 536.566406 501.183594 514.800781 500.585938 493.054688 C 506.039062 493.882812 511.851562 494.433594 518.132812 494.726562 C 561.804688 496.800781 600.734375 485.050781 627.75 461.683594 C 657.648438 435.820312 675.257812 393.25 675.988281 344.914062 C 676.652344 303.136719 666.097656 263.371094 653.261719 219.410156 C 636.878906 163.164062 618.796875 109.59375 578.378906 72.324219 C 546.507812 42.9375 503.804688 27.613281 466.121094 14.082031 C 449.855469 8.261719 433.035156 2.238281 415.246094 0.546875 C 391.953125 -1.667969 368.417969 3.890625 346.464844 10.226562 C 315 19.296875 278.71875 31.742188 248.222656 55.308594 C 233.324219 66.777344 222.125 79.386719 214.90625 92.769531 C 207.285156 106.949219 203.574219 122.339844 200.335938 141.121094 C 196.359375 164.152344 193.621094 187.730469 190.984375 210.511719 C 188.214844 234.445312 185.351562 259.175781 181.046875 283.222656 C 171.085938 338.789062 154.234375 381.421875 129.539062 413.554688 L 129.214844 413.960938 C 126.300781 417.769531 123 422.078125 122.527344 427.621094 C 121.996094 433.796875 125.199219 439.128906 128.03125 443.066406 C 136.253906 454.488281 147.976562 464 162.253906 471.035156 C 164.0625 471.957031 165.925781 472.800781 167.816406 473.625 C 175.640625 476.980469 184.136719 479.65625 193.152344 481.535156 C 228.539062 488.90625 267.015625 483.609375 299.3125 467.015625 C 303.441406 472.429688 307.617188 477.839844 311.777344 483.253906 L 312.828125 484.613281 C 317.152344 490.238281 322.054688 496.621094 328.96875 500.609375 C 336.023438 504.691406 344.152344 505.664062 350.996094 505.664062 C 352.339844 505.664062 353.621094 505.632812 354.867188 505.566406 C 355.304688 524.039062 352.90625 543.078125 350.316406 560.660156 C 349.832031 563.871094 349.347656 567.015625 348.894531 570.109375 C 347.988281 576.023438 347.082031 582.050781 345.445312 587.789062 C 344.554688 590.949219 343.453125 594.011719 341.996094 596.910156 C 340.039062 600.929688 337.417969 604.738281 334.035156 608.515625 C 272.679688 622.253906 215.019531 654.988281 171.515625 700.816406 C 170.148438 702.273438 170.035156 704.492188 171.25 706.082031 C 208.234375 754.355469 258.371094 788.578125 312.425781 802.433594 C 332.171875 807.492188 353.019531 810.019531 374.875 810.019531 C 409.644531 810.019531 446.988281 803.617188 486.613281 790.832031 C 489.753906 789.828125 492.910156 788.773438 496.066406 787.6875 C 507.851562 783.621094 519.828125 779.019531 532.003906 773.847656 C 567.113281 758.941406 601.460938 740.890625 634.675781 723.421875 C 650.992188 714.832031 667.878906 705.953125 684.632812 697.574219 C 686.507812 696.617188 687.335938 694.398438 686.574219 692.453125 "/>
</g>
</g>
</svg>
