<?xml version="1.0" encoding="UTF-8"?>
<svg xmlns="http://www.w3.org/2000/svg" xmlns:xlink="http://www.w3.org/1999/xlink" width="810pt" height="809.999993pt" viewBox="0 0 810 809.999993" version="1.2">
<defs>
<clipPath id="clip1">
  <path d="M 129.1875 4 L 681.1875 4 L 681.1875 810 L 129.1875 810 Z M 129.1875 4 "/>
</clipPath>
</defs>
<g id="surface1">
<g clip-path="url(#clip1)" clip-rule="nonzero">
<path style=" stroke:none;fill-rule:nonzero;fill:rgb(5.879211%,5.488586%,4.708862%);fill-opacity:1;" d="M 681.351562 678.570312 C 681.351562 678.523438 681.351562 678.457031 681.335938 678.394531 C 681.289062 678.246094 681.238281 678.101562 681.175781 677.957031 C 681.140625 677.84375 681.109375 677.746094 681.0625 677.652344 C 681.027344 677.570312 680.980469 677.507812 680.933594 677.425781 C 680.835938 677.265625 680.753906 677.085938 680.640625 676.941406 C 680.625 676.941406 680.625 676.925781 680.625 676.925781 C 669.722656 662.601562 654.359375 649.628906 637.398438 640.402344 C 616.074219 628.785156 592.648438 621.496094 570 614.445312 C 560.824219 611.589844 551.441406 608.667969 542.183594 605.460938 C 540.617188 604.910156 539.050781 604.363281 537.5 603.796875 C 534.011719 602.539062 530.535156 601.234375 527.128906 599.863281 C 516.96875 595.796875 506.691406 590.859375 500.359375 582.40625 C 490.570312 569.339844 492.023438 550.59375 494.351562 532.523438 C 496.386719 516.796875 498.40625 501.082031 500.441406 485.339844 C 503.414062 485.015625 506.402344 484.339844 509.230469 483.320312 C 521.039062 479.015625 530.101562 469.835938 536.675781 462.300781 C 547.820312 449.558594 557.289062 435.3125 564.832031 419.953125 C 574.121094 401.144531 580.308594 381.15625 583.328125 360.523438 C 587.414062 358.796875 591.277344 356.667969 594.796875 354.152344 C 613.699219 340.550781 625.910156 316.03125 627.445312 288.523438 C 627.980469 278.652344 627.332031 254.519531 609.417969 243.789062 C 605.847656 241.644531 601.875 240.257812 597.59375 239.691406 C 597.640625 239.304688 597.671875 238.902344 597.722656 238.484375 C 599.546875 219.382812 596.15625 200.347656 592.585938 184.230469 C 589.546875 170.4375 585.6875 155.898438 578.160156 143.097656 C 569.644531 128.578125 557.449219 118.503906 543.800781 114.75 C 533.71875 111.972656 522.605469 113.199219 513.703125 117.78125 C 511.847656 85.496094 495.222656 53.378906 469.152344 32.507812 C 441.074219 10.015625 402.09375 0.0351562 364.875 5.789062 C 329.675781 11.246094 295.460938 30.699219 270.988281 59.15625 C 262.941406 68.527344 255.789062 78.917969 248.859375 88.972656 C 235.417969 108.503906 222.703125 126.945312 203.773438 138.960938 C 200.832031 140.832031 197.746094 142.5625 194.464844 144.398438 C 182.773438 150.964844 170.667969 157.757812 165.792969 170.777344 C 161.300781 182.714844 164.628906 197.605469 174.914062 211.621094 C 181.769531 220.929688 190.75 229.078125 201.039062 235.242188 C 203.121094 242.371094 204.964844 250.015625 206.664062 258.472656 C 204.269531 261.601562 202.15625 265.261719 200.230469 269.601562 C 189.453125 293.914062 192.445312 323.015625 207.648438 342.019531 C 211.25 346.535156 215.628906 350.472656 220.632812 353.746094 C 225.644531 381.558594 232.511719 403.175781 242.171875 421.714844 C 242.234375 421.824219 242.28125 421.921875 242.347656 422.019531 C 245.742188 428.519531 249.566406 434.714844 253.71875 440.425781 C 267.953125 460.027344 288.285156 475.109375 309.886719 482.175781 L 316.398438 532.523438 C 318.722656 550.59375 320.175781 569.339844 310.386719 582.40625 C 304.054688 590.859375 293.78125 595.796875 283.621094 599.863281 C 280.246094 601.214844 276.820312 602.507812 273.378906 603.75 C 271.726562 604.347656 270.078125 604.925781 268.421875 605.507812 C 259.207031 608.703125 249.875 611.605469 240.742188 614.445312 C 218.097656 621.496094 194.671875 628.785156 173.351562 640.386719 C 156.390625 649.628906 141.03125 662.597656 130.125 676.925781 C 130.125 676.925781 130.125 676.941406 130.105469 676.941406 C 130.011719 677.085938 129.910156 677.246094 129.828125 677.394531 C 129.785156 677.488281 129.722656 677.570312 129.683594 677.652344 C 129.640625 677.730469 129.621094 677.828125 129.589844 677.910156 C 129.527344 678.070312 129.464844 678.230469 129.414062 678.410156 C 129.414062 678.425781 129.414062 678.457031 129.394531 678.488281 C 129.351562 678.699219 129.316406 678.925781 129.300781 679.167969 C 129.300781 679.265625 129.316406 679.359375 129.316406 679.472656 C 129.316406 679.621094 129.316406 679.765625 129.351562 679.925781 C 129.363281 680.085938 129.414062 680.25 129.464844 680.410156 C 129.476562 680.492188 129.496094 680.585938 129.527344 680.667969 C 129.578125 680.828125 129.652344 680.972656 129.722656 681.121094 C 129.765625 681.214844 129.796875 681.296875 129.847656 681.394531 C 129.867188 681.410156 129.878906 681.441406 129.878906 681.457031 C 177.492188 759.554688 285.625 810.015625 405.375 810.015625 C 525.125 810.015625 633.261719 759.554688 680.867188 681.457031 C 680.867188 681.441406 680.882812 681.410156 680.898438 681.394531 C 680.949219 681.3125 680.964844 681.230469 681.011719 681.136719 C 681.09375 680.992188 681.171875 680.828125 681.222656 680.667969 C 681.253906 680.601562 681.253906 680.539062 681.269531 680.457031 C 681.335938 680.28125 681.382812 680.101562 681.414062 679.910156 C 681.433594 679.796875 681.414062 679.683594 681.433594 679.554688 C 681.433594 679.425781 681.449219 679.296875 681.449219 679.152344 C 681.433594 678.957031 681.398438 678.765625 681.351562 678.570312 "/>
<path style=" stroke:none;fill-rule:nonzero;fill:rgb(5.879211%,5.488586%,4.708862%);fill-opacity:1;" d="M 237.59375 327.679688 C 235.316406 324.710938 233.328125 320.386719 233.992188 316.546875 C 234.976562 310.867188 240.742188 305.09375 246.550781 309.417969 C 249.441406 311.59375 255.03125 309.417969 253.34375 305.367188 C 248.644531 294.058594 248.972656 277.683594 236.675781 271.070312 C 229.539062 267.230469 219.90625 269.070312 216.078125 276.507812 C 214.625 279.3125 219.503906 280.199219 220.839844 277.976562 C 228.179688 265.828125 238.890625 281.089844 240.9375 288.25 C 242.171875 292.527344 242.832031 296.914062 243.785156 301.222656 C 235.464844 300.703125 226.949219 306.496094 225.5625 315.53125 C 223.1875 331.210938 240.003906 344.179688 254.511719 343.875 C 257.03125 343.828125 260.242188 340.617188 256.96875 338.808594 C 250.183594 335.097656 242.617188 334.226562 237.59375 327.679688 Z M 306.964844 245.210938 C 306.964844 257.503906 319.515625 251.664062 335.023438 251.664062 C 350.53125 251.664062 363.097656 257.503906 363.097656 245.210938 C 363.097656 232.917969 350.53125 222.949219 335.023438 222.949219 C 319.515625 222.949219 306.964844 232.917969 306.964844 245.210938 Z M 462.332031 404.210938 C 460.234375 403.339844 458.488281 402.128906 456.859375 400.5625 C 456.664062 400.386719 456.46875 400.191406 456.292969 400 C 455.046875 398.691406 454.046875 397.242188 453.238281 395.628906 L 452.996094 395.144531 C 452.109375 393.273438 451.753906 391.140625 450.394531 389.546875 C 449.652344 388.675781 447.746094 388.640625 447.019531 389.578125 C 444.226562 393.160156 445.453125 398.351562 447.730469 402.402344 C 439.6875 413.953125 429.121094 423.777344 414.984375 427.085938 C 397.441406 431.199219 378.6875 424.972656 365.828125 412.726562 C 364.570312 411.535156 361.53125 412.695312 362.871094 414.453125 C 375.164062 430.683594 395.683594 438.765625 415.808594 434.859375 C 430.867188 431.941406 445.777344 422.34375 452.964844 408.613281 C 456.9375 411.855469 462.414062 414.050781 467.082031 411.664062 C 468.730469 410.824219 470.121094 408.773438 468.40625 407.160156 C 466.679688 405.53125 464.464844 405.097656 462.332031 404.210938 Z M 447.648438 245.210938 C 447.648438 257.503906 460.21875 251.664062 475.726562 251.664062 C 491.234375 251.664062 503.785156 257.503906 503.785156 245.210938 C 503.785156 232.917969 491.234375 222.949219 475.726562 222.949219 C 460.21875 222.949219 447.648438 232.917969 447.648438 245.210938 Z M 577.464844 279.136719 C 568.917969 288.589844 564.105469 300.722656 562.636719 313.257812 C 562.183594 317.015625 567.433594 317.242188 569.597656 315.644531 C 572.601562 313.449219 581.179688 306.511719 582.859375 316.835938 C 583.246094 319.191406 581.390625 322.902344 580.40625 324.9375 C 577.449219 331.015625 572.277344 335.132812 567.5625 339.777344 C 565.398438 341.90625 568.855469 343.503906 570.679688 342.988281 C 581.730469 339.84375 592.457031 326.289062 591.324219 314.5 C 590.257812 303.222656 580.5 303.320312 572.246094 306.449219 C 575.558594 292.105469 584.863281 272.507812 600.226562 274.714844 C 602.277344 275.007812 604.296875 272.507812 602.195312 271.101562 C 593.472656 265.214844 583.378906 272.585938 577.464844 279.136719 Z M 567.609375 622.15625 C 564.605469 621.21875 561.570312 620.269531 558.53125 619.300781 C 547.09375 630.542969 534.511719 640.757812 522.460938 651.308594 C 509.164062 662.921875 495.757812 674.390625 482.398438 685.910156 C 468.601562 697.800781 454.773438 709.640625 440.914062 721.464844 C 434.402344 727.03125 427.878906 732.597656 421.351562 738.164062 C 418.476562 740.613281 415.632812 743.339844 412.660156 745.9375 C 410.1875 748.117188 407.621094 750.183594 404.890625 751.890625 C 402.5 750.441406 400.222656 748.648438 398.007812 746.746094 C 394.484375 743.710938 391.160156 740.375 387.878906 737.566406 C 381.351562 731.984375 374.828125 726.402344 368.285156 720.820312 C 354.8125 709.300781 341.371094 697.75 327.964844 686.152344 C 314.152344 674.214844 300.308594 662.324219 286.59375 650.257812 C 275.039062 640.113281 262.957031 630.253906 252.070312 619.347656 C 249.078125 620.300781 246.09375 621.238281 243.136719 622.15625 C 220.878906 629.078125 197.839844 636.238281 177.226562 647.46875 C 162.09375 655.695312 148.375 667.050781 138.28125 679.601562 C 185.175781 754.003906 289.597656 801.949219 405.371094 801.949219 C 521.148438 801.949219 625.570312 754.003906 672.464844 679.601562 C 662.371094 667.050781 648.65625 655.695312 633.519531 647.484375 C 612.90625 636.238281 589.871094 629.078125 567.609375 622.15625 Z M 216.160156 249.679688 C 219.195312 247.824219 222.640625 246.53125 226.273438 245.824219 C 221.007812 244.46875 215.820312 242.644531 210.816406 240.371094 C 211.75 243.953125 212.625 247.664062 213.464844 251.550781 C 214.335938 250.855469 215.238281 250.242188 216.160156 249.679688 Z M 254.460938 251.519531 C 254.410156 250.566406 254.347656 249.582031 254.296875 248.613281 C 252.652344 248.726562 251.003906 248.773438 249.339844 248.773438 C 251.085938 249.550781 252.785156 250.46875 254.460938 251.519531 Z M 265.5625 353.394531 C 261.492188 327.273438 258.324219 300.753906 256.128906 274.3125 C 255.769531 270.183594 255.464844 266.070312 255.15625 261.957031 C 254.929688 261.761719 254.703125 261.566406 254.476562 261.40625 C 251.429688 258.953125 248.242188 257.019531 244.964844 255.664062 C 236.496094 252.128906 227.082031 252.46875 220.363281 256.566406 C 218.113281 257.9375 216.015625 259.777344 214.140625 262.050781 C 214.128906 262.066406 214.128906 262.066406 214.109375 262.085938 C 211.703125 264.941406 209.535156 268.554688 207.628906 272.859375 C 198.035156 294.511719 200.585938 320.273438 213.945312 336.988281 C 217.339844 341.214844 221.523438 344.875 226.398438 347.859375 C 238.535156 355.230469 253.25 357.265625 265.5625 353.394531 Z M 304.589844 471.546875 C 287.707031 451.234375 280.050781 425.699219 275.691406 407.550781 C 274.117188 400.984375 272.617188 393.851562 270.988281 385.09375 C 269.53125 377.285156 268.144531 369.363281 266.847656 361.441406 C 262.3125 362.734375 257.53125 363.378906 252.683594 363.378906 C 244.996094 363.378906 237.128906 361.78125 229.765625 358.636719 C 234.476562 382.445312 240.730469 401.371094 249.179688 417.695312 C 249.242188 417.792969 249.308594 417.90625 249.355469 418.003906 C 252.605469 424.261719 256.273438 430.214844 260.242188 435.683594 C 271.765625 451.542969 287.527344 464.207031 304.589844 471.546875 Z M 370.644531 322.46875 L 370.644531 302.207031 C 370.644531 296.996094 366.394531 292.75 361.175781 292.75 L 344.328125 292.75 L 344.328125 324.546875 C 344.328125 330.257812 339.660156 334.921875 333.957031 334.921875 C 328.238281 334.921875 323.570312 330.257812 323.570312 324.546875 L 323.570312 292.75 L 302.570312 292.75 C 301.355469 292.75 300.195312 292.976562 299.128906 293.414062 C 296.203125 294.542969 293.976562 297.109375 293.3125 300.238281 C 293.167969 300.867188 293.101562 301.527344 293.101562 302.207031 L 293.101562 318.160156 C 293.101562 333.453125 305.558594 345.890625 320.886719 345.890625 L 347.1875 345.890625 C 360.125 345.890625 370.644531 335.390625 370.644531 322.46875 Z M 439.621094 117.589844 C 444.128906 114.464844 449.394531 115.605469 453.546875 117.246094 C 444.128906 108.652344 433.835938 100.699219 422.320312 95.40625 C 401.886719 86.035156 379.527344 87.183594 365.34375 98.34375 C 355.699219 105.953125 349.042969 118.28125 345.054688 135.933594 C 347.960938 136.53125 351.273438 136.273438 353.472656 134.351562 C 354.730469 133.273438 355.78125 131.589844 356.878906 129.820312 C 358.835938 126.675781 361.046875 123.121094 365.28125 121.460938 C 372.242188 118.683594 378.640625 123.171875 383.792969 126.75 C 388.671875 130.171875 391.820312 132.15625 394.179688 130.75 C 395.957031 129.675781 396.746094 126.738281 397.585938 123.625 C 398.75 119.367188 400.171875 114.058594 405.179688 111.496094 C 413.628906 107.183594 422.0625 115.425781 424.824219 118.136719 C 428.199219 121.445312 432.59375 124.089844 434.773438 122.527344 C 435.257812 122.1875 435.808594 121.527344 436.375 120.832031 C 437.230469 119.769531 438.199219 118.570312 439.621094 117.589844 Z M 483.414062 130.492188 C 487.890625 121.992188 495.96875 115.445312 505.222656 113.203125 C 502.152344 84.875 487.050781 57.175781 464.109375 38.796875 C 437.761719 17.714844 401.125 8.355469 366.101562 13.761719 C 332.792969 18.921875 300.355469 37.394531 277.128906 64.414062 C 269.339844 73.453125 262.3125 83.667969 255.511719 93.535156 C 242.203125 112.878906 228.417969 132.871094 208.101562 145.777344 C 204.984375 147.753906 201.652344 149.625 198.421875 151.433594 C 187.515625 157.566406 177.191406 163.355469 173.351562 173.617188 C 168.359375 186.894531 177.339844 201.285156 181.445312 206.847656 C 187.921875 215.707031 196.597656 223.402344 206.5 229.09375 C 222.207031 238.179688 240.378906 242.128906 257.660156 240.242188 C 257.746094 240.242188 257.820312 240.226562 257.890625 240.226562 C 258.773438 240.144531 259.632812 240.015625 260.46875 239.902344 C 290.066406 235.597656 316.703125 213.800781 326.769531 185.667969 C 330.386719 175.570312 331.984375 165.050781 333.683594 153.933594 C 334.488281 148.660156 335.328125 143.210938 336.394531 137.855469 C 336.394531 137.816406 336.429688 137.609375 336.445312 137.578125 C 340.726562 116.21875 348.542969 101.328125 360.335938 92.023438 C 376.878906 78.984375 402.53125 77.453125 425.695312 88.082031 C 443.675781 96.324219 458.457031 110.214844 471.558594 123.449219 C 471.039062 119.75 470.605469 116.085938 469.75 112.796875 C 467.339844 103.429688 463.882812 94.328125 459.410156 85.726562 C 450.460938 68.53125 438.265625 53.304688 423.160156 41.125 C 420.945312 39.332031 425.019531 36.882812 426.859375 38.09375 C 444.03125 49.511719 458.390625 64.566406 468.292969 82.726562 C 473.027344 91.421875 476.839844 100.648438 479.570312 110.171875 C 481.300781 116.203125 483.464844 123.636719 483.414062 130.492188 Z M 517.644531 322.46875 L 517.644531 302.207031 C 517.644531 301.527344 517.582031 300.867188 517.4375 300.238281 C 516.773438 297.109375 514.542969 294.542969 511.621094 293.414062 C 510.554688 292.976562 509.390625 292.75 508.179688 292.75 L 487.179688 292.75 L 487.179688 324.546875 C 487.179688 330.257812 482.511719 334.921875 476.792969 334.921875 C 471.089844 334.921875 466.421875 330.257812 466.421875 324.546875 L 466.421875 292.75 L 449.570312 292.75 C 444.355469 292.75 440.105469 296.996094 440.105469 302.207031 L 440.105469 318.160156 C 440.105469 318.886719 440.136719 319.613281 440.203125 320.320312 C 441.300781 334.613281 453.289062 345.890625 467.890625 345.890625 L 494.191406 345.890625 C 507.128906 345.890625 517.644531 335.390625 517.644531 322.46875 Z M 519.730469 286.945312 C 522.910156 284.71875 526.109375 282.492188 529.292969 280.25 C 525.042969 277.410156 521.621094 273.472656 519.550781 268.796875 C 515.417969 259.375 517.046875 249.386719 518.613281 239.726562 C 518.9375 237.757812 519.261719 235.804688 519.519531 233.867188 C 523.945312 201.667969 510.667969 167.402344 485.691406 146.582031 C 485.515625 146.417969 485.355469 146.253906 485.191406 146.074219 C 484.0625 145.144531 482.898438 144.222656 481.734375 143.316406 C 480.214844 142.144531 478.683594 141.011719 477.113281 139.898438 C 476.664062 139.722656 476.308594 139.445312 476 139.105469 C 468.488281 133.863281 460.539062 129.28125 452.238281 125.464844 C 448.328125 123.65625 445.628906 123.234375 444.242188 124.203125 C 443.757812 124.542969 443.207031 125.207031 442.640625 125.910156 C 441.785156 126.964844 440.832031 128.136719 439.441406 129.105469 C 433.949219 133.023438 426.550781 131.121094 419.167969 123.914062 C 414.5 119.332031 411.027344 117.574219 408.863281 118.683594 C 407.167969 119.539062 406.425781 121.910156 405.390625 125.714844 C 404.292969 129.816406 402.902344 134.929688 398.316406 137.667969 C 391.304688 141.847656 384.566406 137.160156 379.15625 133.367188 C 374.34375 129.992188 370.980469 127.863281 368.25 128.941406 C 366.507812 129.640625 365.214844 131.6875 363.746094 134.078125 C 362.4375 136.171875 360.949219 138.558594 358.753906 140.449219 C 354.910156 143.789062 349.207031 144.980469 343.519531 143.832031 C 342.859375 147.605469 342.242188 151.421875 341.679688 155.144531 C 339.980469 166.160156 338.253906 177.550781 334.359375 188.375 C 323.425781 219.011719 294.539062 242.804688 262.34375 247.757812 C 262.570312 251.9375 262.84375 255.953125 263.070312 259.472656 C 263.089844 259.535156 263.089844 259.617188 263.089844 259.695312 C 263.109375 259.777344 263.109375 259.875 263.109375 259.972656 L 263.109375 259.988281 C 263.296875 262.601562 263.492188 265.214844 263.699219 267.828125 C 272.8125 274.199219 281.90625 280.570312 291.019531 286.945312 C 294.234375 284.523438 298.238281 283.074219 302.570312 283.074219 L 324.828125 283.074219 C 326.605469 279.847656 330.03125 277.652344 333.957031 277.652344 C 337.867188 277.652344 341.308594 279.847656 343.066406 283.074219 L 361.175781 283.074219 C 369.933594 283.074219 377.332031 288.960938 379.609375 296.976562 C 385.117188 293.589844 391.289062 291.316406 397.734375 290.429688 C 397.894531 290.027344 398.054688 289.621094 398.21875 289.234375 C 398.863281 287.652344 402.449219 288.171875 401.886719 290.074219 C 402.644531 290.027344 403.402344 290.007812 404.164062 290.027344 C 413.773438 290.121094 423.03125 293.363281 430.703125 298.882812 C 432.289062 289.914062 440.136719 283.074219 449.570312 283.074219 L 467.695312 283.074219 C 469.457031 279.847656 472.882812 277.652344 476.792969 277.652344 C 479.652344 277.652344 482.253906 278.8125 484.125 280.699219 C 484.835938 281.394531 485.433594 282.203125 485.902344 283.074219 L 508.179688 283.074219 C 512.507812 283.074219 516.515625 284.523438 519.730469 286.945312 Z M 530.214844 609.71875 C 528.179688 608.945312 526.144531 608.152344 524.125 607.347656 C 512.863281 602.828125 501.410156 597.28125 493.898438 587.246094 C 482.300781 571.757812 483.804688 551.207031 486.339844 531.492188 C 488.34375 516.023438 490.328125 500.566406 492.332031 485.097656 C 477.664062 496.875 458.699219 505.085938 435.953125 509.503906 C 426.925781 511.277344 417.054688 512.472656 405.761719 513.214844 C 405.714844 513.230469 405.679688 513.230469 405.632812 513.230469 L 405.117188 513.230469 C 405.066406 513.230469 405.035156 513.230469 404.988281 513.214844 C 393.695312 512.472656 383.824219 511.277344 374.792969 509.503906 C 352.082031 505.101562 333.117188 496.890625 318.417969 485.097656 L 324.410156 531.492188 C 326.945312 551.207031 328.449219 571.757812 316.847656 587.246094 C 309.335938 597.28125 297.882812 602.828125 286.625 607.347656 C 284.652344 608.136719 282.679688 608.894531 280.695312 609.652344 C 299.675781 624.996094 318.417969 640.644531 337.21875 656.226562 C 360.011719 675.132812 383.824219 693.414062 405.699219 713.449219 C 427.699219 693.574219 451.269531 675.183594 474.046875 656.210938 C 492.71875 640.675781 511.363281 625.042969 530.214844 609.71875 Z M 552.976562 617.542969 C 547.078125 615.65625 541.167969 613.6875 535.320312 611.589844 C 516.707031 628.15625 497.839844 644.402344 479.039062 660.726562 C 456.324219 680.457031 434 701.074219 410.445312 719.820312 C 409.527344 720.578125 408.589844 721.304688 407.652344 722.046875 C 406.859375 722.773438 405.921875 723.144531 404.988281 723.222656 C 404.128906 723.160156 403.304688 722.835938 402.660156 722.222656 C 401.917969 721.644531 401.175781 721.078125 400.445312 720.480469 C 376.507812 701.769531 354.085938 680.667969 331.210938 660.710938 C 312.503906 644.417969 293.75 628.207031 275.265625 611.652344 C 269.519531 613.703125 263.71875 615.640625 257.953125 617.492188 C 284.398438 636.335938 308.804688 658.808594 333.683594 679.488281 C 347.71875 691.152344 361.710938 702.851562 375.683594 714.59375 C 382.660156 720.464844 389.640625 726.339844 396.636719 732.210938 C 399.476562 734.582031 402.707031 736.886719 405.761719 739.371094 C 409.105469 736.679688 412.613281 734.164062 415.632812 731.613281 C 422.222656 726.082031 428.796875 720.53125 435.390625 714.996094 C 448.972656 703.558594 462.578125 692.136719 476.226562 680.765625 C 501.492188 659.695312 526.238281 636.902344 552.976562 617.542969 Z M 545.558594 285.039062 C 545.351562 285.058594 545.15625 285.058594 544.960938 285.058594 C 543.265625 285.058594 541.585938 284.894531 539.953125 284.589844 L 539.9375 284.589844 C 535.1875 287.894531 530.457031 291.21875 525.722656 294.527344 C 526.757812 296.867188 527.339844 299.480469 527.339844 302.207031 L 527.339844 322.46875 C 527.339844 340.730469 512.460938 355.570312 494.191406 355.570312 L 467.890625 355.570312 C 447.230469 355.570312 430.414062 338.792969 430.414062 318.160156 L 430.414062 311.367188 C 423.644531 304.253906 414.160156 299.800781 404.164062 299.703125 C 402.464844 299.6875 400.769531 299.800781 399.105469 300.027344 L 399.089844 300.027344 C 394.730469 316.5 391.496094 333.484375 390.15625 350.410156 C 389.398438 360.121094 390.542969 369.429688 399.027344 375.398438 C 405.714844 380.109375 414.355469 381.382812 422.09375 383.558594 C 428.152344 385.253906 423.824219 391.253906 419.089844 390.835938 C 399.898438 389.109375 380.902344 379.671875 380.902344 358.121094 C 380.902344 339.117188 386.601562 319.449219 393.453125 301.253906 C 388.671875 302.6875 384.195312 305.109375 380.335938 308.289062 L 380.335938 322.46875 C 380.335938 340.730469 365.457031 355.570312 347.1875 355.570312 L 320.886719 355.570312 C 300.226562 355.570312 283.40625 338.792969 283.40625 318.160156 L 283.40625 302.207031 C 283.40625 299.480469 283.996094 296.867188 285.023438 294.527344 C 278.273438 289.800781 271.519531 285.074219 264.753906 280.347656 C 266.996094 305.496094 270.113281 330.664062 274.054688 355.441406 C 274.074219 355.523438 274.085938 355.601562 274.085938 355.683594 C 275.589844 365.007812 277.207031 374.414062 278.933594 383.609375 C 280.535156 392.238281 282.007812 399.257812 283.539062 405.675781 C 290.820312 435.957031 301.113281 457.027344 315.894531 471.980469 C 315.992188 472.078125 316.089844 472.175781 316.171875 472.269531 C 317.042969 473.160156 317.996094 474.09375 319.109375 475.109375 C 320 475.917969 320.886719 476.691406 321.808594 477.464844 C 335.703125 489.144531 354.050781 497.261719 376.34375 501.601562 C 385.003906 503.277344 394.503906 504.457031 405.375 505.164062 C 416.246094 504.457031 425.746094 503.277344 434.402344 501.601562 C 456.371094 497.324219 474.515625 489.386719 488.308594 477.980469 C 489.375 477.128906 490.457031 476.191406 491.636719 475.09375 C 492.867188 473.980469 493.898438 472.980469 494.804688 472.03125 C 509.632812 457.027344 519.921875 435.957031 527.210938 405.675781 C 528.742188 399.273438 530.199219 392.253906 531.8125 383.609375 C 533.429688 374.960938 534.964844 366.152344 536.351562 357.441406 C 536.351562 357.394531 536.367188 357.363281 536.367188 357.3125 C 540.214844 333.519531 543.296875 309.238281 545.558594 285.039062 Z M 557.578125 416.390625 C 565.882812 399.578125 571.617188 381.800781 574.703125 363.460938 C 569.53125 364.796875 564.265625 365.492188 559.066406 365.492188 C 553.765625 365.492188 548.53125 364.78125 543.574219 363.378906 C 542.378906 370.621094 541.085938 377.914062 539.761719 385.09375 C 538.113281 393.867188 536.628906 401.015625 535.058594 407.550781 C 530.328125 427.246094 521.714844 455.65625 501.554688 476.660156 L 501.507812 477.0625 C 503.1875 476.757812 504.851562 476.320312 506.46875 475.738281 C 516.546875 472.0625 524.65625 463.800781 530.601562 457.011719 C 541.28125 444.78125 550.359375 431.117188 557.578125 416.390625 Z M 589.675781 237.691406 C 591.390625 219.738281 588.125 201.476562 584.703125 185.972656 C 581.792969 172.824219 578.160156 159.015625 571.179688 147.171875 C 563.75 134.480469 553.25 125.714844 541.652344 122.527344 C 531.441406 119.714844 519.988281 121.925781 512.445312 128.15625 C 512.429688 128.175781 512.429688 128.175781 512.410156 128.183594 C 512.394531 128.203125 512.394531 128.203125 512.378906 128.21875 C 512.203125 128.363281 512.007812 128.496094 511.8125 128.609375 C 511.621094 128.722656 511.410156 128.816406 511.183594 128.878906 L 511.152344 128.898438 C 510.941406 128.980469 510.730469 129.023438 510.503906 129.054688 C 510.28125 129.105469 510.054688 129.125 509.828125 129.125 L 509.730469 129.125 C 509.472656 129.125 509.214844 129.09375 508.972656 129.023438 C 508.113281 128.847656 507.324219 128.378906 506.726562 127.667969 C 506.710938 127.65625 506.710938 127.65625 506.691406 127.636719 C 506.5625 127.480469 506.449219 127.316406 506.355469 127.140625 C 506.320312 127.109375 506.304688 127.058594 506.273438 127.007812 C 506.175781 126.847656 506.113281 126.6875 506.046875 126.507812 C 506.015625 126.429688 505.984375 126.363281 505.964844 126.285156 C 505.917969 126.117188 505.871094 125.941406 505.851562 125.765625 C 505.804688 125.558594 505.789062 125.332031 505.789062 125.105469 L 505.789062 125.042969 C 505.804688 123.832031 505.789062 122.601562 505.757812 121.390625 C 501.3125 122.746094 497.273438 125.425781 494.15625 128.960938 C 508.4375 128.433594 522.945312 135.652344 533.21875 145.238281 C 548.226562 159.238281 556.320312 178.746094 562.523438 197.878906 C 563.570312 201.089844 556.996094 202.863281 555.785156 199.910156 C 549.144531 183.746094 542.136719 167.195312 530.019531 154.273438 C 519.148438 142.691406 505.078125 136.5625 489.699219 135.992188 C 489.34375 136.832031 489.019531 137.707031 488.761719 138.578125 C 492.558594 141.625 496.226562 144.804688 499.683594 148.125 C 500.199219 148.609375 500.539062 149.21875 500.730469 149.871094 C 521.34375 172.550781 531.699219 204.605469 527.53125 234.964844 C 527.257812 236.964844 526.917969 238.984375 526.59375 241.015625 C 525.140625 249.921875 523.769531 258.324219 526.949219 265.570312 C 528.792969 269.746094 532.378906 273.136719 536.644531 275.101562 C 541.472656 271.730469 546.320312 268.34375 551.148438 264.972656 C 555.511719 258.648438 559.9375 253.726562 564.816406 249.757812 C 572.035156 243.902344 580.839844 240.210938 589.484375 239.5 C 589.546875 238.933594 589.613281 238.320312 589.675781 237.691406 Z M 619.367188 288.074219 C 619.835938 279.667969 619.402344 259.164062 605.25 250.695312 C 601.726562 248.566406 597.609375 247.46875 593.039062 247.4375 L 592.8125 247.4375 C 585.089844 247.4375 576.542969 250.628906 569.921875 256.019531 C 567.367188 258.101562 564.914062 260.503906 562.523438 263.34375 C 559.890625 266.441406 557.335938 270.019531 554.753906 274.230469 C 554.703125 274.296875 554.65625 274.378906 554.605469 274.457031 C 554.445312 276.554688 554.265625 278.667969 554.074219 280.765625 L 554.074219 280.878906 C 551.84375 305.785156 548.742188 330.824219 544.867188 355.359375 C 555.285156 358.554688 567.273438 358.039062 578.238281 353.894531 C 582.539062 352.28125 586.511719 350.167969 590.082031 347.601562 C 607.027344 335.421875 617.980469 313.160156 619.367188 288.074219 Z M 672.46875 679.601562 C 662.371094 667.050781 648.65625 655.695312 633.519531 647.484375 C 612.90625 636.238281 589.871094 629.078125 567.609375 622.15625 C 564.605469 621.21875 561.570312 620.269531 558.53125 619.300781 C 547.09375 630.542969 534.511719 640.757812 522.460938 651.308594 C 509.164062 662.921875 495.757812 674.390625 482.398438 685.910156 C 468.601562 697.800781 454.773438 709.640625 440.914062 721.464844 C 434.402344 727.03125 427.878906 732.597656 421.351562 738.164062 C 418.476562 740.613281 415.632812 743.339844 412.660156 745.9375 C 410.1875 748.117188 407.621094 750.179688 404.890625 751.890625 C 402.5 750.441406 400.222656 748.648438 398.007812 746.746094 C 394.488281 743.710938 391.160156 740.375 387.878906 737.566406 C 381.351562 731.984375 374.828125 726.402344 368.285156 720.820312 C 354.8125 709.300781 341.371094 697.75 327.964844 686.152344 C 314.152344 674.214844 300.308594 662.324219 286.59375 650.257812 C 275.039062 640.109375 262.957031 630.253906 252.070312 619.347656 C 249.078125 620.300781 246.09375 621.238281 243.136719 622.15625 C 220.878906 629.078125 197.839844 636.238281 177.226562 647.46875 C 162.09375 655.695312 148.375 667.050781 138.28125 679.601562 C 185.175781 754.003906 289.597656 801.949219 405.371094 801.949219 C 521.148438 801.949219 625.570312 754.003906 672.464844 679.601562 Z M 681.351562 678.570312 C 681.402344 678.765625 681.433594 678.957031 681.449219 679.152344 C 681.449219 679.296875 681.433594 679.425781 681.433594 679.554688 C 681.417969 679.683594 681.433594 679.796875 681.417969 679.910156 C 681.382812 680.101562 681.335938 680.28125 681.273438 680.457031 C 681.253906 680.539062 681.253906 680.601562 681.222656 680.667969 C 681.175781 680.828125 681.09375 680.992188 681.011719 681.136719 C 680.964844 681.230469 680.949219 681.3125 680.898438 681.394531 C 680.882812 681.410156 680.867188 681.441406 680.867188 681.457031 C 633.261719 759.554688 525.125 810.015625 405.375 810.015625 C 285.625 810.015625 177.488281 759.554688 129.878906 681.457031 C 129.878906 681.441406 129.867188 681.410156 129.847656 681.394531 C 129.796875 681.296875 129.765625 681.214844 129.722656 681.121094 C 129.652344 680.972656 129.578125 680.828125 129.527344 680.667969 C 129.496094 680.585938 129.476562 680.492188 129.464844 680.410156 C 129.414062 680.25 129.363281 680.085938 129.351562 679.925781 C 129.316406 679.765625 129.316406 679.617188 129.316406 679.472656 C 129.316406 679.359375 129.300781 679.265625 129.300781 679.167969 C 129.316406 678.925781 129.351562 678.699219 129.394531 678.488281 C 129.414062 678.457031 129.414062 678.425781 129.414062 678.410156 C 129.464844 678.230469 129.527344 678.070312 129.589844 677.910156 C 129.621094 677.828125 129.640625 677.730469 129.683594 677.652344 C 129.722656 677.570312 129.785156 677.488281 129.828125 677.394531 C 129.910156 677.246094 130.011719 677.085938 130.105469 676.941406 C 130.125 676.941406 130.125 676.925781 130.125 676.925781 C 141.03125 662.597656 156.390625 649.628906 173.351562 640.386719 C 194.671875 628.785156 218.097656 621.496094 240.742188 614.445312 C 249.875 611.605469 259.207031 608.703125 268.421875 605.507812 C 270.078125 604.925781 271.726562 604.347656 273.378906 603.75 C 276.820312 602.507812 280.246094 601.214844 283.621094 599.859375 C 293.78125 595.796875 304.054688 590.859375 310.386719 582.40625 C 320.175781 569.339844 318.722656 550.59375 316.398438 532.523438 L 309.886719 482.175781 C 288.285156 475.109375 267.953125 460.027344 253.71875 440.425781 C 249.566406 434.714844 245.742188 428.519531 242.347656 422.019531 C 242.28125 421.921875 242.234375 421.824219 242.167969 421.714844 C 232.507812 403.175781 225.644531 381.558594 220.632812 353.746094 C 215.628906 350.472656 211.25 346.535156 207.648438 342.019531 C 192.445312 323.015625 189.453125 293.914062 200.230469 269.601562 C 202.15625 265.261719 204.269531 261.601562 206.664062 258.472656 C 204.964844 250.015625 203.121094 242.371094 201.039062 235.242188 C 190.746094 229.078125 181.765625 220.929688 174.914062 211.621094 C 164.628906 197.605469 161.296875 182.714844 165.789062 170.777344 C 170.667969 157.757812 182.773438 150.964844 194.464844 144.398438 C 197.746094 142.5625 200.832031 140.832031 203.773438 138.960938 C 222.703125 126.945312 235.417969 108.503906 248.859375 88.972656 C 255.789062 78.917969 262.941406 68.527344 270.988281 59.15625 C 295.460938 30.699219 329.675781 11.246094 364.875 5.789062 C 402.09375 0.0351562 441.074219 10.015625 469.152344 32.507812 C 495.222656 53.378906 511.847656 85.496094 513.703125 117.78125 C 522.605469 113.199219 533.71875 111.972656 543.800781 114.75 C 557.449219 118.503906 569.644531 128.578125 578.160156 143.097656 C 585.6875 155.898438 589.546875 170.4375 592.585938 184.230469 C 596.15625 200.347656 599.546875 219.382812 597.722656 238.484375 C 597.671875 238.902344 597.640625 239.304688 597.59375 239.691406 C 601.875 240.257812 605.847656 241.644531 609.417969 243.789062 C 627.332031 254.519531 627.976562 278.652344 627.445312 288.523438 C 625.910156 316.03125 613.699219 340.550781 594.796875 354.152344 C 591.277344 356.667969 587.414062 358.796875 583.328125 360.523438 C 580.308594 381.15625 574.121094 401.144531 564.832031 419.953125 C 557.289062 435.3125 547.820312 449.558594 536.675781 462.300781 C 530.101562 469.835938 521.039062 479.015625 509.230469 483.320312 C 506.402344 484.339844 503.414062 485.015625 500.441406 485.339844 C 498.40625 501.082031 496.386719 516.796875 494.351562 532.523438 C 492.023438 550.59375 490.570312 569.339844 500.359375 582.40625 C 506.691406 590.859375 516.96875 595.796875 527.128906 599.859375 C 530.535156 601.234375 534.007812 602.539062 537.5 603.796875 C 539.050781 604.363281 540.617188 604.910156 542.183594 605.460938 C 551.441406 608.667969 560.824219 611.589844 570 614.445312 C 592.648438 621.496094 616.074219 628.785156 637.394531 640.402344 C 654.359375 649.628906 669.722656 662.597656 680.625 676.925781 C 680.625 676.925781 680.625 676.941406 680.640625 676.941406 C 680.753906 677.085938 680.835938 677.265625 680.933594 677.425781 C 680.980469 677.503906 681.027344 677.570312 681.0625 677.652344 C 681.109375 677.746094 681.140625 677.84375 681.175781 677.957031 C 681.238281 678.101562 681.289062 678.246094 681.335938 678.394531 C 681.351562 678.457031 681.351562 678.523438 681.351562 678.570312 "/>
</g>
<path style=" stroke:none;fill-rule:nonzero;fill:rgb(100%,100%,100%);fill-opacity:1;" d="M 210.816406 240.371094 C 211.75 243.953125 212.625 247.664062 213.464844 251.550781 C 214.335938 250.855469 215.238281 250.242188 216.160156 249.679688 C 219.195312 247.824219 222.640625 246.53125 226.273438 245.824219 C 221.007812 244.46875 215.820312 242.644531 210.816406 240.371094 Z M 249.339844 248.773438 C 251.085938 249.550781 252.785156 250.46875 254.460938 251.519531 C 254.410156 250.566406 254.347656 249.582031 254.296875 248.613281 C 252.652344 248.726562 251.003906 248.773438 249.339844 248.773438 Z M 254.511719 343.875 C 257.03125 343.828125 260.242188 340.617188 256.96875 338.808594 C 250.183594 335.097656 242.617188 334.226562 237.59375 327.679688 C 235.316406 324.710938 233.328125 320.386719 233.992188 316.546875 C 234.976562 310.867188 240.742188 305.09375 246.550781 309.417969 C 249.441406 311.59375 255.03125 309.417969 253.34375 305.367188 C 248.644531 294.058594 248.972656 277.683594 236.675781 271.070312 C 229.539062 267.230469 219.90625 269.070312 216.078125 276.507812 C 214.625 279.3125 219.503906 280.199219 220.839844 277.976562 C 228.179688 265.828125 238.890625 281.089844 240.9375 288.25 C 242.171875 292.527344 242.832031 296.914062 243.785156 301.222656 C 235.464844 300.703125 226.949219 306.496094 225.5625 315.53125 C 223.1875 331.210938 240.003906 344.179688 254.511719 343.875 Z M 256.128906 274.3125 C 258.324219 300.753906 261.492188 327.273438 265.5625 353.394531 C 253.25 357.265625 238.535156 355.230469 226.402344 347.859375 C 221.523438 344.875 217.339844 341.214844 213.945312 336.988281 C 200.585938 320.273438 198.035156 294.511719 207.628906 272.859375 C 209.535156 268.554688 211.703125 264.941406 214.109375 262.085938 C 214.128906 262.066406 214.128906 262.066406 214.140625 262.050781 C 216.015625 259.777344 218.113281 257.9375 220.363281 256.566406 C 227.082031 252.46875 236.496094 252.132812 244.964844 255.664062 C 248.242188 257.019531 251.429688 258.953125 254.476562 261.40625 C 254.703125 261.566406 254.929688 261.761719 255.15625 261.957031 C 255.464844 266.070312 255.769531 270.183594 256.128906 274.3125 Z M 270.988281 385.09375 C 269.53125 377.285156 268.144531 369.363281 266.847656 361.441406 C 262.3125 362.734375 257.53125 363.378906 252.683594 363.378906 C 244.996094 363.378906 237.128906 361.78125 229.765625 358.636719 C 234.476562 382.445312 240.730469 401.371094 249.179688 417.695312 C 249.242188 417.792969 249.308594 417.90625 249.355469 418.003906 C 252.605469 424.261719 256.273438 430.214844 260.242188 435.683594 C 271.765625 451.542969 287.527344 464.207031 304.589844 471.546875 C 287.707031 451.234375 280.050781 425.699219 275.691406 407.550781 C 274.117188 400.984375 272.617188 393.851562 270.988281 385.09375 Z M 370.644531 304.09375 L 370.644531 302.207031 C 370.644531 296.996094 366.394531 292.75 361.175781 292.75 L 344.328125 292.75 L 344.328125 324.546875 C 344.328125 330.257812 339.660156 334.921875 333.957031 334.921875 C 328.238281 334.921875 323.570312 330.257812 323.570312 324.546875 L 323.570312 292.75 L 302.570312 292.75 C 301.355469 292.75 300.195312 292.976562 299.128906 293.414062 C 296.203125 294.542969 293.976562 297.109375 293.3125 300.238281 C 293.167969 300.867188 293.101562 301.527344 293.101562 302.207031 L 293.101562 318.160156 C 293.101562 333.453125 305.558594 345.890625 320.886719 345.890625 L 347.1875 345.890625 C 360.125 345.890625 370.644531 335.390625 370.644531 322.46875 Z M 422.320312 95.40625 C 401.886719 86.035156 379.527344 87.183594 365.34375 98.34375 C 355.699219 105.953125 349.042969 118.28125 345.054688 135.933594 C 347.960938 136.53125 351.273438 136.273438 353.472656 134.351562 C 354.730469 133.273438 355.78125 131.589844 356.878906 129.820312 C 358.835938 126.675781 361.046875 123.121094 365.28125 121.464844 C 372.242188 118.683594 378.640625 123.171875 383.792969 126.75 C 388.671875 130.171875 391.820312 132.15625 394.179688 130.75 C 395.957031 129.675781 396.746094 126.738281 397.589844 123.625 C 398.75 119.367188 400.171875 114.058594 405.179688 111.496094 C 413.628906 107.183594 422.0625 115.425781 424.824219 118.136719 C 428.199219 121.445312 432.59375 124.089844 434.773438 122.527344 C 435.257812 122.1875 435.808594 121.527344 436.375 120.832031 C 437.230469 119.769531 438.199219 118.570312 439.621094 117.589844 C 444.128906 114.464844 449.394531 115.605469 453.546875 117.246094 C 444.128906 108.652344 433.839844 100.699219 422.320312 95.40625 Z M 464.109375 38.796875 C 437.761719 17.714844 401.125 8.355469 366.101562 13.761719 C 332.792969 18.921875 300.355469 37.394531 277.128906 64.414062 C 269.339844 73.453125 262.3125 83.667969 255.511719 93.535156 C 242.203125 112.878906 228.417969 132.871094 208.101562 145.777344 C 204.984375 147.753906 201.652344 149.625 198.421875 151.433594 C 187.515625 157.566406 177.191406 163.355469 173.351562 173.617188 C 168.359375 186.894531 177.339844 201.285156 181.445312 206.847656 C 187.921875 215.707031 196.597656 223.402344 206.5 229.09375 C 222.207031 238.179688 240.378906 242.128906 257.660156 240.242188 C 257.746094 240.242188 257.820312 240.226562 257.890625 240.226562 C 258.773438 240.144531 259.632812 240.015625 260.46875 239.902344 C 290.066406 235.597656 316.703125 213.800781 326.769531 185.667969 C 330.386719 175.570312 331.984375 165.050781 333.683594 153.933594 C 334.488281 148.660156 335.328125 143.210938 336.394531 137.855469 C 336.394531 137.816406 336.429688 137.609375 336.445312 137.578125 C 340.726562 116.21875 348.542969 101.328125 360.335938 92.023438 C 376.878906 78.984375 402.53125 77.453125 425.695312 88.082031 C 443.675781 96.324219 458.457031 110.214844 471.558594 123.449219 C 471.039062 119.75 470.605469 116.085938 469.75 112.796875 C 467.339844 103.429688 463.882812 94.328125 459.410156 85.726562 C 450.460938 68.53125 438.265625 53.304688 423.160156 41.125 C 420.945312 39.332031 425.019531 36.882812 426.859375 38.09375 C 444.03125 49.511719 458.390625 64.566406 468.292969 82.726562 C 473.027344 91.421875 476.839844 100.648438 479.570312 110.171875 C 481.300781 116.203125 483.464844 123.636719 483.414062 130.492188 C 487.890625 121.992188 495.96875 115.445312 505.222656 113.203125 C 502.152344 84.875 487.050781 57.175781 464.109375 38.796875 Z M 517.4375 300.238281 C 516.773438 297.109375 514.542969 294.542969 511.621094 293.414062 C 510.554688 292.976562 509.390625 292.75 508.179688 292.75 L 487.179688 292.75 L 487.179688 324.546875 C 487.179688 330.257812 482.511719 334.921875 476.792969 334.921875 C 471.089844 334.921875 466.421875 330.257812 466.421875 324.546875 L 466.421875 292.75 L 449.570312 292.75 C 444.355469 292.75 440.105469 296.996094 440.105469 302.207031 L 440.105469 318.160156 C 440.105469 318.886719 440.136719 319.613281 440.203125 320.320312 C 441.300781 334.613281 453.289062 345.890625 467.890625 345.890625 L 494.191406 345.890625 C 507.128906 345.890625 517.644531 335.390625 517.644531 322.46875 L 517.644531 302.207031 C 517.644531 301.527344 517.582031 300.867188 517.4375 300.238281 Z M 363.097656 245.210938 C 363.097656 232.917969 350.53125 222.949219 335.023438 222.949219 C 319.515625 222.949219 306.964844 232.917969 306.964844 245.210938 C 306.964844 257.503906 319.515625 251.664062 335.023438 251.664062 C 350.53125 251.664062 363.097656 257.503906 363.097656 245.210938 Z M 503.785156 245.210938 C 503.785156 232.917969 491.234375 222.949219 475.726562 222.949219 C 460.21875 222.949219 447.648438 232.917969 447.648438 245.210938 C 447.648438 257.503906 460.21875 251.664062 475.726562 251.664062 C 491.234375 251.664062 503.785156 257.503906 503.785156 245.210938 Z M 529.292969 280.25 C 526.109375 282.492188 522.910156 284.71875 519.730469 286.945312 C 516.515625 284.523438 512.507812 283.074219 508.179688 283.074219 L 485.902344 283.074219 C 485.433594 282.203125 484.835938 281.394531 484.125 280.699219 C 482.25 278.8125 479.652344 277.652344 476.792969 277.652344 C 472.882812 277.652344 469.457031 279.847656 467.695312 283.074219 L 449.570312 283.074219 C 440.136719 283.074219 432.285156 289.914062 430.703125 298.882812 C 423.03125 293.363281 413.773438 290.121094 404.164062 290.027344 C 403.402344 290.007812 402.644531 290.027344 401.886719 290.074219 C 402.449219 288.171875 398.863281 287.652344 398.21875 289.234375 C 398.054688 289.621094 397.894531 290.027344 397.734375 290.429688 C 391.289062 291.316406 385.117188 293.589844 379.609375 296.976562 C 377.332031 288.960938 369.933594 283.074219 361.175781 283.074219 L 343.066406 283.074219 C 341.308594 279.847656 337.867188 277.652344 333.957031 277.652344 C 330.03125 277.652344 326.605469 279.847656 324.828125 283.074219 L 302.570312 283.074219 C 298.238281 283.074219 294.234375 284.523438 291.019531 286.945312 C 281.90625 280.570312 272.8125 274.199219 263.699219 267.828125 C 263.492188 265.214844 263.296875 262.601562 263.109375 259.988281 L 263.109375 259.972656 C 263.109375 259.875 263.109375 259.777344 263.089844 259.695312 C 263.089844 259.617188 263.089844 259.535156 263.070312 259.472656 C 262.84375 255.953125 262.570312 251.9375 262.34375 247.757812 C 294.539062 242.804688 323.425781 219.011719 334.359375 188.375 C 338.253906 177.550781 339.980469 166.164062 341.679688 155.144531 C 342.242188 151.421875 342.859375 147.605469 343.519531 143.832031 C 349.207031 144.980469 354.910156 143.789062 358.753906 140.449219 C 360.949219 138.558594 362.4375 136.171875 363.746094 134.078125 C 365.214844 131.6875 366.507812 129.640625 368.25 128.941406 C 370.980469 127.863281 374.34375 129.992188 379.15625 133.367188 C 384.566406 137.160156 391.304688 141.847656 398.316406 137.667969 C 402.902344 134.929688 404.292969 129.816406 405.390625 125.714844 C 406.425781 121.910156 407.167969 119.539062 408.863281 118.683594 C 411.027344 117.574219 414.5 119.332031 419.167969 123.914062 C 426.550781 131.121094 433.949219 133.023438 439.441406 129.105469 C 440.832031 128.136719 441.785156 126.964844 442.640625 125.910156 C 443.207031 125.207031 443.757812 124.542969 444.242188 124.203125 C 445.628906 123.234375 448.328125 123.65625 452.238281 125.464844 C 460.539062 129.28125 468.488281 133.863281 476 139.105469 C 476.308594 139.445312 476.664062 139.722656 477.113281 139.902344 C 478.683594 141.011719 480.214844 142.144531 481.734375 143.316406 C 482.898438 144.222656 484.0625 145.144531 485.191406 146.074219 C 485.355469 146.253906 485.515625 146.417969 485.691406 146.582031 C 510.667969 167.402344 523.945312 201.667969 519.519531 233.871094 C 519.261719 235.804688 518.9375 237.757812 518.613281 239.726562 C 517.046875 249.386719 515.417969 259.375 519.550781 268.796875 C 521.621094 273.472656 525.042969 277.410156 529.292969 280.25 Z M 493.898438 587.246094 C 482.300781 571.757812 483.804688 551.207031 486.339844 531.492188 C 488.34375 516.023438 490.328125 500.566406 492.332031 485.097656 C 477.664062 496.875 458.699219 505.085938 435.953125 509.503906 C 426.925781 511.277344 417.054688 512.472656 405.761719 513.214844 C 405.714844 513.230469 405.679688 513.230469 405.632812 513.230469 L 405.117188 513.230469 C 405.066406 513.230469 405.035156 513.230469 404.988281 513.214844 C 393.695312 512.472656 383.824219 511.277344 374.792969 509.503906 C 352.082031 505.101562 333.117188 496.890625 318.417969 485.097656 L 324.410156 531.492188 C 326.945312 551.207031 328.449219 571.757812 316.847656 587.246094 C 309.335938 597.28125 297.882812 602.828125 286.625 607.347656 C 284.652344 608.136719 282.679688 608.894531 280.695312 609.652344 C 299.675781 624.996094 318.417969 640.644531 337.21875 656.226562 C 360.011719 675.132812 383.824219 693.414062 405.699219 713.449219 C 427.699219 693.574219 451.269531 675.183594 474.046875 656.210938 C 492.71875 640.675781 511.363281 625.042969 530.214844 609.71875 C 528.179688 608.945312 526.144531 608.152344 524.125 607.347656 C 512.863281 602.828125 501.410156 597.28125 493.898438 587.246094 Z M 479.039062 660.726562 C 456.324219 680.457031 434 701.074219 410.445312 719.820312 C 409.527344 720.578125 408.589844 721.304688 407.652344 722.046875 C 406.859375 722.773438 405.921875 723.144531 404.988281 723.222656 C 404.128906 723.160156 403.304688 722.835938 402.660156 722.222656 C 401.917969 721.644531 401.175781 721.078125 400.445312 720.480469 C 376.507812 701.769531 354.085938 680.667969 331.210938 660.710938 C 312.503906 644.417969 293.75 628.207031 275.265625 611.652344 C 269.519531 613.703125 263.71875 615.640625 257.953125 617.492188 C 284.398438 636.335938 308.804688 658.808594 333.683594 679.488281 C 347.71875 691.152344 361.710938 702.851562 375.683594 714.59375 C 382.660156 720.464844 389.640625 726.339844 396.636719 732.210938 C 399.476562 734.582031 402.707031 736.886719 405.761719 739.371094 C 409.105469 736.679688 412.609375 734.164062 415.632812 731.613281 C 422.222656 726.082031 428.796875 720.53125 435.390625 714.996094 C 448.972656 703.558594 462.574219 692.136719 476.226562 680.765625 C 501.492188 659.695312 526.238281 636.902344 552.976562 617.542969 C 547.078125 615.65625 541.167969 613.6875 535.320312 611.589844 C 516.707031 628.15625 497.839844 644.402344 479.039062 660.726562 Z M 467.082031 411.664062 C 468.730469 410.824219 470.121094 408.773438 468.40625 407.160156 C 466.679688 405.53125 464.464844 405.097656 462.332031 404.210938 C 460.234375 403.339844 458.488281 402.128906 456.859375 400.5625 C 456.664062 400.386719 456.46875 400.191406 456.292969 400 C 455.046875 398.691406 454.046875 397.242188 453.238281 395.628906 L 452.996094 395.144531 C 452.109375 393.273438 451.753906 391.140625 450.394531 389.546875 C 449.652344 388.675781 447.746094 388.640625 447.019531 389.578125 C 444.226562 393.160156 445.453125 398.351562 447.730469 402.402344 C 439.6875 413.953125 429.121094 423.777344 414.984375 427.085938 C 397.441406 431.199219 378.6875 424.972656 365.828125 412.726562 C 364.570312 411.535156 361.53125 412.695312 362.871094 414.453125 C 375.164062 430.683594 395.683594 438.765625 415.808594 434.859375 C 430.867188 431.941406 445.777344 422.34375 452.964844 408.613281 C 456.9375 411.855469 462.414062 414.050781 467.082031 411.664062 Z M 544.960938 285.058594 C 545.15625 285.058594 545.351562 285.058594 545.558594 285.039062 C 543.296875 309.238281 540.214844 333.519531 536.367188 357.3125 C 536.367188 357.363281 536.351562 357.394531 536.351562 357.441406 C 534.964844 366.152344 533.429688 374.960938 531.8125 383.609375 C 530.199219 392.253906 528.742188 399.273438 527.210938 405.675781 C 519.921875 435.957031 509.632812 457.027344 494.804688 472.03125 C 493.898438 472.980469 492.867188 473.980469 491.636719 475.09375 C 490.457031 476.191406 489.375 477.128906 488.308594 477.980469 C 474.515625 489.386719 456.371094 497.324219 434.402344 501.601562 C 425.746094 503.277344 416.246094 504.457031 405.375 505.164062 C 394.503906 504.457031 385.003906 503.277344 376.34375 501.601562 C 354.050781 497.261719 335.699219 489.144531 321.808594 477.464844 C 320.886719 476.691406 320 475.917969 319.109375 475.109375 C 317.996094 474.09375 317.042969 473.160156 316.171875 472.269531 C 316.089844 472.175781 315.992188 472.078125 315.894531 471.980469 C 301.113281 457.027344 290.820312 435.957031 283.539062 405.675781 C 282.007812 399.257812 280.535156 392.238281 278.933594 383.609375 C 277.207031 374.414062 275.589844 365.007812 274.085938 355.683594 C 274.085938 355.601562 274.074219 355.523438 274.054688 355.441406 C 270.113281 330.664062 266.996094 305.496094 264.753906 280.347656 C 271.519531 285.074219 278.269531 289.800781 285.023438 294.527344 C 283.996094 296.867188 283.40625 299.480469 283.40625 302.207031 L 283.40625 318.160156 C 283.40625 338.792969 300.226562 355.570312 320.886719 355.570312 L 347.1875 355.570312 C 365.457031 355.570312 380.335938 340.730469 380.335938 322.46875 L 380.335938 308.289062 C 384.195312 305.109375 388.671875 302.6875 393.453125 301.253906 C 386.601562 319.449219 380.902344 339.117188 380.902344 358.121094 C 380.902344 379.671875 399.898438 389.109375 419.089844 390.835938 C 423.820312 391.253906 428.152344 385.253906 422.09375 383.558594 C 414.355469 381.382812 405.714844 380.109375 399.027344 375.398438 C 390.542969 369.429688 389.398438 360.121094 390.15625 350.410156 C 391.496094 333.484375 394.730469 316.5 399.089844 300.027344 L 399.105469 300.027344 C 400.769531 299.800781 402.464844 299.6875 404.164062 299.703125 C 414.160156 299.800781 423.644531 304.253906 430.414062 311.367188 L 430.414062 318.160156 C 430.414062 338.792969 447.230469 355.570312 467.890625 355.570312 L 494.191406 355.570312 C 512.460938 355.570312 527.339844 340.730469 527.339844 322.46875 L 527.339844 302.207031 C 527.339844 299.480469 526.757812 296.867188 525.722656 294.527344 C 530.457031 291.21875 535.1875 287.894531 539.9375 284.589844 L 539.953125 284.589844 C 541.585938 284.894531 543.265625 285.058594 544.960938 285.058594 Z M 559.066406 365.492188 C 553.765625 365.492188 548.53125 364.78125 543.574219 363.378906 C 542.378906 370.621094 541.085938 377.914062 539.761719 385.09375 C 538.113281 393.867188 536.625 401.015625 535.058594 407.550781 C 530.328125 427.246094 521.714844 455.65625 501.554688 476.660156 L 501.507812 477.0625 C 503.1875 476.757812 504.851562 476.320312 506.46875 475.738281 C 516.546875 472.0625 524.65625 463.800781 530.601562 457.011719 C 541.28125 444.78125 550.359375 431.117188 557.578125 416.390625 C 565.882812 399.578125 571.617188 381.800781 574.703125 363.460938 C 569.53125 364.796875 564.265625 365.492188 559.066406 365.492188 Z M 571.179688 147.175781 C 563.75 134.484375 553.25 125.71875 541.652344 122.527344 C 531.441406 119.71875 519.988281 121.929688 512.445312 128.15625 C 512.429688 128.175781 512.429688 128.175781 512.410156 128.1875 C 512.394531 128.207031 512.394531 128.207031 512.378906 128.21875 C 512.203125 128.363281 512.007812 128.496094 511.8125 128.609375 C 511.621094 128.722656 511.410156 128.816406 511.183594 128.878906 L 511.152344 128.898438 C 510.941406 128.980469 510.730469 129.027344 510.503906 129.054688 C 510.28125 129.109375 510.054688 129.125 509.828125 129.125 L 509.730469 129.125 C 509.472656 129.125 509.214844 129.09375 508.972656 129.027344 C 508.113281 128.851562 507.324219 128.382812 506.726562 127.671875 C 506.710938 127.65625 506.710938 127.65625 506.691406 127.640625 C 506.5625 127.480469 506.449219 127.316406 506.355469 127.140625 C 506.320312 127.109375 506.304688 127.058594 506.273438 127.007812 C 506.175781 126.851562 506.113281 126.6875 506.046875 126.511719 C 506.015625 126.429688 505.984375 126.367188 505.964844 126.285156 C 505.917969 126.121094 505.871094 125.945312 505.851562 125.765625 C 505.804688 125.558594 505.789062 125.332031 505.789062 125.105469 L 505.789062 125.042969 C 505.804688 123.832031 505.789062 122.601562 505.757812 121.394531 C 501.3125 122.75 497.273438 125.425781 494.15625 128.960938 C 508.4375 128.433594 522.945312 135.65625 533.21875 145.238281 C 548.226562 159.242188 556.320312 178.746094 562.523438 197.878906 C 563.570312 201.089844 556.996094 202.863281 555.785156 199.914062 C 549.144531 183.746094 542.136719 167.195312 530.019531 154.277344 C 519.148438 142.695312 505.078125 136.5625 489.699219 135.996094 C 489.34375 136.832031 489.019531 137.710938 488.761719 138.578125 C 492.558594 141.628906 496.226562 144.804688 499.683594 148.125 C 500.199219 148.613281 500.539062 149.222656 500.730469 149.871094 C 521.34375 172.550781 531.699219 204.605469 527.53125 234.96875 C 527.257812 236.96875 526.917969 238.984375 526.59375 241.015625 C 525.140625 249.921875 523.769531 258.328125 526.949219 265.570312 C 528.792969 269.75 532.378906 273.136719 536.644531 275.105469 C 541.472656 271.734375 546.320312 268.34375 551.148438 264.972656 C 555.511719 258.648438 559.9375 253.730469 564.816406 249.761719 C 572.035156 243.90625 580.839844 240.210938 589.484375 239.5 C 589.546875 238.9375 589.613281 238.324219 589.675781 237.695312 C 591.390625 219.738281 588.125 201.476562 584.703125 185.972656 C 581.792969 172.828125 578.160156 159.015625 571.179688 147.175781 Z M 600.226562 274.71875 C 602.277344 275.007812 604.296875 272.507812 602.195312 271.105469 C 593.472656 265.214844 583.378906 272.589844 577.464844 279.136719 C 568.917969 288.589844 564.105469 300.722656 562.636719 313.257812 C 562.183594 317.015625 567.433594 317.242188 569.597656 315.644531 C 572.601562 313.449219 581.179688 306.515625 582.859375 316.839844 C 583.246094 319.195312 581.390625 322.90625 580.40625 324.9375 C 577.449219 331.019531 572.277344 335.132812 567.5625 339.777344 C 565.398438 341.910156 568.855469 343.503906 570.679688 342.988281 C 581.730469 339.84375 592.457031 326.292969 591.324219 314.5 C 590.257812 303.222656 580.5 303.320312 572.246094 306.449219 C 575.558594 292.109375 584.863281 272.507812 600.226562 274.71875 Z M 605.25 250.695312 C 619.402344 259.167969 619.835938 279.671875 619.367188 288.074219 C 617.980469 313.160156 607.027344 335.421875 590.082031 347.601562 C 586.511719 350.167969 582.535156 352.28125 578.238281 353.894531 C 567.269531 358.039062 555.285156 358.558594 544.867188 355.363281 C 548.742188 330.824219 551.84375 305.789062 554.074219 280.878906 L 554.074219 280.765625 C 554.265625 278.671875 554.445312 276.554688 554.605469 274.460938 C 554.65625 274.378906 554.703125 274.296875 554.75 274.234375 C 557.335938 270.023438 559.890625 266.441406 562.523438 263.34375 C 564.914062 260.503906 567.367188 258.101562 569.921875 256.019531 C 576.542969 250.632812 585.089844 247.4375 592.8125 247.4375 L 593.039062 247.4375 C 597.609375 247.46875 601.726562 248.566406 605.25 250.695312 "/>
</g>
</svg>
