<?xml version="1.0" encoding="UTF-8"?>
<svg xmlns="http://www.w3.org/2000/svg" xmlns:xlink="http://www.w3.org/1999/xlink" width="810pt" height="809.999993pt" viewBox="0 0 810 809.999993" version="1.2">
<defs>
<clipPath id="clip1">
  <path d="M 150 552 L 499 552 L 499 810 L 150 810 Z M 150 552 "/>
</clipPath>
<clipPath id="clip2">
  <path d="M 177.589844 810.105469 L 466.402344 810.105469 C 470.058594 801.714844 474.394531 794.070312 479.515625 784.417969 C 501.902344 742.171875 506.492188 703.734375 479.515625 673.839844 C 454.851562 646.503906 435.449219 587.222656 432.832031 561.546875 C 426.453125 559.707031 408.347656 548.890625 407.023438 554.261719 C 399.484375 564.992188 446.414062 701.179688 414.503906 701.179688 C 398.550781 701.179688 290.132812 702.425781 241.628906 702.425781 C 193.121094 702.425781 252.09375 563.367188 249.675781 559.574219 C 240.710938 557.949219 225.539062 559.980469 219.003906 563.265625 C 196.917969 610.378906 190.445312 639.839844 169.804688 666.660156 C 149.230469 693.402344 140.230469 754.730469 165.113281 790.757812 C 169.804688 797.574219 173.953125 803.582031 177.589844 810.105469 Z M 177.589844 810.105469 "/>
</clipPath>
<clipPath id="clip3">
  <path d="M 177.589844 810.105469 L 466.402344 810.105469 C 470.058594 801.714844 474.394531 794.070312 479.515625 784.417969 C 501.902344 742.171875 506.492188 703.734375 479.515625 673.839844 C 454.851562 646.503906 435.449219 587.222656 432.832031 561.546875 C 426.453125 559.707031 408.347656 548.890625 407.023438 554.261719 C 399.484375 564.992188 446.414062 701.179688 414.503906 701.179688 C 398.550781 701.179688 290.132812 702.425781 241.628906 702.425781 C 193.121094 702.425781 252.09375 563.367188 249.675781 559.574219 C 240.710938 557.949219 225.539062 559.980469 219.003906 563.265625 C 196.917969 610.378906 190.445312 639.839844 169.804688 666.660156 C 149.230469 693.402344 140.230469 754.730469 165.113281 790.757812 C 169.804688 797.574219 173.953125 803.582031 177.589844 810.105469 "/>
</clipPath>
<linearGradient id="linear0" gradientUnits="userSpaceOnUse" x1="-0.0109623" y1="0" x2="1.11915" y2="0" gradientTransform="matrix(0.00000000000001402,-228.724848,228.963928,0.000000000000014005,324.048461,807.492625)">
<stop offset="0" style="stop-color:rgb(15.299988%,24.699402%,53.69873%);stop-opacity:1;"/>
<stop offset="0.015625" style="stop-color:rgb(15.299988%,24.699402%,53.69873%);stop-opacity:1;"/>
<stop offset="0.0195312" style="stop-color:rgb(15.499878%,24.699402%,53.69873%);stop-opacity:1;"/>
<stop offset="0.0234375" style="stop-color:rgb(15.699768%,24.699402%,53.69873%);stop-opacity:1;"/>
<stop offset="0.03125" style="stop-color:rgb(15.699768%,24.699402%,53.69873%);stop-opacity:1;"/>
<stop offset="0.046875" style="stop-color:rgb(15.699768%,24.699402%,53.890991%);stop-opacity:1;"/>
<stop offset="0.0625" style="stop-color:rgb(15.699768%,24.699402%,54.090881%);stop-opacity:1;"/>
<stop offset="0.0703125" style="stop-color:rgb(15.699768%,24.888611%,54.098511%);stop-opacity:1;"/>
<stop offset="0.078125" style="stop-color:rgb(15.699768%,25.088501%,54.281616%);stop-opacity:1;"/>
<stop offset="0.09375" style="stop-color:rgb(15.699768%,25.099182%,54.483032%);stop-opacity:1;"/>
<stop offset="0.109375" style="stop-color:rgb(15.699768%,25.099182%,54.689026%);stop-opacity:1;"/>
<stop offset="0.125" style="stop-color:rgb(15.882874%,25.282288%,54.888916%);stop-opacity:1;"/>
<stop offset="0.132812" style="stop-color:rgb(16.082764%,25.482178%,55.06134%);stop-opacity:1;"/>
<stop offset="0.140625" style="stop-color:rgb(16.099548%,25.498962%,55.26123%);stop-opacity:1;"/>
<stop offset="0.15625" style="stop-color:rgb(16.099548%,25.498962%,55.465698%);stop-opacity:1;"/>
<stop offset="0.171875" style="stop-color:rgb(16.099548%,25.498962%,55.665588%);stop-opacity:1;"/>
<stop offset="0.179688" style="stop-color:rgb(16.099548%,25.645447%,55.845642%);stop-opacity:1;"/>
<stop offset="0.1875" style="stop-color:rgb(16.099548%,25.845337%,56.045532%);stop-opacity:1;"/>
<stop offset="0.203125" style="stop-color:rgb(16.099548%,25.898743%,56.098938%);stop-opacity:1;"/>
<stop offset="0.210938" style="stop-color:rgb(16.099548%,25.898743%,56.242371%);stop-opacity:1;"/>
<stop offset="0.21875" style="stop-color:rgb(16.236877%,25.898743%,56.442261%);stop-opacity:1;"/>
<stop offset="0.234375" style="stop-color:rgb(16.436768%,25.898743%,56.640625%);stop-opacity:1;"/>
<stop offset="0.242188" style="stop-color:rgb(16.499329%,26.040649%,56.840515%);stop-opacity:1;"/>
<stop offset="0.25" style="stop-color:rgb(16.499329%,26.24054%,56.898499%);stop-opacity:1;"/>
<stop offset="0.265625" style="stop-color:rgb(16.499329%,26.298523%,57.060242%);stop-opacity:1;"/>
<stop offset="0.28125" style="stop-color:rgb(16.499329%,26.298523%,57.260132%);stop-opacity:1;"/>
<stop offset="0.296875" style="stop-color:rgb(16.499329%,26.298523%,57.389832%);stop-opacity:1;"/>
<stop offset="0.304688" style="stop-color:rgb(16.612244%,26.412964%,57.539368%);stop-opacity:1;"/>
<stop offset="0.3125" style="stop-color:rgb(16.812134%,26.612854%,57.598877%);stop-opacity:1;"/>
<stop offset="0.320312" style="stop-color:rgb(16.899109%,26.699829%,57.713318%);stop-opacity:1;"/>
<stop offset="0.328125" style="stop-color:rgb(16.899109%,26.699829%,57.913208%);stop-opacity:1;"/>
<stop offset="0.34375" style="stop-color:rgb(16.899109%,26.699829%,57.998657%);stop-opacity:1;"/>
<stop offset="0.351562" style="stop-color:rgb(16.899109%,26.699829%,58.096313%);stop-opacity:1;"/>
<stop offset="0.359375" style="stop-color:rgb(16.899109%,26.699829%,58.297729%);stop-opacity:1;"/>
<stop offset="0.367188" style="stop-color:rgb(16.899109%,26.809692%,58.399963%);stop-opacity:1;"/>
<stop offset="0.375" style="stop-color:rgb(16.899109%,27.009583%,58.502197%);stop-opacity:1;"/>
<stop offset="0.390625" style="stop-color:rgb(16.899109%,27.099609%,58.702087%);stop-opacity:1;"/>
<stop offset="0.40625" style="stop-color:rgb(17.045593%,27.099609%,58.946228%);stop-opacity:1;"/>
<stop offset="0.421875" style="stop-color:rgb(17.245483%,27.099609%,59.146118%);stop-opacity:1;"/>
<stop offset="0.429688" style="stop-color:rgb(17.298889%,27.180481%,59.199524%);stop-opacity:1;"/>
<stop offset="0.4375" style="stop-color:rgb(17.298889%,27.380371%,59.272766%);stop-opacity:1;"/>
<stop offset="0.453125" style="stop-color:rgb(17.298889%,27.49939%,59.472656%);stop-opacity:1;"/>
<stop offset="0.460938" style="stop-color:rgb(17.298889%,27.49939%,59.67865%);stop-opacity:1;"/>
<stop offset="0.46875" style="stop-color:rgb(17.298889%,27.49939%,59.87854%);stop-opacity:1;"/>
<stop offset="0.484375" style="stop-color:rgb(17.298889%,27.603149%,60.136414%);stop-opacity:1;"/>
<stop offset="0.5" style="stop-color:rgb(17.399597%,27.752686%,60.336304%);stop-opacity:1;"/>
<stop offset="0.515625" style="stop-color:rgb(17.550659%,27.799988%,60.455322%);stop-opacity:1;"/>
<stop offset="0.53125" style="stop-color:rgb(17.599487%,27.799988%,60.655212%);stop-opacity:1;"/>
<stop offset="0.539063" style="stop-color:rgb(17.599487%,27.861023%,60.861206%);stop-opacity:1;"/>
<stop offset="0.546875" style="stop-color:rgb(17.599487%,28.060913%,61.061096%);stop-opacity:1;"/>
<stop offset="0.5625" style="stop-color:rgb(17.599487%,28.199768%,61.199951%);stop-opacity:1;"/>
<stop offset="0.578125" style="stop-color:rgb(17.599487%,28.199768%,61.320496%);stop-opacity:1;"/>
<stop offset="0.59375" style="stop-color:rgb(17.63916%,28.239441%,61.520386%);stop-opacity:1;"/>
<stop offset="0.601563" style="stop-color:rgb(17.83905%,28.439331%,61.631775%);stop-opacity:1;"/>
<stop offset="0.609375" style="stop-color:rgb(17.999268%,28.599548%,61.831665%);stop-opacity:1;"/>
<stop offset="0.625" style="stop-color:rgb(17.999268%,28.599548%,62.11853%);stop-opacity:1;"/>
<stop offset="0.65625" style="stop-color:rgb(17.999268%,28.634644%,62.345886%);stop-opacity:1;"/>
<stop offset="0.671875" style="stop-color:rgb(17.999268%,28.834534%,62.576294%);stop-opacity:1;"/>
<stop offset="0.679688" style="stop-color:rgb(18.014526%,28.999329%,62.715149%);stop-opacity:1;"/>
<stop offset="0.6875" style="stop-color:rgb(18.214417%,28.999329%,62.915039%);stop-opacity:1;"/>
<stop offset="0.71875" style="stop-color:rgb(18.399048%,28.999329%,63.20343%);stop-opacity:1;"/>
<stop offset="0.734375" style="stop-color:rgb(18.399048%,29.193115%,63.40332%);stop-opacity:1;"/>
<stop offset="0.738281" style="stop-color:rgb(18.399048%,29.393005%,63.699341%);stop-opacity:1;"/>
<stop offset="0.742187" style="stop-color:rgb(18.399048%,29.399109%,63.899231%);stop-opacity:1;"/>
<stop offset="0.75" style="stop-color:rgb(18.399048%,29.399109%,63.899231%);stop-opacity:1;"/>
<stop offset="0.765625" style="stop-color:rgb(18.399048%,29.399109%,64.091492%);stop-opacity:1;"/>
<stop offset="0.78125" style="stop-color:rgb(18.493652%,29.493713%,64.291382%);stop-opacity:1;"/>
<stop offset="0.796875" style="stop-color:rgb(18.693542%,29.693604%,64.393616%);stop-opacity:1;"/>
<stop offset="0.8125" style="stop-color:rgb(18.798828%,29.798889%,64.593506%);stop-opacity:1;"/>
<stop offset="0.828125" style="stop-color:rgb(18.798828%,29.798889%,64.884949%);stop-opacity:1;"/>
<stop offset="0.835937" style="stop-color:rgb(18.798828%,29.980469%,65.084839%);stop-opacity:1;"/>
<stop offset="0.84375" style="stop-color:rgb(18.798828%,30.180359%,65.098572%);stop-opacity:1;"/>
<stop offset="0.851563" style="stop-color:rgb(18.798828%,30.198669%,65.266418%);stop-opacity:1;"/>
<stop offset="0.859375" style="stop-color:rgb(18.798828%,30.198669%,65.467834%);stop-opacity:1;"/>
<stop offset="0.875" style="stop-color:rgb(18.798828%,30.198669%,65.499878%);stop-opacity:1;"/>
<stop offset="0.882812" style="stop-color:rgb(18.965149%,30.198669%,65.666199%);stop-opacity:1;"/>
<stop offset="0.890625" style="stop-color:rgb(19.165039%,30.198669%,65.866089%);stop-opacity:1;"/>
<stop offset="0.90625" style="stop-color:rgb(19.198608%,30.198669%,65.899658%);stop-opacity:1;"/>
<stop offset="0.9375" style="stop-color:rgb(19.198608%,30.198669%,65.899658%);stop-opacity:1;"/>
<stop offset="1" style="stop-color:rgb(19.198608%,30.198669%,65.899658%);stop-opacity:1;"/>
</linearGradient>
</defs>
<g id="surface1">
<path style=" stroke:none;fill-rule:nonzero;fill:rgb(67.059326%,15.689087%,12.939453%);fill-opacity:1;" d="M 161.585938 528.453125 C 149.355469 562.648438 138.320312 600.105469 154.75 635.726562 C 169.089844 666.839844 196.917969 679.898438 230.421875 680.21875 C 251.714844 680.425781 274.113281 675.472656 295.214844 679.191406 C 312.53125 682.230469 328.257812 689.828125 346.226562 689.722656 C 397.984375 689.429688 468.226562 680.324219 504.785156 639.378906 C 554.320312 583.929688 521.777344 502.304688 492.191406 445.828125 C 480.695312 423.886719 469.484375 399.152344 470.078125 373.808594 C 470.625 350.726562 481.679688 332.21875 487.582031 310.542969 C 492.125 293.898438 513.816406 231.078125 490.085938 152.066406 C 482.292969 126.15625 462.378906 105.394531 439.472656 90.429688 C 413.269531 73.3125 385.550781 71.726562 353.953125 71.320312 C 331.953125 71.046875 257.675781 74.960938 236.847656 101.929688 C 228.328125 97.042969 200.414062 96.296875 187.535156 102.007812 C 161.097656 113.726562 148.976562 140 141.011719 166.15625 C 130.613281 200.277344 124.027344 236.789062 131.679688 272.148438 C 141.011719 315.273438 194.015625 437.796875 161.585938 528.453125 "/>
<path style=" stroke:none;fill-rule:nonzero;fill:rgb(83.918762%,69.018555%,57.649231%);fill-opacity:1;" d="M 498.066406 689.722656 C 498.066406 633.160156 437.648438 538.785156 334.039062 538.785156 C 230.433594 538.785156 146.453125 632.273438 146.453125 688.84375 C 146.453125 745.417969 230.433594 791.269531 334.039062 791.269531 C 437.648438 791.269531 498.066406 746.292969 498.066406 689.722656 "/>
<path style=" stroke:none;fill-rule:nonzero;fill:rgb(83.918762%,69.018555%,57.649231%);fill-opacity:1;" d="M 364.203125 425.394531 L 301.933594 415.609375 C 301.933594 415.609375 307.800781 510.410156 277.578125 548.015625 C 239.199219 595.761719 410.933594 605.097656 388.507812 547.371094 C 366.101562 489.648438 364.203125 425.394531 364.203125 425.394531 "/>
<path style=" stroke:none;fill-rule:nonzero;fill:rgb(83.918762%,69.018555%,57.649231%);fill-opacity:1;" d="M 215.59375 810.105469 C 218.859375 795.761719 222.082031 781.652344 225.199219 767.980469 C 228.308594 754.136719 231.019531 740.707031 233.710938 728.015625 C 236.402344 715.324219 238.6875 703.28125 240.890625 692.183594 C 243.109375 681.097656 244.941406 670.886719 246.625 661.855469 C 248.238281 652.816406 249.636719 644.917969 250.800781 638.433594 C 252.953125 625.394531 254.191406 617.929688 254.191406 617.929688 C 258.222656 593.121094 242.488281 568.851562 217.613281 562.894531 C 191.550781 556.65625 165.355469 572.710938 159.113281 598.746094 L 159.007812 599.207031 C 159.007812 599.207031 152.027344 628.300781 142.742188 672.253906 C 140.445312 683.230469 137.945312 695.121094 135.308594 707.699219 C 132.71875 720.269531 130 733.515625 127.175781 747.230469 C 124.378906 760.875 121.488281 774.972656 118.550781 789.304688 C 117.132812 796.183594 115.699219 803.128906 114.261719 810.105469 L 215.59375 810.105469 "/>
<path style=" stroke:none;fill-rule:nonzero;fill:rgb(83.918762%,69.018555%,57.649231%);fill-opacity:1;" d="M 392.304688 637.011719 C 394.394531 649.117188 397.5 666.40625 401.480469 687.109375 C 403.519531 697.449219 405.738281 708.660156 408.089844 720.515625 C 410.574219 732.355469 413.203125 744.839844 415.914062 757.757812 C 418.820312 770.6875 421.816406 784.039062 424.867188 797.609375 C 425.8125 801.753906 426.785156 805.921875 427.777344 810.105469 L 588.933594 810.105469 C 591.484375 803.753906 593.855469 797.621094 595.960938 791.757812 C 603.46875 771.253906 608.902344 754.109375 612.472656 741.980469 C 614.296875 735.941406 615.589844 731.140625 616.488281 727.835938 C 617.402344 724.457031 617.894531 722.664062 617.894531 722.664062 C 621.824219 708.199219 615.597656 692.375 601.902344 684.757812 C 585.777344 675.785156 565.4375 681.578125 556.457031 697.6875 L 556.050781 698.402344 C 556.050781 698.402344 552.742188 704.339844 546.941406 714.738281 C 541.078125 725.222656 532.8125 740.300781 522.695312 757.921875 C 521.636719 759.714844 520.570312 761.554688 519.492188 763.414062 C 517.679688 754.496094 515.894531 745.699219 514.144531 737.113281 C 508.808594 711.539062 503.820312 687.683594 499.550781 667.226562 C 495.175781 646.777344 491.398438 629.742188 488.6875 617.835938 C 485.929688 605.953125 484.34375 599.167969 484.34375 599.167969 L 484.285156 598.886719 C 478.496094 574.285156 454.511719 558.027344 429.175781 562.199219 C 402.726562 566.546875 384.816406 591.488281 389.167969 617.902344 C 389.167969 617.902344 390.3125 624.847656 392.304688 637.011719 "/>
<g clip-path="url(#clip1)" clip-rule="nonzero">
<g clip-path="url(#clip2)" clip-rule="nonzero">
<g clip-path="url(#clip3)" clip-rule="nonzero">
<path style=" stroke:none;fill-rule:nonzero;fill:url(#linear0);" d="M 148.84375 810 L 499.492188 810 L 499.492188 551.515625 L 148.84375 551.515625 Z M 148.84375 810 "/>
</g>
</g>
</g>
<path style=" stroke:none;fill-rule:nonzero;fill:rgb(83.918762%,69.018555%,57.649231%);fill-opacity:1;" d="M 550.335938 639.105469 C 550.335938 639.105469 549.917969 596.59375 568.101562 574.238281 C 586.289062 551.875 584.957031 605.964844 584.957031 605.964844 C 584.957031 605.964844 632.894531 529.839844 648.285156 527.046875 C 663.671875 524.253906 683.433594 523.414062 689.035156 533.191406 C 694.628906 542.976562 696.320312 576.304688 690.71875 592.261719 C 685.132812 608.238281 674.253906 662.773438 656.125 683.570312 C 637.988281 704.378906 623.636719 748.777344 572.875 718.457031 C 550.929688 705.339844 550.335938 639.105469 550.335938 639.105469 "/>
<path style=" stroke:none;fill-rule:nonzero;fill:rgb(83.918762%,69.018555%,57.649231%);fill-opacity:1;" d="M 462.738281 230.898438 C 462.738281 230.898438 458.394531 166.636719 445.761719 138.242188 C 433.132812 109.859375 397.207031 85.804688 359.726562 85.804688 C 342.371094 85.804688 316.128906 85.804688 316.0625 85.804688 C 316.007812 85.804688 289.765625 85.804688 272.414062 85.804688 C 234.929688 85.804688 199.003906 109.859375 186.375 138.242188 C 173.746094 166.636719 169.398438 230.898438 169.398438 230.898438 C 169.398438 230.898438 128.355469 227.75 128.355469 257.710938 C 128.355469 287.671875 133.882812 352.347656 149.667969 358.652344 C 165.460938 364.957031 171.769531 365.75 171.769531 365.75 C 171.769531 365.75 234.96875 428.019531 265.839844 455.535156 C 321.449219 505.097656 364.664062 484.914062 390.785156 456.6875 C 416.90625 428.464844 460.367188 365.75 460.367188 365.75 C 460.367188 365.75 466.6875 364.957031 482.472656 358.652344 C 498.257812 352.347656 503.78125 287.671875 503.78125 257.710938 C 503.78125 227.75 462.738281 230.898438 462.738281 230.898438 "/>
<path style=" stroke:none;fill-rule:nonzero;fill:rgb(100%,100%,100%);fill-opacity:1;" d="M 443.375 273.949219 C 443.375 250.179688 424.082031 230.898438 400.289062 230.898438 C 376.484375 230.898438 357.195312 250.179688 357.195312 273.949219 C 357.195312 297.71875 376.484375 317 400.289062 317 C 424.082031 317 443.375 297.71875 443.375 273.949219 "/>
<path style=" stroke:none;fill-rule:nonzero;fill:rgb(13.729858%,12.159729%,12.548828%);fill-opacity:1;" d="M 443.082031 273.96875 C 440.679688 263.464844 436.230469 253.832031 427.957031 246.613281 C 419.824219 239.535156 409.234375 235.828125 398.472656 236.25 C 388.027344 236.675781 378.097656 241.175781 370.664062 248.488281 C 366.707031 252.378906 363.277344 257.164062 361.113281 262.277344 C 360.140625 264.671875 359.207031 267.078125 358.527344 269.570312 C 358.300781 270.390625 357.988281 274.28125 356.902344 273.949219 C 357.375 263.558594 360.332031 252.699219 367.847656 245.035156 C 375.300781 236.175781 386.734375 231.144531 398.164062 230.417969 C 421.402344 228.9375 442.84375 248.320312 443.550781 271.601562 C 443.570312 272.25 444.1875 274.234375 443.082031 273.96875 "/>
<path style=" stroke:none;fill-rule:nonzero;fill:rgb(7.449341%,2.349854%,2.749634%);fill-opacity:1;" d="M 428.695312 274.042969 C 428.695312 258.371094 415.980469 245.667969 400.289062 245.667969 C 384.597656 245.667969 371.882812 258.371094 371.882812 274.042969 C 371.882812 289.71875 384.597656 302.417969 400.289062 302.417969 C 415.980469 302.417969 428.695312 289.71875 428.695312 274.042969 "/>
<path style=" stroke:none;fill-rule:nonzero;fill:rgb(13.729858%,12.159729%,12.548828%);fill-opacity:1;" d="M 417.667969 274.042969 C 417.667969 264.457031 409.886719 256.671875 400.289062 256.671875 C 390.679688 256.671875 382.898438 264.457031 382.898438 274.042969 C 382.898438 283.632812 390.679688 291.40625 400.289062 291.40625 C 409.886719 291.40625 417.667969 283.632812 417.667969 274.042969 "/>
<path style=" stroke:none;fill-rule:nonzero;fill:rgb(100%,100%,100%);fill-opacity:1;" d="M 421.929688 262.023438 C 421.929688 255.378906 416.535156 250 409.894531 250 C 403.246094 250 397.859375 255.378906 397.859375 262.023438 C 397.859375 268.65625 403.246094 274.042969 409.894531 274.042969 C 416.535156 274.042969 421.929688 268.65625 421.929688 262.023438 "/>
<path style=" stroke:none;fill-rule:nonzero;fill:rgb(100%,100%,100%);fill-opacity:1;" d="M 424.488281 278.167969 C 424.488281 275.882812 422.636719 274.042969 420.363281 274.042969 C 418.085938 274.042969 416.234375 275.882812 416.234375 278.167969 C 416.234375 280.441406 418.085938 282.300781 420.363281 282.300781 C 422.636719 282.300781 424.488281 280.441406 424.488281 278.167969 "/>
<path style=" stroke:none;fill-rule:nonzero;fill:rgb(100%,100%,100%);fill-opacity:1;" d="M 280.519531 273.949219 C 280.519531 250.179688 261.226562 230.898438 237.433594 230.898438 C 213.628906 230.898438 194.339844 250.179688 194.339844 273.949219 C 194.339844 297.71875 213.628906 317 237.433594 317 C 261.226562 317 280.519531 297.71875 280.519531 273.949219 "/>
<path style=" stroke:none;fill-rule:nonzero;fill:rgb(13.729858%,12.159729%,12.548828%);fill-opacity:1;" d="M 280.226562 273.96875 C 277.824219 263.464844 273.375 253.832031 265.089844 246.613281 C 256.96875 239.535156 246.378906 235.828125 235.617188 236.25 C 225.171875 236.675781 215.242188 241.175781 207.808594 248.488281 C 203.851562 252.378906 200.421875 257.164062 198.257812 262.277344 C 197.285156 264.671875 196.351562 267.078125 195.671875 269.570312 C 195.445312 270.390625 195.132812 274.28125 194.046875 273.949219 C 194.519531 263.558594 197.476562 252.699219 204.992188 245.035156 C 212.445312 236.175781 223.878906 231.144531 235.296875 230.417969 C 258.546875 228.9375 279.988281 248.320312 280.695312 271.601562 C 280.714844 272.25 281.332031 274.234375 280.226562 273.96875 "/>
<path style=" stroke:none;fill-rule:nonzero;fill:rgb(7.449341%,2.349854%,2.749634%);fill-opacity:1;" d="M 265.839844 274.042969 C 265.839844 258.371094 253.113281 245.667969 237.433594 245.667969 C 221.742188 245.667969 209.019531 258.371094 209.019531 274.042969 C 209.019531 289.71875 221.742188 302.417969 237.433594 302.417969 C 253.113281 302.417969 265.839844 289.71875 265.839844 274.042969 "/>
<path style=" stroke:none;fill-rule:nonzero;fill:rgb(13.729858%,12.159729%,12.548828%);fill-opacity:1;" d="M 254.8125 274.042969 C 254.8125 264.457031 247.03125 256.671875 237.433594 256.671875 C 227.824219 256.671875 220.042969 264.457031 220.042969 274.042969 C 220.042969 283.632812 227.824219 291.40625 237.433594 291.40625 C 247.03125 291.40625 254.8125 283.632812 254.8125 274.042969 "/>
<path style=" stroke:none;fill-rule:nonzero;fill:rgb(100%,100%,100%);fill-opacity:1;" d="M 259.066406 262.023438 C 259.066406 255.378906 253.679688 250 247.039062 250 C 240.390625 250 235.003906 255.378906 235.003906 262.023438 C 235.003906 268.65625 240.390625 274.042969 247.039062 274.042969 C 253.679688 274.042969 259.066406 268.65625 259.066406 262.023438 "/>
<path style=" stroke:none;fill-rule:nonzero;fill:rgb(100%,100%,100%);fill-opacity:1;" d="M 261.632812 278.167969 C 261.632812 275.882812 259.78125 274.042969 257.507812 274.042969 C 255.21875 274.042969 253.378906 275.882812 253.378906 278.167969 C 253.378906 280.441406 255.21875 282.300781 257.507812 282.300781 C 259.78125 282.300781 261.632812 280.441406 261.632812 278.167969 "/>
<path style=" stroke:none;fill-rule:nonzero;fill:rgb(100%,100%,100%);fill-opacity:1;" d="M 261.632812 389.007812 C 261.632812 389.007812 341.304688 389.007812 397.859375 364.21875 C 353.867188 437.265625 323.480469 439.871094 261.632812 389.007812 "/>
<path style=" stroke:none;fill-rule:nonzero;fill:rgb(85.099792%,18.03894%,14.898682%);fill-opacity:1;" d="M 446.90625 219.265625 C 454.785156 225.359375 461.351562 232.664062 465.523438 241.949219 C 466.5625 244.253906 467.433594 246.792969 468.105469 249.460938 C 492.445312 179.300781 494.875 18.730469 388.246094 20.863281 C 387.335938 20.882812 386.457031 21.175781 385.628906 21.597656 C 368.191406 4.894531 333.832031 0.0273438 314.015625 1.300781 C 272.5625 4 230 20.644531 201.207031 50.890625 C 168.3125 85.410156 151.074219 134.96875 150.269531 182 C 149.808594 208.933594 152.433594 236.636719 155.324219 263.390625 C 157.761719 285.980469 162.042969 309.1875 171.601562 329.917969 C 171.96875 330.699219 172.5 331.230469 173.101562 331.558594 C 172.894531 328.105469 172.855469 324.820312 172.972656 321.847656 C 173.8125 299.371094 180.507812 276.328125 197.011719 260.285156 C 218.445312 239.449219 244.546875 225.296875 269.171875 208.753906 C 286.414062 197.175781 305.105469 188.011719 322.820312 177.308594 C 329.195312 169.902344 335.242188 162.175781 340.964844 154.238281 C 356.578125 174.046875 381.007812 183.480469 403.839844 192.652344 C 419.417969 198.902344 436.050781 206.960938 446.90625 219.265625 "/>
<path style=" stroke:none;fill-rule:nonzero;fill:rgb(88.238525%,18.429565%,15.689087%);fill-opacity:1;" d="M 378.542969 193.53125 C 360.347656 197.882812 360.453125 212.914062 360.453125 212.914062 C 360.453125 212.914062 408.394531 183.785156 452.0625 230.003906 C 434.558594 191.390625 407.589844 186.566406 378.542969 193.53125 "/>
<path style=" stroke:none;fill-rule:nonzero;fill:rgb(50.588989%,37.649536%,29.019165%);fill-opacity:1;" d="M 317.445312 301.589844 C 315.5625 308.203125 313.117188 314.554688 310.558594 320.859375 C 309.207031 323.980469 307.941406 327.125 306.496094 330.199219 C 305.085938 333.285156 303.660156 336.371094 302.140625 339.402344 L 301.402344 336.496094 C 302.328125 337.175781 303.425781 337.882812 304.472656 338.535156 C 305.53125 339.203125 306.609375 339.863281 307.714844 340.457031 C 308.800781 341.082031 309.941406 341.601562 311.058594 342.175781 C 312.183594 342.722656 313.335938 343.222656 314.503906 343.675781 C 315.074219 343.929688 315.675781 344.074219 316.261719 344.308594 C 316.859375 344.527344 317.445312 344.722656 318.046875 344.875 C 319.246094 345.253906 320.476562 345.449219 321.714844 345.703125 C 322.328125 345.816406 322.949219 345.835938 323.582031 345.914062 C 324.214844 345.996094 324.847656 345.996094 325.484375 345.980469 C 326.117188 345.949219 326.777344 346.007812 327.410156 345.882812 L 329.363281 345.628906 L 327.5625 346.507812 C 326.964844 346.835938 326.304688 346.941406 325.652344 347.140625 C 325 347.335938 324.339844 347.535156 323.660156 347.582031 C 322.988281 347.660156 322.300781 347.78125 321.617188 347.820312 C 320.257812 347.875 318.871094 347.855469 317.519531 347.6875 C 316.828125 347.640625 316.148438 347.535156 315.480469 347.414062 C 314.808594 347.289062 314.128906 347.1875 313.476562 346.996094 C 312.144531 346.667969 310.839844 346.289062 309.546875 345.835938 C 308.261719 345.402344 307.003906 344.875 305.777344 344.308594 C 304.539062 343.75 303.332031 343.136719 302.132812 342.496094 C 300.929688 341.816406 299.824219 341.136719 298.617188 340.296875 L 297.058594 339.222656 L 297.878906 337.390625 C 299.257812 334.285156 300.742188 331.238281 302.246094 328.191406 C 303.699219 325.125 305.34375 322.152344 306.890625 319.132812 C 310.152344 313.160156 313.515625 307.242188 317.445312 301.589844 "/>
<path style=" stroke:none;fill-rule:nonzero;fill:rgb(13.729858%,12.159729%,12.548828%);fill-opacity:1;" d="M 452.0625 248.78125 C 452.0625 248.78125 446.5 250.894531 436.089844 250 C 425.691406 249.101562 438.941406 257.585938 452.0625 248.78125 "/>
<path style=" stroke:none;fill-rule:nonzero;fill:rgb(13.729858%,12.159729%,12.548828%);fill-opacity:1;" d="M 452.761719 257.5 C 452.761719 257.5 448.539062 258.179688 441.304688 256.066406 C 434.070312 253.945312 442.304688 261.785156 452.761719 257.5 "/>
</g>
</svg>
