<?xml version="1.0" encoding="UTF-8"?>
<svg xmlns="http://www.w3.org/2000/svg" xmlns:xlink="http://www.w3.org/1999/xlink" width="810pt" height="809.999993pt" viewBox="0 0 810 809.999993" version="1.2">
<defs>
<clipPath id="clip1">
  <path d="M 92.015625 0 L 718.265625 0 L 718.265625 810 L 92.015625 810 Z M 92.015625 0 "/>
</clipPath>
</defs>
<g id="surface1">
<g clip-path="url(#clip1)" clip-rule="nonzero">
<path style=" stroke:none;fill-rule:nonzero;fill:rgb(5.879211%,5.488586%,4.708862%);fill-opacity:1;" d="M 718.460938 644.144531 C 718.445312 643.996094 718.398438 643.867188 718.347656 643.738281 C 718.316406 643.625 718.285156 643.511719 718.234375 643.414062 C 718.136719 643.203125 718.023438 642.992188 717.894531 642.78125 C 699.15625 608.300781 665.613281 581.757812 628.152344 571.75 C 622.121094 570.144531 615.929688 568.898438 609.949219 567.714844 C 597.417969 565.207031 585.566406 562.859375 574.835938 557.320312 C 563.375 551.421875 553.664062 541.882812 546.222656 529.480469 C 543.839844 525.511719 541.699219 521.234375 539.804688 516.699219 C 537.90625 512.148438 536.253906 507.339844 534.875 502.269531 C 536.773438 501.023438 538.621094 499.710938 540.4375 498.367188 C 543.566406 496.066406 546.597656 493.636719 549.496094 491.078125 C 554.796875 486.480469 559.726562 481.492188 564.265625 476.113281 C 567.523438 472.308594 570.570312 468.308594 573.441406 464.097656 C 584.5625 447.851562 593.007812 428.644531 598.925781 406.28125 C 603.367188 389.53125 606.382812 371.085938 608.003906 350.421875 C 608.292969 346.875 608.519531 343.261719 608.714844 339.570312 C 608.976562 334.921875 609.167969 330.144531 609.28125 325.269531 C 621.734375 321.65625 633.582031 313.574219 642.175781 302.789062 C 653.410156 288.636719 660.183594 269.816406 662.324219 246.835938 C 663.914062 229.992188 662.550781 215.882812 658.175781 203.722656 C 652.695312 188.480469 642.140625 176.449219 629.207031 170.714844 C 617.195312 165.386719 603.105469 166.003906 592.441406 171.980469 C 577.851562 122.710938 554.230469 80.882812 523.933594 50.738281 C 490.832031 17.828125 451.050781 0.4375 408.886719 0.4375 C 367.109375 0.4375 327.816406 17.847656 295.265625 50.808594 C 265.90625 80.519531 242.433594 122.242188 227.230469 171.636719 C 216.628906 165.984375 202.765625 165.5 191.046875 170.714844 C 178.128906 176.449219 167.554688 188.480469 162.078125 203.722656 C 157.703125 215.882812 156.339844 229.992188 157.929688 246.835938 C 160.070312 269.816406 166.84375 288.636719 178.089844 302.789062 C 186.214844 313.007812 197.011719 320.652344 208.699219 324.558594 C 209.023438 330.4375 209.492188 336.234375 210.109375 341.917969 C 210.335938 344.347656 210.625 346.746094 210.917969 349.125 C 213.398438 368.804688 217.503906 387.28125 223.15625 404.304688 C 230.941406 427.753906 241.558594 448.273438 254.933594 465.636719 C 257.382812 468.828125 259.925781 471.902344 262.550781 474.867188 C 268.082031 481.101562 273.996094 486.882812 280.320312 492.164062 C 281.601562 493.25 282.914062 494.300781 284.226562 495.339844 C 283.886719 497.558594 283.351562 499.777344 282.652344 501.996094 C 279.28125 512.683594 271.988281 523.113281 262.324219 530.597656 C 247.503906 542.09375 228.769531 548.054688 210.644531 553.804688 C 207.777344 554.710938 204.921875 555.617188 202.082031 556.558594 C 181.0625 563.390625 157.617188 572.949219 143.175781 591.863281 C 141.324219 594.277344 139.640625 596.820312 138.019531 599.28125 C 134.371094 604.773438 130.941406 609.96875 126.058594 613.386719 C 119.28125 618.117188 110.609375 618.894531 101.449219 619.71875 C 99.507812 619.898438 97.558594 620.078125 95.632812 620.285156 C 95.613281 620.285156 95.582031 620.285156 95.570312 620.304688 C 95.402344 620.320312 95.238281 620.351562 95.09375 620.382812 C 95.082031 620.398438 95.0625 620.398438 95.050781 620.398438 C 94.800781 620.464844 94.5625 620.546875 94.332031 620.660156 C 94.21875 620.707031 94.105469 620.773438 94.011719 620.835938 C 93.960938 620.855469 93.910156 620.886719 93.878906 620.917969 C 93.78125 620.96875 93.699219 621.03125 93.617188 621.097656 C 93.511719 621.175781 93.390625 621.273438 93.28125 621.371094 C 93.117188 621.535156 92.972656 621.695312 92.84375 621.859375 C 92.597656 622.183594 92.402344 622.523438 92.277344 622.894531 C 92.242188 622.976562 92.210938 623.074219 92.191406 623.152344 C 92.128906 623.332031 92.078125 623.527344 92.066406 623.703125 C 92.035156 623.898438 92.015625 624.09375 92.015625 624.289062 C 92.015625 624.449219 92.015625 624.59375 92.046875 624.757812 C 92.046875 624.886719 92.066406 625.015625 92.109375 625.144531 C 92.109375 625.210938 92.128906 625.273438 92.144531 625.339844 C 92.160156 625.386719 92.179688 625.453125 92.191406 625.5 C 119.347656 728.8125 245.011719 804.6875 394.050781 809.402344 C 397.960938 809.515625 401.882812 809.597656 405.820312 809.613281 C 406.792969 809.628906 407.78125 809.628906 408.753906 809.628906 C 411.460938 809.628906 414.152344 809.613281 416.84375 809.546875 C 420.25 809.5 423.636719 809.402344 427.007812 809.273438 C 491.460938 806.792969 552.269531 791.117188 603.851562 763.617188 C 658.742188 734.335938 699.363281 692.777344 718.25 646.589844 C 718.25 646.570312 718.265625 646.570312 718.265625 646.554688 C 718.332031 646.394531 718.378906 646.25 718.414062 646.085938 C 718.476562 645.90625 718.507812 645.730469 718.527344 645.550781 C 718.574219 645.210938 718.574219 644.871094 718.527344 644.53125 C 718.527344 644.402344 718.507812 644.273438 718.460938 644.144531 "/>
<path style=" stroke:none;fill-rule:nonzero;fill:rgb(5.879211%,5.488586%,4.708862%);fill-opacity:1;" d="M 321.6875 207.867188 L 321.6875 240.617188 C 321.6875 245.035156 318.058594 248.648438 313.632812 248.648438 L 312.917969 248.648438 C 308.492188 248.648438 304.863281 245.035156 304.863281 240.617188 L 304.863281 207.867188 C 304.863281 203.445312 308.492188 199.835938 312.917969 199.835938 L 313.632812 199.835938 C 318.058594 199.835938 321.6875 203.445312 321.6875 207.867188 Z M 344.109375 167.734375 C 347.480469 174.601562 336.230469 179.929688 331.578125 175.039062 C 326.910156 170.117188 319.808594 165.777344 312.707031 167.25 C 309.15625 167.996094 306.257812 170.375 303.839844 172.984375 C 302.542969 174.390625 301.441406 176.011719 300.226562 177.484375 C 294.796875 184.269531 279.71875 183.363281 282.425781 172.320312 C 285.492188 159.753906 299.773438 151.667969 311.847656 150.410156 C 325.15625 149.011719 338.222656 155.71875 344.109375 167.734375 Z M 350.105469 252.90625 C 352.101562 251.109375 356.507812 252.601562 354.335938 255.417969 C 344.789062 267.871094 334.382812 279.855469 322.96875 290.644531 C 320.292969 293.167969 314.34375 290.238281 317.199219 286.722656 C 327.101562 274.578125 338.46875 263.402344 350.105469 252.90625 Z M 420.816406 296.910156 C 422.226562 294.449219 427.625 294.222656 427.269531 297.882812 C 425.082031 321.332031 391.445312 322.03125 378.554688 308.085938 C 361.097656 289.21875 369.429688 258.625 389.824219 245.652344 C 390.746094 245.070312 392.902344 245.847656 392.027344 247.140625 C 382.058594 261.78125 372.070312 278.773438 381.734375 296.375 C 390.941406 313.121094 411.414062 313.300781 420.816406 296.910156 Z M 428.5 365.449219 C 429.992188 363.410156 435.78125 363.703125 434.9375 367.085938 C 431.90625 379.410156 419.746094 387.507812 407.410156 388.449219 C 397.34375 389.226562 377.941406 383.265625 377.957031 370.648438 C 377.957031 369.175781 379.722656 368.882812 380.777344 369.417969 C 388.65625 373.402344 393.292969 380.058594 402.96875 380.722656 C 414.367188 381.5 422.292969 373.9375 428.5 365.449219 Z M 498.335938 291.550781 C 500.296875 294.011719 496.441406 296.394531 494.285156 294.96875 C 478.769531 284.84375 465.574219 271.015625 452.25 258.253906 C 448.941406 255.078125 455.234375 251.515625 458.085938 253.960938 C 471.882812 265.71875 487.023438 277.296875 498.335938 291.550781 Z M 505.710938 207.867188 L 505.710938 240.617188 C 505.710938 245.035156 502.097656 248.648438 497.671875 248.648438 L 496.941406 248.648438 C 492.515625 248.648438 488.902344 245.035156 488.902344 240.617188 L 488.902344 207.867188 C 488.902344 203.445312 492.515625 199.835938 496.941406 199.835938 L 497.671875 199.835938 C 502.097656 199.835938 505.710938 203.445312 505.710938 207.867188 Z M 503.3125 150.648438 C 515.359375 152.65625 532.332031 163.492188 527.417969 177.648438 C 525.796875 182.3125 518.859375 183.914062 514.808594 181.957031 C 508.355469 178.8125 505.617188 171.476562 498.953125 168.414062 C 491.789062 165.128906 484.347656 168.320312 479.320312 173.859375 C 475.332031 178.246094 462.285156 176.902344 466.289062 169.097656 C 473.128906 155.734375 488.398438 148.167969 503.3125 150.648438 Z M 626.0625 579.570312 C 660.914062 588.882812 692.152344 613.371094 710.015625 645.261719 C 691.550781 689.019531 652.550781 728.457031 600.027344 756.476562 C 549.53125 783.425781 489.921875 798.746094 426.667969 801.191406 C 426.246094 794.714844 425.550781 788.25 425.082031 781.886719 C 425 780.734375 424.917969 779.585938 424.820312 778.4375 C 424.742188 777.222656 424.644531 776.023438 424.546875 774.808594 C 423.960938 766.839844 423.328125 758.871094 422.679688 750.902344 C 422.566406 749.414062 422.453125 747.941406 422.324219 746.449219 C 422.210938 745.023438 422.097656 743.582031 421.984375 742.160156 C 421.289062 733.671875 420.605469 725.203125 419.910156 716.730469 C 419.746094 714.691406 419.585938 712.667969 419.421875 710.640625 C 419.117188 707.0625 418.808594 703.5 418.484375 699.921875 C 417.589844 689.976562 417.203125 679.660156 415.839844 669.636719 C 423.945312 668.535156 432.003906 666.28125 439.898438 662.929688 C 463.03125 653.117188 482.207031 636.464844 502.261719 621.726562 C 505.84375 619.089844 509.585938 616.480469 513.445312 613.972656 C 516.152344 612.222656 518.910156 610.539062 521.730469 608.902344 C 543.417969 596.414062 568.222656 588.625 592.441406 597.953125 C 596.785156 599.621094 603.042969 593.871094 597.59375 591.214844 C 571.21875 578.355469 545.867188 585.144531 522.085938 598.292969 L 525.050781 508.359375 C 525.960938 507.839844 526.851562 507.324219 527.742188 506.804688 C 535.589844 533.707031 550.859375 554.097656 571.121094 564.527344 C 582.875 570.566406 595.828125 573.15625 608.359375 575.652344 C 614.226562 576.816406 620.289062 578.03125 626.0625 579.570312 Z M 208.390625 284.035156 C 203.414062 276.308594 199.027344 269.492188 200.058594 259.371094 C 200.679688 253.441406 203.0625 247.773438 206.742188 243.09375 C 209.078125 240.113281 211.605469 238.703125 212.953125 235.433594 C 211.769531 243.417969 210.792969 251.53125 210.03125 259.695312 C 209.273438 267.890625 208.714844 276.019531 208.390625 284.035156 Z M 215.007812 222.621094 C 214.992188 222.71875 214.980469 222.816406 214.960938 222.914062 C 214.679688 224.4375 214.429688 225.976562 214.167969 227.53125 C 213.679688 215.65625 203.144531 205.226562 190.496094 207.171875 C 188.636719 207.445312 187.386719 210.039062 189.75 210.71875 C 199.445312 213.535156 212.039062 224.257812 203.808594 235.367188 C 199.238281 241.539062 194.746094 245.925781 192.605469 253.667969 C 189.074219 266.480469 192.898438 283.453125 204.648438 290.886719 C 205.574219 291.46875 206.980469 291.40625 208.183594 290.933594 C 207.957031 299.339844 208.007812 307.632812 208.277344 315.761719 C 199.265625 312.085938 190.789062 305.738281 184.4375 297.753906 C 174.191406 284.863281 168 267.46875 166.003906 246.089844 C 164.527344 230.445312 165.742188 217.488281 169.695312 206.460938 C 174.453125 193.292969 183.429688 182.960938 194.339844 178.101562 C 204.410156 173.648438 216.300781 174.292969 224.863281 179.625 C 220.910156 193.453125 217.601562 207.820312 215.042969 222.429688 C 215.023438 222.492188 215.023438 222.558594 215.007812 222.621094 Z M 254.351562 450.914062 C 244.769531 436.484375 236.90625 420.0625 230.847656 401.761719 C 226.585938 388.902344 223.230469 375.183594 220.828125 360.6875 C 232.257812 372.949219 245.582031 383.296875 261.355469 386.714844 C 259.019531 398.148438 257.414062 409.746094 256.328125 421.324219 C 255.453125 430.667969 254.464844 440.824219 254.351562 450.914062 Z M 263.121094 462.980469 C 263.398438 449.199219 262.554688 435.253906 263.527344 421.535156 C 264.351562 410.167969 265.8125 398.910156 267.59375 387.6875 C 271.695312 388.058594 275.976562 387.980469 280.417969 387.332031 C 278.132812 403.347656 276.949219 419.542969 276.867188 435.738281 C 276.804688 447.367188 277.207031 459.027344 278.214844 470.625 C 278.472656 473.683594 278.683594 476.875 278.941406 480.148438 C 273.300781 474.867188 268.035156 469.132812 263.121094 462.980469 Z M 298.753906 495.9375 C 298.65625 495.875 298.574219 495.808594 298.476562 495.742188 L 298.332031 495.644531 C 295.6875 493.832031 293.289062 492.117188 291.019531 490.382812 L 291.003906 490.367188 C 290.226562 489.765625 289.449219 489.167969 288.6875 488.554688 C 287.875 482.996094 286.835938 477.441406 286.300781 472.066406 C 285.023438 459.011719 284.277344 445.925781 284.277344 432.824219 C 284.277344 417.128906 285.234375 401.519531 286.984375 385.96875 C 297.375 383.085938 306.679688 376.867188 312.078125 367.296875 C 316.179688 360.023438 317.28125 351.054688 322.582031 344.445312 C 324.835938 341.660156 327.609375 339.523438 330.671875 337.871094 C 323.28125 370.210938 320.554688 403.492188 322.113281 436.742188 C 323.070312 457.199219 325.664062 477.523438 329.972656 497.558594 C 331.109375 502.820312 332.308594 508.199219 333.671875 513.574219 C 321.089844 508.976562 309.433594 503.097656 298.753906 495.9375 Z M 206.105469 750.109375 C 152.269531 718.546875 115.230469 675.289062 101.257812 627.867188 C 101.566406 627.851562 101.878906 627.816406 102.179688 627.785156 C 112.007812 626.910156 122.152344 625.988281 130.695312 620.027344 C 136.855469 615.71875 140.878906 609.628906 144.785156 603.75 C 146.40625 601.289062 147.945312 598.972656 149.613281 596.769531 C 162.710938 579.621094 184.761719 570.710938 204.597656 564.25 C 207.421875 563.328125 210.257812 562.421875 213.097656 561.53125 C 231.898438 555.554688 251.335938 549.367188 267.304688 536.992188 C 277.191406 529.316406 284.925781 518.839844 289.171875 507.839844 C 289.445312 507.566406 289.625 507.210938 289.671875 506.773438 C 289.691406 506.660156 289.691406 506.53125 289.707031 506.417969 C 290.386719 504.523438 290.953125 502.609375 291.410156 500.699219 C 291.667969 500.894531 291.941406 501.070312 292.21875 501.265625 L 295.542969 601.550781 C 274.839844 588.253906 251.484375 578.503906 226.484375 582.488281 C 223.488281 582.957031 223.96875 586.472656 226.953125 586.292969 C 253.554688 584.804688 275.34375 596.511719 295.867188 611.621094 C 298.671875 613.679688 301.441406 615.800781 304.199219 617.972656 C 325.257812 634.476562 345.4375 653.230469 368.765625 663.1875 C 375.996094 666.265625 383.339844 668.371094 390.746094 669.488281 C 390.457031 674.589844 390.4375 679.742188 390.554688 684.90625 C 390.585938 686.898438 390.648438 688.890625 390.714844 690.882812 C 390.84375 695.011719 391.007812 699.109375 391.121094 703.175781 C 391.167969 705.394531 391.234375 707.613281 391.28125 709.847656 L 391.429688 715.777344 C 391.640625 724.894531 391.867188 734.011719 392.175781 743.113281 C 392.207031 744.070312 392.238281 745.042969 392.269531 745.996094 C 392.320312 747.339844 392.367188 748.683594 392.417969 750.03125 C 392.691406 758.53125 392.984375 767.050781 393.277344 775.570312 C 393.324219 777.222656 393.390625 778.859375 393.453125 780.507812 C 393.472656 781.335938 393.503906 782.179688 393.535156 783.003906 C 393.730469 788.558594 393.472656 794.921875 393.601562 801.273438 C 324.851562 798.972656 258.777344 780.996094 206.109375 750.109375 Z M 398.691406 685.492188 C 398.382812 680.371094 397.960938 675.253906 397.261719 670.21875 C 400.863281 670.507812 404.460938 670.542969 408.074219 670.378906 C 408.140625 675.757812 408.496094 681.167969 408.871094 686.542969 C 405.480469 686.089844 402.09375 685.765625 398.691406 685.492188 Z M 400.082031 709.671875 C 399.921875 707.175781 399.757812 704.683594 399.613281 702.1875 C 399.402344 698.785156 399.226562 695.335938 399.046875 691.855469 C 402.449219 692.210938 405.871094 692.519531 409.292969 692.648438 C 409.40625 694.367188 409.503906 696.082031 409.597656 697.800781 C 409.808594 701.78125 410.039062 705.785156 410.28125 709.785156 C 406.890625 709.636719 403.488281 709.621094 400.082031 709.671875 Z M 402.207031 745.105469 C 402.160156 744.3125 402.125 743.503906 402.078125 742.710938 C 401.609375 733.964844 401.054688 725.25 400.503906 716.519531 C 403.894531 716.78125 407.296875 716.972656 410.703125 717.023438 C 411.171875 724.441406 411.660156 731.875 412.113281 739.308594 C 412.226562 741.21875 412.355469 743.144531 412.46875 745.058594 C 409.066406 744.910156 405.613281 744.992188 402.207031 745.105469 Z M 403.746094 774.226562 C 403.34375 766.550781 402.9375 758.886719 402.53125 751.210938 C 405.984375 751.585938 409.453125 751.890625 412.90625 751.925781 C 413.375 759.164062 413.847656 766.386719 414.347656 773.609375 C 410.816406 773.625 407.265625 773.851562 403.746094 774.226562 Z M 408.757812 801.53125 C 407.734375 801.53125 406.699219 801.53125 405.675781 801.515625 C 405.320312 794.921875 404.476562 788.316406 404.167969 782.355469 C 404.152344 781.902344 404.121094 781.449219 404.105469 780.996094 C 407.6875 781.058594 411.269531 780.980469 414.835938 780.671875 L 414.835938 780.769531 C 415.304688 787.539062 415.53125 794.535156 416.050781 801.464844 C 413.621094 801.515625 411.1875 801.53125 408.757812 801.53125 Z M 410.765625 409.128906 C 408.96875 409.242188 407.136719 409.308594 405.289062 409.308594 L 404.980469 409.308594 C 373.351562 409.195312 347.640625 391.703125 347.640625 370.210938 C 347.640625 365.96875 348.664062 362.941406 350.722656 360.964844 C 354.355469 357.5 361.617188 356.609375 370.742188 356.609375 C 375.296875 356.609375 380.308594 356.835938 385.574219 357.0625 C 391.863281 357.335938 398.367188 357.628906 405.289062 357.628906 C 412.210938 357.628906 418.726562 357.335938 425.015625 357.0625 C 440.804688 356.382812 454.4375 355.765625 459.851562 360.964844 C 461.925781 362.941406 462.933594 365.96875 462.933594 370.210938 C 462.933594 390.519531 439.996094 407.25 410.765625 409.128906 Z M 484.25 478.058594 C 483.34375 490.835938 481.039062 504.246094 481.1875 517.265625 C 462.1875 522.351562 440.789062 525.1875 417.152344 525.722656 C 418.078125 506.109375 415.339844 485.71875 414.285156 466.363281 C 413.375 449.957031 412.339844 433.585938 411.285156 417.195312 C 444.746094 415.023438 471.039062 394.78125 471.039062 370.210938 C 471.039062 363.734375 469.15625 358.648438 465.460938 355.117188 C 457.535156 347.539062 443.027344 348.171875 424.660156 348.980469 C 418.449219 349.253906 412.03125 349.53125 405.289062 349.53125 C 398.542969 349.53125 392.125 349.253906 385.933594 348.980469 C 367.566406 348.171875 353.058594 347.539062 345.128906 355.117188 C 341.417969 358.648438 339.535156 363.734375 339.535156 370.210938 C 339.535156 396.238281 369.023438 417.40625 405.269531 417.40625 C 405.839844 433.632812 406.421875 449.863281 407.152344 466.074219 C 408.011719 485.507812 407.199219 506.304688 410.132812 525.820312 L 408.757812 525.820312 C 385.429688 525.820312 363.949219 522.917969 344.480469 517.136719 C 342.390625 509.964844 340.394531 502.757812 338.808594 495.4375 C 334.414062 475.371094 331.609375 454.882812 330.378906 434.363281 C 328.367188 401.160156 330.914062 367.765625 337.25 335.117188 C 340.703125 334.015625 344.285156 333.300781 347.753906 332.816406 C 366.851562 330.097656 386.792969 330.710938 406.03125 330.53125 C 424.300781 330.355469 444.710938 328.3125 462.574219 332.980469 C 471.863281 335.40625 478.285156 340.703125 482.644531 349.207031 C 484.6875 353.207031 486.40625 357.191406 488.511719 360.964844 C 488.480469 382.894531 488.042969 404.804688 487.183594 426.703125 C 486.503906 443.835938 485.449219 460.957031 484.25 478.058594 Z M 457.308594 642.992188 C 443.660156 651.804688 429.261719 658.347656 414.285156 660.53125 C 412.273438 660.824219 410.265625 661.035156 408.238281 661.164062 C 404.007812 661.457031 399.726562 661.375 395.414062 660.855469 C 394.328125 660.742188 393.242188 660.597656 392.15625 660.417969 C 387.503906 659.675781 382.789062 658.445312 378.039062 656.664062 C 351.890625 646.898438 331.269531 627.332031 309.191406 611.007812 C 307.441406 609.710938 305.65625 608.414062 303.839844 607.136719 L 300.519531 506.644531 C 311.523438 513.332031 323.441406 518.804688 336.199219 523.03125 C 339.796875 524.246094 343.476562 525.332031 347.222656 526.335938 C 366.058594 531.390625 386.628906 533.917969 408.757812 533.917969 C 409.695312 533.917969 410.652344 533.917969 411.578125 533.898438 C 413.246094 533.898438 414.902344 533.867188 416.539062 533.835938 C 440.449219 533.351562 462.203125 530.546875 481.640625 525.511719 C 483.503906 525.023438 485.351562 524.523438 487.167969 523.988281 C 497.785156 520.925781 507.675781 517.152344 516.800781 512.683594 C 515.796875 542.855469 514.789062 573.011719 513.800781 603.167969 C 493.621094 615.671875 474.652344 631.785156 457.308594 642.992188 Z M 528.019531 497.105469 C 528.019531 497.105469 528.003906 497.105469 528.003906 497.121094 C 525.164062 498.933594 522.199219 500.714844 519.136719 502.367188 C 510.042969 507.339844 500.085938 511.519531 489.273438 514.902344 C 491.707031 501.800781 491.867188 487.839844 492.777344 474.851562 C 493.925781 458.332031 494.625 441.746094 495.09375 425.195312 C 495.613281 406.847656 495.679688 388.496094 495.304688 370.148438 C 504.414062 379.296875 517.171875 384.15625 529.882812 385.417969 C 531.40625 385.566406 532.898438 385.679688 534.390625 385.726562 C 537.210938 408.125 539.382812 430.652344 540.242188 453.199219 C 540.695312 464.761719 540.839844 476.359375 540.679688 487.921875 C 536.675781 491.207031 532.445312 494.253906 528.019531 497.105469 Z M 549.515625 480.050781 C 549.417969 469.75 549.042969 459.464844 548.429688 449.164062 C 547.148438 427.820312 544.75 406.636719 540.859375 385.664062 C 546.886719 385.355469 552.675781 384.285156 558.25 382.585938 C 561.070312 396.171875 563.066406 409.941406 564.167969 423.804688 C 565.171875 436.710938 565.125 449.523438 564.734375 462.347656 C 560.132812 468.746094 555.058594 474.640625 549.515625 480.050781 Z M 536.546875 115.441406 C 510.460938 81.734375 484.929688 67.953125 460.710938 74.496094 C 450.371094 77.265625 441.519531 83.714844 432.960938 89.945312 C 422.113281 97.835938 411.902344 105.265625 400.003906 104.324219 C 391.394531 103.628906 383.90625 98.582031 375.960938 93.214844 C 369.007812 88.523438 361.828125 83.664062 353.398438 81.492188 C 334.867188 76.726562 314.296875 85.554688 292.25 107.707031 C 267.933594 132.148438 246.808594 160.601562 230.097656 191.25 C 231.15625 187.152344 232.269531 183.085938 233.453125 179.085938 C 248.21875 128.6875 271.582031 86.300781 301.035156 56.484375 C 332.03125 25.113281 369.332031 8.53125 408.886719 8.53125 C 448.863281 8.53125 486.664062 25.113281 518.210938 56.484375 C 548.621094 86.722656 572.128906 129.269531 586.167969 179.523438 C 587.59375 184.640625 588.921875 189.824219 590.136719 195.054688 C 574.039062 167.375 556.078125 140.6875 536.546875 115.441406 Z M 573.878906 447.949219 C 573.75 425.179688 570.441406 402.117188 565.269531 380.109375 C 577.558594 375.152344 588.761719 367.363281 599.136719 358.453125 C 597.449219 375.167969 594.773438 390.3125 591.078125 404.222656 C 586.765625 420.5625 581.058594 435.109375 573.878906 447.949219 Z M 601.257812 322.144531 C 601.082031 330.988281 600.691406 339.441406 600.089844 347.539062 C 588.953125 357.5 576.796875 366.875 563.40625 372.480469 C 561.167969 373.417969 558.882812 374.246094 556.566406 374.957031 C 551.023438 376.675781 545.28125 377.679688 539.332031 377.792969 C 537.355469 377.824219 535.363281 377.777344 533.335938 377.597656 C 532.507812 377.53125 531.683594 377.453125 530.839844 377.339844 C 516.671875 375.558594 503.558594 368.542969 496.570312 355.765625 C 495.953125 354.617188 495.371094 353.464844 494.804688 352.285156 C 492.761719 348.023438 490.992188 343.667969 488.414062 339.75 C 487.492188 338.371094 486.488281 337.042969 485.320312 335.796875 C 480.878906 331.050781 475.140625 327.992188 468.996094 326.03125 C 454.242188 321.351562 437.742188 322.402344 422.488281 322.355469 C 402.402344 322.273438 382.300781 322.582031 362.230469 323.472656 C 354.597656 323.8125 346.636719 324.410156 339.066406 326.242188 C 337.039062 326.726562 335.03125 327.292969 333.070312 327.992188 C 329.339844 329.300781 325.742188 331.003906 322.402344 333.238281 C 317.539062 336.476562 313.664062 340.71875 310.910156 345.871094 C 306.921875 353.320312 305.671875 362.195312 300.175781 368.820312 C 296.871094 372.789062 292.671875 375.589844 288.019531 377.402344 C 285.976562 378.195312 283.851562 378.796875 281.664062 379.21875 C 277.5 380.027344 273.152344 380.203125 268.875 379.816406 C 266.914062 379.636719 264.96875 379.347656 263.070312 378.941406 C 260.265625 378.375 257.558594 377.546875 255.015625 376.542969 C 241.351562 371.101562 229.953125 361.335938 219.367188 351.085938 C 218.054688 341.464844 217.148438 331.519531 216.640625 321.316406 C 215.65625 301.898438 216.140625 281.414062 218.105469 260.4375 C 219.238281 248.242188 220.859375 236.144531 222.898438 224.46875 C 240.667969 183.347656 266.621094 144.960938 298.003906 113.433594 C 317.863281 93.445312 335.824219 85.347656 351.386719 89.347656 C 358.4375 91.164062 364.746094 95.417969 371.421875 99.925781 C 379.886719 105.625 388.621094 111.539062 399.339844 112.394531 C 414.21875 113.597656 426.183594 104.898438 437.726562 96.488281 C 445.683594 90.695312 453.917969 84.703125 462.820312 82.304688 C 483.585938 76.71875 506.246094 89.53125 530.140625 120.394531 C 554.507812 151.863281 576.390625 185.632812 595.195312 220.726562 C 597.304688 233.636719 598.8125 246.949219 599.652344 260.324219 C 601.113281 283.242188 601.632812 303.421875 601.257812 322.046875 Z M 635.820312 297.753906 C 628.816406 306.546875 619.414062 313.285156 609.445312 316.734375 C 609.625 299.421875 609.070312 280.730469 607.742188 259.808594 C 607.5 255.984375 607.207031 252.179688 606.851562 248.375 C 608.34375 248.015625 609.71875 247.140625 610.191406 245.945312 C 612.945312 238.996094 620.113281 246.15625 621.585938 249.945312 C 623.257812 254.203125 623.03125 259.078125 622.738281 263.582031 C 622.136719 272.519531 619.917969 281.089844 617.777344 289.769531 C 616.851562 293.445312 623.515625 293.527344 624.730469 290.722656 C 630.242188 277.898438 636.226562 254.058594 626.351562 241.832031 C 622.429688 236.988281 615.589844 235.304688 609.980469 237.070312 C 610.078125 229.992188 611.648438 223.027344 614.859375 216.597656 C 616.886719 212.53125 619.527344 209 622.429688 205.535156 C 624.308594 203.269531 625.414062 202.554688 625.234375 199.707031 C 625.203125 199.121094 624.539062 198.605469 623.96875 198.570312 C 615.574219 198.296875 609.527344 209.277344 606.332031 215.917969 C 605.296875 218.105469 604.402344 220.324219 603.691406 222.574219 C 603.511719 221.375 603.316406 220.175781 603.121094 218.996094 C 603.121094 218.914062 603.105469 218.832031 603.089844 218.75 C 600.949219 205.664062 598.128906 192.660156 594.710938 180.042969 C 603.332031 174.328125 615.523438 173.5 625.914062 178.101562 C 636.839844 182.960938 645.804688 193.292969 650.554688 206.460938 C 654.511719 217.488281 655.726562 230.445312 654.269531 246.089844 C 652.257812 267.46875 646.066406 284.863281 635.820312 297.753906 Z M 600.027344 756.476562 C 549.53125 783.425781 489.921875 798.746094 426.667969 801.191406 C 426.246094 794.714844 425.550781 788.25 425.082031 781.886719 C 425 780.738281 424.917969 779.585938 424.820312 778.4375 C 424.742188 777.222656 424.644531 776.023438 424.546875 774.808594 C 423.960938 766.839844 423.332031 758.871094 422.683594 750.902344 C 422.566406 749.414062 422.453125 747.941406 422.324219 746.449219 C 422.210938 745.023438 422.097656 743.582031 421.984375 742.160156 C 421.289062 733.671875 420.605469 725.203125 419.910156 716.730469 C 419.746094 714.691406 419.585938 712.667969 419.421875 710.640625 C 419.117188 707.0625 418.808594 703.5 418.484375 699.921875 C 417.589844 689.976562 417.203125 679.660156 415.839844 669.636719 C 423.945312 668.535156 432.003906 666.28125 439.898438 662.929688 C 463.03125 653.117188 482.207031 636.464844 502.261719 621.730469 C 505.84375 619.089844 509.585938 616.480469 513.445312 613.972656 C 516.152344 612.222656 518.910156 610.539062 521.730469 608.902344 C 543.417969 596.414062 568.222656 588.625 592.441406 597.953125 C 596.785156 599.621094 603.042969 593.871094 597.59375 591.214844 C 571.21875 578.355469 545.867188 585.144531 522.085938 598.292969 L 525.050781 508.359375 C 525.960938 507.839844 526.851562 507.324219 527.742188 506.804688 C 535.589844 533.707031 550.859375 554.097656 571.121094 564.527344 C 582.875 570.566406 595.828125 573.160156 608.359375 575.652344 C 614.226562 576.820312 620.289062 578.03125 626.0625 579.570312 C 660.914062 588.882812 692.152344 613.371094 710.015625 645.261719 C 691.550781 689.019531 652.550781 728.457031 600.027344 756.476562 Z M 718.460938 644.144531 C 718.445312 643.996094 718.398438 643.867188 718.347656 643.738281 C 718.316406 643.625 718.285156 643.511719 718.234375 643.414062 C 718.136719 643.203125 718.023438 642.992188 717.894531 642.78125 C 699.15625 608.300781 665.613281 581.757812 628.152344 571.75 C 622.121094 570.144531 615.929688 568.898438 609.949219 567.714844 C 597.417969 565.207031 585.566406 562.859375 574.835938 557.320312 C 563.375 551.425781 553.664062 541.882812 546.222656 529.480469 C 543.839844 525.511719 541.699219 521.234375 539.804688 516.699219 C 537.90625 512.148438 536.253906 507.339844 534.875 502.269531 C 536.773438 501.023438 538.621094 499.710938 540.4375 498.367188 C 543.566406 496.066406 546.597656 493.636719 549.496094 491.078125 C 554.796875 486.480469 559.726562 481.492188 564.265625 476.113281 C 567.523438 472.308594 570.570312 468.308594 573.441406 464.097656 C 584.5625 447.851562 593.007812 428.644531 598.925781 406.28125 C 603.367188 389.535156 606.382812 371.085938 608.003906 350.421875 C 608.292969 346.875 608.519531 343.261719 608.714844 339.570312 C 608.976562 334.921875 609.167969 330.144531 609.28125 325.269531 C 621.734375 321.65625 633.582031 313.578125 642.175781 302.789062 C 653.410156 288.636719 660.183594 269.816406 662.324219 246.835938 C 663.914062 229.992188 662.550781 215.886719 658.175781 203.722656 C 652.695312 188.480469 642.140625 176.449219 629.207031 170.714844 C 617.195312 165.386719 603.105469 166.003906 592.441406 171.980469 C 577.851562 122.710938 554.230469 80.882812 523.933594 50.738281 C 490.832031 17.828125 451.050781 0.4375 408.886719 0.4375 C 367.113281 0.4375 327.816406 17.847656 295.265625 50.808594 C 265.90625 80.519531 242.433594 122.242188 227.230469 171.640625 C 216.628906 165.988281 202.765625 165.5 191.046875 170.714844 C 178.128906 176.449219 167.5625 188.480469 162.078125 203.722656 C 157.703125 215.886719 156.339844 229.992188 157.929688 246.835938 C 160.070312 269.816406 166.84375 288.636719 178.097656 302.789062 C 186.214844 313.007812 197.011719 320.652344 208.699219 324.558594 C 209.023438 330.4375 209.492188 336.234375 210.113281 341.917969 C 210.335938 344.347656 210.625 346.746094 210.925781 349.125 C 213.398438 368.804688 217.503906 387.28125 223.15625 404.304688 C 230.941406 427.753906 241.558594 448.273438 254.933594 465.636719 C 257.382812 468.828125 259.925781 471.902344 262.550781 474.867188 C 268.082031 481.101562 273.996094 486.882812 280.320312 492.164062 C 281.601562 493.25 282.914062 494.300781 284.226562 495.339844 C 283.886719 497.558594 283.351562 499.777344 282.652344 501.996094 C 279.28125 512.683594 271.988281 523.113281 262.324219 530.597656 C 247.503906 542.09375 228.769531 548.054688 210.644531 553.804688 C 207.777344 554.710938 204.921875 555.617188 202.082031 556.558594 C 181.0625 563.390625 157.617188 572.949219 143.175781 591.863281 C 141.324219 594.277344 139.640625 596.820312 138.019531 599.28125 C 134.371094 604.773438 130.941406 609.96875 126.058594 613.386719 C 119.28125 618.117188 110.609375 618.894531 101.449219 619.71875 C 99.507812 619.898438 97.558594 620.078125 95.632812 620.285156 C 95.613281 620.285156 95.582031 620.285156 95.570312 620.304688 C 95.402344 620.320312 95.238281 620.351562 95.09375 620.382812 C 95.082031 620.402344 95.0625 620.402344 95.050781 620.402344 C 94.800781 620.464844 94.5625 620.546875 94.332031 620.660156 C 94.21875 620.707031 94.105469 620.773438 94.011719 620.835938 C 93.960938 620.855469 93.910156 620.886719 93.878906 620.917969 C 93.78125 620.96875 93.699219 621.03125 93.617188 621.097656 C 93.511719 621.179688 93.398438 621.273438 93.28125 621.371094 C 93.117188 621.535156 92.972656 621.695312 92.84375 621.859375 C 92.597656 622.183594 92.402344 622.523438 92.277344 622.894531 C 92.242188 622.976562 92.210938 623.074219 92.195312 623.152344 C 92.128906 623.332031 92.078125 623.527344 92.066406 623.703125 C 92.035156 623.898438 92.015625 624.09375 92.015625 624.289062 C 92.015625 624.449219 92.015625 624.59375 92.046875 624.757812 C 92.046875 624.886719 92.066406 625.015625 92.109375 625.144531 C 92.109375 625.210938 92.128906 625.273438 92.144531 625.339844 C 92.160156 625.386719 92.179688 625.453125 92.195312 625.503906 C 119.347656 728.8125 245.011719 804.6875 394.050781 809.402344 C 397.960938 809.515625 401.882812 809.597656 405.820312 809.613281 C 406.792969 809.628906 407.78125 809.628906 408.753906 809.628906 C 411.460938 809.628906 414.152344 809.613281 416.84375 809.546875 C 420.25 809.5 423.636719 809.402344 427.007812 809.273438 C 491.460938 806.792969 552.269531 791.117188 603.851562 763.617188 C 658.742188 734.335938 699.363281 692.777344 718.25 646.589844 C 718.25 646.574219 718.265625 646.574219 718.265625 646.554688 C 718.332031 646.394531 718.378906 646.25 718.414062 646.085938 C 718.476562 645.910156 718.507812 645.730469 718.527344 645.550781 C 718.574219 645.210938 718.574219 644.871094 718.527344 644.53125 C 718.527344 644.402344 718.507812 644.273438 718.460938 644.144531 Z M 393.535156 783.003906 C 393.730469 788.558594 393.46875 794.921875 393.601562 801.273438 C 324.851562 798.972656 258.773438 780.996094 206.105469 750.109375 C 152.269531 718.546875 115.230469 675.289062 101.253906 627.867188 C 101.566406 627.851562 101.875 627.816406 102.179688 627.785156 C 112.007812 626.910156 122.152344 625.988281 130.695312 620.027344 C 136.855469 615.71875 140.875 609.628906 144.78125 603.75 C 146.402344 601.289062 147.941406 598.972656 149.613281 596.769531 C 162.707031 579.621094 184.757812 570.710938 204.597656 564.25 C 207.421875 563.328125 210.257812 562.421875 213.09375 561.53125 C 231.894531 555.554688 251.335938 549.367188 267.300781 536.992188 C 277.191406 529.316406 284.921875 518.839844 289.167969 507.839844 C 289.445312 507.566406 289.625 507.210938 289.671875 506.773438 C 289.6875 506.660156 289.6875 506.53125 289.703125 506.417969 C 290.386719 504.523438 290.953125 502.609375 291.40625 500.699219 C 291.667969 500.894531 291.941406 501.070312 292.21875 501.265625 L 295.539062 601.550781 C 274.839844 588.253906 251.480469 578.503906 226.480469 582.488281 C 223.488281 582.957031 223.96875 586.472656 226.949219 586.292969 C 253.550781 584.804688 275.34375 596.511719 295.863281 611.621094 C 298.667969 613.679688 301.441406 615.800781 304.195312 617.972656 C 325.253906 634.476562 345.4375 653.230469 368.765625 663.1875 C 375.992188 666.265625 383.335938 668.371094 390.746094 669.488281 C 390.453125 674.589844 390.4375 679.742188 390.550781 684.90625 C 390.582031 686.898438 390.648438 688.890625 390.714844 690.882812 C 390.84375 695.011719 391.003906 699.109375 391.117188 703.175781 C 391.167969 705.394531 391.230469 707.613281 391.28125 709.847656 L 391.425781 715.777344 C 391.636719 724.894531 391.863281 734.011719 392.171875 743.113281 C 392.203125 744.070312 392.238281 745.042969 392.269531 745.996094 C 392.316406 747.339844 392.367188 748.683594 392.414062 750.03125 C 392.691406 758.53125 392.984375 767.050781 393.273438 775.570312 C 393.324219 777.222656 393.386719 778.859375 393.453125 780.507812 C 393.46875 781.335938 393.5 782.179688 393.535156 783.003906 "/>
</g>
<path style=" stroke:none;fill-rule:nonzero;fill:rgb(100%,100%,100%);fill-opacity:1;" d="M 200.058594 259.371094 C 199.027344 269.492188 203.414062 276.308594 208.390625 284.035156 C 208.714844 276.019531 209.269531 267.890625 210.03125 259.695312 C 210.792969 251.53125 211.765625 243.417969 212.945312 235.433594 C 211.601562 238.703125 209.074219 240.113281 206.738281 243.09375 C 203.058594 247.773438 200.679688 253.441406 200.058594 259.371094 Z M 194.339844 178.101562 C 183.429688 182.960938 174.445312 193.292969 169.695312 206.460938 C 165.742188 217.488281 164.527344 230.445312 166.003906 246.089844 C 167.996094 267.46875 174.191406 284.863281 184.4375 297.753906 C 190.789062 305.738281 199.265625 312.085938 208.277344 315.761719 C 208.003906 307.632812 207.953125 299.339844 208.183594 290.933594 C 206.980469 291.40625 205.574219 291.46875 204.648438 290.886719 C 192.894531 283.453125 189.070312 266.480469 192.605469 253.667969 C 194.746094 245.925781 199.234375 241.539062 203.804688 235.367188 C 212.039062 224.257812 199.445312 213.535156 189.75 210.71875 C 187.386719 210.039062 188.628906 207.445312 190.496094 207.171875 C 203.140625 205.226562 213.679688 215.65625 214.160156 227.53125 C 214.425781 225.976562 214.679688 224.4375 214.957031 222.914062 C 214.972656 222.816406 214.988281 222.71875 215.007812 222.621094 C 215.019531 222.558594 215.019531 222.492188 215.039062 222.429688 C 217.597656 207.820312 220.910156 193.453125 224.859375 179.625 C 216.300781 174.292969 204.40625 173.648438 194.339844 178.101562 Z M 220.828125 360.6875 C 223.226562 375.183594 226.585938 388.902344 230.847656 401.761719 C 236.90625 420.0625 244.769531 436.484375 254.351562 450.914062 C 254.464844 440.824219 255.453125 430.667969 256.328125 421.324219 C 257.414062 409.746094 259.019531 398.148438 261.351562 386.714844 C 245.578125 383.296875 232.257812 372.949219 220.828125 360.6875 Z M 267.59375 387.6875 C 265.8125 398.910156 264.351562 410.167969 263.523438 421.535156 C 262.550781 435.253906 263.394531 449.199219 263.121094 462.980469 C 268.03125 469.132812 273.300781 474.867188 278.941406 480.148438 C 278.683594 476.875 278.472656 473.683594 278.210938 470.625 C 277.207031 459.027344 276.800781 447.367188 276.867188 435.738281 C 276.949219 419.542969 278.132812 403.347656 280.417969 387.332031 C 275.976562 387.976562 271.695312 388.058594 267.59375 387.6875 Z M 329.972656 497.558594 C 325.660156 477.523438 323.066406 457.199219 322.109375 436.742188 C 320.554688 403.492188 323.277344 370.210938 330.667969 337.871094 C 327.605469 339.523438 324.832031 341.660156 322.582031 344.445312 C 317.28125 351.054688 316.175781 360.023438 312.074219 367.296875 C 306.679688 376.867188 297.371094 383.085938 286.980469 385.96875 C 285.230469 401.519531 284.273438 417.128906 284.273438 432.824219 C 284.273438 445.925781 285.019531 459.011719 286.300781 472.066406 C 286.835938 477.441406 287.875 482.996094 288.683594 488.554688 C 289.445312 489.167969 290.222656 489.765625 291.003906 490.367188 L 291.019531 490.382812 C 293.289062 492.117188 295.6875 493.832031 298.328125 495.644531 L 298.476562 495.742188 C 298.574219 495.808594 298.652344 495.875 298.75 495.9375 C 309.433594 503.097656 321.089844 508.976562 333.667969 513.574219 C 332.308594 508.199219 331.105469 502.820312 329.972656 497.558594 Z M 408.074219 670.378906 C 404.460938 670.542969 400.863281 670.507812 397.261719 670.21875 C 397.960938 675.253906 398.382812 680.371094 398.691406 685.492188 C 402.09375 685.765625 405.480469 686.089844 408.871094 686.542969 C 408.496094 681.167969 408.140625 675.757812 408.074219 670.378906 Z M 410.28125 709.785156 C 410.039062 705.785156 409.808594 701.78125 409.597656 697.800781 C 409.503906 696.082031 409.40625 694.367188 409.292969 692.648438 C 405.871094 692.519531 402.449219 692.210938 399.046875 691.855469 C 399.226562 695.335938 399.402344 698.785156 399.613281 702.1875 C 399.757812 704.683594 399.921875 707.175781 400.082031 709.671875 C 403.488281 709.621094 406.890625 709.636719 410.28125 709.785156 Z M 412.46875 745.058594 C 412.355469 743.144531 412.226562 741.21875 412.113281 739.308594 C 411.660156 731.875 411.171875 724.441406 410.703125 717.023438 C 407.296875 716.972656 403.894531 716.78125 400.503906 716.519531 C 401.054688 725.25 401.609375 733.964844 402.078125 742.710938 C 402.125 743.503906 402.160156 744.3125 402.207031 745.105469 C 405.613281 744.992188 409.066406 744.910156 412.46875 745.058594 Z M 412.90625 751.925781 C 409.453125 751.890625 405.984375 751.585938 402.53125 751.210938 C 402.9375 758.886719 403.34375 766.550781 403.746094 774.226562 C 407.265625 773.851562 410.816406 773.625 414.347656 773.609375 C 413.847656 766.386719 413.375 759.164062 412.90625 751.925781 Z M 414.835938 780.671875 C 411.269531 780.980469 407.6875 781.058594 404.105469 780.996094 C 404.121094 781.449219 404.152344 781.902344 404.167969 782.355469 C 404.476562 788.316406 405.320312 794.921875 405.675781 801.515625 C 406.699219 801.53125 407.734375 801.53125 408.757812 801.53125 C 411.1875 801.53125 413.621094 801.515625 416.050781 801.464844 C 415.53125 794.535156 415.304688 787.539062 414.835938 780.769531 Z M 428.5 365.449219 C 422.292969 373.9375 414.367188 381.5 402.96875 380.722656 C 393.292969 380.058594 388.65625 373.402344 380.777344 369.417969 C 379.722656 368.882812 377.957031 369.175781 377.957031 370.648438 C 377.941406 383.265625 397.34375 389.226562 407.410156 388.449219 C 419.746094 387.507812 431.90625 379.410156 434.9375 367.085938 C 435.78125 363.703125 429.992188 363.410156 428.5 365.449219 Z M 462.933594 370.210938 C 462.933594 390.519531 439.996094 407.25 410.765625 409.128906 C 408.96875 409.242188 407.136719 409.308594 405.289062 409.308594 L 404.980469 409.308594 C 373.351562 409.195312 347.640625 391.703125 347.640625 370.210938 C 347.640625 365.96875 348.664062 362.941406 350.722656 360.964844 C 354.355469 357.5 361.617188 356.609375 370.742188 356.609375 C 375.296875 356.609375 380.308594 356.835938 385.574219 357.0625 C 391.863281 357.335938 398.367188 357.628906 405.289062 357.628906 C 412.210938 357.628906 418.726562 357.335938 425.015625 357.0625 C 440.804688 356.382812 454.4375 355.765625 459.851562 360.964844 C 461.925781 362.941406 462.933594 365.96875 462.933594 370.210938 Z M 481.1875 517.265625 C 481.039062 504.246094 483.34375 490.835938 484.25 478.058594 C 485.449219 460.957031 486.503906 443.835938 487.183594 426.703125 C 488.042969 404.804688 488.480469 382.894531 488.511719 360.964844 C 486.40625 357.191406 484.6875 353.207031 482.644531 349.207031 C 478.285156 340.703125 471.863281 335.40625 462.574219 332.980469 C 444.710938 328.3125 424.300781 330.355469 406.035156 330.53125 C 386.792969 330.710938 366.851562 330.097656 347.753906 332.816406 C 344.285156 333.300781 340.703125 334.015625 337.25 335.117188 C 330.914062 367.765625 328.367188 401.160156 330.378906 434.363281 C 331.609375 454.882812 334.414062 475.371094 338.808594 495.4375 C 340.394531 502.757812 342.390625 509.964844 344.480469 517.136719 C 363.949219 522.917969 385.429688 525.820312 408.757812 525.820312 L 410.132812 525.820312 C 407.199219 506.304688 408.011719 485.507812 407.152344 466.074219 C 406.421875 449.863281 405.839844 433.632812 405.269531 417.40625 C 369.023438 417.40625 339.535156 396.238281 339.535156 370.210938 C 339.535156 363.734375 341.417969 358.648438 345.128906 355.117188 C 353.058594 347.539062 367.566406 348.171875 385.933594 348.980469 C 392.125 349.253906 398.542969 349.53125 405.289062 349.53125 C 412.03125 349.53125 418.449219 349.253906 424.660156 348.980469 C 443.027344 348.171875 457.535156 347.539062 465.460938 355.117188 C 469.15625 358.648438 471.039062 363.734375 471.039062 370.210938 C 471.039062 394.78125 444.746094 415.023438 411.285156 417.195312 C 412.339844 433.585938 413.375 449.957031 414.285156 466.363281 C 415.339844 485.71875 418.078125 506.109375 417.152344 525.722656 C 440.789062 525.1875 462.1875 522.351562 481.1875 517.265625 Z M 481.640625 525.511719 C 462.203125 530.546875 440.449219 533.347656 416.539062 533.835938 C 414.902344 533.867188 413.246094 533.898438 411.578125 533.898438 C 410.652344 533.917969 409.695312 533.917969 408.757812 533.917969 C 386.628906 533.917969 366.058594 531.390625 347.222656 526.335938 C 343.476562 525.332031 339.796875 524.246094 336.199219 523.03125 C 323.441406 518.804688 311.523438 513.332031 300.519531 506.644531 L 303.839844 607.136719 C 305.65625 608.414062 307.441406 609.710938 309.191406 611.007812 C 331.269531 627.332031 351.890625 646.894531 378.039062 656.664062 C 382.785156 658.445312 387.503906 659.675781 392.15625 660.417969 C 393.242188 660.597656 394.328125 660.742188 395.414062 660.855469 C 399.726562 661.375 404.007812 661.457031 408.238281 661.164062 C 410.265625 661.035156 412.273438 660.824219 414.285156 660.53125 C 429.261719 658.347656 443.660156 651.804688 457.308594 642.992188 C 474.652344 631.785156 493.621094 615.671875 513.800781 603.167969 C 514.789062 573.011719 515.796875 542.855469 516.800781 512.683594 C 507.675781 517.152344 497.785156 520.925781 487.167969 523.988281 C 485.351562 524.523438 483.503906 525.023438 481.640625 525.511719 Z M 534.390625 385.726562 C 532.898438 385.679688 531.40625 385.566406 529.882812 385.417969 C 517.171875 384.15625 504.414062 379.296875 495.304688 370.148438 C 495.679688 388.496094 495.613281 406.847656 495.09375 425.195312 C 494.625 441.746094 493.925781 458.332031 492.777344 474.851562 C 491.867188 487.839844 491.707031 501.800781 489.273438 514.902344 C 500.085938 511.519531 510.042969 507.339844 519.136719 502.367188 C 522.199219 500.714844 525.164062 498.933594 528.003906 497.121094 C 528.003906 497.105469 528.019531 497.105469 528.019531 497.105469 C 532.445312 494.253906 536.675781 491.207031 540.679688 487.921875 C 540.839844 476.359375 540.695312 464.761719 540.242188 453.199219 C 539.382812 430.652344 537.210938 408.125 534.390625 385.726562 Z M 558.25 382.585938 C 552.675781 384.285156 546.886719 385.355469 540.859375 385.664062 C 544.75 406.636719 547.148438 427.820312 548.429688 449.164062 C 549.042969 459.464844 549.417969 469.75 549.515625 480.050781 C 555.058594 474.640625 560.132812 468.746094 564.734375 462.347656 C 565.125 449.519531 565.171875 436.710938 564.167969 423.804688 C 563.066406 409.941406 561.074219 396.171875 558.25 382.585938 Z M 353.398438 81.496094 C 361.828125 83.664062 369.007812 88.523438 375.960938 93.214844 C 383.90625 98.582031 391.394531 103.628906 400.003906 104.324219 C 411.902344 105.269531 422.113281 97.835938 432.960938 89.945312 C 441.519531 83.714844 450.371094 77.265625 460.710938 74.496094 C 484.929688 67.953125 510.460938 81.734375 536.546875 115.441406 C 556.078125 140.691406 574.039062 167.378906 590.136719 195.054688 C 588.921875 189.824219 587.59375 184.640625 586.167969 179.523438 C 572.128906 129.269531 548.621094 86.726562 518.210938 56.484375 C 486.664062 25.113281 448.863281 8.53125 408.886719 8.53125 C 369.332031 8.53125 332.03125 25.113281 301.035156 56.484375 C 271.582031 86.304688 248.21875 128.6875 233.453125 179.085938 C 232.269531 183.085938 231.15625 187.152344 230.097656 191.25 C 246.808594 160.605469 267.933594 132.148438 292.25 107.710938 C 314.296875 85.554688 334.867188 76.730469 353.398438 81.496094 Z M 573.878906 447.949219 C 581.058594 435.109375 586.765625 420.5625 591.078125 404.222656 C 594.773438 390.3125 597.449219 375.167969 599.136719 358.453125 C 588.761719 367.363281 577.558594 375.152344 565.269531 380.109375 C 570.441406 402.117188 573.75 425.179688 573.878906 447.949219 Z M 503.3125 150.648438 C 488.398438 148.167969 473.128906 155.734375 466.289062 169.097656 C 462.285156 176.902344 475.332031 178.246094 479.320312 173.859375 C 484.347656 168.320312 491.789062 165.128906 498.953125 168.414062 C 505.617188 171.476562 508.355469 178.8125 514.808594 181.957031 C 518.859375 183.914062 525.796875 182.3125 527.417969 177.648438 C 532.332031 163.492188 515.359375 152.65625 503.3125 150.648438 Z M 505.710938 207.867188 C 505.710938 203.445312 502.097656 199.835938 497.671875 199.835938 L 496.941406 199.835938 C 492.515625 199.835938 488.902344 203.445312 488.902344 207.867188 L 488.902344 240.617188 C 488.902344 245.035156 492.515625 248.648438 496.941406 248.648438 L 497.671875 248.648438 C 502.097656 248.648438 505.710938 245.035156 505.710938 240.617188 Z M 498.335938 291.550781 C 487.023438 277.296875 471.882812 265.71875 458.085938 253.960938 C 455.234375 251.515625 448.941406 255.078125 452.25 258.253906 C 465.574219 271.015625 478.769531 284.84375 494.285156 294.96875 C 496.441406 296.394531 500.296875 294.011719 498.335938 291.550781 Z M 420.816406 296.910156 C 411.414062 313.300781 390.941406 313.121094 381.734375 296.375 C 372.070312 278.773438 382.058594 261.78125 392.027344 247.140625 C 392.902344 245.847656 390.746094 245.070312 389.824219 245.652344 C 369.429688 258.625 361.097656 289.21875 378.554688 308.085938 C 391.445312 322.03125 425.082031 321.332031 427.269531 297.882812 C 427.625 294.222656 422.226562 294.449219 420.816406 296.910156 Z M 350.105469 252.90625 C 338.46875 263.402344 327.101562 274.578125 317.199219 286.722656 C 314.34375 290.238281 320.292969 293.167969 322.96875 290.644531 C 334.382812 279.855469 344.789062 267.871094 354.335938 255.417969 C 356.507812 252.601562 352.101562 251.109375 350.105469 252.90625 Z M 313.632812 248.648438 C 318.058594 248.648438 321.6875 245.035156 321.6875 240.617188 L 321.6875 207.867188 C 321.6875 203.445312 318.058594 199.835938 313.632812 199.835938 L 312.917969 199.835938 C 308.492188 199.835938 304.863281 203.445312 304.863281 207.867188 L 304.863281 240.617188 C 304.863281 245.035156 308.492188 248.648438 312.917969 248.648438 Z M 312.707031 167.25 C 319.808594 165.777344 326.910156 170.117188 331.578125 175.039062 C 336.230469 179.929688 347.480469 174.601562 344.109375 167.734375 C 338.222656 155.71875 325.15625 149.011719 311.847656 150.410156 C 299.773438 151.667969 285.492188 159.753906 282.425781 172.320312 C 279.71875 183.363281 294.796875 184.269531 300.226562 177.484375 C 301.441406 176.011719 302.542969 174.390625 303.839844 172.984375 C 306.257812 170.375 309.15625 167.996094 312.707031 167.25 Z M 599.652344 260.324219 C 601.113281 283.242188 601.632812 303.421875 601.257812 322.046875 L 601.257812 322.144531 C 601.082031 330.988281 600.691406 339.441406 600.089844 347.539062 C 588.953125 357.5 576.796875 366.875 563.40625 372.480469 C 561.167969 373.417969 558.882812 374.246094 556.566406 374.957031 C 551.023438 376.675781 545.28125 377.679688 539.332031 377.792969 C 537.355469 377.824219 535.363281 377.773438 533.335938 377.597656 C 532.507812 377.53125 531.683594 377.453125 530.839844 377.339844 C 516.671875 375.554688 503.554688 368.542969 496.570312 355.765625 C 495.953125 354.617188 495.371094 353.464844 494.804688 352.285156 C 492.761719 348.023438 490.992188 343.667969 488.414062 339.75 C 487.492188 338.371094 486.488281 337.042969 485.320312 335.796875 C 480.878906 331.050781 475.140625 327.992188 468.996094 326.03125 C 454.242188 321.351562 437.742188 322.402344 422.488281 322.355469 C 402.402344 322.273438 382.300781 322.582031 362.230469 323.472656 C 354.597656 323.8125 346.636719 324.410156 339.066406 326.242188 C 337.039062 326.726562 335.03125 327.292969 333.070312 327.992188 C 329.339844 329.300781 325.742188 331.003906 322.402344 333.238281 C 317.539062 336.476562 313.664062 340.71875 310.910156 345.871094 C 306.921875 353.320312 305.671875 362.195312 300.175781 368.820312 C 296.871094 372.789062 292.671875 375.589844 288.019531 377.402344 C 285.976562 378.195312 283.851562 378.796875 281.664062 379.214844 C 277.5 380.027344 273.152344 380.203125 268.875 379.816406 C 266.914062 379.636719 264.96875 379.347656 263.070312 378.941406 C 260.265625 378.375 257.558594 377.546875 255.015625 376.542969 C 241.351562 371.101562 229.953125 361.335938 219.367188 351.085938 C 218.054688 341.464844 217.148438 331.519531 216.640625 321.316406 C 215.65625 301.898438 216.140625 281.410156 218.105469 260.4375 C 219.238281 248.242188 220.859375 236.144531 222.898438 224.46875 C 240.667969 183.347656 266.621094 144.960938 298.003906 113.433594 C 317.863281 93.445312 335.824219 85.347656 351.386719 89.347656 C 358.4375 91.164062 364.746094 95.417969 371.421875 99.925781 C 379.886719 105.625 388.621094 111.539062 399.339844 112.394531 C 414.21875 113.59375 426.183594 104.898438 437.726562 96.488281 C 445.683594 90.695312 453.917969 84.703125 462.820312 82.304688 C 483.585938 76.71875 506.246094 89.53125 530.140625 120.394531 C 554.507812 151.863281 576.390625 185.632812 595.195312 220.726562 C 597.304688 233.636719 598.8125 246.949219 599.652344 260.324219 Z M 654.265625 246.089844 C 652.257812 267.46875 646.066406 284.863281 635.820312 297.753906 C 628.816406 306.546875 619.414062 313.285156 609.445312 316.734375 C 609.625 299.421875 609.070312 280.730469 607.742188 259.808594 C 607.5 255.984375 607.207031 252.179688 606.851562 248.375 C 608.34375 248.015625 609.71875 247.140625 610.191406 245.945312 C 612.945312 238.996094 620.113281 246.15625 621.585938 249.945312 C 623.257812 254.203125 623.03125 259.078125 622.738281 263.582031 C 622.136719 272.519531 619.917969 281.089844 617.777344 289.769531 C 616.851562 293.445312 623.515625 293.527344 624.730469 290.722656 C 630.242188 277.898438 636.226562 254.058594 626.351562 241.832031 C 622.429688 236.988281 615.589844 235.304688 609.980469 237.070312 C 610.078125 229.992188 611.648438 223.027344 614.859375 216.597656 C 616.886719 212.53125 619.527344 209 622.429688 205.535156 C 624.308594 203.269531 625.414062 202.554688 625.234375 199.707031 C 625.203125 199.121094 624.539062 198.605469 623.96875 198.570312 C 615.574219 198.296875 609.527344 209.277344 606.332031 215.917969 C 605.296875 218.105469 604.402344 220.324219 603.691406 222.574219 C 603.511719 221.375 603.316406 220.175781 603.121094 218.996094 C 603.121094 218.914062 603.105469 218.832031 603.089844 218.75 C 600.949219 205.664062 598.128906 192.660156 594.710938 180.042969 C 603.332031 174.328125 615.523438 173.5 625.914062 178.101562 C 636.839844 182.960938 645.804688 193.292969 650.554688 206.460938 C 654.511719 217.488281 655.726562 230.445312 654.265625 246.089844 "/>
</g>
</svg>
