<?xml version="1.0" encoding="UTF-8"?>
<svg xmlns="http://www.w3.org/2000/svg" xmlns:xlink="http://www.w3.org/1999/xlink" width="810pt" height="809.999993pt" viewBox="0 0 810 809.999993" version="1.2">
<defs>
<clipPath id="clip1">
  <path d="M 124.414062 0.902344 L 685.21875 0.902344 L 685.21875 809.117188 L 124.414062 809.117188 Z M 124.414062 0.902344 "/>
</clipPath>
<clipPath id="clip2">
  <path d="M 124.414062 0.902344 L 685.21875 0.902344 L 685.21875 809.117188 L 124.414062 809.117188 Z M 124.414062 0.902344 "/>
</clipPath>
</defs>
<g id="surface1">
<g clip-path="url(#clip1)" clip-rule="nonzero">
<path style=" stroke:none;fill-rule:nonzero;fill:rgb(5.879211%,5.488586%,4.708862%);fill-opacity:1;" d="M 685.1875 674.363281 C 685.171875 674.199219 685.140625 674.023438 685.089844 673.859375 C 685.058594 673.699219 685.007812 673.539062 684.929688 673.375 C 684.816406 673.070312 684.652344 672.761719 684.445312 672.488281 C 684.347656 672.339844 684.234375 672.210938 684.105469 672.082031 C 684.074219 672.035156 684.007812 671.96875 683.960938 671.921875 C 678.871094 667.101562 673.796875 662.753906 668.675781 658.839844 C 666.945312 657.515625 665.214844 656.253906 663.472656 655.042969 C 653.226562 647.832031 642.804688 642.367188 632.011719 638.503906 C 628.601562 637.289062 625.160156 636.222656 621.671875 635.316406 C 618.328125 634.414062 614.949219 633.636719 611.574219 632.972656 C 602.21875 631.082031 592.765625 629.855469 583.492188 628.65625 C 567.21875 626.554688 550.398438 624.371094 535.082031 618.617188 C 523.980469 614.445312 514.207031 608.578125 506.222656 601.367188 C 503.914062 599.28125 501.765625 597.097656 499.761719 594.785156 C 498.566406 593.398438 497.402344 591.972656 496.320312 590.503906 C 484.621094 574.722656 478.722656 553.042969 478.773438 526.058594 L 478.773438 525.753906 C 478.789062 523.085938 478.851562 520.402344 478.964844 517.71875 C 479.386719 507.097656 480.484375 496.410156 481.550781 485.996094 C 481.921875 482.328125 482.292969 478.675781 482.632812 475.003906 C 490.730469 467.164062 498.160156 458.546875 504.753906 449.378906 C 531.800781 461.746094 562.339844 461.890625 587.125 449.652344 C 597.273438 444.625 606.613281 437.753906 614.851562 429.203125 C 629.121094 414.410156 647.734375 386.667969 655.441406 338.472656 C 670.742188 242.988281 637.878906 140.570312 569.691406 71.164062 C 522.15625 22.789062 463.519531 -2.65625 408.824219 1.304688 C 365.863281 4.410156 322.65625 25.023438 280.386719 62.5625 C 226.066406 110.804688 188.789062 172.691406 175.445312 236.847656 C 162.015625 301.242188 173.148438 368.335938 205.960938 420.925781 C 208.789062 425.46875 211.78125 429.914062 214.878906 434.152344 C 232.835938 458.742188 252.433594 472.207031 273.179688 474.195312 C 274.425781 474.308594 275.6875 474.375 276.941406 474.375 C 289.839844 474.375 303.203125 468.28125 311.878906 458.53125 C 316.582031 464.304688 321.652344 469.847656 327.019531 475.039062 C 327.359375 478.738281 327.730469 482.441406 328.117188 486.144531 C 329.425781 499.144531 330.800781 512.578125 330.847656 525.753906 C 330.847656 527.144531 330.847656 528.519531 330.816406 529.878906 C 330.78125 532.171875 330.6875 534.421875 330.558594 536.636719 C 329.246094 558.734375 323.464844 576.828125 313.316406 590.503906 C 311.214844 593.332031 308.890625 596.015625 306.335938 598.554688 C 305.027344 599.898438 303.636719 601.191406 302.183594 602.417969 C 294.429688 609.160156 285.089844 614.65625 274.550781 618.617188 C 259.238281 624.375 242.398438 626.558594 226.128906 628.660156 C 222.023438 629.191406 217.871094 629.726562 213.71875 630.324219 C 211.378906 630.664062 209.015625 631.019531 206.65625 631.40625 C 196.835938 633.007812 187.046875 635.125 177.605469 638.503906 C 167.523438 642.109375 157.746094 647.136719 148.136719 653.667969 C 146.765625 654.605469 145.390625 655.5625 144.015625 656.5625 C 137.859375 661.042969 131.769531 666.152344 125.679688 671.921875 C 125.628906 671.972656 125.566406 672.035156 125.535156 672.085938 C 125.402344 672.214844 125.285156 672.34375 125.191406 672.488281 C 124.984375 672.761719 124.820312 673.070312 124.707031 673.378906 C 124.625 673.539062 124.582031 673.699219 124.542969 673.863281 C 124.5 674.023438 124.464844 674.203125 124.449219 674.363281 C 124.433594 674.523438 124.417969 674.703125 124.417969 674.863281 C 124.417969 675.269531 124.480469 675.65625 124.59375 676.046875 C 124.644531 676.191406 124.695312 676.335938 124.757812 676.464844 C 124.820312 676.644531 124.902344 676.804688 125.015625 676.964844 C 125.046875 677.015625 125.078125 677.0625 125.109375 677.113281 C 174.339844 757.316406 284.117188 809.117188 404.816406 809.117188 C 525.515625 809.117188 635.292969 757.316406 684.523438 677.113281 L 684.621094 676.964844 C 684.734375 676.804688 684.816406 676.644531 684.878906 676.464844 C 684.945312 676.335938 684.992188 676.191406 685.042969 676.046875 C 685.15625 675.65625 685.21875 675.269531 685.21875 674.863281 C 685.21875 674.703125 685.203125 674.523438 685.1875 674.363281 "/>
</g>
<path style=" stroke:none;fill-rule:nonzero;fill:rgb(100%,100%,100%);fill-opacity:1;" d="M 289.242188 259.980469 C 289.242188 267.5625 303.21875 259.980469 320.457031 259.980469 C 337.699219 259.980469 351.675781 267.5625 351.675781 259.980469 C 351.675781 252.398438 337.699219 246.253906 320.457031 246.253906 C 303.21875 246.253906 289.242188 252.398438 289.242188 259.980469 Z M 325.257812 285.21875 C 311.070312 282.46875 296.898438 295.257812 294.1875 308.644531 C 293.765625 310.679688 296.722656 310.890625 297.820312 309.886719 C 305.882812 302.386719 314.074219 286.089844 327.226562 295.597656 C 335.679688 301.691406 335.421875 312.394531 341.382812 319.929688 C 343.128906 322.125 347.878906 321.933594 348.3125 318.601562 C 350.109375 304.761719 339.234375 287.917969 325.257812 285.21875 Z M 364.292969 371.082031 C 370.320312 379.101562 377.816406 385.792969 386.511719 390.757812 C 390.097656 392.808594 396.917969 387.570312 392.667969 384.402344 C 384.832031 378.535156 377.59375 372.292969 371.742188 364.371094 C 370.5 362.707031 367.285156 358.792969 367.121094 356.835938 C 366.847656 353.136719 371 350.855469 373.746094 350.015625 C 377.59375 348.851562 381.355469 348.171875 384.863281 346.136719 C 400.519531 337.082031 399.597656 316.484375 395.042969 301.511719 C 394.636719 300.1875 392.328125 300.753906 392.28125 302.015625 C 391.761719 314.15625 393.554688 329.128906 383.3125 337.988281 C 376.285156 344.066406 364.796875 341.753906 359.171875 350.289062 C 354.390625 357.53125 359.867188 365.164062 364.292969 371.082031 Z M 375.039062 423.285156 C 372.824219 422.007812 369.398438 424.578125 371.90625 426.535156 C 385.65625 437.316406 403.878906 439.792969 420.070312 433.148438 C 434.386719 427.277344 448.121094 413.050781 448.105469 396.738281 C 448.105469 393.277344 442.789062 392.808594 441.480469 395.769531 C 436.132812 407.796875 429.765625 419.144531 417.648438 425.46875 C 404.234375 432.484375 387.867188 430.691406 375.039062 423.285156 Z M 446.246094 258.929688 C 446.246094 266.511719 460.222656 258.929688 477.464844 258.929688 C 494.703125 258.929688 508.679688 266.511719 508.679688 258.929688 C 508.679688 251.347656 494.703125 245.203125 477.464844 245.203125 C 460.222656 245.203125 446.246094 251.347656 446.246094 258.929688 Z M 503.769531 308.644531 C 501.230469 295.144531 487.511719 282.324219 473.214844 285.332031 C 459.414062 288.222656 447.652344 305.230469 449.625 319.183594 C 450.027344 322.03125 454.761719 322.046875 456.152344 320.042969 C 462.015625 311.601562 462.128906 298.734375 472.679688 293.949219 C 485.25 288.222656 492.3125 303.292969 500.003906 309.90625 C 501.054688 310.792969 504.15625 310.679688 503.769531 308.644531 Z M 276.136719 353.378906 C 246.75 292.394531 262.03125 221.777344 297.226562 166.742188 C 300.394531 182.796875 305.710938 198.285156 316.164062 211.234375 C 326.148438 223.605469 340.125 232.027344 355.183594 233.335938 C 366.867188 250.328125 383.234375 263.117188 405.917969 259.914062 C 427.246094 256.910156 443.390625 242.453125 454.441406 224.636719 C 464.71875 228.746094 478.597656 226.773438 488.277344 221.808594 C 504.367188 213.546875 518.425781 199.417969 526.085938 182.734375 C 530.527344 193.96875 534.082031 205.609375 536.667969 217.65625 C 543.601562 249.957031 543.488281 283.746094 536.230469 316 C 532.289062 333.589844 525.90625 350.46875 518.765625 366.976562 C 515.582031 374.363281 512.207031 381.671875 508.878906 388.996094 C 506.035156 395.265625 502.835938 402.21875 504.03125 409.300781 C 504.984375 414.878906 508.3125 418.757812 512.691406 421.023438 C 508.988281 428.230469 504.773438 435.265625 500.121094 441.957031 L 500.121094 441.972656 C 493.058594 452.128906 484.949219 461.617188 476.027344 470.171875 L 475.769531 470.429688 C 470.050781 475.878906 463.878906 481.066406 457.398438 485.820312 C 439.882812 498.65625 421.203125 505.980469 404.820312 506.449219 L 404.742188 506.449219 C 388.371094 505.964844 369.726562 498.640625 352.226562 485.820312 C 345.8125 481.132812 339.65625 475.972656 333.886719 470.460938 C 333.792969 470.363281 333.695312 470.285156 333.613281 470.203125 C 326.988281 463.832031 320.785156 456.960938 315.210938 449.734375 C 315.160156 449.671875 315.113281 449.605469 315.066406 449.539062 C 312.882812 446.710938 310.800781 443.832031 308.777344 440.890625 C 316.097656 437.640625 322.335938 431.546875 323.484375 423.511719 C 325.46875 409.527344 312.109375 400.683594 303.445312 392.148438 C 292.152344 380.992188 283.023438 367.671875 276.136719 353.378906 Z M 400.363281 554.449219 C 427.554688 553.820312 450.933594 541.613281 470.730469 524.085938 C 470.875 510.992188 472.214844 497.878906 473.507812 485.171875 L 473.703125 483.183594 C 469.984375 486.386719 466.140625 489.441406 462.179688 492.351562 C 452.097656 499.722656 441.613281 505.414062 431.269531 509.179688 C 430.980469 509.441406 430.640625 509.667969 430.253906 509.828125 C 422.964844 512.964844 415.066406 514.566406 406.710938 514.566406 C 406.179688 514.566406 405.628906 514.550781 405.078125 514.53125 L 404.933594 514.53125 C 404.789062 514.550781 404.660156 514.550781 404.515625 514.53125 L 404.402344 514.53125 C 403.917969 514.550781 403.414062 514.566406 402.929688 514.566406 C 394.5625 514.566406 386.660156 512.964844 379.371094 509.828125 C 378.984375 509.652344 378.628906 509.425781 378.324219 509.148438 C 367.996094 505.382812 357.511719 499.707031 347.445312 492.351562 C 343.519531 489.472656 339.65625 486.417969 335.941406 483.199219 C 336.003906 483.914062 336.085938 484.625 336.152344 485.335938 C 337.492188 498.511719 338.863281 512.15625 338.929688 525.71875 C 338.945312 529.164062 338.863281 532.527344 338.6875 535.808594 C 356.703125 548.128906 378.371094 554.96875 400.363281 554.449219 Z M 465.898438 682.867188 C 512.835938 675.832031 557.738281 660.425781 599.878906 639.085938 C 594.0625 638.179688 588.226562 637.417969 582.460938 636.675781 C 565.734375 634.511719 548.429688 632.277344 532.242188 626.183594 C 519.089844 621.238281 507.601562 614.058594 498.457031 605.148438 C 475.15625 615.933594 449.886719 622.660156 424.628906 625.214844 C 385.1875 629.207031 345.878906 622.175781 310.121094 606.152344 C 301.152344 614.609375 290.035156 621.414062 277.402344 626.183594 C 261.191406 632.277344 243.902344 634.511719 227.167969 636.675781 C 225.082031 636.949219 222.960938 637.226562 220.867188 637.5 C 239.449219 654.378906 264.152344 664.433594 288.082031 671.355469 C 345.636719 688.023438 406.664062 691.742188 465.898438 682.867188 Z M 675.980469 675.542969 C 627.410156 751.867188 521.429688 801.03125 404.820312 801.03125 C 288.210938 801.03125 182.230469 751.867188 133.660156 675.542969 C 138.867188 670.757812 144.066406 666.488281 149.300781 662.738281 C 199.324219 719.984375 267.382812 759.871094 342.0625 774.921875 C 418.777344 790.394531 499.40625 777.21875 568.398438 740.726562 C 604.398438 721.699219 637.359375 696.367188 663.566406 665.113281 C 667.722656 668.265625 671.855469 671.742188 675.976562 675.542969 "/>
<g clip-path="url(#clip2)" clip-rule="nonzero">
<path style=" stroke:none;fill-rule:nonzero;fill:rgb(5.879211%,5.488586%,4.708862%);fill-opacity:1;" d="M 351.675781 259.980469 C 351.675781 252.398438 337.699219 246.253906 320.457031 246.253906 C 303.21875 246.253906 289.242188 252.398438 289.242188 259.980469 C 289.242188 267.5625 303.21875 259.980469 320.457031 259.980469 C 337.699219 259.980469 351.675781 267.5625 351.675781 259.980469 Z M 348.3125 318.601562 C 350.109375 304.761719 339.234375 287.917969 325.257812 285.21875 C 311.070312 282.46875 296.898438 295.257812 294.1875 308.644531 C 293.765625 310.679688 296.722656 310.890625 297.820312 309.886719 C 305.882812 302.386719 314.074219 286.089844 327.226562 295.597656 C 335.679688 301.691406 335.421875 312.394531 341.382812 319.929688 C 343.128906 322.125 347.878906 321.933594 348.3125 318.601562 Z M 386.511719 390.757812 C 390.097656 392.808594 396.917969 387.570312 392.667969 384.402344 C 384.832031 378.535156 377.59375 372.292969 371.742188 364.371094 C 370.5 362.707031 367.285156 358.792969 367.121094 356.835938 C 366.847656 353.136719 371 350.855469 373.746094 350.015625 C 377.59375 348.851562 381.355469 348.171875 384.863281 346.136719 C 400.519531 337.082031 399.597656 316.484375 395.042969 301.511719 C 394.636719 300.1875 392.328125 300.753906 392.28125 302.015625 C 391.761719 314.15625 393.554688 329.128906 383.3125 337.988281 C 376.28125 344.066406 364.796875 341.753906 359.171875 350.289062 C 354.390625 357.53125 359.867188 365.164062 364.292969 371.082031 C 370.320312 379.101562 377.816406 385.792969 386.511719 390.757812 Z M 675.976562 675.542969 C 671.855469 671.742188 667.722656 668.265625 663.566406 665.113281 C 637.359375 696.367188 604.398438 721.699219 568.398438 740.726562 C 499.40625 777.21875 418.777344 790.394531 342.0625 774.921875 C 267.378906 759.871094 199.320312 719.984375 149.300781 662.738281 C 144.0625 666.488281 138.863281 670.757812 133.65625 675.542969 C 182.230469 751.867188 288.207031 801.03125 404.816406 801.03125 C 521.425781 801.03125 627.40625 751.867188 675.976562 675.542969 Z M 220.863281 637.5 C 239.441406 654.378906 264.148438 664.433594 288.078125 671.355469 C 345.628906 688.023438 406.65625 691.742188 465.890625 682.867188 C 512.832031 675.832031 557.734375 660.425781 599.871094 639.085938 C 594.054688 638.179688 588.222656 637.417969 582.453125 636.675781 C 565.730469 634.507812 548.425781 632.277344 532.234375 626.183594 C 519.082031 621.238281 507.59375 614.058594 498.449219 605.148438 C 475.152344 615.933594 449.878906 622.660156 424.625 625.214844 C 385.183594 629.207031 345.871094 622.175781 310.117188 606.152344 C 301.148438 614.609375 290.03125 621.414062 277.394531 626.183594 C 261.1875 632.277344 243.898438 634.507812 227.160156 636.675781 C 225.078125 636.949219 222.957031 637.226562 220.863281 637.5 Z M 333.609375 470.203125 C 333.691406 470.28125 333.785156 470.363281 333.882812 470.460938 C 339.652344 475.972656 345.808594 481.132812 352.222656 485.820312 C 369.722656 498.640625 388.367188 505.964844 404.734375 506.449219 L 404.816406 506.449219 C 421.199219 505.980469 439.878906 498.65625 457.394531 485.820312 C 463.871094 481.066406 470.046875 475.878906 475.765625 470.429688 L 476.023438 470.171875 C 484.941406 461.617188 493.054688 452.128906 500.113281 441.972656 L 500.113281 441.957031 C 504.769531 435.265625 508.984375 428.230469 512.683594 421.023438 C 508.304688 418.757812 504.976562 414.878906 504.023438 409.300781 C 502.828125 402.21875 506.027344 395.265625 508.871094 388.996094 C 512.199219 381.671875 515.578125 374.363281 518.761719 366.976562 C 525.902344 350.46875 532.285156 333.589844 536.226562 316 C 543.480469 283.746094 543.59375 249.957031 536.664062 217.652344 C 534.078125 205.609375 530.523438 193.96875 526.082031 182.734375 C 518.421875 199.417969 504.363281 213.546875 488.269531 221.808594 C 478.59375 226.773438 464.714844 228.746094 454.4375 224.636719 C 443.382812 242.453125 427.242188 256.910156 405.914062 259.914062 C 383.230469 263.117188 366.863281 250.328125 355.179688 233.335938 C 340.121094 232.027344 326.144531 223.605469 316.160156 211.234375 C 305.703125 198.285156 300.386719 182.796875 297.222656 166.742188 C 262.027344 221.777344 246.746094 292.394531 276.132812 353.378906 C 283.019531 367.667969 292.148438 380.992188 303.441406 392.148438 C 312.101562 400.683594 325.464844 409.527344 323.476562 423.511719 C 322.332031 431.546875 316.09375 437.640625 308.773438 440.890625 C 310.792969 443.832031 312.878906 446.710938 315.058594 449.539062 C 315.109375 449.605469 315.15625 449.671875 315.207031 449.734375 C 320.78125 456.960938 326.984375 463.832031 333.609375 470.203125 Z M 473.695312 483.183594 C 469.980469 486.386719 466.136719 489.441406 462.175781 492.351562 C 452.09375 499.722656 441.605469 505.414062 431.265625 509.179688 C 430.976562 509.441406 430.636719 509.667969 430.25 509.828125 C 422.960938 512.964844 415.058594 514.566406 406.707031 514.566406 C 406.171875 514.566406 405.625 514.550781 405.074219 514.53125 L 404.929688 514.53125 C 404.785156 514.550781 404.65625 514.550781 404.507812 514.53125 L 404.394531 514.53125 C 403.910156 514.550781 403.410156 514.566406 402.925781 514.566406 C 394.554688 514.566406 386.65625 512.964844 379.367188 509.828125 C 378.980469 509.648438 378.625 509.425781 378.316406 509.148438 C 367.992188 505.382812 357.507812 499.707031 347.441406 492.351562 C 343.511719 489.472656 339.652344 486.417969 335.9375 483.199219 C 336 483.910156 336.082031 484.625 336.144531 485.335938 C 337.488281 498.511719 338.859375 512.15625 338.925781 525.71875 C 338.941406 529.164062 338.859375 532.527344 338.683594 535.808594 C 356.699219 548.128906 378.367188 554.96875 400.355469 554.449219 C 427.550781 553.820312 450.929688 541.613281 470.722656 524.085938 C 470.867188 510.992188 472.210938 497.878906 473.503906 485.171875 Z M 685.21875 674.863281 C 685.21875 675.265625 685.152344 675.65625 685.039062 676.042969 C 684.992188 676.1875 684.941406 676.335938 684.878906 676.464844 C 684.8125 676.640625 684.734375 676.804688 684.621094 676.964844 L 684.523438 677.109375 C 635.289062 757.316406 525.515625 809.117188 404.816406 809.117188 C 284.117188 809.117188 174.34375 757.316406 125.109375 677.109375 C 125.078125 677.0625 125.046875 677.011719 125.015625 676.964844 C 124.898438 676.804688 124.816406 676.640625 124.753906 676.464844 C 124.691406 676.335938 124.640625 676.1875 124.589844 676.042969 C 124.476562 675.65625 124.414062 675.265625 124.414062 674.863281 C 124.414062 674.703125 124.433594 674.523438 124.445312 674.363281 C 124.464844 674.199219 124.496094 674.023438 124.539062 673.859375 C 124.578125 673.699219 124.621094 673.539062 124.703125 673.375 C 124.816406 673.070312 124.980469 672.761719 125.191406 672.488281 C 125.285156 672.339844 125.398438 672.210938 125.53125 672.082031 C 125.5625 672.035156 125.625 671.96875 125.675781 671.921875 C 131.765625 666.148438 137.859375 661.039062 144.011719 656.5625 C 145.386719 655.558594 146.765625 654.605469 148.132812 653.667969 C 157.746094 647.136719 167.523438 642.109375 177.601562 638.503906 C 187.046875 635.125 196.832031 633.007812 206.65625 631.40625 C 209.015625 631.019531 211.375 630.660156 213.71875 630.324219 C 217.871094 629.722656 222.023438 629.191406 226.125 628.65625 C 242.398438 626.554688 259.238281 624.371094 274.550781 618.617188 C 285.089844 614.65625 294.425781 609.160156 302.183594 602.417969 C 303.636719 601.1875 305.027344 599.894531 306.335938 598.554688 C 308.886719 596.015625 311.214844 593.332031 313.316406 590.503906 C 323.460938 576.824219 329.246094 558.734375 330.554688 536.632812 C 330.683594 534.417969 330.78125 532.171875 330.8125 529.875 C 330.847656 528.515625 330.847656 527.144531 330.847656 525.753906 C 330.796875 512.578125 329.425781 499.140625 328.117188 486.144531 C 327.726562 482.441406 327.355469 478.738281 327.015625 475.035156 C 321.652344 469.847656 316.578125 464.300781 311.878906 458.53125 C 303.199219 468.277344 289.839844 474.375 276.941406 474.375 C 275.683594 474.375 274.421875 474.308594 273.179688 474.195312 C 252.433594 472.207031 232.835938 458.738281 214.878906 434.148438 C 211.78125 429.914062 208.789062 425.46875 205.960938 420.925781 C 173.148438 368.332031 162.015625 301.238281 175.445312 236.84375 C 188.789062 172.691406 226.0625 110.804688 280.386719 62.5625 C 322.65625 25.023438 365.859375 4.410156 408.824219 1.304688 C 463.519531 -2.65625 522.152344 22.789062 569.691406 71.164062 C 637.875 140.570312 670.742188 242.988281 655.441406 338.472656 C 647.730469 386.667969 629.117188 414.410156 614.851562 429.203125 C 606.609375 437.757812 597.273438 444.628906 587.125 449.65625 C 562.339844 461.894531 531.800781 461.75 504.753906 449.378906 C 498.160156 458.546875 490.726562 467.164062 482.632812 475.003906 C 482.292969 478.675781 481.921875 482.328125 481.550781 486 C 480.484375 496.410156 479.382812 507.097656 478.964844 517.71875 C 478.851562 520.402344 478.785156 523.085938 478.769531 525.753906 L 478.769531 526.0625 C 478.722656 553.042969 484.621094 574.726562 496.316406 590.503906 C 497.402344 591.976562 498.5625 593.398438 499.757812 594.789062 C 501.761719 597.101562 503.914062 599.28125 506.222656 601.367188 C 514.203125 608.578125 523.980469 614.449219 535.082031 618.617188 C 550.398438 624.375 567.21875 626.558594 583.488281 628.660156 C 592.761719 629.855469 602.214844 631.082031 611.570312 632.976562 C 614.949219 633.636719 618.324219 634.414062 621.667969 635.320312 C 625.160156 636.226562 628.601562 637.292969 632.011719 638.503906 C 642.804688 642.367188 653.226562 647.832031 663.46875 655.042969 C 665.214844 656.257812 666.945312 657.515625 668.671875 658.84375 C 673.792969 662.753906 678.867188 667.105469 683.957031 671.921875 C 684.007812 671.972656 684.070312 672.035156 684.101562 672.085938 C 684.234375 672.214844 684.347656 672.34375 684.441406 672.488281 C 684.652344 672.761719 684.8125 673.070312 684.925781 673.378906 C 685.007812 673.539062 685.058594 673.699219 685.089844 673.863281 C 685.136719 674.023438 685.167969 674.203125 685.1875 674.363281 C 685.203125 674.523438 685.21875 674.703125 685.21875 674.863281 Z M 371.902344 426.535156 C 385.652344 437.316406 403.878906 439.792969 420.070312 433.148438 C 434.386719 427.277344 448.117188 413.050781 448.101562 396.738281 C 448.101562 393.277344 442.785156 392.808594 441.476562 395.769531 C 436.128906 407.796875 429.765625 419.144531 417.644531 425.46875 C 404.234375 432.484375 387.867188 430.691406 375.039062 423.285156 C 372.824219 422.007812 369.398438 424.578125 371.902344 426.535156 Z M 473.210938 285.332031 C 459.414062 288.222656 447.652344 305.230469 449.621094 319.183594 C 450.027344 322.03125 454.761719 322.046875 456.148438 320.042969 C 462.015625 311.601562 462.128906 298.734375 472.679688 293.949219 C 485.25 288.222656 492.308594 303.292969 500 309.90625 C 501.050781 310.792969 504.152344 310.679688 503.765625 308.644531 C 501.230469 295.144531 487.511719 282.324219 473.210938 285.332031 Z M 446.246094 258.929688 C 446.246094 251.347656 460.222656 245.203125 477.460938 245.203125 C 494.703125 245.203125 508.679688 251.347656 508.679688 258.929688 C 508.679688 266.511719 494.703125 258.929688 477.460938 258.929688 C 460.222656 258.929688 446.246094 266.511719 446.246094 258.929688 "/>
</g>
</g>
</svg>
