<?xml version="1.0" encoding="UTF-8"?>
<svg xmlns="http://www.w3.org/2000/svg" xmlns:xlink="http://www.w3.org/1999/xlink" width="810pt" height="809.999993pt" viewBox="0 0 810 809.999993" version="1.2">
<defs>
<clipPath id="clip1">
  <path d="M 140.738281 423 L 323 423 L 323 605 L 140.738281 605 Z M 140.738281 423 "/>
</clipPath>
<clipPath id="clip2">
  <path d="M 488 423 L 669.488281 423 L 669.488281 605 L 488 605 Z M 488 423 "/>
</clipPath>
<clipPath id="clip3">
  <path d="M 285 589 L 551 589 L 551 809.070312 L 285 809.070312 Z M 285 589 "/>
</clipPath>
<clipPath id="clip4">
  <path d="M 280 585 L 555 585 L 555 809.070312 L 280 809.070312 Z M 280 585 "/>
</clipPath>
<clipPath id="clip5">
  <path d="M 451 589 L 644.832031 589 L 644.832031 809.070312 L 451 809.070312 Z M 451 589 "/>
</clipPath>
<clipPath id="clip6">
  <path d="M 535.554688 727 L 611 727 L 611 809.070312 L 535.554688 809.070312 Z M 535.554688 727 "/>
</clipPath>
<clipPath id="clip7">
  <path d="M 446 585 L 650 585 L 650 809.070312 L 446 809.070312 Z M 446 585 "/>
</clipPath>
<clipPath id="clip8">
  <path d="M 182 589 L 384 589 L 384 809.070312 L 182 809.070312 Z M 182 589 "/>
</clipPath>
<clipPath id="clip9">
  <path d="M 177.367188 585 L 389 585 L 389 809.070312 L 177.367188 809.070312 Z M 177.367188 585 "/>
</clipPath>
<clipPath id="clip10">
  <path d="M 215.816406 727 L 292 727 L 292 809.070312 L 215.816406 809.070312 Z M 215.816406 727 "/>
</clipPath>
<clipPath id="clip11">
  <path d="M 462 737 L 523 737 L 523 809.070312 L 462 809.070312 Z M 462 737 "/>
</clipPath>
<clipPath id="clip12">
  <path d="M 535.554688 727 L 611 727 L 611 809.070312 L 535.554688 809.070312 Z M 535.554688 727 "/>
</clipPath>
<clipPath id="clip13">
  <path d="M 446 585 L 650 585 L 650 809.070312 L 446 809.070312 Z M 446 585 "/>
</clipPath>
<clipPath id="clip14">
  <path d="M 177.367188 585 L 389 585 L 389 809.070312 L 177.367188 809.070312 Z M 177.367188 585 "/>
</clipPath>
<clipPath id="clip15">
  <path d="M 215.816406 727 L 292 727 L 292 809.070312 L 215.816406 809.070312 Z M 215.816406 727 "/>
</clipPath>
</defs>
<g id="surface1">
<path style=" stroke:none;fill-rule:nonzero;fill:rgb(13.729858%,12.159729%,12.548828%);fill-opacity:1;" d="M 317.75 513.867188 C 317.75 561.390625 279.1875 599.925781 231.617188 599.925781 C 184.046875 599.925781 145.484375 561.390625 145.484375 513.867188 C 145.484375 466.339844 184.046875 427.8125 231.617188 427.8125 C 279.1875 427.8125 317.75 466.339844 317.75 513.867188 "/>
<g clip-path="url(#clip1)" clip-rule="nonzero">
<path style=" stroke:none;fill-rule:nonzero;fill:rgb(1.568604%,2.349854%,2.349854%);fill-opacity:1;" d="M 231.617188 432.503906 C 186.710938 432.503906 150.1875 469.007812 150.1875 513.867188 C 150.1875 558.738281 186.710938 595.226562 231.617188 595.226562 C 276.515625 595.226562 313.046875 558.738281 313.046875 513.867188 C 313.046875 469.007812 276.515625 432.503906 231.617188 432.503906 Z M 231.617188 604.617188 C 181.53125 604.617188 140.78125 563.910156 140.78125 513.867188 C 140.78125 463.828125 181.53125 423.113281 231.617188 423.113281 C 281.703125 423.113281 322.445312 463.828125 322.445312 513.867188 C 322.445312 563.910156 281.703125 604.617188 231.617188 604.617188 "/>
</g>
<path style=" stroke:none;fill-rule:nonzero;fill:rgb(13.729858%,12.159729%,12.548828%);fill-opacity:1;" d="M 664.972656 513.867188 C 664.972656 561.390625 626.414062 599.925781 578.847656 599.925781 C 531.277344 599.925781 492.714844 561.390625 492.714844 513.867188 C 492.714844 466.339844 531.277344 427.8125 578.847656 427.8125 C 626.414062 427.8125 664.972656 466.339844 664.972656 513.867188 "/>
<g clip-path="url(#clip2)" clip-rule="nonzero">
<path style=" stroke:none;fill-rule:nonzero;fill:rgb(1.568604%,2.349854%,2.349854%);fill-opacity:1;" d="M 578.847656 432.503906 C 533.941406 432.503906 497.414062 469.007812 497.414062 513.867188 C 497.414062 558.738281 533.941406 595.226562 578.847656 595.226562 C 623.75 595.226562 660.277344 558.738281 660.277344 513.867188 C 660.277344 469.007812 623.75 432.503906 578.847656 432.503906 Z M 578.847656 604.617188 C 528.761719 604.617188 488.011719 563.910156 488.011719 513.867188 C 488.011719 463.828125 528.761719 423.113281 578.847656 423.113281 C 628.925781 423.113281 669.675781 463.828125 669.675781 513.867188 C 669.675781 563.910156 628.925781 604.617188 578.847656 604.617188 "/>
</g>
<g clip-path="url(#clip3)" clip-rule="nonzero">
<path style=" stroke:none;fill-rule:nonzero;fill:rgb(100%,100%,100%);fill-opacity:1;" d="M 291.664062 809.070312 L 541.59375 809.070312 C 542.597656 787.800781 544.453125 767.683594 546.175781 749.289062 C 550.945312 698.363281 554.707031 658.132812 537.214844 632.328125 C 523.277344 611.753906 492.433594 596.402344 452.386719 590.179688 C 449.277344 590.179688 443.707031 597.371094 439.644531 602.625 C 433.089844 611.082031 426.90625 619.070312 418.75 619.070312 C 410.246094 618.949219 403.074219 610.65625 396.132812 602.632812 C 391.210938 596.929688 385.074219 589.839844 381.140625 589.839844 L 380.710938 589.871094 C 342.082031 595.675781 313.179688 610.46875 299.339844 631.523438 C 281.164062 659.160156 284.328125 701.679688 288.34375 755.511719 C 289.574219 772.082031 290.902344 790.136719 291.664062 809.070312 "/>
</g>
<g clip-path="url(#clip4)" clip-rule="nonzero">
<path style=" stroke:none;fill-rule:nonzero;fill:rgb(1.568604%,2.349854%,2.349854%);fill-opacity:1;" d="M 296.382812 809.070312 C 295.625 790.003906 294.28125 771.828125 293.039062 755.164062 C 289.101562 702.21875 285.988281 660.40625 303.28125 634.105469 C 316.34375 614.25 343.960938 600.214844 381.089844 594.578125 C 383.652344 595.398438 389.210938 601.828125 392.5625 605.707031 C 400.183594 614.527344 408.0625 623.632812 418.6875 623.785156 L 418.910156 623.785156 C 429.222656 623.785156 436.417969 614.496094 443.375 605.507812 C 446.054688 602.039062 450.441406 596.371094 452.75 594.988281 C 490.867188 601.078125 520.203125 615.625 533.308594 634.96875 C 549.851562 659.371094 546.160156 698.859375 541.480469 748.855469 C 539.75 767.367188 537.878906 787.617188 536.875 809.070312 L 546.304688 809.070312 C 550.066406 729.601562 566.175781 666.652344 541.117188 629.683594 C 525.378906 606.464844 491.460938 591.480469 453.320312 585.535156 C 453.011719 585.488281 452.695312 585.464844 452.386719 585.464844 C 441.453125 585.464844 430.1875 614.363281 418.910156 614.363281 L 418.820312 614.363281 C 406.117188 614.1875 393.398438 585.125 381.140625 585.125 C 380.765625 585.125 380.386719 585.15625 380.015625 585.210938 C 343.457031 590.699219 311.109375 605.042969 295.394531 628.933594 C 270.4375 666.890625 283.757812 730.304688 286.953125 809.070312 L 296.382812 809.070312 "/>
</g>
<path style=" stroke:none;fill-rule:nonzero;fill:rgb(100%,100%,100%);fill-opacity:1;" d="M 417.921875 618.335938 C 407.3125 618.335938 396.285156 610.964844 385.128906 596.417969 L 385.128906 548.707031 C 400.183594 551.097656 415.507812 552.308594 430.773438 552.308594 C 436.773438 552.308594 442.980469 552.09375 449.285156 551.667969 L 449.285156 595.167969 C 446.726562 599.5625 434.773438 618.335938 417.921875 618.335938 "/>
<path style=" stroke:none;fill-rule:nonzero;fill:rgb(1.568604%,2.349854%,2.349854%);fill-opacity:1;" d="M 380.640625 543.40625 L 380.640625 597.917969 C 394.5625 616.550781 407.210938 622.820312 417.921875 622.820312 C 439.933594 622.820312 453.777344 596.339844 453.777344 596.339844 L 453.777344 546.835938 C 446.226562 547.464844 438.558594 547.820312 430.773438 547.820312 C 413.550781 547.820312 396.820312 546.28125 380.640625 543.40625 M 389.613281 553.910156 C 403.226562 555.820312 417.027344 556.792969 430.773438 556.792969 C 435.34375 556.792969 440.039062 556.667969 444.796875 556.421875 L 444.796875 593.976562 C 440.632812 600.839844 430.203125 613.847656 417.921875 613.847656 C 407.128906 613.847656 396.847656 604.015625 389.613281 594.878906 L 389.613281 553.910156 "/>
<path style=" stroke:none;fill-rule:nonzero;fill:rgb(100%,100%,100%);fill-opacity:1;" d="M 395.113281 601.21875 C 393.136719 599.15625 391.296875 596.992188 389.613281 594.878906 L 389.613281 553.910156 C 403.226562 555.820312 417.027344 556.792969 430.773438 556.792969 C 431.375 556.792969 431.976562 556.785156 432.574219 556.785156 C 425.003906 559.960938 418.039062 564.574219 412.15625 570.457031 C 403.667969 578.9375 397.808594 589.664062 395.113281 601.21875 "/>
<path style=" stroke:none;fill-rule:nonzero;fill:rgb(1.568604%,2.349854%,2.349854%);fill-opacity:1;" d="M 393.527344 612.085938 C 389.375 608.46875 385.074219 603.847656 380.640625 597.917969 L 380.640625 543.40625 C 396.820312 546.28125 413.550781 547.820312 430.773438 547.820312 C 438.558594 547.820312 446.226562 547.464844 453.777344 546.835938 L 453.777344 551.839844 C 446.449219 552.285156 439.273438 553.972656 432.574219 556.785156 C 431.976562 556.785156 431.375 556.792969 430.773438 556.792969 C 417.027344 556.792969 403.226562 555.820312 389.613281 553.910156 L 389.613281 594.878906 C 391.296875 596.992188 393.136719 599.15625 395.113281 601.21875 C 394.277344 604.78125 393.746094 608.414062 393.527344 612.085938 "/>
<path style=" stroke:none;fill-rule:nonzero;fill:rgb(1.568604%,2.349854%,2.349854%);fill-opacity:1;" d="M 380.640625 543.40625 L 380.640625 597.917969 C 394.5625 616.550781 407.210938 622.820312 417.921875 622.820312 C 439.933594 622.820312 453.777344 596.339844 453.777344 596.339844 L 453.777344 546.835938 C 446.226562 547.464844 438.558594 547.820312 430.773438 547.820312 C 413.550781 547.820312 396.820312 546.28125 380.640625 543.40625 Z M 389.613281 553.910156 C 403.226562 555.820312 417.027344 556.792969 430.773438 556.792969 C 435.34375 556.792969 440.039062 556.667969 444.796875 556.421875 L 444.796875 593.976562 C 440.632812 600.839844 430.203125 613.847656 417.921875 613.847656 C 407.128906 613.847656 396.847656 604.015625 389.613281 594.878906 L 389.613281 553.910156 "/>
<g clip-path="url(#clip5)" clip-rule="nonzero">
<path style=" stroke:none;fill-rule:nonzero;fill:rgb(13.729858%,12.159729%,12.548828%);fill-opacity:1;" d="M 540.359375 809.070312 C 541.125 790.121094 542.453125 772.050781 543.695312 755.464844 C 544.167969 749.027344 544.636719 742.742188 545.0625 736.605469 C 545.191406 734.726562 546.429688 733.097656 548.21875 732.476562 C 548.722656 732.300781 549.246094 732.214844 549.765625 732.214844 C 551.070312 732.214844 552.34375 732.757812 553.253906 733.753906 L 555.851562 736.597656 C 573.1875 755.550781 592.832031 777.042969 602.175781 799.929688 C 603.363281 802.828125 604.59375 805.902344 605.820312 809.070312 L 644.285156 809.070312 C 633.960938 783.707031 623.496094 760.242188 612.515625 737.867188 C 608.175781 729.007812 603.757812 720.375 599.402344 712.199219 C 594.351562 702.730469 590.144531 692.550781 586.066406 682.710938 C 579.710938 667.347656 573.148438 651.464844 563.402344 638.488281 C 559.640625 633.464844 557.742188 631.679688 553.15625 627.371094 L 551.964844 626.238281 C 542.367188 617.164062 526.621094 610.578125 514.527344 610.578125 C 513.902344 610.578125 513.292969 610.601562 512.699219 610.640625 L 512.398438 610.648438 C 511.507812 610.648438 510.636719 610.398438 509.878906 609.914062 C 494.707031 600.3125 474.566406 593.402344 451.800781 589.925781 C 451.59375 590.105469 451.335938 590.40625 451.097656 590.738281 L 451.097656 809.070312 L 540.359375 809.070312 "/>
</g>
<g clip-path="url(#clip6)" clip-rule="nonzero">
<path style=" stroke:none;fill-rule:nonzero;fill:rgb(1.568604%,2.349854%,2.349854%);fill-opacity:1;" d="M 559.332031 733.414062 L 556.738281 730.578125 C 554.914062 728.582031 552.375 727.5 549.765625 727.5 C 548.730469 727.5 547.679688 727.671875 546.660156 728.027344 C 543.09375 729.269531 540.621094 732.523438 540.359375 736.28125 C 539.933594 742.410156 539.464844 748.6875 538.992188 755.109375 C 537.75 771.796875 536.40625 789.980469 535.640625 809.070312 L 545.070312 809.070312 C 546.121094 783.265625 548.242188 759.082031 549.765625 736.929688 C 567.988281 756.894531 588.335938 778.503906 597.8125 801.707031 C 598.808594 804.15625 599.789062 806.605469 600.753906 809.070312 L 610.878906 809.070312 C 609.433594 805.253906 607.945312 801.597656 606.539062 798.144531 C 596.878906 774.484375 576.929688 752.667969 559.332031 733.414062 "/>
</g>
<g clip-path="url(#clip7)" clip-rule="nonzero">
<path style=" stroke:none;fill-rule:nonzero;fill:rgb(1.568604%,2.349854%,2.349854%);fill-opacity:1;" d="M 455.816406 809.070312 L 455.816406 595.382812 C 476.085938 598.960938 493.824219 605.328125 507.347656 613.894531 C 508.867188 614.851562 510.621094 615.355469 512.398438 615.355469 C 512.597656 615.355469 512.796875 615.347656 512.992188 615.339844 C 513.5 615.308594 514.003906 615.292969 514.527344 615.292969 C 525.355469 615.292969 540.058594 621.46875 548.730469 629.667969 L 549.925781 630.796875 C 554.421875 635.03125 556.105469 636.617188 559.632812 641.316406 C 569.015625 653.820312 575.179688 668.722656 581.710938 684.511719 C 585.820312 694.460938 590.082031 704.746094 595.234375 714.429688 C 599.574219 722.546875 603.960938 731.132812 608.277344 739.945312 C 618.957031 761.695312 629.140625 784.492188 639.195312 809.070312 L 649.34375 809.070312 C 639.296875 784.316406 628.523438 759.777344 616.746094 735.792969 C 612.492188 727.121094 608.113281 718.519531 603.558594 709.988281 C 590.714844 685.878906 583.582031 657.523438 567.179688 635.660156 C 562.832031 629.878906 560.644531 627.953125 555.203125 622.820312 C 544.613281 612.804688 527.484375 605.871094 514.527344 605.871094 C 513.808594 605.871094 513.09375 605.894531 512.398438 605.933594 C 495.902344 595.484375 474.773438 588.628906 452.015625 585.210938 L 451.515625 585.171875 C 448.441406 585.171875 446.386719 589.453125 446.386719 589.453125 L 446.386719 809.070312 L 455.816406 809.070312 "/>
</g>
<g clip-path="url(#clip8)" clip-rule="nonzero">
<path style=" stroke:none;fill-rule:nonzero;fill:rgb(13.729858%,12.159729%,12.548828%);fill-opacity:1;" d="M 221.039062 809.070312 C 222.265625 805.902344 223.507812 802.828125 224.691406 799.929688 C 234.035156 777.027344 253.695312 755.527344 271.046875 736.558594 L 273.617188 733.753906 C 274.523438 732.757812 275.796875 732.214844 277.09375 732.214844 C 277.617188 732.214844 278.144531 732.300781 278.652344 732.476562 C 280.4375 733.097656 281.671875 734.726562 281.804688 736.605469 C 282.222656 742.710938 282.691406 748.964844 283.164062 755.371094 C 284.398438 771.980469 285.734375 790.082031 286.5 809.070312 L 384 809.070312 L 384 594.964844 C 380.546875 591.558594 377.84375 589.839844 375.96875 589.839844 L 375.542969 589.871094 C 352.46875 593.34375 332.214844 600.273438 316.972656 609.914062 C 316.222656 610.398438 315.347656 610.648438 314.453125 610.648438 L 314.160156 610.640625 C 313.566406 610.601562 312.949219 610.578125 312.335938 610.578125 C 300.238281 610.578125 284.492188 617.164062 274.890625 626.238281 L 273.679688 627.386719 C 269.109375 631.691406 267.222656 633.472656 263.457031 638.488281 C 253.71875 651.464844 247.148438 667.339844 240.800781 682.695312 C 236.730469 692.542969 232.511719 702.730469 227.460938 712.199219 C 223.113281 720.367188 218.699219 729 214.34375 737.867188 C 203.390625 760.1875 192.921875 783.660156 182.574219 809.070312 L 221.039062 809.070312 "/>
</g>
<g clip-path="url(#clip9)" clip-rule="nonzero">
<path style=" stroke:none;fill-rule:nonzero;fill:rgb(1.568604%,2.349854%,2.349854%);fill-opacity:1;" d="M 187.664062 809.070312 C 197.738281 784.441406 207.925781 761.648438 218.574219 739.945312 C 222.914062 731.117188 227.300781 722.53125 231.625 714.421875 C 236.777344 704.746094 241.039062 694.445312 245.160156 684.496094 C 251.6875 668.714844 257.855469 653.8125 267.230469 641.316406 C 270.753906 636.625 272.429688 635.046875 276.914062 630.8125 L 278.136719 629.660156 C 286.800781 621.46875 301.503906 615.292969 312.335938 615.292969 C 312.847656 615.292969 313.363281 615.308594 313.859375 615.339844 C 314.066406 615.347656 314.253906 615.355469 314.453125 615.355469 C 316.238281 615.355469 317.984375 614.851562 319.503906 613.894531 C 334.121094 604.648438 353.613281 597.972656 375.898438 594.578125 C 376.285156 594.726562 377.320312 595.234375 379.28125 596.992188 L 379.28125 809.070312 L 388.71875 809.070312 L 388.71875 593.035156 C 384.425781 588.542969 380.175781 585.125 375.96875 585.125 C 375.589844 585.125 375.21875 585.15625 374.847656 585.210938 C 352.089844 588.628906 330.964844 595.484375 314.453125 605.933594 C 313.765625 605.894531 313.054688 605.871094 312.335938 605.871094 C 299.371094 605.871094 282.25 612.804688 271.65625 622.820312 C 266.21875 627.953125 264.027344 629.878906 259.6875 635.660156 C 243.285156 657.523438 236.15625 685.878906 223.292969 709.988281 C 218.757812 718.519531 214.367188 727.121094 210.109375 735.792969 C 198.335938 759.777344 187.5625 784.316406 177.515625 809.070312 L 187.664062 809.070312 "/>
</g>
<g clip-path="url(#clip10)" clip-rule="nonzero">
<path style=" stroke:none;fill-rule:nonzero;fill:rgb(1.568604%,2.349854%,2.349854%);fill-opacity:1;" d="M 286.507812 736.28125 C 286.25 732.523438 283.765625 729.277344 280.199219 728.027344 C 279.1875 727.671875 278.136719 727.5 277.101562 727.5 C 274.492188 727.5 271.949219 728.582031 270.128906 730.578125 L 267.570312 733.382812 C 249.949219 752.636719 229.980469 774.46875 220.328125 798.144531 C 218.914062 801.589844 217.4375 805.253906 215.980469 809.070312 L 226.109375 809.070312 C 227.070312 806.605469 228.058594 804.15625 229.054688 801.707031 C 238.527344 778.503906 258.867188 756.894531 277.09375 736.929688 C 278.621094 759.082031 280.738281 783.265625 281.78125 809.070312 L 291.21875 809.070312 C 290.453125 789.949219 289.109375 771.726562 287.867188 755.023438 C 287.394531 748.625 286.929688 742.378906 286.507812 736.28125 "/>
</g>
<path style=" stroke:none;fill-rule:nonzero;fill:rgb(0%,0%,0%);fill-opacity:1;" d="M 472.039062 753.910156 L 472.039062 704.042969 L 479.253906 704.042969 L 479.253906 753.910156 L 472.039062 753.910156 "/>
<path style=" stroke:none;fill-rule:nonzero;fill:rgb(1.568604%,2.349854%,2.349854%);fill-opacity:1;" d="M 480.386719 702.90625 L 470.90625 702.90625 L 470.90625 755.039062 L 480.386719 755.039062 Z M 478.117188 705.171875 L 478.117188 752.773438 L 473.167969 752.773438 L 473.167969 705.171875 L 478.117188 705.171875 "/>
<path style=" stroke:none;fill-rule:nonzero;fill:rgb(100%,100%,100%);fill-opacity:1;" d="M 470.597656 713.796875 L 470.597656 700.851562 L 480.675781 700.851562 L 480.675781 713.796875 L 470.597656 713.796875 "/>
<path style=" stroke:none;fill-rule:nonzero;fill:rgb(1.568604%,2.349854%,2.349854%);fill-opacity:1;" d="M 481.632812 699.894531 L 469.640625 699.894531 L 469.640625 714.75 L 481.632812 714.75 Z M 479.714844 701.816406 L 479.714844 712.832031 L 471.5625 712.832031 L 471.5625 701.816406 L 479.714844 701.816406 "/>
<path style=" stroke:none;fill-rule:nonzero;fill:rgb(100%,100%,100%);fill-opacity:1;" d="M 465.113281 807.140625 L 465.113281 739.9375 L 520.3125 739.9375 L 520.3125 807.140625 L 465.113281 807.140625 "/>
<g clip-path="url(#clip11)" clip-rule="nonzero">
<path style=" stroke:none;fill-rule:nonzero;fill:rgb(1.568604%,2.349854%,2.349854%);fill-opacity:1;" d="M 467.699219 742.519531 L 517.71875 742.519531 L 517.71875 804.558594 L 467.699219 804.558594 Z M 522.898438 809.070312 L 522.898438 737.355469 L 462.527344 737.355469 L 462.527344 809.070312 L 522.898438 809.070312 "/>
</g>
<path style=" stroke:none;fill-rule:nonzero;fill:rgb(1.568604%,2.349854%,2.349854%);fill-opacity:1;" d="M 530.476562 714.191406 C 537.6875 723.488281 547.214844 730.824219 553.71875 740.6875 C 556.890625 745.5 564.660156 741.003906 561.464844 736.164062 C 554.523438 725.628906 544.507812 717.761719 536.824219 707.847656 C 533.292969 703.285156 526.984375 709.679688 530.476562 714.191406 "/>
<path style=" stroke:none;fill-rule:nonzero;fill:rgb(1.568604%,2.349854%,2.349854%);fill-opacity:1;" d="M 296.917969 702.164062 C 289.226562 712.074219 279.21875 719.933594 272.28125 730.46875 C 269.09375 735.316406 276.863281 739.804688 280.035156 734.996094 C 286.523438 725.128906 296.058594 717.792969 303.265625 708.503906 C 306.769531 703.996094 300.460938 697.597656 296.917969 702.164062 "/>
<g clip-path="url(#clip12)" clip-rule="nonzero">
<path style=" stroke:none;fill-rule:nonzero;fill:rgb(1.568604%,2.349854%,2.349854%);fill-opacity:1;" d="M 559.332031 733.414062 L 556.738281 730.578125 C 554.914062 728.582031 552.375 727.5 549.765625 727.5 C 548.730469 727.5 547.679688 727.671875 546.660156 728.027344 C 543.09375 729.269531 540.621094 732.523438 540.359375 736.28125 C 539.933594 742.410156 539.464844 748.6875 538.992188 755.109375 C 537.75 771.796875 536.40625 789.980469 535.640625 809.070312 L 545.070312 809.070312 C 546.121094 783.265625 548.242188 759.082031 549.765625 736.929688 C 567.988281 756.894531 588.335938 778.503906 597.8125 801.707031 C 598.808594 804.15625 599.789062 806.605469 600.753906 809.070312 L 610.878906 809.070312 C 609.433594 805.253906 607.945312 801.597656 606.539062 798.144531 C 596.878906 774.484375 576.929688 752.667969 559.332031 733.414062 "/>
</g>
<g clip-path="url(#clip13)" clip-rule="nonzero">
<path style=" stroke:none;fill-rule:nonzero;fill:rgb(1.568604%,2.349854%,2.349854%);fill-opacity:1;" d="M 455.816406 809.070312 L 455.816406 595.382812 C 476.085938 598.960938 493.824219 605.328125 507.347656 613.894531 C 508.867188 614.851562 510.621094 615.355469 512.398438 615.355469 C 512.597656 615.355469 512.796875 615.347656 512.992188 615.339844 C 513.5 615.308594 514.003906 615.292969 514.527344 615.292969 C 525.355469 615.292969 540.058594 621.46875 548.730469 629.667969 L 549.925781 630.796875 C 554.421875 635.03125 556.105469 636.617188 559.632812 641.316406 C 569.015625 653.820312 575.179688 668.722656 581.710938 684.511719 C 585.820312 694.460938 590.082031 704.746094 595.234375 714.429688 C 599.574219 722.546875 603.960938 731.132812 608.277344 739.945312 C 618.957031 761.695312 629.140625 784.492188 639.195312 809.070312 L 649.34375 809.070312 C 639.296875 784.316406 628.523438 759.777344 616.746094 735.792969 C 612.492188 727.121094 608.113281 718.519531 603.558594 709.988281 C 590.714844 685.878906 583.582031 657.523438 567.179688 635.660156 C 562.832031 629.878906 560.644531 627.953125 555.203125 622.820312 C 544.613281 612.804688 527.484375 605.871094 514.527344 605.871094 C 513.808594 605.871094 513.09375 605.894531 512.398438 605.933594 C 495.902344 595.484375 474.773438 588.628906 452.015625 585.210938 L 451.515625 585.171875 C 448.441406 585.171875 446.386719 589.453125 446.386719 589.453125 L 446.386719 809.070312 L 455.816406 809.070312 "/>
</g>
<g clip-path="url(#clip14)" clip-rule="nonzero">
<path style=" stroke:none;fill-rule:nonzero;fill:rgb(1.568604%,2.349854%,2.349854%);fill-opacity:1;" d="M 187.664062 809.070312 C 197.738281 784.441406 207.925781 761.648438 218.574219 739.945312 C 222.914062 731.117188 227.300781 722.53125 231.625 714.421875 C 236.777344 704.746094 241.039062 694.445312 245.160156 684.496094 C 251.6875 668.714844 257.855469 653.8125 267.230469 641.316406 C 270.753906 636.625 272.429688 635.046875 276.914062 630.8125 L 278.136719 629.660156 C 286.800781 621.46875 301.503906 615.292969 312.335938 615.292969 C 312.847656 615.292969 313.363281 615.308594 313.859375 615.339844 C 314.066406 615.347656 314.253906 615.355469 314.453125 615.355469 C 316.238281 615.355469 317.984375 614.851562 319.503906 613.894531 C 334.121094 604.648438 353.613281 597.972656 375.898438 594.578125 C 376.285156 594.726562 377.320312 595.234375 379.28125 596.992188 L 379.28125 809.070312 L 388.71875 809.070312 L 388.71875 593.035156 C 384.425781 588.542969 380.175781 585.125 375.96875 585.125 C 375.589844 585.125 375.21875 585.15625 374.847656 585.210938 C 352.089844 588.628906 330.964844 595.484375 314.453125 605.933594 C 313.765625 605.894531 313.054688 605.871094 312.335938 605.871094 C 299.371094 605.871094 282.25 612.804688 271.65625 622.820312 C 266.21875 627.953125 264.027344 629.878906 259.6875 635.660156 C 243.285156 657.523438 236.15625 685.878906 223.292969 709.988281 C 218.757812 718.519531 214.367188 727.121094 210.109375 735.792969 C 198.335938 759.777344 187.5625 784.316406 177.515625 809.070312 L 187.664062 809.070312 "/>
</g>
<g clip-path="url(#clip15)" clip-rule="nonzero">
<path style=" stroke:none;fill-rule:nonzero;fill:rgb(1.568604%,2.349854%,2.349854%);fill-opacity:1;" d="M 286.507812 736.28125 C 286.25 732.523438 283.765625 729.277344 280.199219 728.027344 C 279.1875 727.671875 278.136719 727.5 277.101562 727.5 C 274.492188 727.5 271.949219 728.582031 270.128906 730.578125 L 267.570312 733.382812 C 249.949219 752.636719 229.980469 774.46875 220.328125 798.144531 C 218.914062 801.589844 217.4375 805.253906 215.980469 809.070312 L 226.109375 809.070312 C 227.070312 806.605469 228.058594 804.15625 229.054688 801.707031 C 238.527344 778.503906 258.867188 756.894531 277.09375 736.929688 C 278.621094 759.082031 280.738281 783.265625 281.78125 809.070312 L 291.21875 809.070312 C 290.453125 789.949219 289.109375 771.726562 287.867188 755.023438 C 287.394531 748.625 286.929688 742.378906 286.507812 736.28125 "/>
</g>
<path style=" stroke:none;fill-rule:nonzero;fill:rgb(13.729858%,12.159729%,12.548828%);fill-opacity:1;" d="M 260.683594 507.976562 C 193.453125 492.898438 171.199219 408.335938 172.988281 358.445312 C 174.84375 287.578125 225.378906 220.421875 301.71875 187.320312 C 343.441406 169.226562 371.984375 142.621094 402.371094 112.257812 L 403.042969 111.675781 C 432.425781 140.898438 465.003906 169.90625 503.941406 187.265625 C 581.449219 221.8125 630.695312 287.449219 632.453125 358.570312 C 634.160156 408.511719 611.789062 493.042969 544.507812 508.007812 L 260.683594 507.976562 "/>
<path style=" stroke:none;fill-rule:nonzero;fill:rgb(1.568604%,2.349854%,2.349854%);fill-opacity:1;" d="M 403.265625 105.261719 L 399.050781 108.941406 C 369.820312 138.148438 341.351562 165.011719 299.851562 183.015625 C 228.066406 214.144531 170.371094 278.992188 168.289062 358.28125 C 166.203125 416.699219 193.347656 498.074219 260.167969 512.675781 L 545.023438 512.707031 C 611.867188 498.207031 639.148438 416.882812 637.148438 358.453125 C 635.1875 279.160156 577.332031 214.835938 505.855469 182.984375 C 466.132812 165.269531 432.464844 134.515625 403.265625 105.261719 Z M 403.011719 118.253906 C 431.855469 146.679688 463.855469 174.542969 502.027344 191.554688 C 561.464844 218.050781 625.710938 275.863281 627.757812 358.769531 C 629.417969 407.035156 608.097656 488.660156 543.988281 503.316406 L 261.214844 503.285156 C 197.144531 488.515625 175.949219 406.867188 177.683594 358.523438 C 178.613281 323.070312 191.625 288.445312 215.316406 258.394531 C 237.632812 230.082031 268.152344 206.988281 303.589844 191.625 C 344.832031 173.746094 373.273438 147.847656 403.011719 118.253906 "/>
<path style=" stroke:none;fill-rule:nonzero;fill:rgb(100%,100%,100%);fill-opacity:1;" d="M 417.40625 574.746094 C 320.4375 574.746094 240.25 518.195312 210.382812 429.78125 C 215.585938 431.398438 221.160156 432.21875 227.054688 432.21875 C 258.519531 432.210938 294.59375 408.875 313.980469 385.8125 C 336.816406 358.585938 349.328125 325.738281 353.3125 281.496094 C 377.089844 319.878906 447.660156 326.917969 488.691406 331.015625 C 492.699219 331.410156 496.464844 331.789062 499.917969 332.160156 C 544.21875 337.53125 568.847656 354.75 575.179688 384.800781 C 576.304688 390.417969 575.914062 396.171875 575.503906 402.277344 C 574.855469 412.015625 574.175781 422.085938 579.882812 432.0625 C 582.5 437.304688 586.992188 441.894531 591.332031 446.332031 C 597.402344 452.523438 603.148438 458.402344 604.199219 466.242188 C 563.875 535.222656 495.886719 574.746094 417.40625 574.746094 "/>
<path style=" stroke:none;fill-rule:nonzero;fill:rgb(1.568604%,2.349854%,2.349854%);fill-opacity:1;" d="M 349.984375 254.699219 C 349.234375 301.097656 341.09375 346.171875 310.382812 382.785156 C 293.195312 403.234375 258.042969 427.519531 227.054688 427.519531 C 218.511719 427.519531 210.28125 425.671875 202.835938 421.390625 C 230.148438 515.929688 313.996094 579.4375 417.40625 579.4375 C 501.523438 579.4375 569.84375 535.25 609.023438 467.285156 C 607.976562 450.597656 590.230469 442.25 583.964844 429.730469 C 575.609375 415.128906 582.910156 399.476562 579.78125 383.835938 C 571.433594 344.191406 534.875 331.671875 500.433594 327.492188 C 454.1875 322.46875 352.839844 317.421875 349.984375 254.699219 Z M 356.695312 293.722656 C 386.332031 325.519531 449.839844 331.851562 488.226562 335.683594 C 492.21875 336.085938 495.972656 336.457031 499.300781 336.8125 C 541.988281 341.984375 564.636719 357.546875 570.5625 385.675781 C 571.574219 390.722656 571.203125 396.179688 570.816406 401.964844 C 570.152344 411.84375 569.402344 423.035156 575.679688 434.171875 C 578.746094 440.1875 583.441406 444.984375 587.980469 449.609375 C 593.242188 454.988281 597.882812 459.734375 599.257812 465.367188 C 559.703125 531.945312 493.601562 570.046875 417.40625 570.046875 C 325.464844 570.046875 248.945312 518.125 217.695312 436.238281 C 220.730469 436.683594 223.855469 436.910156 227.054688 436.910156 C 259.949219 436.910156 297.488281 412.71875 317.582031 388.820312 C 342.4375 359.1875 352.585938 324.476562 356.695312 293.722656 "/>
<path style=" stroke:none;fill-rule:nonzero;fill:rgb(100%,100%,100%);fill-opacity:1;" d="M 241.449219 510.742188 C 236.527344 510.742188 231.570312 508.402344 228.835938 504.785156 C 226.921875 502.304688 225.910156 499.628906 224.84375 496.792969 C 223.253906 492.589844 221.453125 487.828125 216.464844 484.085938 C 214.859375 482.828125 213.207031 481.660156 211.59375 480.515625 C 206.1875 476.699219 201.917969 473.683594 199.800781 467.34375 C 198.804688 463.96875 198.71875 458.503906 200.953125 454.738281 C 202.078125 452.855469 203.585938 451.734375 205.578125 451.316406 C 206.125 451.207031 206.835938 451.144531 207.601562 451.144531 C 210.90625 451.144531 214.042969 452.273438 214.472656 453.625 C 214.542969 453.851562 214.644531 454.082031 214.765625 454.292969 C 214.773438 454.300781 219.394531 462.042969 226.027344 473.550781 C 231.71875 483.421875 245.632812 501.359375 250.136719 507.09375 C 247.539062 510.226562 243.695312 510.742188 241.449219 510.742188 "/>
<path style=" stroke:none;fill-rule:nonzero;fill:rgb(1.568604%,2.349854%,2.349854%);fill-opacity:1;" d="M 207.601562 448.007812 C 206.628906 448.007812 205.710938 448.09375 204.921875 448.253906 C 196.304688 450.078125 194.742188 461.292969 196.828125 468.335938 C 199.964844 477.726562 207.269531 480.847656 214.582031 486.589844 C 221.886719 492.070312 221.105469 499.890625 226.335938 506.671875 C 229.773438 511.214844 235.757812 513.867188 241.449219 513.867188 C 246.550781 513.867188 251.410156 511.742188 254.003906 506.933594 C 254.003906 506.933594 235.394531 483.523438 228.746094 471.984375 C 222.089844 460.445312 217.460938 452.683594 217.460938 452.683594 C 216.417969 449.351562 211.523438 448.007812 207.601562 448.007812 Z M 207.601562 454.269531 C 209.554688 454.269531 211.089844 454.761719 211.671875 455.09375 C 211.792969 455.367188 211.917969 455.636719 212.078125 455.890625 C 212.125 455.96875 216.765625 463.742188 223.316406 475.113281 C 228.457031 484.023438 240.082031 499.28125 245.8125 506.640625 C 244.382812 507.398438 242.785156 507.613281 241.449219 507.613281 C 237.53125 507.613281 233.46875 505.71875 231.300781 502.851562 C 229.6875 500.765625 228.796875 498.414062 227.765625 495.6875 C 226.125 491.320312 224.058594 485.878906 218.457031 481.667969 C 216.714844 480.300781 215.03125 479.117188 213.402344 477.964844 C 208.304688 474.363281 204.613281 471.757812 202.8125 466.457031 C 201.847656 463.101562 202.203125 458.765625 203.648438 456.339844 C 204.503906 454.902344 205.476562 454.539062 206.15625 454.390625 C 206.375 454.34375 206.859375 454.269531 207.601562 454.269531 "/>
<path style=" stroke:none;fill-rule:nonzero;fill:rgb(100%,100%,100%);fill-opacity:1;" d="M 576.539062 522.230469 C 574.515625 522.230469 569.90625 521.78125 567.148438 518.039062 C 572.003906 512.582031 586.96875 495.523438 593.25 486.019531 C 600.585938 474.921875 605.671875 467.476562 605.671875 467.476562 C 605.8125 467.269531 605.921875 467.050781 606.011719 466.828125 C 606.460938 465.644531 609.085938 464.742188 612.105469 464.742188 C 613.195312 464.742188 614.246094 464.863281 615.054688 465.074219 C 616.972656 465.605469 618.421875 466.820312 619.425781 468.761719 C 621.433594 472.65625 621.011719 478.105469 619.773438 481.511719 C 617.304688 487.625 612.855469 490.378906 607.226562 493.863281 C 605.558594 494.898438 603.835938 495.964844 602.105469 497.15625 C 596.949219 500.550781 594.863281 505.203125 593.023438 509.3125 C 591.78125 512.066406 590.609375 514.675781 588.578125 517.011719 C 585.804688 520.242188 581.195312 522.230469 576.539062 522.230469 "/>
<path style=" stroke:none;fill-rule:nonzero;fill:rgb(1.568604%,2.349854%,2.349854%);fill-opacity:1;" d="M 612.105469 461.617188 C 608.421875 461.617188 604.214844 462.738281 603.085938 465.714844 C 603.085938 465.714844 597.988281 473.179688 590.644531 484.289062 C 583.292969 495.410156 563.308594 517.644531 563.308594 517.644531 C 565.773438 522.96875 571.03125 525.359375 576.539062 525.359375 C 581.890625 525.359375 587.472656 523.101562 590.941406 519.066406 C 596.5625 512.613281 596.261719 504.753906 603.890625 499.730469 C 611.535156 494.449219 619.011719 491.769531 622.714844 482.585938 C 625.226562 475.683594 624.339844 464.394531 615.851562 462.050781 C 614.800781 461.773438 613.496094 461.617188 612.105469 461.617188 Z M 612.105469 467.878906 C 612.910156 467.878906 613.71875 467.957031 614.183594 468.085938 C 614.925781 468.289062 615.867188 468.714844 616.640625 470.199219 C 617.9375 472.710938 618.035156 477.054688 616.863281 480.351562 C 614.738281 485.539062 610.886719 487.914062 605.574219 491.203125 C 603.890625 492.25 602.136719 493.324219 600.4375 494.503906 C 594.460938 498.445312 592.082031 503.757812 590.160156 508.03125 C 588.976562 510.6875 587.945312 512.976562 586.191406 514.988281 C 584.042969 517.484375 580.253906 519.105469 576.539062 519.105469 C 575.210938 519.105469 573.210938 518.890625 571.503906 517.839844 C 577.664062 510.84375 590.191406 496.328125 595.867188 487.742188 C 603.101562 476.804688 608.207031 469.316406 608.261719 469.238281 C 608.429688 468.992188 608.578125 468.738281 608.707031 468.472656 C 609.203125 468.226562 610.40625 467.878906 612.105469 467.878906 "/>
<path style=" stroke:none;fill-rule:nonzero;fill:rgb(100%,100%,100%);fill-opacity:1;" d="M 403.558594 177.605469 C 399.9375 177.605469 396.523438 177.496094 393.40625 177.265625 C 349.582031 174.0625 333.394531 171.574219 332.730469 171.46875 L 332.722656 171.46875 C 328.585938 170.808594 322.351562 163.34375 314.167969 149.300781 L 313.835938 148.730469 C 289.511719 107 279.503906 74.59375 283.226562 49.683594 C 286.945312 24.894531 317.3125 16.410156 326.539062 14.40625 C 353.367188 8.007812 383.652344 4.769531 416.632812 4.769531 C 430.542969 4.769531 444.875 5.363281 459.214844 6.523438 C 484.675781 8.742188 501.664062 14.292969 507.578125 35.074219 C 514.265625 58.570312 507.578125 83.226562 501.105469 107.078125 C 500.296875 110.03125 499.507812 112.960938 498.75 115.867188 C 493.640625 135.328125 485.414062 159.054688 466.828125 170.523438 C 461.800781 171.519531 430.078125 177.605469 403.558594 177.605469 "/>
<path style=" stroke:none;fill-rule:nonzero;fill:rgb(1.568604%,2.349854%,2.349854%);fill-opacity:1;" d="M 416.632812 0.851562 C 385.945312 0.851562 354.65625 3.671875 325.710938 10.574219 C 305.648438 14.941406 282.707031 26.671875 279.347656 49.101562 C 274.328125 82.640625 293.949219 122.394531 310.453125 150.707031 C 314.207031 157.152344 323.8125 174.011719 332.105469 175.339844 C 332.113281 175.339844 347.84375 177.867188 393.113281 181.175781 C 396.457031 181.421875 399.96875 181.53125 403.558594 181.53125 C 432.996094 181.53125 468.265625 174.226562 468.273438 174.226562 C 488.125 162.378906 496.976562 138.0625 502.542969 116.863281 C 509.507812 90.335938 519.191406 61.546875 511.347656 34 C 504.296875 9.230469 482.402344 4.609375 459.53125 2.613281 C 445.570312 1.484375 431.167969 0.851562 416.632812 0.851562 Z M 416.632812 8.695312 C 430.441406 8.695312 444.664062 9.277344 458.851562 10.425781 C 483.292969 12.5625 498.480469 17.453125 503.800781 36.148438 C 510.1875 58.59375 503.640625 82.722656 497.316406 106.050781 C 496.511719 109.019531 495.710938 111.960938 494.945312 114.882812 C 490.085938 133.410156 482.34375 155.925781 465.359375 166.820312 C 458.65625 168.121094 428.695312 173.691406 403.558594 173.691406 C 400.03125 173.691406 396.710938 173.578125 393.691406 173.359375 C 350.640625 170.207031 334.460938 167.773438 333.371094 167.609375 C 331.945312 167.238281 327.566406 164.511719 317.558594 147.328125 L 317.226562 146.765625 C 293.371094 105.824219 283.519531 74.261719 287.109375 50.261719 C 290.453125 27.949219 318.777344 20.105469 327.527344 18.203125 C 353.976562 11.894531 383.960938 8.695312 416.632812 8.695312 "/>
<path style=" stroke:none;fill-rule:nonzero;fill:rgb(1.568604%,2.349854%,2.349854%);fill-opacity:1;" d="M 259.148438 325.359375 C 312.40625 234.527344 467.382812 231.746094 535.046875 305.804688 C 538.234375 309.289062 543.386719 304.109375 540.21875 300.640625 C 469.269531 222.980469 308.4375 226.835938 252.835938 321.664062 C 250.445312 325.738281 256.769531 329.421875 259.148438 325.359375 "/>
<path style=" stroke:none;fill-rule:nonzero;fill:rgb(100%,100%,100%);fill-opacity:1;" d="M 217.105469 141.519531 C 230.519531 132.453125 298.894531 89.695312 394.65625 89.695312 C 396.101562 89.695312 397.550781 89.703125 399.011719 89.71875 C 400.5625 89.703125 402.023438 89.695312 403.460938 89.695312 C 499.59375 89.695312 573.75 132.613281 588.277344 141.632812 L 523.410156 285.421875 C 512.882812 274.324219 480.335938 247.441406 412.171875 247.441406 C 409.914062 247.441406 407.628906 247.472656 405.296875 247.535156 C 331.574219 249.460938 293.867188 276.078125 282.296875 286.03125 L 217.105469 141.519531 "/>
<path style=" stroke:none;fill-rule:nonzero;fill:rgb(1.568604%,2.349854%,2.349854%);fill-opacity:1;" d="M 403.460938 86.039062 C 402.007812 86.039062 400.53125 86.054688 399.058594 86.070312 C 397.582031 86.054688 396.117188 86.039062 394.65625 86.039062 C 285.511719 86.039062 212.527344 140.257812 212.527344 140.257812 L 281.054688 292.183594 C 281.054688 292.183594 317.03125 253.496094 405.390625 251.183594 C 407.691406 251.128906 409.945312 251.097656 412.171875 251.097656 C 495.308594 251.097656 524.375 292.183594 524.375 292.183594 L 592.910156 140.257812 C 592.910156 140.257812 512.8125 86.039062 403.460938 86.039062 Z M 403.460938 93.34375 C 493.6875 93.34375 564.390625 131.570312 583.617188 143.078125 L 522.21875 279.167969 C 508.1875 266.261719 474.757812 243.792969 412.171875 243.792969 C 409.882812 243.792969 407.566406 243.824219 405.203125 243.878906 C 337.117188 245.671875 299.007812 268.394531 283.679688 280.214844 L 221.710938 142.847656 C 239.5 131.324219 304.925781 93.34375 394.65625 93.34375 C 396.085938 93.34375 397.519531 93.351562 398.964844 93.375 L 399.152344 93.375 C 400.59375 93.351562 402.03125 93.34375 403.460938 93.34375 "/>
<path style=" stroke:none;fill-rule:nonzero;fill:rgb(100%,100%,100%);fill-opacity:1;" d="M 402.71875 214.214844 C 397.382812 214.214844 393.035156 209.878906 393.035156 204.546875 L 393.035156 179.296875 C 393.035156 177.945312 391.945312 176.855469 390.601562 176.855469 L 365.328125 176.855469 C 359.984375 176.855469 355.644531 172.519531 355.644531 167.191406 C 355.644531 161.859375 359.984375 157.523438 365.328125 157.523438 L 390.601562 157.523438 C 391.945312 157.523438 393.035156 156.433594 393.035156 155.089844 L 393.035156 129.832031 C 393.035156 124.5 397.382812 120.164062 402.71875 120.164062 C 408.054688 120.164062 412.386719 124.5 412.386719 129.832031 L 412.386719 155.089844 C 412.386719 156.433594 413.476562 157.523438 414.828125 157.523438 L 440.109375 157.523438 C 445.4375 157.523438 449.777344 161.859375 449.777344 167.191406 C 449.777344 172.519531 445.4375 176.855469 440.109375 176.855469 L 414.828125 176.855469 C 413.476562 176.855469 412.386719 177.945312 412.386719 179.296875 L 412.386719 204.546875 C 412.386719 209.878906 408.054688 214.214844 402.71875 214.214844 "/>
<path style=" stroke:none;fill-rule:nonzero;fill:rgb(1.568604%,2.349854%,2.349854%);fill-opacity:1;" d="M 402.71875 117.734375 C 396.03125 117.734375 390.601562 123.144531 390.601562 129.832031 L 390.601562 155.089844 L 365.328125 155.089844 C 358.632812 155.089844 353.210938 160.507812 353.210938 167.191406 C 353.210938 173.871094 358.632812 179.296875 365.328125 179.296875 L 390.601562 179.296875 L 390.601562 204.546875 C 390.601562 211.234375 396.03125 216.652344 402.71875 216.652344 C 409.40625 216.652344 414.828125 211.234375 414.828125 204.546875 L 414.828125 179.296875 L 440.109375 179.296875 C 446.796875 179.296875 452.210938 173.871094 452.210938 167.191406 C 452.210938 160.507812 446.796875 155.089844 440.109375 155.089844 L 414.828125 155.089844 L 414.828125 129.832031 C 414.828125 123.144531 409.40625 117.734375 402.71875 117.734375 Z M 402.71875 122.605469 C 406.703125 122.605469 409.953125 125.84375 409.953125 129.832031 L 409.953125 155.089844 C 409.953125 157.78125 412.132812 159.964844 414.828125 159.964844 L 440.109375 159.964844 C 444.09375 159.964844 447.34375 163.199219 447.34375 167.191406 C 447.34375 171.179688 444.09375 174.425781 440.109375 174.425781 L 414.828125 174.425781 C 412.132812 174.425781 409.953125 176.605469 409.953125 179.296875 L 409.953125 204.546875 C 409.953125 208.535156 406.703125 211.78125 402.71875 211.78125 C 398.726562 211.78125 395.46875 208.535156 395.46875 204.546875 L 395.46875 179.296875 C 395.46875 176.605469 393.289062 174.425781 390.601562 174.425781 L 365.328125 174.425781 C 361.328125 174.425781 358.089844 171.179688 358.089844 167.191406 C 358.089844 163.199219 361.328125 159.964844 365.328125 159.964844 L 390.601562 159.964844 C 393.289062 159.964844 395.46875 157.78125 395.46875 155.089844 L 395.46875 129.832031 C 395.46875 125.84375 398.726562 122.605469 402.71875 122.605469 "/>
<path style=" stroke:none;fill-rule:nonzero;fill:rgb(1.568604%,2.349854%,2.349854%);fill-opacity:1;" d="M 440.347656 491.636719 C 436.355469 500.179688 429.824219 505.851562 420.117188 506.097656 C 412.617188 506.277344 405.242188 501.761719 402.972656 494.535156 C 401.257812 489.03125 392.585938 491.382812 394.324219 496.917969 C 397.761719 507.921875 407.3125 513.773438 418.386719 514.988281 C 431.507812 516.433594 442.820312 507.457031 448.09375 496.160156 C 450.527344 490.957031 442.789062 486.398438 440.347656 491.636719 "/>
<path style=" stroke:none;fill-rule:nonzero;fill:rgb(1.568604%,2.349854%,2.349854%);fill-opacity:1;" d="M 527.191406 418.28125 C 527.609375 415.554688 528.421875 412.941406 529.191406 410.304688 C 529.59375 408.914062 527.417969 408.320312 527.023438 409.710938 C 526.257812 412.347656 525.441406 414.960938 525.03125 417.679688 C 524.820312 419.09375 526.976562 419.703125 527.191406 418.28125 "/>
<path style=" stroke:none;fill-rule:nonzero;fill:rgb(1.568604%,2.349854%,2.349854%);fill-opacity:1;" d="M 531.949219 417.796875 C 533 416.164062 533.742188 414.363281 534.9375 412.816406 C 535.820312 411.667969 533.871094 410.554688 533 411.683594 C 531.804688 413.234375 531.0625 415.035156 530.003906 416.660156 C 529.214844 417.886719 531.160156 419.007812 531.949219 417.796875 "/>
<path style=" stroke:none;fill-rule:nonzero;fill:rgb(1.568604%,2.349854%,2.349854%);fill-opacity:1;" d="M 534.882812 422.632812 C 536.542969 421.011719 538.257812 419.511719 539.671875 417.671875 C 540.558594 416.527344 538.605469 415.414062 537.734375 416.542969 C 536.4375 418.21875 534.800781 419.574219 533.292969 421.042969 C 532.257812 422.054688 533.847656 423.644531 534.882812 422.632812 "/>
<path style=" stroke:none;fill-rule:nonzero;fill:rgb(1.568604%,2.349854%,2.349854%);fill-opacity:1;" d="M 546.429688 398.394531 C 541.15625 391 531.207031 389.554688 523.347656 393.605469 C 518.25 396.230469 522.746094 403.898438 527.839844 401.277344 C 531.0625 399.609375 536.429688 399.625 538.753906 402.878906 C 542.050781 407.5 549.765625 403.070312 546.429688 398.394531 "/>
<path style=" stroke:none;fill-rule:nonzero;fill:rgb(1.568604%,2.349854%,2.349854%);fill-opacity:1;" d="M 535.300781 423.515625 C 535.300781 428.011719 531.648438 431.660156 527.152344 431.660156 C 522.652344 431.660156 519 428.011719 519 423.515625 C 519 419.015625 522.652344 415.375 527.152344 415.375 C 531.648438 415.375 535.300781 419.015625 535.300781 423.515625 "/>
<path style=" stroke:none;fill-rule:nonzero;fill:rgb(1.568604%,2.349854%,2.349854%);fill-opacity:1;" d="M 323.695312 417.679688 C 323.273438 414.960938 322.453125 412.347656 321.695312 409.710938 C 321.289062 408.320312 319.125 408.914062 319.527344 410.304688 C 320.285156 412.941406 321.109375 415.554688 321.527344 418.28125 C 321.75 419.703125 323.90625 419.09375 323.695312 417.679688 "/>
<path style=" stroke:none;fill-rule:nonzero;fill:rgb(1.568604%,2.349854%,2.349854%);fill-opacity:1;" d="M 318.714844 416.660156 C 317.65625 415.035156 316.910156 413.234375 315.726562 411.683594 C 314.855469 410.554688 312.902344 411.667969 313.78125 412.816406 C 314.984375 414.363281 315.71875 416.164062 316.777344 417.796875 C 317.558594 419.007812 319.503906 417.886719 318.714844 416.660156 "/>
<path style=" stroke:none;fill-rule:nonzero;fill:rgb(1.568604%,2.349854%,2.349854%);fill-opacity:1;" d="M 315.425781 421.042969 C 313.914062 419.574219 312.277344 418.21875 310.992188 416.542969 C 310.121094 415.40625 308.167969 416.527344 309.046875 417.671875 C 310.46875 419.511719 312.175781 421.011719 313.835938 422.632812 C 314.863281 423.644531 316.453125 422.0625 315.425781 421.042969 "/>
<path style=" stroke:none;fill-rule:nonzero;fill:rgb(1.568604%,2.349854%,2.349854%);fill-opacity:1;" d="M 309.972656 402.878906 C 312.285156 399.617188 317.65625 399.617188 320.878906 401.277344 C 325.96875 403.898438 330.460938 396.230469 325.371094 393.605469 C 317.511719 389.554688 307.558594 391 302.296875 398.394531 C 298.960938 403.070312 306.675781 407.5 309.972656 402.878906 "/>
<path style=" stroke:none;fill-rule:nonzero;fill:rgb(1.568604%,2.349854%,2.349854%);fill-opacity:1;" d="M 313.417969 423.515625 C 313.417969 428.011719 317.070312 431.660156 321.574219 431.660156 C 326.074219 431.660156 329.71875 428.011719 329.71875 423.515625 C 329.71875 419.015625 326.074219 415.375 321.574219 415.375 C 317.070312 415.375 313.417969 419.015625 313.417969 423.515625 "/>
</g>
</svg>
