<?xml version="1.0" encoding="UTF-8"?>
<svg xmlns="http://www.w3.org/2000/svg" xmlns:xlink="http://www.w3.org/1999/xlink" width="810pt" height="809.999993pt" viewBox="0 0 810 809.999993" version="1.2">
<g id="surface1">
<path style=" stroke:none;fill-rule:nonzero;fill:rgb(100%,100%,100%);fill-opacity:1;" d="M 248.550781 792.070312 L 553.90625 792.070312 C 551.472656 782.195312 550.25 772.066406 550.25 761.824219 C 550.25 698.859375 596.363281 646.097656 657.339844 636.585938 C 640.496094 605.960938 609.609375 585.617188 574.277344 582.601562 L 569.398438 582.183594 L 510.128906 582.183594 L 510.128906 546.625 L 526.332031 546.625 C 548.492188 546.625 566.519531 528.605469 566.519531 506.460938 L 566.519531 337.433594 L 573.355469 336 C 582.660156 334.050781 591.457031 325.160156 595.765625 313.359375 C 601.59375 297.363281 597.304688 280.503906 586.40625 276.523438 C 583.757812 275.5625 580.792969 275.429688 577.671875 276.132812 L 576.824219 276.328125 L 566.640625 278.875 L 566.632812 278.621094 L 555.648438 281.101562 L 566.332031 266.167969 L 565.925781 253.820312 L 572.824219 257.074219 C 619.082031 192.039062 667.207031 118.023438 675.355469 94.375 C 672.601562 95.996094 669.433594 97.992188 666.609375 99.773438 C 654.75 107.257812 638.507812 117.515625 619.695312 123.53125 L 614.558594 125.175781 L 610.832031 121.269531 C 598.433594 108.246094 579.488281 100.78125 558.855469 100.78125 C 548.367188 100.78125 538.335938 102.703125 529.042969 106.492188 L 524.761719 108.234375 L 520.941406 105.632812 C 504.011719 94.09375 492.1875 81.363281 487.101562 75.421875 L 485.597656 75.421875 L 483.289062 70.335938 C 468.808594 38.042969 436.589844 17.167969 401.226562 17.167969 C 365.855469 17.167969 333.644531 38.042969 319.160156 70.335938 L 316.882812 75.421875 L 315.859375 75.421875 C 311.410156 81.6875 301.667969 94 286.996094 105.207031 L 283.105469 108.1875 L 278.558594 106.359375 C 269.355469 102.65625 259.4375 100.78125 249.070312 100.78125 C 228.792969 100.78125 210.046875 108.046875 197.636719 120.71875 L 193.84375 124.585938 L 188.714844 122.84375 C 170.804688 116.761719 155.253906 106.949219 143.898438 99.777344 C 141.074219 97.992188 137.90625 95.996094 135.144531 94.375 C 143.535156 118.746094 194.320312 196.5 241.828125 262.894531 L 242.265625 263.5 L 242.601562 264.183594 L 250.617188 280.832031 L 232.710938 276.25 C 229.417969 275.410156 226.257812 275.496094 223.433594 276.53125 C 212.527344 280.503906 208.246094 297.363281 214.074219 313.359375 C 218.457031 325.371094 227.722656 334.523438 237.128906 336.140625 L 244.277344 337.378906 L 244.277344 506.460938 C 244.277344 528.605469 262.300781 546.625 284.460938 546.625 L 299.710938 546.625 L 299.710938 582.15625 L 291.105469 582.183594 L 234.199219 582.183594 C 195.585938 582.183594 160.671875 603.03125 142.242188 636.191406 C 170.367188 639.921875 196.3125 652.898438 216.339844 673.503906 C 239.46875 697.28125 252.203125 728.644531 252.203125 761.824219 C 252.203125 772.066406 250.980469 782.195312 248.550781 792.070312 Z M 224.625 810 L 228.785156 798.199219 C 232.90625 786.496094 234.992188 774.257812 234.992188 761.824219 C 234.992188 702.253906 188.34375 654.160156 128.789062 652.339844 L 116.316406 651.957031 L 121.105469 640.445312 C 140.160156 594.597656 184.554688 564.980469 234.199219 564.980469 L 282.5 564.980469 L 282.5 563.796875 C 251.753906 562.761719 227.066406 537.4375 227.066406 506.460938 L 227.066406 351.097656 C 214.425781 346.167969 203.414062 334.347656 197.90625 319.253906 C 188.722656 294.070312 197.535156 267.652344 217.539062 260.359375 C 217.914062 260.226562 218.296875 260.09375 218.675781 259.972656 C 208.339844 245.28125 190.703125 219.929688 173.125 193.324219 C 118.148438 110.15625 117.160156 95.980469 116.789062 90.652344 C 116.535156 86.988281 116.621094 81.667969 120.292969 77.742188 C 122.511719 75.363281 125.617188 74.050781 129.046875 74.050781 C 135.386719 74.050781 142.429688 78.5 153.089844 85.230469 C 163.167969 91.59375 175.457031 99.355469 189.441406 104.800781 C 204.882812 91.25 226.292969 83.574219 249.070312 83.574219 C 259.886719 83.574219 270.335938 85.269531 280.207031 88.621094 C 294.371094 76.867188 302.5625 64.480469 303.777344 62.585938 C 321.183594 24.519531 359.347656 -0.0351562 401.226562 -0.0351562 C 442.972656 -0.0351562 481.019531 24.359375 498.507812 62.21875 C 500.824219 65.085938 511.179688 77.359375 527.019531 88.871094 C 537.097656 85.355469 547.78125 83.574219 558.855469 83.574219 C 582.082031 83.574219 603.773438 91.5 619.269531 105.484375 C 633.972656 100.027344 646.863281 91.894531 657.417969 85.230469 C 668.074219 78.5 675.113281 74.050781 681.460938 74.050781 C 684.882812 74.050781 687.996094 75.363281 690.207031 77.742188 C 693.878906 81.671875 693.964844 86.988281 693.710938 90.652344 C 693.339844 95.933594 692.375 109.980469 638.386719 191.804688 C 620.40625 219.054688 602.1875 245.253906 591.699219 260.152344 C 591.898438 260.21875 592.101562 260.285156 592.304688 260.359375 C 612.304688 267.652344 621.113281 294.070312 611.933594 319.253906 C 606.523438 334.097656 596.0625 345.605469 583.730469 350.710938 L 583.730469 506.460938 C 583.730469 537.761719 558.523438 563.285156 527.34375 563.824219 L 527.34375 564.980469 L 583.75 564.917969 C 626.039062 571.277344 661.742188 600.597656 678.316406 640.558594 L 682.953125 651.761719 L 670.839844 652.441406 C 612.871094 655.6875 567.460938 703.734375 567.460938 761.824219 C 567.460938 774.277344 569.558594 786.53125 573.691406 798.25 L 577.734375 809.71875 L 565.1875 809.722656 C 561.96875 809.722656 558.640625 809.574219 555.007812 809.273438 L 244.371094 809.273438 C 242.117188 809.453125 239.746094 809.582031 237.136719 809.648438 L 224.625 810 "/>
<path style=" stroke:none;fill-rule:nonzero;fill:rgb(21.179199%,13.328552%,14.118958%);fill-opacity:1;" d="M 234.84375 170.957031 L 234.84375 454.144531 L 235.671875 454.144531 L 235.671875 506.460938 C 235.671875 533.285156 257.628906 555.226562 284.460938 555.226562 L 526.332031 555.226562 C 553.171875 555.226562 575.125 533.285156 575.125 506.460938 L 575.125 170.957031 L 234.84375 170.957031 "/>
<path style=" stroke:none;fill-rule:nonzero;fill:rgb(21.179199%,13.328552%,14.118958%);fill-opacity:1;" d="M 322.414062 151.265625 C 322.414062 183.902344 289.578125 210.351562 249.070312 210.351562 C 208.570312 210.351562 175.730469 183.902344 175.730469 151.265625 C 175.730469 118.628906 208.570312 92.175781 249.070312 92.175781 C 289.578125 92.175781 322.414062 118.628906 322.414062 151.265625 "/>
<path style=" stroke:none;fill-rule:nonzero;fill:rgb(21.179199%,13.328552%,14.118958%);fill-opacity:1;" d="M 632.199219 151.265625 C 632.199219 183.902344 599.363281 210.351562 558.855469 210.351562 C 518.351562 210.351562 485.515625 183.902344 485.515625 151.265625 C 485.515625 118.628906 518.351562 92.175781 558.855469 92.175781 C 599.363281 92.175781 632.199219 118.628906 632.199219 151.265625 "/>
<path style=" stroke:none;fill-rule:nonzero;fill:rgb(11.369324%,10.978699%,10.978699%);fill-opacity:1;" d="M 670.359375 643.851562 C 654.460938 605.496094 618.179688 577.722656 575.011719 574.03125 L 234.191406 573.582031 C 186.792969 573.582031 146.167969 602.554688 129.050781 643.746094 C 192.640625 645.6875 243.605469 697.792969 243.605469 761.820312 C 243.605469 775.574219 241.222656 788.777344 236.902344 801.054688 C 239.289062 800.988281 241.660156 800.871094 244.015625 800.671875 L 555.371094 800.671875 C 558.613281 800.945312 561.878906 801.121094 565.1875 801.121094 C 565.316406 801.121094 565.445312 801.113281 565.570312 801.109375 C 561.234375 788.816406 558.855469 775.601562 558.855469 761.820312 C 558.855469 698.8125 608.195312 647.332031 670.359375 643.851562 "/>
<path style=" stroke:none;fill-rule:nonzero;fill:rgb(94.898987%,74.119568%,69.018555%);fill-opacity:1;" d="M 518.738281 573.574219 C 518.738281 636.414062 467.78125 687.347656 404.917969 687.347656 C 342.0625 687.347656 291.105469 636.414062 291.105469 573.574219 C 291.105469 510.742188 342.0625 459.808594 404.917969 459.808594 C 467.78125 459.808594 518.738281 510.742188 518.738281 573.574219 "/>
<path style=" stroke:none;fill-rule:nonzero;fill:rgb(94.898987%,74.119568%,69.018555%);fill-opacity:1;" d="M 518.738281 573.574219 C 518.738281 573.574219 490.277344 602.023438 404.917969 602.023438 C 319.558594 602.023438 291.105469 573.574219 291.105469 573.574219 L 291.105469 459.808594 L 518.738281 459.808594 L 518.738281 573.574219 "/>
<path style=" stroke:none;fill-rule:nonzero;fill:rgb(83.529663%,58.81958%,44.309998%);fill-opacity:1;" d="M 291.105469 477.121094 C 291.105469 477.121094 337.066406 532.835938 404.917969 532.835938 C 472.777344 532.835938 518.738281 477.128906 518.738281 477.128906 L 291.105469 477.121094 "/>
<path style=" stroke:none;fill-rule:nonzero;fill:rgb(94.898987%,74.119568%,69.018555%);fill-opacity:1;" d="M 589.351562 268.445312 C 584.726562 266.757812 579.8125 266.683594 574.996094 267.914062 C 571.496094 182 549.011719 90.054688 404.925781 90.054688 C 260.824219 90.054688 238.351562 182 234.84375 267.914062 C 230.03125 266.683594 225.121094 266.757812 220.488281 268.445312 C 204.910156 274.117188 198.421875 295.550781 205.992188 316.304688 C 211.660156 331.855469 223.621094 342.621094 235.8125 344.652344 C 234.199219 459.808594 318.507812 516.699219 404.925781 516.699219 C 491.339844 516.699219 575.648438 459.808594 574.035156 344.652344 C 586.226562 342.613281 598.179688 331.855469 603.847656 316.304688 C 611.417969 295.550781 604.929688 274.117188 589.351562 268.445312 "/>
<path style=" stroke:none;fill-rule:nonzero;fill:rgb(83.529663%,58.81958%,44.309998%);fill-opacity:1;" d="M 235.8125 344.652344 C 235.8125 344.652344 245.480469 347.546875 262.609375 346.558594 C 262.609375 346.558594 254.820312 353.832031 235.804688 350.617188 L 235.8125 344.652344 "/>
<path style=" stroke:none;fill-rule:nonzero;fill:rgb(83.529663%,58.81958%,44.309998%);fill-opacity:1;" d="M 574.035156 344.652344 C 574.035156 344.652344 564.367188 347.546875 547.230469 346.558594 C 547.230469 346.558594 555.023438 353.832031 574.042969 350.617188 L 574.035156 344.652344 "/>
<path style=" stroke:none;fill-rule:nonzero;fill:rgb(83.529663%,58.81958%,44.309998%);fill-opacity:1;" d="M 244.667969 274.714844 C 241.144531 269.332031 234.84375 267.914062 234.84375 267.914062 C 234.84375 267.914062 238.433594 268.125 241.277344 270.105469 C 244.113281 272.082031 244.667969 274.714844 244.667969 274.714844 "/>
<path style=" stroke:none;fill-rule:nonzero;fill:rgb(83.529663%,58.81958%,44.309998%);fill-opacity:1;" d="M 565.1875 274.714844 C 568.710938 269.332031 575.003906 267.914062 575.003906 267.914062 C 575.003906 267.914062 571.421875 268.125 568.578125 270.105469 C 565.738281 272.082031 565.1875 274.714844 565.1875 274.714844 "/>
<path style=" stroke:none;fill-rule:nonzero;fill:rgb(21.179199%,13.328552%,14.118958%);fill-opacity:1;" d="M 363.5625 289.152344 C 363.5625 297.734375 356.597656 304.691406 348.011719 304.691406 C 339.425781 304.691406 332.464844 297.734375 332.464844 289.152344 C 332.464844 280.570312 339.425781 273.605469 348.011719 273.605469 C 356.597656 273.605469 363.5625 280.570312 363.5625 289.152344 "/>
<path style=" stroke:none;fill-rule:nonzero;fill:rgb(21.179199%,13.328552%,14.118958%);fill-opacity:1;" d="M 477.375 289.152344 C 477.375 297.734375 470.414062 304.691406 461.832031 304.691406 C 453.246094 304.691406 446.277344 297.734375 446.277344 289.152344 C 446.277344 280.570312 453.246094 273.605469 461.832031 273.605469 C 470.414062 273.605469 477.375 280.570312 477.375 289.152344 "/>
<path style=" stroke:none;fill-rule:nonzero;fill:rgb(21.179199%,13.328552%,14.118958%);fill-opacity:1;" d="M 574.417969 256.632812 C 574.089844 251.300781 573.667969 245.957031 573.128906 240.644531 L 509.773438 263.371094 C 502.53125 255.039062 491.875 249.742188 480.042969 249.742188 L 440.632812 249.742188 C 418.960938 249.742188 401.226562 267.464844 401.226562 289.132812 C 401.226562 293.480469 401.953125 297.660156 403.261719 301.578125 L 236.214844 361.5 C 236.550781 366.9375 237.097656 372.226562 237.820312 377.375 L 411.15625 315.195312 C 418.390625 323.351562 428.941406 328.519531 440.632812 328.519531 L 480.042969 328.519531 C 501.714844 328.519531 519.449219 310.800781 519.449219 289.132812 C 519.449219 284.917969 518.769531 280.851562 517.527344 277.042969 L 574.417969 256.632812 "/>
<path style=" stroke:none;fill-rule:nonzero;fill:rgb(11.369324%,10.978699%,10.978699%);fill-opacity:1;" d="M 383.511719 379.148438 L 383.515625 379.132812 C 383.464844 379.132812 383.421875 379.128906 383.367188 379.128906 C 383.160156 379.101562 382.957031 379.058594 382.742188 379.039062 C 382.320312 379 381.894531 378.992188 381.472656 378.992188 C 368.289062 378.03125 355.230469 378.757812 341.792969 381.585938 C 327.660156 384.570312 319.101562 373.140625 319.101562 373.140625 C 319.167969 396.199219 368.289062 405.613281 378.425781 407.3125 C 379.03125 407.449219 379.644531 407.554688 380.277344 407.609375 C 388.167969 408.289062 395.121094 402.449219 395.800781 394.558594 C 396.460938 386.929688 391.007812 380.195312 383.511719 379.148438 "/>
<path style=" stroke:none;fill-rule:nonzero;fill:rgb(11.369324%,10.978699%,10.978699%);fill-opacity:1;" d="M 418.933594 379.148438 L 418.933594 379.132812 C 418.980469 379.132812 419.03125 379.128906 419.078125 379.128906 C 419.292969 379.101562 419.492188 379.058594 419.707031 379.039062 C 420.132812 379 420.554688 378.992188 420.972656 378.992188 C 434.15625 378.03125 447.21875 378.757812 460.660156 381.585938 C 474.785156 384.570312 483.34375 373.140625 483.34375 373.140625 C 483.285156 396.199219 434.164062 405.613281 424.019531 407.3125 C 423.417969 407.449219 422.808594 407.554688 422.175781 407.609375 C 414.28125 408.289062 407.332031 402.449219 406.652344 394.558594 C 405.992188 386.929688 411.4375 380.195312 418.933594 379.148438 "/>
<path style=" stroke:none;fill-rule:nonzero;fill:rgb(25.489807%,23.139954%,20.779419%);fill-opacity:1;" d="M 586.609375 119.945312 C 530.429688 118.226562 491.171875 66.820312 491.171875 66.820312 L 491.144531 66.820312 C 475.746094 32.492188 441.296875 8.566406 401.226562 8.566406 C 361.15625 8.566406 326.699219 32.492188 311.308594 66.820312 L 311.28125 66.820312 C 311.28125 66.820312 280.078125 118.226562 223.890625 119.945312 C 167.710938 121.667969 123.453125 62.3125 125.375 90.054688 C 127.304688 117.789062 234.84375 267.914062 234.84375 267.914062 C 294.929688 239.613281 344.542969 231.859375 373.527344 230.042969 L 436.980469 230.042969 C 465.964844 231.859375 515.570312 239.613281 575.65625 267.914062 C 575.65625 267.914062 683.203125 117.789062 685.125 90.054688 C 687.054688 62.3125 642.789062 121.667969 586.609375 119.945312 "/>
<path style=" stroke:none;fill-rule:nonzero;fill:rgb(100%,100%,100%);fill-opacity:1;" d="M 433.996094 166.769531 L 410.71875 143.503906 L 433.996094 120.234375 C 437.289062 123.53125 442.628906 123.53125 445.921875 120.234375 C 449.21875 116.941406 449.21875 111.605469 445.921875 108.3125 C 443.988281 106.371094 441.335938 105.585938 438.816406 105.929688 C 439.160156 103.40625 438.371094 100.761719 436.429688 98.824219 C 433.136719 95.53125 427.796875 95.53125 424.503906 98.824219 C 421.207031 102.117188 421.207031 107.453125 424.503906 110.746094 L 401.226562 134.011719 L 377.949219 110.746094 C 381.246094 107.453125 381.246094 102.117188 377.949219 98.824219 C 374.65625 95.53125 369.316406 95.53125 366.023438 98.824219 C 364.078125 100.761719 363.292969 103.40625 363.636719 105.929688 C 361.113281 105.585938 358.464844 106.371094 356.523438 108.3125 C 353.226562 111.605469 353.226562 116.941406 356.523438 120.234375 C 359.816406 123.53125 365.160156 123.53125 368.457031 120.234375 L 381.023438 132.796875 L 391.726562 143.503906 L 381.023438 154.207031 L 368.457031 166.769531 C 365.160156 163.476562 359.816406 163.476562 356.523438 166.769531 C 353.226562 170.0625 353.226562 175.398438 356.523438 178.691406 C 358.464844 180.632812 361.113281 181.421875 363.636719 181.078125 C 363.292969 183.597656 364.078125 186.246094 366.023438 188.179688 C 369.316406 191.476562 374.65625 191.476562 377.949219 188.179688 C 381.246094 184.886719 381.246094 179.550781 377.949219 176.257812 L 401.226562 152.992188 L 424.503906 176.257812 C 421.207031 179.550781 421.207031 184.886719 424.503906 188.179688 C 427.796875 191.476562 433.136719 191.476562 436.429688 188.179688 C 438.371094 186.246094 439.160156 183.597656 438.816406 181.078125 C 441.335938 181.421875 443.988281 180.632812 445.921875 178.691406 C 449.21875 175.398438 449.21875 170.0625 445.921875 166.769531 C 442.628906 163.476562 437.289062 163.476562 433.996094 166.769531 "/>
<path style=" stroke:none;fill-rule:nonzero;fill:rgb(11.369324%,10.978699%,10.978699%);fill-opacity:1;" d="M 401.253906 499.398438 C 401.253906 512.585938 339.015625 504.976562 339.015625 504.976562 C 369.996094 516.214844 401.253906 516.699219 401.253906 516.699219 C 401.253906 516.699219 432.507812 516.214844 463.492188 504.976562 C 463.492188 504.976562 401.253906 512.585938 401.253906 499.398438 "/>
</g>
</svg>
