<?xml version="1.0" encoding="UTF-8"?>
<svg xmlns="http://www.w3.org/2000/svg" xmlns:xlink="http://www.w3.org/1999/xlink" width="810pt" height="809.999993pt" viewBox="0 0 810 809.999993" version="1.2">
<g id="surface1">
<path style=" stroke:none;fill-rule:nonzero;fill:rgb(100%,100%,100%);fill-opacity:1;" d="M 189.277344 406.570312 C 188.636719 411.070312 190.347656 413.640625 195.058594 414.925781 C 202.339844 417.285156 209.621094 419.855469 216.683594 422.425781 C 220.539062 423.925781 224.394531 425.210938 228.246094 426.496094 L 230.386719 427.140625 L 230.386719 429.496094 C 230.386719 429.710938 230.386719 429.925781 230.386719 429.925781 L 231.460938 433.355469 L 228.035156 434.210938 C 225.25 434.855469 222.253906 435.496094 219.46875 436.140625 C 212.832031 437.640625 206.195312 439.351562 199.554688 440.636719 C 192.488281 442.136719 187.992188 444.496094 185.851562 448.136719 C 183.710938 451.78125 183.710938 456.921875 186.066406 463.777344 C 188.421875 471.277344 190.777344 478.5625 193.132812 485.847656 L 194.203125 489.0625 L 190.777344 489.917969 C 187.351562 490.773438 183.925781 491.203125 180.285156 491.203125 C 170.4375 491.203125 160.371094 487.773438 152.023438 481.347656 C 140.675781 472.5625 134.035156 460.136719 133.824219 446.851562 C 133.394531 427.140625 139.390625 407.644531 151.378906 389.003906 C 162.085938 372.289062 177.289062 364.792969 200.625 364.578125 L 205.765625 364.578125 L 203.625 369.289062 C 202.339844 372.074219 200.839844 375.074219 199.339844 377.859375 C 196.558594 383.433594 193.773438 389.003906 191.417969 394.789062 C 190.136719 397.785156 189.707031 401.214844 189.0625 404.644531 Z M 446.21875 566.621094 C 449.214844 563.621094 451.140625 559.550781 451.140625 555.265625 C 451.140625 551.195312 449.644531 547.554688 446.859375 544.554688 C 438.507812 536.410156 427.804688 532.125 414.527344 531.699219 L 411.101562 531.484375 L 411.101562 582.90625 L 414.957031 582.046875 C 428.015625 579.476562 437.867188 574.550781 446.21875 566.621094 Z M 688.167969 167.886719 C 690.09375 169.816406 692.023438 171.746094 694.164062 173.246094 C 696.734375 175.171875 699.730469 177.101562 702.726562 178.816406 C 704.65625 180.101562 706.796875 181.386719 709.152344 182.886719 L 714.074219 186.316406 L 714.074219 156.960938 L 710.007812 156.53125 C 701.65625 155.460938 693.734375 154.390625 685.597656 159.960938 L 682.386719 162.316406 L 685.382812 165.101562 C 686.242188 165.960938 687.3125 166.816406 688.167969 167.886719 Z M 204.695312 667.324219 C 201.054688 663.894531 197.199219 660.253906 193.5625 656.609375 C 191.417969 654.683594 188.421875 653.183594 184.140625 651.898438 C 175.574219 649.324219 164.226562 646.113281 152.878906 643.113281 C 134.894531 638.398438 117.335938 640.753906 102.347656 649.324219 C 86.71875 658.324219 73.65625 672.035156 61.453125 692.605469 C 57.597656 699.246094 56.742188 709.53125 59.523438 719.386719 C 61.878906 727.957031 66.375 734.386719 71.730469 737.171875 C 82.863281 743.171875 94.851562 747.671875 107.273438 739.957031 C 108.34375 739.3125 109.839844 739.101562 111.125 738.671875 C 111.769531 738.457031 112.410156 738.242188 113.265625 738.027344 C 118.191406 736.527344 120.976562 737.601562 123.972656 742.527344 C 129.539062 751.527344 138.105469 757.3125 147.738281 758.597656 C 157.804688 759.882812 168.082031 756.453125 176.003906 748.957031 C 178.359375 746.597656 181.140625 745.527344 183.710938 745.742188 C 185.851562 745.957031 187.992188 747.242188 189.707031 749.597656 C 195.058594 756.882812 202.125 759.667969 212.617188 759.027344 C 213.902344 759.238281 215.1875 759.453125 216.472656 759.453125 C 222.679688 759.453125 228.246094 756.453125 233.386719 750.457031 C 249.230469 731.171875 245.164062 716.386719 232.53125 697.320312 C 224.820312 686.179688 214.542969 676.535156 204.695312 667.324219 Z M 164.011719 145.390625 C 173.003906 141.320312 182 137.25 192.703125 132.320312 L 198.914062 129.535156 L 192.917969 126.535156 C 180.929688 120.75 172.363281 119.679688 166.796875 123.324219 C 161.871094 126.535156 159.515625 132.75 159.730469 142.605469 L 159.945312 147.535156 Z M 616.226562 688.320312 C 614.511719 685.320312 612.585938 682.320312 610.871094 679.320312 C 608.304688 674.824219 603.164062 668.824219 597.597656 666.894531 C 593.957031 665.609375 590.101562 664.109375 586.464844 662.609375 C 575.757812 658.324219 564.835938 654.039062 553.0625 654.894531 C 536.359375 653.183594 522.441406 660.039062 508.738281 667.75 C 485.613281 680.820312 471.054688 694.105469 461.632812 711.03125 C 456.707031 719.816406 453.925781 729.886719 451.785156 739.527344 C 449.644531 748.742188 457.351562 760.953125 464.84375 764.382812 C 472.769531 768.023438 483.257812 765.238281 490.539062 757.738281 C 501.03125 747.027344 502.742188 746.8125 514.304688 756.027344 C 526.296875 765.453125 540.214844 767.597656 551.132812 768.238281 C 551.5625 768.238281 551.777344 768.238281 552.203125 768.238281 C 560.984375 768.238281 565.90625 762.453125 570.191406 757.3125 L 571.046875 756.453125 C 576.828125 749.597656 579.398438 749.382812 586.675781 755.167969 C 591.601562 759.027344 598.023438 762.667969 605.089844 765.238281 C 614.726562 769.097656 624.363281 765.238281 629.285156 755.382812 C 633.570312 746.597656 634.640625 736.742188 632.496094 724.746094 C 630.144531 711.03125 623.078125 699.460938 616.226562 688.320312 Z M 714.289062 469.136719 L 714.074219 472.777344 L 710.4375 472.132812 C 709.152344 471.921875 707.652344 471.492188 706.367188 471.277344 C 703.796875 470.632812 701.441406 470.207031 699.300781 470.207031 C 692.664062 470.632812 685.382812 471.492188 675.964844 472.992188 L 674.894531 473.207031 C 665.042969 475.132812 654.550781 476.847656 644.917969 479.632812 C 637.636719 481.5625 630.355469 484.347656 623.078125 486.917969 C 619.652344 488.203125 616.226562 489.488281 612.800781 490.5625 L 602.523438 493.988281 L 610.015625 484.347656 C 617.296875 475.132812 624.148438 466.136719 625.433594 454.566406 C 626.074219 446.851562 626.71875 438.925781 626.71875 430.996094 C 627.144531 406.785156 613.441406 388.789062 600.167969 374.433594 C 589.246094 362.863281 573.402344 360.292969 557.984375 357.933594 L 556.488281 357.722656 C 527.152344 353.222656 498.890625 361.363281 477.476562 368.863281 C 467.628906 372.289062 459.707031 378.71875 453.925781 388.359375 C 441.078125 408.929688 437.867188 431.855469 436.152344 453.496094 C 435.296875 465.707031 436.796875 475.132812 441.078125 483.277344 C 445.574219 491.417969 453.070312 496.347656 460.992188 501.703125 C 463.5625 503.417969 466.128906 505.128906 468.699219 507.058594 C 469.34375 507.488281 471.269531 507.703125 472.554688 507.914062 L 472.769531 507.914062 C 507.242188 511.128906 541.285156 509.203125 573.402344 501.917969 L 582.824219 499.773438 L 576.398438 507.058594 C 574.472656 509.414062 572.546875 511.558594 570.617188 513.914062 C 565.695312 519.699219 560.554688 525.699219 554.988281 531.269531 C 546.851562 539.410156 542.996094 549.910156 539.144531 560.835938 C 536.574219 567.90625 534.003906 575.191406 530.152344 581.835938 C 529.722656 582.476562 529.722656 584.835938 529.722656 586.121094 C 529.722656 589.121094 529.722656 592.332031 529.722656 595.332031 C 529.722656 604.332031 529.722656 613.542969 529.9375 622.542969 L 529.9375 622.972656 C 529.9375 624.257812 530.578125 625.972656 531.222656 627.6875 C 531.648438 628.757812 532.078125 630.042969 532.507812 631.328125 L 533.363281 634.96875 L 529.722656 635.398438 C 527.796875 635.613281 526.082031 635.828125 524.15625 636.042969 C 520.730469 636.46875 517.304688 636.898438 513.664062 637.328125 C 508.523438 637.542969 503.386719 637.96875 498.246094 638.183594 C 478.761719 639.253906 458.636719 640.328125 438.722656 640.753906 C 425.875 641.183594 412.601562 641.398438 399.113281 641.398438 C 390.332031 641.398438 381.554688 641.183594 372.777344 640.96875 C 363.78125 640.753906 354.574219 639.898438 345.796875 639.042969 C 335.089844 637.96875 324.171875 636.898438 313.25 636.898438 C 288.199219 636.898438 264.863281 631.328125 242.808594 625.328125 C 234.242188 623.1875 226.105469 619.757812 218.183594 616.542969 C 214.542969 615.042969 210.691406 613.542969 206.835938 612.046875 L 202.339844 610.332031 L 205.550781 606.902344 C 206.621094 605.617188 207.90625 604.546875 208.976562 603.476562 C 211.117188 601.546875 213.257812 599.617188 214.328125 597.261719 C 222.894531 578.40625 221.394531 558.050781 209.40625 535.125 C 206.40625 529.339844 201.695312 523.769531 197.199219 518.414062 C 195.058594 515.84375 192.917969 513.273438 190.992188 510.699219 L 186.496094 504.917969 L 193.773438 505.558594 C 195.703125 505.773438 197.84375 505.988281 199.769531 506.203125 C 202.769531 506.628906 205.765625 506.84375 208.550781 507.058594 C 211.976562 507.273438 215.402344 507.488281 218.828125 507.703125 C 235.527344 508.988281 251.371094 510.058594 267.003906 503.417969 C 279.421875 498.058594 288.84375 489.703125 293.980469 478.992188 C 302.972656 460.351562 305.113281 440.640625 300.191406 420.070312 C 290.984375 381.503906 262.078125 356.433594 222.464844 353.007812 C 220.539062 352.792969 218.183594 353.222656 215.828125 353.4375 C 212.617188 353.863281 209.40625 354.292969 205.980469 353.648438 C 183.070312 349.152344 164.226562 357.292969 144.957031 380.433594 C 140.460938 385.789062 137.460938 392.429688 134.25 399.5 C 133.179688 401.859375 132.109375 404 131.039062 406.359375 C 124.1875 420.5 121.832031 433.996094 123.972656 447.710938 C 124.828125 453.496094 126.328125 459.277344 127.613281 465.277344 C 128.253906 467.847656 128.898438 470.421875 129.324219 472.992188 L 130.398438 477.917969 L 125.472656 476.847656 C 123.117188 476.207031 120.546875 475.777344 118.191406 475.132812 C 113.265625 473.847656 108.128906 472.5625 102.988281 471.707031 C 98.492188 470.847656 93.996094 470.636719 89.5 470.207031 C 86.71875 469.992188 83.933594 469.777344 81.148438 469.347656 L 78.367188 468.921875 L 78.367188 466.136719 C 78.152344 442.351562 82.007812 419.214844 85.859375 399.714844 L 86.289062 397.574219 C 90.144531 378.71875 94.210938 359.222656 104.703125 342.082031 C 107.058594 338.007812 109.628906 333.722656 112.410156 329.226562 L 115.835938 323.867188 L 118.40625 324.941406 C 144.527344 335.222656 172.578125 336.296875 199.769531 337.582031 C 202.980469 337.796875 206.195312 337.796875 209.191406 338.007812 C 225.679688 339.082031 244.09375 337.367188 263.578125 333.082031 C 291.625 327.082031 319.246094 319.367188 345.367188 310.371094 C 356.074219 306.726562 366.351562 300.726562 376.203125 294.945312 C 380.054688 292.800781 383.910156 290.445312 387.976562 288.300781 C 396.328125 283.585938 402.964844 279.300781 408.746094 274.804688 C 417.3125 267.734375 426.304688 259.804688 436.367188 250.164062 C 442.148438 244.59375 447.929688 238.59375 453.28125 233.023438 C 456.066406 230.238281 458.636719 227.453125 461.417969 224.667969 L 463.988281 221.882812 L 466.128906 224.882812 C 476.40625 238.808594 487.113281 253.589844 497.820312 268.375 L 502.957031 275.230469 L 498.460938 276.515625 C 496.535156 276.945312 494.609375 277.589844 492.464844 278.015625 C 487.542969 279.089844 482.617188 280.160156 478.335938 282.300781 C 471.695312 285.515625 463.347656 289.800781 458.207031 295.800781 C 455.425781 299.015625 452.425781 303.941406 453.925781 307.800781 C 455.425781 311.441406 460.347656 314.011719 466.773438 314.871094 C 477.050781 315.941406 488.398438 316.15625 501.246094 315.511719 C 511.09375 314.871094 521.371094 313.582031 532.71875 311.226562 C 535.289062 310.796875 537.859375 309.511719 540.855469 307.800781 C 542.570312 306.941406 544.28125 306.085938 546.421875 305.226562 L 547.921875 304.585938 L 549.207031 305.226562 C 551.347656 306.300781 553.703125 307.800781 556.058594 309.085938 C 560.769531 311.871094 565.90625 314.871094 571.261719 317.011719 C 590.960938 325.152344 614.296875 334.367188 637.207031 342.292969 C 648.558594 346.152344 660.976562 346.152344 673.179688 342.507812 C 675.964844 341.652344 678.746094 341.007812 681.957031 340.367188 C 683.671875 339.9375 685.597656 339.722656 687.527344 339.082031 L 690.523438 338.4375 L 693.09375 347.863281 C 705.082031 387.503906 716.429688 427.355469 714.289062 469.136719 Z M 276.210938 580.121094 C 289.269531 588.261719 301.476562 592.546875 314.320312 593.832031 C 337.660156 595.976562 363.78125 598.117188 386.050781 599.832031 C 411.746094 597.902344 429.300781 593.191406 444.933594 583.976562 C 453.710938 579.050781 459.277344 571.335938 460.992188 562.335938 C 463.347656 548.625 454.78125 535.125 440.222656 530.199219 L 439.367188 529.984375 C 434.871094 528.484375 429.730469 526.984375 425.449219 523.769531 C 420.308594 520.128906 415.382812 519.699219 409.390625 520.128906 C 405.320312 520.34375 401.253906 520.769531 397.398438 520.984375 C 381.769531 522.054688 365.710938 523.34375 349.652344 522.699219 C 337.445312 522.484375 325.242188 520.128906 313.464844 517.984375 C 309.183594 517.128906 304.6875 516.484375 300.40625 515.628906 C 298.050781 515.199219 295.90625 515.199219 293.765625 515.199219 C 283.703125 515.199219 274.28125 518.84375 266.789062 526.128906 C 262.507812 530.199219 253.085938 540.695312 257.582031 553.980469 C 261.222656 566.40625 267.429688 574.550781 276.210938 580.121094 Z M 409.175781 480.703125 C 408.960938 480.492188 408.53125 480.277344 408.320312 480.0625 C 389.691406 467.421875 371.492188 464.207031 352.648438 470.207031 C 342.371094 473.632812 333.59375 477.277344 329.097656 486.0625 C 331.023438 487.5625 332.523438 488.847656 333.378906 488.847656 C 334.449219 489.0625 336.375 487.988281 339.800781 486.277344 C 349.007812 481.777344 359.5 477.707031 370.632812 477.707031 C 377.273438 477.707031 384.335938 479.203125 391.402344 482.847656 C 393.757812 484.132812 396.113281 485.203125 398.46875 486.488281 C 400.824219 487.5625 403.394531 488.847656 405.75 490.132812 C 408.320312 491.632812 410.03125 491.847656 410.886719 491.632812 C 411.101562 491.632812 411.316406 491.417969 411.746094 490.5625 C 412.601562 488.847656 411.53125 484.988281 410.886719 482.417969 L 410.675781 481.777344 C 410.246094 481.347656 409.605469 480.917969 409.175781 480.703125 Z M 520.730469 451.566406 C 522.226562 450.921875 523.511719 450.496094 525.011719 449.851562 L 527.796875 448.566406 L 526.726562 445.78125 C 526.082031 444.496094 525.652344 443.636719 525.226562 442.78125 L 524.371094 441.496094 L 522.871094 441.28125 C 519.445312 441.066406 515.804688 440.636719 512.378906 440.425781 C 508.738281 440.210938 504.886719 439.78125 501.246094 439.566406 C 496.535156 439.140625 493.535156 437.851562 491.824219 435.925781 C 490.324219 433.996094 489.683594 430.996094 490.109375 426.710938 L 490.324219 423.925781 C 492.039062 408.070312 493.535156 393.074219 501.246094 378.71875 L 504.242188 373.363281 L 498.035156 374.003906 C 476.621094 376.359375 462.0625 387.71875 454.566406 407.644531 C 448.359375 423.710938 445.789062 442.136719 446.21875 463.777344 C 446.429688 477.917969 463.988281 496.34375 477.90625 497.203125 C 482.1875 497.417969 486.257812 497.632812 490.324219 497.632812 C 493.109375 497.632812 495.890625 497.632812 498.460938 497.632812 C 501.03125 497.632812 503.601562 497.632812 505.957031 497.632812 L 509.382812 497.632812 L 509.167969 494.203125 C 508.953125 490.5625 508.523438 487.132812 508.097656 483.917969 C 507.453125 477.277344 506.597656 471.0625 507.027344 465.0625 C 507.242188 457.566406 512.378906 454.992188 520.730469 451.566406 Z M 372.988281 586.546875 C 382.839844 586.546875 392.472656 586.121094 402.109375 583.976562 L 404.894531 583.335938 L 404.679688 580.550781 C 404.035156 570.265625 403.394531 560.621094 402.539062 550.980469 C 402.109375 545.410156 401.679688 540.054688 401.46875 534.269531 L 401.253906 531.054688 L 392.902344 531.484375 C 384.125 531.914062 375.773438 532.554688 367.421875 532.984375 L 364.640625 533.199219 L 362.710938 549.910156 C 361.425781 561.050781 360.144531 571.550781 359.070312 582.691406 L 358.859375 586.121094 L 362.285156 586.121094 C 365.710938 586.332031 369.351562 586.546875 372.988281 586.546875 Z M 302.117188 576.90625 L 302.757812 574.121094 C 305.757812 560.195312 308.753906 545.839844 311.753906 530.625 L 312.394531 527.414062 L 309.183594 526.769531 C 298.90625 524.84375 287.984375 523.984375 277.28125 530.199219 C 271.285156 533.625 265.074219 543.695312 266.574219 550.339844 C 269.359375 563.410156 284.773438 575.621094 299.546875 576.691406 Z M 308.96875 581.191406 L 312.824219 581.621094 C 324.386719 582.691406 335.734375 583.546875 350.078125 584.40625 L 353.292969 584.621094 L 353.503906 581.40625 C 354.574219 566.40625 355.433594 552.695312 356.71875 536.625 L 356.929688 533.414062 L 353.933594 532.984375 C 344.726562 531.914062 336.375 531.054688 325.027344 529.554688 L 322.246094 529.128906 L 318.820312 543.054688 C 316.035156 554.410156 313.039062 565.550781 310.039062 577.335938 Z M 308.96875 581.191406 "/>
<path style=" stroke:none;fill-rule:nonzero;fill:rgb(98.039246%,60.778809%,45.098877%);fill-opacity:1;" d="M 215.1875 532.554688 C 227.820312 556.980469 229.53125 578.835938 220.109375 599.402344 C 218.613281 602.617188 216.042969 604.972656 213.472656 607.332031 C 212.402344 608.402344 211.332031 609.257812 210.261719 610.332031 L 209.40625 611.1875 L 208.121094 610.757812 C 206.621094 610.332031 205.121094 609.902344 203.410156 609.6875 C 200.199219 609.046875 196.773438 608.1875 193.5625 606.902344 C 180.070312 601.117188 165.511719 594.691406 150.953125 587.832031 C 146.882812 585.90625 143.03125 583.546875 139.175781 581.40625 C 137.675781 580.550781 136.390625 579.691406 134.894531 578.835938 C 133.824219 578.191406 132.964844 577.335938 132.324219 576.691406 C 131.46875 575.835938 130.609375 575.191406 130.183594 574.976562 C 119.691406 573.691406 114.550781 566.621094 109.199219 559.335938 C 108.128906 558.050781 107.058594 556.550781 105.988281 555.050781 L 103.847656 552.265625 L 107.273438 551.625 C 107.914062 551.410156 108.558594 551.410156 109.199219 551.195312 C 111.339844 550.765625 113.054688 550.339844 114.980469 550.339844 C 119.90625 550.339844 124.828125 550.554688 129.753906 550.765625 C 137.035156 550.980469 144.3125 551.195312 151.59375 551.195312 C 159.300781 551.195312 161.441406 550.125 164.441406 543.695312 C 163.585938 543.480469 162.941406 543.269531 162.085938 543.054688 C 158.875 541.984375 155.875 541.125 152.878906 540.910156 C 136.820312 540.054688 122.6875 539.410156 109.628906 539.195312 C 96.996094 538.984375 95.066406 538.125 90.570312 526.339844 C 89.070312 522.269531 87.789062 517.984375 86.503906 513.914062 C 85.859375 511.34375 85.003906 508.988281 84.148438 506.414062 L 83.71875 505.128906 L 84.574219 504.273438 C 85.003906 503.84375 85.433594 503.628906 85.859375 503.203125 C 86.074219 502.988281 86.503906 502.773438 86.71875 502.558594 L 87.789062 501.488281 L 89.070312 502.128906 C 104.488281 508.558594 119.261719 514.558594 132.964844 519.914062 L 157.375 529.554688 C 166.796875 533.199219 170.222656 532.125 173.433594 527.628906 C 169.367188 521.199219 162.515625 518.84375 155.664062 516.273438 C 154.378906 515.84375 153.308594 515.414062 152.023438 514.984375 C 148.382812 513.484375 144.742188 511.988281 141.101562 510.699219 C 124.402344 503.84375 107.058594 496.988281 88.859375 493.988281 C 85.21875 493.347656 80.722656 488.847656 80.292969 485.203125 C 79.4375 479.632812 80.078125 474.0625 80.722656 468.707031 L 81.148438 464.207031 L 83.292969 464.421875 C 86.074219 464.636719 88.644531 465.0625 91.425781 465.277344 C 95.925781 465.707031 100.632812 466.136719 105.34375 466.777344 C 110.699219 467.636719 115.835938 468.921875 120.976562 470.207031 C 123.332031 470.847656 125.6875 471.492188 128.042969 471.921875 L 128.898438 472.132812 L 129.324219 472.777344 C 142.171875 489.488281 158.015625 499.558594 178.144531 503.628906 L 195.703125 507.058594 L 196.128906 507.703125 C 198.058594 510.273438 200.199219 512.84375 202.125 515.199219 C 207.050781 520.558594 211.761719 526.339844 215.1875 532.554688 Z M 713.21875 476.207031 C 713.003906 473.632812 713.003906 471.0625 713.003906 468.707031 L 713.003906 466.992188 L 711.292969 466.777344 C 710.007812 466.5625 708.9375 466.347656 707.652344 465.921875 C 704.871094 465.277344 702.085938 464.636719 699.089844 464.851562 C 692.234375 465.277344 684.742188 466.136719 675.105469 467.636719 L 673.824219 467.847656 C 663.757812 469.777344 653.480469 471.492188 643.417969 474.277344 C 635.921875 476.417969 628.429688 478.992188 621.148438 481.5625 C 617.722656 482.847656 614.296875 483.917969 610.871094 485.203125 L 610.660156 485.203125 C 598.238281 491.203125 585.820312 497.203125 572.546875 503.628906 L 572.117188 503.84375 L 571.902344 504.058594 C 569.332031 506.84375 566.980469 509.84375 564.410156 512.628906 C 560.125 517.769531 555.628906 523.128906 550.707031 527.839844 C 541.714844 536.839844 537.644531 548.195312 533.789062 559.335938 C 531.433594 566.195312 528.867188 573.265625 525.011719 579.691406 C 523.941406 581.835938 523.941406 584.621094 523.941406 586.546875 C 523.941406 589.546875 523.941406 592.546875 523.941406 595.761719 C 523.941406 604.761719 523.941406 613.972656 524.15625 622.972656 C 524.15625 625.757812 525.226562 628.113281 526.082031 630.472656 C 526.511719 631.328125 526.726562 632.183594 527.152344 633.042969 L 527.582031 634.542969 L 529.292969 634.542969 C 531.863281 634.542969 534.648438 634.328125 537.214844 634.328125 C 545.351562 634.113281 553.488281 633.683594 561.839844 633.042969 C 583.039062 631.113281 604.449219 625.328125 627.144531 615.6875 C 644.058594 608.402344 659.261719 597.476562 676.605469 579.90625 L 679.605469 576.90625 L 675.320312 576.265625 C 648.769531 572.835938 624.789062 569.621094 600.59375 566.621094 C 593.316406 565.765625 592.457031 565.765625 592.886719 557.835938 C 611.730469 554.410156 630.785156 557.195312 649.199219 559.765625 C 662.046875 561.695312 675.535156 563.410156 688.597656 563.410156 L 689.882812 563.410156 L 690.523438 562.335938 C 691.378906 560.621094 692.449219 558.910156 693.308594 557.195312 C 699.730469 545.839844 706.152344 533.839844 706.796875 519.058594 L 707.011719 516.058594 L 700.160156 518.199219 C 695.660156 519.699219 691.808594 520.769531 687.738281 521.84375 C 657.550781 529.554688 627.359375 537.054688 596.953125 544.769531 L 593.527344 545.625 C 589.890625 546.480469 585.179688 547.769531 581.109375 547.339844 C 579.398438 547.125 576.1875 544.769531 575.972656 543.910156 C 575.757812 541.984375 578.113281 537.910156 579.183594 537.484375 C 588.820312 533.839844 599.308594 530.628906 610.871094 527.628906 C 621.792969 524.628906 632.925781 521.84375 643.632812 519.269531 C 650.484375 517.558594 657.121094 515.84375 663.972656 514.128906 C 670.394531 512.414062 677.035156 510.488281 683.457031 508.773438 C 689.882812 507.058594 696.519531 505.128906 702.941406 503.417969 C 710.007812 501.703125 713.648438 497.84375 713.648438 492.0625 C 713.863281 486.703125 713.648438 481.347656 713.21875 476.207031 Z M 713.21875 476.207031 "/>
<path style=" stroke:none;fill-rule:nonzero;fill:rgb(58.81958%,50.979614%,86.268616%);fill-opacity:1;" d="M 77.082031 220.597656 C 68.945312 198.742188 65.949219 177.957031 68.304688 156.746094 C 71.300781 128.25 84.789062 103.398438 109.199219 80.6875 C 123.332031 67.617188 138.746094 61.832031 156.734375 63.117188 C 159.515625 63.332031 162.300781 63.332031 164.871094 63.546875 C 178.359375 64.1875 192.488281 64.832031 205.121094 72.328125 C 207.050781 73.613281 209.191406 74.6875 211.332031 75.972656 C 225.25 84.113281 239.808594 92.46875 246.234375 112.179688 L 247.519531 116.464844 L 243.234375 117.753906 C 240.878906 118.394531 238.523438 119.039062 236.167969 119.894531 C 227.605469 122.464844 219.46875 124.824219 211.332031 126.75 C 208.121094 127.609375 205.550781 125.894531 203.195312 124.609375 C 202.554688 124.179688 201.910156 123.75 201.269531 123.539062 C 198.914062 122.464844 196.558594 121.179688 194.203125 119.894531 C 189.277344 117.324219 184.78125 114.753906 180.070312 113.679688 C 172.363281 111.96875 165.296875 113.039062 159.945312 116.679688 C 154.378906 120.539062 150.738281 127.179688 149.453125 135.964844 C 146.667969 156.320312 138.53125 172.386719 123.757812 186.742188 C 120.332031 190.171875 117.550781 194.886719 114.550781 199.8125 C 112.839844 202.8125 110.910156 205.8125 108.769531 208.597656 C 105.34375 213.738281 101.492188 218.667969 97.636719 223.808594 C 95.496094 226.59375 93.355469 229.59375 91.214844 232.59375 L 87.574219 237.523438 L 84.574219 232.164062 C 83.71875 230.667969 82.648438 229.378906 81.792969 228.308594 C 79.863281 225.738281 78.152344 223.382812 77.082031 220.597656 Z M 661.617188 152.035156 C 669.113281 157.175781 676.175781 157.175781 683.242188 152.246094 C 691.59375 146.25 701.871094 145.605469 710.863281 145.820312 C 719 146.035156 722.425781 151.175781 723.710938 155.246094 C 725.636719 161.890625 726.066406 168.746094 724.355469 173.246094 C 720.285156 185.457031 718.144531 198.3125 731.207031 209.027344 C 731.847656 209.667969 732.488281 210.953125 733.132812 212.453125 C 733.5625 213.3125 733.988281 214.167969 734.417969 215.023438 C 738.269531 221.667969 742.125 228.523438 746.195312 235.378906 C 749.191406 240.523438 752.1875 245.664062 755.1875 251.019531 L 757.753906 255.519531 L 761.609375 251.878906 C 775.957031 238.808594 784.734375 227.023438 790.085938 213.527344 C 799.507812 189.957031 797.582031 165.101562 784.304688 137.464844 C 780.238281 128.894531 774.671875 121.609375 768.890625 116.679688 C 761.179688 110.253906 752.1875 105.539062 742.125 100.398438 C 730.132812 94.398438 717.289062 92.683594 703.796875 95.46875 C 683.671875 99.753906 668.898438 112.179688 655.621094 124.609375 C 653.054688 126.964844 651.125 129.964844 649.199219 132.964844 C 648.34375 134.25 647.484375 135.535156 646.628906 136.820312 L 644.058594 140.464844 L 647.914062 142.820312 C 653.054688 146.460938 657.335938 149.25 661.617188 152.035156 Z M 790.300781 417.5 C 788.160156 393.074219 784.949219 372.289062 781.09375 353.4375 C 775.097656 326.226562 767.820312 302.871094 759.039062 282.089844 C 749.40625 258.949219 736.34375 237.523438 723.710938 216.738281 L 722 213.953125 C 713.003906 199.171875 699.300781 189.957031 686.027344 181.171875 C 681.957031 178.601562 677.890625 175.816406 674.035156 172.816406 C 658.621094 161.460938 641.707031 149.890625 622.007812 142.820312 C 616.011719 140.679688 610.230469 137.679688 604.234375 134.464844 C 598.238281 131.25 592.03125 128.035156 585.394531 125.679688 C 555.628906 115.179688 524.15625 107.894531 492.464844 104.253906 C 467.84375 101.46875 443.648438 99.113281 418.597656 101.46875 C 408.320312 102.539062 397.828125 102.753906 387.550781 103.183594 C 378.128906 103.609375 368.492188 103.824219 358.859375 104.683594 C 349.863281 105.324219 341.300781 107.039062 332.949219 108.753906 C 330.167969 109.394531 327.167969 109.824219 324.386719 110.46875 C 319.03125 111.539062 313.464844 112.394531 307.898438 113.253906 C 292.695312 115.824219 277.066406 118.394531 262.078125 123.109375 C 252.871094 126.109375 243.234375 127.824219 233.816406 129.75 C 217.96875 132.964844 201.484375 136.179688 186.496094 144.535156 C 184.996094 145.390625 183.28125 146.25 181.785156 147.105469 C 173.003906 152.035156 164.011719 156.960938 156.945312 164.03125 C 134.679688 187.171875 117.550781 213.3125 99.136719 242.878906 C 76.011719 279.730469 57.167969 319.582031 43.039062 361.148438 C 29.976562 400.359375 18.84375 435.710938 16.699219 474.0625 C 16.488281 477.277344 16.058594 480.492188 15.84375 483.703125 C 15.203125 489.273438 14.558594 495.058594 14.988281 500.84375 C 16.058594 514.34375 17.773438 528.914062 20.339844 545.410156 C 24.410156 569.40625 33.1875 591.90625 46.675781 612.257812 C 52.671875 621.257812 60.59375 628.757812 68.304688 636.042969 C 70.015625 637.753906 71.730469 639.253906 73.441406 640.96875 C 79.007812 646.539062 86.289062 647.613281 92.710938 643.539062 C 109.628906 632.828125 127.398438 628.757812 145.8125 631.757812 C 179.644531 637.328125 205.121094 650.824219 223.75 673.324219 C 232.316406 683.394531 241.949219 688.320312 255.441406 688.964844 C 265.71875 689.605469 276.210938 690.25 286.273438 691.105469 C 299.761719 692.175781 313.679688 693.25 327.597656 693.675781 C 366.78125 695.175781 406.820312 696.035156 445.789062 696.890625 C 449.214844 696.890625 454.566406 695.820312 457.78125 692.390625 C 469.128906 681.464844 480.261719 669.894531 490.109375 659.609375 L 497.390625 651.898438 L 486.683594 652.324219 C 481.546875 652.539062 476.40625 652.753906 471.269531 652.96875 C 454.996094 653.824219 438.296875 654.683594 421.59375 654.039062 C 396.96875 653.609375 371.917969 652.753906 347.511719 651.683594 C 339.375 651.253906 331.238281 651.039062 323.101562 650.609375 C 310.039062 650.183594 297.40625 648.898438 287.773438 647.824219 C 260.792969 645.039062 235.527344 637.113281 205.550781 625.972656 C 202.980469 625.113281 200.414062 624.257812 197.84375 623.402344 C 192.917969 621.902344 188.207031 620.402344 183.925781 618.257812 C 160.371094 606.902344 140.03125 596.617188 121.617188 586.546875 C 116.050781 583.546875 108.558594 578.835938 104.273438 572.835938 C 94.210938 560.195312 86.074219 547.125 80.078125 534.269531 C 71.515625 516.058594 67.019531 497.84375 66.804688 480.0625 C 66.589844 446.636719 73.226562 414.5 79.652344 387.71875 C 88.214844 352.363281 104.273438 320.867188 128.683594 291.730469 C 144.101562 273.304688 162.085938 256.804688 182.640625 243.09375 C 205.121094 227.878906 235.527344 209.453125 271.070312 201.3125 C 288.84375 197.242188 307.257812 194.671875 325.242188 192.097656 C 333.804688 190.8125 342.585938 189.742188 351.148438 188.242188 C 384.765625 182.886719 419.238281 184.601562 452.425781 186.101562 C 456.710938 186.316406 460.777344 186.527344 464.84375 186.742188 L 465.058594 186.742188 C 471.910156 187.171875 478.761719 187.601562 485.1875 189.101562 C 492.894531 191.027344 500.601562 192.742188 508.097656 194.457031 C 526.511719 198.527344 545.351562 202.8125 563.339844 209.882812 C 565.90625 210.953125 568.691406 212.027344 571.261719 213.097656 C 592.03125 221.238281 611.730469 228.953125 629.5 242.234375 C 652.195312 259.375 670.398438 278.445312 684.527344 300.726562 C 696.945312 320.011719 705.941406 342.292969 711.292969 366.933594 C 715.574219 386.003906 718.359375 401.429688 719.855469 415.570312 C 721.140625 428.640625 721.785156 441.925781 722.210938 454.992188 C 722.640625 463.5625 723.070312 472.5625 723.496094 481.347656 C 723.496094 481.992188 723.496094 482.632812 723.496094 483.277344 C 723.496094 488.203125 723.710938 495.058594 729.921875 500.417969 C 730.347656 500.84375 730.5625 501.058594 730.5625 501.273438 C 730.5625 501.488281 729.921875 502.558594 728.421875 503.628906 C 722 507.488281 720.5 513.273438 719.429688 518.414062 C 718.785156 522.699219 717.289062 527.628906 715.574219 532.554688 C 714.289062 536.199219 712.792969 540.054688 711.292969 543.910156 C 708.722656 550.554688 705.941406 557.410156 704.226562 564.695312 C 702.941406 570.050781 702.085938 572.621094 698.230469 574.765625 C 695.664062 576.265625 693.734375 578.621094 692.023438 580.761719 L 691.378906 581.621094 C 674.894531 602.832031 653.480469 618.902344 627.789062 629.183594 C 617.511719 633.257812 607.230469 637.328125 593.742188 642.683594 L 586.035156 645.683594 L 592.886719 650.183594 C 606.160156 658.753906 620.722656 669.894531 629.5 687.25 L 631 690.25 L 634.210938 689.605469 C 639.5625 688.535156 644.917969 687.464844 650.269531 686.390625 C 666.972656 682.964844 682.816406 679.964844 698.875 675.894531 C 700.371094 675.464844 701.871094 675.035156 703.585938 674.609375 C 716.859375 671.179688 731.847656 667.324219 741.695312 654.683594 L 743.195312 652.753906 C 750.691406 643.328125 758.398438 633.46875 764.179688 622.542969 C 784.734375 583.335938 793.726562 537.484375 792.65625 478.347656 C 793.085938 454.136719 792.015625 435.066406 790.300781 417.5 Z M 790.300781 417.5 "/>
<path style=" stroke:none;fill-rule:nonzero;fill:rgb(98.039246%,86.268616%,19.60907%);fill-opacity:1;" d="M 177.929688 265.804688 L 164.65625 266.234375 L 175.148438 258.089844 C 249.015625 200.671875 333.164062 193.597656 398.253906 193.8125 L 410.886719 193.8125 L 400.824219 201.527344 C 332.734375 253.164062 253.300781 263.019531 177.929688 265.804688 Z M 647.484375 285.945312 L 657.550781 288.515625 L 652.195312 279.515625 C 635.066406 251.019531 573.617188 217.8125 546.636719 217.597656 L 536.574219 217.597656 L 543.640625 224.882812 C 572.757812 255.734375 606.804688 275.660156 647.484375 285.945312 Z M 467.199219 195.097656 L 460.136719 194.671875 C 458.207031 194.457031 456.496094 194.457031 454.78125 194.457031 C 450.929688 194.242188 447.714844 194.027344 444.503906 193.597656 C 429.730469 191.242188 414.101562 191.457031 400.824219 207.3125 C 391.191406 218.453125 377.058594 224.667969 363.355469 230.667969 C 359.929688 232.164062 356.503906 233.664062 352.863281 235.378906 C 316.035156 252.734375 274.710938 263.449219 226.535156 267.734375 C 215.1875 268.804688 203.410156 269.019531 192.0625 269.445312 C 184.355469 269.660156 176.644531 269.875 168.722656 270.304688 C 166.152344 270.519531 159.730469 271.375 156.089844 275.230469 C 148.808594 282.730469 141.957031 290.660156 134.679688 299.015625 C 131.253906 302.871094 128.042969 306.511719 124.402344 310.585938 L 119.90625 315.726562 L 126.328125 317.65625 C 128.683594 318.296875 130.824219 318.941406 132.539062 319.582031 C 135.105469 320.441406 137.460938 321.296875 140.03125 321.726562 C 147.3125 323.226562 154.378906 324.082031 160.585938 324.726562 C 165.296875 325.152344 170.222656 325.796875 174.933594 326.226562 C 187.566406 327.511719 200.625 329.011719 213.6875 329.011719 C 214.328125 329.011719 214.972656 329.011719 215.613281 329.011719 C 231.886719 328.796875 248.589844 326.652344 265.503906 322.796875 L 271.285156 321.511719 C 295.480469 315.726562 320.316406 309.941406 343.871094 300.941406 C 371.917969 290.230469 399.324219 272.875 425.234375 249.09375 C 438.9375 236.449219 451.355469 220.808594 463.347656 201.527344 Z M 505.097656 282.945312 L 504.671875 282.945312 C 490.324219 284.875 474.050781 287.015625 461.417969 300.941406 L 456.496094 306.300781 L 463.5625 308.011719 C 470.625 309.511719 479.191406 310.371094 488.183594 310.371094 C 505.3125 310.371094 523.726562 307.585938 533.363281 302.65625 L 537.859375 300.515625 L 534.859375 296.441406 C 528.007812 286.375 517.089844 281.445312 505.097656 282.945312 Z M 687.097656 326.226562 C 686.027344 324.511719 685.171875 322.796875 684.101562 321.296875 C 680.460938 314.871094 677.25 309.296875 673.394531 304.15625 C 670.609375 300.085938 665.472656 297.515625 661.832031 296.65625 C 639.5625 291.730469 617.9375 283.160156 593.527344 269.875 C 569.546875 257.019531 549.847656 239.878906 534.433594 219.523438 C 529.292969 212.667969 522.871094 205.8125 511.308594 203.667969 C 502.53125 201.957031 493.964844 200.027344 484.972656 197.671875 C 482.402344 197.027344 479.832031 196.386719 477.050781 195.742188 L 474.265625 195.097656 L 472.554688 197.457031 C 472.125 198.097656 471.269531 198.742188 470.625 199.597656 L 468.699219 201.527344 L 469.769531 204.097656 C 470.414062 205.597656 470.839844 207.097656 471.484375 208.597656 C 472.980469 212.667969 474.480469 216.953125 476.621094 221.023438 C 487.113281 240.734375 499.53125 256.375 514.519531 269.019531 C 538.714844 289.800781 565.050781 306.085938 592.671875 317.65625 C 598.667969 320.226562 604.878906 322.152344 611.085938 324.082031 C 617.296875 326.011719 623.933594 328.152344 629.929688 330.722656 C 638.277344 334.367188 646.414062 335.652344 654.550781 335.652344 C 661.832031 335.652344 669.113281 334.796875 676.605469 333.722656 C 678.960938 333.507812 681.53125 333.082031 683.886719 332.867188 L 690.523438 332.011719 Z M 687.097656 326.226562 "/>
<path style=" stroke:none;fill-rule:nonzero;fill:rgb(23.529053%,31.369019%,74.508667%);fill-opacity:1;" d="M 555.628906 786.449219 C 551.5625 786.449219 547.492188 786.449219 543.425781 786.449219 C 542.570312 785.59375 541.925781 784.09375 540.855469 783.878906 C 526.9375 781.308594 514.949219 774.667969 504.027344 766.523438 C 500.386719 769.308594 496.75 772.308594 492.894531 775.09375 C 482.617188 782.59375 471.695312 782.378906 460.347656 778.09375 C 438.722656 769.953125 431.441406 744.027344 436.582031 726.886719 C 438.296875 721.316406 439.578125 715.53125 441.292969 708.675781 C 378.128906 710.816406 316.464844 708.246094 253.726562 700.535156 C 266.574219 730.957031 258.867188 755.382812 233.171875 771.667969 C 216.472656 782.378906 198.699219 775.523438 181.785156 764.8125 C 173.003906 776.378906 159.730469 776.167969 147.097656 773.59375 C 134.035156 771.023438 122.902344 763.953125 114.550781 753.027344 C 111.769531 754.097656 109.414062 754.527344 107.273438 755.597656 C 97.207031 760.953125 87.574219 759.667969 77.082031 755.8125 C 55.027344 747.671875 41.753906 724.316406 43.679688 705.460938 C 44.964844 690.890625 50.960938 679.109375 59.523438 667.964844 C 63.378906 663.039062 67.230469 657.894531 70.015625 654.253906 C 62.734375 649.113281 55.882812 644.828125 49.890625 639.683594 C 40.039062 631.113281 34.042969 619.757812 27.621094 608.617188 C 13.273438 583.976562 5.140625 557.410156 1.925781 529.554688 C 0 511.988281 1.070312 493.988281 1.5 476.207031 C 1.925781 463.351562 2.996094 450.496094 5.351562 438.066406 C 11.347656 407.855469 19.699219 378.503906 29.976562 349.363281 C 41.324219 317.011719 55.027344 285.730469 73.226562 256.378906 C 76.011719 251.878906 76.4375 247.59375 73.65625 243.09375 C 70.230469 237.523438 66.589844 232.378906 64.234375 226.382812 C 53.101562 198.742188 49.03125 170.03125 56.097656 141.105469 C 64.664062 106.398438 85.003906 79.398438 115.410156 59.902344 C 138.105469 45.332031 163.371094 46.617188 187.136719 51.332031 C 217.753906 57.332031 242.378906 74.6875 256.726562 103.824219 C 257.582031 105.539062 258.867188 107.253906 260.152344 108.96875 C 389.046875 76.1875 515.375 75.328125 637.421875 134.894531 C 641.277344 127.609375 643.417969 121.179688 647.484375 116.464844 C 669.539062 90.113281 698.015625 76.828125 731.847656 85.183594 C 764.609375 93.113281 790.300781 111.96875 801.007812 146.035156 C 804.003906 155.246094 806.144531 164.890625 808.929688 174.316406 C 808.929688 185.242188 808.714844 196.171875 808.714844 206.882812 C 808.074219 207.953125 807.003906 209.027344 806.789062 210.3125 C 799.9375 230.878906 790.515625 249.734375 772.101562 262.589844 C 770.601562 263.660156 769.105469 265.160156 767.605469 266.445312 C 768.675781 269.875 769.53125 272.660156 770.601562 275.660156 C 771.03125 276.945312 771.460938 278.230469 772.101562 279.515625 C 790.085938 322.582031 801.222656 367.578125 804.859375 414.070312 C 808.074219 455.636719 810 497.203125 805.074219 538.984375 C 800.363281 578.621094 789.230469 615.902344 765.464844 648.253906 C 757.328125 659.394531 746.195312 669.894531 733.988281 676.109375 C 718.359375 684.25 700.585938 688.535156 683.242188 693.035156 C 670.394531 696.460938 656.90625 697.960938 643.417969 700.320312 C 643.847656 702.03125 644.058594 703.320312 644.488281 704.605469 C 648.34375 720.460938 652.625 735.886719 647.699219 752.597656 C 641.277344 774.667969 626.289062 787.734375 602.523438 781.308594 C 594.386719 779.164062 587.105469 773.59375 580.46875 769.953125 C 571.6875 775.308594 563.554688 780.878906 555.628906 786.449219 Z M 711.078125 468.707031 C 713.21875 425.425781 701.015625 384.71875 689.453125 343.152344 C 683.886719 344.4375 679.601562 345.078125 675.320312 346.363281 C 662.6875 350.007812 649.414062 350.007812 637.421875 346.152344 C 614.941406 338.652344 593.101562 329.867188 571.261719 320.867188 C 562.910156 317.441406 555.417969 312.296875 548.992188 308.871094 C 542.996094 311.441406 538.929688 314.226562 534.648438 315.082031 C 524.15625 317.011719 513.449219 318.726562 502.742188 319.367188 C 490.96875 320.011719 479.191406 320.011719 467.628906 318.726562 C 454.78125 317.441406 444.503906 308.65625 456.921875 294.300781 C 462.277344 288.085938 470.625 283.585938 478.121094 279.945312 C 484.972656 276.730469 492.679688 275.660156 498.890625 273.945312 C 487.328125 258.089844 475.765625 242.234375 464.84375 227.238281 C 456.707031 235.59375 448.574219 244.59375 439.792969 252.949219 C 430.800781 261.519531 421.59375 270.089844 411.957031 277.800781 C 405.535156 283.160156 398.042969 287.445312 390.761719 291.515625 C 376.628906 299.441406 362.925781 308.65625 347.722656 313.796875 C 320.746094 323.011719 293.339844 330.511719 265.503906 336.507812 C 247.519531 340.367188 228.460938 342.507812 210.261719 341.4375 C 179.429688 339.722656 148.167969 339.722656 118.40625 328.152344 C 114.980469 333.722656 111.769531 338.867188 108.769531 344.007812 C 98.492188 361.578125 94.425781 381.074219 90.355469 400.574219 C 85.859375 422.210938 82.648438 443.851562 82.863281 466.136719 C 82.648438 472.132812 81.792969 478.347656 82.648438 484.347656 C 83.078125 487.132812 86.71875 490.988281 89.5 491.417969 C 111.769531 495.058594 132.324219 504.488281 153.09375 512.628906 C 161.441406 515.84375 171.292969 518.199219 176.21875 527.414062 C 171.507812 534.269531 166.796875 535.125 156.734375 531.269531 C 148.597656 528.054688 140.460938 524.84375 132.324219 521.628906 C 117.765625 515.84375 102.988281 509.84375 88.429688 503.84375 C 87.789062 504.488281 86.929688 504.914062 86.289062 505.558594 C 88.429688 512.199219 90.144531 518.84375 92.496094 525.269531 C 96.78125 536.410156 97.851562 536.625 109.628906 536.839844 C 124.1875 537.054688 138.746094 537.699219 153.09375 538.554688 C 157.804688 538.984375 162.515625 540.910156 167.4375 542.195312 C 163.585938 551.195312 161.015625 553.125 151.59375 553.125 C 139.390625 553.125 127.183594 552.480469 114.980469 552.265625 C 112.839844 552.265625 110.699219 552.910156 107.699219 553.550781 C 114.550781 562.335938 119.046875 571.121094 130.398438 572.621094 C 132.539062 572.835938 134.035156 575.40625 136.175781 576.691406 C 141.316406 579.691406 146.457031 583.121094 152.023438 585.691406 C 166.152344 592.332031 180.285156 598.546875 194.632812 604.761719 C 199.128906 606.6875 204.050781 607.332031 208.761719 608.617188 C 220.753906 613.117188 232.316406 618.6875 244.519531 621.902344 C 267.214844 627.898438 290.125 633.042969 314.109375 633.257812 C 334.019531 633.257812 353.71875 636.683594 373.632812 637.328125 C 395.472656 637.96875 417.3125 637.753906 439.367188 637.113281 C 464.417969 636.46875 489.253906 634.96875 514.304688 633.683594 C 519.660156 633.46875 524.796875 632.398438 530.152344 631.757812 C 540.855469 631.328125 551.777344 631.328125 562.480469 630.257812 C 584.964844 628.328125 606.375 621.902344 627.144531 613.117188 C 645.773438 605.1875 660.976562 592.761719 675.964844 577.761719 C 650.054688 574.335938 625.644531 571.121094 601.238281 568.121094 C 592.03125 567.050781 590.960938 565.980469 591.601562 555.480469 C 624.574219 549.054688 656.90625 561.265625 689.453125 560.621094 C 696.734375 547.125 704.65625 534.699219 705.511719 518.199219 C 699.300781 520.128906 694.164062 521.84375 689.023438 523.128906 C 657.550781 531.054688 626.074219 539.195312 594.8125 546.910156 C 590.53125 547.980469 586.035156 549.054688 581.753906 548.625 C 578.96875 548.410156 574.6875 545.195312 574.6875 543.269531 C 574.472656 540.484375 576.828125 535.554688 579.398438 534.699219 C 589.675781 530.839844 600.59375 527.628906 611.300781 524.84375 C 628.859375 520.128906 646.628906 516.058594 664.402344 511.34375 C 677.460938 507.914062 690.308594 504.058594 703.585938 500.628906 C 708.9375 499.34375 712.363281 496.558594 712.578125 491.203125 C 711.722656 484.347656 711.292969 476.632812 711.078125 468.707031 Z M 486.472656 656.824219 C 465.273438 657.683594 443.21875 659.394531 421.378906 659.179688 C 388.621094 658.753906 355.644531 657.039062 322.886719 655.753906 C 311.109375 655.324219 299.121094 654.253906 287.34375 652.96875 C 258.4375 649.753906 231.03125 640.96875 204.050781 630.898438 C 196.773438 628.113281 189.0625 626.613281 182 623.1875 C 161.015625 612.902344 140.03125 602.402344 119.476562 591.476562 C 112.410156 587.621094 105.128906 582.691406 100.632812 576.476562 C 91.640625 564.050781 83.078125 550.765625 76.4375 536.839844 C 68.304688 519.269531 62.949219 500.417969 62.734375 480.917969 C 62.308594 449.210938 68.089844 418.355469 75.796875 387.503906 C 84.789062 350.652344 101.703125 318.511719 125.6875 289.800781 C 141.53125 270.730469 159.945312 254.234375 180.5 240.308594 C 208.335938 221.453125 237.453125 205.382812 270 197.882812 C 296.335938 191.886719 323.527344 189.101562 350.292969 184.816406 C 388.40625 178.816406 426.734375 181.601562 465.058594 183.316406 C 472.125 183.742188 479.40625 184.171875 486.257812 185.886719 C 512.59375 192.3125 539.359375 196.8125 564.835938 206.882812 C 588.175781 216.097656 611.515625 224.238281 632.070312 239.664062 C 654.335938 256.378906 673.394531 275.875 688.167969 299.230469 C 701.445312 320.011719 710.222656 342.722656 715.574219 366.71875 C 719.214844 383.003906 722.425781 399.285156 724.140625 415.785156 C 726.28125 437.640625 726.28125 459.707031 727.992188 481.777344 C 728.421875 487.132812 727.566406 493.132812 732.917969 497.632812 C 737.199219 501.058594 734.84375 505.34375 730.992188 507.703125 C 726.28125 510.488281 724.996094 514.558594 724.140625 519.484375 C 723.28125 524.414062 721.785156 529.554688 720.070312 534.269531 C 716.21875 544.769531 711.078125 555.050781 708.722656 565.765625 C 707.4375 571.550781 706.152344 575.835938 700.800781 578.621094 C 698.660156 579.90625 696.734375 582.261719 695.234375 584.40625 C 677.890625 606.6875 656.050781 622.757812 629.929688 633.257812 C 619.652344 637.328125 609.375 641.398438 595.882812 646.753906 C 612.585938 657.46875 625.644531 668.609375 633.996094 685.535156 C 656.050781 680.820312 677.460938 677.179688 698.445312 671.824219 C 713.003906 667.964844 728.851562 665.179688 738.914062 652.109375 C 746.835938 642.039062 755.1875 631.757812 760.96875 620.613281 C 784.09375 576.050781 790.085938 527.839844 789.015625 478.5625 C 788.589844 458.636719 787.945312 438.496094 785.804688 418.570312 C 783.664062 397.359375 781.09375 375.933594 776.597656 355.148438 C 771.460938 331.152344 764.394531 307.371094 754.757812 284.445312 C 744.910156 260.449219 731.417969 238.808594 718.144531 216.953125 C 707.011719 198.742188 687.738281 189.101562 671.253906 177.101562 C 655.410156 165.53125 639.136719 154.605469 620.292969 147.75 C 607.660156 143.25 596.3125 135.105469 583.679688 130.609375 C 553.917969 120.109375 523.085938 113.039062 491.609375 109.394531 C 467.414062 106.609375 443.21875 104.039062 418.597656 106.609375 C 398.683594 108.539062 378.769531 108.109375 358.859375 109.824219 C 347.511719 110.683594 336.160156 113.46875 324.8125 115.609375 C 304.257812 119.679688 283.0625 122.039062 263.148438 128.25 C 238.523438 136.179688 211.546875 136.179688 188.421875 149.25 C 178.359375 154.820312 167.4375 159.960938 159.730469 168.101562 C 137.460938 190.386719 119.90625 217.8125 102.988281 245.019531 C 79.863281 281.875 61.453125 321.296875 47.320312 362.433594 C 35.113281 398.644531 23.339844 435.28125 21.199219 474.0625 C 20.769531 482.847656 18.628906 491.632812 19.269531 500.417969 C 20.125 515.199219 22.269531 529.984375 24.625 544.554688 C 28.261719 568.121094 36.828125 589.976562 49.890625 609.6875 C 56.742188 620.1875 66.804688 628.757812 76.011719 637.753906 C 79.652344 641.398438 84.789062 643.113281 89.929688 639.683594 C 107.058594 628.757812 125.6875 623.828125 146.027344 627.257812 C 177.714844 632.398438 205.765625 645.253906 226.535156 670.324219 C 234.457031 679.75 243.449219 684.035156 255.226562 684.464844 C 279.207031 685.75 303.1875 688.105469 327.167969 689.179688 C 366.566406 690.675781 405.75 691.535156 445.148438 692.390625 C 448.144531 692.390625 452 691.320312 454.140625 689.179688 C 465.488281 678.679688 475.980469 667.324219 486.472656 656.824219 Z M 127.613281 313.15625 C 133.609375 314.871094 137.25 316.371094 141.101562 317.011719 C 147.738281 318.296875 154.378906 319.367188 161.230469 320.011719 C 179.429688 321.726562 197.628906 324.511719 215.828125 324.296875 C 232.316406 324.082031 248.800781 321.941406 264.859375 318.296875 C 291.199219 312.296875 317.535156 306.085938 342.585938 296.441406 C 372.347656 285.085938 398.898438 267.304688 422.664062 245.449219 C 437.4375 231.953125 449.429688 216.3125 460.136719 198.742188 C 454.140625 198.3125 449 198.097656 444.074219 197.457031 C 428.875 195.097656 416.027344 196.171875 404.25 209.667969 C 391.617188 224.453125 372.347656 230.667969 355.003906 238.808594 C 314.535156 257.875 271.5 267.734375 227.175781 271.589844 C 207.90625 273.304688 188.636719 273.089844 169.367188 274.160156 C 165.941406 274.375 161.65625 275.445312 159.515625 277.800781 C 148.808594 289.160156 138.960938 300.515625 127.613281 313.15625 Z M 212.832031 756.242188 C 219.46875 757.3125 225.464844 754.742188 230.601562 748.527344 C 244.734375 731.386719 242.164062 718.316406 229.53125 699.246094 C 219.46875 684.035156 204.265625 672.035156 191.207031 658.96875 C 189.0625 657.039062 185.851562 655.753906 183.070312 654.894531 C 172.792969 651.898438 162.300781 648.898438 151.808594 646.113281 C 135.105469 641.828125 118.40625 643.539062 103.632812 652.109375 C 86.289062 661.96875 73.871094 677.394531 63.804688 694.320312 C 56.953125 705.890625 62.09375 728.816406 72.800781 734.601562 C 83.078125 740.171875 93.78125 744.457031 105.34375 737.386719 C 107.273438 736.3125 109.839844 735.886719 111.984375 735.242188 C 118.40625 733.316406 122.6875 735.027344 126.328125 741.027344 C 137.035156 758.382812 158.660156 760.738281 173.648438 746.8125 C 179.644531 741.242188 187.136719 741.242188 192.0625 747.882812 C 197.414062 754.953125 203.839844 756.882812 212.832031 756.242188 Z M 553.488281 657.894531 C 536.574219 656.609375 523.300781 663.464844 510.238281 670.75 C 491.609375 681.25 474.910156 693.890625 464.417969 712.746094 C 459.707031 721.101562 457.136719 730.742188 454.996094 740.386719 C 453.28125 748.097656 460.136719 758.8125 466.34375 761.597656 C 472.980469 764.597656 481.976562 762.238281 488.398438 755.597656 C 500.175781 743.597656 503.816406 743.597656 516.449219 753.667969 C 526.726562 761.8125 538.714844 764.382812 551.347656 765.238281 C 559.699219 765.667969 563.980469 759.882812 568.476562 754.527344 C 575.757812 745.957031 580.253906 746.171875 588.605469 752.8125 C 593.742188 756.882812 599.953125 760.097656 606.160156 762.453125 C 614.726562 765.882812 622.21875 762.238281 626.289062 754.097656 C 630.785156 744.886719 631 735.457031 629.285156 725.386719 C 626.503906 708.460938 616.226562 695.175781 608.089844 681.035156 C 605.519531 676.535156 601.023438 671.609375 596.527344 670.109375 C 582.394531 664.753906 568.691406 656.394531 553.488281 657.894531 Z M 242.59375 113.679688 C 235.527344 92.46875 218.398438 85.183594 202.980469 76.1875 C 188.851562 67.617188 172.578125 68.472656 156.519531 67.402344 C 138.746094 66.117188 124.402344 72.328125 112.195312 83.683594 C 90.785156 103.609375 75.796875 126.964844 72.585938 157.175781 C 70.230469 178.816406 73.65625 199.171875 81.148438 219.097656 C 82.433594 222.738281 85.433594 225.523438 88.214844 229.808594 C 94.640625 221.023438 100.421875 213.527344 105.773438 205.8125 C 111.125 198.3125 114.980469 189.527344 121.191406 183.316406 C 134.894531 169.816406 142.816406 154.605469 145.597656 134.894531 C 148.382812 115.609375 162.300781 104.898438 181.355469 109.183594 C 189.0625 110.894531 196.128906 115.824219 203.410156 119.253906 C 205.765625 120.324219 208.546875 122.894531 210.476562 122.25 C 221.394531 119.894531 231.460938 116.894531 242.59375 113.679688 Z M 759.039062 248.664062 C 771.886719 237.308594 780.878906 225.738281 786.234375 212.027344 C 796.082031 187.171875 791.800781 162.746094 780.667969 139.390625 C 777.242188 132.320312 772.316406 125.035156 766.320312 120.109375 C 758.613281 113.679688 749.40625 108.96875 740.414062 104.46875 C 729.277344 98.898438 717.289062 97.398438 704.867188 99.96875 C 686.027344 104.039062 672.109375 115.609375 658.621094 128.035156 C 655.410156 131.035156 653.265625 135.320312 650.269531 139.605469 C 655.621094 143.035156 659.90625 145.820312 663.972656 148.605469 C 669.539062 152.460938 674.679688 153.105469 680.675781 148.820312 C 689.667969 142.390625 700.160156 141.320312 710.863281 141.535156 C 719.644531 141.75 725.425781 146.675781 727.78125 153.960938 C 729.707031 160.390625 730.5625 168.316406 728.421875 174.53125 C 724.355469 186.527344 723.28125 196.8125 733.988281 205.8125 C 735.914062 207.527344 736.773438 210.527344 738.058594 212.882812 C 744.910156 224.238281 751.546875 235.808594 759.039062 248.664062 Z M 476.40625 200.027344 C 475.550781 200.882812 474.695312 201.742188 473.839844 202.382812 C 475.980469 207.953125 477.691406 213.527344 480.476562 218.882812 C 489.898438 236.664062 501.671875 252.519531 517.304688 265.589844 C 540.640625 285.515625 566.335938 301.800781 594.386719 313.582031 C 606.375 318.726562 619.652344 321.296875 631.640625 326.652344 C 648.558594 334.152344 665.042969 330.511719 683.457031 328.367188 C 678.53125 320.011719 674.679688 312.941406 669.96875 306.511719 C 668.042969 303.726562 664.1875 301.585938 660.976562 300.726562 C 636.351562 295.15625 613.65625 285.515625 591.601562 273.519531 C 567.835938 260.664062 547.28125 243.523438 531.222656 221.882812 C 525.441406 214.167969 519.875 209.453125 510.667969 207.742188 C 499.316406 205.597656 487.96875 202.597656 476.40625 200.027344 Z M 177.714844 261.519531 C 258.007812 258.734375 333.59375 247.164062 398.253906 198.097656 C 319.460938 197.882812 244.09375 210.097656 177.714844 261.519531 Z M 648.558594 281.875 C 632.070312 254.234375 572.117188 222.308594 546.636719 222.097656 C 575.542969 252.304688 609.160156 271.804688 648.558594 281.875 Z M 464.84375 303.941406 C 484.542969 308.441406 517.945312 305.871094 531.648438 299.015625 C 525.226562 290.015625 515.804688 285.945312 505.742188 287.230469 C 491.394531 289.160156 476.40625 291.085938 464.84375 303.941406 Z M 710.863281 159.53125 C 702.300781 158.675781 694.804688 157.390625 687.3125 162.316406 C 690.738281 165.53125 693.308594 168.316406 696.089844 170.460938 C 700.371094 173.671875 705.082031 176.246094 710.863281 180.101562 C 710.863281 172.816406 710.863281 166.601562 710.863281 159.53125 Z M 191.207031 129.320312 C 171.292969 119.464844 162.085938 124.394531 162.515625 142.390625 C 171.507812 138.320312 180.5 134.25 191.207031 129.320312 Z M 611.515625 487.132812 C 599.097656 493.132812 586.675781 498.917969 574.257812 504.914062 C 540.640625 512.199219 506.8125 513.914062 472.554688 510.914062 C 470.625 510.699219 468.269531 510.488281 466.773438 509.414062 C 456.496094 501.917969 444.71875 496.34375 438.296875 484.5625 C 432.941406 474.707031 432.085938 463.992188 432.941406 453.066406 C 434.871094 429.710938 438.296875 407 451.140625 386.429688 C 457.351562 376.363281 465.914062 369.289062 476.40625 365.648438 C 502.316406 356.648438 529.082031 350.222656 556.914062 354.292969 C 573.1875 356.863281 590.101562 359.007812 602.308594 372.078125 C 617.722656 388.574219 630.144531 406.785156 629.714844 430.78125 C 629.5 438.710938 629.070312 446.636719 628.429688 454.566406 C 627.359375 467.847656 619.222656 477.492188 611.515625 487.132812 Z M 523.300781 446.421875 C 522.871094 445.78125 522.65625 445.136719 522.226562 444.496094 C 514.949219 443.851562 507.667969 443.425781 500.601562 442.78125 C 489.898438 441.710938 485.613281 436.78125 486.683594 426.285156 C 488.398438 409.570312 489.683594 392.859375 498.246094 377.003906 C 477.265625 379.359375 464.203125 390.289062 457.351562 408.5 C 450.714844 426.070312 448.785156 444.496094 449.214844 463.351562 C 449.429688 475.777344 465.488281 492.917969 477.90625 493.558594 C 487.542969 494.203125 497.175781 493.773438 505.957031 493.773438 C 505.097656 482.847656 503.386719 473.421875 503.8125 464.207031 C 504.027344 452.851562 514.949219 450.496094 523.300781 446.421875 Z M 194.417969 508.988281 C 188.851562 507.914062 183.28125 506.84375 177.714844 505.773438 C 156.945312 501.488281 140.460938 490.773438 127.613281 474.0625 C 125.6875 465.492188 123.332031 457.136719 122.046875 448.566406 C 119.691406 433.355469 122.6875 419 129.324219 405.285156 C 133.609375 396.289062 137.25 386.429688 143.671875 378.71875 C 160.160156 359.007812 179.855469 345.292969 207.90625 350.863281 C 213.046875 351.9375 218.613281 349.578125 223.964844 350.222656 C 263.578125 353.648438 294.835938 379.148438 304.472656 419.640625 C 309.398438 440.851562 307.46875 461.636719 298.050781 480.703125 C 292.269531 492.488281 281.992188 501.273438 269.359375 506.628906 C 249.875 514.984375 229.746094 511.558594 209.621094 510.488281 C 204.265625 510.273438 199.34375 509.628906 194.417969 508.988281 Z M 227.390625 431.210938 C 227.390625 430.78125 227.390625 430.140625 227.605469 429.710938 C 216.472656 425.855469 205.550781 421.570312 194.417969 418.140625 C 187.992188 416.214844 185.425781 412.355469 186.28125 406.144531 C 186.921875 401.859375 187.351562 397.359375 189.0625 393.503906 C 192.703125 384.71875 197.199219 376.363281 201.269531 367.792969 C 177.289062 368.003906 164.011719 376.148438 154.589844 390.714844 C 143.671875 407.644531 137.035156 426.285156 137.460938 446.851562 C 137.890625 472.5625 164.65625 493.347656 190.347656 486.917969 C 187.992188 479.632812 185.636719 472.347656 183.28125 464.851562 C 178.359375 449.207031 183.28125 440.851562 199.339844 437.640625 C 208.335938 435.496094 217.753906 433.355469 227.390625 431.210938 Z M 386.050781 603.046875 C 366.566406 601.332031 340.445312 599.402344 314.320312 597.046875 C 299.976562 595.761719 287.128906 590.832031 274.710938 582.90625 C 263.789062 576.050781 258.007812 565.980469 254.371094 555.050781 C 250.515625 543.269531 255.652344 531.914062 264.433594 523.769531 C 274.496094 514.34375 286.914062 510.273438 300.832031 512.628906 C 317.105469 515.199219 333.378906 518.84375 349.863281 519.484375 C 369.5625 520.128906 389.476562 518.199219 409.390625 516.914062 C 416.027344 516.484375 421.808594 517.128906 427.589844 521.199219 C 431.65625 523.984375 436.796875 525.484375 441.507812 527.199219 C 457.351562 532.554688 467.199219 547.125 464.417969 562.980469 C 462.488281 573.476562 455.851562 581.621094 446.859375 586.761719 C 430.160156 596.402344 411.957031 601.117188 386.050781 603.046875 Z M 367.207031 536.839844 C 365.28125 553.339844 363.78125 567.480469 361.855469 583.335938 C 375.34375 583.546875 388.40625 583.761719 401.039062 580.976562 C 399.96875 564.90625 398.898438 550.339844 397.828125 534.910156 C 387.335938 535.554688 377.273438 536.199219 367.207031 536.839844 Z M 353.503906 536.625 C 343.226562 535.339844 334.449219 534.269531 324.597656 532.984375 C 320.746094 548.195312 317.105469 562.765625 313.039062 578.40625 C 325.671875 579.476562 337.445312 580.335938 350.292969 581.191406 C 351.363281 565.550781 352.433594 550.980469 353.503906 536.625 Z M 308.539062 530.414062 C 298.261719 528.484375 288.414062 527.839844 278.777344 533.414062 C 273.640625 536.410156 268.5 545.195312 269.570312 550.125 C 272.140625 561.910156 286.488281 573.050781 299.546875 573.90625 C 302.546875 559.550781 305.328125 545.410156 308.539062 530.414062 Z M 414.527344 579.050781 C 426.734375 576.691406 436.152344 571.765625 444.074219 564.265625 C 449 559.550781 449.429688 551.625 444.71875 546.910156 C 436.367188 538.769531 425.875 535.339844 414.527344 534.910156 C 414.527344 550.125 414.527344 564.050781 414.527344 579.050781 Z M 341.085938 489.273438 C 356.929688 481.5625 372.777344 477.0625 389.691406 485.847656 C 394.402344 488.417969 399.324219 490.5625 404.035156 493.132812 C 407.890625 495.273438 412.601562 496.558594 414.527344 491.847656 C 415.8125 488.847656 414.527344 484.347656 413.671875 480.703125 C 413.457031 479.417969 411.316406 478.347656 410.03125 477.492188 C 392.046875 465.277344 372.5625 460.566406 351.578125 467.207031 C 340.660156 470.632812 329.953125 475.132812 325.027344 486.917969 C 332.308594 493.558594 332.734375 493.558594 341.085938 489.273438 Z M 341.085938 489.273438 "/>
</g>
</svg>
