<?xml version="1.0" encoding="UTF-8"?>
<svg xmlns="http://www.w3.org/2000/svg" xmlns:xlink="http://www.w3.org/1999/xlink" width="810pt" height="809.999993pt" viewBox="0 0 810 809.999993" version="1.2">
<defs>
<clipPath id="clip1">
  <path d="M 2 99 L 808 99 L 808 711.421875 L 2 711.421875 Z M 2 99 "/>
</clipPath>
</defs>
<g id="surface1">
<path style=" stroke:none;fill-rule:nonzero;fill:rgb(100%,100%,100%);fill-opacity:1;" d="M 226.003906 537.140625 C 227.308594 529.105469 228.390625 521.070312 229.695312 512.601562 C 230.5625 506.519531 231.433594 500.222656 232.515625 493.488281 L 233.386719 488.058594 L 241.199219 494.140625 C 247.28125 498.917969 252.054688 502.609375 256.832031 506.734375 C 261.609375 511.515625 261.824219 518.464844 257.050781 523.457031 L 255.746094 524.980469 C 249.667969 531.929688 242.503906 539.527344 229.695312 540.832031 L 225.570312 541.265625 Z M 29.097656 427.25 C 20.847656 417.914062 21.71875 407.054688 22.585938 397.5 C 22.585938 396.195312 22.800781 394.675781 22.800781 393.375 C 23.019531 390.550781 23.019531 387.726562 23.238281 384.902344 C 23.453125 378.386719 23.671875 371.875 24.972656 365.140625 C 25.84375 360.582031 28.664062 356.453125 31.269531 352.980469 C 31.921875 352.109375 32.355469 351.460938 32.789062 350.808594 C 34.960938 347.550781 37.347656 344.292969 39.734375 341.253906 C 42.777344 337.125 46.03125 332.78125 48.855469 328.222656 C 60.359375 309.980469 78.597656 304.117188 95.09375 300.859375 C 102.695312 299.339844 109.640625 302.160156 115.503906 309.109375 C 133.304688 330.828125 141.335938 350.808594 140.46875 372.089844 C 140.25 383.601562 136.777344 393.808594 133.304688 402.277344 C 127.660156 416.394531 120.929688 427.035156 112.246094 435.503906 C 102.261719 445.277344 91.621094 454.617188 79.683594 454.617188 C 79.464844 454.617188 79.03125 454.617188 78.8125 454.617188 C 63.398438 454.398438 52.761719 452.445312 44.296875 443.105469 C 41.90625 440.5 39.300781 437.675781 36.695312 435.070312 C 34.308594 432.679688 31.703125 429.859375 29.097656 427.25 Z M 92.054688 352.546875 L 91.839844 350.808594 C 90.753906 342.554688 89.667969 334.738281 83.15625 329.523438 C 81.636719 328.222656 80.117188 327.570312 79.03125 327.570312 C 78.8125 327.570312 78.597656 327.570312 78.378906 327.570312 C 77.292969 328.003906 76.207031 329.308594 75.339844 331.695312 L 74.6875 333.433594 C 69.695312 347.984375 64.703125 362.96875 62.75 378.386719 C 62.3125 380.996094 62.097656 383.601562 61.664062 386.207031 C 59.925781 397.5 58.40625 408.140625 61.664062 418.78125 C 62.53125 421.605469 64.917969 424.863281 67.308594 425.949219 C 70.347656 427.253906 72.953125 424.644531 74.6875 422.257812 C 75.773438 420.953125 76.425781 419.433594 77.078125 417.914062 C 77.292969 417.480469 77.511719 417.046875 77.726562 416.394531 C 85.109375 400.324219 89.667969 382.082031 92.054688 358.84375 C 92.054688 358.191406 92.054688 357.324219 92.054688 356.671875 C 92.054688 355.152344 92.273438 353.847656 92.054688 352.546875 Z M 173.902344 553.644531 L 178.027344 553.429688 C 190.835938 552.777344 201.472656 551.90625 211.894531 550.605469 C 215.800781 550.171875 222.53125 547.78125 222.53125 537.140625 C 222.53125 530.191406 223.183594 523.457031 224.050781 516.292969 C 224.269531 514.773438 224.269531 513.25 224.484375 511.730469 C 224.703125 509.558594 225.136719 507.605469 225.570312 505.652344 C 225.789062 504.347656 226.003906 503.042969 226.222656 501.957031 L 226.871094 497.613281 L 222.53125 498.265625 C 215.582031 499.351562 209.070312 500.222656 202.339844 501.308594 C 196.914062 502.175781 191.484375 502.828125 185.839844 503.695312 L 183.671875 504.128906 L 181.5 514.773438 C 179.328125 525.628906 177.15625 537.140625 174.769531 549.734375 Z M 574.226562 296.515625 C 573.574219 296.515625 572.921875 296.515625 571.839844 297.167969 L 565.976562 299.988281 L 571.839844 302.8125 C 571.1875 302.597656 570.96875 301.726562 570.96875 301.074219 L 574.007812 301.074219 L 574.226562 301.726562 L 574.226562 301.074219 L 577.484375 301.074219 L 577.484375 296.515625 C 577.484375 296.515625 574.226562 296.515625 574.226562 296.515625 Z M 136.996094 534.535156 L 136.34375 537.355469 L 138.949219 538.441406 C 142.421875 539.964844 145.894531 541.265625 149.371094 542.570312 C 155.230469 544.957031 161.308594 547.347656 167.605469 549.953125 L 171.511719 551.472656 L 172.164062 547.347656 C 173.03125 540.179688 174.117188 533.230469 174.988281 526.28125 C 176.074219 519.332031 176.941406 512.382812 178.027344 505 L 178.460938 502.394531 L 176.074219 501.523438 C 170.644531 499.570312 165.652344 497.613281 160.222656 495.660156 L 148.285156 491.316406 L 147.414062 494.792969 C 145.460938 501.957031 143.726562 509.125 141.769531 516.292969 C 140.25 521.9375 138.730469 528.019531 136.996094 534.535156 Z M 521.253906 427.902344 C 525.8125 450.488281 520.386719 480.457031 498.460938 496.3125 C 492.382812 500.871094 485.21875 504.128906 478.269531 507.386719 L 476.097656 508.472656 C 470.671875 510.863281 468.933594 513.46875 469.585938 518.246094 C 471.539062 539.964844 466.980469 560.378906 459.597656 584.265625 C 456.125 595.34375 454.824219 607.285156 453.738281 618.796875 C 453.519531 621.183594 453.304688 623.355469 453.085938 625.746094 C 452.21875 633.347656 452.652344 641.382812 453.085938 649.199219 C 453.304688 655.28125 450.914062 659.40625 445.054688 662.664062 C 431.8125 669.832031 415.964844 677.867188 398.160156 682.425781 C 384.917969 685.902344 370.589844 689.160156 356.261719 689.59375 C 348.230469 689.8125 339.980469 690.679688 331.945312 691.332031 C 321.527344 692.199219 310.890625 693.070312 300.25 693.070312 C 299.601562 693.070312 298.949219 693.070312 298.296875 693.070312 C 273.332031 692.851562 249.449219 691.332031 227.308594 688.726562 C 201.039062 685.683594 176.289062 678.082031 152.191406 670.699219 L 151.324219 670.484375 C 119.410156 660.492188 88.582031 642.902344 59.925781 618.578125 C 52.980469 612.714844 47.335938 605.113281 42.125 597.949219 C 40.171875 595.125 38.214844 592.519531 36.046875 589.914062 L 34.742188 588.175781 L 35.828125 586.222656 C 47.769531 564.285156 64.269531 551.257812 77.511719 542.351562 C 81.417969 539.964844 84.457031 537.574219 86.628906 534.96875 C 89.449219 531.710938 90.753906 527.585938 90.101562 523.675781 C 89.449219 519.550781 87.0625 516.074219 83.15625 513.6875 C 76.207031 509.34375 70.128906 507.605469 63.832031 508.039062 L 63.617188 508.039062 C 61.878906 508.039062 60.144531 507.820312 58.1875 507.820312 L 53.414062 507.386719 L 53.195312 504.566406 C 52.328125 480.457031 42.339844 465.691406 22.152344 458.089844 L 20.199219 457.4375 L 19.980469 455.484375 C 19.546875 451.792969 19.113281 447.882812 18.679688 443.757812 L 18.460938 441.585938 L 20.199219 440.5 C 20.632812 440.28125 21.066406 440.066406 21.5 439.847656 C 21.71875 439.847656 21.933594 439.628906 22.152344 439.414062 L 24.539062 437.894531 L 26.492188 440.066406 C 27.144531 440.714844 27.796875 441.585938 28.445312 442.238281 C 29.75 443.757812 31.050781 445.277344 32.570312 446.582031 C 44.730469 458.957031 55.367188 468.296875 71.433594 467.210938 C 90.535156 465.691406 103.34375 460.914062 114.417969 451.574219 C 142.207031 427.6875 154.363281 397.28125 151.539062 358.625 C 150.671875 348.636719 145.460938 338.429688 140.6875 328.4375 C 136.996094 321.054688 132.21875 314.105469 127.660156 307.589844 C 125.707031 304.550781 123.535156 301.511719 121.582031 298.46875 L 120.714844 297.167969 L 121.148438 295.648438 C 124.402344 285.875 128.09375 275.015625 131.351562 263.941406 C 131.351562 263.503906 130.917969 262.636719 130.699219 262.203125 C 128.960938 262.203125 127.226562 262.855469 126.792969 263.289062 C 123.316406 268.28125 120.496094 273.929688 118.109375 279.140625 C 116.371094 282.617188 115.285156 286.308594 113.984375 290.21875 L 112.679688 294.34375 L 109.859375 293.691406 C 108.121094 293.257812 106.601562 293.039062 104.863281 292.605469 C 102.261719 291.953125 99.4375 291.519531 95.964844 290.867188 L 93.359375 290.433594 L 93.359375 287.828125 C 93.359375 286.089844 93.359375 284.355469 93.359375 282.617188 C 93.359375 278.925781 93.359375 275.234375 93.359375 271.757812 C 93.359375 270.890625 93.359375 269.804688 93.140625 268.71875 C 92.925781 265.027344 92.925781 261.117188 92.273438 257.859375 C 92.273438 257.425781 91.1875 256.339844 90.535156 255.6875 C 89.667969 256.339844 88.367188 257.425781 88.367188 257.859375 C 87.28125 262.636719 87.0625 267.414062 86.628906 272.410156 L 86.410156 275.234375 C 86.195312 280.011719 85.976562 284.789062 85.761719 289.78125 L 85.761719 291.738281 L 84.023438 292.605469 C 81.203125 293.910156 78.378906 295.429688 75.339844 296.949219 C 72.953125 298.035156 70.5625 299.339844 67.742188 300.640625 L 63.617188 301.726562 L 62.75 297.816406 C 60.792969 290 59.273438 282.832031 57.753906 276.101562 C 57.539062 275.015625 57.320312 273.710938 57.105469 272.410156 C 56.667969 270.238281 56.234375 268.066406 55.367188 266.328125 C 54.933594 265.675781 53.847656 264.589844 53.195312 264.375 C 52.542969 264.589844 51.460938 265.675781 51.242188 266.113281 C 50.375 269.367188 49.503906 274.582031 49.941406 279.140625 C 50.375 284.355469 51.023438 289.347656 51.894531 295.210938 C 52.328125 299.121094 52.980469 303.246094 53.414062 307.589844 L 53.628906 309.109375 L 52.542969 310.195312 C 48.636719 314.324219 42.558594 320.839844 36.695312 327.136719 L 35.394531 328.4375 L 33.441406 328.003906 C 32.355469 327.789062 31.050781 327.351562 29.96875 326.703125 L 27.796875 325.617188 L 28.445312 321.707031 C 29.097656 317.582031 29.53125 313.238281 30.402344 309.109375 C 31.269531 304.769531 32.136719 300.207031 32.789062 295.863281 C 34.527344 285.441406 36.261719 274.796875 40.386719 264.808594 C 41.90625 261.117188 43.425781 256.988281 44.730469 253.296875 C 50.15625 238.746094 55.800781 223.546875 67.742188 211.601562 C 87.496094 191.621094 106.820312 180.980469 128.746094 178.589844 C 156.535156 175.550781 184.105469 177.722656 211.023438 179.675781 L 219.925781 180.328125 C 225.136719 180.546875 230.5625 180.761719 235.773438 180.761719 C 241.199219 180.761719 246.628906 180.980469 252.273438 181.199219 C 265.734375 182.066406 279.191406 183.152344 292.21875 184.238281 C 298.949219 184.671875 305.460938 185.324219 312.191406 185.757812 C 329.34375 187.0625 346.710938 188.582031 363.210938 190.101562 C 375.582031 191.40625 389.042969 192.707031 403.15625 194.226562 L 404.675781 194.445312 L 405.542969 195.53125 C 414.660156 208.125 427.46875 227.453125 435.066406 249.605469 C 440.277344 265.027344 442.230469 280.445312 443.535156 294.996094 C 444.1875 301.726562 444.835938 308.675781 445.488281 315.625 C 446.789062 329.960938 448.308594 344.726562 449.394531 359.496094 C 450.046875 367.53125 450.265625 375.566406 450.480469 383.382812 C 450.699219 391.203125 450.914062 399.019531 451.351562 406.839844 C 451.785156 415.089844 453.738281 423.996094 455.257812 430.945312 C 455.257812 431.59375 455.476562 432.03125 455.476562 432.464844 C 456.34375 437.894531 457.210938 439.414062 459.382812 439.414062 C 461.769531 439.628906 465.679688 437.457031 467.847656 434.851562 C 479.355469 420.953125 495.203125 418.347656 507.578125 417.695312 C 514.523438 416.828125 519.953125 420.953125 521.253906 427.902344 Z M 174.335938 400.539062 C 169.558594 400.539062 165.652344 401.625 162.828125 404.015625 C 159.140625 407.054688 157.402344 412.050781 157.402344 419 C 157.621094 429.207031 172.816406 447.882812 182.152344 449.835938 C 182.585938 449.621094 183.238281 448.96875 183.886719 448.316406 C 184.757812 447.664062 185.625 446.796875 186.710938 446.144531 C 193.007812 440.5 194.089844 436.589844 191.484375 428.988281 C 190.617188 426.382812 189.53125 423.777344 188.445312 421.171875 C 188.011719 420.085938 187.578125 419 187.144531 417.914062 L 186.058594 415.089844 L 188.882812 413.789062 C 192.355469 412.050781 192.570312 409.226562 192.789062 404.449219 L 192.789062 403.363281 C 193.007812 399.886719 193.222656 396.628906 193.222656 393.15625 C 193.875 382.949219 194.308594 372.523438 194.308594 362.316406 C 194.089844 348.417969 193.222656 334.304688 192.355469 320.621094 C 191.921875 314.976562 191.703125 309.109375 191.269531 303.464844 C 191.269531 301.511719 191.050781 300.207031 188.664062 299.339844 C 188.445312 299.773438 188.445312 299.988281 188.230469 300.425781 C 187.363281 302.378906 186.492188 304.117188 186.492188 305.855469 C 186.058594 318.015625 186.058594 330.828125 186.058594 342.988281 L 186.058594 402.277344 L 182.152344 401.410156 C 179.328125 400.972656 176.722656 400.539062 174.335938 400.539062 Z M 125.054688 472.421875 C 117.457031 473.074219 111.160156 476.332031 106.820312 481.761719 C 102.042969 488.058594 100.089844 497.179688 101.609375 505.867188 C 105.515625 527.585938 120.714844 541.265625 132.4375 548.867188 C 144.375 556.6875 159.789062 560.8125 174.550781 564.503906 L 175.203125 564.722656 C 180.847656 566.242188 186.925781 566.242188 194.089844 566.023438 C 195.828125 566.023438 197.347656 566.023438 199.085938 566.023438 C 200.820312 566.023438 202.558594 566.023438 204.292969 566.023438 C 206.03125 565.371094 207.769531 564.722656 209.503906 564.070312 C 215.367188 561.898438 221.226562 559.726562 227.089844 556.902344 C 242.722656 549.953125 257.699219 542.351562 266.167969 526.5 C 270.726562 517.8125 270.726562 511.515625 266.167969 503.914062 C 261.824219 497.179688 255.3125 493.273438 248.367188 489.363281 C 246.195312 488.058594 244.023438 486.972656 241.851562 485.453125 C 238.378906 483.28125 232.300781 483.28125 227.742188 483.714844 C 223.617188 484.367188 219.707031 485.453125 215.367188 486.757812 C 211.023438 488.058594 206.683594 489.144531 202.125 489.796875 C 194.527344 490.664062 186.710938 491.316406 179.546875 489.578125 C 173.03125 487.84375 166.738281 485.453125 160.875 482.847656 C 156.75 481.109375 152.625 479.589844 148.285156 478.070312 C 146.113281 477.417969 143.726562 476.550781 141.335938 475.679688 C 135.691406 474.160156 130.046875 471.988281 125.054688 472.421875 Z M 359.085938 478.9375 L 362.558594 476.550781 C 394.253906 454.617188 412.488281 425.949219 416.832031 390.984375 C 421.171875 357.324219 408.148438 326.917969 378.621094 301.074219 L 376.453125 299.121094 L 378.1875 296.730469 C 386.65625 284.789062 390.5625 275.015625 390.78125 264.589844 C 386.222656 264.15625 385.785156 264.808594 383.617188 268.71875 C 380.578125 274.148438 377.972656 279.792969 375.148438 285.65625 C 373.847656 288.261719 372.761719 290.867188 371.457031 293.476562 L 370.15625 296.082031 L 367.332031 294.996094 C 363.859375 293.691406 360.386719 292.390625 356.914062 291.085938 L 346.925781 287.394531 L 347.578125 284.570312 C 349.964844 272.84375 352.355469 261.117188 354.742188 249.605469 C 351.484375 248.738281 351.269531 249.390625 350.398438 252.210938 C 346.058594 263.503906 341.933594 275.234375 337.808594 286.523438 L 337.15625 288.261719 L 335.203125 288.480469 C 332.816406 288.914062 330.425781 289.347656 327.824219 289.78125 C 324.78125 290.433594 321.308594 291.085938 317.835938 291.738281 L 315.015625 292.171875 L 314.144531 289.347656 C 313.492188 286.960938 312.84375 284.570312 312.191406 281.964844 C 311.105469 277.1875 309.804688 272.410156 308.285156 267.847656 C 307.632812 265.894531 307.199219 263.722656 306.765625 261.550781 C 305.894531 256.554688 305.027344 253.296875 301.988281 250.910156 C 298.296875 256.121094 299.382812 261.769531 300.46875 268.28125 C 300.683594 269.367188 300.902344 270.671875 301.121094 271.757812 C 301.988281 277.839844 303.726562 283.917969 305.027344 289.347656 C 305.679688 291.738281 306.328125 294.125 306.765625 296.296875 L 307.199219 298.46875 L 305.246094 299.773438 C 302.640625 301.511719 300.035156 303.03125 297.429688 304.550781 C 292 307.589844 287.007812 310.414062 283.75 314.539062 C 269.859375 331.914062 260.738281 352.980469 256.179688 376.867188 C 251.1875 403.582031 255.964844 428.121094 270.507812 449.835938 C 277.238281 459.609375 284.621094 469.601562 295.691406 474.8125 C 300.683594 476.984375 306.113281 478.722656 311.972656 480.675781 C 314.796875 481.542969 317.617188 482.414062 320.660156 483.5 L 326.085938 485.453125 L 321.742188 489.144531 C 320.875 490.015625 320.007812 490.664062 319.136719 491.316406 C 317.402344 492.835938 315.664062 494.140625 314.363281 495.445312 C 305.027344 505.652344 301.554688 514.335938 303.507812 523.894531 C 305.679688 535.621094 312.191406 544.308594 323.261719 550.605469 C 337.375 558.421875 352.570312 561.027344 368.636719 557.988281 C 384.265625 555.164062 397.511719 539.746094 398.160156 523.675781 C 398.59375 512.816406 394.90625 498.265625 374.28125 490.664062 C 371.023438 489.578125 368.636719 486.972656 366.25 484.585938 C 365.164062 483.5 363.859375 482.195312 362.773438 481.109375 Z M 351.484375 217.898438 C 351.269531 216.597656 350.183594 215.511719 348.664062 214.425781 C 342.585938 210.734375 336.507812 208.125 331.078125 207.039062 C 320.65625 205.085938 313.929688 206.605469 309.804688 212.46875 C 308.5 214.207031 307.847656 217.683594 308.5 218.769531 C 308.71875 219.417969 308.933594 219.417969 309.152344 219.636719 C 309.804688 219.855469 311.324219 219.855469 313.277344 218.769531 C 322.179688 214.640625 331.730469 214.640625 341.066406 218.984375 C 343.453125 220.070312 345.625 221.375 348.011719 222.894531 C 348.664062 223.328125 349.316406 223.761719 349.964844 224.199219 C 351.269531 221.589844 351.703125 219.636719 351.484375 217.898438 Z M 113.113281 198.355469 C 108.339844 199.222656 102.042969 200.527344 97.265625 203.347656 C 90.972656 206.824219 85.542969 210.296875 84.457031 216.597656 C 87.929688 217.683594 88.582031 217.246094 92.925781 214.207031 C 100.523438 208.5625 112.246094 200.089844 125.488281 211.167969 C 125.707031 211.167969 126.140625 211.167969 126.574219 211.167969 L 126.792969 211.167969 C 127.226562 209.863281 127.660156 208.5625 127.441406 207.910156 C 126.359375 203.566406 117.457031 197.703125 113.113281 198.355469 Z M 362.992188 463.519531 C 353.003906 470.46875 342.800781 472.421875 333.25 472.421875 C 328.257812 472.421875 323.480469 471.773438 318.921875 471.121094 C 292.871094 467.210938 270.941406 442.019531 266.820312 411.398438 C 263.996094 390.332031 267.035156 370.351562 275.71875 352.109375 C 275.9375 351.675781 276.152344 351.242188 276.585938 350.808594 C 276.804688 350.589844 276.804688 350.375 276.804688 350.375 C 281.582031 328.222656 299.382812 316.929688 313.710938 308.023438 C 321.960938 302.8125 330.425781 298.253906 338.460938 299.773438 C 357.128906 299.988281 372.542969 307.15625 385.136719 321.273438 C 403.15625 341.035156 411.621094 363.1875 409.882812 387.074219 C 408.363281 408.792969 399.898438 428.121094 384.703125 444.410156 C 378.40625 450.921875 371.242188 457.871094 362.992188 463.519531 Z M 349.75 371.875 C 350.398438 359.277344 345.625 348.417969 335.421875 338.644531 C 329.34375 339.949219 325.867188 342.554688 323.699219 347.332031 C 311.324219 374.695312 307.847656 401.410156 312.84375 428.335938 C 313.710938 433.550781 315.230469 437.675781 317.402344 440.066406 C 319.574219 442.671875 322.613281 442.671875 324.347656 442.238281 C 328.472656 441.585938 331.945312 438.542969 333.46875 434.417969 C 338.027344 422.257812 342.585938 409.226562 346.492188 395.546875 C 348.878906 387.945312 349.53125 379.257812 349.75 371.875 Z M 128.527344 529.105469 L 132.4375 531.710938 L 133.523438 527.367188 C 136.777344 514.988281 139.601562 503.480469 142.421875 491.535156 L 143.074219 488.492188 L 140.902344 487.191406 C 133.957031 483.28125 125.921875 479.589844 119.410156 483.714844 C 113.113281 487.84375 108.554688 497.613281 111.8125 506.085938 C 115.285156 513.46875 119.410156 523.023438 128.527344 529.105469 Z M 128.527344 529.105469 "/>
<path style=" stroke:none;fill-rule:nonzero;fill:rgb(98.039246%,60.778809%,45.098877%);fill-opacity:1;" d="M 52.542969 552.34375 L 53.628906 554.730469 L 51.894531 556.6875 C 48.636719 560.378906 45.597656 564.070312 42.777344 567.761719 C 40.171875 571.019531 37.566406 574.058594 34.742188 577.316406 L 30.617188 582.3125 L 27.578125 576.664062 C 20.414062 563.199219 19.113281 548.433594 18.242188 536.488281 L 17.808594 534.101562 L 20.199219 532.796875 C 24.757812 530.191406 28.664062 527.585938 34.308594 523.894531 L 38.652344 521.070312 L 40.605469 525.628906 C 45.164062 535.402344 49.070312 544.523438 52.542969 552.34375 Z M 784.15625 131.683594 C 783.941406 131.464844 783.507812 131.464844 783.074219 131.25 C 782.855469 131.25 782.855469 131.03125 782.636719 131.03125 L 779.597656 129.511719 L 777.429688 131.898438 C 776.34375 132.984375 775.472656 134.289062 774.386719 135.375 C 773.519531 136.460938 772.433594 137.546875 771.566406 138.632812 L 771.347656 138.847656 C 768.960938 141.890625 766.789062 144.714844 764.402344 147.753906 C 757.890625 156.222656 751.160156 164.910156 743.996094 172.726562 C 736.398438 181.199219 727.714844 188.796875 719.464844 196.183594 L 717.074219 198.355469 C 702.09375 211.382812 683.859375 225.71875 660.847656 232.667969 C 644.78125 237.660156 627.199219 242.003906 607.441406 246.132812 C 588.773438 250.039062 570.753906 254.382812 554.035156 264.375 L 550.34375 266.546875 L 552.300781 270.238281 C 554.46875 274.148438 556.640625 278.054688 558.8125 281.746094 C 560.765625 285.003906 562.503906 288.261719 564.457031 291.519531 L 565.976562 294.34375 L 569.234375 293.476562 C 570.753906 293.039062 572.054688 292.605469 573.140625 292.171875 C 574.660156 291.738281 576.398438 291.085938 577.046875 291.085938 C 583.996094 291.953125 590.941406 293.257812 597.671875 294.34375 C 607.441406 295.863281 617.644531 297.601562 627.414062 298.6875 L 628.5 298.902344 C 633.925781 299.554688 639.570312 300.207031 645.433594 300.207031 C 649.125 300.207031 653.03125 299.988281 656.722656 299.121094 C 680.386719 293.910156 699.054688 284.355469 713.820312 270.019531 C 733.140625 250.910156 747.6875 230.929688 758.324219 208.5625 C 763.75 197.050781 768.09375 185.105469 772.433594 173.378906 C 774.386719 168.167969 776.34375 162.957031 778.296875 157.527344 C 780.902344 150.578125 783.507812 143.628906 786.113281 137.113281 L 787.632812 133.421875 Z M 77.078125 515.859375 C 67.957031 511.296875 59.710938 513.6875 51.675781 515.859375 C 50.589844 516.074219 49.503906 516.507812 48.421875 516.726562 L 43.859375 518.027344 L 47.984375 529.320312 C 50.15625 535.402344 52.109375 541.050781 54.28125 547.347656 L 56.234375 552.777344 L 62.53125 548.433594 C 69.042969 543.871094 74.253906 540.179688 79.464844 536.273438 C 83.371094 533.015625 85.328125 529.320312 84.890625 525.414062 C 84.457031 521.503906 81.636719 518.027344 77.078125 515.859375 Z M 504.539062 221.589844 L 513.875 227.238281 L 516.261719 223.980469 C 525.378906 210.949219 539.054688 204.433594 560.332031 202.699219 C 577.917969 201.175781 597.019531 201.613281 620.25 203.785156 C 632.625 205.085938 644.78125 204.21875 654.335938 203.566406 C 673.003906 202.046875 691.457031 196.832031 710.78125 187.710938 C 728.796875 179.027344 744.429688 166.210938 758.324219 147.96875 L 768.09375 135.375 L 753.332031 141.238281 C 735.746094 148.1875 716.859375 152.964844 693.195312 156.441406 C 667.144531 160.347656 641.308594 156.007812 616.125 151.878906 L 610.914062 151.011719 C 606.574219 150.359375 602.015625 149.273438 597.671875 148.40625 C 588.335938 146.449219 578.566406 144.496094 568.796875 143.84375 C 560.113281 143.191406 547.304688 143.628906 535.367188 147.753906 C 509.53125 156.65625 490.210938 174.464844 478.269531 200.742188 L 476.75 204.21875 L 480.007812 206.171875 C 488.257812 211.601562 496.070312 216.378906 504.539062 221.589844 Z M 705.570312 197.917969 L 704.050781 194.664062 L 699.273438 195.964844 C 697.101562 196.617188 694.929688 197.050781 692.761719 197.917969 C 691.675781 198.355469 690.804688 198.789062 689.9375 199.003906 C 688.203125 199.65625 686.464844 200.527344 684.726562 200.960938 C 656.070312 209.863281 626.761719 208.5625 599.410156 205.957031 C 579.652344 204 561.851562 204.871094 544.917969 208.125 C 533.847656 210.515625 525.164062 216.8125 518.867188 226.804688 L 517.128906 229.625 L 519.300781 232.015625 C 524.078125 237.226562 528.636719 242.441406 533.414062 247.652344 C 537.753906 252.429688 541.878906 256.988281 546.4375 261.984375 L 548.824219 264.589844 L 551.867188 262.855469 C 572.707031 250.691406 595.5 245.914062 620.902344 241.355469 C 642.609375 237.445312 662.148438 231.148438 679.082031 222.242188 C 685.8125 218.769531 692.328125 214.425781 698.40625 210.296875 C 700.792969 208.777344 703.179688 207.039062 705.570312 205.519531 L 708.824219 203.347656 L 707.089844 199.875 C 706.871094 199.441406 706.65625 199.003906 706.21875 198.355469 C 706.003906 198.789062 705.785156 198.355469 705.570312 197.917969 Z M 590.074219 412.917969 C 589.640625 401.410156 589.421875 389.679688 588.121094 378.171875 C 587.25 371.003906 585.082031 364.273438 583.128906 357.757812 C 582.257812 354.933594 581.171875 351.894531 580.523438 348.851562 L 579.652344 345.597656 L 576.398438 345.597656 C 574.660156 345.597656 573.140625 345.8125 572.054688 346.03125 L 568.582031 346.679688 L 568.582031 350.15625 C 568.582031 351.242188 568.582031 352.109375 568.363281 353.195312 C 568.148438 355.585938 567.929688 358.191406 568.582031 360.796875 C 572.273438 378.386719 570.101562 395.761719 567.0625 416.394531 C 564.457031 432.679688 560.113281 450.273438 552.734375 472.859375 C 540.359375 510.210938 521.6875 536.921875 495.421875 554.730469 C 513.222656 540.613281 527.769531 522.589844 539.492188 500.222656 C 556.859375 466.992188 566.410156 429.421875 567.714844 388.8125 C 568.363281 372.523438 568.148438 355.804688 568.148438 339.730469 C 568.148438 332.78125 567.929688 325.832031 567.929688 318.882812 L 567.929688 315.410156 L 564.457031 314.757812 C 563.371094 314.539062 562.71875 314.324219 561.851562 314.105469 L 559.03125 313.453125 L 557.292969 315.84375 C 537.101562 344.726562 513.003906 358.191406 484.132812 356.238281 C 506.710938 355.804688 527.117188 346.464844 545.136719 328.4375 C 546.871094 326.703125 547.957031 324.964844 549.042969 323.011719 L 549.910156 323.878906 L 551.648438 318.449219 C 551.648438 318.449219 551.648438 318.230469 551.867188 318.230469 L 554.035156 314.539062 L 553.167969 314.105469 L 555.554688 307.375 L 549.261719 309.546875 L 549.042969 309.109375 L 546.003906 310.414062 C 545.785156 310.414062 545.570312 310.632812 545.351562 310.632812 L 539.492188 312.585938 C 531.023438 314.539062 522.558594 314.105469 515.828125 313.238281 C 499.109375 311.066406 488.039062 306.503906 479.136719 298.253906 C 475.449219 294.996094 471.757812 291.953125 467.847656 288.695312 C 464.808594 286.089844 461.554688 283.484375 458.078125 280.660156 L 449.832031 273.710938 L 450.914062 284.570312 C 452 296.515625 453.085938 307.589844 454.171875 318.449219 C 455.039062 328.4375 455.910156 337.996094 456.777344 347.765625 L 456.996094 350.15625 L 459.164062 351.242188 C 459.816406 351.675781 460.683594 351.894531 461.335938 352.328125 C 461.335938 352.328125 461.554688 352.328125 461.554688 352.546875 L 457.429688 351.460938 L 456.996094 356.671875 C 455.039062 377.085938 456.34375 396.847656 460.902344 419.214844 L 462.421875 426.382812 L 468.066406 421.605469 C 478.054688 412.917969 489.558594 411.398438 501.714844 409.878906 C 504.539062 409.445312 507.359375 409.226562 509.964844 408.792969 C 519.082031 407.273438 523.859375 413.789062 525.8125 417.914062 C 528.851562 424.210938 530.371094 431.59375 531.457031 437.242188 C 534.714844 456.136719 530.15625 474.59375 517.5625 493.488281 C 510.398438 504.128906 499.761719 511.730469 485.433594 516.507812 L 482.613281 517.378906 L 482.394531 520.199219 C 481.960938 526.714844 481.308594 533.015625 480.65625 539.3125 C 480.007812 545.609375 479.355469 551.90625 478.921875 558.421875 L 478.269531 567.542969 L 485 562.984375 C 476.75 570.367188 471.539062 579.269531 468.71875 591.433594 C 467.632812 595.992188 466.980469 601.207031 466.546875 606.851562 C 465.246094 618.796875 464.160156 630.957031 463.074219 645.074219 L 462.421875 653.109375 L 469.585938 649.199219 C 489.777344 637.90625 504.972656 626.398438 517.5625 612.714844 C 518.214844 611.847656 519.300781 610.976562 520.167969 610.328125 C 521.90625 608.804688 524.078125 607.070312 525.597656 604.679688 C 531.675781 595.558594 537.972656 586.003906 543.832031 576.882812 C 548.609375 569.5 553.601562 561.898438 558.378906 554.515625 C 569.234375 538.226562 575.3125 520.199219 580.957031 501.523438 C 588.554688 476.117188 592.027344 450.921875 590.941406 426.601562 C 590.507812 421.605469 590.292969 417.261719 590.074219 412.917969 Z M 456.125 277.839844 L 458.078125 279.359375 C 462.421875 282.617188 466.328125 285.875 469.804688 289.566406 C 484.347656 304.769531 502.585938 312.367188 524.292969 312.367188 C 525.8125 312.367188 527.550781 312.367188 529.070312 312.152344 C 535.367188 311.933594 541.226562 310.195312 547.523438 308.242188 C 550.34375 307.375 553.167969 306.503906 556.207031 305.855469 L 561.851562 304.550781 L 559.03125 299.554688 C 542.746094 270.453125 525.378906 249.171875 504.105469 233.101562 C 481.960938 215.945312 456.34375 204.433594 425.949219 197.703125 L 416.613281 195.53125 L 421.171875 204 C 422.691406 206.605469 423.996094 208.996094 425.515625 211.601562 C 428.554688 216.8125 431.378906 221.808594 433.546875 227.019531 C 438.324219 238.097656 442.449219 249.824219 445.707031 259.8125 L 446.140625 261.117188 C 448.09375 266.980469 450.046875 273.277344 456.125 277.839844 Z M 195.394531 418.128906 C 194.960938 417.042969 194.527344 415.960938 194.089844 414.875 L 193.007812 412.050781 L 189.964844 412.265625 C 185.40625 412.484375 184.539062 412.265625 183.453125 410.09375 C 181.933594 406.839844 179.546875 405.535156 177.808594 405.101562 C 174.988281 404.230469 171.511719 404.667969 168.039062 406.839844 L 166.738281 407.488281 L 166.085938 409.007812 C 160.875 421.605469 168.472656 429.859375 174.550781 436.589844 L 175.636719 437.675781 C 177.808594 440.066406 179.546875 442.886719 181.5 445.710938 C 182.800781 447.664062 184.105469 449.621094 185.625 451.574219 L 188.445312 455.265625 L 191.921875 452.226562 C 200.605469 444.410156 202.558594 437.457031 199.085938 426.816406 C 197.78125 423.558594 196.480469 420.953125 195.394531 418.128906 Z M 195.394531 418.128906 "/>
<path style=" stroke:none;fill-rule:nonzero;fill:rgb(58.81958%,50.979614%,86.268616%);fill-opacity:1;" d="M 49.070312 507.820312 L 48.855469 509.558594 L 47.335938 510.429688 C 41.90625 513.25 36.480469 516.292969 30.617188 519.332031 C 28.230469 520.636719 25.625 521.9375 23.019531 523.242188 L 18.242188 525.847656 L 18.242188 463.738281 L 21.71875 463.953125 C 37.347656 465.257812 50.589844 486.539062 49.070312 507.820312 Z M 396.640625 519.765625 C 396.207031 518.679688 395.554688 517.59375 395.121094 516.292969 C 393.601562 512.601562 391.867188 508.691406 389.261719 505.214844 C 382.3125 495.226562 371.894531 492.402344 361.90625 489.363281 C 359.300781 488.710938 356.695312 487.84375 354.089844 486.972656 C 341.066406 482.628906 328.472656 486.320312 316.75 497.832031 C 308.066406 506.300781 300.683594 517.160156 310.019531 534.101562 C 313.710938 540.832031 319.136719 545.609375 326.519531 549.085938 C 337.15625 553.863281 346.710938 556.25 356.042969 556.25 C 360.605469 556.25 365.164062 555.601562 369.503906 554.515625 C 382.746094 551.257812 395.339844 536.054688 396.640625 521.285156 Z M 396.640625 519.765625 "/>
<g clip-path="url(#clip1)" clip-rule="nonzero">
<path style=" stroke:none;fill-rule:nonzero;fill:rgb(23.529053%,31.369019%,74.508667%);fill-opacity:1;" d="M 802.394531 101.929688 C 798.269531 98.671875 794.578125 99.105469 790.238281 102.148438 C 781.769531 108.011719 772.433594 113.007812 764.183594 119.304688 C 738.566406 138.632812 708.609375 143.191406 677.996094 146.015625 C 655.855469 148.1875 634.363281 142.757812 612.871094 139.5 C 592.894531 136.460938 572.921875 132.335938 552.300781 134.722656 C 524.511719 137.761719 502.800781 151.445312 484.78125 171.640625 C 478.269531 178.808594 473.710938 187.710938 468.066406 196.183594 C 463.074219 194.878906 456.996094 194.226562 451.785156 191.621094 C 437.890625 184.457031 422.910156 181.847656 407.929688 180.113281 C 386.003906 177.722656 363.859375 176.636719 341.933594 174.898438 C 316.316406 172.945312 290.917969 170.121094 265.296875 168.382812 C 245.542969 167.082031 225.570312 167.082031 205.597656 165.5625 C 175.421875 163.171875 145.246094 162.085938 115.503906 167.949219 C 86.847656 173.597656 64.050781 189.449219 47.769531 213.773438 C 39.085938 226.804688 32.570312 241.355469 26.710938 255.90625 C 15.203125 284.136719 11.949219 314.105469 9.777344 344.292969 C 8.910156 357.539062 8.691406 371.003906 7.824219 384.253906 C 6.304688 405.753906 3.480469 427.035156 2.828125 448.316406 C 1.746094 478.722656 1.527344 509.125 4.566406 539.527344 C 5.433594 547.347656 6.519531 555.601562 8.691406 563.199219 C 14.554688 583.398438 26.925781 600.335938 38.867188 617.277344 C 53.628906 637.90625 75.339844 650.9375 96.398438 664.183594 C 103.78125 668.746094 112.246094 672.21875 120.277344 675.695312 C 131.785156 680.691406 143.074219 686.335938 154.796875 690.027344 C 170.644531 695.242188 186.925781 699.582031 203.210938 702.625 C 219.925781 705.664062 236.640625 707.402344 253.574219 709.140625 C 260.738281 709.789062 268.121094 710.007812 275.285156 710.007812 C 282.449219 710.226562 289.394531 711.09375 296.5625 711.3125 C 301.554688 711.527344 306.546875 711.527344 311.324219 711.3125 C 319.355469 710.875 327.605469 711.3125 335.636719 710.875 C 336.941406 710.660156 338.242188 710.441406 339.546875 710.226562 C 343.671875 710.226562 348.011719 710.441406 352.136719 710.007812 C 360.605469 709.140625 369.070312 708.054688 377.539062 706.316406 C 389.042969 703.710938 401.199219 702.40625 411.839844 697.410156 C 440.277344 684.382812 468.066406 669.613281 492.816406 650.285156 C 502.148438 642.902344 511.269531 635.300781 519.734375 627.046875 C 527.550781 619.449219 534.28125 610.542969 541.226562 602.074219 C 544.265625 598.382812 546.4375 594.039062 549.695312 590.5625 C 562.71875 576.230469 570.101562 558.421875 577.699219 541.265625 C 587.902344 518.679688 594.632812 494.359375 597.890625 469.382812 C 600.929688 446.578125 602.230469 423.777344 601.363281 400.757812 C 600.277344 371.4375 592.027344 344.074219 581.390625 317.144531 C 579.21875 311.71875 576.613281 306.289062 574.226562 300.859375 C 575.746094 301.074219 577.484375 301.074219 579.003906 301.074219 C 592.460938 304.117188 605.703125 308.023438 619.164062 310.632812 C 639.136719 314.539062 659.109375 314.972656 678.433594 307.589844 C 695.367188 300.859375 710.78125 292.171875 724.023438 278.707031 C 737.699219 265.023438 750.726562 250.910156 759.84375 234.1875 C 770.699219 214.425781 779.164062 193.140625 787.414062 172.078125 C 794.578125 153.617188 800.222656 134.289062 806.519531 115.394531 C 808.472656 109.964844 806.953125 105.621094 802.394531 101.929688 Z M 536.886719 152.097656 C 546.871094 148.839844 558.160156 147.753906 568.582031 148.40625 C 582.476562 149.273438 596.152344 152.964844 610.046875 155.355469 C 637.835938 159.914062 665.1875 164.910156 693.628906 160.785156 C 714.46875 157.742188 734.878906 153.183594 754.632812 145.363281 C 742.042969 161.652344 727.277344 175.117188 708.609375 183.804688 C 691.023438 191.839844 673.003906 197.703125 653.683594 199.222656 C 642.609375 200.089844 631.539062 200.527344 620.46875 199.441406 C 600.277344 197.703125 579.871094 196.832031 559.679688 198.355469 C 541.011719 199.65625 523.859375 205.304688 512.570312 221.375 C 502.367188 215.078125 492.382812 208.996094 482.394531 202.699219 C 493.683594 177.941406 511.703125 160.785156 536.886719 152.097656 Z M 703.179688 202.261719 C 694.496094 207.910156 686.246094 213.992188 677.128906 218.769531 C 659.328125 228.105469 640.007812 233.96875 620.25 237.445312 C 595.71875 241.570312 571.402344 246.566406 549.695312 259.597656 C 540.140625 249.171875 531.457031 239.398438 522.558594 229.410156 C 528.417969 219.855469 536.453125 214.640625 545.785156 212.6875 C 563.152344 209.210938 580.957031 208.777344 598.976562 210.515625 C 628.066406 213.339844 657.375 214.207031 686.03125 205.304688 C 689.070312 204.433594 691.675781 203.132812 694.496094 202.046875 C 696.886719 201.175781 699.492188 200.527344 701.878906 199.875 C 702.3125 200.742188 702.746094 201.394531 703.179688 202.261719 Z M 501.28125 236.359375 C 524.078125 253.734375 541.011719 276.101562 555.339844 301.945312 C 545.785156 304.117188 537.535156 307.375 529.070312 307.808594 C 507.578125 308.894531 488.472656 302.597656 473.058594 286.523438 C 468.71875 281.964844 463.722656 278.273438 458.730469 274.363281 C 453.304688 270.238281 451.785156 264.375 449.832031 258.292969 C 446.140625 247.21875 442.230469 235.925781 437.457031 225.066406 C 434.199219 217.246094 429.421875 210.082031 424.863281 201.828125 C 453.304688 208.125 478.921875 219.203125 501.28125 236.359375 Z M 535.367188 435.9375 C 534.0625 428.988281 532.328125 421.824219 529.289062 415.523438 C 525.378906 407.488281 518.214844 402.496094 508.878906 404.015625 C 493.902344 406.402344 478.269531 406.1875 464.808594 417.914062 C 460.46875 397.066406 458.949219 377.300781 460.902344 356.671875 C 504.320312 369.265625 536.015625 353.195312 560.332031 318.449219 C 561.417969 318.449219 562.285156 318.667969 563.152344 318.882812 C 563.152344 342.121094 563.804688 365.574219 562.9375 389.03125 C 561.632812 427.46875 552.949219 464.386719 535.148438 498.484375 C 522.773438 522.15625 506.058594 542.785156 483.046875 558.421875 C 484.132812 545.394531 485.433594 533.230469 486.519531 520.199219 C 500.195312 515.640625 512.355469 508.039062 520.820312 495.445312 C 532.761719 477.417969 539.054688 457.65625 535.367188 435.9375 Z M 455.039062 283.703125 C 462.855469 290.433594 469.585938 295.648438 475.882812 301.292969 C 486.953125 311.5 500.414062 315.410156 514.960938 317.363281 C 525.8125 318.667969 536.453125 318.667969 546.65625 314.539062 C 547.304688 314.324219 547.957031 314.105469 548.609375 314.105469 C 548.390625 314.757812 548.175781 315.191406 547.957031 315.84375 C 545.785156 319.101562 544.265625 322.792969 541.660156 325.398438 C 522.339844 344.726562 499.109375 354.5 471.324219 351.242188 C 469.804688 351.023438 468.285156 350.589844 466.980469 349.9375 C 465.027344 349.070312 463.074219 347.984375 460.902344 346.898438 C 458.949219 326.484375 457.210938 306.289062 455.039062 283.703125 Z M 26.058594 393.375 C 26.710938 384.035156 26.492188 374.695312 28.230469 365.574219 C 29.097656 360.796875 32.789062 356.453125 35.613281 352.328125 C 40.820312 344.726562 46.683594 337.558594 51.675781 329.742188 C 61.878906 313.453125 78.164062 307.375 95.746094 303.898438 C 103.128906 302.378906 108.773438 305.855469 113.113281 311.066406 C 127.660156 328.65625 138.296875 348.203125 137.429688 371.875 C 137.210938 381.863281 134.390625 391.203125 130.480469 400.972656 C 125.488281 413.351562 119.191406 424.210938 110.074219 433.117188 C 100.738281 442.238281 90.101562 451.792969 79.246094 450.921875 C 64.269531 450.921875 54.714844 448.96875 46.898438 440.933594 C 41.90625 435.503906 36.480469 430.292969 31.488281 424.863281 C 23.238281 415.523438 25.40625 404.230469 26.058594 393.375 Z M 21.5 467.210938 C 35.394531 468.296875 47.117188 488.277344 45.816406 507.820312 C 38.214844 511.730469 30.183594 516.074219 21.5 520.636719 C 21.5 520.636719 21.5 467.210938 21.5 467.210938 Z M 22.152344 536.273438 C 26.925781 533.449219 31.269531 530.84375 36.695312 527.367188 C 41.039062 537.140625 44.945312 546.042969 48.203125 554.078125 C 42.125 561.246094 36.914062 567.761719 31.050781 574.710938 C 24.539062 562.550781 23.238281 549.519531 22.152344 536.273438 Z M 456.558594 583.179688 C 452.21875 596.644531 451.351562 611.195312 449.832031 625.3125 C 448.960938 633.128906 449.394531 641.164062 449.832031 649.199219 C 450.046875 654.195312 448.09375 657.019531 443.535156 659.625 C 428.773438 667.660156 413.792969 674.828125 397.511719 679.167969 C 384.050781 682.644531 370.375 685.902344 356.261719 686.335938 C 336.941406 686.988281 317.617188 690.027344 298.296875 689.8125 C 274.851562 689.59375 251.1875 688.289062 227.742188 685.46875 C 201.472656 682.425781 176.941406 674.828125 152.191406 667.226562 C 118.542969 656.585938 88.582031 638.558594 61.878906 615.972656 C 52.542969 608.15625 45.816406 597.078125 38 587.523438 C 48.421875 568.195312 62.53125 555.601562 79.03125 544.957031 C 82.503906 542.785156 85.976562 540.179688 88.800781 537.140625 C 96.179688 528.671875 94.226562 516.726562 84.675781 510.863281 C 78.164062 506.734375 71.214844 504.128906 63.398438 504.78125 C 61.230469 504.78125 59.273438 504.566406 56.453125 504.347656 C 55.585938 481.328125 46.683594 463.738281 23.238281 455.050781 C 22.804688 451.359375 22.367188 447.230469 21.933594 443.105469 C 22.585938 442.671875 23.238281 442.453125 23.886719 442.019531 C 25.84375 444.191406 27.796875 446.578125 29.96875 448.75 C 41.472656 460.480469 53.195312 471.554688 71.433594 470.25 C 87.929688 468.949219 102.910156 465.257812 116.371094 453.746094 C 146.332031 428.121094 157.402344 395.761719 154.578125 357.972656 C 153.710938 347.332031 148.285156 336.472656 143.289062 326.484375 C 137.863281 315.625 130.265625 305.851562 123.96875 296.082031 C 127.441406 285.875 131.132812 275.015625 134.390625 263.941406 C 134.824219 262.417969 132.652344 258.292969 131.785156 258.292969 C 129.179688 258.074219 125.273438 258.945312 123.96875 260.683594 C 120.277344 265.894531 117.457031 271.539062 114.851562 277.1875 C 112.898438 281.3125 111.59375 285.4375 110.074219 290 C 105.734375 289.132812 101.824219 288.261719 96.179688 287.175781 C 96.179688 281.964844 96.398438 276.316406 96.179688 270.890625 C 95.964844 266.109375 95.964844 261.117188 95.09375 256.554688 C 94.660156 254.382812 92.054688 252.429688 90.320312 250.476562 C 88.367188 252.429688 85.109375 254.167969 84.675781 256.554688 C 83.371094 262.417969 83.15625 268.28125 82.722656 274.363281 C 82.503906 279.140625 82.285156 283.917969 82.070312 288.914062 C 76.859375 291.304688 72.082031 293.910156 65.789062 296.949219 C 63.832031 289.132812 62.3125 282.183594 60.792969 275.230469 C 59.925781 271.757812 59.710938 268.066406 58.1875 264.808594 C 57.320312 263.070312 54.714844 260.898438 52.980469 260.898438 C 51.242188 260.898438 48.421875 263.289062 47.984375 265.023438 C 46.898438 269.585938 46.03125 274.582031 46.464844 279.140625 C 47.117188 287.828125 48.636719 296.515625 49.941406 307.808594 C 46.03125 311.933594 39.953125 318.449219 34.089844 324.746094 C 33.222656 324.53125 32.136719 324.097656 31.269531 323.660156 C 31.921875 319.101562 32.570312 314.324219 33.441406 309.761719 C 36.480469 295.210938 37.566406 279.792969 43.210938 266.109375 C 50.589844 248.085938 55.585938 228.324219 69.914062 213.773438 C 86.410156 197.050781 104.863281 184.453125 128.960938 181.632812 C 159.355469 178.375 189.316406 181.199219 219.492188 183.371094 C 230.128906 184.019531 240.984375 183.585938 251.839844 184.238281 C 271.8125 185.539062 291.785156 187.277344 311.757812 188.796875 C 328.691406 190.101562 345.839844 191.621094 362.773438 193.140625 C 376.019531 194.445312 389.042969 195.746094 402.71875 197.269531 C 414.226562 213.339844 425.082031 230.929688 431.8125 250.476562 C 436.804688 265.023438 438.757812 280.011719 440.0625 294.996094 C 442.015625 316.277344 444.402344 337.777344 445.921875 359.277344 C 447.007812 375.128906 446.789062 390.984375 447.875 406.621094 C 448.308594 414.875 450.046875 423.125 451.785156 431.160156 C 452.652344 435.722656 453.085938 442.019531 458.949219 442.238281 C 462.640625 442.453125 467.414062 439.628906 470.019531 436.589844 C 480.007812 424.644531 493.25 421.386719 507.578125 420.519531 C 513.222656 420.085938 516.914062 423.125 518 428.554688 C 522.125 449.1875 517.78125 478.285156 496.503906 493.707031 C 489.992188 498.484375 482.175781 501.957031 474.796875 505.433594 C 469.152344 508.039062 465.679688 511.515625 466.328125 518.464844 C 468.285156 540.832031 463.074219 561.898438 456.558594 583.179688 Z M 49.503906 520.851562 C 58.40625 518.464844 66.4375 515.207031 75.121094 519.550781 C 81.636719 522.808594 82.285156 528.234375 76.640625 532.796875 C 71.214844 536.921875 65.570312 540.832031 58.40625 545.828125 C 55.148438 536.921875 52.328125 529.105469 49.503906 520.851562 Z M 583.777344 378.605469 C 585.515625 394.242188 585.515625 410.09375 586.167969 425.949219 C 587.25 450.921875 583.5625 475.464844 576.398438 499.351562 C 570.96875 517.378906 565.109375 535.402344 554.46875 551.257812 C 543.398438 567.976562 532.761719 584.917969 521.6875 601.421875 C 519.734375 604.464844 516.480469 606.417969 514.089844 609.023438 C 501.066406 623.140625 485.867188 634.214844 467.199219 644.640625 C 468.285156 630.742188 469.367188 618.796875 470.671875 606.636719 C 471.105469 601.640625 471.757812 596.644531 472.84375 591.648438 C 476.097656 578.402344 482.175781 568.414062 494.984375 560.160156 C 526.464844 539.964844 545.136719 509.125 556.640625 474.378906 C 562.71875 455.703125 568.148438 436.589844 571.1875 417.261719 C 574.007812 398.367188 576.613281 379.257812 572.707031 360.144531 C 572.054688 356.886719 572.707031 353.632812 572.707031 350.375 C 573.792969 350.15625 574.660156 349.9375 575.746094 349.722656 C 578.351562 359.277344 582.257812 368.617188 583.777344 378.605469 Z M 774.386719 156.007812 C 767.875 172.945312 762.449219 190.320312 754.632812 206.605469 C 743.777344 229.191406 729.015625 248.953125 710.996094 266.761719 C 695.367188 281.964844 676.476562 290.21875 656.070312 294.777344 C 647.171875 296.730469 637.402344 295.429688 628.28125 294.34375 C 611.566406 292.390625 594.851562 289.132812 577.917969 286.742188 C 575.09375 286.308594 571.839844 288.261719 568.363281 289.132812 C 564.457031 282.183594 560.332031 275.234375 556.207031 267.847656 C 572.707031 257.859375 590.507812 253.734375 608.308594 250.039062 C 626.546875 246.347656 644.566406 242.003906 662.148438 236.574219 C 684.292969 229.84375 702.746094 216.378906 719.898438 201.394531 C 729.234375 193.140625 738.785156 184.890625 747.25 175.550781 C 757.019531 164.691406 765.703125 152.964844 774.824219 141.457031 C 776.777344 139.285156 778.730469 136.894531 780.683594 134.722656 C 781.117188 134.941406 781.769531 135.15625 782.203125 135.375 C 779.597656 142.324219 776.992188 149.054688 774.386719 156.007812 Z M 58.1875 419.652344 C 54.28125 405.753906 57.753906 391.851562 59.273438 377.953125 C 61.230469 361.667969 66.4375 346.03125 71.867188 330.609375 C 74.253906 323.660156 79.03125 322.140625 84.890625 326.917969 C 92.925781 333.433594 93.792969 342.773438 95.09375 351.894531 C 95.53125 354.28125 95.09375 356.671875 95.3125 358.84375 C 93.140625 379.257812 89.234375 399.238281 80.550781 417.695312 C 79.464844 419.867188 78.378906 422.039062 77.078125 423.996094 C 74.253906 427.902344 70.128906 430.945312 65.570312 428.773438 C 62.3125 427.25 59.273438 423.125 58.1875 419.652344 Z M 380.578125 298.6875 C 388.390625 287.609375 394.253906 275.882812 393.820312 261.769531 C 385.136719 260.683594 384.050781 260.898438 380.578125 267.195312 C 376.234375 275.234375 372.542969 283.484375 368.417969 291.953125 C 362.558594 289.78125 357.128906 287.828125 350.617188 285.441406 C 353.222656 272.625 355.828125 260.03125 358.433594 247.433594 C 350.835938 245.261719 349.316406 245.480469 347.144531 251.125 C 342.800781 262.417969 338.675781 273.929688 334.550781 285.441406 C 329.558594 286.308594 323.480469 287.609375 317.183594 288.695312 C 315.230469 281.53125 313.710938 274.148438 311.324219 267.195312 C 308.933594 260.464844 310.453125 251.34375 301.121094 247.21875 C 293.519531 255.253906 296.5625 264.375 297.863281 272.84375 C 299.164062 281.746094 301.988281 290.433594 303.726562 297.601562 C 295.910156 302.8125 286.792969 306.289062 281.363281 313.019531 C 266.601562 331.695312 257.484375 353.632812 253.140625 376.867188 C 248.148438 403.796875 252.707031 429.421875 267.902344 452.226562 C 274.851562 462.433594 282.667969 472.859375 294.390625 478.285156 C 302.207031 481.761719 310.671875 483.933594 319.789062 486.972656 C 316.75 489.578125 314.144531 491.535156 311.757812 493.707031 C 303.726562 502.394531 297.644531 512.382812 300.035156 524.980469 C 302.421875 538.007812 309.585938 547.347656 321.308594 553.863281 C 336.289062 562.332031 352.355469 564.722656 368.851562 561.679688 C 386.003906 558.640625 400.332031 541.917969 400.984375 524.328125 C 401.636719 509.558594 394.90625 495.445312 374.933594 488.058594 C 371.023438 486.757812 368.203125 482.414062 364.292969 479.15625 C 396.207031 457.003906 415.3125 427.902344 419.871094 391.417969 C 424.648438 353.414062 408.148438 322.792969 380.578125 298.6875 Z M 386.65625 507.171875 C 389.476562 511.296875 391.214844 516.507812 393.601562 521.070312 C 392.300781 534.101562 381.011719 548.214844 368.851562 551.472656 C 354.523438 555.164062 341.066406 552.125 328.039062 546.261719 C 321.527344 543.222656 316.535156 538.878906 313.058594 532.578125 C 305.246094 518.679688 309.804688 509.34375 319.136719 500.222656 C 328.039062 491.535156 339.328125 485.671875 353.222656 490.230469 C 365.164062 494.359375 378.621094 495.660156 386.65625 507.171875 Z M 406.628906 386.425781 C 405.109375 407.488281 396.859375 426.167969 382.3125 441.800781 C 375.800781 448.535156 369.070312 455.050781 361.039062 460.480469 C 347.796875 469.601562 334.117188 470.035156 319.355469 467.644531 C 293.519531 463.738281 273.546875 438.109375 269.859375 410.746094 C 267.253906 390.765625 269.859375 371.4375 278.542969 353.195312 C 278.976562 352.328125 279.628906 351.675781 279.84375 350.808594 C 284.1875 330.609375 299.382812 320.402344 315.449219 310.414062 C 323.480469 305.417969 331.511719 301.511719 338.242188 302.597656 C 358.433594 302.8125 372.109375 311.066406 382.746094 323.011719 C 398.8125 340.601562 408.363281 361.882812 406.628906 386.425781 Z M 353.003906 372.089844 C 352.570312 380.34375 351.921875 388.8125 349.75 396.628906 C 346.058594 409.878906 341.5 422.910156 336.722656 435.722656 C 332.816406 445.496094 320.660156 449.1875 315.015625 442.238281 C 311.972656 438.761719 310.671875 433.550781 309.804688 428.988281 C 304.375 400.105469 308.933594 372.523438 320.875 346.03125 C 323.699219 339.730469 328.90625 336.472656 336.722656 335.390625 C 347.796875 345.378906 353.65625 357.539062 353.003906 372.089844 Z M 154.144531 419 C 153.710938 402.496094 164.132812 394.675781 182.585938 398.152344 L 182.585938 342.773438 C 182.585938 330.394531 182.585938 317.796875 183.019531 305.417969 C 183.238281 301.945312 185.40625 298.46875 186.492188 295.429688 C 192.570312 296.082031 194.089844 299.121094 194.308594 303.03125 C 195.394531 322.792969 196.914062 342.339844 197.347656 362.101562 C 197.566406 375.78125 196.695312 389.679688 195.828125 403.363281 C 195.394531 408.359375 195.609375 413.789062 189.964844 416.609375 C 185.625 416.828125 181.71875 416.828125 179.328125 412.050781 C 177.375 408.140625 173.683594 408.359375 169.777344 410.53125 C 165.433594 421.171875 171.949219 427.6875 178.460938 434.636719 C 182.367188 438.761719 185.191406 443.972656 188.664062 448.75 C 186.492188 450.273438 184.105469 453.3125 182.152344 453.09375 C 170.863281 451.359375 154.363281 430.945312 154.144531 419 Z M 130.265625 207.257812 C 130.699219 209.429688 129.398438 212.035156 128.527344 214.640625 C 126.140625 214.207031 124.1875 214.640625 123.316406 213.773438 C 112.464844 204.652344 103.34375 210.296875 94.445312 216.8125 C 88.367188 221.375 87.714844 221.589844 80.550781 218.769531 C 80.765625 208.996094 88.367188 204.433594 95.3125 200.527344 C 100.304688 197.703125 106.382812 196.183594 112.246094 195.097656 C 118.542969 193.792969 128.960938 201.175781 130.265625 207.257812 Z M 305.027344 220.289062 C 303.941406 217.683594 305.027344 213.121094 306.765625 210.734375 C 313.058594 202.261719 322.394531 202.261719 331.296875 204 C 337.808594 205.085938 344.320312 208.125 349.964844 211.820312 C 355.828125 215.511719 355.828125 221.15625 350.617188 228.757812 C 346.492188 226.367188 343.019531 223.980469 339.328125 222.242188 C 331.078125 218.332031 322.828125 218.117188 314.363281 222.027344 C 310.671875 223.761719 306.546875 223.980469 305.027344 220.289062 Z M 243.804688 483.28125 C 239.464844 480.675781 232.734375 480.457031 227.523438 481.109375 C 218.839844 482.414062 210.375 485.886719 201.691406 487.191406 C 194.742188 488.058594 187.144531 488.710938 180.414062 486.972656 C 169.777344 484.152344 159.789062 479.15625 149.371094 475.679688 C 141.121094 473.074219 132.652344 468.515625 124.621094 469.164062 C 103.78125 470.902344 95.3125 489.796875 98.351562 506.519531 C 102.042969 526.5 114.851562 541.484375 130.699219 551.691406 C 143.289062 559.941406 159.355469 564.070312 174.335938 567.976562 C 183.238281 570.367188 193.441406 569.0625 204.730469 569.5 C 211.894531 566.675781 220.359375 563.851562 228.609375 560.160156 C 244.675781 552.992188 260.089844 545.175781 269.207031 528.453125 C 274.199219 519.113281 274.632812 511.515625 268.988281 502.609375 C 262.910156 492.835938 252.707031 488.929688 243.804688 483.28125 Z M 130.265625 526.28125 C 122.015625 520.851562 118.324219 512.601562 114.851562 504.566406 C 112.246094 498.050781 115.71875 489.796875 121.148438 486.324219 C 125.273438 483.933594 130.917969 484.800781 139.382812 489.796875 C 136.125 502.175781 133.304688 513.6875 130.265625 526.28125 Z M 168.910156 546.695312 C 158.921875 542.570312 149.804688 539.09375 140.035156 535.1875 C 143.726562 521.070312 146.980469 508.472656 150.457031 495.226562 C 159.355469 498.484375 166.738281 501.308594 174.769531 504.347656 C 172.816406 518.679688 170.863281 532.144531 168.910156 546.695312 Z M 221.226562 511.296875 C 220.359375 519.984375 219.273438 528.453125 219.273438 537.140625 C 219.273438 543.003906 216.886719 546.695312 211.460938 547.347656 C 200.605469 548.648438 189.75 549.300781 177.59375 550.386719 C 180.632812 534.316406 183.453125 520.199219 186.277344 506.734375 C 199.085938 504.78125 210.589844 503.261719 222.964844 501.308594 C 222.53125 504.128906 221.664062 507.605469 221.226562 511.296875 Z M 254.445312 521.285156 C 247.929688 528.453125 241.636719 536.488281 229.042969 537.574219 C 231.214844 523.457031 233.167969 509.777344 235.558594 493.921875 C 243.15625 499.785156 249.015625 504.128906 254.445312 509.125 C 257.917969 512.601562 258.132812 517.378906 254.445312 521.285156 Z M 254.445312 521.285156 "/>
</g>
</g>
</svg>
