<?xml version="1.0" encoding="UTF-8"?>
<svg xmlns="http://www.w3.org/2000/svg" xmlns:xlink="http://www.w3.org/1999/xlink" width="810pt" height="809.999993pt" viewBox="0 0 810 809.999993" version="1.2">
<g id="surface1">
<path style=" stroke:none;fill-rule:nonzero;fill:rgb(100%,100%,100%);fill-opacity:1;" d="M 449.324219 550.601562 C 451.007812 554.710938 448.390625 559.945312 446.332031 564.058594 C 441.097656 574.335938 431.933594 576.015625 423.894531 577.511719 C 421.277344 578.074219 418.84375 578.445312 416.601562 579.195312 C 414.542969 579.753906 412.675781 579.941406 410.617188 580.128906 C 409.871094 580.128906 408.933594 580.316406 408.1875 580.316406 L 403.886719 580.875 L 403.886719 578.820312 C 402.390625 578.632812 401.082031 578.632812 399.585938 578.445312 C 390.796875 577.886719 381.632812 577.136719 372.847656 575.457031 C 366.863281 574.335938 361.066406 568.914062 357.886719 564.058594 C 354.894531 559.945312 355.832031 551.910156 358.636719 548.171875 C 361.628906 544.246094 368.171875 542.003906 372.660156 542.191406 C 381.449219 542.753906 390.050781 543.875 398.652344 544.808594 C 405.757812 545.554688 413.234375 546.488281 420.527344 547.050781 C 424.640625 547.425781 429.503906 546.117188 433.804688 544.996094 C 444.648438 542.003906 448.203125 547.984375 449.324219 550.601562 Z M 106.390625 437.539062 L 106.015625 435.671875 L 104.144531 434.921875 C 90.871094 429.878906 83.953125 431.933594 76.472656 442.585938 L 75.164062 444.453125 L 76.285156 446.511719 C 77.21875 448.003906 78.15625 449.6875 79.277344 451.367188 C 81.144531 454.359375 83.203125 457.535156 84.886719 460.898438 C 86.007812 463.328125 86.382812 465.945312 86.195312 466.691406 C 85.632812 467.628906 83.203125 469.308594 81.707031 469.308594 C 78.714844 469.308594 75.164062 468 73.855469 466.507812 C 63.945312 454.917969 58.894531 445.015625 64.316406 432.679688 L 66.5625 427.636719 L 60.953125 427.449219 C 60.765625 427.449219 60.765625 427.449219 60.578125 427.449219 C 49.171875 427.449219 45.433594 436.417969 42.8125 442.960938 L 42.253906 444.453125 C 39.449219 451.367188 36.269531 455.292969 32.714844 456.601562 C 29.164062 457.910156 24.300781 456.789062 17.945312 453.238281 L 13.269531 450.621094 L 12.523438 456.039062 C 11.214844 464.449219 15.699219 470.429688 19.441406 475.851562 C 20.375 477.15625 21.308594 478.652344 22.246094 479.960938 C 30.847656 493.417969 42.066406 502.199219 54.035156 505.191406 C 60.578125 506.683594 66.75 507.433594 72.546875 507.433594 C 90.496094 507.433594 105.082031 500.332031 116.488281 486.316406 L 117.609375 484.820312 L 113.683594 467.8125 C 111.25 457.722656 108.820312 447.816406 106.390625 437.539062 Z M 69.367188 418.292969 L 66.1875 424.269531 L 72.917969 423.710938 C 78.339844 423.335938 83.765625 422.964844 89.1875 422.589844 C 93.300781 422.402344 97.414062 422.027344 101.714844 421.65625 L 105.269531 421.46875 L 105.269531 390.820312 L 103.023438 389.699219 C 92.550781 384.839844 81.894531 385.585938 71.050781 386.707031 L 65.625 387.269531 L 68.246094 392.128906 C 73.480469 401.660156 73.667969 409.882812 69.367188 418.292969 Z M 721.015625 405.210938 C 725.691406 404.648438 730.179688 404.089844 734.851562 403.527344 L 737.472656 403.152344 L 738.03125 400.539062 C 738.40625 398.667969 738.96875 396.613281 739.339844 394.558594 C 739.902344 391.941406 740.460938 389.324219 741.023438 386.707031 L 741.957031 381.851562 L 737.097656 382.222656 C 735.976562 382.222656 734.851562 382.222656 733.730469 382.410156 C 731.863281 382.410156 729.992188 382.410156 728.121094 382.785156 C 714.472656 384.652344 705.121094 392.128906 703.066406 402.78125 L 702.128906 407.824219 L 707.179688 407.265625 C 711.667969 406.519531 716.339844 405.957031 721.015625 405.210938 Z M 328.902344 393.4375 C 325.726562 429.691406 306.652344 454.171875 275.238281 462.582031 C 271.3125 463.703125 267.386719 465.199219 263.644531 466.691406 C 257.289062 469.308594 250.929688 471.738281 244.386719 471.738281 C 243.078125 471.738281 241.769531 471.550781 240.460938 471.363281 C 214.46875 471.363281 198.199219 461.648438 189.039062 440.902344 C 178.941406 418.105469 176.511719 396.988281 181.558594 376.804688 C 186.046875 359.609375 194.085938 345.96875 205.867188 336.4375 C 220.640625 324.476562 237.46875 316.628906 257.476562 312.703125 C 277.296875 308.78125 292.441406 319.621094 302.164062 328.214844 C 321.425781 345.222656 330.960938 368.394531 328.902344 393.4375 Z M 278.980469 371.570312 C 278.980469 370.261719 278.042969 368.019531 275.800781 365.777344 C 273.742188 363.535156 270.9375 361.855469 269.253906 361.855469 C 269.070312 361.855469 268.882812 361.855469 268.695312 361.855469 C 261.402344 361.855469 255.792969 366.710938 255.417969 373.253906 C 255.230469 375.871094 256.539062 378.671875 258.597656 380.914062 C 260.652344 383.15625 263.273438 384.277344 265.703125 384.277344 C 273.929688 384.277344 278.792969 379.605469 278.980469 371.570312 Z M 601.53125 334.570312 C 620.417969 353.070312 629.207031 374 629.207031 400.351562 C 629.578125 433.988281 602.464844 461.835938 567.3125 463.890625 C 565.628906 464.078125 563.761719 464.078125 562.078125 464.078125 C 541.132812 464.078125 525.425781 455.855469 514.019531 439.035156 C 511.589844 435.671875 510.46875 431.933594 509.347656 428.382812 C 502.054688 406.890625 502.800781 383.53125 511.777344 359.238281 C 520.941406 334.007812 535.710938 320.925781 556.65625 319.621094 C 575.539062 318.3125 590.6875 323.355469 601.53125 334.570312 Z M 578.90625 382.410156 C 578.90625 380.914062 578.71875 378.859375 577.410156 377.550781 C 576.101562 376.242188 574.230469 376.054688 572.734375 376.054688 C 572.546875 376.054688 572.546875 376.054688 572.363281 376.054688 C 566.9375 376.242188 561.890625 380.355469 561.890625 384.464844 C 561.890625 386.523438 563.199219 388.953125 565.070312 390.820312 C 566.75 392.5 568.996094 393.4375 570.492188 393.25 C 574.980469 393.0625 578.90625 388.015625 578.90625 382.410156 Z M 679.503906 325.785156 C 686.421875 345.59375 689.601562 366.339844 689.226562 387.269531 C 689.226562 391.007812 689.042969 394.929688 689.042969 398.667969 C 688.855469 412.3125 688.855469 426.515625 686.609375 440.15625 C 680.066406 479.585938 669.78125 507.992188 652.953125 532.101562 C 650.523438 535.464844 648.464844 539.203125 646.035156 542.941406 C 643.230469 547.796875 640.238281 552.65625 636.683594 557.328125 C 629.207031 567.421875 621.539062 577.136719 612.75 585.359375 C 598.164062 598.816406 582.457031 611.523438 567.125 623.671875 L 563.386719 626.660156 C 560.019531 629.277344 556.28125 630.960938 552.539062 632.453125 C 551.605469 632.828125 550.484375 633.390625 549.550781 633.761719 C 544.125 636.191406 538.515625 638.996094 533.09375 641.425781 C 518.882812 648.152344 504.296875 655.253906 489.152344 659.925781 C 474.007812 664.597656 457.925781 667.027344 442.40625 669.269531 C 437.542969 670.015625 432.496094 670.765625 427.632812 671.511719 C 421.277344 672.445312 414.171875 673.566406 407.066406 673.566406 C 405.007812 673.566406 402.953125 673.566406 400.894531 673.382812 C 379.765625 671.886719 358.636719 669.457031 340.683594 667.214844 C 310.765625 663.476562 284.027344 650.769531 264.019531 640.117188 C 227.371094 620.496094 198.386719 596.386719 175.761719 566.859375 C 161.550781 548.171875 149.210938 526.867188 137.054688 499.398438 C 136.308594 497.714844 135.933594 496.03125 135.558594 494.164062 L 129.761719 496.96875 L 121.535156 458.46875 L 123.40625 453.425781 C 123.21875 452.117188 123.03125 450.808594 122.84375 449.6875 C 116.113281 418.664062 118.167969 386.894531 121.160156 359.796875 C 121.910156 353.070312 123.78125 346.34375 125.835938 339.800781 C 126.585938 337 127.519531 334.195312 128.265625 331.394531 C 134.4375 308.21875 144.722656 285.421875 161.550781 257.574219 C 172.582031 239.074219 187.167969 221.507812 207.175781 202.074219 C 227.746094 182.078125 246.628906 168.621094 266.824219 159.277344 L 270.9375 157.410156 C 284.402344 151.242188 298.238281 144.699219 312.449219 139.65625 C 319.929688 137.039062 327.59375 135.730469 335.636719 134.234375 C 339.375 133.488281 343.300781 132.925781 347.230469 131.992188 L 354.707031 130.3125 L 351.34375 137.226562 C 340.871094 158.53125 344.796875 185.066406 361.253906 204.875 C 370.976562 217.023438 383.128906 227.113281 395.097656 236.832031 C 400.144531 240.941406 405.382812 245.242188 410.242188 249.726562 C 414.171875 253.277344 418.472656 254.585938 422.023438 253.277344 C 425.761719 251.96875 428.753906 248.042969 429.878906 242.25 C 430.25 240.382812 430.8125 238.328125 431.375 236.085938 C 431.558594 234.964844 431.933594 233.84375 432.121094 232.71875 L 433.429688 227.113281 L 438.105469 230.664062 C 440.722656 232.71875 443.339844 234.777344 445.769531 236.644531 C 450.445312 240.382812 454.933594 243.746094 459.421875 247.296875 C 466.152344 252.53125 470.265625 251.96875 475.503906 245.242188 C 483.542969 235.335938 485.597656 223.003906 487.46875 209.175781 C 490.273438 187.308594 484.664062 166.191406 470.078125 142.644531 C 469.707031 142.085938 469.519531 141.335938 469.332031 140.777344 C 469.144531 140.589844 468.957031 140.589844 468.957031 140.402344 L 465.21875 136.664062 L 469.707031 134.421875 L 471.761719 132.367188 L 474.378906 134.046875 C 474.753906 134.421875 475.128906 134.609375 475.503906 134.984375 C 478.308594 135.730469 481.113281 136.476562 483.917969 137.226562 C 489.339844 138.535156 494.949219 140.027344 500.371094 141.898438 C 503.550781 143.207031 506.730469 144.328125 509.722656 145.449219 C 522.621094 150.308594 535.898438 155.351562 548.054688 162.082031 C 573.109375 175.722656 596.109375 193.851562 616.675781 215.714844 C 623.597656 223.003906 629.578125 231.039062 635.1875 238.699219 C 638.742188 243.371094 642.292969 248.230469 646.035156 252.902344 C 652.578125 260.9375 656.878906 270.46875 660.992188 279.628906 L 661.742188 281.121094 C 668.285156 296.257812 674.269531 311.023438 679.503906 325.785156 Z M 470.828125 136.105469 C 470.640625 136.105469 470.640625 136.105469 470.828125 136.105469 Z M 242.140625 253.277344 C 246.257812 257.574219 247.378906 257.386719 253.921875 254.210938 C 265.890625 248.605469 279.726562 242.625 295.433594 242.4375 C 296.179688 240.382812 296.367188 238.515625 295.621094 237.207031 C 294.6875 235.523438 292.441406 234.402344 289.449219 234.214844 C 273.183594 233.28125 259.34375 240.570312 245.507812 248.792969 C 244.574219 249.539062 243.636719 251.035156 242.515625 252.53125 C 242.328125 252.714844 242.328125 252.902344 242.140625 253.277344 Z M 244.761719 509.863281 C 239.152344 508.179688 233.355469 506.871094 227.183594 505.5625 C 224.753906 505.003906 222.132812 504.441406 219.703125 503.882812 C 217.085938 504.253906 214.46875 504.628906 211.851562 505.191406 C 204.746094 506.3125 198.011719 507.246094 191.65625 508.925781 C 190.160156 509.300781 187.542969 511.730469 186.980469 512.851562 C 186.980469 513.972656 186.980469 515.09375 187.167969 516.214844 C 187.355469 523.316406 187.542969 531.351562 190.90625 535.652344 C 203.0625 552.097656 220.078125 559.386719 240.460938 556.769531 C 252.050781 555.273438 263.457031 544.433594 264.582031 533.96875 C 265.140625 524.25 256.351562 513.414062 244.761719 509.863281 Z M 340.496094 389.699219 C 338.628906 362.976562 331.894531 344.289062 318.992188 328.777344 C 307.773438 315.320312 293.9375 305.789062 277.484375 300.558594 C 273.183594 299.0625 268.695312 298.316406 264.207031 298.316406 C 255.980469 298.316406 247.566406 300.558594 238.964844 305.230469 C 219.328125 315.695312 200.445312 326.535156 186.605469 344.847656 C 175.761719 359.238281 170.339844 375.121094 170.152344 393.0625 C 169.964844 413.058594 175.015625 432.308594 184.925781 450.433594 C 194.273438 467.441406 219.703125 481.644531 239.335938 480.894531 C 250.929688 480.335938 261.589844 476.972656 272.808594 473.234375 C 278.230469 471.363281 284.027344 469.496094 289.824219 468.1875 C 293.75 467.253906 297.675781 465.382812 301.042969 462.957031 C 324.976562 447.257812 337.878906 423.148438 340.496094 389.699219 Z M 387.804688 468.933594 C 392.480469 477.71875 399.773438 483.886719 407.4375 485.566406 C 413.421875 486.875 419.40625 485.566406 424.828125 481.457031 C 428.195312 478.652344 431.558594 476.035156 434.363281 473.046875 C 445.769531 459.964844 451.195312 448.191406 452.128906 434.921875 C 453.25 418.851562 449.886719 403.527344 445.585938 385.402344 L 445.398438 384.839844 L 445.398438 384.277344 C 445.398438 383.15625 445.585938 382.222656 445.585938 381.101562 C 445.769531 378.671875 445.957031 376.429688 445.769531 374.1875 C 445.398438 370.078125 444.835938 365.964844 444.089844 361.855469 C 442.964844 354.566406 442.03125 347.277344 442.03125 339.800781 C 442.03125 327.46875 437.167969 317.5625 431.933594 308.40625 C 427.257812 300.746094 418.472656 298.316406 410.804688 302.425781 L 409.308594 303.175781 L 407.8125 302.613281 C 406.878906 302.238281 405.941406 302.050781 404.820312 302.050781 C 402.765625 302.050781 400.707031 303.171875 399.023438 307.097656 C 396.59375 313.453125 394.910156 319.804688 393.601562 326.347656 C 385.933594 365.40625 381.632812 400.351562 380.140625 432.867188 C 379.953125 446.882812 382.195312 458.285156 387.804688 468.933594 Z M 456.804688 542.9375 C 454 537.519531 448.390625 534.15625 440.722656 533.222656 C 438.105469 532.847656 435.300781 532.847656 432.496094 532.847656 C 431.746094 532.847656 431 532.847656 430.25 532.847656 L 379.390625 532.847656 L 379.390625 533.035156 L 375.652344 532.847656 L 371.910156 532.847656 L 371.910156 532.660156 C 370.226562 532.660156 368.734375 532.660156 367.421875 532.847656 C 360.132812 534.34375 353.773438 535.464844 350.222656 542.003906 C 344.050781 553.21875 344.238281 563.683594 350.78125 573.585938 C 356.203125 581.808594 364.246094 585.359375 377.894531 585.546875 C 379.953125 585.546875 382.195312 585.546875 384.253906 585.546875 C 385.5625 585.546875 387.058594 585.546875 388.367188 585.546875 C 393.039062 585.546875 397.714844 585.734375 402.203125 587.042969 C 418.84375 592.089844 445.957031 582.558594 455.867188 562.933594 C 459.421875 555.835938 459.796875 548.546875 456.804688 542.9375 Z M 507.289062 213.472656 C 507.851562 214.59375 511.589844 216.273438 513.085938 217.023438 L 513.460938 217.210938 C 513.835938 217.210938 514.957031 217.023438 515.515625 217.023438 C 516.640625 216.835938 517.761719 216.648438 519.070312 216.648438 C 523.933594 216.648438 528.605469 216.648438 533.28125 216.835938 C 537.957031 216.835938 542.628906 216.835938 547.492188 216.835938 L 554.597656 216.835938 C 556.28125 209.921875 554.785156 207.867188 551.230469 206.183594 C 538.328125 200.949219 525.613281 200.390625 513.273438 204.6875 C 511.03125 205.4375 509.347656 206.558594 508.972656 207.304688 C 507.476562 210.109375 507.101562 212.722656 507.289062 213.472656 Z M 610.878906 519.394531 C 610.507812 516.214844 609.199219 513.972656 607.515625 512.851562 C 599.289062 507.992188 589.5625 502.949219 580.027344 501.453125 C 567.875 499.582031 559.085938 501.265625 551.046875 507.246094 C 544.3125 512.292969 540.574219 519.207031 540.761719 526.308594 C 540.949219 532.660156 544.5 538.265625 550.859375 542.191406 L 551.980469 542.9375 L 552.355469 544.246094 C 553.476562 547.613281 554.597656 548.359375 554.972656 548.546875 C 555.71875 548.734375 557.027344 548.546875 558.523438 547.613281 L 560.207031 546.675781 L 561.890625 547.425781 C 578.53125 555.273438 589.9375 553.21875 599.289062 540.511719 C 600.597656 538.640625 602.464844 537.332031 603.960938 536.023438 C 605.085938 535.277344 606.019531 534.53125 606.765625 533.59375 C 609.945312 530.605469 611.628906 524.625 610.878906 519.394531 Z M 639.304688 395.679688 C 634.816406 343.726562 612.375 325.785156 595.921875 317.003906 C 586.011719 311.582031 575.726562 308.78125 565.816406 308.78125 C 556.65625 308.78125 547.679688 311.023438 538.890625 315.695312 C 516.265625 327.65625 502.429688 346.902344 496.445312 374.375 C 492.144531 395.679688 491.957031 412.496094 496.257812 429.128906 C 502.429688 452.675781 517.574219 468.375 541.132812 475.851562 C 564.320312 483.136719 585.636719 479.960938 604.148438 466.507812 C 627.523438 449.5 638.742188 426.886719 639.304688 395.679688 Z M 782.160156 450.246094 C 775.804688 449.6875 771.875 446.136719 770.566406 439.78125 C 768.324219 428.757812 761.78125 421.65625 751.496094 419.226562 L 748.128906 418.476562 L 747.007812 421.84375 C 746.445312 423.710938 745.886719 425.394531 745.511719 427.261719 C 744.578125 431 743.640625 434.363281 742.144531 437.539062 C 740.648438 440.902344 738.40625 443.144531 735.976562 443.519531 C 734.292969 443.894531 732.421875 443.332031 730.738281 442.023438 C 731.675781 440.15625 732.796875 438.289062 733.730469 436.605469 C 738.40625 428.195312 737.285156 422.777344 735.601562 419.597656 C 733.917969 416.609375 729.992188 412.871094 720.828125 412.496094 C 717.835938 412.3125 715.03125 411.75 711.855469 411.191406 C 710.171875 410.816406 708.488281 410.441406 706.804688 410.253906 L 703.066406 409.695312 L 698.203125 450.808594 C 697.457031 452.304688 697.082031 453.609375 696.707031 454.917969 L 696.707031 455.292969 C 696.519531 456.414062 696.332031 457.722656 696.148438 458.65625 C 695.960938 459.21875 695.773438 459.777344 695.585938 460.339844 C 695.398438 461.085938 695.023438 461.832031 694.839844 462.582031 L 694.652344 463.140625 C 693.902344 469.496094 696.335938 474.355469 701.757812 477.53125 C 703.066406 478.277344 704.5625 479.214844 705.871094 479.960938 C 708.488281 481.457031 711.105469 483.136719 713.910156 484.445312 C 721.203125 488.183594 729.058594 489.867188 737.097656 489.867188 C 744.015625 489.867188 751.121094 488.371094 757.664062 485.566406 C 771.316406 479.773438 781.414062 468.5625 785.714844 454.917969 L 787.023438 450.433594 Z M 782.160156 450.246094 "/>
<path style=" stroke:none;fill-rule:nonzero;fill:rgb(58.81958%,50.979614%,86.268616%);fill-opacity:1;" d="M 471.386719 234.027344 L 470.265625 237.019531 L 467.085938 236.269531 C 457.550781 234.027344 451.378906 227.488281 445.769531 221.695312 C 444.648438 220.574219 443.714844 219.453125 442.59375 218.519531 C 437.355469 213.097656 433.804688 211.601562 428.941406 213.285156 C 424.640625 214.78125 423.144531 217.957031 423.144531 224.871094 C 422.957031 227.863281 422.585938 230.476562 422.023438 233.09375 C 421.648438 234.964844 421.277344 237.019531 420.902344 239.261719 L 419.96875 245.800781 L 414.730469 241.691406 C 410.617188 238.328125 406.503906 235.148438 402.390625 232.160156 C 393.414062 225.246094 385 218.703125 377.519531 211.417969 C 356.765625 191.421875 349.660156 170.488281 355.832031 147.503906 C 359.195312 134.234375 364.804688 129.75 378.644531 128.816406 C 383.128906 128.628906 387.804688 128.066406 392.292969 127.507812 C 399.773438 126.761719 407.625 125.824219 415.292969 126.011719 C 422.957031 126.011719 430.8125 127.132812 438.292969 128.253906 C 442.03125 128.816406 445.769531 129.375 449.511719 129.75 L 451.195312 129.9375 L 452.128906 131.433594 C 471.574219 161.519531 487.28125 194.785156 471.386719 234.027344 Z M 471.386719 234.027344 "/>
<path style=" stroke:none;fill-rule:nonzero;fill:rgb(98.039246%,60.778809%,45.098877%);fill-opacity:1;" d="M 73.292969 389.511719 C 79.277344 400.539062 79.652344 410.816406 74.414062 420.71875 L 74.039062 421.09375 C 72.171875 422.964844 70.113281 424.832031 68.246094 426.699219 C 66.375 428.570312 64.316406 430.4375 62.449219 432.308594 L 61.886719 432.867188 L 61.140625 432.867188 C 52.910156 432.679688 50.667969 438.472656 48.050781 445.203125 L 47.488281 446.695312 C 43.9375 455.292969 39.820312 460.152344 34.585938 461.835938 C 33.089844 462.394531 31.40625 462.582031 29.726562 462.582031 C 25.609375 462.582031 20.75 461.085938 15.328125 457.910156 L 14.578125 457.535156 L 14.390625 456.789062 C 10.839844 439.222656 15.886719 424.085938 29.726562 411.5625 C 39.449219 402.40625 53.097656 391.566406 71.234375 388.578125 L 72.546875 388.390625 Z M 786.835938 411.003906 C 777.484375 386.335938 761.03125 377.550781 736.722656 384.09375 L 735.601562 384.464844 L 735.414062 385.585938 C 735.039062 387.828125 734.480469 390.257812 733.917969 392.503906 C 733.355469 394.746094 732.796875 397.175781 732.421875 399.417969 L 732.046875 401.285156 L 733.917969 401.660156 C 743.828125 403.714844 745.699219 411.191406 747.941406 419.785156 C 748.316406 420.90625 748.503906 422.027344 748.878906 423.148438 L 749.25 424.269531 L 750.375 424.457031 C 758.601562 426.515625 763.273438 431.746094 765.332031 440.714844 C 767.203125 449.6875 773 454.917969 781.972656 455.667969 L 783.097656 455.855469 L 783.65625 454.734375 C 791.695312 440.53125 792.820312 426.140625 786.835938 411.003906 Z M 449.511719 361.105469 C 448.574219 354.003906 447.453125 346.902344 447.453125 339.800781 C 447.453125 326.160156 441.84375 314.945312 436.609375 305.601562 C 430.625 295.136719 418.65625 291.585938 408.1875 297.378906 L 406.128906 298.5 L 407.8125 300.183594 C 411.738281 304.296875 411.925781 309.152344 410.617188 315.507812 C 409.308594 322.796875 408 329.898438 406.503906 337.1875 C 403.136719 354.9375 399.585938 373.253906 396.78125 391.195312 C 394.164062 408.011719 392.480469 423.148438 391.542969 437.539062 C 390.609375 452.304688 394.910156 463.703125 404.074219 471.179688 C 405.382812 472.300781 407.066406 473.046875 408.5625 473.792969 C 409.121094 474.167969 409.871094 474.355469 410.429688 474.730469 L 411.367188 475.289062 L 412.300781 474.730469 C 428.753906 465.945312 437.730469 452.488281 438.851562 434.363281 C 439.226562 427.074219 439.039062 419.785156 438.851562 412.683594 C 438.664062 407.824219 438.480469 402.78125 438.664062 397.734375 C 438.664062 396.800781 438.664062 396.050781 438.664062 395.117188 C 438.480469 389.886719 438.292969 385.402344 443.339844 381.851562 C 443.902344 382.410156 444.648438 382.785156 445.210938 383.34375 C 446.144531 384.09375 447.078125 384.839844 448.015625 385.585938 L 450.820312 387.828125 L 451.007812 384.277344 C 451.007812 383.34375 451.195312 382.222656 451.195312 381.289062 C 451.378906 378.671875 451.566406 376.054688 451.378906 373.441406 C 450.820312 369.328125 450.070312 365.21875 449.511719 361.105469 Z M 270.003906 534.902344 C 268.695312 548.171875 255.605469 561.066406 241.019531 562.75 C 238.027344 563.121094 235.222656 563.308594 232.417969 563.308594 C 213.71875 563.308594 198.011719 555.085938 186.421875 539.390625 C 182.121094 533.59375 181.746094 524.625 181.558594 516.589844 C 181.558594 515.46875 181.558594 514.160156 181.371094 513.039062 C 181.183594 509.488281 186.792969 504.628906 190.347656 503.695312 C 197.640625 501.824219 205.304688 500.519531 213.160156 499.398438 C 215.402344 499.023438 217.648438 498.648438 219.890625 498.273438 L 220.265625 498.273438 L 220.640625 498.460938 C 224.003906 499.398438 227.558594 500.144531 230.921875 500.890625 C 236.160156 502.011719 241.394531 503.320312 246.628906 504.816406 C 260.652344 508.925781 271.125 522.195312 270.003906 534.902344 Z M 241.769531 530.417969 C 241.394531 530.417969 240.832031 530.417969 240.460938 530.417969 C 237.65625 530.417969 235.222656 531.351562 233.355469 532.847656 C 230.734375 535.089844 229.613281 539.015625 229.800781 543.5 C 229.988281 545.183594 231.109375 547.613281 231.671875 547.984375 C 233.355469 548.546875 236.34375 547.984375 237.839844 546.863281 C 242.328125 543.3125 243.453125 538.082031 241.769531 530.417969 Z M 206.425781 535.652344 C 207.550781 537.894531 209.792969 539.574219 212.410156 540.136719 C 213.71875 538.828125 215.027344 537.332031 216.339844 536.023438 C 219.515625 532.660156 222.882812 529.109375 225.6875 525.1875 C 226.621094 524.066406 226.621094 519.765625 226.0625 518.644531 C 224.566406 517.898438 222.695312 517.523438 221.011719 517.523438 C 219.703125 517.523438 218.394531 517.710938 217.832031 518.269531 C 214.09375 521.074219 210.355469 525.371094 206.800781 530.792969 C 205.304688 532.660156 205.867188 534.714844 206.425781 535.652344 Z M 616.304688 518.457031 C 617.238281 525.371094 615.179688 533.035156 610.878906 537.519531 C 609.757812 538.640625 608.636719 539.574219 607.328125 540.511719 C 606.019531 541.632812 604.523438 542.566406 603.773438 543.875 C 597.042969 553.03125 588.816406 557.703125 579.09375 557.703125 C 573.109375 557.703125 566.566406 556.019531 559.460938 552.46875 L 558.152344 551.910156 L 558.335938 550.414062 C 558.523438 548.917969 558.898438 547.425781 559.273438 545.929688 C 560.207031 542.191406 560.957031 538.453125 560.582031 535.277344 C 560.394531 533.59375 556.28125 530.042969 553.664062 529.671875 C 552.539062 529.484375 551.605469 529.859375 550.671875 530.417969 C 549.363281 531.539062 548.613281 533.96875 548.613281 536.585938 C 548.613281 538.453125 549.175781 540.511719 549.734375 542.566406 C 549.921875 543.3125 550.109375 544.246094 550.484375 544.996094 L 551.605469 549.480469 L 547.679688 547.050781 C 539.824219 542.003906 535.339844 534.902344 534.964844 526.492188 C 534.589844 517.523438 539.265625 508.925781 547.492188 502.761719 C 559.460938 493.789062 572.175781 494.539062 580.777344 495.847656 C 591.246094 497.339844 601.53125 502.761719 610.132812 507.804688 C 613.5 509.675781 615.554688 513.414062 616.304688 518.457031 Z M 569.371094 530.230469 C 570.117188 535.277344 573.296875 538.828125 578.90625 540.695312 C 581.898438 537.519531 583.207031 533.78125 582.644531 530.605469 C 582.085938 527.800781 580.214844 525.558594 577.410156 524.25 C 576.664062 523.878906 575.539062 523.691406 574.417969 523.691406 C 573.109375 523.691406 571.800781 523.878906 571.238281 524.4375 C 570.117188 525.1875 568.996094 528.175781 569.371094 530.230469 Z M 569.371094 530.230469 "/>
<path style=" stroke:none;fill-rule:nonzero;fill:rgb(23.529053%,31.369019%,74.508667%);fill-opacity:1;" d="M 810.023438 429.691406 C 809.273438 431.371094 808.152344 433.054688 808.152344 434.921875 C 807.777344 454.171875 798.804688 469.683594 786.648438 483.511719 C 779.917969 491.175781 773.183594 498.273438 763.089844 502.574219 C 741.210938 511.917969 721.765625 506.683594 703.066406 495.097656 C 700.820312 493.789062 698.765625 491.921875 696.519531 490.613281 C 695.773438 490.050781 694.652344 489.867188 693.527344 489.304688 C 663.609375 568.914062 611.816406 628.902344 534.027344 664.785156 C 455.679688 700.851562 375.277344 702.535156 294.6875 673.195312 C 213.90625 643.667969 156.875 587.417969 122.65625 510.234375 C 112.746094 514.535156 103.773438 520.140625 94.234375 522.195312 C 75.164062 526.492188 55.15625 526.867188 37.578125 517.523438 C 23.554688 510.234375 12.335938 498.835938 5.042969 484.074219 C 0.179688 473.980469 -5.054688 464.449219 -5.429688 453.050781 C -5.988281 432.121094 -0.753906 413.433594 15.886719 399.601562 C 24.675781 392.316406 34.210938 385.585938 43.75 379.046875 C 58.519531 368.769531 75.164062 368.207031 92.179688 370.824219 C 95.355469 371.382812 98.347656 372.320312 102.277344 373.253906 C 104.519531 363.347656 106.203125 354.378906 108.632812 345.59375 C 113.308594 327.84375 116.859375 309.527344 123.78125 292.523438 C 133.503906 268.789062 146.59375 246.550781 163.046875 226.742188 C 184.175781 201.324219 208.484375 179.273438 236.71875 161.519531 C 259.90625 146.757812 284.402344 134.984375 310.578125 126.761719 C 320.304688 123.769531 329.464844 118.910156 339.375 116.855469 C 367.238281 110.6875 395.285156 107.136719 423.707031 110.6875 C 440.347656 112.746094 456.992188 113.492188 473.445312 116.109375 C 482.792969 117.601562 491.582031 122.089844 500.933594 124.519531 C 522.4375 130.3125 542.257812 140.402344 561.703125 150.867188 C 580.214844 160.960938 597.042969 173.667969 612.9375 187.683594 C 628.457031 201.324219 641.921875 216.089844 652.953125 233.46875 C 659.683594 243.933594 668.097656 253.464844 673.707031 264.488281 C 681 278.691406 686.984375 293.828125 692.03125 308.96875 C 697.082031 323.917969 700.449219 339.429688 704.1875 354.753906 C 705.683594 361.105469 705.871094 367.648438 706.804688 374 C 718.398438 371.199219 729.054688 367.832031 739.902344 365.964844 C 767.574219 361.480469 785.152344 371.011719 799.175781 393.808594 C 804.039062 401.660156 804.972656 411.75 807.777344 420.71875 C 808.339844 422.402344 809.085938 424.085938 809.835938 425.578125 C 810.023438 427.074219 810.023438 428.382812 810.023438 429.691406 Z M 706.617188 403.339844 C 706.429688 406.703125 706.429688 410.253906 706.242188 413.621094 C 704.75 426.328125 703.253906 438.847656 701.757812 451.554688 C 701.382812 452.863281 700.820312 454.171875 700.449219 455.480469 C 700.261719 456.789062 700.074219 458.097656 699.699219 459.40625 C 699.324219 460.710938 698.765625 462.019531 698.390625 463.328125 C 697.828125 468 699.324219 471.550781 703.625 473.980469 C 707.554688 476.222656 711.480469 478.839844 715.59375 480.894531 C 741.585938 493.976562 773.746094 480.707031 781.972656 453.796875 C 789.828125 440.34375 791.136719 426.515625 785.527344 411.5625 C 776.738281 388.390625 761.964844 379.234375 737.65625 385.773438 C 734.667969 385.960938 731.675781 385.773438 728.871094 386.148438 C 716.339844 388.203125 708.300781 394.558594 706.617188 403.339844 Z M 72.730469 419.972656 C 82.082031 419.414062 91.429688 418.664062 101.527344 417.917969 C 101.527344 410.628906 101.527344 402.03125 101.527344 393.0625 C 91.804688 388.578125 81.707031 389.324219 71.609375 390.445312 C 55.34375 393.0625 42.441406 402.21875 30.847656 413.058594 C 18.132812 424.832031 12.710938 439.410156 16.074219 456.601562 C 14.765625 465.570312 21.308594 471.550781 25.238281 477.90625 C 32.15625 488.746094 42.253906 498.460938 54.78125 501.453125 C 77.21875 506.683594 98.164062 502.949219 113.496094 483.886719 C 109.941406 468.75 106.390625 453.796875 102.835938 438.472656 C 91.429688 434.175781 86.195312 435.296875 79.652344 444.828125 C 82.269531 449.3125 85.632812 454.171875 88.25 459.40625 C 89.5625 462.019531 90.683594 466.132812 89.5625 468.375 C 88.4375 470.804688 84.511719 473.234375 81.707031 473.234375 C 77.96875 473.234375 73.292969 471.738281 71.050781 469.121094 C 61.886719 458.285156 54.40625 446.511719 60.953125 431.371094 C 65.066406 427.449219 68.804688 423.710938 72.730469 419.972656 Z M 134.25 482.578125 C 135 487.996094 137.429688 493.601562 139.488281 498.273438 C 149.957031 521.820312 161.925781 544.433594 177.820312 564.992188 C 201.566406 595.824219 231.484375 619.1875 264.953125 637.3125 C 288.328125 649.835938 313.199219 660.859375 340.308594 664.035156 C 360.316406 666.464844 380.324219 668.707031 400.332031 670.203125 C 408.746094 670.765625 417.535156 669.832031 426.136719 668.523438 C 446.519531 665.160156 467.648438 663.101562 487.28125 656.933594 C 507.851562 650.394531 527.296875 639.742188 547.117188 630.960938 C 551.605469 628.902344 556.46875 627.222656 560.207031 624.230469 C 576.847656 610.777344 593.679688 597.320312 609.386719 582.929688 C 618.171875 574.707031 625.652344 564.992188 632.945312 555.273438 C 638.929688 547.425781 643.230469 538.265625 649.027344 530.230469 C 668.097656 503.132812 676.886719 471.925781 682.121094 439.78125 C 684.925781 422.589844 684.367188 404.835938 684.742188 387.457031 C 685.113281 366.898438 681.9375 346.714844 675.203125 327.28125 C 669.96875 312.332031 663.984375 297.753906 657.441406 283.363281 C 653.140625 273.832031 648.839844 263.929688 642.292969 255.894531 C 632.382812 243.746094 624.15625 230.476562 613.125 218.890625 C 593.117188 197.773438 570.867188 179.832031 545.433594 166.003906 C 530.476562 157.78125 514.207031 152.175781 498.128906 146.007812 C 490.835938 142.832031 482.046875 141.148438 473.445312 138.71875 C 473.070312 138.347656 472.699219 137.972656 472.136719 137.597656 C 472.136719 137.597656 471.761719 137.972656 471.386719 138.160156 C 471.761719 138.535156 472.324219 138.90625 472.699219 139.28125 C 472.699219 139.839844 472.511719 140.777344 472.882812 141.148438 C 485.972656 162.265625 494.015625 184.878906 490.835938 210.109375 C 489.152344 223.375 487.09375 237.019531 478.121094 248.042969 C 471.574219 256.082031 465.21875 257.015625 456.804688 250.660156 C 449.886719 245.429688 443.152344 240.007812 435.488281 234.027344 C 434.550781 237.765625 433.804688 240.570312 433.242188 243.558594 C 430.25 257.761719 418.285156 262.433594 407.4375 252.902344 C 390.609375 238.140625 372.097656 225.433594 357.511719 207.867188 C 341.433594 188.429688 335.074219 160.398438 347.042969 136.105469 C 334.699219 138.71875 323.292969 139.839844 312.636719 143.578125 C 297.117188 149 282.15625 156.101562 267.386719 163.015625 C 245.320312 173.292969 226.25 188.429688 208.859375 205.0625 C 191.84375 221.507812 176.136719 239.074219 163.792969 259.816406 C 149.957031 282.992188 137.804688 306.539062 130.886719 332.699219 C 128.453125 342.042969 124.902344 351.203125 123.964844 360.546875 C 120.976562 390.074219 119.480469 419.972656 125.648438 449.3125 C 125.648438 449.3125 133.691406 479.773438 134.25 482.578125 Z M 417.164062 238.886719 C 418.097656 233.28125 419.21875 229.167969 419.21875 225.058594 C 419.21875 218.332031 420.527344 212.351562 427.632812 209.921875 C 434.925781 207.492188 439.789062 210.855469 445.023438 216.089844 C 451.566406 222.628906 457.550781 230.476562 467.648438 232.90625 C 482.980469 195.34375 468.582031 164.136719 449.136719 133.675781 C 437.355469 132.367188 426.324219 130.125 415.292969 129.9375 C 403.136719 129.9375 390.984375 131.992188 378.828125 132.742188 C 366.300781 133.488281 362.5625 137.039062 359.382812 148.625 C 352.839844 173.480469 363.308594 192.542969 380.140625 208.988281 C 390.984375 219.265625 403.511719 228.046875 417.164062 238.886719 Z M 706.617188 403.339844 C 706.429688 406.703125 706.429688 410.253906 706.242188 413.621094 C 711.105469 414.367188 715.78125 415.675781 720.640625 415.863281 C 732.609375 416.234375 736.722656 423.523438 730.367188 434.363281 C 728.683594 437.164062 727.375 439.96875 725.878906 442.585938 C 732.796875 449.5 741.398438 447.632812 745.511719 438.660156 C 747.753906 433.617188 748.878906 428.007812 750.558594 422.589844 C 747.941406 413.058594 746.820312 402.40625 734.292969 399.789062 C 724.941406 401.097656 715.78125 402.21875 706.617188 403.339844 Z M 700.261719 455.667969 C 700.632812 454.359375 701.195312 453.050781 701.570312 451.742188 C 701.195312 452.863281 700.632812 454.171875 700.261719 455.667969 Z M 699.511719 459.589844 C 699.136719 460.898438 698.578125 462.207031 698.203125 463.515625 C 698.765625 462.207031 699.136719 460.898438 699.511719 459.589844 Z M 344.238281 389.699219 C 341.804688 420.535156 330.773438 447.816406 303.101562 466.132812 C 299.359375 468.5625 295.058594 470.804688 290.570312 471.925781 C 273.554688 476.410156 257.664062 484.257812 239.335938 484.820312 C 219.144531 485.566406 192.03125 471.363281 181.558594 452.488281 C 171.273438 433.988281 166.039062 414.179688 166.226562 393.25 C 166.414062 374.75 172.023438 358.117188 183.429688 342.792969 C 197.640625 323.917969 217.085938 312.703125 237.09375 302.050781 C 250.371094 294.949219 264.582031 292.523438 278.605469 297.007812 C 295.621094 302.613281 310.019531 312.332031 321.796875 326.347656 C 337.132812 344.847656 342.554688 365.964844 344.238281 389.699219 Z M 240.644531 467.628906 C 251.304688 469.683594 262.148438 462.019531 274.117188 458.84375 C 308.523438 449.6875 322.359375 422.402344 324.976562 393.0625 C 327.035156 368.957031 317.683594 347.277344 299.359375 331.019531 C 287.953125 321.113281 274.492188 313.078125 257.847656 316.441406 C 239.335938 319.992188 222.695312 327.28125 207.921875 339.429688 C 195.582031 349.519531 188.476562 362.976562 184.925781 377.738281 C 179.6875 398.855469 183.429688 419.414062 192.214844 439.410156 C 201.191406 459.589844 216.898438 467.441406 240.644531 467.628906 Z M 643.042969 395.492188 C 642.480469 427.820312 630.703125 451.554688 606.207031 469.308594 C 585.636719 484.257812 563.011719 486.503906 539.824219 479.214844 C 515.703125 471.738281 499.25 455.480469 492.519531 429.878906 C 487.46875 410.816406 488.589844 392.503906 492.703125 373.441406 C 498.5 346.15625 512.339844 325.226562 537.019531 312.144531 C 557.402344 301.304688 578.53125 303.175781 597.605469 313.453125 C 630.515625 331.578125 640.238281 363.160156 643.042969 395.492188 Z M 625.464844 400.351562 C 625.652344 372.320312 614.996094 353.257812 599.101562 337 C 587.882812 325.414062 572.734375 322.046875 557.214844 323.167969 C 534.027344 324.664062 522.4375 341.296875 515.515625 360.359375 C 507.664062 381.851562 505.421875 404.648438 513.085938 427.074219 C 514.207031 430.4375 515.515625 433.988281 517.386719 436.792969 C 529.355469 454.359375 545.996094 461.273438 567.3125 459.964844 C 601.90625 457.910156 625.652344 429.878906 625.464844 400.351562 Z M 395.84375 305.976562 C 393.414062 312.519531 391.546875 319.058594 390.234375 325.785156 C 383.316406 361.105469 378.269531 396.800781 376.773438 432.867188 C 376.210938 446.511719 378.269531 458.84375 384.441406 470.617188 C 393.414062 487.625 411.738281 496.03125 427.074219 484.445312 C 430.625 481.644531 434.179688 478.839844 437.167969 475.476562 C 447.265625 463.890625 454.746094 451.367188 455.867188 435.109375 C 456.992188 417.730469 453.25 401.097656 449.324219 384.464844 C 447.265625 382.972656 445.210938 381.289062 443.527344 379.980469 C 435.488281 384.464844 437.167969 391.753906 436.984375 398.109375 C 436.796875 410.253906 437.917969 422.589844 437.167969 434.550781 C 436.046875 451.929688 427.445312 464.824219 411.550781 473.421875 C 409.496094 472.300781 407.25 471.363281 405.570312 470.054688 C 395.285156 461.648438 392.855469 450.0625 393.601562 437.914062 C 394.535156 422.402344 396.21875 407.078125 398.835938 391.753906 C 402.953125 366.339844 408 341.296875 412.675781 316.070312 C 413.796875 310.089844 414.171875 304.109375 409.496094 299.25 C 402.390625 296.820312 397.902344 299.996094 395.84375 305.976562 Z M 375.839844 529.109375 C 393.976562 529.109375 412.113281 529.109375 430.0625 529.109375 C 433.617188 529.109375 437.355469 528.921875 440.910156 529.484375 C 460.542969 532.101562 466.902344 548.917969 458.859375 564.617188 C 448.574219 585.359375 419.78125 596.199219 400.894531 590.59375 C 393.601562 588.351562 385.375 589.285156 377.519531 589.285156 C 365.554688 589.097656 354.523438 586.667969 347.414062 575.644531 C 339.75 563.871094 339.9375 552.285156 346.667969 540.136719 C 351.15625 532.289062 358.820312 530.605469 366.488281 529.109375 C 369.855469 528.550781 372.847656 528.921875 375.839844 529.109375 C 375.839844 528.921875 375.839844 529.109375 375.839844 529.109375 Z M 415.480469 575.457031 C 425.390625 572.464844 437.167969 573.773438 442.964844 562.375 C 444.648438 559.011719 446.894531 554.527344 445.769531 551.910156 C 444.089844 547.613281 439.414062 547.425781 434.738281 548.734375 C 430.0625 550.039062 424.828125 551.347656 420.152344 550.976562 C 404.261719 549.667969 388.367188 547.238281 372.472656 546.117188 C 368.917969 545.929688 363.683594 547.796875 361.628906 550.601562 C 359.570312 553.40625 359.195312 559.570312 361.066406 562.1875 C 363.871094 566.484375 368.917969 570.972656 373.59375 571.90625 C 384.625 574.148438 396.21875 574.335938 407.625 575.457031 Z M 552.726562 202.632812 C 539.453125 197.214844 525.800781 196.277344 512.152344 200.949219 C 509.722656 201.699219 506.914062 203.195312 505.792969 205.25 C 504.296875 208.050781 502.800781 212.351562 503.925781 214.96875 C 505.046875 217.582031 509.160156 219.265625 512.152344 220.574219 C 514.019531 221.320312 516.640625 220.199219 519.070312 220.199219 C 528.605469 220.199219 537.957031 220.386719 547.492188 220.386719 C 550.671875 220.386719 553.851562 220.386719 557.402344 220.386719 C 560.019531 211.976562 560.207031 205.808594 552.726562 202.632812 Z M 255.417969 257.574219 C 268.882812 251.222656 282.53125 245.800781 297.675781 246.175781 C 302.539062 237.953125 298.800781 231.039062 289.636719 230.476562 C 272.246094 229.542969 257.664062 237.207031 243.453125 245.613281 C 240.832031 247.109375 239.335938 250.472656 237.28125 253.277344 C 244.199219 261.3125 246.441406 261.6875 255.417969 257.574219 Z M 560.207031 550.976562 C 561.140625 545.554688 563.199219 540.136719 562.449219 535.089844 C 562.078125 532.289062 557.027344 528.175781 553.851562 527.988281 C 548.988281 527.429688 546.746094 532.101562 546.746094 536.773438 C 546.746094 539.574219 547.867188 542.566406 548.425781 545.367188 C 550.484375 551.160156 553.476562 554.710938 560.207031 550.976562 Z M 227.183594 526.492188 C 228.679688 524.25 228.492188 517.898438 227.183594 517.335938 C 224.191406 515.84375 218.957031 515.28125 216.710938 516.964844 C 212.039062 520.328125 208.109375 525.1875 205.117188 530.042969 C 202.128906 534.902344 206.613281 541.445312 213.347656 542.566406 C 217.832031 537.144531 223.070312 532.289062 227.183594 526.492188 Z M 227.929688 543.875 C 228.117188 546.117188 229.613281 549.480469 231.109375 550.039062 C 233.355469 550.789062 237.09375 550.039062 238.964844 548.546875 C 244.945312 543.5 245.320312 536.773438 243.449219 528.921875 C 233.726562 527.429688 227.371094 533.59375 227.929688 543.875 Z M 578.15625 522.382812 C 575.914062 521.449219 571.800781 521.449219 570.117188 522.757812 C 568.246094 524.066406 567.125 527.988281 567.5 530.417969 C 568.433594 536.773438 572.734375 540.695312 579.652344 542.753906 C 586.945312 535.652344 586.199219 525.933594 578.15625 522.382812 Z M 269.441406 358.117188 C 259.90625 357.742188 252.238281 364.285156 251.679688 373.066406 C 251.304688 380.542969 258.410156 388.203125 265.703125 388.203125 C 275.988281 388.203125 282.53125 382.035156 282.71875 371.945312 C 282.71875 366.152344 275.238281 358.304688 269.441406 358.117188 Z M 558.152344 384.464844 C 558.152344 390.632812 564.882812 397.359375 570.867188 396.988281 C 577.222656 396.613281 582.644531 390.074219 582.644531 382.410156 C 582.644531 375.871094 578.90625 372.132812 572.363281 372.320312 C 565.070312 372.507812 558.152344 378.300781 558.152344 384.464844 Z M 558.152344 384.464844 "/>
</g>
</svg>
