<?xml version="1.0" encoding="UTF-8"?>
<svg xmlns="http://www.w3.org/2000/svg" xmlns:xlink="http://www.w3.org/1999/xlink" width="810pt" height="809.999993pt" viewBox="0 0 810 809.999993" version="1.2">
<g id="surface1">
<path style=" stroke:none;fill-rule:nonzero;fill:rgb(100%,100%,100%);fill-opacity:1;" d="M 755.066406 477.460938 C 752.558594 488.847656 747.542969 499.847656 744.652344 511.230469 C 742.914062 517.792969 741.371094 525.125 742.53125 531.878906 C 748.121094 566.226562 733.660156 591.699219 707.816406 611.769531 C 697.597656 619.683594 684.675781 621.226562 671.753906 618.523438 C 668.285156 617.753906 664.621094 617.558594 662.304688 617.171875 C 654.207031 636.46875 648.226562 654.609375 639.164062 671.011719 C 626.050781 694.363281 611.394531 716.941406 591.339844 735.464844 C 587.675781 738.9375 584.203125 742.796875 580.730469 746.464844 C 566.269531 762.09375 548.140625 772.324219 530.398438 783.320312 C 511.5 795.09375 491.445312 802.234375 469.652344 805.320312 C 442.074219 809.179688 414.691406 809.757812 386.730469 809.179688 C 362.042969 808.601562 338.515625 804.550781 314.992188 798.566406 C 297.054688 793.9375 280.664062 785.445312 265.621094 774.445312 C 259.449219 769.8125 253.085938 765.375 246.53125 761.324219 C 229.175781 750.710938 215.289062 736.238281 204.875 719.0625 C 193.304688 700.152344 183.855469 680.273438 173.828125 660.59375 C 169.96875 653.066406 167.464844 644.960938 163.992188 635.890625 C 160.519531 636.855469 157.433594 637.433594 154.542969 638.59375 C 135.644531 646.890625 118.09375 643.996094 101.316406 632.804688 C 78.945312 617.945312 70.460938 595.753906 67.375 570.28125 C 65.640625 556.386719 63.710938 542.6875 57.539062 529.5625 C 48.285156 509.300781 47.128906 487.882812 50.597656 465.691406 C 55.035156 437.128906 89.9375 414.746094 115.203125 418.605469 C 122.335938 419.570312 129.664062 420.921875 138.34375 422.464844 C 138.921875 415.515625 140.464844 408.378906 140.078125 401.429688 C 139.308594 372.292969 142.972656 343.539062 147.023438 314.785156 C 151.070312 285.839844 157.433594 257.472656 164.761719 229.296875 C 171.511719 202.863281 183.277344 178.546875 199.089844 156.742188 C 216.058594 133.199219 233.222656 109.65625 252.894531 88.429688 C 266.972656 73.183594 284.714844 61.027344 301.875 49.253906 C 329.066406 30.539062 358.765625 16.835938 390.777344 8.34375 C 419.898438 0.625 448.441406 2.941406 476.789062 12.589844 C 505.136719 22.238281 530.59375 37.675781 552.769531 56.972656 C 574.175781 75.691406 593.84375 96.535156 609.273438 121.234375 C 621.617188 141.109375 633.1875 160.988281 641.671875 182.792969 C 652.664062 211.160156 657.675781 241.070312 663.847656 270.59375 C 673.296875 314.785156 677.539062 359.554688 680.046875 406.253906 C 683.710938 405.289062 687.183594 404.132812 690.460938 403.359375 C 720.546875 395.832031 742.53125 403.554688 755.644531 434.8125 C 762.394531 449.289062 758.148438 463.375 755.066406 477.460938 Z M 755.066406 477.460938 "/>
<path style=" stroke:none;fill-rule:nonzero;fill:rgb(98.039246%,60.778809%,45.098877%);fill-opacity:1;" d="M 310.363281 107.726562 C 310.746094 113.324219 310.941406 118.726562 312.484375 123.9375 C 315.183594 133.390625 319.039062 143.039062 324.632812 155.390625 C 337.554688 183.757812 357.03125 209.421875 382.871094 232 C 402.542969 249.175781 429.15625 270.789062 460.011719 286.996094 C 490.867188 303.015625 525.769531 321.152344 563.375 330.417969 C 582.082031 334.855469 600.980469 336.011719 619.6875 336.011719 C 628.558594 336.011719 637.429688 335.820312 646.105469 335.433594 L 655.941406 335.242188 L 655.75 331.1875 C 653.820312 300.890625 639.164062 230.457031 632.992188 221.964844 L 632.027344 220.613281 L 630.292969 220.421875 C 519.792969 205.757812 416.8125 164.847656 315.761719 95.761719 L 308.820312 91.128906 L 309.785156 99.429688 C 310.167969 102.128906 310.363281 105.023438 310.363281 107.726562 Z M 526.929688 284.488281 C 515.550781 273.488281 502.628906 275.03125 492.410156 277.542969 C 490.671875 278.121094 487.585938 277.542969 484.308594 276.191406 C 483.152344 275.613281 482.960938 275.226562 482.960938 275.03125 C 482.960938 274.839844 482.960938 274.261719 483.921875 273.296875 C 488.359375 268.277344 498 265.964844 508.609375 267.507812 C 519.019531 269.050781 527.507812 273.875 530.207031 279.859375 C 530.398438 280.4375 530.785156 281.015625 530.976562 281.789062 C 531.171875 282.171875 531.171875 282.367188 531.363281 282.753906 C 531.171875 282.945312 531.171875 283.332031 530.976562 283.523438 C 530.785156 283.71875 530.785156 284.101562 530.59375 284.488281 C 529.050781 284.683594 527.507812 284.683594 526.929688 284.488281 Z M 317.691406 88.429688 L 315.570312 86.691406 L 316.53125 83.992188 C 317.304688 81.480469 318.269531 78.972656 319.039062 76.464844 C 322.898438 63.726562 326.945312 50.605469 341.796875 41.921875 C 358.378906 32.082031 376.507812 25.90625 397.144531 22.816406 C 427.804688 18.1875 452.296875 20.308594 474.28125 29.378906 C 492.410156 36.710938 513.042969 45.78125 530.011719 61.21875 C 534.0625 64.886719 538.691406 68.554688 543.128906 71.832031 C 550.070312 77.238281 557.203125 82.640625 563.183594 89.394531 C 578.03125 106.375 591.53125 124.515625 603.296875 142.847656 C 616.988281 164.074219 625.664062 184.144531 630.679688 205.5625 L 631.835938 210.582031 L 626.628906 210.195312 C 571.476562 206.527344 522.105469 190.703125 464.832031 168.125 C 422.210938 151.53125 367.636719 127.410156 317.691406 88.429688 Z M 659.414062 367.46875 L 656.90625 368.625 C 652.085938 370.746094 647.265625 372.675781 642.25 374.800781 C 638.199219 376.535156 634.34375 378.082031 630.292969 379.816406 C 611.394531 387.730469 591.722656 391.78125 571.28125 391.78125 C 565.113281 391.78125 558.746094 391.394531 552.382812 390.625 C 523.070312 387.148438 491.828125 382.519531 462.132812 369.011719 C 438.21875 358.398438 416.621094 345.46875 397.527344 330.996094 C 387.113281 322.890625 377.472656 313.433594 368.410156 304.363281 C 364.9375 300.890625 361.273438 297.226562 357.609375 293.75 C 336.78125 273.875 320.582031 251.296875 309.011719 226.597656 C 302.839844 213.28125 301.105469 202.089844 303.226562 190.316406 C 304.769531 182.019531 304.382812 173.335938 304 164.074219 C 303.804688 160.214844 303.613281 156.164062 303.613281 152.304688 C 303.613281 148.058594 303.613281 143.617188 304.382812 138.988281 L 306.699219 126.058594 L 311.710938 138.214844 C 326.367188 172.949219 346.808594 202.667969 372.457031 226.597656 C 393.480469 246.085938 421.828125 270.980469 455.769531 288.925781 C 461.9375 292.207031 468.109375 295.679688 474.28125 298.960938 C 487.585938 306.292969 501.472656 313.820312 515.355469 319.996094 C 559.324219 339.484375 605.996094 347.011719 653.820312 341.996094 L 657.871094 341.609375 L 658.0625 345.660156 C 658.257812 348.363281 658.449219 350.871094 658.449219 353.574219 C 658.640625 357.238281 658.835938 360.90625 659.21875 365.152344 Z M 290.304688 139.757812 C 292.425781 152.882812 290.882812 164.460938 285.484375 177.96875 C 270.636719 214.824219 254.050781 256.507812 225.703125 290.664062 C 212.976562 306.101562 197.738281 320.382812 177.683594 335.433594 C 175.949219 336.785156 173.828125 337.75 171.898438 338.90625 C 170.546875 339.484375 169.199219 340.257812 167.847656 341.03125 L 161.097656 344.890625 L 162.0625 337.171875 C 162.640625 332.347656 163.21875 327.523438 163.800781 322.890625 C 165.148438 310.734375 166.304688 299.15625 168.8125 287.769531 C 169.96875 281.980469 173.054688 276.769531 176.140625 271.753906 C 177.296875 269.824219 178.457031 268.085938 179.417969 266.15625 C 194.460938 237.789062 213.359375 211.351562 235.730469 187.421875 C 245.566406 176.808594 255.59375 166.582031 266.394531 155.777344 C 272.179688 149.792969 278.15625 143.8125 284.136719 137.636719 L 289.535156 132.039062 Z M 304.191406 78.972656 C 303.226562 81.675781 302.070312 84.375 301.105469 87.078125 C 300.335938 89.199219 299.371094 91.324219 298.40625 93.445312 C 296.089844 98.464844 293.96875 103.289062 294.546875 107.339844 C 295.898438 121.8125 287.414062 129.339844 279.890625 135.898438 C 278.929688 136.671875 277.964844 137.445312 277.191406 138.410156 C 241.128906 170.828125 216.640625 198.039062 197.546875 226.984375 C 196.195312 229.296875 194.074219 231.035156 192.148438 232.773438 C 191.570312 233.351562 190.992188 233.738281 190.410156 234.316406 L 187.90625 236.632812 L 185.398438 234.507812 C 184.820312 234.121094 184.433594 233.738281 184.046875 233.351562 C 183.664062 232.964844 183.277344 232.773438 183.082031 232.578125 L 180.769531 230.84375 L 181.734375 228.140625 C 203.523438 170.054688 240.359375 118.917969 298.019531 67.589844 L 299.949219 65.851562 L 302.261719 67.007812 C 302.839844 67.203125 303.226562 67.585938 303.804688 67.78125 C 304 67.972656 304.382812 68.167969 304.578125 68.359375 L 307.664062 69.902344 L 306.503906 73.183594 C 305.734375 75.113281 304.960938 77.042969 304.191406 78.972656 Z M 304.191406 78.972656 "/>
<path style=" stroke:none;fill-rule:nonzero;fill:rgb(98.039246%,86.268616%,19.60907%);fill-opacity:1;" d="M 141.429688 442.917969 L 142.585938 444.460938 L 141.234375 445.621094 C 137.1875 449.09375 133.136719 452.183594 127.542969 456.621094 C 126.773438 458.550781 126 461.25 125.035156 464.53125 C 124.457031 466.65625 123.6875 468.96875 122.914062 471.09375 L 122.722656 471.671875 C 121.371094 482.863281 116.550781 488.269531 105.175781 491.164062 L 100.546875 492.320312 L 102.859375 488.269531 C 103.4375 487.300781 104.015625 486.144531 104.59375 485.179688 C 105.753906 482.863281 107.101562 480.355469 109.03125 478.234375 C 111.152344 475.917969 113.464844 473.988281 115.78125 472.058594 C 116.359375 471.671875 116.9375 471.09375 117.515625 470.707031 C 109.996094 467.8125 102.859375 470.515625 97.847656 478.425781 C 92.445312 486.917969 90.519531 496.953125 92.058594 508.722656 L 92.253906 509.878906 L 91.480469 510.652344 C 88.394531 513.160156 85.117188 514.125 82.03125 514.125 C 78.945312 514.125 76.054688 513.355469 73.160156 512.582031 C 71.039062 512.003906 68.917969 511.425781 66.796875 511.230469 L 65.640625 511.039062 L 65.253906 509.878906 C 60.820312 497.144531 60.046875 483.441406 63.132812 467.621094 C 66.21875 451.21875 76.632812 440.410156 95.339844 433.65625 C 107.875 429.21875 121.953125 429.988281 135.644531 435.972656 C 137.765625 436.9375 138.921875 439.058594 140.078125 440.796875 C 140.65625 441.761719 141.042969 442.339844 141.429688 442.917969 Z M 260.800781 556.773438 C 260.992188 549.054688 260.992188 541.140625 259.449219 533.617188 C 256.75 519.914062 247.300781 509.6875 233.222656 505.054688 C 211.046875 497.335938 177.296875 511.039062 164.761719 532.265625 L 164.378906 532.84375 L 164.378906 533.421875 C 165.921875 546.546875 167.269531 559.28125 168.425781 572.402344 L 168.425781 573.367188 L 169.199219 573.945312 C 172.089844 575.878906 174.792969 578.191406 177.683594 580.316406 C 184.046875 585.332031 190.796875 590.734375 198.320312 593.824219 C 205.648438 596.71875 212.976562 598.261719 219.917969 598.261719 C 230.714844 598.261719 240.746094 594.59375 249.617188 587.457031 L 250.195312 586.875 L 250.195312 586.105469 C 250.386719 582.050781 250.773438 578 251.160156 573.5625 L 251.542969 569.894531 C 252.507812 569.894531 253.472656 569.894531 254.242188 569.703125 C 255.785156 569.703125 257.328125 569.507812 258.679688 569.507812 L 260.609375 569.316406 L 260.609375 567.386719 C 260.609375 563.914062 260.800781 560.246094 260.800781 556.773438 Z M 601.171875 522.617188 C 592.882812 514.898438 582.273438 511.230469 571.089844 512.195312 C 553.925781 513.738281 540.425781 520.878906 530.785156 533.421875 C 519.019531 549.054688 520.5625 570.472656 529.433594 580.894531 C 542.933594 596.523438 558.941406 605.402344 577.261719 607.136719 C 578.226562 607.136719 579.1875 607.332031 580.152344 607.332031 C 592.304688 607.332031 603.296875 600.382812 607.921875 589.578125 L 609.082031 586.875 C 613.324219 577.226562 617.566406 567.191406 615.25 555.808594 C 615.25 542.878906 610.238281 530.914062 601.171875 522.617188 Z M 719.773438 417.640625 C 709.9375 415.710938 695.28125 414.359375 682.167969 423.621094 L 681.589844 424.007812 L 681.398438 424.585938 C 678.699219 432.691406 682.746094 438.289062 686.605469 443.304688 C 687.375 444.269531 687.953125 445.234375 688.726562 446.199219 L 690.65625 449.09375 L 692.003906 445.8125 C 694.125 441.183594 696.632812 438.480469 699.332031 438.09375 C 702.226562 437.707031 704.730469 440.410156 706.46875 442.53125 C 711.097656 449.09375 714.375 457.007812 714.761719 463.566406 C 715.53125 470.898438 714.761719 478.617188 714.179688 486.144531 C 713.796875 489.425781 713.601562 492.898438 713.410156 496.371094 L 713.410156 497.335938 L 714.179688 497.917969 C 715.917969 499.460938 717.84375 501.003906 719.582031 502.546875 C 721.316406 504.089844 723.246094 505.636719 724.980469 507.179688 L 727.101562 509.109375 L 728.835938 503.707031 C 730.574219 498.496094 732.117188 493.476562 733.273438 488.074219 C 734.042969 484.988281 734.816406 481.707031 735.585938 478.617188 C 737.902344 469.355469 740.214844 459.902344 740.988281 450.058594 C 741.953125 436.359375 730.960938 419.570312 719.773438 417.640625 Z M 719.773438 417.640625 "/>
<path style=" stroke:none;fill-rule:nonzero;fill:rgb(23.529053%,31.369019%,74.508667%);fill-opacity:1;" d="M 662.304688 616.980469 C 654.207031 636.277344 648.226562 654.417969 639.164062 670.820312 C 626.050781 694.167969 611.394531 716.746094 591.339844 735.273438 C 587.675781 738.746094 584.203125 742.605469 580.730469 746.273438 C 566.269531 761.902344 548.140625 772.128906 530.398438 783.128906 C 511.5 794.902344 491.445312 802.039062 469.652344 805.128906 C 442.074219 808.988281 414.691406 809.566406 386.730469 808.988281 C 362.042969 808.410156 338.515625 804.355469 314.992188 798.375 C 297.054688 793.742188 280.664062 785.253906 265.621094 774.253906 C 259.449219 769.621094 253.085938 765.183594 246.53125 761.128906 C 229.175781 750.515625 215.289062 736.042969 204.875 718.871094 C 193.304688 699.957031 183.855469 680.082031 173.828125 660.398438 C 169.96875 652.871094 167.464844 644.769531 163.992188 635.890625 C 160.519531 636.855469 157.433594 637.433594 154.542969 638.59375 C 135.644531 646.890625 118.09375 643.996094 101.316406 632.609375 C 78.945312 617.753906 70.460938 595.558594 67.375 570.085938 C 65.640625 556.195312 63.710938 542.492188 57.539062 529.371094 C 48.285156 509.109375 47.128906 487.6875 50.597656 465.496094 C 55.035156 436.9375 89.9375 414.550781 115.203125 418.21875 C 122.335938 419.375 129.664062 420.535156 138.34375 422.078125 C 138.921875 415.132812 140.464844 407.992188 140.078125 401.042969 C 139.308594 371.90625 142.972656 343.152344 147.023438 314.398438 C 151.070312 285.453125 157.433594 257.085938 164.761719 228.914062 C 171.511719 202.476562 183.277344 178.160156 199.089844 156.355469 C 216.058594 132.8125 233.222656 109.269531 252.894531 88.042969 C 266.972656 72.796875 284.714844 60.640625 301.875 48.871094 C 329.066406 30.152344 358.765625 16.449219 390.777344 7.960938 C 419.898438 0.242188 448.441406 2.554688 476.789062 12.203125 C 505.136719 21.851562 530.59375 37.292969 552.769531 56.589844 C 574.175781 75.308594 593.84375 95.953125 609.273438 120.847656 C 621.617188 140.722656 633.1875 160.601562 641.671875 182.40625 C 652.664062 210.773438 657.675781 240.683594 663.847656 270.207031 C 673.296875 314.398438 677.539062 359.167969 680.046875 405.867188 C 683.710938 404.902344 687.183594 403.746094 690.460938 402.972656 C 720.546875 395.449219 742.53125 403.167969 755.644531 434.429688 C 762.007812 449.480469 757.765625 463.566406 754.679688 477.847656 C 752.171875 489.230469 747.15625 500.230469 744.265625 511.617188 C 742.53125 518.179688 740.988281 525.511719 742.144531 532.265625 C 747.738281 566.613281 733.273438 592.085938 707.433594 612.15625 C 697.210938 620.066406 684.289062 621.613281 671.371094 618.910156 C 668.089844 617.753906 664.621094 617.367188 662.304688 616.980469 Z M 726.332031 505.828125 C 728.066406 499.847656 729.996094 493.863281 731.34375 487.6875 C 734.238281 475.144531 738.09375 462.796875 739.058594 450.058594 C 740.023438 436.742188 729.417969 421.304688 719.386719 419.570312 C 707.046875 417.253906 694.511719 417.253906 683.324219 425.164062 C 682.167969 427.867188 680.046875 430.375 679.855469 433.078125 C 679.46875 448.515625 680.046875 464.144531 679.082031 479.582031 C 677.539062 504.671875 675.417969 529.5625 672.914062 554.648438 C 671.949219 565.261719 669.828125 575.878906 667.898438 586.492188 C 666.933594 591.316406 665.390625 595.945312 663.464844 603.277344 C 674.070312 601.15625 682.941406 600.964844 690.074219 597.488281 C 713.023438 586.492188 723.824219 567.386719 724.015625 541.914062 C 724.402344 529.757812 725.558594 517.792969 726.332031 505.828125 Z M 66.992188 509.300781 C 67.375 510.652344 67.375 512.390625 67.953125 513.546875 C 77.789062 532.457031 83.382812 552.335938 85.3125 573.753906 C 86.660156 590.351562 93.988281 604.242188 108.257812 614.664062 C 125.035156 626.820312 142.394531 624.507812 159.171875 620.261719 C 155.121094 594.789062 150.492188 570.28125 147.214844 545.582031 C 144.898438 527.246094 144.320312 508.722656 143.164062 490.390625 C 142.007812 474.953125 141.042969 459.515625 139.886719 444.078125 C 138.34375 441.953125 137.1875 438.867188 135.066406 437.902344 C 122.53125 432.5 108.839844 431.148438 96.109375 435.585938 C 80.875 440.988281 68.53125 450.058594 65.0625 468.003906 C 61.976562 482.285156 62.167969 495.792969 66.992188 509.300781 Z M 166.5 533.230469 C 167.847656 546.160156 169.199219 559.089844 170.742188 572.019531 C 174.792969 589.964844 178.457031 608.101562 183.277344 625.855469 C 190.21875 651.90625 203.71875 675.066406 217.023438 698.027344 C 224.160156 710.378906 233.609375 721.765625 244.023438 731.605469 C 253.472656 740.675781 265.816406 746.65625 276.421875 754.375 C 307.277344 776.375 342.761719 782.164062 379.402344 783.707031 C 406.785156 784.867188 434.167969 784.867188 461.167969 779.269531 C 473.316406 776.761719 486.429688 775.410156 497.421875 770.199219 C 517.285156 760.746094 535.800781 748.78125 554.890625 737.78125 C 555.46875 737.394531 556.046875 736.816406 556.433594 736.238281 C 567.617188 724.464844 578.996094 712.886719 590.179688 700.921875 C 611.78125 677.574219 627.59375 650.363281 637.621094 620.066406 C 652.664062 573.949219 656.519531 526.089844 659.027344 478.039062 C 659.800781 461.832031 659.800781 445.429688 659.21875 429.023438 C 658.640625 414.9375 661.339844 400.273438 656.136719 386.570312 C 646.492188 390.238281 637.816406 393.902344 628.558594 396.605469 C 616.214844 400.273438 604.066406 405.097656 591.339844 406.253906 C 551.804688 409.726562 513.429688 402.203125 476.402344 388.886719 C 432.625 373.0625 394.441406 348.554688 361.273438 315.558594 C 334.855469 289.3125 310.167969 262.488281 295.511719 227.753906 C 293.390625 222.542969 291.269531 217.527344 288.957031 212.316406 C 288.183594 212.125 287.21875 212.125 286.449219 211.929688 C 262.34375 275.226562 225.316406 327.523438 161.871094 358.785156 C 161.871094 371.519531 161.871094 384.640625 161.871094 397.957031 C 162.0625 429.988281 162.257812 462.214844 163.027344 494.25 C 163.414062 507.566406 165.34375 520.300781 166.5 533.230469 Z M 313.640625 98.847656 C 314.605469 107.917969 314.21875 115.832031 316.339844 122.972656 C 319.425781 133.585938 323.667969 143.8125 328.296875 153.847656 C 341.796875 183.179688 361.660156 208.265625 385.570312 229.105469 C 409.097656 249.5625 433.785156 268.664062 461.9375 283.523438 C 494.914062 300.890625 527.890625 317.871094 564.339844 326.558594 C 593.265625 333.503906 622.578125 332.347656 651.890625 331.382812 C 649.964844 300.699219 635.113281 231.613281 629.90625 224.089844 C 514.007812 208.652344 411.027344 165.425781 313.640625 98.847656 Z M 626.4375 206.527344 C 620.84375 182.984375 611.203125 163.300781 599.632812 144.96875 C 587.867188 126.445312 574.367188 108.496094 559.90625 91.902344 C 550.648438 81.289062 537.726562 73.761719 527.121094 64.113281 C 511.113281 49.640625 492.023438 40.957031 472.546875 33.046875 C 448.441406 23.011719 423.175781 22.816406 397.527344 26.679688 C 378.242188 29.574219 360.5 35.363281 343.53125 45.394531 C 326.945312 55.042969 325.019531 71.0625 320.003906 85.535156 C 365.128906 120.847656 414.304688 144.390625 465.796875 164.652344 C 517.285156 184.914062 568.777344 202.667969 626.4375 206.527344 Z M 654.398438 345.660156 C 604.835938 350.484375 558.167969 342.765625 514.007812 323.082031 C 493.566406 314.011719 474.089844 302.433594 454.226562 292.015625 C 422.984375 275.417969 395.792969 253.035156 370.144531 229.105469 C 343.144531 204.019531 322.898438 173.722656 308.433594 139.375 C 307.664062 143.8125 307.664062 148.058594 307.664062 152.109375 C 307.664062 165.039062 309.398438 178.355469 307.082031 190.898438 C 304.769531 203.441406 307.46875 214.054688 312.484375 224.859375 C 324.246094 249.945312 340.445312 271.753906 360.308594 290.855469 C 373.421875 303.398438 385.765625 316.90625 400.035156 327.90625 C 419.707031 342.960938 441.113281 355.308594 463.867188 365.539062 C 492.410156 378.464844 522.492188 383.097656 552.960938 386.765625 C 578.996094 389.851562 604.453125 386.570312 628.945312 376.152344 C 638.007812 372.292969 647.070312 368.625 655.554688 364.957031 C 654.976562 357.816406 654.785156 352.222656 654.398438 345.660156 Z M 165.535156 337.554688 C 169.390625 335.625 172.671875 334.46875 175.175781 332.539062 C 192.53125 319.417969 208.730469 305.136719 222.617188 288.347656 C 250 255.15625 266.007812 215.984375 281.820312 176.617188 C 286.449219 165.039062 288.570312 154.039062 286.449219 140.339844 C 269.863281 157.511719 253.664062 173.53125 238.238281 190.125 C 216.253906 213.667969 197.546875 239.71875 182.503906 268.085938 C 178.839844 274.839844 173.632812 281.207031 172.285156 288.542969 C 169.007812 304.363281 167.65625 320.574219 165.535156 337.554688 Z M 185.203125 229.296875 C 185.976562 230.070312 186.941406 230.84375 187.710938 231.613281 C 190.027344 229.492188 192.726562 227.5625 194.269531 225.054688 C 216.445312 191.28125 244.601562 162.53125 274.492188 135.707031 C 282.785156 128.179688 292.042969 122.007812 290.691406 107.917969 C 289.921875 100.777344 294.742188 93.253906 297.441406 85.921875 C 299.175781 81.097656 301.105469 76.464844 302.839844 71.832031 C 302.070312 71.449219 301.296875 70.867188 300.527344 70.484375 C 250.386719 114.867188 208.925781 165.617188 185.203125 229.296875 Z M 248.457031 585.910156 C 249.035156 580.121094 249.421875 574.527344 250 567.964844 C 253.472656 567.773438 256.171875 567.773438 258.871094 567.578125 C 262.34375 574.332031 265.621094 581.085938 270.058594 589.769531 C 346.617188 614.664062 424.914062 623.925781 502.628906 584.367188 C 501.859375 573.367188 501.664062 562.949219 515.742188 558.125 C 517.09375 560.632812 519.601562 563.332031 519.214844 565.261719 C 516.128906 582.246094 524.421875 593.4375 536.761719 603.085938 C 541.390625 606.558594 542.355469 611.769531 535.414062 617.753906 C 526.542969 611.960938 517.09375 605.789062 506.871094 599.226562 C 481.996094 613.3125 453.839844 622.578125 424.335938 625.855469 C 416.042969 660.59375 407.171875 674.101562 378.4375 671.785156 C 356.257812 669.855469 336.78125 660.398438 332.925781 625.664062 C 310.363281 618.332031 287.992188 610.996094 265.816406 603.664062 C 258.101562 624.121094 256.945312 625.085938 245.953125 621.03125 C 247.109375 609.066406 247.878906 597.488281 248.457031 585.910156 Z M 411.21875 627.785156 C 402.542969 627.785156 395.601562 627.785156 388.65625 627.785156 C 387.691406 627.785156 386.730469 628.75 385.957031 629.136719 C 385.1875 637.628906 384.609375 645.734375 383.835938 654.609375 C 400.035156 652.292969 405.628906 641.488281 411.21875 627.785156 Z M 347.773438 625.277344 C 349.703125 639.171875 354.714844 648.046875 366.867188 651.714844 C 367.636719 643.609375 368.410156 636.085938 369.179688 627.59375 C 361.660156 626.628906 355.296875 625.855469 347.773438 625.277344 Z M 344.6875 507.179688 C 332.152344 515.667969 329.839844 534.003906 341.023438 544.035156 C 348.546875 550.789062 357.222656 557.160156 366.480469 560.824219 C 387.691406 568.929688 418.933594 567.191406 432.242188 542.105469 C 438.027344 531.300781 437.449219 521.265625 427.417969 514.125 C 413.726562 504.285156 398.683594 497.722656 380.558594 498.300781 C 363.972656 497.917969 355.488281 500.039062 344.6875 507.179688 Z M 217.023438 444.269531 C 225.703125 450.253906 228.402344 458.550781 229.558594 468.390625 C 231.296875 482.671875 246.914062 492.898438 260.992188 490.582031 C 276.421875 488.074219 284.136719 477.652344 285.484375 458.550781 C 285.871094 451.796875 286.640625 445.621094 291.269531 440.21875 C 293.390625 437.515625 293.585938 433.269531 294.742188 429.796875 C 293.777344 429.023438 293.007812 428.253906 292.042969 427.480469 C 287.027344 430.375 282.207031 433.464844 277.964844 435.972656 C 271.214844 433.078125 264.464844 430.375 257.523438 427.289062 C 257.136719 424.78125 257.136719 421.5 255.980469 418.992188 C 255.015625 416.867188 252.699219 415.515625 251.160156 413.78125 C 249.230469 415.710938 246.53125 417.253906 245.757812 419.570312 C 244.792969 422.65625 245.566406 426.128906 245.566406 428.832031 C 240.746094 433.464844 236.503906 437.515625 232.066406 441.761719 C 225.894531 437.902344 220.109375 434.234375 214.324219 430.570312 C 209.117188 438.09375 213.359375 441.761719 217.023438 444.269531 Z M 468.496094 452.183594 C 471.96875 462.214844 476.402344 471.671875 480.835938 481.898438 C 479.875 485.757812 478.523438 490.390625 477.171875 495.023438 C 477.945312 495.792969 478.910156 496.757812 479.679688 497.53125 C 484.117188 495.214844 488.550781 492.898438 493.566406 490.195312 C 500.121094 491.933594 507.449219 493.671875 514.199219 495.40625 C 516.515625 502.355469 518.636719 508.335938 520.757812 514.320312 C 534.257812 510.84375 528.664062 500.230469 530.398438 496.179688 C 540.042969 488.652344 547.5625 482.671875 556.046875 476.109375 C 560.675781 477.074219 567.234375 478.425781 574.175781 479.96875 C 576.105469 468.003906 566.652344 466.847656 561.832031 462.023438 C 560.675781 445.425781 559.710938 444.078125 549.492188 444.460938 C 547.371094 449.480469 545.632812 454.691406 542.933594 459.515625 C 533.871094 475.722656 521.914062 479.003906 506.292969 468.777344 C 495.492188 461.832031 485.464844 453.726562 473.316406 445.042969 C 471.582031 446.972656 467.917969 450.253906 468.496094 452.183594 Z M 290.113281 321.539062 C 285.484375 319.609375 280.472656 315.363281 276.035156 315.941406 C 262.730469 317.292969 250.195312 322.117188 240.167969 330.996094 C 233.996094 336.398438 229.558594 344.117188 225.125 351.449219 C 224.160156 353.1875 225.125 357.046875 226.667969 358.976562 C 227.4375 359.941406 231.296875 358.976562 233.417969 358.011719 C 234.960938 357.433594 235.921875 355.503906 237.082031 354.152344 C 246.144531 342.1875 257.90625 334.660156 272.371094 330.996094 C 278.15625 329.453125 283.941406 327.136719 289.726562 325.207031 C 289.921875 323.855469 289.921875 322.699219 290.113281 321.539062 Z M 533.675781 278.121094 C 526.347656 262.296875 492.601562 257.472656 481.03125 270.59375 C 477.753906 274.261719 478.714844 277.734375 482.765625 279.664062 C 486.042969 281.015625 490.289062 282.171875 493.566406 281.207031 C 504.945312 278.3125 515.355469 278.507812 524.421875 287.382812 C 525.964844 288.925781 530.011719 288.542969 532.519531 287.769531 C 533.871094 287.382812 534.640625 284.296875 535.414062 282.558594 C 534.640625 280.824219 534.257812 279.277344 533.675781 278.121094 Z M 98.039062 528.210938 C 98.039062 552.527344 110.1875 570.859375 124.457031 588.421875 C 126.578125 591.121094 129.859375 592.664062 132.75 594.789062 C 139.113281 588.035156 135.835938 583.015625 132.75 577.808594 C 124.074219 562.949219 114.429688 548.667969 111.921875 530.722656 C 119.636719 529.179688 128.121094 528.792969 129.859375 518.949219 C 131.015625 512.773438 129.664062 506.40625 124.074219 503.511719 C 114.816406 498.6875 109.800781 507.949219 101.703125 513.355469 C 102.667969 504.089844 103.4375 496.757812 104.402344 489.234375 C 106.332031 485.953125 107.875 482.285156 110.1875 479.582031 C 113.273438 476.109375 117.128906 473.410156 120.601562 470.515625 L 120.792969 470.515625 C 111.730469 465.304688 102.28125 467.8125 96.109375 477.652344 C 89.9375 487.304688 88.78125 498.109375 89.9375 509.300781 C 92.832031 515.667969 98.039062 522.039062 98.039062 528.210938 Z M 706.082031 472.058594 C 705.695312 479.003906 704.925781 485.953125 704.152344 492.511719 C 693.160156 495.40625 686.027344 501.390625 684.675781 509.109375 C 683.132812 517.214844 689.113281 520.6875 695.089844 524.351562 C 694.316406 540.5625 680.242188 552.335938 678.890625 571.4375 C 684.097656 568.738281 688.148438 567.964844 689.691406 565.648438 C 702.03125 548.28125 711.480469 529.757812 712.445312 507.949219 C 712.640625 504.089844 714.375 500.230469 715.339844 496.566406 C 715.917969 485.566406 717.84375 474.375 716.6875 463.566406 C 715.917969 456.042969 712.445312 447.9375 708.011719 441.566406 C 701.839844 433.078125 694.703125 434.8125 690.269531 445.042969 C 700.296875 451.410156 706.660156 459.902344 706.082031 472.058594 Z M 706.082031 472.058594 "/>
</g>
</svg>
