<?xml version="1.0" encoding="UTF-8"?>
<svg xmlns="http://www.w3.org/2000/svg" xmlns:xlink="http://www.w3.org/1999/xlink" width="810pt" height="809.999993pt" viewBox="0 0 810 809.999993" version="1.2">
<defs>
<clipPath id="clip1">
  <path d="M 0.214844 43.445312 L 809.785156 43.445312 L 809.785156 766.304688 L 0.214844 766.304688 Z M 0.214844 43.445312 "/>
</clipPath>
</defs>
<g id="surface1">
<g clip-path="url(#clip1)" clip-rule="nonzero">
<path style=" stroke:none;fill-rule:nonzero;fill:rgb(85.879517%,73.329163%,88.62915%);fill-opacity:1;" d="M 805.882812 404.699219 C 804.660156 417.667969 803.394531 430.640625 801.902344 443.582031 C 796.007812 494.683594 787.007812 547.246094 763.601562 593.589844 C 738.84375 642.585938 698.988281 678.726562 649.335938 701.710938 C 595.855469 726.46875 536.511719 739.242188 478.734375 749.277344 C 415.0625 760.328125 350.550781 766.222656 285.910156 766.304688 C 186.621094 766.429688 71.210938 746.457031 24.84375 646.574219 C 2.765625 599.007812 -1.125 545.273438 0.5625 493.507812 C 2.359375 438.511719 8.78125 380.941406 33.390625 330.964844 C 82.433594 231.386719 189.195312 195.226562 291.96875 178.578125 C 284.792969 171.042969 277.796875 163.328125 271.0625 155.390625 C 260.492188 142.949219 249.898438 129.109375 245.871094 112.960938 C 238.183594 82.160156 259.5 55.421875 288.15625 46.449219 C 317.636719 37.230469 347.722656 50.203125 367.214844 72.726562 C 379.125 86.492188 386.042969 102.835938 390.269531 120.074219 C 394.3125 114.136719 398.839844 108.515625 404.0625 103.359375 C 420.019531 87.605469 443.234375 78.859375 465.628906 81.21875 C 487.082031 83.46875 504.976562 98.257812 510.320312 119.289062 C 513.246094 130.828125 512.609375 142.429688 509.484375 153.4375 C 542.214844 144.347656 575.953125 138.28125 609.941406 138.699219 C 670.152344 139.445312 733.007812 161.03125 772.039062 208.707031 C 816.835938 263.4375 812.003906 338.660156 805.882812 404.699219 "/>
</g>
<path style=" stroke:none;fill-rule:nonzero;fill:rgb(12.939453%,12.548828%,12.159729%);fill-opacity:1;" d="M 155.46875 503.160156 C 162.539062 485.914062 173.484375 471.421875 184.210938 456.363281 C 188.074219 450.929688 178.085938 449.617188 174.996094 452.089844 C 159.503906 464.5 150.335938 482.375 143.976562 500.894531 C 141.984375 506.6875 153.453125 508.070312 155.46875 503.160156 Z M 522.996094 451.96875 C 510.8125 464.613281 502.679688 479.757812 494.082031 494.949219 C 490.113281 501.964844 502.445312 503.664062 506.019531 498.59375 C 515.878906 484.59375 526.042969 471.183594 531.945312 454.984375 C 533.695312 450.160156 525.335938 449.527344 522.996094 451.96875 Z M 387.488281 212.992188 C 390.738281 214.71875 399.648438 212.476562 396.519531 207.324219 C 388.253906 193.710938 379.777344 181 379.480469 164.410156 C 379.1875 148.121094 386.992188 135.386719 395.144531 122.027344 C 398.863281 115.925781 388.800781 113.554688 384.957031 116.0625 C 353.515625 136.601562 353.230469 194.835938 387.488281 212.992188 Z M 712.546875 301.34375 C 712.578125 283.296875 705.8125 266.382812 689.589844 257.015625 C 669.90625 245.644531 645.871094 247.730469 624.09375 248.941406 C 598.398438 250.367188 572.707031 251.792969 547.007812 253.214844 C 527.128906 254.320312 500.363281 251.507812 483.488281 264.367188 C 466.019531 277.671875 469.398438 300.25 473.066406 319.160156 C 476.84375 338.648438 483.023438 358.445312 499.65625 370.8125 C 514.816406 382.09375 534.0625 385.722656 552.503906 387.0625 C 574.375 388.652344 597.113281 389.363281 618.871094 386.242188 C 664.21875 379.734375 709.144531 353.035156 712.476562 303.347656 C 712.527344 303.03125 712.554688 302.722656 712.558594 302.394531 C 712.578125 302.027344 712.570312 301.679688 712.546875 301.34375 Z M 330.445312 302.4375 C 329.316406 293.65625 327.578125 285.074219 321.210938 278.539062 C 314.417969 271.570312 305.171875 268.324219 295.621094 267.554688 C 284.980469 266.699219 274.414062 268.8125 263.9375 270.367188 C 251.511719 272.207031 239.082031 274.054688 226.660156 275.902344 C 204.554688 279.183594 182.101562 281.597656 160.207031 286.09375 C 142.800781 289.664062 124.578125 296.5625 113.910156 311.605469 C 103 327.003906 101.511719 348.921875 102.625 367.222656 C 103.132812 375.492188 104.980469 383.761719 110.898438 389.929688 C 117.925781 397.238281 127.898438 399.03125 137.601562 399.855469 C 164.847656 402.179688 192.347656 402.613281 219.671875 401.5625 C 242.953125 400.664062 266.828125 398.382812 287.386719 386.558594 C 287.757812 386.375 288.132812 386.171875 288.511719 385.933594 C 288.898438 385.699219 289.25 385.449219 289.59375 385.210938 C 316.398438 367.445312 334.617188 334.945312 330.445312 302.4375 Z M 401.015625 547.90625 C 399.941406 547.28125 398.929688 546.617188 397.960938 545.921875 C 397.203125 544.382812 395.816406 543.390625 394.132812 542.851562 C 388.59375 537.953125 384.222656 532.15625 378.320312 527.28125 C 375.5 524.953125 367.808594 524.777344 367.46875 529.878906 C 367.019531 536.617188 370.214844 544.378906 375.355469 551.25 C 368.441406 559.660156 363.558594 570.902344 357.519531 579.386719 C 349.785156 590.257812 341.175781 602.363281 330.855469 610.96875 C 327.261719 613.960938 323.695312 617.070312 319.804688 613.253906 C 316.035156 609.546875 315.550781 602.3125 315.0625 597.40625 C 313.929688 585.929688 313.59375 574.109375 301.699219 568.734375 C 298.339844 567.214844 292.835938 569.964844 293.3125 573.980469 C 294.195312 581.484375 295.671875 588.410156 295.40625 596.042969 C 295.175781 602.6875 294.960938 609.609375 296.929688 616.046875 C 301.96875 632.582031 318.660156 638.121094 334.09375 631.941406 C 349.976562 625.59375 361.605469 610.40625 371.882812 597.34375 C 377.109375 590.710938 382.027344 583.832031 386.625 576.742188 C 388.765625 573.449219 391.140625 570.023438 393.21875 566.457031 C 398.699219 569.164062 404.410156 570.378906 409.640625 569.300781 C 415 568.203125 420.128906 563.914062 417.390625 558.046875 C 414.972656 552.863281 405.757812 550.675781 401.015625 547.90625 Z M 213.324219 451.53125 C 201.332031 459.46875 192.589844 472.582031 184.355469 484.152344 C 177.898438 493.21875 172.28125 502.792969 167.296875 512.75 C 162.292969 522.746094 156.613281 533.25 154.003906 544.179688 C 152.269531 551.441406 151.433594 559.4375 158.050781 564.722656 C 167.988281 572.660156 182.003906 567.867188 189.492188 559.351562 C 196.003906 551.933594 199.710938 542.164062 204.621094 533.679688 C 208.566406 526.851562 212.796875 520.1875 217.308594 513.71875 C 221.40625 507.835938 225.566406 501.945312 230.082031 496.378906 C 235.742188 489.414062 243.460938 483.058594 247.742188 475.152344 C 260.019531 452.503906 230.683594 440.042969 213.324219 451.53125 Z M 609.148438 460.015625 C 605.050781 467.441406 598.839844 473.972656 593.945312 480.941406 C 589.171875 487.738281 584.414062 494.558594 579.859375 501.507812 C 570.65625 515.5625 562.035156 530.308594 553.859375 544.953125 C 545.59375 559.773438 518.496094 557.976562 522.550781 537.976562 C 524.808594 526.851562 528.421875 516.550781 532.816406 506.105469 C 542.207031 483.808594 553.542969 458.03125 570.703125 440.464844 C 578.625 432.347656 592.402344 429.792969 602.496094 434.859375 C 612.550781 439.902344 614.3125 450.664062 609.148438 460.015625 "/>
<path style=" stroke:none;fill-rule:nonzero;fill:rgb(85.879517%,73.329163%,88.62915%);fill-opacity:1;" d="M 224.480469 462.097656 C 219.253906 465.933594 215.613281 471.089844 211.671875 476.164062 C 209.761719 478.625 210.117188 481.863281 212.960938 483.4375 C 215.839844 485.023438 219.875 484.246094 222.050781 481.820312 C 226.148438 477.246094 230.824219 472.808594 233.378906 467.160156 C 235.800781 461.8125 228.097656 459.433594 224.480469 462.097656 Z M 585.917969 456.824219 C 583.957031 459.011719 582.035156 461.148438 580.535156 463.695312 C 579.191406 466 578.09375 468.484375 576.90625 470.867188 C 573.410156 477.867188 586.089844 480.0625 589.074219 474.09375 C 591.511719 469.21875 593.570312 464.921875 594.464844 459.503906 C 595.214844 454.925781 588.359375 454.09375 585.917969 456.824219 Z M 730.25 351.308594 C 710.6875 333.394531 689.074219 318.574219 671.988281 297.972656 C 655.132812 277.660156 641.53125 254.496094 632.222656 229.800781 C 630.496094 225.222656 620.289062 227.5625 621.773438 232.527344 C 629.761719 259.183594 642.082031 284.0625 659.3125 305.972656 C 676.453125 327.773438 697.195312 348.601562 723.507812 358.65625 C 727.398438 360.140625 734.507812 355.203125 730.25 351.308594 Z M 672.574219 405.601562 C 643.421875 386.90625 615.246094 366.019531 593.742188 338.558594 C 572.632812 311.601562 556.109375 279.847656 547.914062 246.519531 C 546.78125 241.925781 538.054688 242.824219 538.875 247.636719 C 550.859375 317.746094 598.5 388.070312 667.597656 412.304688 C 671.59375 413.703125 677.3125 408.636719 672.574219 405.601562 Z M 507.265625 249.617188 C 509.03125 244.621094 499.371094 243.804688 497.480469 247.769531 C 474.273438 296.367188 486.460938 361.285156 529.640625 394.902344 C 533.972656 398.273438 543.898438 393.960938 538.871094 388.664062 C 503.703125 351.609375 490.09375 298.265625 507.265625 249.617188 Z M 150.699219 275.382812 C 149.664062 270.355469 139.890625 270.582031 139.613281 275.867188 C 138.5 296.824219 137.457031 317.632812 131.71875 337.953125 C 125.589844 359.648438 114.707031 379.847656 100.222656 397.089844 C 96.574219 401.421875 103.96875 404.734375 107.117188 401.351562 C 136.949219 369.296875 159.859375 319.875 150.699219 275.382812 Z M 187.644531 391.667969 C 197.636719 379.433594 205.839844 365.445312 211.59375 350.738281 C 222.089844 323.917969 228.179688 287.742188 214.359375 261.097656 C 211.828125 256.222656 203.386719 258.738281 203.492188 264 C 203.789062 278.417969 205.503906 292.746094 204.480469 307.191406 C 203.4375 321.78125 200.066406 335.9375 194.804688 349.5625 C 189.707031 362.738281 182.765625 375.101562 173.96875 386.160156 C 169.695312 391.539062 165.171875 396.769531 160.230469 401.554688 C 156.070312 405.582031 150.136719 409.277344 148.367188 414.996094 C 147.582031 417.535156 150.796875 418.753906 152.660156 418.628906 C 159.917969 418.140625 166.171875 412.542969 171.472656 408.003906 C 177.304688 403.003906 182.785156 397.609375 187.644531 391.667969 Z M 309.773438 268.824219 C 312.347656 307.097656 297.167969 345.144531 271.679688 373.476562 C 247.089844 400.808594 215.246094 416.269531 179.148438 421.167969 C 179.054688 421.183594 178.996094 421.074219 179.105469 421.042969 C 212.050781 412.097656 243.78125 390.679688 264.851562 363.964844 C 286.308594 336.765625 296.683594 303.226562 299.875 269.097656 C 300.300781 264.609375 309.453125 264.078125 309.773438 268.824219 "/>
</g>
</svg>
