<?xml version="1.0" encoding="UTF-8"?>
<svg xmlns="http://www.w3.org/2000/svg" xmlns:xlink="http://www.w3.org/1999/xlink" width="810pt" height="809.999993pt" viewBox="0 0 810 809.999993" version="1.2">
<defs>
<clipPath id="clip1">
  <path d="M 203.472656 569.296875 L 625 569.296875 L 625 810 L 203.472656 810 Z M 203.472656 569.296875 "/>
</clipPath>
<clipPath id="clip2">
  <path d="M 343 569.296875 L 500.996094 569.296875 L 500.996094 810 L 343 810 Z M 343 569.296875 "/>
</clipPath>
<clipPath id="clip3">
  <path d="M 387.050781 607.238281 L 460.902344 607.238281 L 460.902344 810 L 387.050781 810 Z M 387.050781 607.238281 "/>
</clipPath>
<clipPath id="clip4">
  <path d="M 465 575 L 549.527344 575 L 549.527344 810 L 465 810 Z M 465 575 "/>
</clipPath>
<clipPath id="clip5">
  <path d="M 133.648438 611.453125 L 225 611.453125 L 225 810 L 133.648438 810 Z M 133.648438 611.453125 "/>
</clipPath>
<clipPath id="clip6">
  <path d="M 602 611.453125 L 676.648438 611.453125 L 676.648438 810 L 602 810 Z M 602 611.453125 "/>
</clipPath>
</defs>
<g id="surface1">
<g clip-path="url(#clip1)" clip-rule="nonzero">
<path style=" stroke:none;fill-rule:nonzero;fill:rgb(16.079712%,14.118958%,17.248535%);fill-opacity:1;" d="M 603.707031 809.988281 C 614.628906 696.15625 624.058594 611.9375 624.058594 611.9375 C 624.058594 611.9375 526.539062 569.429688 420.53125 569.429688 C 314.53125 569.429688 203.917969 611.9375 203.917969 611.9375 C 203.917969 611.9375 212.605469 697.382812 223.007812 809.988281 L 603.707031 809.988281 "/>
</g>
<g clip-path="url(#clip2)" clip-rule="nonzero">
<path style=" stroke:none;fill-rule:nonzero;fill:rgb(78.42865%,87.059021%,90.589905%);fill-opacity:1;" d="M 469.589844 809.988281 C 497.699219 705.765625 521.558594 578.3125 472.238281 572.558594 C 455.496094 570.605469 438.121094 569.429688 420.53125 569.429688 C 399.964844 569.429688 390.398438 569.710938 370.308594 572.292969 C 321.355469 578.585938 349.769531 705.894531 381.585938 809.988281 L 469.589844 809.988281 "/>
</g>
<g clip-path="url(#clip3)" clip-rule="nonzero">
<path style=" stroke:none;fill-rule:nonzero;fill:rgb(16.079712%,14.118958%,17.248535%);fill-opacity:1;" d="M 460.136719 809.988281 C 464.226562 713.792969 434.460938 607.5 434.460938 607.5 L 408.53125 607.5 C 408.53125 607.5 380.867188 714.0625 388.433594 809.988281 L 460.136719 809.988281 "/>
</g>
<path style=" stroke:none;fill-rule:nonzero;fill:rgb(16.079712%,14.118958%,17.248535%);fill-opacity:1;" d="M 436.851562 570.0625 C 430.933594 569.660156 424.792969 569.429688 418.5625 569.429688 C 411.308594 569.429688 403.957031 569.75 396.859375 570.269531 C 367.351562 572.449219 421.214844 645.59375 421.214844 645.59375 C 421.214844 645.59375 466.566406 572.0625 436.851562 570.0625 "/>
<path style=" stroke:none;fill-rule:nonzero;fill:rgb(97.648621%,66.668701%,47.059631%);fill-opacity:1;" d="M 375.714844 569.421875 L 463.105469 569.421875 L 463.105469 463.128906 L 375.714844 463.128906 Z M 375.714844 569.421875 "/>
<path style=" stroke:none;fill-rule:nonzero;fill:rgb(79.998779%,47.059631%,30.979919%);fill-opacity:1;" d="M 419.425781 516.265625 C 395.730469 516.265625 375.714844 494.570312 375.714844 494.570312 L 375.714844 489.335938 C 391.253906 497.027344 406.578125 501.214844 419.824219 501.214844 C 432.492188 501.214844 447.566406 497.214844 463.105469 489.953125 L 463.105469 494.570312 C 463.105469 494.570312 443.097656 516.265625 419.425781 516.265625 "/>
<path style=" stroke:none;fill-rule:nonzero;fill:rgb(30.198669%,9.799194%,10.978699%);fill-opacity:1;" d="M 570.84375 378.84375 C 544.640625 448.09375 471.683594 463.128906 420.546875 463.128906 C 369.378906 463.128906 303.851562 450.226562 276.023438 378.84375 C 252.53125 318.59375 230.738281 169.074219 252.226562 120.390625 C 273.730469 71.691406 316.832031 17.535156 412.726562 17.535156 C 510.714844 17.535156 560.6875 49.867188 580.140625 120.390625 C 599.578125 190.917969 596.4375 311.25 570.84375 378.84375 "/>
<path style=" stroke:none;fill-rule:nonzero;fill:rgb(97.648621%,66.668701%,47.059631%);fill-opacity:1;" d="M 555.859375 392.265625 C 533.785156 454.878906 462.882812 501.214844 419.824219 501.214844 C 376.746094 501.214844 311.761719 456.832031 288.328125 392.265625 C 268.554688 337.792969 263.171875 202.46875 281.28125 158.429688 C 299.398438 114.390625 335.699219 65.425781 416.425781 65.425781 C 498.933594 65.425781 541.019531 94.648438 557.375 158.429688 C 573.753906 222.207031 577.402344 331.15625 555.859375 392.265625 "/>
<path style=" stroke:none;fill-rule:nonzero;fill:rgb(97.648621%,66.668701%,47.059631%);fill-opacity:1;" d="M 601.011719 325.34375 C 590.445312 336.171875 567.214844 341.5625 562.394531 330.554688 C 557.976562 320.496094 537.878906 314.9375 537.890625 299.277344 C 537.890625 286.046875 566.277344 268.394531 566.277344 268.394531 C 566.277344 268.394531 575.351562 238.261719 597.976562 239.59375 C 619.003906 240.828125 623.050781 262.203125 621.425781 277.023438 C 619.820312 291.828125 611.332031 314.773438 601.011719 325.34375 "/>
<path style=" stroke:none;fill-rule:nonzero;fill:rgb(97.648621%,66.668701%,47.059631%);fill-opacity:1;" d="M 240.96875 325.34375 C 251.542969 336.171875 274.761719 341.5625 279.59375 330.554688 C 284 320.496094 304.097656 314.9375 304.089844 299.277344 C 304.082031 286.046875 275.703125 268.394531 275.703125 268.394531 C 275.703125 268.394531 266.632812 238.261719 243.984375 239.59375 C 222.980469 240.828125 218.941406 262.203125 220.542969 277.023438 C 222.148438 291.828125 230.640625 314.773438 240.96875 325.34375 "/>
<path style=" stroke:none;fill-rule:nonzero;fill:rgb(30.198669%,9.799194%,10.978699%);fill-opacity:1;" d="M 570.800781 280.664062 C 570.867188 236.40625 576.488281 191.378906 568.023438 158.429688 C 551.671875 94.648438 498.933594 53.472656 416.425781 53.472656 C 335.699219 53.472656 288.742188 114.390625 270.648438 158.429688 C 260.988281 181.902344 268.695312 231.371094 271.035156 280.664062 L 280.828125 280.664062 C 280.828125 280.664062 263.601562 192.566406 304.089844 162.40625 C 343.339844 133.1875 365.949219 167.28125 428.476562 167.28125 C 486.992188 167.28125 501.628906 130.527344 537.890625 157.105469 C 577.230469 185.921875 556.046875 275.664062 556.046875 275.664062 L 570.800781 280.664062 "/>
<path style=" stroke:none;fill-rule:nonzero;fill:rgb(79.998779%,47.059631%,30.979919%);fill-opacity:1;" d="M 420.53125 447.90625 C 392.796875 447.90625 370.308594 425.460938 370.308594 397.757812 L 470.746094 397.757812 C 470.746094 425.460938 448.277344 447.90625 420.53125 447.90625 "/>
<path style=" stroke:none;fill-rule:nonzero;fill:rgb(100%,100%,100%);fill-opacity:1;" d="M 468.429688 412.058594 C 469.796875 407.488281 470.746094 402.753906 470.746094 397.757812 L 370.308594 397.757812 C 370.308594 402.753906 371.273438 407.488281 372.640625 412.058594 L 468.429688 412.058594 "/>
<path style=" stroke:none;fill-rule:nonzero;fill:rgb(79.998779%,47.059631%,30.979919%);fill-opacity:1;" d="M 417.597656 360.386719 L 417.597656 254.085938 L 438.433594 336.609375 L 417.597656 360.386719 "/>
<path style=" stroke:none;fill-rule:nonzero;fill:rgb(30.198669%,9.799194%,10.978699%);fill-opacity:1;" d="M 463.105469 250.214844 C 463.105469 250.214844 482.835938 229.671875 509.804688 229.796875 C 529.628906 229.894531 543.527344 240.300781 543.527344 240.300781 L 539.140625 251.003906 C 539.140625 251.003906 522.0625 242.34375 509.804688 242.378906 C 485.5 242.433594 463.105469 250.214844 463.105469 250.214844 "/>
<path style=" stroke:none;fill-rule:nonzero;fill:rgb(15.689087%,8.628845%,9.799194%);fill-opacity:1;" d="M 514.761719 276.71875 C 514.761719 286.476562 509.394531 294.386719 502.800781 294.386719 C 496.191406 294.386719 490.816406 286.476562 490.816406 276.71875 C 490.816406 266.96875 496.191406 259.066406 502.800781 259.066406 C 509.394531 259.066406 514.761719 266.96875 514.761719 276.71875 "/>
<path style=" stroke:none;fill-rule:nonzero;fill:rgb(100%,100%,100%);fill-opacity:1;" d="M 512.535156 270.132812 C 512.535156 272.832031 510.359375 275.015625 507.664062 275.015625 C 504.976562 275.015625 502.800781 272.832031 502.800781 270.132812 C 502.800781 267.449219 504.976562 265.273438 507.664062 265.273438 C 510.359375 265.273438 512.535156 267.449219 512.535156 270.132812 "/>
<path style=" stroke:none;fill-rule:nonzero;fill:rgb(100%,100%,100%);fill-opacity:1;" d="M 503.960938 278.578125 C 503.960938 280.25 502.609375 281.59375 500.9375 281.59375 C 499.238281 281.59375 497.914062 280.25 497.914062 278.578125 C 497.914062 276.90625 499.238281 275.558594 500.9375 275.558594 C 502.609375 275.558594 503.960938 276.90625 503.960938 278.578125 "/>
<path style=" stroke:none;fill-rule:nonzero;fill:rgb(30.198669%,9.799194%,10.978699%);fill-opacity:1;" d="M 375.714844 250.214844 C 375.714844 250.214844 355.992188 229.671875 329.015625 229.796875 C 309.199219 229.894531 295.300781 240.300781 295.300781 240.300781 L 299.679688 251.003906 C 299.679688 251.003906 316.765625 242.34375 329.015625 242.378906 C 353.339844 242.433594 375.714844 250.214844 375.714844 250.214844 "/>
<path style=" stroke:none;fill-rule:nonzero;fill:rgb(15.689087%,8.628845%,9.799194%);fill-opacity:1;" d="M 324.058594 276.71875 C 324.058594 286.476562 329.425781 294.386719 336.046875 294.386719 C 342.65625 294.386719 348.03125 286.476562 348.03125 276.71875 C 348.03125 266.96875 342.65625 259.066406 336.046875 259.066406 C 329.425781 259.066406 324.058594 266.96875 324.058594 276.71875 "/>
<path style=" stroke:none;fill-rule:nonzero;fill:rgb(100%,100%,100%);fill-opacity:1;" d="M 326.285156 270.132812 C 326.285156 272.832031 328.460938 275.015625 331.164062 275.015625 C 333.851562 275.015625 336.046875 272.832031 336.046875 270.132812 C 336.046875 267.449219 333.851562 265.273438 331.164062 265.273438 C 328.460938 265.273438 326.285156 267.449219 326.285156 270.132812 "/>
<path style=" stroke:none;fill-rule:nonzero;fill:rgb(100%,100%,100%);fill-opacity:1;" d="M 334.867188 278.578125 C 334.867188 280.25 336.21875 281.59375 337.890625 281.59375 C 339.554688 281.59375 340.917969 280.25 340.917969 278.578125 C 340.917969 276.90625 339.554688 275.558594 337.890625 275.558594 C 336.21875 275.558594 334.867188 276.90625 334.867188 278.578125 "/>
<g clip-path="url(#clip4)" clip-rule="nonzero">
<path style=" stroke:none;fill-rule:nonzero;fill:rgb(10.5896%,9.01947%,10.5896%);fill-opacity:1;" d="M 465.074219 809.988281 L 499.59375 809.988281 L 537.890625 737.710938 L 512.722656 714.328125 L 537.890625 705.820312 L 549.511719 614.152344 L 490.816406 575.085938 C 490.816406 575.085938 497.136719 651.179688 476.359375 757.199219 C 472.730469 775.664062 468.914062 793.308594 465.074219 809.988281 "/>
</g>
<path style=" stroke:none;fill-rule:nonzero;fill:rgb(10.5896%,9.01947%,10.5896%);fill-opacity:1;" d="M 343.324219 714.328125 L 318.175781 737.710938 L 356.476562 809.988281 L 390.980469 809.988281 C 387.125 793.308594 383.316406 775.664062 379.699219 757.199219 C 358.933594 651.179688 365.230469 575.085938 365.230469 575.085938 L 306.546875 614.152344 L 318.175781 705.820312 L 343.324219 714.328125 "/>
<path style=" stroke:none;fill-rule:nonzero;fill:rgb(100%,100%,100%);fill-opacity:1;" d="M 497.914062 607.5 L 427.160156 569.429688 L 497.914062 531.332031 Z M 497.914062 607.5 "/>
<path style=" stroke:none;fill-rule:nonzero;fill:rgb(100%,100%,100%);fill-opacity:1;" d="M 340.917969 607.5 L 427.160156 569.429688 L 340.917969 531.332031 Z M 340.917969 607.5 "/>
<g clip-path="url(#clip5)" clip-rule="nonzero">
<path style=" stroke:none;fill-rule:nonzero;fill:rgb(10.5896%,9.01947%,10.5896%);fill-opacity:1;" d="M 223.878906 809.988281 C 227.152344 760.828125 222.28125 642.902344 203.917969 611.9375 C 167.402344 631.789062 146.054688 712.308594 133.78125 809.988281 L 223.878906 809.988281 "/>
</g>
<path style=" stroke:none;fill-rule:nonzero;fill:rgb(30.198669%,9.799194%,10.978699%);fill-opacity:1;" d="M 521.816406 148.796875 C 511.785156 149.117188 477.816406 178.890625 465.082031 185.667969 C 443.519531 197.167969 422.261719 204.101562 397.648438 204.257812 C 403.742188 204.257812 408.375 201.046875 411.761719 196.550781 C 384.644531 194.78125 360.632812 201.457031 333.8125 201.640625 C 339.546875 199.992188 345.179688 197.957031 349.234375 193.898438 C 339.441406 193.289062 330.128906 198.402344 320.105469 199.011719 C 308.859375 199.710938 299.210938 197.324219 288.59375 196.371094 C 293.273438 195.265625 298.121094 193.914062 301.367188 191.238281 C 286.835938 189.191406 253.191406 176.59375 264.5 155.441406 C 301.304688 86.535156 399.621094 91.378906 415.703125 91.402344 "/>
<path style=" stroke:none;fill-rule:nonzero;fill:rgb(30.198669%,9.799194%,10.978699%);fill-opacity:1;" d="M 254.75 196.8125 C 231.191406 196.8125 213.625 191.304688 201.757812 170.441406 C 206.734375 172.589844 212.480469 172.066406 216.964844 168.910156 C 194.148438 160.898438 186.839844 128.058594 175.445312 109.292969 C 188.503906 112.480469 208.640625 117.355469 220.320312 107.804688 C 216.765625 104.691406 213.667969 100.0625 212.671875 95.742188 C 221.589844 96.976562 228.84375 93.46875 235.988281 88.867188 C 231.132812 84.066406 227.390625 77.695312 228.347656 70.796875 C 253.636719 72.292969 296.242188 -0.0195312 423.664062 12.800781 C 470.746094 17.535156 499.765625 36.117188 510.136719 53.472656 "/>
<g clip-path="url(#clip6)" clip-rule="nonzero">
<path style=" stroke:none;fill-rule:nonzero;fill:rgb(10.5896%,9.01947%,10.5896%);fill-opacity:1;" d="M 676.609375 809.988281 C 670.503906 718.765625 652.808594 627.566406 624.058594 611.9375 C 605.410156 643.363281 599.640625 762.269531 603.1875 809.988281 L 676.609375 809.988281 "/>
</g>
</g>
</svg>
