<?xml version="1.0" encoding="UTF-8"?>
<svg xmlns="http://www.w3.org/2000/svg" xmlns:xlink="http://www.w3.org/1999/xlink" width="810pt" height="809.999993pt" viewBox="0 0 810 809.999993" version="1.2">
<defs>
<clipPath id="clip1">
  <path d="M 122.007812 637 L 688.257812 637 L 688.257812 810 L 122.007812 810 Z M 122.007812 637 "/>
</clipPath>
</defs>
<g id="surface1">
<path style=" stroke:none;fill-rule:nonzero;fill:rgb(33.729553%,20.779419%,11.759949%);fill-opacity:1;" d="M 579.117188 642.613281 C 580.628906 642.613281 581.320312 677.433594 582.753906 677.433594 C 583.121094 677.433594 584.761719 677.433594 584.761719 677.433594 C 585.375 672.203125 584.589844 659.226562 585.53125 659.226562 C 586.398438 659.226562 588.390625 677.433594 589.253906 677.433594 C 609.679688 677.433594 620.71875 677.433594 620.71875 677.433594 C 674.21875 268.738281 684.785156 51.519531 426.261719 51.519531 C 132.964844 51.519531 150.925781 260.164062 203.53125 677.433594 C 203.53125 677.433594 230.574219 677.433594 247.40625 677.050781 C 249.996094 677.015625 250.683594 647.824219 250.683594 647.824219 C 250.683594 647.824219 254.207031 676.59375 254.75 676.394531 L 574.117188 677.433594 L 579.117188 642.613281 "/>
<path style=" stroke:none;fill-rule:nonzero;fill:rgb(95.289612%,72.158813%,52.938843%);fill-opacity:1;" d="M 310.019531 639.886719 L 368.230469 809.675781 L 460.566406 809.675781 L 532.847656 647.074219 L 494.574219 638.238281 L 503.113281 443.871094 L 308.554688 443.871094 L 326.558594 636.578125 L 310.019531 639.886719 "/>
<g clip-path="url(#clip1)" clip-rule="nonzero">
<path style=" stroke:none;fill-rule:nonzero;fill:rgb(52.938843%,6.669617%,28.62854%);fill-opacity:1;" d="M 688.523438 809.675781 C 685.152344 775.707031 679.453125 723.957031 674.277344 703.671875 C 669.96875 686.769531 634.597656 662.503906 615.878906 659.324219 C 616.007812 658.992188 494.984375 637.121094 494.984375 637.121094 C 493.359375 733.8125 408.222656 724.757812 408.222656 724.757812 C 326.96875 724.402344 324.539062 637.121094 324.539062 637.121094 C 324.539062 637.121094 254.511719 649.507812 254.59375 649.867188 C 229.089844 655.28125 208.3125 662.695312 173.605469 710.414062 C 164.464844 722.96875 140.875 770.539062 122.007812 809.675781 L 688.523438 809.675781 "/>
</g>
<path style=" stroke:none;fill-rule:nonzero;fill:rgb(31.369019%,19.219971%,10.5896%);fill-opacity:1;" d="M 322.089844 588.796875 C 320.570312 588.152344 319.066406 587.488281 317.5625 586.808594 C 317.5625 584.625 314.398438 564.21875 308.554688 558.769531 L 319.285156 558.769531 L 322.089844 588.796875 M 496.785156 587.777344 L 498.0625 558.769531 L 503.671875 558.769531 C 503.671875 558.769531 498.734375 579.019531 500.019531 586.273438 C 498.945312 586.78125 497.871094 587.289062 496.785156 587.777344 "/>
<path style=" stroke:none;fill-rule:nonzero;fill:rgb(87.449646%,65.879822%,48.239136%);fill-opacity:1;" d="M 408.589844 606.679688 C 378.191406 606.679688 349.082031 600.324219 322.089844 588.796875 L 319.285156 558.769531 L 498.0625 558.769531 L 496.785156 587.777344 C 470.148438 599.921875 439.738281 606.679688 408.589844 606.679688 "/>
<path style=" stroke:none;fill-rule:nonzero;fill:rgb(93.728638%,80.778503%,70.199585%);fill-opacity:1;" d="M 373.824219 493.40625 C 373.726562 492.171875 373.761719 490.847656 374.15625 489.648438 C 374.828125 487.179688 378.824219 482.699219 380.988281 481.757812 C 379.339844 483.460938 376.058594 487.964844 375.773438 490.007812 C 375.675781 491.066406 375.695312 492.078125 375.902344 493.117188 C 376.058594 494.148438 376.347656 495.1875 376.792969 496.136719 C 377.625 498.066406 378.953125 499.8125 380.519531 501.402344 C 382.046875 502.976562 383.839844 504.378906 385.78125 505.699219 C 383.4375 505.21875 381.277344 504.117188 379.347656 502.703125 "/>
<path style=" stroke:none;fill-rule:nonzero;fill:rgb(95.289612%,72.158813%,52.938843%);fill-opacity:1;" d="M 623.847656 329.816406 C 640.148438 143.402344 558.699219 108.792969 413.1875 108.792969 C 258.089844 108.792969 202.5 153.394531 202.5 329.816406 C 202.5 477.722656 296.832031 597.636719 413.1875 597.636719 C 529.527344 597.636719 610.992188 477.171875 623.847656 329.816406 "/>
<path style=" stroke:none;fill-rule:nonzero;fill:rgb(18.429565%,11.759949%,8.239746%);fill-opacity:1;" d="M 331.636719 355.113281 C 331.636719 334.898438 320.640625 318.570312 307.234375 318.570312 C 293.738281 318.570312 282.847656 334.898438 282.847656 355.113281 C 282.847656 375.328125 293.738281 391.65625 307.234375 391.65625 C 320.640625 391.65625 331.636719 375.328125 331.636719 355.113281 "/>
<path style=" stroke:none;fill-rule:nonzero;fill:rgb(18.429565%,11.759949%,8.239746%);fill-opacity:1;" d="M 541.605469 355.113281 C 541.605469 334.898438 530.6875 318.570312 517.210938 318.570312 C 503.726562 318.570312 492.828125 334.898438 492.828125 355.113281 C 492.828125 375.328125 503.726562 391.65625 517.210938 391.65625 C 530.6875 391.65625 541.605469 375.328125 541.605469 355.113281 "/>
<path style=" stroke:none;fill-rule:nonzero;fill:rgb(86.268616%,65.098572%,47.839355%);fill-opacity:1;" d="M 395.585938 307.203125 C 395.585938 307.203125 396.234375 310.023438 397.359375 314.964844 C 398.460938 319.898438 399.632812 326.996094 400.644531 335.710938 C 402.457031 353.085938 402.429688 376.53125 398.539062 399.625 C 397.761719 405.40625 396.695312 411.152344 395.191406 416.730469 C 393.917969 422.328125 392.570312 427.855469 390.777344 433.050781 C 389.03125 438.230469 387.570312 443.40625 385.464844 448.027344 C 383.59375 453.132812 382.914062 452.6875 385.796875 455.300781 C 388.164062 457.105469 392.894531 459.480469 395.480469 460.328125 C 398.398438 461.65625 401.390625 462.371094 403.785156 463.019531 C 408.714844 464.152344 411.542969 464.800781 411.542969 464.800781 C 411.542969 464.800781 408.6875 465.4375 403.53125 465.566406 C 400.960938 465.566406 397.824219 465.742188 393.996094 465.121094 C 392.011719 465 390.0625 464.546875 388.277344 463.925781 C 386.566406 463.4375 384.152344 462.851562 381.835938 461.585938 C 379.75 460.390625 376.558594 458.339844 375.625 454.101562 C 374.890625 450.0625 375.992188 447.207031 376.714844 444.796875 C 378.296875 440.230469 379.398438 435.25 380.804688 430.160156 C 383.75 420.015625 386.007812 408.960938 387.957031 397.828125 C 389.101562 392.300781 389.84375 386.703125 390.570312 381.195312 C 391.425781 375.675781 392.140625 370.246094 392.535156 364.925781 C 393.113281 359.644531 393.742188 354.527344 393.925781 349.664062 C 394.152344 344.808594 394.808594 340.144531 394.824219 335.929688 C 395.191406 327.460938 395.621094 320.21875 395.410156 315.148438 C 395.523438 310.09375 395.585938 307.203125 395.585938 307.203125 "/>
<path style=" stroke:none;fill-rule:evenodd;fill:rgb(95.289612%,37.649536%,44.709778%);fill-opacity:1;" d="M 436.121094 497.839844 C 424.15625 491.441406 421.082031 496.546875 410.15625 499.296875 C 399.210938 496.546875 396.144531 491.441406 384.265625 497.839844 C 377.589844 501.402344 364.882812 502.765625 357.898438 499.140625 C 362.144531 509.148438 367.878906 522.558594 377.335938 529.910156 C 388.261719 538.460938 397.527344 540.3125 410.15625 539.917969 C 422.800781 540.3125 432.09375 538.460938 443 529.910156 C 452.421875 522.558594 458.242188 509.402344 462.5 499.394531 C 455.542969 503.007812 442.738281 501.402344 436.121094 497.839844 "/>
<path style=" stroke:none;fill-rule:nonzero;fill:rgb(95.289612%,37.649536%,44.709778%);fill-opacity:1;" d="M 357.898438 499.140625 C 357.898438 499.140625 367.277344 546.371094 410.234375 546.46875 C 452.074219 546.484375 462.5 499.394531 462.5 499.394531 C 462.5 499.394531 436.453125 507.234375 410.234375 507.070312 C 370.914062 506.753906 357.898438 499.140625 357.898438 499.140625 "/>
<path style=" stroke:none;fill-rule:nonzero;fill:rgb(100%,100%,100%);fill-opacity:1;" d="M 359.945312 501.65625 C 359.945312 501.65625 405.636719 557.234375 460.542969 501.699219 C 460.542969 501.699219 404.34375 533.019531 359.945312 501.65625 "/>
<path style=" stroke:none;fill-rule:nonzero;fill:rgb(42.749023%,25.099182%,19.219971%);fill-opacity:1;" d="M 487.164062 274.371094 C 487.164062 274.371094 487.589844 274.238281 488.386719 273.960938 C 489.15625 273.742188 490.257812 273.425781 491.664062 273.035156 C 494.445312 272.292969 498.386719 271.394531 503.167969 270.597656 C 507.9375 269.855469 513.539062 269.246094 519.578125 269.105469 C 525.628906 269.035156 532.097656 269.480469 538.40625 270.722656 C 541.570312 271.429688 544.699219 272.171875 547.671875 273.261719 C 550.667969 274.238281 553.527344 275.53125 556.164062 276.910156 C 561.472656 279.671875 565.894531 283.09375 569.214844 286.394531 C 570.953125 287.984375 572.265625 289.695312 573.496094 291.082031 C 574.632812 292.636719 575.648438 293.894531 576.398438 295.019531 C 577.839844 297.273438 578.652344 298.59375 578.652344 298.59375 C 578.652344 298.59375 577.640625 297.421875 575.902344 295.429688 C 575.007812 294.4375 573.792969 293.34375 572.492188 292.042969 C 571.066406 290.882812 569.582031 289.425781 567.695312 288.191406 C 564.058594 285.566406 559.488281 283.015625 554.269531 281.25 C 551.664062 280.378906 548.9375 279.617188 546.105469 279.148438 C 543.273438 278.597656 540.371094 278.351562 537.496094 278.175781 C 525.835938 277.664062 514.328125 280.246094 506.085938 282.9375 C 501.953125 284.289062 498.613281 285.625 496.332031 286.628906 C 495.238281 287.152344 494.375 287.546875 493.769531 287.800781 C 493.246094 288.089844 492.957031 288.238281 492.957031 288.238281 L 492.921875 288.246094 C 489.21875 290.140625 484.691406 288.671875 482.765625 284.945312 C 480.898438 281.25 482.355469 276.726562 486.078125 274.824219 C 486.410156 274.667969 486.804688 274.527344 487.164062 274.371094 "/>
<path style=" stroke:none;fill-rule:nonzero;fill:rgb(42.749023%,25.099182%,19.219971%);fill-opacity:1;" d="M 332.027344 272.894531 C 332.027344 272.894531 331.601562 272.78125 330.789062 272.546875 C 329.984375 272.335938 328.882812 272.058594 327.492188 271.714844 C 324.6875 271.085938 320.710938 270.308594 315.902344 269.65625 C 311.097656 269.078125 305.457031 268.652344 299.417969 268.738281 C 293.378906 268.886719 286.964844 269.523438 280.671875 270.992188 C 277.5625 271.769531 274.441406 272.640625 271.488281 273.820312 C 268.550781 274.921875 265.753906 276.300781 263.132812 277.757812 C 257.929688 280.699219 253.628906 284.289062 250.421875 287.703125 C 248.726562 289.320312 247.503906 291.082031 246.304688 292.523438 C 245.230469 294.085938 244.242188 295.40625 243.542969 296.550781 C 242.191406 298.863281 241.402344 300.179688 241.402344 300.179688 C 241.402344 300.179688 242.375 299.011719 244.070312 296.941406 C 244.898438 295.921875 246.078125 294.785156 247.328125 293.433594 C 248.71875 292.246094 250.152344 290.75 252.003906 289.425781 C 255.535156 286.664062 260.054688 283.976562 265.167969 282.070312 C 267.773438 281.09375 270.457031 280.222656 273.277344 279.671875 C 276.074219 279.007812 278.960938 278.667969 281.871094 278.40625 C 293.476562 277.515625 305.089844 279.679688 313.414062 282.097656 C 317.574219 283.320312 320.980469 284.527344 323.28125 285.46875 C 324.382812 285.921875 325.261719 286.316406 325.867188 286.570312 C 326.410156 286.796875 326.679688 286.925781 326.679688 286.925781 L 326.730469 286.960938 C 330.480469 288.734375 334.984375 287.117188 336.773438 283.347656 C 338.511719 279.574219 336.898438 275.078125 333.128906 273.3125 C 332.78125 273.15625 332.371094 273 332.027344 272.894531 "/>
<path style=" stroke:none;fill-rule:nonzero;fill:rgb(36.468506%,22.749329%,12.939453%);fill-opacity:1;" d="M 645.050781 318.097656 C 620.726562 0.625 414.226562 103.5625 408.589844 100.890625 C 261.765625 30.058594 173.101562 203.058594 184.304688 317.21875 C 192.816406 404.402344 228.023438 482.585938 242.023438 516.464844 C 242.3125 514.9375 237.121094 492.785156 237.460938 491.265625 C 237.410156 490.277344 233.757812 488.0625 233.757812 487.082031 L 233.757812 480.472656 C 233.757812 473.058594 227.699219 478.597656 230.285156 472.054688 C 230.511719 461.980469 225.320312 455.535156 229.917969 446.785156 C 231.246094 443.222656 217.5625 362.175781 219.554688 358.9375 C 222.636719 351.585938 224.429688 344.667969 229.21875 338.582031 L 233.371094 314.046875 L 238.144531 314.046875 C 238.71875 312.640625 239.359375 311.28125 240.207031 309.917969 C 258.988281 278.910156 288.09375 250.035156 316.769531 228.746094 C 336.886719 213.824219 357.375 197.96875 379.398438 185.683594 C 378.324219 161.722656 415.007812 145.429688 432.082031 170.707031 C 440.675781 183.457031 446.320312 197.75 453.382812 211.285156 C 453.882812 211.257812 454.378906 211.230469 454.816406 211.230469 C 469.894531 211.230469 478.554688 221.4375 480.851562 233.3125 C 481.816406 234.03125 482.765625 234.824219 483.761719 235.714844 C 487.957031 239.671875 492.496094 243.601562 497.128906 247.503906 C 497.425781 247.625 497.773438 247.800781 498.148438 247.929688 C 501.453125 249.574219 504.214844 252.050781 506.382812 255.054688 C 506.933594 255.492188 507.414062 255.886719 507.972656 256.382812 C 529.484375 271.699219 553.148438 283.976562 571.976562 303.351562 C 579.039062 310.605469 581.074219 318.964844 579.773438 326.777344 C 583.074219 332.277344 585.722656 338.269531 587.960938 344.328125 C 589.9375 347.515625 591.441406 351.15625 592.65625 355.015625 C 597.207031 363.214844 599.636719 372.644531 600.292969 382.128906 C 607.539062 400.789062 608.910156 419.996094 610.492188 439.171875 C 632.613281 402.195312 647.832031 353.644531 645.050781 318.097656 "/>
<path style=" stroke:none;fill-rule:nonzero;fill:rgb(43.528748%,27.839661%,16.079712%);fill-opacity:1;" d="M 409.113281 124.308594 C 396.800781 156.089844 296.300781 240.054688 296.300781 240.054688 C 157.8125 319.582031 235.144531 495.449219 235.441406 496.773438 C 237.121094 503.636719 242.714844 524.148438 250.710938 527.414062 C 236.054688 478.628906 214.730469 406.683594 227.925781 345.542969 C 236.308594 324.28125 250.710938 311.65625 250.710938 311.65625 C 266.042969 289.34375 310.5 259.167969 310.5 259.167969 C 371.875 224.128906 408.066406 157.550781 408.066406 157.550781 C 412.261719 136.976562 409.113281 124.308594 409.113281 124.308594 "/>
<path style=" stroke:none;fill-rule:nonzero;fill:rgb(43.528748%,27.839661%,16.079712%);fill-opacity:1;" d="M 521.460938 240.054688 C 521.460938 240.054688 420.90625 156.089844 408.6875 124.308594 C 408.6875 124.308594 403.820312 136.976562 408.066406 157.550781 C 408.066406 157.550781 445.875 224.128906 507.1875 259.167969 C 507.1875 259.167969 551.671875 289.34375 567.039062 311.65625 C 567.039062 311.65625 575.359375 322.046875 583.03125 337.953125 C 587.5 346.949219 594.113281 367.328125 600.292969 382.058594 C 607.476562 400.578125 611.980469 421.550781 606.261719 446.785156 C 611.804688 441.199219 613.691406 425.351562 615.492188 417.859375 C 615.84375 416.503906 659.902344 319.582031 521.460938 240.054688 "/>
</g>
</svg>
