<?xml version="1.0" encoding="UTF-8"?>
<svg xmlns="http://www.w3.org/2000/svg" xmlns:xlink="http://www.w3.org/1999/xlink" width="810pt" height="809.999993pt" viewBox="0 0 810 809.999993" version="1.2">
<defs>
<clipPath id="clip1">
  <path d="M 91.453125 480.277344 L 719 480.277344 L 719 809.964844 L 91.453125 809.964844 Z M 91.453125 480.277344 "/>
</clipPath>
</defs>
<g id="surface1">
<g clip-path="url(#clip1)" clip-rule="nonzero">
<path style=" stroke:none;fill-rule:nonzero;fill:rgb(74.899292%,69.799805%,56.469727%);fill-opacity:1;" d="M 183.027344 809.957031 C 189.851562 767.15625 198.660156 727.476562 210.03125 696.707031 C 210.03125 736.820312 210.03125 775.050781 210.03125 809.957031 L 599.671875 809.957031 C 599.671875 775.957031 599.671875 737.667969 599.671875 695.382812 C 611.265625 726.492188 620.210938 766.652344 627.125 809.957031 L 718.683594 809.957031 C 708.707031 708.550781 693.242188 607.605469 669.753906 575.796875 C 637.304688 531.871094 606.289062 534.859375 558.382812 516.6875 C 558.382812 475.433594 502.679688 481.117188 502.679688 481.117188 L 307.136719 481.117188 C 307.136719 481.117188 251.351562 475.433594 251.351562 516.863281 C 203.710938 534.851562 172.789062 532.007812 140.441406 575.796875 C 116.953125 607.605469 101.488281 708.550781 91.511719 809.957031 L 183.027344 809.957031 "/>
</g>
<path style=" stroke:none;fill-rule:nonzero;fill:rgb(35.289001%,19.219971%,7.839966%);fill-opacity:1;" d="M 405.097656 701.023438 C 322.03125 701.023438 246.742188 569.867188 246.742188 518.84375 C 246.742188 473.285156 317.777344 436.21875 405.097656 436.21875 C 492.417969 436.21875 563.453125 473.285156 563.453125 518.84375 C 563.453125 569.867188 488.164062 701.023438 405.097656 701.023438 Z M 405.097656 424.996094 C 308.890625 424.996094 230.617188 467.089844 230.617188 518.84375 C 230.617188 546.304688 251.492188 594.558594 280.25 633.578125 C 300.347656 660.84375 340.578125 705.230469 392.761719 711.476562 C 390.722656 714.109375 389.492188 717.394531 389.492188 720.984375 C 389.492188 725.90625 391.796875 730.289062 395.378906 733.132812 C 384.5625 743.710938 376.835938 769.308594 376.835938 781.488281 C 376.835938 797.050781 389.457031 794.578125 405.03125 794.578125 C 420.605469 794.578125 433.226562 797.050781 433.226562 781.488281 C 433.226562 769.308594 425.503906 743.710938 414.6875 733.132812 C 418.265625 730.289062 420.570312 725.90625 420.570312 720.984375 C 420.570312 717.402344 419.347656 714.117188 417.316406 711.492188 C 469.554688 705.296875 509.832031 660.863281 529.945312 633.578125 C 558.703125 594.558594 579.574219 546.304688 579.574219 518.84375 C 579.574219 467.089844 501.304688 424.996094 405.097656 424.996094 "/>
<path style=" stroke:none;fill-rule:nonzero;fill:rgb(74.899292%,57.649231%,35.688782%);fill-opacity:1;" d="M 723.628906 283.324219 C 723.628906 237.964844 687.535156 201.058594 642.492188 199.660156 C 642.476562 197.835938 642.484375 196.015625 642.476562 194.191406 C 642.347656 170.433594 644.289062 146.410156 636.308594 123.683594 C 623.945312 88.492188 595.886719 60.964844 564.667969 41.765625 C 517.222656 12.59375 460.324219 0.0195312 405.023438 0.0078125 C 349.730469 0.0195312 292.828125 12.59375 245.382812 41.765625 C 214.160156 60.964844 186.113281 88.492188 173.746094 123.683594 C 165.757812 146.410156 167.710938 170.433594 167.578125 194.191406 C 167.570312 196.015625 167.570312 197.84375 167.5625 199.667969 C 122.585938 201.128906 86.566406 238.015625 86.566406 283.324219 C 86.566406 328.546875 122.433594 365.375 167.277344 366.980469 C 167.316406 382.527344 174.628906 412.496094 184.839844 426.867188 C 223.902344 481.855469 326.65625 498.738281 404.871094 498.738281 C 404.921875 498.738281 404.972656 498.738281 405.023438 498.738281 C 405.082031 498.738281 405.132812 498.738281 405.183594 498.738281 C 483.398438 498.738281 586.152344 481.855469 625.207031 426.867188 C 635.417969 412.496094 642.742188 382.527344 642.777344 366.988281 C 687.6875 365.449219 723.628906 328.589844 723.628906 283.324219 "/>
<path style=" stroke:none;fill-rule:nonzero;fill:rgb(43.528748%,26.269531%,13.729858%);fill-opacity:1;" d="M 663.234375 258.011719 L 663.234375 308.648438 C 677.230469 308.648438 688.558594 297.308594 688.558594 283.324219 C 688.558594 269.351562 677.230469 258.011719 663.234375 258.011719 "/>
<path style=" stroke:none;fill-rule:nonzero;fill:rgb(43.528748%,26.269531%,13.729858%);fill-opacity:1;" d="M 146.953125 258.011719 L 146.953125 308.648438 C 132.972656 308.648438 121.628906 297.308594 121.628906 283.324219 C 121.628906 269.351562 132.972656 258.011719 146.953125 258.011719 "/>
<path style=" stroke:none;fill-rule:nonzero;fill:rgb(13.729858%,12.159729%,12.548828%);fill-opacity:1;" d="M 641.929688 396.90625 C 641.929688 396.863281 638.238281 358.039062 638.238281 358.039062 C 638.238281 358.039062 581.175781 368.328125 531.597656 381.410156 C 492.628906 391.703125 436.15625 366.753906 413.773438 355.601562 C 411.023438 354.234375 408.050781 353.511719 405.054688 353.378906 C 402.0625 353.511719 399.089844 354.234375 396.335938 355.601562 C 373.957031 366.753906 317.484375 391.703125 278.519531 381.410156 C 228.9375 368.328125 171.875 358.039062 171.875 358.039062 C 171.875 358.039062 168.183594 396.863281 168.183594 396.90625 C 164.304688 437.640625 160.699219 426.558594 181.230469 454.480469 C 201.445312 481.980469 331.53125 593.238281 405.054688 594.632812 C 478.582031 593.238281 608.664062 481.980469 628.882812 454.480469 C 649.414062 426.558594 645.804688 437.640625 641.929688 396.90625 "/>
<path style=" stroke:none;fill-rule:nonzero;fill:rgb(43.528748%,26.269531%,13.729858%);fill-opacity:1;" d="M 405.097656 489.703125 C 445.4375 489.703125 478.144531 457.015625 478.144531 416.683594 L 332.050781 416.683594 C 332.050781 457.015625 364.753906 489.703125 405.097656 489.703125 "/>
<path style=" stroke:none;fill-rule:nonzero;fill:rgb(13.729858%,12.159729%,12.548828%);fill-opacity:1;" d="M 579.984375 229.710938 C 566.085938 216.214844 547.820312 208.785156 528.554688 208.785156 C 509.292969 208.785156 491.019531 216.214844 477.121094 229.710938 C 474.027344 232.710938 473.101562 237.023438 474.703125 240.953125 C 476.339844 245 480.320312 247.710938 484.613281 247.710938 C 487.285156 247.710938 489.859375 246.652344 491.847656 244.730469 C 501.785156 235.078125 514.824219 229.761719 528.554688 229.761719 C 542.289062 229.761719 555.328125 235.078125 565.265625 244.730469 C 567.253906 246.652344 569.828125 247.710938 572.5 247.710938 C 576.792969 247.710938 580.773438 245 582.410156 240.953125 C 584.011719 237.023438 583.078125 232.710938 579.984375 229.710938 "/>
<path style=" stroke:none;fill-rule:nonzero;fill:rgb(13.729858%,12.159729%,12.548828%);fill-opacity:1;" d="M 230.203125 229.710938 C 244.109375 216.214844 262.375 208.785156 281.636719 208.785156 C 300.902344 208.785156 319.167969 216.214844 333.074219 229.710938 C 336.164062 232.710938 337.09375 237.023438 335.492188 240.953125 C 333.855469 245 329.871094 247.710938 325.582031 247.710938 C 322.902344 247.710938 320.335938 246.652344 318.347656 244.730469 C 308.410156 235.078125 295.371094 229.761719 281.636719 229.761719 C 267.90625 229.761719 254.867188 235.078125 244.929688 244.730469 C 242.941406 246.652344 240.367188 247.710938 237.695312 247.710938 C 233.402344 247.710938 229.421875 245 227.777344 240.953125 C 226.183594 237.023438 227.109375 232.710938 230.203125 229.710938 "/>
<path style=" stroke:none;fill-rule:nonzero;fill:rgb(13.729858%,12.159729%,12.548828%);fill-opacity:1;" d="M 315.234375 291.308594 C 315.234375 309.691406 300.324219 324.59375 281.9375 324.59375 C 263.542969 324.59375 248.632812 309.691406 248.632812 291.308594 C 248.632812 272.929688 263.542969 258.019531 281.9375 258.019531 C 300.324219 258.019531 315.234375 272.929688 315.234375 291.308594 "/>
<path style=" stroke:none;fill-rule:nonzero;fill:rgb(13.729858%,12.159729%,12.548828%);fill-opacity:1;" d="M 494.960938 291.308594 C 494.960938 309.691406 509.867188 324.59375 528.257812 324.59375 C 546.652344 324.59375 561.5625 309.691406 561.5625 291.308594 C 561.5625 272.929688 546.652344 258.019531 528.257812 258.019531 C 509.867188 258.019531 494.960938 272.929688 494.960938 291.308594 "/>
</g>
</svg>
